<svg width="168" height="50" viewBox="0 0 168 50" fill="none" xmlns="http://www.w3.org/2000/svg"><g clip-path="url(#clip0_27342_34467)"><rect width="168" height="50" rx="6" fill="#A6A6A6"/><rect x="1.044" y="1.011" width="165.901" height="47.978" rx="5" fill="#000"/><path d="M40.294 23.994a6.185 6.185 0 012.945-5.19 6.332 6.332 0 00-4.989-2.697c-2.099-.22-4.134 1.256-5.203 1.256-1.09 0-2.737-1.235-4.51-1.198a6.644 6.644 0 00-5.592 3.41c-2.417 4.185-.614 10.337 1.702 13.72 1.158 1.657 2.512 3.507 4.284 3.441 1.734-.071 2.381-1.105 4.474-1.105 2.074 0 2.681 1.105 4.489 1.064 1.86-.03 3.033-1.664 4.15-3.337a13.705 13.705 0 001.899-3.865 5.977 5.977 0 01-3.65-5.5zM36.88 13.881a6.09 6.09 0 001.392-4.363 6.197 6.197 0 00-4.01 2.075 5.795 5.795 0 00-1.429 4.201 5.123 5.123 0 004.046-1.913zm25.33 18.661h-5.916l-1.421 4.196h-2.506l5.604-15.522h2.604l5.604 15.522H63.63l-1.42-4.196zm-5.304-1.936h4.69l-2.312-6.809h-.064l-2.314 6.81zm21.376.474c0 3.517-1.882 5.776-4.723 5.776a3.837 3.837 0 01-3.56-1.98h-.054v5.606h-2.323V25.42h2.248v1.882h.043a4.015 4.015 0 013.603-2c2.873 0 4.766 2.27 4.766 5.777zm-2.388 0c0-2.291-1.184-3.798-2.99-3.798-1.775 0-2.97 1.538-2.97 3.798 0 2.28 1.195 3.807 2.97 3.807 1.806 0 2.99-1.495 2.99-3.807zm14.844 0c0 3.517-1.882 5.776-4.723 5.776a3.836 3.836 0 01-3.56-1.98H82.4v5.606h-2.323V25.42h2.248v1.882h.043a4.015 4.015 0 013.603-2c2.873 0 4.766 2.27 4.766 5.777zm-2.388 0c0-2.291-1.184-3.798-2.99-3.798-1.775 0-2.97 1.538-2.97 3.798 0 2.28 1.195 3.807 2.97 3.807 1.806 0 2.99-1.495 2.99-3.807zm10.62 1.333c.173 1.54 1.668 2.55 3.711 2.55 1.958 0 3.367-1.01 3.367-2.398 0-1.205-.85-1.927-2.861-2.421l-2.012-.485c-2.85-.688-4.174-2.021-4.174-4.184 0-2.678 2.334-4.518 5.649-4.518 3.28 0 5.528 1.84 5.604 4.518h-2.345c-.14-1.55-1.421-2.484-3.292-2.484-1.872 0-3.152.946-3.152 2.323 0 1.097.818 1.743 2.818 2.237l1.711.42c3.184.753 4.508 2.033 4.508 4.303 0 2.904-2.314 4.723-5.993 4.723-3.442 0-5.766-1.776-5.916-4.584h2.377zm14.545-9.67v2.678h2.152v1.84h-2.152v6.238c0 .97.431 1.421 1.377 1.421.256-.004.511-.022.764-.053v1.828c-.425.08-.857.116-1.29.108-2.291 0-3.185-.86-3.185-3.056v-6.486h-1.645v-1.84h1.645v-2.678h2.334zm3.399 8.337c0-3.56 2.097-5.798 5.367-5.798 3.281 0 5.369 2.237 5.369 5.798 0 3.57-2.077 5.798-5.369 5.798-3.291 0-5.367-2.227-5.367-5.798zm8.369 0c0-2.443-1.12-3.884-3.002-3.884-1.882 0-3.001 1.452-3.001 3.884 0 2.452 1.119 3.883 3.001 3.883s3.002-1.43 3.002-3.883zm4.282-5.659h2.215v1.926h.054a2.698 2.698 0 012.722-2.044c.268-.001.535.028.796.086v2.173a3.246 3.246 0 00-1.044-.14 2.343 2.343 0 00-2.318 1.607 2.34 2.34 0 00-.102.997v6.712h-2.323V25.421zm16.498 7.993c-.313 2.054-2.314 3.464-4.873 3.464-3.293 0-5.336-2.205-5.336-5.744 0-3.55 2.054-5.852 5.238-5.852 3.131 0 5.1 2.15 5.1 5.582v.796h-7.993v.14a2.94 2.94 0 00.799 2.29 2.949 2.949 0 002.245.916 2.56 2.56 0 002.614-1.592h2.206zm-7.853-3.378h5.658a2.717 2.717 0 00-.761-2.042 2.714 2.714 0 00-2.015-.83 2.864 2.864 0 00-2.882 2.872zM55.06 9.886a3.299 3.299 0 013.51 3.706c0 2.383-1.288 3.752-3.51 3.752h-2.693V9.886h2.694zm-1.535 6.403h1.406a2.345 2.345 0 002.46-2.682 2.352 2.352 0 00-2.46-2.667h-1.406v5.35zm6.354-1.762a2.666 2.666 0 115.309 0 2.666 2.666 0 11-5.31 0zm4.166 0c0-1.22-.548-1.933-1.51-1.933-.965 0-1.509.713-1.509 1.933 0 1.23.543 1.938 1.509 1.938.962 0 1.51-.713 1.51-1.938zm8.2 2.817h-1.153l-1.163-4.146h-.088l-1.158 4.146H67.54l-1.551-5.629h1.126l1.009 4.295h.083l1.157-4.295h1.066l1.157 4.295h.088l1.003-4.295h1.11l-1.544 5.629zm2.85-5.628h1.07v.894h.082a1.686 1.686 0 011.68-1.003 1.83 1.83 0 011.948 2.093v3.644h-1.11V13.98c0-.904-.394-1.354-1.215-1.354a1.292 1.292 0 00-1.344 1.426v3.293h-1.111v-5.629zm6.55-2.198h1.11v7.826h-1.11V9.518zm2.655 5.009a2.666 2.666 0 115.31 0 2.668 2.668 0 11-5.31 0zm4.166 0c0-1.22-.548-1.933-1.51-1.933-.965 0-1.508.713-1.508 1.934 0 1.23.543 1.937 1.508 1.937.962 0 1.51-.713 1.51-1.938zm2.313 1.225c0-1.013.754-1.597 2.094-1.68l1.524-.088v-.486c0-.594-.393-.93-1.152-.93-.62 0-1.05.228-1.173.626h-1.076c.114-.967 1.023-1.587 2.3-1.587 1.411 0 2.207.702 2.207 1.891v3.846h-1.07v-.79h-.087a1.893 1.893 0 01-1.69.883 1.701 1.701 0 01-1.877-1.685zm3.618-.48V14.8l-1.374.088c-.775.052-1.127.315-1.127.812 0 .506.44.8 1.044.8a1.328 1.328 0 001.457-1.23zm2.566-.745c0-1.778.914-2.905 2.336-2.905a1.856 1.856 0 011.726.988h.084V9.518h1.11v7.826h-1.064v-.89h-.088a1.951 1.951 0 01-1.768.983c-1.431 0-2.336-1.127-2.336-2.91zm1.148 0c0 1.194.562 1.912 1.503 1.912.937 0 1.515-.728 1.515-1.907 0-1.173-.584-1.912-1.515-1.912-.935 0-1.504.723-1.504 1.907zm8.704 0a2.662 2.662 0 01.681-2.047 2.668 2.668 0 014.504.952c.117.352.159.726.124 1.095a2.668 2.668 0 11-5.309 0zm4.167 0c0-1.22-.549-1.933-1.51-1.933-.966 0-1.509.713-1.509 1.933 0 1.23.543 1.938 1.509 1.938.961 0 1.51-.713 1.51-1.938zm2.633-2.811h1.069v.894h.083a1.686 1.686 0 011.68-1.003 1.83 1.83 0 011.948 2.093v3.644h-1.111V13.98c0-.904-.393-1.354-1.215-1.354a1.292 1.292 0 00-1.344 1.426v3.293h-1.11v-5.629zm11.057-1.402v1.427h1.219v.936h-1.219v2.894c0 .59.243.848.796.848.141 0 .283-.01.423-.026v.925a3.633 3.633 0 01-.604.057c-1.235 0-1.727-.434-1.727-1.52v-3.178h-.894v-.936h.894v-1.427h1.112zm2.736-.796h1.102v3.102h.087a1.735 1.735 0 011.717-1.008 1.85 1.85 0 011.868 1.292c.083.26.106.536.07.806v3.634h-1.112v-3.36c0-.9-.419-1.354-1.203-1.354a1.318 1.318 0 00-1.418 1.427v3.287h-1.11l-.001-7.826zm11.321 6.307a2.285 2.285 0 01-2.439 1.628 2.557 2.557 0 01-2.6-2.905 2.604 2.604 0 01.627-2.063 2.593 2.593 0 011.968-.878c1.567 0 2.511 1.07 2.511 2.838v.387h-3.974v.062a1.472 1.472 0 00.393 1.138 1.483 1.483 0 001.106.475 1.347 1.347 0 001.339-.683h1.069zm-3.907-1.814h2.843a1.354 1.354 0 00-.37-1.036 1.362 1.362 0 00-1.016-.422 1.43 1.43 0 00-1.036.421 1.43 1.43 0 00-.421 1.037z" fill="#fff"/></g><defs><clipPath id="clip0_27342_34467"><path fill="#fff" d="M0 0h168v50H0z"/></clipPath></defs></svg>