<svg width="168" height="50" viewBox="0 0 168 50" fill="none" xmlns="http://www.w3.org/2000/svg"><g clip-path="url(#clip0_27704_33370)"><rect width="168" height="50" rx="6" fill="#A6A6A6"/><rect x="1.044" y="1.011" width="165.901" height="47.978" rx="5" fill="#000"/><path d="M59.012 13.743c0 1.046-.312 1.88-.934 2.49-.697.733-1.605 1.107-2.738 1.107-1.132 0-2.003-.374-2.75-1.12-.746-.747-1.12-1.68-1.12-2.775s.374-2.029 1.12-2.775c.747-.747 1.668-1.133 2.75-1.133.548 0 1.07.1 1.556.286.485.2.884.473 1.195.822l-.685.684a2.194 2.194 0 00-.896-.647 2.85 2.85 0 00-1.17-.236c-.808 0-1.505.286-2.065.846-.56.572-.834 1.282-.834 2.14 0 .859.274 1.568.834 2.14.56.56 1.244.847 2.065.847.747 0 1.357-.212 1.855-.622.497-.411.784-.996.858-1.718H55.34v-.896h3.622c.037.2.05.386.05.56zm5.736-4.032v.921h-3.397v2.364h3.061v.896h-3.06v2.365h3.396v.92h-4.355V9.712h4.355zm4.045.921v6.546h-.958v-6.546h-2.091v-.92h5.127v.92h-2.09.012zm6.757 6.546h-.958V9.71h.958v7.467zm4.256-6.546v6.546h-.958v-6.546h-2.09v-.92h5.126v.92h-2.09.012zm12.893 2.813c0 1.107-.374 2.028-1.108 2.775-.747.746-1.655 1.12-2.738 1.12-1.082 0-1.99-.374-2.737-1.12-.735-.747-1.108-1.668-1.108-2.775 0-1.108.373-2.029 1.108-2.775.734-.747 1.642-1.133 2.737-1.133 1.095 0 1.991.373 2.738 1.133.734.746 1.108 1.667 1.108 2.762v.013zm-6.695 0c0 .858.273 1.58.808 2.14.548.56 1.232.846 2.041.846.81 0 1.494-.286 2.029-.846.547-.56.821-1.27.821-2.14 0-.871-.274-1.58-.821-2.14-.548-.56-1.22-.847-2.029-.847-.809 0-1.493.286-2.04.846-.548.56-.81 1.282-.81 2.14zM95 17.178h-.957V9.71h1.17l3.633 5.812h.038l-.038-1.444V9.711h.958v7.467h-.995l-3.796-6.086h-.037l.037 1.444v4.654l-.012-.012z" fill="#fff" stroke="#fff" stroke-width=".2" stroke-miterlimit="10"/><path d="M84.796 28.067c-2.924 0-5.313 2.227-5.313 5.289 0 3.061 2.389 5.289 5.313 5.289 2.925 0 5.314-2.24 5.314-5.29 0-3.048-2.39-5.288-5.314-5.288zm0 8.5c-1.605 0-2.986-1.32-2.986-3.211 0-1.892 1.381-3.21 2.986-3.21 1.606 0 2.987 1.306 2.987 3.21s-1.381 3.21-2.987 3.21zm-11.585-8.5c-2.925 0-5.314 2.227-5.314 5.289 0 3.061 2.39 5.289 5.314 5.289s5.314-2.24 5.314-5.29c0-3.048-2.39-5.288-5.314-5.288zm0 8.5c-1.606 0-2.987-1.32-2.987-3.211 0-1.892 1.381-3.21 2.987-3.21 1.605 0 2.986 1.306 2.986 3.21s-1.381 3.21-2.986 3.21zm-13.789-6.882v2.24h5.376c-.162 1.257-.585 2.19-1.22 2.825-.783.784-2.003 1.642-4.143 1.642-3.31 0-5.899-2.663-5.899-5.973s2.588-5.973 5.899-5.973c1.78 0 3.086.696 4.044 1.605l1.58-1.58c-1.343-1.282-3.123-2.265-5.637-2.265-4.53 0-8.338 3.683-8.338 8.225 0 4.543 3.808 8.226 8.338 8.226 2.452 0 4.294-.796 5.737-2.302 1.481-1.481 1.941-3.572 1.941-5.252 0-.522-.037-1.008-.124-1.406h-7.554v-.012zm56.386 1.742c-.436-1.182-1.78-3.372-4.53-3.372s-4.99 2.14-4.99 5.288c0 2.962 2.24 5.29 5.252 5.29 2.426 0 3.832-1.482 4.405-2.34l-1.805-1.207c-.597.883-1.418 1.468-2.6 1.468-1.183 0-2.029-.535-2.564-1.605l7.081-2.925-.237-.597h-.012zm-7.218 1.767c-.062-2.04 1.581-3.086 2.763-3.086.921 0 1.705.46 1.966 1.12l-4.729 1.966zm-5.749 5.127h2.327V22.766h-2.327V38.32zm-3.808-9.084h-.075c-.522-.622-1.518-1.182-2.787-1.182-2.651 0-5.078 2.327-5.078 5.313 0 2.987 2.427 5.277 5.078 5.277 1.257 0 2.265-.56 2.787-1.207h.075v.759c0 2.028-1.083 3.11-2.825 3.11-1.419 0-2.302-1.02-2.663-1.878l-2.029.846c.585 1.406 2.128 3.123 4.692 3.123 2.725 0 5.028-1.605 5.028-5.512v-9.508h-2.203v.859zm-2.663 7.317c-1.606 0-2.95-1.344-2.95-3.186 0-1.842 1.344-3.223 2.95-3.223 1.605 0 2.825 1.369 2.825 3.223 0 1.854-1.245 3.186-2.825 3.186zm30.339-13.788h-5.562V38.32h2.327v-5.898h3.248c2.576 0 5.102-1.867 5.102-4.829 0-2.962-2.526-4.828-5.102-4.828h-.013zm.063 7.504h-3.298v-5.34h3.298c1.742 0 2.725 1.445 2.725 2.664 0 1.22-.983 2.663-2.725 2.663v.013zm14.348-2.24c-1.68 0-3.422.746-4.144 2.377l2.066.858c.435-.858 1.257-1.145 2.115-1.145 1.195 0 2.427.722 2.439 2.004v.162c-.423-.237-1.319-.598-2.426-.598-2.228 0-4.48 1.22-4.48 3.497 0 2.078 1.817 3.422 3.858 3.422 1.555 0 2.426-.697 2.961-1.518h.075v1.195h2.24v-5.961c0-2.763-2.066-4.306-4.729-4.306l.025.013zm-.286 8.524c-.759 0-1.817-.386-1.817-1.32 0-1.194 1.319-1.654 2.464-1.654 1.02 0 1.506.224 2.115.523a2.808 2.808 0 01-2.762 2.463v-.012zM154 28.366l-2.663 6.745h-.075l-2.762-6.745h-2.502l4.144 9.432-2.364 5.24h2.426l6.384-14.672H154zm-20.919 9.955h2.327V22.766h-2.327V38.32z" fill="#fff"/><path d="M25.785 25.167L12.532 39.229a3.591 3.591 0 003.46 2.663 3.49 3.49 0 001.816-.498l.037-.024 14.909-8.6-6.982-7.603h.013z" fill="#EA4335"/><path d="M39.188 22.778h-.013l-6.434-3.746-7.255 6.459 7.28 7.28 6.41-3.696a3.585 3.585 0 001.878-3.149 3.54 3.54 0 00-1.866-3.136v-.012z" fill="#FBBC04"/><path d="M12.532 12.548a3.735 3.735 0 00-.125.921v24.84c0 .323.037.621.125.92l13.7-13.701-13.7-12.98z" fill="#4285F4"/><path d="M25.884 25.889l6.857-6.857-14.896-8.636a3.595 3.595 0 00-5.314 2.14l13.353 13.353z" fill="#34A853"/></g><defs><clipPath id="clip0_27704_33370"><path fill="#fff" d="M0 0h168v50H0z"/></clipPath></defs></svg>