<svg width="32" height="32" xmlns="http://www.w3.org/2000/svg">

 <g>
  <title>background</title>
  <rect fill="none" id="canvas_background" height="402" width="582" y="-1" x="-1"/>
 </g>
 <g>
  <title>Layer 1</title>
  <path fill="#000000" id="svg_1" d="m21,12.1l-7.8,6.9c-0.1,0.1 -0.1,0.2 -0.1,0.3l-0.3,2.7c0,0.1 -0.1,0.1 -0.2,0l-1.2,-4c-0.1,-0.2 0,-0.4 0.2,-0.5l9.1,-5.7c0.3,-0.1 0.5,0.2 0.3,0.3z" class="st0"/>
  <path fill="#000000" id="svg_2" d="m16,2.2c-3.8,0 -7.3,1.5 -9.8,4c-2.5,2.5 -4.1,6 -4.1,9.8c0,3.8 1.5,7.3 4.1,9.8c2.5,2.5 6,4 9.8,4c3.8,0 7.3,-1.5 9.8,-4c2.5,-2.5 4.1,-6 4.1,-9.8c-0.1,-7.6 -6.3,-13.8 -13.9,-13.8zm8.2,7.9l-2.8,13.6c-0.1,0.6 -0.9,0.9 -1.4,0.5l-4.3,-3.2l-2.2,2.2c-0.4,0.4 -1,0.2 -1.2,-0.3l-1.6,-5l-4.2,-1.3c-0.6,-0.2 -0.6,-0.9 0,-1.1l16.7,-6.5c0.5,-0.1 1.2,0.4 1,1.1z" class="st0"/>
 </g>
</svg>