<?xml version="1.0" encoding="UTF-8"?>
<svg width="79px" height="43px" viewBox="0 0 79 43" version="1.1" xmlns="http://www.w3.org/2000/svg" xmlns:xlink="http://www.w3.org/1999/xlink">
    <!-- Generator: Sketch 64 (93537) - https://sketch.com -->
    <title>10%</title>
    <desc>Created with Sketch.</desc>
    <g id="Page-1" stroke="none" stroke-width="1" fill="none" fill-rule="evenodd">
        <g id="Token---1440" transform="translate(-691.000000, -3401.000000)" fill="#2B2A35" fill-rule="nonzero">
            <path d="M732.936523,3401.25195 C735.37793,3401.25195 737.614258,3401.73535 739.645508,3402.70215 C741.676758,3403.66895 743.405273,3405.05078 744.831055,3406.84766 C746.256836,3408.64453 747.365234,3410.86621 748.15625,3413.5127 C748.947266,3416.15918 749.342773,3419.11328 749.342773,3422.375 C749.342773,3426.63281 748.683594,3430.36328 747.365234,3433.56641 C746.046875,3436.76953 744.147461,3439.24023 741.666992,3440.97852 C739.186523,3442.7168 736.276367,3443.58594 732.936523,3443.58594 C730.495117,3443.58594 728.263672,3443.09766 726.242187,3442.12109 C724.220703,3441.14453 722.49707,3439.75781 721.071289,3437.96094 C719.645508,3436.16406 718.541992,3433.9375 717.760742,3431.28125 C716.979492,3428.625 716.588867,3425.65625 716.588867,3422.375 C716.588867,3418.13672 717.248047,3414.42578 718.566406,3411.24219 C719.884766,3408.05859 721.779297,3405.59766 724.25,3403.85938 C726.720703,3402.12109 729.616211,3401.25195 732.936523,3401.25195 Z M711.670385,3401.80859 L711.670385,3443 L701.855931,3443 L701.855931,3413.46875 L695.5864,3418.15625 L690.957494,3410.91992 L703.877416,3401.80859 L711.670385,3401.80859 Z M732.96582,3410.27539 C730.993164,3410.27539 729.435547,3411.30078 728.292969,3413.35156 C727.150391,3415.40234 726.579102,3418.41016 726.579102,3422.375 C726.579102,3426.08594 727.130859,3429.04004 728.234375,3431.2373 C729.337891,3433.43457 730.915039,3434.5332 732.96582,3434.5332 C734.958008,3434.5332 736.525391,3433.50781 737.667969,3431.45703 C738.810547,3429.40625 739.381836,3426.37891 739.381836,3422.375 C739.381836,3418.64453 738.834961,3415.69531 737.741211,3413.52734 C736.647461,3411.35938 735.055664,3410.27539 732.96582,3410.27539 Z M762.393144,3403.49805 L764.356034,3404.34766 L758.066972,3418.46875 L756.094315,3417.61914 L762.393144,3403.49805 Z M765.566972,3410.20703 C766.120357,3410.20703 766.644446,3410.30306 767.139237,3410.49512 C767.634029,3410.68717 768.063716,3410.9541 768.4283,3411.2959 C768.792883,3411.6377 769.080969,3412.05762 769.292558,3412.55566 C769.504146,3413.05371 769.60994,3413.5957 769.60994,3414.18164 C769.60994,3414.91081 769.443925,3415.5765 769.111894,3416.17871 C768.779862,3416.78092 768.302974,3417.2627 767.681229,3417.62402 C767.059485,3417.98535 766.354732,3418.16602 765.566972,3418.16602 C764.831295,3418.16602 764.159094,3418.00163 763.55037,3417.67285 C762.941646,3417.34408 762.454992,3416.8737 762.090409,3416.26172 C761.725826,3415.64974 761.543534,3414.95638 761.543534,3414.18164 C761.543534,3413.63477 761.64119,3413.11882 761.836503,3412.63379 C762.031815,3412.14876 762.301998,3411.72721 762.64705,3411.36914 C762.992102,3411.01107 763.416906,3410.72786 763.921464,3410.51953 C764.426021,3410.3112 764.974524,3410.20703 765.566972,3410.20703 Z M765.586503,3412.0918 C765.007076,3412.0918 764.533443,3412.29525 764.165604,3412.70215 C763.797766,3413.10905 763.613847,3413.60547 763.613847,3414.19141 C763.613847,3414.60156 763.703365,3414.96777 763.882401,3415.29004 C764.061438,3415.6123 764.300696,3415.86133 764.600175,3416.03711 C764.899654,3416.21289 765.22843,3416.30078 765.586503,3416.30078 C766.16593,3416.30078 766.639563,3416.09733 767.007401,3415.69043 C767.37524,3415.28353 767.559159,3414.78385 767.559159,3414.19141 C767.559159,3413.78125 767.471269,3413.41504 767.295487,3413.09277 C767.119706,3412.77051 766.882076,3412.52311 766.582597,3412.35059 C766.283117,3412.17806 765.951086,3412.0918 765.586503,3412.0918 Z M754.824784,3403.63477 C755.566972,3403.63477 756.244055,3403.79753 756.856034,3404.12305 C757.468013,3404.44857 757.956295,3404.91569 758.320878,3405.52441 C758.685461,3406.13314 758.867753,3406.82487 758.867753,3407.59961 C758.867753,3408.32878 758.701737,3408.99772 758.369706,3409.60645 C758.037675,3410.21517 757.560787,3410.7002 756.939042,3411.06152 C756.317297,3411.42285 755.612545,3411.60352 754.824784,3411.60352 C754.089107,3411.60352 753.415279,3411.43913 752.8033,3411.11035 C752.191321,3410.78158 751.703039,3410.30957 751.338456,3409.69434 C750.973873,3409.0791 750.791581,3408.38086 750.791581,3407.59961 C750.791581,3406.87695 750.957597,3406.21452 751.289628,3405.6123 C751.621659,3405.01009 752.09692,3404.52995 752.715409,3404.17188 C753.333899,3403.8138 754.037024,3403.63477 754.824784,3403.63477 Z M754.844315,3405.5293 C754.460201,3405.5293 754.118404,3405.62207 753.818925,3405.80762 C753.519446,3405.99316 753.288326,3406.24544 753.125565,3406.56445 C752.962805,3406.88346 752.881425,3407.23503 752.881425,3407.61914 C752.881425,3408.0293 752.969315,3408.39714 753.145097,3408.72266 C753.320878,3409.04818 753.558508,3409.29883 753.857987,3409.47461 C754.157466,3409.65039 754.486242,3409.73828 754.844315,3409.73828 C755.423742,3409.73828 755.897375,3409.53483 756.265214,3409.12793 C756.633052,3408.72103 756.816972,3408.2181 756.816972,3407.61914 C756.816972,3407.20898 756.729081,3406.84277 756.5533,3406.52051 C756.377519,3406.19824 756.139888,3405.95247 755.840409,3405.7832 C755.54093,3405.61393 755.208899,3405.5293 754.844315,3405.5293 Z" id="10%"></path>
        </g>
    </g>
</svg>