<?xml version="1.0" encoding="UTF-8"?>
<svg width="84px" height="43px" viewBox="0 0 84 43" version="1.1" xmlns="http://www.w3.org/2000/svg" xmlns:xlink="http://www.w3.org/1999/xlink">
    <!-- Generator: Sketch 64 (93537) - https://sketch.com -->
    <title>20%</title>
    <desc>Created with Sketch.</desc>
    <g id="Page-1" stroke="none" stroke-width="1" fill="none" fill-rule="evenodd">
        <g id="Token---1440" transform="translate(-969.000000, -3401.000000)" fill="#2B2A35" fill-rule="nonzero">
            <path d="M1016.05664,3401.25195 C1018.49805,3401.25195 1020.73438,3401.73535 1022.76562,3402.70215 C1024.79687,3403.66895 1026.52539,3405.05078 1027.95117,3406.84766 C1029.37695,3408.64453 1030.48535,3410.86621 1031.27637,3413.5127 C1032.06738,3416.15918 1032.46289,3419.11328 1032.46289,3422.375 C1032.46289,3426.63281 1031.80371,3430.36328 1030.48535,3433.56641 C1029.16699,3436.76953 1027.26758,3439.24023 1024.78711,3440.97852 C1022.30664,3442.7168 1019.39648,3443.58594 1016.05664,3443.58594 C1013.61523,3443.58594 1011.38379,3443.09766 1009.3623,3442.12109 C1007.34082,3441.14453 1005.61719,3439.75781 1004.19141,3437.96094 C1002.76562,3436.16406 1001.66211,3433.9375 1000.88086,3431.28125 C1000.09961,3428.625 999.708984,3425.65625 999.708984,3422.375 C999.708984,3418.13672 1000.36816,3414.42578 1001.68652,3411.24219 C1003.00488,3408.05859 1004.89941,3405.59766 1007.37012,3403.85938 C1009.84082,3402.12109 1012.73633,3401.25195 1016.05664,3401.25195 Z M983.101049,3401.25195 C984.097142,3401.25195 985.078588,3401.34473 986.045385,3401.53027 C987.012181,3401.71582 987.935033,3401.98926 988.813939,3402.35059 C989.692845,3402.71191 990.518041,3403.15137 991.289525,3403.66895 C992.061009,3404.18652 992.764134,3404.79199 993.3989,3405.48535 C994.033666,3406.17871 994.575658,3406.93066 995.024877,3407.74121 C995.474095,3408.55176 995.820775,3409.4502 996.064916,3410.43652 C996.309056,3411.42285 996.431127,3412.45312 996.431127,3413.52734 C996.431127,3415.1875 996.255345,3416.67676 995.903783,3417.99512 C995.55222,3419.31348 994.883275,3420.74902 993.896947,3422.30176 C992.910619,3423.85449 991.519017,3425.56836 989.722142,3427.44336 L989.722142,3427.44336 L983.306127,3434.12305 L983.306127,3434.21094 L996.841283,3434.21094 L996.841283,3443 L969.448705,3443 L969.331517,3436.70117 L981.519017,3423.57617 C983.27683,3421.70117 984.565892,3420.08496 985.386205,3418.72754 C986.206517,3417.37012 986.616674,3416.00781 986.616674,3414.64062 C986.616674,3413.35156 986.2114,3412.28711 985.400853,3411.44727 C984.590306,3410.60742 983.550267,3410.1875 982.280736,3410.1875 C979.800267,3410.1875 977.690892,3411.4668 975.952611,3414.02539 L975.952611,3414.02539 L969.038549,3409.04492 C969.68308,3407.93164 970.435033,3406.9209 971.294408,3406.0127 C972.153783,3405.10449 973.15476,3404.28418 974.297338,3403.55176 C975.439916,3402.81934 976.763158,3402.25293 978.267064,3401.85254 C979.77097,3401.45215 981.382298,3401.25195 983.101049,3401.25195 Z M1016.08594,3410.27539 C1014.11328,3410.27539 1012.55566,3411.30078 1011.41309,3413.35156 C1010.27051,3415.40234 1009.69922,3418.41016 1009.69922,3422.375 C1009.69922,3426.08594 1010.25098,3429.04004 1011.35449,3431.2373 C1012.45801,3433.43457 1014.03516,3434.5332 1016.08594,3434.5332 C1018.07812,3434.5332 1019.64551,3433.50781 1020.78809,3431.45703 C1021.93066,3429.40625 1022.50195,3426.37891 1022.50195,3422.375 C1022.50195,3418.64453 1021.95508,3415.69531 1020.86133,3413.52734 C1019.76758,3411.35938 1018.17578,3410.27539 1016.08594,3410.27539 Z M1045.39314,3403.49805 L1047.35603,3404.34766 L1041.06697,3418.46875 L1039.09432,3417.61914 L1045.39314,3403.49805 Z M1048.56697,3410.20703 C1049.12036,3410.20703 1049.64445,3410.30306 1050.13924,3410.49512 C1050.63403,3410.68717 1051.06372,3410.9541 1051.4283,3411.2959 C1051.79288,3411.6377 1052.08097,3412.05762 1052.29256,3412.55566 C1052.50415,3413.05371 1052.60994,3413.5957 1052.60994,3414.18164 C1052.60994,3414.91081 1052.44392,3415.5765 1052.11189,3416.17871 C1051.77986,3416.78092 1051.30297,3417.2627 1050.68123,3417.62402 C1050.05948,3417.98535 1049.35473,3418.16602 1048.56697,3418.16602 C1047.83129,3418.16602 1047.15909,3418.00163 1046.55037,3417.67285 C1045.94165,3417.34408 1045.45499,3416.8737 1045.09041,3416.26172 C1044.72583,3415.64974 1044.54353,3414.95638 1044.54353,3414.18164 C1044.54353,3413.63477 1044.64119,3413.11882 1044.8365,3412.63379 C1045.03182,3412.14876 1045.302,3411.72721 1045.64705,3411.36914 C1045.9921,3411.01107 1046.41691,3410.72786 1046.92146,3410.51953 C1047.42602,3410.3112 1047.97452,3410.20703 1048.56697,3410.20703 Z M1048.5865,3412.0918 C1048.00708,3412.0918 1047.53344,3412.29525 1047.1656,3412.70215 C1046.79777,3413.10905 1046.61385,3413.60547 1046.61385,3414.19141 C1046.61385,3414.60156 1046.70336,3414.96777 1046.8824,3415.29004 C1047.06144,3415.6123 1047.3007,3415.86133 1047.60017,3416.03711 C1047.89965,3416.21289 1048.22843,3416.30078 1048.5865,3416.30078 C1049.16593,3416.30078 1049.63956,3416.09733 1050.0074,3415.69043 C1050.37524,3415.28353 1050.55916,3414.78385 1050.55916,3414.19141 C1050.55916,3413.78125 1050.47127,3413.41504 1050.29549,3413.09277 C1050.11971,3412.77051 1049.88208,3412.52311 1049.5826,3412.35059 C1049.28312,3412.17806 1048.95109,3412.0918 1048.5865,3412.0918 Z M1037.82478,3403.63477 C1038.56697,3403.63477 1039.24405,3403.79753 1039.85603,3404.12305 C1040.46801,3404.44857 1040.95629,3404.91569 1041.32088,3405.52441 C1041.68546,3406.13314 1041.86775,3406.82487 1041.86775,3407.59961 C1041.86775,3408.32878 1041.70174,3408.99772 1041.36971,3409.60645 C1041.03767,3410.21517 1040.56079,3410.7002 1039.93904,3411.06152 C1039.3173,3411.42285 1038.61254,3411.60352 1037.82478,3411.60352 C1037.08911,3411.60352 1036.41528,3411.43913 1035.8033,3411.11035 C1035.19132,3410.78158 1034.70304,3410.30957 1034.33846,3409.69434 C1033.97387,3409.0791 1033.79158,3408.38086 1033.79158,3407.59961 C1033.79158,3406.87695 1033.9576,3406.21452 1034.28963,3405.6123 C1034.62166,3405.01009 1035.09692,3404.52995 1035.71541,3404.17188 C1036.3339,3403.8138 1037.03702,3403.63477 1037.82478,3403.63477 Z M1037.84432,3405.5293 C1037.4602,3405.5293 1037.1184,3405.62207 1036.81892,3405.80762 C1036.51945,3405.99316 1036.28833,3406.24544 1036.12557,3406.56445 C1035.9628,3406.88346 1035.88142,3407.23503 1035.88142,3407.61914 C1035.88142,3408.0293 1035.96932,3408.39714 1036.1451,3408.72266 C1036.32088,3409.04818 1036.55851,3409.29883 1036.85799,3409.47461 C1037.15747,3409.65039 1037.48624,3409.73828 1037.84432,3409.73828 C1038.42374,3409.73828 1038.89738,3409.53483 1039.26521,3409.12793 C1039.63305,3408.72103 1039.81697,3408.2181 1039.81697,3407.61914 C1039.81697,3407.20898 1039.72908,3406.84277 1039.5533,3406.52051 C1039.37752,3406.19824 1039.13989,3405.95247 1038.84041,3405.7832 C1038.54093,3405.61393 1038.2089,3405.5293 1037.84432,3405.5293 Z" id="20%"></path>
        </g>
    </g>
</svg>