<?xml version="1.0" encoding="UTF-8"?>
<svg width="52px" height="43px" viewBox="0 0 52 43" version="1.1" xmlns="http://www.w3.org/2000/svg" xmlns:xlink="http://www.w3.org/1999/xlink">
    <!-- Generator: Sketch 64 (93537) - https://sketch.com -->
    <title>5%</title>
    <desc>Created with Sketch.</desc>
    <g id="Page-1" stroke="none" stroke-width="1" fill="none" fill-rule="evenodd">
        <g id="Token---1440" transform="translate(-425.000000, -3401.000000)" fill="#2B2A35" fill-rule="nonzero">
            <path d="M452.879626,3401.80859 L452.879626,3410.56836 L438.289782,3410.56836 L437.908923,3416.98438 C439.686267,3416.49609 441.229235,3416.25195 442.537829,3416.25195 C444.237048,3416.25195 445.848376,3416.56445 447.371813,3417.18945 C448.895251,3417.81445 450.228259,3418.69336 451.370837,3419.82617 C452.513415,3420.95898 453.416735,3422.36523 454.080798,3424.04492 C454.74486,3425.72461 455.076892,3427.55078 455.076892,3429.52344 C455.076892,3432.23828 454.422595,3434.66992 453.114001,3436.81836 C451.805407,3438.9668 450.018298,3440.63184 447.752673,3441.81348 C445.487048,3442.99512 442.957751,3443.58594 440.164782,3443.58594 C437.274157,3443.58594 434.58861,3443.06348 432.108142,3442.01855 C429.627673,3440.97363 427.46947,3439.38672 425.633532,3437.25781 L425.633532,3437.25781 L432.547595,3431.60352 C434.364001,3433.73242 436.600329,3434.79688 439.256579,3434.79688 C441.014392,3434.79688 442.454821,3434.27441 443.577868,3433.22949 C444.700915,3432.18457 445.262438,3430.89063 445.262438,3429.34766 C445.262438,3428.19531 444.964587,3427.19434 444.368884,3426.34473 C443.773181,3425.49512 443.045641,3424.88477 442.186267,3424.51367 C441.326892,3424.14258 440.408923,3423.95703 439.43236,3423.95703 C438.416735,3423.95703 437.464587,3424.1084 436.575915,3424.41113 C435.687243,3424.71387 434.754626,3425.23633 433.778063,3425.97852 L433.778063,3425.97852 L428.709704,3424.04492 L430.028063,3401.80859 L452.879626,3401.80859 Z M469.393144,3403.49805 L471.356034,3404.34766 L465.066972,3418.46875 L463.094315,3417.61914 L469.393144,3403.49805 Z M472.566972,3410.20703 C473.120357,3410.20703 473.644446,3410.30306 474.139237,3410.49512 C474.634029,3410.68717 475.063716,3410.9541 475.4283,3411.2959 C475.792883,3411.6377 476.080969,3412.05762 476.292558,3412.55566 C476.504146,3413.05371 476.60994,3413.5957 476.60994,3414.18164 C476.60994,3414.91081 476.443925,3415.5765 476.111894,3416.17871 C475.779862,3416.78092 475.302974,3417.2627 474.681229,3417.62402 C474.059485,3417.98535 473.354732,3418.16602 472.566972,3418.16602 C471.831295,3418.16602 471.159094,3418.00163 470.55037,3417.67285 C469.941646,3417.34408 469.454992,3416.8737 469.090409,3416.26172 C468.725826,3415.64974 468.543534,3414.95638 468.543534,3414.18164 C468.543534,3413.63477 468.64119,3413.11882 468.836503,3412.63379 C469.031815,3412.14876 469.301998,3411.72721 469.64705,3411.36914 C469.992102,3411.01107 470.416906,3410.72786 470.921464,3410.51953 C471.426021,3410.3112 471.974524,3410.20703 472.566972,3410.20703 Z M472.586503,3412.0918 C472.007076,3412.0918 471.533443,3412.29525 471.165604,3412.70215 C470.797766,3413.10905 470.613847,3413.60547 470.613847,3414.19141 C470.613847,3414.60156 470.703365,3414.96777 470.882401,3415.29004 C471.061438,3415.6123 471.300696,3415.86133 471.600175,3416.03711 C471.899654,3416.21289 472.22843,3416.30078 472.586503,3416.30078 C473.16593,3416.30078 473.639563,3416.09733 474.007401,3415.69043 C474.37524,3415.28353 474.559159,3414.78385 474.559159,3414.19141 C474.559159,3413.78125 474.471269,3413.41504 474.295487,3413.09277 C474.119706,3412.77051 473.882076,3412.52311 473.582597,3412.35059 C473.283117,3412.17806 472.951086,3412.0918 472.586503,3412.0918 Z M461.824784,3403.63477 C462.566972,3403.63477 463.244055,3403.79753 463.856034,3404.12305 C464.468013,3404.44857 464.956295,3404.91569 465.320878,3405.52441 C465.685461,3406.13314 465.867753,3406.82487 465.867753,3407.59961 C465.867753,3408.32878 465.701737,3408.99772 465.369706,3409.60645 C465.037675,3410.21517 464.560787,3410.7002 463.939042,3411.06152 C463.317297,3411.42285 462.612545,3411.60352 461.824784,3411.60352 C461.089107,3411.60352 460.415279,3411.43913 459.8033,3411.11035 C459.191321,3410.78158 458.703039,3410.30957 458.338456,3409.69434 C457.973873,3409.0791 457.791581,3408.38086 457.791581,3407.59961 C457.791581,3406.87695 457.957597,3406.21452 458.289628,3405.6123 C458.621659,3405.01009 459.09692,3404.52995 459.715409,3404.17188 C460.333899,3403.8138 461.037024,3403.63477 461.824784,3403.63477 Z M461.844315,3405.5293 C461.460201,3405.5293 461.118404,3405.62207 460.818925,3405.80762 C460.519446,3405.99316 460.288326,3406.24544 460.125565,3406.56445 C459.962805,3406.88346 459.881425,3407.23503 459.881425,3407.61914 C459.881425,3408.0293 459.969315,3408.39714 460.145097,3408.72266 C460.320878,3409.04818 460.558508,3409.29883 460.857987,3409.47461 C461.157466,3409.65039 461.486242,3409.73828 461.844315,3409.73828 C462.423742,3409.73828 462.897375,3409.53483 463.265214,3409.12793 C463.633052,3408.72103 463.816972,3408.2181 463.816972,3407.61914 C463.816972,3407.20898 463.729081,3406.84277 463.5533,3406.52051 C463.377519,3406.19824 463.139888,3405.95247 462.840409,3405.7832 C462.54093,3405.61393 462.208899,3405.5293 461.844315,3405.5293 Z" id="5%"></path>
        </g>
    </g>
</svg>