<?xml version="1.0" encoding="UTF-8"?>
<svg width="252px" height="57px" viewBox="0 0 252 57" version="1.1" xmlns="http://www.w3.org/2000/svg" xmlns:xlink="http://www.w3.org/1999/xlink">
    <!-- Generator: Sketch 64 (93537) - https://sketch.com -->
    <title>Getpaid</title>
    <desc>Created with Sketch.</desc>
    <defs>
        <linearGradient x1="81.6089685%" y1="46.7733363%" x2="8.72124498%" y2="54.1355936%" id="linearGradient-1">
            <stop stop-color="#FF1594" offset="0%"></stop>
            <stop stop-color="#FF5EB6" offset="99.9656883%"></stop>
        </linearGradient>
        <path d="M937.669531,3121.46875 C940.892187,3121.46875 944.031836,3120.99023 947.088477,3120.0332 C950.145117,3119.07617 952.65,3117.82617 954.603125,3116.2832 L954.603125,3097.12305 L936.790625,3097.12305 L936.790625,3105.58984 L944.964453,3105.58984 L944.964453,3110.42383 C942.640235,3111.69336 940.208594,3112.32812 937.669531,3112.32812 C935.911719,3112.32812 934.305274,3111.99609 932.850195,3111.33203 C931.395117,3110.66797 930.18418,3109.76953 929.217383,3108.63672 C928.250586,3107.50391 927.503516,3106.17578 926.976172,3104.65234 C926.448828,3103.12891 926.185156,3101.50781 926.185156,3099.78906 C926.185156,3097.85547 926.483008,3096.08789 927.078711,3094.48633 C927.674414,3092.88477 928.475195,3091.55664 929.481055,3090.50195 C930.486914,3089.44727 931.658789,3088.63672 932.99668,3088.07031 C934.33457,3087.50391 935.755469,3087.2207 937.259375,3087.2207 C941.146094,3087.2207 944.534765,3088.62695 947.425391,3091.43945 L954.515234,3085.4043 C952.405859,3082.96289 949.80332,3081.08301 946.707617,3079.76465 C943.611914,3078.44629 940.472266,3077.78711 937.288672,3077.78711 C933.96836,3077.78711 930.941015,3078.35352 928.206641,3079.48633 C925.472266,3080.61914 923.201758,3082.17188 921.395117,3084.14453 C919.588476,3086.11719 918.191992,3088.44141 917.205664,3091.11719 C916.219336,3093.79297 915.726172,3096.68359 915.726172,3099.78906 C915.726172,3102.50391 916.092383,3105.02344 916.824805,3107.34766 C917.557227,3109.67187 918.5875,3111.69336 919.915625,3113.41211 C921.24375,3115.13086 922.816016,3116.60059 924.632422,3117.82129 C926.448828,3119.04199 928.460547,3119.95508 930.667578,3120.56055 C932.874609,3121.16602 935.208594,3121.46875 937.669531,3121.46875 Z M974.678516,3121.55664 C977.588672,3121.55664 980.166797,3121.04395 982.412891,3120.01855 C984.658985,3118.99316 986.446094,3117.64062 987.774219,3115.96094 L982.79375,3110.36523 C980.7625,3112.72852 978.389453,3113.91016 975.674609,3113.91016 C973.936328,3113.91016 972.427539,3113.46582 971.148242,3112.57715 C969.868945,3111.68848 969.063281,3110.44336 968.73125,3108.8418 L988.711719,3108.8418 C988.867969,3107.68945 988.946094,3106.76172 988.946094,3106.05859 C988.946094,3103.1875 988.325976,3100.60938 987.085742,3098.32422 C985.845508,3096.03906 984.112109,3094.26172 981.885547,3092.99219 C979.658984,3091.72266 977.139453,3091.08789 974.326953,3091.08789 C972.198047,3091.08789 970.210742,3091.46875 968.365039,3092.23047 C966.519336,3092.99219 964.942188,3094.03711 963.633594,3095.36523 C962.325,3096.69336 961.294727,3098.30469 960.542773,3100.19922 C959.79082,3102.09375 959.414844,3104.13477 959.414844,3106.32227 C959.414844,3108.54883 959.805469,3110.61426 960.586719,3112.51855 C961.367969,3114.42285 962.432422,3116.03418 963.780078,3117.35254 C965.127734,3118.6709 966.743945,3119.70117 968.628711,3120.44336 C970.513476,3121.18555 972.530078,3121.55664 974.678516,3121.55664 Z M968.760547,3103.24609 C969.053516,3101.76172 969.707812,3100.61426 970.723437,3099.80371 C971.739063,3098.99316 972.969531,3098.58789 974.414844,3098.58789 C975.332812,3098.58789 976.162891,3098.77344 976.905078,3099.14453 C977.647265,3099.51563 978.252734,3100.04297 978.721484,3100.72656 C979.190234,3101.41016 979.532031,3102.23047 979.746875,3103.1875 L968.760547,3103.24609 Z M1003.48438,3121.55664 C1005.35938,3121.55664 1006.89746,3121.38574 1008.09863,3121.04395 C1009.2998,3120.70215 1010.49609,3120.19922 1011.6875,3119.53516 L1009.37305,3112.62109 C1008.41602,3113.10938 1007.44922,3113.35352 1006.47266,3113.35352 C1005.63281,3113.35352 1005.05176,3113.06055 1004.72949,3112.47461 C1004.40723,3111.88867 1004.24609,3111.06836 1004.24609,3110.01367 L1004.24609,3099.29102 L1011.36523,3099.29102 L1011.36523,3091.64453 L1004.24609,3091.64453 L1004.24609,3081.27344 L994.871094,3082.26953 L994.871094,3091.64453 L991.560547,3091.64453 L991.560547,3099.29102 L994.871094,3099.29102 L994.871094,3111.77148 C994.871094,3114.97461 995.652344,3117.40625 997.214844,3119.06641 C998.777344,3120.72656 1000.86719,3121.55664 1003.48438,3121.55664 Z M1040.67617,3132.86523 L1040.67617,3118.12891 L1040.82266,3118.12891 C1042.79531,3120.41406 1045.43203,3121.55664 1048.73281,3121.55664 C1051.38906,3121.55664 1053.76699,3120.92676 1055.8666,3119.66699 C1057.96621,3118.40723 1059.60684,3116.62012 1060.78848,3114.30566 C1061.97012,3111.99121 1062.56094,3109.33984 1062.56094,3106.35156 C1062.56094,3104.14453 1062.21914,3102.08887 1061.53555,3100.18457 C1060.85195,3098.28027 1059.91445,3096.66406 1058.72305,3095.33594 C1057.53164,3094.00781 1056.11074,3092.96777 1054.46035,3092.21582 C1052.80996,3091.46387 1051.04727,3091.08789 1049.17227,3091.08789 C1045.73477,3091.08789 1042.95156,3092.32812 1040.82266,3094.80859 L1040.70547,3094.80859 L1040.70547,3091.64453 L1031.30117,3091.64453 L1031.30117,3132.86523 L1040.67617,3132.86523 Z M1046.79922,3113.29492 C1044.92422,3113.29492 1043.37637,3112.66016 1042.15566,3111.39062 C1040.93496,3110.12109 1040.32461,3108.45117 1040.32461,3106.38086 C1040.32461,3104.34961 1040.93008,3102.67969 1042.14102,3101.37109 C1043.35195,3100.0625 1044.89492,3099.4082 1046.76992,3099.4082 C1047.64883,3099.4082 1048.47891,3099.57422 1049.26016,3099.90625 C1050.04141,3100.23828 1050.71035,3100.70703 1051.26699,3101.3125 C1051.82363,3101.91797 1052.26309,3102.65527 1052.58535,3103.52441 C1052.90762,3104.39355 1053.06875,3105.3457 1053.06875,3106.38086 C1053.06875,3108.43164 1052.48281,3110.09668 1051.31094,3111.37598 C1050.13906,3112.65527 1048.63516,3113.29492 1046.79922,3113.29492 Z M1079.91172,3121.55664 C1083.44688,3121.55664 1086.16172,3120.31641 1088.05625,3117.83594 L1088.17344,3117.83594 L1088.17344,3121 L1097.07969,3121 L1097.07969,3091.64453 L1087.67539,3091.64453 L1087.67539,3094.75 L1087.5582,3094.75 C1085.46836,3092.30859 1082.77305,3091.08789 1079.47227,3091.08789 C1077.59727,3091.08789 1075.83457,3091.46387 1074.18418,3092.21582 C1072.53379,3092.96777 1071.11289,3094.00781 1069.92148,3095.33594 C1068.73008,3096.66406 1067.79258,3098.28027 1067.10898,3100.18457 C1066.42539,3102.08887 1066.08359,3104.14453 1066.08359,3106.35156 C1066.08359,3108.59766 1066.42539,3110.66797 1067.10898,3112.5625 C1067.79258,3114.45703 1068.73984,3116.05859 1069.95078,3117.36719 C1071.16172,3118.67578 1072.62656,3119.70117 1074.34531,3120.44336 C1076.06406,3121.18555 1077.91953,3121.55664 1079.91172,3121.55664 Z M1081.84531,3113.29492 C1080.00937,3113.29492 1078.50547,3112.65527 1077.33359,3111.37598 C1076.16172,3110.09668 1075.57578,3108.43164 1075.57578,3106.38086 C1075.57578,3104.31055 1076.17148,3102.63086 1077.36289,3101.3418 C1078.5543,3100.05273 1080.0582,3099.4082 1081.87461,3099.4082 C1083.02695,3099.4082 1084.07676,3099.70605 1085.02402,3100.30176 C1085.97129,3100.89746 1086.71348,3101.72754 1087.25059,3102.79199 C1087.7877,3103.85645 1088.05625,3105.05273 1088.05625,3106.38086 C1088.05625,3108.43164 1087.46055,3110.09668 1086.26914,3111.37598 C1085.07773,3112.65527 1083.60312,3113.29492 1081.84531,3113.29492 Z M1108.36602,3088.1582 C1110.02617,3088.1582 1111.41777,3087.64551 1112.54082,3086.62012 C1113.66387,3085.59473 1114.22539,3084.28125 1114.22539,3082.67969 C1114.22539,3081.09766 1113.66387,3079.79395 1112.54082,3078.76855 C1111.41777,3077.74316 1110.02617,3077.23047 1108.36602,3077.23047 C1107.2918,3077.23047 1106.31035,3077.45996 1105.42168,3077.91895 C1104.53301,3078.37793 1103.825,3079.02246 1103.29766,3079.85254 C1102.77031,3080.68262 1102.50664,3081.625 1102.50664,3082.67969 C1102.50664,3084.28125 1103.06816,3085.59473 1104.19121,3086.62012 C1105.31426,3087.64551 1106.70586,3088.1582 1108.36602,3088.1582 Z M1113.02422,3121 L1113.02422,3091.64453 L1103.67852,3091.64453 L1103.67852,3121 L1113.02422,3121 Z M1132.19141,3121.55664 C1135.82422,3121.55664 1138.61719,3120.31641 1140.57031,3117.83594 L1140.6875,3117.83594 L1140.6875,3121 L1149.59375,3121 L1149.59375,3076.82031 L1140.18945,3076.82031 L1140.18945,3094.75 L1140.07227,3094.75 C1137.92383,3092.30859 1135.15039,3091.08789 1131.75195,3091.08789 C1129.87695,3091.08789 1128.11426,3091.46387 1126.46387,3092.21582 C1124.81348,3092.96777 1123.39258,3094.00781 1122.20117,3095.33594 C1121.00977,3096.66406 1120.07227,3098.28027 1119.38867,3100.18457 C1118.70508,3102.08887 1118.36328,3104.14453 1118.36328,3106.35156 C1118.36328,3108.59766 1118.70508,3110.66797 1119.38867,3112.5625 C1120.07227,3114.45703 1121.01953,3116.05859 1122.23047,3117.36719 C1123.44141,3118.67578 1124.90625,3119.70117 1126.625,3120.44336 C1128.34375,3121.18555 1130.19922,3121.55664 1132.19141,3121.55664 Z M1134.125,3113.29492 C1132.28906,3113.29492 1130.78516,3112.65527 1129.61328,3111.37598 C1128.44141,3110.09668 1127.85547,3108.43164 1127.85547,3106.38086 C1127.85547,3104.31055 1128.45117,3102.63086 1129.64258,3101.3418 C1130.83398,3100.05273 1132.33789,3099.4082 1134.1543,3099.4082 C1135.38477,3099.4082 1136.49316,3099.70605 1137.47949,3100.30176 C1138.46582,3100.89746 1139.23242,3101.72754 1139.7793,3102.79199 C1140.32617,3103.85645 1140.59961,3105.05273 1140.59961,3106.38086 C1140.59961,3108.45117 1139.98926,3110.12109 1138.76855,3111.39062 C1137.54785,3112.66016 1136,3113.29492 1134.125,3113.29492 Z M1161.08516,3121.58594 C1162.60859,3121.58594 1163.9123,3121.04883 1164.99629,3119.97461 C1166.08027,3118.90039 1166.62227,3117.60156 1166.62227,3116.07812 C1166.62227,3114.59375 1166.07539,3113.31445 1164.98164,3112.24023 C1163.88789,3111.16602 1162.58906,3110.62891 1161.08516,3110.62891 C1159.54219,3110.62891 1158.22383,3111.16602 1157.13008,3112.24023 C1156.03633,3113.31445 1155.48945,3114.59375 1155.48945,3116.07812 C1155.48945,3117.60156 1156.03633,3118.90039 1157.13008,3119.97461 C1158.22383,3121.04883 1159.54219,3121.58594 1161.08516,3121.58594 Z" id="path-2"></path>
    </defs>
    <g id="Page-1" stroke="none" stroke-width="1" fill="none" fill-rule="evenodd">
        <g id="Token---1440" transform="translate(-915.000000, -3076.000000)" fill-rule="nonzero">
            <g id="Getpaid.">
                <use fill="#2A2C35" xlink:href="#path-2"></use>
                <use fill="url(#linearGradient-1)" xlink:href="#path-2"></use>
            </g>
        </g>
    </g>
</svg>