<?xml version="1.0" encoding="UTF-8"?>
<svg width="14px" height="11px" viewBox="0 0 14 11" version="1.1" xmlns="http://www.w3.org/2000/svg" xmlns:xlink="http://www.w3.org/1999/xlink">
    <!-- Generator: Sketch 64 (93537) - https://sketch.com -->
    <title>Path</title>
    <desc>Created with Sketch.</desc>
    <g id="Page-1" stroke="none" stroke-width="1" fill="none" fill-rule="evenodd">
        <g id="Token---1440" transform="translate(-843.000000, -3842.000000)" fill="#0D8AFF" fill-rule="nonzero" stroke="#0D8AFF">
            <path d="M852.080661,3843.13125 C851.91718,3842.95625 851.645094,3842.95625 851.475897,3843.13125 C851.312417,3843.30034 851.312417,3843.58177 851.475897,3843.75046 L854.542394,3846.92219 L844.423372,3846.92219 C844.187488,3846.92258 844,3847.1165 844,3847.36048 C844,3847.60446 844.187488,3847.80469 844.423372,3847.80469 L854.542394,3847.80469 L851.475897,3850.9705 C851.312417,3851.14551 851.312417,3851.42732 851.475897,3851.59602 C851.645094,3851.77102 851.917561,3851.77102 852.080661,3851.59602 L855.873103,3847.67344 C856.042299,3847.50435 856.042299,3847.22292 855.873103,3847.05423 L852.080661,3843.13125 Z" id="Path"></path>
        </g>
    </g>
</svg>