<svg width="65" height="63" viewBox="0 0 65 63" fill="none" xmlns="http://www.w3.org/2000/svg">
<rect x="22.8072" y="1.07229" width="40.747" height="40.747" rx="7.50602" stroke="#8E8E94" stroke-width="2.14458"/>
<path d="M33 32.561L40.3001 21.2493L33.6115 10H38.9919L42.6419 17.1941C42.9789 17.8775 43.2099 18.3849 43.3349 18.72H43.3822C43.622 18.1747 43.8744 17.6453 44.1395 17.1316L48.0413 10.0038H52.9806L46.1216 21.1868L53.1548 32.561H47.8993L43.6832 24.6646C43.4846 24.3286 43.3161 23.9757 43.1796 23.6101H43.1172C42.9937 23.9683 42.8298 24.3112 42.6287 24.6324L38.2877 32.561H33Z" fill="#8E8E94"/>
<rect x="0.289062" y="19.3013" width="42.8916" height="42.8916" rx="8.57831" fill="#FF0D00"/>
<path d="M27.5117 46.0001V36.7355H29.4933V46.0001H27.5117ZM28.4382 42.41V40.8917H33.7524V42.41H28.4382ZM28.4382 38.2538V36.7355H34.0484V38.2538H28.4382Z" fill="white"/>
<path d="M19.253 46.0001V44.456H21.5949C22.264 44.456 22.8302 44.323 23.2934 44.0571C23.7652 43.7826 24.1212 43.4094 24.3614 42.9376C24.6102 42.4658 24.7345 41.9254 24.7345 41.3163C24.7345 40.7158 24.6144 40.1882 24.3743 39.7336C24.1341 39.2789 23.7781 38.9229 23.3063 38.6656C22.843 38.4082 22.2726 38.2796 21.5949 38.2796H19.2916V36.7355H21.5949C22.6329 36.7355 23.5379 36.9242 24.3099 37.3016C25.082 37.6705 25.6782 38.2024 26.0985 38.8972C26.5274 39.5835 26.7419 40.3984 26.7419 41.342C26.7419 42.2856 26.5274 43.1092 26.0985 43.8126C25.6696 44.5074 25.0691 45.0479 24.297 45.4339C23.5336 45.8113 22.6371 46.0001 21.6077 46.0001H19.253ZM18.0435 46.0001V36.7355H20.025V46.0001H18.0435Z" fill="white"/>
<path d="M9.65527 46.0001V36.7355H14.0559C14.7422 36.7355 15.3298 36.8556 15.8188 37.0958C16.3163 37.336 16.6981 37.6705 16.964 38.0994C17.2385 38.5283 17.3758 39.0302 17.3758 39.6049C17.3758 40.1797 17.2385 40.6858 16.964 41.1233C16.6895 41.5608 16.3035 41.9039 15.8059 42.1527C15.317 42.3929 14.7336 42.513 14.0559 42.513H11.2251V40.9946H13.953C14.4077 40.9946 14.7594 40.8702 15.0081 40.6215C15.2655 40.3641 15.3942 40.0295 15.3942 39.6178C15.3942 39.206 15.2655 38.8758 15.0081 38.627C14.7594 38.3782 14.4077 38.2538 13.953 38.2538H11.6369V46.0001H9.65527Z" fill="white"/>
</svg>
