<svg width="65" height="63" viewBox="0 0 65 63" fill="none" xmlns="http://www.w3.org/2000/svg">
<rect x="22.5181" y="1.07229" width="40.747" height="40.747" rx="7.50602" stroke="#8E8E94" stroke-width="2.14458"/>
<path d="M31.9875 37C31.6084 37 31.251 36.8834 30.9368 36.6503C29.8103 35.8236 29.6587 34.9016 29.7237 34.2763C29.9186 32.5488 32.0959 30.7472 36.212 28.9031C37.8368 25.4058 39.3857 21.103 40.3173 17.5102C39.2341 15.2104 38.1834 12.2218 38.9524 10.4731C39.2232 9.85844 39.559 9.39213 40.1764 9.18017C40.4256 9.09538 41.043 9 41.2813 9C41.8229 9 42.3103 9.68887 42.6461 10.1128C42.9711 10.5155 43.686 11.3528 42.2453 17.3195C43.7076 20.2657 45.7765 23.2755 47.7588 25.3316C49.1777 25.0772 50.4018 24.95 51.3983 24.95C53.0989 24.95 54.1171 25.3316 54.5395 26.137C54.8862 26.7941 54.7453 27.5678 54.1171 28.4262C53.5105 29.2528 52.6764 29.6874 51.7124 29.6874C50.3909 29.6874 48.8636 28.8713 47.1522 27.271C44.0759 27.8963 40.4906 29.0197 37.5876 30.2596C36.6777 32.1355 35.8112 33.651 35.0096 34.7638C33.894 36.2793 32.9407 37 31.9984 37H31.9875ZM34.8688 31.5632C32.5508 32.835 31.6084 33.8842 31.5434 34.4671C31.5326 34.5625 31.5001 34.8168 32.0092 35.1983C32.1717 35.1453 33.1141 34.732 34.8688 31.5526V31.5632ZM49.6435 26.8577C50.5209 27.5254 50.7375 27.8539 51.3225 27.8539C51.5716 27.8539 52.2973 27.8433 52.6331 27.3876C52.7956 27.165 52.8606 27.0273 52.8823 26.9425C52.7523 26.8683 52.5681 26.7305 51.6149 26.7305C51.0625 26.7305 50.3801 26.7517 49.6544 26.8471L49.6435 26.8577ZM41.5521 19.8842C40.7722 22.5019 39.754 25.3422 38.66 27.8963C40.9239 27.0378 43.3827 26.2854 45.7007 25.7555C44.2384 24.0916 42.7761 22.0144 41.5629 19.8842H41.5521ZM40.8914 10.9182C40.783 10.95 39.4507 12.7835 40.9997 14.3308C42.0287 12.0946 40.9455 10.9076 40.8914 10.9182Z" fill="#8E8E94"/>
<rect y="19.3013" width="42.8916" height="42.8916" rx="8.57831" fill="#2DAE4D"/>
<path d="M29.6116 45.5496C28.4106 45.5496 27.4499 45.2837 26.7293 44.7519C26.0087 44.2114 25.5884 43.4522 25.4683 42.4743H27.3726C27.4327 42.9719 27.6729 43.3665 28.0932 43.6581C28.5136 43.9412 29.0497 44.0827 29.7017 44.0827C30.2335 44.0827 30.641 43.9884 30.9241 43.7997C31.2157 43.6109 31.3616 43.3579 31.3616 43.0405C31.3616 42.7402 31.2758 42.5 31.1042 42.3199C30.9326 42.1312 30.6367 41.9811 30.2164 41.8695L28.4921 41.3934C27.6086 41.1447 26.9609 40.8058 26.5491 40.3769C26.1459 39.9394 25.9444 39.3947 25.9444 38.7427C25.9444 38.1852 26.0859 37.7048 26.369 37.3016C26.6606 36.8898 27.0681 36.5767 27.5914 36.3623C28.1147 36.1392 28.728 36.0277 29.4314 36.0277C30.5123 36.0277 31.3744 36.2851 32.0178 36.7998C32.6612 37.3059 33.0258 37.9793 33.1115 38.82H31.2072C31.1214 38.3653 30.9112 38.0307 30.5766 37.8163C30.2507 37.6018 29.8303 37.4946 29.3156 37.4946C28.8696 37.4946 28.5136 37.5804 28.2476 37.752C27.9817 37.9235 27.8487 38.1551 27.8487 38.4468C27.8487 38.6698 27.9217 38.8757 28.0675 39.0644C28.2133 39.2446 28.5179 39.399 28.9811 39.5277L30.7053 40.0038C31.6146 40.2525 32.2666 40.5957 32.6612 41.0332C33.0644 41.4621 33.2659 42.0068 33.2659 42.6673C33.2659 43.5938 32.9443 44.3058 32.3009 44.8033C31.6575 45.3009 30.7611 45.5496 29.6116 45.5496Z" fill="white"/>
<path d="M18.9351 45.4338V36.1692H20.9166V45.4338H18.9351ZM19.8615 45.4338V43.9154H25.3688V45.4338H19.8615Z" fill="white"/>
<path d="M15.978 45.4338L13.4173 41.3805L9.84019 36.1692H12.1563L14.5625 39.9908L18.2941 45.4338H15.978ZM13.7004 39.978L16.1967 36.1692H18.2941L14.3567 41.6379L13.7004 39.978ZM14.1508 41.6893L11.6931 45.4338H9.5957L13.4945 40.0294L14.1508 41.6893Z" fill="white"/>
</svg>
