<svg width="65" height="63" viewBox="0 0 65 63" fill="none" xmlns="http://www.w3.org/2000/svg">
<path fill-rule="evenodd" clip-rule="evenodd" d="M56.0481 2.14458H30.3132C26.7599 2.14458 23.8794 5.02505 23.8794 8.57831V34.3133C23.8794 37.8665 26.7599 40.747 30.3132 40.747H56.0481C59.6014 40.747 62.4819 37.8665 62.4819 34.3133V8.57831C62.4819 5.02506 59.6014 2.14458 56.0481 2.14458ZM30.3132 0C25.5755 0 21.7349 3.84063 21.7349 8.57831V34.3133C21.7349 39.0509 25.5755 42.8916 30.3132 42.8916H56.0481C60.7858 42.8916 64.6264 39.0509 64.6264 34.3133V8.57831C64.6264 3.84064 60.7858 0 56.0481 0H30.3132Z" fill="#8E8E94"/>
<path d="M35.7198 23.8592C35.4571 23.5357 34.9609 23.5435 34.7085 23.8751L29.7866 30.3404C29.4641 30.7639 29.7662 31.3735 30.2985 31.3735H56.4828C57.0436 31.3735 57.3359 30.706 56.9556 30.2938L48.0628 20.6566C47.8162 20.3894 47.3974 20.3794 47.1384 20.6346L39.8446 27.8204C39.5741 28.0868 39.1329 28.0624 38.8936 27.7676L35.7198 23.8592Z" fill="#8E8E94"/>
<path d="M34.1701 15.0747C34.1701 17.3251 36.0218 19.1494 38.306 19.1494C40.5903 19.1494 42.442 17.3251 42.442 15.0747C42.442 12.8243 40.5903 11 38.306 11C36.0218 11 34.1701 12.8243 34.1701 15.0747Z" fill="#8E8E94"/>
<path d="M0.289062 27.8796C0.289062 23.142 4.1297 19.3013 8.86737 19.3013H34.6023C39.34 19.3013 43.1806 23.142 43.1806 27.8796V53.6146C43.1806 58.3523 39.34 62.1929 34.6023 62.1929H8.86737C4.1297 62.1929 0.289062 58.3523 0.289062 53.6146V27.8796Z" fill="#2DA4B9"/>
<path d="M31.8463 45.5625C31.1772 45.5625 30.5596 45.4467 29.9934 45.2151C29.4272 44.9749 28.934 44.6403 28.5137 44.2114C28.1019 43.7825 27.7802 43.2764 27.5486 42.6931C27.317 42.1012 27.2012 41.4578 27.2012 40.763C27.2012 40.0681 27.3127 39.4333 27.5357 38.8586C27.7673 38.2838 28.089 37.7863 28.5008 37.3659C28.9211 36.937 29.4144 36.611 29.9805 36.388C30.5467 36.1564 31.1686 36.0406 31.8463 36.0406C32.6098 36.0406 33.2961 36.1907 33.9051 36.4909C34.5228 36.7826 35.0246 37.1987 35.4106 37.7391C35.8052 38.2709 36.0454 38.8972 36.1312 39.6177H34.2011C34.0896 38.9572 33.8193 38.4597 33.3904 38.1251C32.9615 37.782 32.4511 37.6104 31.8592 37.6104C31.3359 37.6104 30.8727 37.7348 30.4695 37.9836C30.0749 38.2323 29.7661 38.5926 29.5431 39.0644C29.32 39.5277 29.2085 40.0896 29.2085 40.7501C29.2085 41.4192 29.32 41.9982 29.5431 42.4872C29.7747 42.9676 30.0921 43.3407 30.4952 43.6067C30.8984 43.864 31.3617 43.9927 31.8849 43.9927C32.4425 43.9927 32.9358 43.8254 33.3647 43.4909C33.7936 43.1563 34.0724 42.6588 34.2011 41.9982H36.1569C36.0454 42.7188 35.7924 43.3493 35.3978 43.8897C35.0031 44.4216 34.5013 44.8334 33.8923 45.125C33.2832 45.4167 32.6012 45.5625 31.8463 45.5625Z" fill="white"/>
<path d="M24.4487 45.4338V36.1693H26.4303V45.4338H24.4487Z" fill="white"/>
<path d="M16.6514 45.4338V36.1693H18.633V45.4338H16.6514ZM17.5778 45.4338V43.9155H23.5483V45.4338H17.5778ZM17.5778 41.4449V39.9523H23.098V41.4449H17.5778ZM17.5778 37.6876V36.1693H23.3939V37.6876H17.5778Z" fill="white"/>
<path d="M7.64746 45.4338V36.1693H9.62905V45.4338H7.64746ZM13.6437 45.4338V36.1693H15.6253V45.4338H13.6437ZM8.57392 39.8493H14.5444V41.3677H8.57392V39.8493Z" fill="white"/>
</svg>
