<svg width="65" height="63" viewBox="0 0 65 63" fill="none" xmlns="http://www.w3.org/2000/svg">
<path fill-rule="evenodd" clip-rule="evenodd" d="M56.0481 2.14458H30.3132C26.7599 2.14458 23.8794 5.02505 23.8794 8.57831V34.3133C23.8794 37.8665 26.7599 40.747 30.3132 40.747H56.0481C59.6014 40.747 62.4819 37.8665 62.4819 34.3133V8.57831C62.4819 5.02506 59.6014 2.14458 56.0481 2.14458ZM30.3132 0C25.5755 0 21.7349 3.84063 21.7349 8.57831V34.3133C21.7349 39.0509 25.5755 42.8916 30.3132 42.8916H56.0481C60.7858 42.8916 64.6264 39.0509 64.6264 34.3133V8.57831C64.6264 3.84064 60.7858 0 56.0481 0H30.3132Z" fill="#8E8E94"/>
<g clip-path="url(#clip0_9045_22980)">
<path d="M32.2749 36C31.8958 36 31.5383 35.8834 31.2242 35.6503C30.0977 34.8236 29.946 33.9016 30.011 33.2763C30.206 31.5488 32.3832 29.7472 36.4993 27.9031C38.1241 24.4058 39.6731 20.103 40.6046 16.5102C39.5214 14.2104 38.4707 11.2218 39.2398 9.47313C39.5106 8.85844 39.8464 8.39213 40.4638 8.18017C40.7129 8.09538 41.3304 8 41.5687 8C42.1103 8 42.5977 8.68887 42.9335 9.11279C43.2584 9.51552 43.9733 10.3528 42.5327 16.3195C43.995 19.2657 46.0639 22.2755 48.0461 24.3316C49.4651 24.0772 50.6891 23.95 51.6856 23.95C53.3862 23.95 54.4044 24.3316 54.8269 25.137C55.1735 25.7941 55.0327 26.5678 54.4044 27.4262C53.7979 28.2528 52.9638 28.6874 51.9998 28.6874C50.6783 28.6874 49.151 27.8713 47.4395 26.271C44.3633 26.8963 40.7779 28.0197 37.875 29.2597C36.9651 31.1355 36.0986 32.651 35.297 33.7638C34.1813 35.2793 33.2281 36 32.2857 36H32.2749ZM35.1562 30.5632C32.8382 31.835 31.8958 32.8842 31.8308 33.4671C31.82 33.5625 31.7875 33.8168 32.2966 34.1983C32.459 34.1453 33.4014 33.732 35.1562 30.5526V30.5632ZM49.9309 25.8577C50.8083 26.5254 51.0249 26.8539 51.6098 26.8539C51.859 26.8539 52.5847 26.8433 52.9205 26.3876C53.083 26.165 53.1479 26.0273 53.1696 25.9425C53.0396 25.8683 52.8555 25.7305 51.9023 25.7305C51.3498 25.7305 50.6674 25.7517 49.9417 25.8471L49.9309 25.8577ZM41.8395 18.8842C41.0596 21.5019 40.0414 24.3422 38.9473 26.8963C41.2112 26.0379 43.67 25.2854 45.9881 24.7555C44.5258 23.0916 43.0635 21.0144 41.8503 18.8842H41.8395ZM41.1787 9.91824C41.0704 9.95004 39.7381 11.7835 41.287 13.3308C42.3161 11.0946 41.2329 9.90765 41.1787 9.91824Z" fill="#8E8E94"/>
</g>
<path d="M0.289062 27.8796C0.289062 23.1419 4.1297 19.3013 8.86737 19.3013H34.6023C39.34 19.3013 43.1806 23.1419 43.1806 27.8796V53.6145C43.1806 58.3522 39.34 62.1928 34.6023 62.1928H8.86737C4.1297 62.1928 0.289062 58.3522 0.289062 53.6145V27.8796Z" fill="#3A3A3B"/>
<path d="M32.8994 45.4339V36.1693H34.881V45.4339H32.8994ZM33.8259 45.4339V43.9155H39.3331V45.4339H33.8259Z" fill="white"/>
<path d="M21.6589 45.4339V36.1693H24.7471L27.3206 45.0993H26.2012L28.7746 36.1693H31.8757V45.4339H29.9198V36.7226H30.2544L27.7452 45.4339H25.6993L23.2159 36.7998H23.5376V45.4339H21.6589Z" fill="white"/>
<path d="M15.9604 45.4339V37.6877H12.9365V36.1693H20.9658V37.6877H17.942V45.4339H15.9604Z" fill="white"/>
<path d="M4.26733 45.4339V36.1693H6.24892V45.4339H4.26733ZM10.2636 45.4339V36.1693H12.2452V45.4339H10.2636ZM5.19379 39.8494H11.1643V41.3678H5.19379V39.8494Z" fill="white"/>
<defs>
<clipPath id="clip0_9045_22980">
<rect width="25" height="28" fill="white" transform="translate(30 8)"/>
</clipPath>
</defs>
</svg>
