<svg width="65" height="63" viewBox="0 0 65 63" fill="none" xmlns="http://www.w3.org/2000/svg">
<path fill-rule="evenodd" clip-rule="evenodd" d="M56.0481 2.14458H30.3132C26.7599 2.14458 23.8794 5.02505 23.8794 8.57831V34.3133C23.8794 37.8665 26.7599 40.747 30.3132 40.747H56.0481C59.6014 40.747 62.4819 37.8665 62.4819 34.3133V8.57831C62.4819 5.02506 59.6014 2.14458 56.0481 2.14458ZM30.3132 0C25.5755 0 21.7349 3.84063 21.7349 8.57831V34.3133C21.7349 39.0509 25.5755 42.8916 30.3132 42.8916H56.0481C60.7858 42.8916 64.6264 39.0509 64.6264 34.3133V8.57831C64.6264 3.84064 60.7858 0 56.0481 0H30.3132Z" fill="#8E8E94"/>
<path d="M30 11.3529C30 10.9941 30.1141 10.65 30.3173 10.3963C30.5205 10.1425 30.796 10 31.0833 10H54.9167C55.204 10 55.4795 10.1425 55.6827 10.3963C55.8859 10.65 56 10.9941 56 11.3529C56 11.7118 55.8859 12.0559 55.6827 12.3096C55.4795 12.5633 55.204 12.7059 54.9167 12.7059H31.0833C30.796 12.7059 30.5205 12.5633 30.3173 12.3096C30.1141 12.0559 30 11.7118 30 11.3529ZM54.9167 16.7647H31.0833C30.796 16.7647 30.5205 16.9072 30.3173 17.161C30.1141 17.4147 30 17.7588 30 18.1176C30 18.4765 30.1141 18.8206 30.3173 19.0743C30.5205 19.328 30.796 19.4706 31.0833 19.4706H54.9167C55.204 19.4706 55.4795 19.328 55.6827 19.0743C55.8859 18.8206 56 18.4765 56 18.1176C56 17.7588 55.8859 17.4147 55.6827 17.161C55.4795 16.9072 55.204 16.7647 54.9167 16.7647ZM54.9167 23.5294H31.0833C30.796 23.5294 30.5205 23.672 30.3173 23.9257C30.1141 24.1794 30 24.5235 30 24.8824C30 25.2412 30.1141 25.5853 30.3173 25.839C30.5205 26.0928 30.796 26.2353 31.0833 26.2353H54.9167C55.204 26.2353 55.4795 26.0928 55.6827 25.839C55.8859 25.5853 56 25.2412 56 24.8824C56 24.5235 55.8859 24.1794 55.6827 23.9257C55.4795 23.672 55.204 23.5294 54.9167 23.5294ZM54.9167 30.2941H31.0833C30.796 30.2941 30.5205 30.4367 30.3173 30.6904C30.1141 30.9441 30 31.2882 30 31.6471C30 32.0059 30.1141 32.35 30.3173 32.6037C30.5205 32.8575 30.796 33 31.0833 33H54.9167C55.204 33 55.4795 32.8575 55.6827 32.6037C55.8859 32.35 56 32.0059 56 31.6471C56 31.2882 55.8859 30.9441 55.6827 30.6904C55.4795 30.4367 55.204 30.2941 54.9167 30.2941Z" fill="#8E8E94"/>
<path d="M0.289062 27.8796C0.289062 23.142 4.1297 19.3013 8.86737 19.3013H34.6023C39.34 19.3013 43.1806 23.142 43.1806 27.8796V53.6146C43.1806 58.3523 39.34 62.1929 34.6023 62.1929H8.86737C4.1297 62.1929 0.289062 58.3523 0.289062 53.6146V27.8796Z" fill="#FF9500"/>
<path d="M30.7478 45.5625C29.7442 45.5625 28.8821 45.3652 28.1615 44.9706C27.4409 44.576 26.8833 44.0227 26.4887 43.3107C26.1027 42.5987 25.9097 41.7666 25.9097 40.8144C25.9097 39.8708 26.107 39.043 26.5016 38.331C26.8962 37.6104 27.4409 37.0485 28.1357 36.6454C28.8392 36.2422 29.6541 36.0406 30.5806 36.0406C31.344 36.0406 32.026 36.1778 32.6265 36.4523C33.2355 36.7269 33.7245 37.1043 34.0934 37.5847C34.4708 38.0565 34.6939 38.6055 34.7625 39.2317H32.7809C32.6951 38.7256 32.4549 38.331 32.0603 38.0479C31.6743 37.7563 31.1896 37.6104 30.6063 37.6104C30.0659 37.6104 29.5941 37.7391 29.1909 37.9964C28.7877 38.2452 28.4746 38.6055 28.2515 39.0773C28.0285 39.5491 27.917 40.1153 27.917 40.7758C27.917 41.4621 28.0285 42.0497 28.2515 42.5387C28.4746 43.019 28.8006 43.3879 29.2295 43.6453C29.667 43.894 30.2031 44.0184 30.8379 44.0184C31.3526 44.0184 31.7901 43.9541 32.1504 43.8254C32.5107 43.6967 32.7852 43.5166 32.9739 43.285L34.8526 44.0313C34.355 44.5288 33.776 44.9106 33.1155 45.1765C32.4635 45.4338 31.6743 45.5625 30.7478 45.5625ZM32.871 44.0313V41.4835L33.2699 41.8824H30.825V40.3641H34.8526V44.0313H32.871Z" fill="white"/>
<path d="M17.1636 45.4338V36.1693H19.7242L23.8418 44.353L23.2113 44.5074V36.1693H25.1414V45.4338H22.5808L18.4632 37.2501L19.0937 37.0957V45.4338H17.1636Z" fill="white"/>
<path d="M8.77539 45.4338V36.1693H13.1761C13.8623 36.1693 14.4499 36.2893 14.9389 36.5295C15.4365 36.7697 15.8182 37.1043 16.0841 37.5332C16.3586 37.9621 16.4959 38.4639 16.4959 39.0387C16.4959 39.6134 16.3586 40.1196 16.0841 40.5571C15.8096 40.9946 15.4236 41.3377 14.926 41.5865C14.4371 41.8266 13.8538 41.9467 13.1761 41.9467H10.3452V40.4284H13.0731C13.5278 40.4284 13.8795 40.304 14.1283 40.0552C14.3856 39.7979 14.5143 39.4633 14.5143 39.0516C14.5143 38.6398 14.3856 38.3095 14.1283 38.0608C13.8795 37.812 13.5278 37.6876 13.0731 37.6876H10.757V45.4338H8.77539Z" fill="white"/>
</svg>
