<svg width="65" height="63" viewBox="0 0 65 63" fill="none" xmlns="http://www.w3.org/2000/svg">
<path fill-rule="evenodd" clip-rule="evenodd" d="M55.7591 2.14458H30.0241C26.4709 2.14458 23.5904 5.02505 23.5904 8.57831V34.3133C23.5904 37.8665 26.4709 40.747 30.0241 40.747H55.7591C59.3123 40.747 62.1928 37.8665 62.1928 34.3133V8.57831C62.1928 5.02506 59.3123 2.14458 55.7591 2.14458ZM30.0241 0C25.2864 0 21.4458 3.84063 21.4458 8.57831V34.3133C21.4458 39.0509 25.2864 42.8916 30.0241 42.8916H55.7591C60.4967 42.8916 64.3374 39.0509 64.3374 34.3133V8.57831C64.3374 3.84064 60.4967 0 55.7591 0H30.0241Z" fill="#8E8E94"/>
<path d="M42.7109 9C40.3376 9 38.0175 9.70379 36.0441 11.0224C34.0707 12.3409 32.5326 14.2151 31.6244 16.4078C30.7161 18.6005 30.4785 21.0133 30.9415 23.3411C31.4045 25.6689 32.5474 27.807 34.2257 29.4853C35.9039 31.1635 38.0421 32.3064 40.3699 32.7694C42.6976 33.2324 45.1104 32.9948 47.3031 32.0865C49.4959 31.1783 51.37 29.6402 52.6886 27.6668C54.0072 25.6934 54.7109 23.3734 54.7109 21C54.7076 17.8184 53.4422 14.7681 51.1925 12.5184C48.9428 10.2687 45.8925 9.00336 42.7109 9ZM39.6682 25.6154H45.7536C45.134 27.7315 44.0956 29.6388 42.7109 31.1411C41.3263 29.6388 40.2879 27.7315 39.6682 25.6154ZM39.2494 23.7692C38.9433 21.9358 38.9433 20.0642 39.2494 18.2308H46.1725C46.4786 20.0642 46.4786 21.9358 46.1725 23.7692H39.2494ZM32.5571 21C32.5563 20.0636 32.6856 19.1316 32.9413 18.2308H37.379C37.1036 20.0667 37.1036 21.9333 37.379 23.7692H32.9413C32.6856 22.8684 32.5563 21.9364 32.5571 21ZM45.7536 16.3846H39.6682C40.2879 14.2685 41.3263 12.3612 42.7109 10.8588C44.0956 12.3612 45.134 14.2685 45.7536 16.3846ZM48.0429 18.2308H52.4806C52.9929 20.0414 52.9929 21.9586 52.4806 23.7692H48.0429C48.3182 21.9333 48.3182 20.0667 48.0429 18.2308ZM51.7536 16.3846H47.6656C47.1945 14.531 46.4034 12.7738 45.3279 11.1923C46.7019 11.5616 47.9835 12.2143 49.0902 13.1085C50.1968 14.0028 51.1041 15.1187 51.7536 16.3846ZM40.094 11.1923C39.0185 12.7738 38.2274 14.531 37.7563 16.3846H33.6683C34.3178 15.1187 35.2251 14.0028 36.3317 13.1085C37.4384 12.2143 38.72 11.5616 40.094 11.1923ZM33.6683 25.6154H37.7563C38.2274 27.469 39.0185 29.2262 40.094 30.8077C38.72 30.4384 37.4384 29.7857 36.3317 28.8915C35.2251 27.9972 34.3178 26.8813 33.6683 25.6154ZM45.3279 30.8077C46.4034 29.2262 47.1945 27.469 47.6656 25.6154H51.7536C51.1041 26.8813 50.1968 27.9972 49.0902 28.8915C47.9835 29.7857 46.7019 30.4384 45.3279 30.8077Z" fill="#8E8E94"/>
<path d="M0 27.8796C0 23.1419 3.84064 19.3013 8.57831 19.3013H34.3133C39.0509 19.3013 42.8916 23.1419 42.8916 27.8796V53.6145C42.8916 58.3522 39.0509 62.1928 34.3133 62.1928H8.57831C3.84063 62.1928 0 58.3522 0 53.6145V27.8796Z" fill="#E6B800"/>
<path d="M28.4612 46.1286C27.4576 46.1286 26.5954 45.9313 25.8749 45.5367C25.1543 45.1421 24.5967 44.5888 24.2021 43.8768C23.8161 43.1648 23.623 42.3327 23.623 41.3805C23.623 40.4369 23.8203 39.6091 24.215 38.8971C24.6096 38.1765 25.1543 37.6146 25.8491 37.2115C26.5525 36.8083 27.3675 36.6067 28.2939 36.6067C29.0574 36.6067 29.7394 36.7439 30.3399 37.0184C30.9489 37.293 31.4379 37.6704 31.8068 38.1508C32.1842 38.6226 32.4072 39.1716 32.4759 39.7978H30.4943C30.4085 39.2917 30.1683 38.8971 29.7737 38.614C29.3877 38.3224 28.903 38.1765 28.3197 38.1765C27.7792 38.1765 27.3074 38.3052 26.9043 38.5625C26.5011 38.8113 26.188 39.1716 25.9649 39.6434C25.7419 40.1152 25.6304 40.6814 25.6304 41.3419C25.6304 42.0282 25.7419 42.6158 25.9649 43.1048C26.188 43.5851 26.5139 43.954 26.9429 44.2114C27.3803 44.4601 27.9165 44.5845 28.5513 44.5845C29.066 44.5845 29.5035 44.5202 29.8638 44.3915C30.2241 44.2628 30.4986 44.0827 30.6873 43.8511L32.5659 44.5974C32.0684 45.0949 31.4894 45.4767 30.8288 45.7426C30.1769 45.9999 29.3877 46.1286 28.4612 46.1286ZM30.5843 44.5974V42.0496L30.9832 42.4485H28.5384V40.9302H32.5659V44.5974H30.5843Z" fill="white"/>
<path d="M15.5425 45.9999V36.7354H19.9432C20.6294 36.7354 21.217 36.8554 21.706 37.0956C22.2035 37.3358 22.5853 37.6704 22.8512 38.0993C23.1257 38.5282 23.263 39.03 23.263 39.6048C23.263 40.1795 23.1257 40.6857 22.8512 41.1232C22.5767 41.5607 22.1907 41.9038 21.6931 42.1526C21.2042 42.3927 20.6208 42.5128 19.9432 42.5128H17.1123V40.9945H19.8402C20.2949 40.9945 20.6466 40.8701 20.8953 40.6213C21.1527 40.364 21.2814 40.0294 21.2814 39.6177C21.2814 39.2059 21.1527 38.8756 20.8953 38.6269C20.6466 38.3781 20.2949 38.2537 19.8402 38.2537H17.5241V45.9999H15.5425Z" fill="white"/>
<path d="M11.5653 46.1286C11.2393 46.1286 10.9262 46.1029 10.626 46.0514C10.3257 46.0085 10.107 45.9527 9.96973 45.8841V44.3658C10.1241 44.4258 10.3086 44.4773 10.523 44.5202C10.7375 44.5631 10.9562 44.5845 11.1793 44.5845C11.6597 44.5845 12.0071 44.5073 12.2215 44.3529C12.4446 44.1899 12.5561 43.8982 12.5561 43.4779V36.7354H14.5377V43.568C14.5377 44.4258 14.2846 45.0692 13.7785 45.4981C13.2724 45.9184 12.5346 46.1286 11.5653 46.1286Z" fill="white"/>
</svg>
