<svg width="65" height="63" viewBox="0 0 65 63" fill="none" xmlns="http://www.w3.org/2000/svg">
<path fill-rule="evenodd" clip-rule="evenodd" d="M55.7591 2.14458H30.0241C26.4709 2.14458 23.5904 5.02505 23.5904 8.57831V34.3133C23.5904 37.8665 26.4709 40.747 30.0241 40.747H55.7591C59.3123 40.747 62.1928 37.8665 62.1928 34.3133V8.57831C62.1928 5.02506 59.3123 2.14458 55.7591 2.14458ZM30.0241 0C25.2864 0 21.4458 3.84063 21.4458 8.57831V34.3133C21.4458 39.0509 25.2864 42.8916 30.0241 42.8916H55.7591C60.4967 42.8916 64.3374 39.0509 64.3374 34.3133V8.57831C64.3374 3.84064 60.4967 0 55.7591 0H30.0241Z" fill="#8E8E94"/>
<path d="M35.4308 23.8592C35.1681 23.5357 34.6718 23.5435 34.4194 23.8751L29.4975 30.3404C29.1751 30.7639 29.4771 31.3735 30.0094 31.3735H56.1937C56.7545 31.3735 57.0469 30.706 56.6666 30.2938L47.7737 20.6566C47.5272 20.3894 47.1084 20.3794 46.8494 20.6346L39.5555 27.8204C39.285 28.0868 38.8439 28.0624 38.6045 27.7676L35.4308 23.8592Z" fill="#8E8E94"/>
<path d="M33.881 15.0747C33.881 17.3251 35.7327 19.1494 38.017 19.1494C40.3012 19.1494 42.153 17.3251 42.153 15.0747C42.153 12.8243 40.3012 11 38.017 11C35.7327 11 33.881 12.8243 33.881 15.0747Z" fill="#8E8E94"/>
<path d="M0 27.8796C0 23.1419 3.84064 19.3013 8.57831 19.3013H34.3133C39.0509 19.3013 42.8916 23.1419 42.8916 27.8796V53.6145C42.8916 58.3522 39.0509 62.1928 34.3133 62.1928H8.57831C3.84063 62.1928 0 58.3522 0 53.6145V27.8796Z" fill="#E6B800"/>
<path d="M28.4612 46.1286C27.4576 46.1286 26.5954 45.9313 25.8749 45.5367C25.1543 45.1421 24.5967 44.5888 24.2021 43.8768C23.8161 43.1648 23.623 42.3327 23.623 41.3805C23.623 40.4369 23.8203 39.6091 24.215 38.8971C24.6096 38.1765 25.1543 37.6146 25.8491 37.2115C26.5525 36.8083 27.3675 36.6067 28.2939 36.6067C29.0574 36.6067 29.7394 36.7439 30.3399 37.0184C30.9489 37.293 31.4379 37.6704 31.8068 38.1508C32.1842 38.6226 32.4072 39.1716 32.4759 39.7978H30.4943C30.4085 39.2917 30.1683 38.8971 29.7737 38.614C29.3877 38.3224 28.903 38.1765 28.3197 38.1765C27.7792 38.1765 27.3074 38.3052 26.9043 38.5625C26.5011 38.8113 26.188 39.1716 25.9649 39.6434C25.7419 40.1152 25.6304 40.6814 25.6304 41.3419C25.6304 42.0282 25.7419 42.6158 25.9649 43.1048C26.188 43.5851 26.5139 43.954 26.9429 44.2114C27.3803 44.4601 27.9165 44.5845 28.5513 44.5845C29.066 44.5845 29.5035 44.5202 29.8638 44.3915C30.2241 44.2628 30.4986 44.0827 30.6873 43.8511L32.5659 44.5974C32.0684 45.0949 31.4894 45.4767 30.8288 45.7426C30.1769 45.9999 29.3877 46.1286 28.4612 46.1286ZM30.5843 44.5974V42.0496L30.9832 42.4485H28.5384V40.9302H32.5659V44.5974H30.5843Z" fill="white"/>
<path d="M15.5425 45.9999V36.7354H19.9432C20.6294 36.7354 21.217 36.8554 21.706 37.0956C22.2035 37.3358 22.5853 37.6704 22.8512 38.0993C23.1257 38.5282 23.263 39.03 23.263 39.6048C23.263 40.1795 23.1257 40.6857 22.8512 41.1232C22.5767 41.5607 22.1907 41.9038 21.6931 42.1526C21.2042 42.3927 20.6208 42.5128 19.9432 42.5128H17.1123V40.9945H19.8402C20.2949 40.9945 20.6466 40.8701 20.8953 40.6213C21.1527 40.364 21.2814 40.0294 21.2814 39.6177C21.2814 39.2059 21.1527 38.8756 20.8953 38.6269C20.6466 38.3781 20.2949 38.2537 19.8402 38.2537H17.5241V45.9999H15.5425Z" fill="white"/>
<path d="M11.5653 46.1286C11.2393 46.1286 10.9262 46.1029 10.626 46.0514C10.3257 46.0085 10.107 45.9527 9.96973 45.8841V44.3658C10.1241 44.4258 10.3086 44.4773 10.523 44.5202C10.7375 44.5631 10.9562 44.5845 11.1793 44.5845C11.6597 44.5845 12.0071 44.5073 12.2215 44.3529C12.4446 44.1899 12.5561 43.8982 12.5561 43.4779V36.7354H14.5377V43.568C14.5377 44.4258 14.2846 45.0692 13.7785 45.4981C13.2724 45.9184 12.5346 46.1286 11.5653 46.1286Z" fill="white"/>
</svg>
