<svg width="65" height="63" viewBox="0 0 65 63" fill="none" xmlns="http://www.w3.org/2000/svg">
<rect x="22.8072" y="1.07229" width="40.747" height="40.747" rx="7.50602" stroke="#8E8E94" stroke-width="2.14458"/>
<path d="M35.7196 23.8592C35.4569 23.5357 34.9606 23.5435 34.7082 23.8751L29.7863 30.3404C29.4639 30.7639 29.7659 31.3735 30.2982 31.3735H56.4825C57.0434 31.3735 57.3357 30.706 56.9554 30.2938L48.0625 20.6566C47.816 20.3894 47.3972 20.3794 47.1382 20.6346L39.8443 27.8204C39.5738 28.0868 39.1327 28.0624 38.8933 27.7676L35.7196 23.8592Z" fill="#8E8E94"/>
<path d="M34.1698 15.0747C34.1698 17.3251 36.0216 19.1494 38.3058 19.1494C40.59 19.1494 42.4418 17.3251 42.4418 15.0747C42.4418 12.8243 40.59 11 38.3058 11C36.0216 11 34.1698 12.8243 34.1698 15.0747Z" fill="#8E8E94"/>
<rect x="0.289062" y="19.3013" width="42.8916" height="42.8916" rx="8.57831" fill="#FF9500"/>
<path d="M30.7478 46.1286C29.7442 46.1286 28.8821 45.9313 28.1615 45.5367C27.4409 45.1421 26.8833 44.5888 26.4887 43.8768C26.1027 43.1648 25.9097 42.3327 25.9097 41.3805C25.9097 40.4369 26.107 39.6091 26.5016 38.8971C26.8962 38.1765 27.4409 37.6146 28.1357 37.2115C28.8392 36.8083 29.6541 36.6067 30.5806 36.6067C31.344 36.6067 32.026 36.7439 32.6265 37.0184C33.2355 37.293 33.7245 37.6704 34.0934 38.1508C34.4708 38.6226 34.6939 39.1716 34.7625 39.7978H32.7809C32.6951 39.2917 32.4549 38.8971 32.0603 38.614C31.6743 38.3224 31.1896 38.1765 30.6063 38.1765C30.0659 38.1765 29.5941 38.3052 29.1909 38.5625C28.7877 38.8113 28.4746 39.1716 28.2515 39.6434C28.0285 40.1152 27.917 40.6814 27.917 41.3419C27.917 42.0282 28.0285 42.6158 28.2515 43.1048C28.4746 43.5851 28.8006 43.954 29.2295 44.2114C29.667 44.4601 30.2031 44.5845 30.8379 44.5845C31.3526 44.5845 31.7901 44.5202 32.1504 44.3915C32.5107 44.2628 32.7852 44.0827 32.9739 43.8511L34.8526 44.5974C34.355 45.0949 33.776 45.4767 33.1155 45.7426C32.4635 45.9999 31.6743 46.1286 30.7478 46.1286ZM32.871 44.5974V42.0496L33.2699 42.4485H30.825V40.9302H34.8526V44.5974H32.871Z" fill="white"/>
<path d="M17.1636 45.9999V36.7354H19.7242L23.8418 44.9191L23.2113 45.0735V36.7354H25.1414V45.9999H22.5808L18.4632 37.8162L19.0937 37.6618V45.9999H17.1636Z" fill="white"/>
<path d="M8.77539 45.9999V36.7354H13.1761C13.8623 36.7354 14.4499 36.8554 14.9389 37.0956C15.4365 37.3358 15.8182 37.6704 16.0841 38.0993C16.3586 38.5282 16.4959 39.03 16.4959 39.6048C16.4959 40.1795 16.3586 40.6857 16.0841 41.1232C15.8096 41.5607 15.4236 41.9038 14.926 42.1526C14.4371 42.3927 13.8538 42.5128 13.1761 42.5128H10.3452V40.9945H13.0731C13.5278 40.9945 13.8795 40.8701 14.1283 40.6213C14.3856 40.364 14.5143 40.0294 14.5143 39.6177C14.5143 39.2059 14.3856 38.8756 14.1283 38.6269C13.8795 38.3781 13.5278 38.2537 13.0731 38.2537H10.757V45.9999H8.77539Z" fill="white"/>
</svg>
