<svg width="65" height="63" viewBox="0 0 65 63" fill="none" xmlns="http://www.w3.org/2000/svg">
<path fill-rule="evenodd" clip-rule="evenodd" d="M56.0481 2.14458H30.3132C26.7599 2.14458 23.8794 5.02505 23.8794 8.57831V34.3133C23.8794 37.8665 26.7599 40.747 30.3132 40.747H56.0481C59.6014 40.747 62.4819 37.8665 62.4819 34.3133V8.57831C62.4819 5.02506 59.6014 2.14458 56.0481 2.14458ZM30.3132 0C25.5755 0 21.7349 3.84063 21.7349 8.57831V34.3133C21.7349 39.0509 25.5755 42.8916 30.3132 42.8916H56.0481C60.7858 42.8916 64.6264 39.0509 64.6264 34.3133V8.57831C64.6264 3.84064 60.7858 0 56.0481 0H30.3132Z" fill="#8E8E94"/>
<path d="M53 13H49.535L47.8312 10.445C47.74 10.3082 47.6164 10.196 47.4714 10.1184C47.3264 10.0408 47.1645 10.0001 47 10H39C38.8355 10.0001 38.6736 10.0408 38.5286 10.1184C38.3836 10.196 38.26 10.3082 38.1687 10.445L36.4637 13H33C32.2044 13 31.4413 13.3161 30.8787 13.8787C30.3161 14.4413 30 15.2044 30 16V30C30 30.7956 30.3161 31.5587 30.8787 32.1213C31.4413 32.6839 32.2044 33 33 33H53C53.7956 33 54.5587 32.6839 55.1213 32.1213C55.6839 31.5587 56 30.7956 56 30V16C56 15.2044 55.6839 14.4413 55.1213 13.8787C54.5587 13.3161 53.7956 13 53 13ZM54 30C54 30.2652 53.8946 30.5196 53.7071 30.7071C53.5196 30.8946 53.2652 31 53 31H33C32.7348 31 32.4804 30.8946 32.2929 30.7071C32.1054 30.5196 32 30.2652 32 30V16C32 15.7348 32.1054 15.4804 32.2929 15.2929C32.4804 15.1054 32.7348 15 33 15H37C37.1647 15.0001 37.3268 14.9595 37.4721 14.8819C37.6173 14.8043 37.7411 14.692 37.8325 14.555L39.535 12H46.4638L48.1675 14.555C48.2589 14.692 48.3827 14.8043 48.5279 14.8819C48.6732 14.9595 48.8353 15.0001 49 15H53C53.2652 15 53.5196 15.1054 53.7071 15.2929C53.8946 15.4804 54 15.7348 54 16V30ZM43 17C41.9122 17 40.8488 17.3226 39.9444 17.9269C39.0399 18.5313 38.3349 19.3902 37.9187 20.3952C37.5024 21.4002 37.3935 22.5061 37.6057 23.573C37.8179 24.6399 38.3417 25.6199 39.1109 26.3891C39.8801 27.1583 40.8601 27.6821 41.927 27.8943C42.9939 28.1065 44.0998 27.9976 45.1048 27.5813C46.1098 27.1651 46.9687 26.4601 47.5731 25.5556C48.1774 24.6512 48.5 23.5878 48.5 22.5C48.4983 21.0418 47.9184 19.6438 46.8873 18.6127C45.8562 17.5816 44.4582 17.0017 43 17ZM43 26C42.3078 26 41.6311 25.7947 41.0555 25.4101C40.4799 25.0256 40.0313 24.4789 39.7664 23.8394C39.5015 23.1999 39.4322 22.4961 39.5673 21.8172C39.7023 21.1382 40.0356 20.5146 40.5251 20.0251C41.0146 19.5356 41.6382 19.2023 42.3172 19.0673C42.9961 18.9322 43.6999 19.0015 44.3394 19.2664C44.9789 19.5313 45.5256 19.9799 45.9101 20.5555C46.2947 21.1311 46.5 21.8078 46.5 22.5C46.5 23.4283 46.1313 24.3185 45.4749 24.9749C44.8185 25.6313 43.9283 26 43 26Z" fill="#8E8E94"/>
<path d="M0.289062 27.8796C0.289062 23.1419 4.1297 19.3013 8.86737 19.3013H34.6023C39.34 19.3013 43.1806 23.1419 43.1806 27.8796V53.6146C43.1806 58.3522 39.34 62.1929 34.6023 62.1929H8.86737C4.1297 62.1929 0.289062 58.3522 0.289062 53.6146V27.8796Z" fill="#E6B800"/>
<path d="M28.7503 46.1287C27.7466 46.1287 26.8845 45.9314 26.1639 45.5368C25.4433 45.1422 24.8857 44.5889 24.4911 43.8769C24.1051 43.1649 23.9121 42.3328 23.9121 41.3806C23.9121 40.437 24.1094 39.6092 24.504 38.8972C24.8986 38.1766 25.4433 37.6147 26.1382 37.2115C26.8416 36.8083 27.6565 36.6068 28.583 36.6068C29.3465 36.6068 30.0284 36.744 30.6289 37.0185C31.238 37.293 31.727 37.6705 32.0958 38.1508C32.4733 38.6227 32.6963 39.1717 32.7649 39.7979H30.7833C30.6976 39.2918 30.4574 38.8972 30.0628 38.6141C29.6767 38.3224 29.1921 38.1766 28.6087 38.1766C28.0683 38.1766 27.5965 38.3053 27.1933 38.5626C26.7901 38.8114 26.477 39.1717 26.254 39.6435C26.031 40.1153 25.9194 40.6815 25.9194 41.342C25.9194 42.0282 26.031 42.6159 26.254 43.1048C26.477 43.5852 26.803 43.9541 27.2319 44.2114C27.6694 44.4602 28.2056 44.5846 28.8404 44.5846C29.355 44.5846 29.7925 44.5202 30.1528 44.3916C30.5131 44.2629 30.7876 44.0827 30.9763 43.8511L32.855 44.5975C32.3575 45.095 31.7784 45.4767 31.1179 45.7427C30.4659 46 29.6767 46.1287 28.7503 46.1287ZM30.8734 44.5975V42.0497L31.2723 42.4486H28.8275V40.9302H32.855V44.5975H30.8734Z" fill="white"/>
<path d="M15.8315 46V36.7354H20.2322C20.9185 36.7354 21.5061 36.8555 21.9951 37.0957C22.4926 37.3359 22.8743 37.6704 23.1403 38.0994C23.4148 38.5283 23.552 39.0301 23.552 39.6049C23.552 40.1796 23.4148 40.6857 23.1403 41.1232C22.8658 41.5607 22.4797 41.9038 21.9822 42.1526C21.4932 42.3928 20.9099 42.5129 20.2322 42.5129H17.4014V40.9945H20.1293C20.5839 40.9945 20.9356 40.8702 21.1844 40.6214C21.4418 40.364 21.5704 40.0295 21.5704 39.6177C21.5704 39.206 21.4418 38.8757 21.1844 38.6269C20.9356 38.3782 20.5839 38.2538 20.1293 38.2538H17.8131V46H15.8315Z" fill="white"/>
<path d="M11.8544 46.1287C11.5284 46.1287 11.2153 46.1029 10.915 46.0515C10.6148 46.0086 10.396 45.9528 10.2588 45.8842V44.3658C10.4132 44.4259 10.5976 44.4773 10.8121 44.5202C11.0265 44.5631 11.2453 44.5846 11.4683 44.5846C11.9487 44.5846 12.2961 44.5074 12.5106 44.353C12.7336 44.19 12.8452 43.8983 12.8452 43.478V36.7354H14.8267V43.568C14.8267 44.4259 14.5737 45.0692 14.0676 45.4982C13.5614 45.9185 12.8237 46.1287 11.8544 46.1287Z" fill="white"/>
</svg>
