<svg width="65" height="63" viewBox="0 0 65 63" fill="none" xmlns="http://www.w3.org/2000/svg">
<path fill-rule="evenodd" clip-rule="evenodd" d="M56.0481 2.14458H30.3132C26.7599 2.14458 23.8794 5.02505 23.8794 8.57831V34.3133C23.8794 37.8665 26.7599 40.747 30.3132 40.747H56.0481C59.6014 40.747 62.4819 37.8665 62.4819 34.3133V8.57831C62.4819 5.02506 59.6014 2.14458 56.0481 2.14458ZM30.3132 0C25.5755 0 21.7349 3.84063 21.7349 8.57831V34.3133C21.7349 39.0509 25.5755 42.8916 30.3132 42.8916H56.0481C60.7858 42.8916 64.6264 39.0509 64.6264 34.3133V8.57831C64.6264 3.84064 60.7858 0 56.0481 0H30.3132Z" fill="#8E8E94"/>
<path d="M35.7198 23.8592C35.4571 23.5357 34.9609 23.5435 34.7085 23.8751L29.7866 30.3404C29.4641 30.7639 29.7662 31.3735 30.2985 31.3735H56.4828C57.0436 31.3735 57.3359 30.706 56.9556 30.2938L48.0628 20.6566C47.8162 20.3894 47.3974 20.3794 47.1384 20.6346L39.8446 27.8204C39.5741 28.0868 39.1329 28.0624 38.8936 27.7676L35.7198 23.8592Z" fill="#8E8E94"/>
<path d="M34.1701 15.0747C34.1701 17.3251 36.0218 19.1494 38.306 19.1494C40.5903 19.1494 42.442 17.3251 42.442 15.0747C42.442 12.8243 40.5903 11 38.306 11C36.0218 11 34.1701 12.8243 34.1701 15.0747Z" fill="#8E8E94"/>
<path d="M0.289062 27.8796C0.289062 23.1419 4.1297 19.3013 8.86737 19.3013H34.6023C39.34 19.3013 43.1806 23.1419 43.1806 27.8796V53.6145C43.1806 58.3522 39.34 62.1928 34.6023 62.1928H8.86737C4.1297 62.1928 0.289062 58.3522 0.289062 53.6145V27.8796Z" fill="#E6B800"/>
<path d="M28.75 46.1286C27.7464 46.1286 26.8842 45.9313 26.1637 45.5367C25.4431 45.1421 24.8855 44.5888 24.4909 43.8768C24.1049 43.1648 23.9119 42.3327 23.9119 41.3805C23.9119 40.4369 24.1092 39.6091 24.5038 38.8971C24.8984 38.1765 25.4431 37.6146 26.1379 37.2115C26.8414 36.8083 27.6563 36.6067 28.5828 36.6067C29.3462 36.6067 30.0282 36.7439 30.6287 37.0184C31.2377 37.293 31.7267 37.6704 32.0956 38.1508C32.473 38.6226 32.6961 39.1716 32.7647 39.7978H30.7831C30.6973 39.2917 30.4571 38.8971 30.0625 38.614C29.6765 38.3224 29.1918 38.1765 28.6085 38.1765C28.0681 38.1765 27.5963 38.3052 27.1931 38.5625C26.7899 38.8113 26.4768 39.1716 26.2537 39.6434C26.0307 40.1152 25.9192 40.6814 25.9192 41.3419C25.9192 42.0282 26.0307 42.6158 26.2537 43.1048C26.4768 43.5851 26.8028 43.954 27.2317 44.2114C27.6692 44.4601 28.2053 44.5845 28.8401 44.5845C29.3548 44.5845 29.7923 44.5202 30.1526 44.3915C30.5129 44.2628 30.7874 44.0827 30.9761 43.8511L32.8548 44.5974C32.3572 45.0949 31.7782 45.4767 31.1176 45.7426C30.4657 45.9999 29.6765 46.1286 28.75 46.1286ZM30.8732 44.5974V42.0496L31.2721 42.4485H28.8272V40.9302H32.8548V44.5974H30.8732Z" fill="white"/>
<path d="M15.8315 45.9999V36.7354H20.2322C20.9185 36.7354 21.5061 36.8554 21.9951 37.0956C22.4926 37.3358 22.8743 37.6704 23.1403 38.0993C23.4148 38.5282 23.552 39.03 23.552 39.6048C23.552 40.1795 23.4148 40.6857 23.1403 41.1232C22.8658 41.5607 22.4797 41.9038 21.9822 42.1526C21.4932 42.3927 20.9099 42.5128 20.2322 42.5128H17.4014V40.9945H20.1293C20.5839 40.9945 20.9356 40.8701 21.1844 40.6213C21.4418 40.364 21.5704 40.0294 21.5704 39.6177C21.5704 39.2059 21.4418 38.8756 21.1844 38.6269C20.9356 38.3781 20.5839 38.2537 20.1293 38.2537H17.8131V45.9999H15.8315Z" fill="white"/>
<path d="M11.8544 46.1286C11.5284 46.1286 11.2153 46.1029 10.915 46.0514C10.6148 46.0085 10.396 45.9527 10.2588 45.8841V44.3658C10.4132 44.4258 10.5976 44.4773 10.8121 44.5202C11.0265 44.5631 11.2453 44.5845 11.4683 44.5845C11.9487 44.5845 12.2961 44.5073 12.5106 44.3529C12.7336 44.1899 12.8452 43.8982 12.8452 43.4779V36.7354H14.8267V43.568C14.8267 44.4258 14.5737 45.0692 14.0676 45.4981C13.5614 45.9184 12.8237 46.1286 11.8544 46.1286Z" fill="white"/>
</svg>
