<svg width="65" height="63" viewBox="0 0 65 63" fill="none" xmlns="http://www.w3.org/2000/svg">
<path fill-rule="evenodd" clip-rule="evenodd" d="M56.0481 2.14458H30.3132C26.7599 2.14458 23.8794 5.02505 23.8794 8.57831V34.3133C23.8794 37.8665 26.7599 40.747 30.3132 40.747H56.0481C59.6014 40.747 62.4819 37.8665 62.4819 34.3133V8.57831C62.4819 5.02506 59.6014 2.14458 56.0481 2.14458ZM30.3132 0C25.5755 0 21.7349 3.84063 21.7349 8.57831V34.3133C21.7349 39.0509 25.5755 42.8916 30.3132 42.8916H56.0481C60.7858 42.8916 64.6264 39.0509 64.6264 34.3133V8.57831C64.6264 3.84064 60.7858 0 56.0481 0H30.3132Z" fill="#8E8E94"/>
<g clip-path="url(#clip0_9631_3827)">
<path d="M32.2746 36C31.8955 36 31.5381 35.8834 31.224 35.6503C30.0974 34.8236 29.9458 33.9016 30.0108 33.2763C30.2058 31.5488 32.383 29.7472 36.4991 27.9031C38.1239 24.4058 39.6728 20.103 40.6044 16.5102C39.5212 14.2104 38.4705 11.2218 39.2396 9.47313C39.5104 8.85844 39.8461 8.39213 40.4636 8.18017C40.7127 8.09538 41.3301 8 41.5684 8C42.11 8 42.5974 8.68887 42.9332 9.11279C43.2582 9.51552 43.9731 10.3528 42.5324 16.3195C43.9948 19.2657 46.0636 22.2755 48.0459 24.3316C49.4649 24.0772 50.6889 23.95 51.6854 23.95C53.386 23.95 54.4042 24.3316 54.8266 25.137C55.1733 25.7941 55.0324 26.5678 54.4042 27.4262C53.7976 28.2528 52.9636 28.6874 51.9995 28.6874C50.678 28.6874 49.1507 27.8713 47.4393 26.271C44.363 26.8963 40.7777 28.0197 37.8747 29.2597C36.9649 31.1355 36.0983 32.651 35.2967 33.7638C34.1811 35.2793 33.2279 36 32.2855 36H32.2746ZM35.1559 30.5632C32.8379 31.835 31.8955 32.8842 31.8305 33.4671C31.8197 33.5625 31.7872 33.8168 32.2963 34.1983C32.4588 34.1453 33.4012 33.732 35.1559 30.5526V30.5632ZM49.9306 25.8577C50.808 26.5254 51.0247 26.8539 51.6096 26.8539C51.8587 26.8539 52.5844 26.8433 52.9202 26.3876C53.0827 26.165 53.1477 26.0273 53.1694 25.9425C53.0394 25.8683 52.8552 25.7305 51.902 25.7305C51.3496 25.7305 50.6672 25.7517 49.9415 25.8471L49.9306 25.8577ZM41.8392 18.8842C41.0593 21.5019 40.0411 24.3422 38.9471 26.8963C41.211 26.0379 43.6698 25.2854 45.9878 24.7555C44.5255 23.0916 43.0632 21.0144 41.85 18.8842H41.8392ZM41.1785 9.91824C41.0701 9.95004 39.7378 11.7835 41.2868 13.3308C42.3158 11.0946 41.2326 9.90765 41.1785 9.91824Z" fill="#8E8E94"/>
</g>
<path d="M0.289062 27.8796C0.289062 23.1419 4.1297 19.3013 8.86737 19.3013H34.6023C39.34 19.3013 43.1806 23.1419 43.1806 27.8796V53.6145C43.1806 58.3522 39.34 62.1928 34.6023 62.1928H8.86737C4.1297 62.1928 0.289062 58.3522 0.289062 53.6145V27.8796Z" fill="#3A3A3B"/>
<path d="M32.8999 45.4339V36.1693H34.8815V45.4339H32.8999ZM33.8264 45.4339V43.9155H39.3336V45.4339H33.8264Z" fill="white"/>
<path d="M21.6592 45.4339V36.1693H24.7474L27.3209 45.0993H26.2014L28.7749 36.1693H31.8759V45.4339H29.9201V36.7226H30.2547L27.7455 45.4339H25.6996L23.2161 36.7998H23.5378V45.4339H21.6592Z" fill="white"/>
<path d="M15.9604 45.4339V37.6877H12.9365V36.1693H20.9658V37.6877H17.942V45.4339H15.9604Z" fill="white"/>
<path d="M4.26758 45.4339V36.1693H6.24917V45.4339H4.26758ZM10.2638 45.4339V36.1693H12.2454V45.4339H10.2638ZM5.19404 39.8494H11.1645V41.3678H5.19404V39.8494Z" fill="white"/>
<defs>
<clipPath id="clip0_9631_3827">
<rect width="25" height="28" fill="white" transform="translate(30 8)"/>
</clipPath>
</defs>
</svg>
