<svg width="65" height="63" viewBox="0 0 65 63" fill="none" xmlns="http://www.w3.org/2000/svg">
<path fill-rule="evenodd" clip-rule="evenodd" d="M56.0481 2.14458H30.3132C26.7599 2.14458 23.8794 5.02505 23.8794 8.57831V34.3133C23.8794 37.8665 26.7599 40.747 30.3132 40.747H56.0481C59.6014 40.747 62.4819 37.8665 62.4819 34.3133V8.57831C62.4819 5.02506 59.6014 2.14458 56.0481 2.14458ZM30.3132 0C25.5755 0 21.7349 3.84063 21.7349 8.57831V34.3133C21.7349 39.0509 25.5755 42.8916 30.3132 42.8916H56.0481C60.7858 42.8916 64.6264 39.0509 64.6264 34.3133V8.57831C64.6264 3.84064 60.7858 0 56.0481 0H30.3132Z" fill="#8E8E94"/>
<g clip-path="url(#clip0_9045_22991)">
<path d="M37.6129 15.3363C37.1568 14.8873 36.4171 14.8873 35.9611 15.3363L31.3411 19.8848C31.1224 20.1001 31 20.3922 31 20.697C31 21.0018 31.1224 21.2938 31.3411 21.5092L35.9611 26.0577C36.1891 26.2822 36.4876 26.3935 36.7861 26.3935C37.0845 26.3935 37.383 26.2804 37.611 26.0577C38.0671 25.6087 38.0671 24.8804 37.611 24.4314L33.8179 20.697L37.611 16.9626C38.0671 16.5135 38.0671 15.7853 37.611 15.3363H37.6129Z" fill="#8E8E94"/>
<path d="M51.039 15.3363C50.583 14.8873 49.8433 14.8873 49.3872 15.3363C48.9312 15.7853 48.9312 16.5135 49.3872 16.9626L53.1803 20.697L49.3872 24.4314C48.9312 24.8804 48.9312 25.6087 49.3872 26.0577C49.6152 26.2822 49.9137 26.3935 50.2122 26.3935C50.5107 26.3935 50.8092 26.2804 51.0372 26.0559L55.6571 21.5074C56.1132 21.0584 56.1132 20.3301 55.6571 19.8811L51.0372 15.3326L51.039 15.3363Z" fill="#8E8E94"/>
<path d="M45.631 13.0474C45.0118 12.8667 44.3629 13.2172 44.1813 13.825L40.086 27.5252C39.9043 28.1348 40.2584 28.7736 40.8757 28.9525C40.9851 28.9854 41.0963 29 41.2057 29C41.71 29 42.1753 28.6751 42.3255 28.175L46.4208 14.4748C46.6025 13.8651 46.2484 13.2263 45.631 13.0474Z" fill="#8E8E94"/>
</g>
<path d="M0.289062 27.8796C0.289062 23.1419 4.1297 19.3013 8.86737 19.3013H34.6023C39.34 19.3013 43.1806 23.1419 43.1806 27.8796V53.6145C43.1806 58.3522 39.34 62.1928 34.6023 62.1928H8.86737C4.1297 62.1928 0.289062 58.3522 0.289062 53.6145V27.8796Z" fill="#FF0D00"/>
<path d="M27.512 45.4339V36.1693H29.4936V45.4339H27.512ZM28.4384 41.8439V40.3255H33.7527V41.8439H28.4384ZM28.4384 37.6877V36.1693H34.0486V37.6877H28.4384Z" fill="white"/>
<path d="M19.2528 45.4339V43.8898H21.5946C22.2637 43.8898 22.8299 43.7568 23.2931 43.4909C23.7649 43.2164 24.1209 42.8432 24.3611 42.3714C24.6099 41.8996 24.7343 41.3592 24.7343 40.7501C24.7343 40.1496 24.6142 39.6221 24.374 39.1674C24.1338 38.7128 23.7778 38.3568 23.306 38.0994C22.8428 37.8421 22.2723 37.7134 21.5946 37.7134H19.2914V36.1693H21.5946C22.6326 36.1693 23.5376 36.358 24.3097 36.7355C25.0817 37.1043 25.6779 37.6362 26.0982 38.331C26.5272 39.0173 26.7416 39.8323 26.7416 40.7759C26.7416 41.7195 26.5272 42.543 26.0982 43.2464C25.6693 43.9413 25.0689 44.4817 24.2968 44.8677C23.5333 45.2452 22.6369 45.4339 21.6075 45.4339H19.2528ZM18.0432 45.4339V36.1693H20.0248V45.4339H18.0432Z" fill="white"/>
<path d="M9.65527 45.4339V36.1693H14.0559C14.7422 36.1693 15.3298 36.2894 15.8188 36.5296C16.3163 36.7698 16.6981 37.1043 16.964 37.5333C17.2385 37.9622 17.3758 38.464 17.3758 39.0388C17.3758 39.6135 17.2385 40.1196 16.964 40.5571C16.6895 40.9946 16.3035 41.3377 15.8059 41.5865C15.317 41.8267 14.7336 41.9468 14.0559 41.9468H11.2251V40.4284H13.953C14.4077 40.4284 14.7594 40.3041 15.0081 40.0553C15.2655 39.7979 15.3942 39.4634 15.3942 39.0516C15.3942 38.6399 15.2655 38.3096 15.0081 38.0608C14.7594 37.8121 14.4077 37.6877 13.953 37.6877H11.6369V45.4339H9.65527Z" fill="white"/>
<defs>
<clipPath id="clip0_9045_22991">
<rect width="25" height="16" fill="white" transform="translate(31 13)"/>
</clipPath>
</defs>
</svg>
