<svg width="65" height="63" viewBox="0 0 65 63" fill="none" xmlns="http://www.w3.org/2000/svg">
<path fill-rule="evenodd" clip-rule="evenodd" d="M56.0481 2.14458H30.3132C26.7599 2.14458 23.8794 5.02505 23.8794 8.57831V34.3133C23.8794 37.8665 26.7599 40.747 30.3132 40.747H56.0481C59.6014 40.747 62.4819 37.8665 62.4819 34.3133V8.57831C62.4819 5.02506 59.6014 2.14458 56.0481 2.14458ZM30.3132 0C25.5755 0 21.7349 3.84063 21.7349 8.57831V34.3133C21.7349 39.0509 25.5755 42.8916 30.3132 42.8916H56.0481C60.7858 42.8916 64.6264 39.0509 64.6264 34.3133V8.57831C64.6264 3.84064 60.7858 0 56.0481 0H30.3132Z" fill="#8E8E94"/>
<path d="M51.0674 22.709C51.3516 22.709 51.5833 22.9396 51.5691 23.2234C51.4763 25.0782 50.8829 26.8769 49.8476 28.4264C48.7168 30.1187 47.1096 31.4377 45.2291 32.2166C43.3487 32.9955 41.2795 33.1993 39.2833 32.8023C37.287 32.4052 35.4534 31.4251 34.0142 29.9858C32.5749 28.5466 31.5948 26.713 31.1977 24.7167C30.8007 22.7205 31.0045 20.6513 31.7834 18.7709C32.5623 16.8904 33.8813 15.2832 35.5736 14.1524C37.1231 13.1171 38.9218 12.5237 40.7766 12.4309C41.0604 12.4167 41.291 12.6484 41.291 12.9326V22.1945C41.291 22.4787 41.5213 22.709 41.8055 22.709H51.0674Z" fill="#8E8E94"/>
<path d="M54.4977 19.2787C54.7819 19.2787 55.0136 19.0482 54.9994 18.7644C54.9405 17.5887 54.6803 16.4305 54.2289 15.3405C53.7117 14.092 52.9537 12.9575 51.9981 12.0019C51.0425 11.0463 49.908 10.2883 48.6595 9.77111C47.5695 9.31965 46.4113 9.05945 45.2356 9.00062C44.9518 8.98642 44.7213 9.21813 44.7213 9.50231V18.7642C44.7213 19.0483 44.9517 19.2787 45.2358 19.2787H54.4977Z" fill="#8E8E94"/>
<path d="M0.289062 27.8796C0.289062 23.1419 4.1297 19.3013 8.86737 19.3013H34.6023C39.34 19.3013 43.1806 23.1419 43.1806 27.8796V53.6145C43.1806 58.3522 39.34 62.1928 34.6023 62.1928H8.86737C4.1297 62.1928 0.289062 58.3522 0.289062 53.6145V27.8796Z" fill="#FF0D00"/>
<path d="M27.512 45.4338V36.1692H29.4936V45.4338H27.512ZM28.4384 41.8437V40.3254H33.7527V41.8437H28.4384ZM28.4384 37.6875V36.1692H34.0486V37.6875H28.4384Z" fill="white"/>
<path d="M19.2528 45.4338V43.8897H21.5946C22.2637 43.8897 22.8299 43.7567 23.2931 43.4908C23.7649 43.2163 24.1209 42.8431 24.3611 42.3713C24.6099 41.8995 24.7343 41.3591 24.7343 40.75C24.7343 40.1495 24.6142 39.622 24.374 39.1673C24.1338 38.7127 23.7778 38.3567 23.306 38.0993C22.8428 37.842 22.2723 37.7133 21.5946 37.7133H19.2914V36.1692H21.5946C22.6326 36.1692 23.5376 36.3579 24.3097 36.7354C25.0817 37.1042 25.6779 37.6361 26.0982 38.3309C26.5272 39.0172 26.7416 39.8321 26.7416 40.7757C26.7416 41.7194 26.5272 42.5429 26.0982 43.2463C25.6693 43.9411 25.0689 44.4816 24.2968 44.8676C23.5333 45.245 22.6369 45.4338 21.6075 45.4338H19.2528ZM18.0432 45.4338V36.1692H20.0248V45.4338H18.0432Z" fill="white"/>
<path d="M9.65527 45.4338V36.1692H14.0559C14.7422 36.1692 15.3298 36.2893 15.8188 36.5295C16.3163 36.7697 16.6981 37.1042 16.964 37.5331C17.2385 37.9621 17.3758 38.4639 17.3758 39.0386C17.3758 39.6134 17.2385 40.1195 16.964 40.557C16.6895 40.9945 16.3035 41.3376 15.8059 41.5864C15.317 41.8266 14.7336 41.9467 14.0559 41.9467H11.2251V40.4283H13.953C14.4077 40.4283 14.7594 40.3039 15.0081 40.0552C15.2655 39.7978 15.3942 39.4633 15.3942 39.0515C15.3942 38.6397 15.2655 38.3095 15.0081 38.0607C14.7594 37.8119 14.4077 37.6875 13.953 37.6875H11.6369V45.4338H9.65527Z" fill="white"/>
</svg>
