<svg width="65" height="63" viewBox="0 0 65 63" fill="none" xmlns="http://www.w3.org/2000/svg">
<path fill-rule="evenodd" clip-rule="evenodd" d="M56.0481 2.14458H30.3132C26.7599 2.14458 23.8794 5.02505 23.8794 8.57831V34.3133C23.8794 37.8665 26.7599 40.747 30.3132 40.747H56.0481C59.6014 40.747 62.4819 37.8665 62.4819 34.3133V8.57831C62.4819 5.02506 59.6014 2.14458 56.0481 2.14458ZM30.3132 0C25.5755 0 21.7349 3.84063 21.7349 8.57831V34.3133C21.7349 39.0509 25.5755 42.8916 30.3132 42.8916H56.0481C60.7858 42.8916 64.6264 39.0509 64.6264 34.3133V8.57831C64.6264 3.84064 60.7858 0 56.0481 0H30.3132Z" fill="#8E8E94"/>
<g clip-path="url(#clip0_9631_3809)">
<path d="M37.6129 15.3363C37.1568 14.8873 36.4171 14.8873 35.9611 15.3363L31.3411 19.8848C31.1224 20.1001 31 20.3922 31 20.697C31 21.0018 31.1224 21.2938 31.3411 21.5092L35.9611 26.0577C36.1891 26.2822 36.4876 26.3935 36.7861 26.3935C37.0845 26.3935 37.383 26.2804 37.611 26.0577C38.0671 25.6087 38.0671 24.8804 37.611 24.4314L33.8179 20.697L37.611 16.9626C38.0671 16.5135 38.0671 15.7853 37.611 15.3363H37.6129Z" fill="#8E8E94"/>
<path d="M51.0388 15.3363C50.5827 14.8873 49.843 14.8873 49.387 15.3363C48.9309 15.7853 48.9309 16.5135 49.387 16.9626L53.1801 20.697L49.387 24.4314C48.9309 24.8804 48.9309 25.6087 49.387 26.0577C49.615 26.2822 49.9135 26.3935 50.212 26.3935C50.5104 26.3935 50.8089 26.2804 51.037 26.0559L55.6569 21.5074C56.113 21.0584 56.113 20.3301 55.6569 19.8811L51.037 15.3326L51.0388 15.3363Z" fill="#8E8E94"/>
<path d="M45.6313 13.0474C45.012 12.8667 44.3632 13.2172 44.1815 13.825L40.0862 27.5252C39.9045 28.1348 40.2586 28.7736 40.876 28.9525C40.9854 28.9854 41.0966 29 41.206 29C41.7102 29 42.1756 28.6751 42.3257 28.175L46.421 14.4748C46.6027 13.8651 46.2486 13.2263 45.6313 13.0474Z" fill="#8E8E94"/>
</g>
<path d="M0.289062 27.8796C0.289062 23.1419 4.1297 19.3013 8.86737 19.3013H34.6023C39.34 19.3013 43.1806 23.1419 43.1806 27.8796V53.6145C43.1806 58.3522 39.34 62.1928 34.6023 62.1928H8.86737C4.1297 62.1928 0.289062 58.3522 0.289062 53.6145V27.8796Z" fill="#FF0D00"/>
<path d="M27.5117 45.4339V36.1693H29.4933V45.4339H27.5117ZM28.4382 41.8439V40.3255H33.7524V41.8439H28.4382ZM28.4382 37.6877V36.1693H34.0484V37.6877H28.4382Z" fill="white"/>
<path d="M19.253 45.4339V43.8898H21.5949C22.264 43.8898 22.8302 43.7568 23.2934 43.4909C23.7652 43.2164 24.1212 42.8432 24.3614 42.3714C24.6102 41.8996 24.7345 41.3592 24.7345 40.7501C24.7345 40.1496 24.6144 39.6221 24.3743 39.1674C24.1341 38.7128 23.7781 38.3568 23.3063 38.0994C22.843 37.8421 22.2726 37.7134 21.5949 37.7134H19.2916V36.1693H21.5949C22.6329 36.1693 23.5379 36.358 24.3099 36.7355C25.082 37.1043 25.6782 37.6362 26.0985 38.331C26.5274 39.0173 26.7419 39.8323 26.7419 40.7759C26.7419 41.7195 26.5274 42.543 26.0985 43.2464C25.6696 43.9413 25.0691 44.4817 24.297 44.8677C23.5336 45.2452 22.6371 45.4339 21.6077 45.4339H19.253ZM18.0435 45.4339V36.1693H20.025V45.4339H18.0435Z" fill="white"/>
<path d="M9.65527 45.4339V36.1693H14.0559C14.7422 36.1693 15.3298 36.2894 15.8188 36.5296C16.3163 36.7698 16.6981 37.1043 16.964 37.5333C17.2385 37.9622 17.3758 38.464 17.3758 39.0388C17.3758 39.6135 17.2385 40.1196 16.964 40.5571C16.6895 40.9946 16.3035 41.3377 15.8059 41.5865C15.317 41.8267 14.7336 41.9468 14.0559 41.9468H11.2251V40.4284H13.953C14.4077 40.4284 14.7594 40.3041 15.0081 40.0553C15.2655 39.7979 15.3942 39.4634 15.3942 39.0516C15.3942 38.6399 15.2655 38.3096 15.0081 38.0608C14.7594 37.8121 14.4077 37.6877 13.953 37.6877H11.6369V45.4339H9.65527Z" fill="white"/>
<defs>
<clipPath id="clip0_9631_3809">
<rect width="25" height="16" fill="white" transform="translate(31 13)"/>
</clipPath>
</defs>
</svg>
