<svg width="65" height="63" viewBox="0 0 65 63" fill="none" xmlns="http://www.w3.org/2000/svg">
<path fill-rule="evenodd" clip-rule="evenodd" d="M56.0481 2.14458H30.3132C26.7599 2.14458 23.8794 5.02505 23.8794 8.57831V34.3133C23.8794 37.8665 26.7599 40.747 30.3132 40.747H56.0481C59.6014 40.747 62.4819 37.8665 62.4819 34.3133V8.57831C62.4819 5.02506 59.6014 2.14458 56.0481 2.14458ZM30.3132 0C25.5755 0 21.7349 3.84063 21.7349 8.57831V34.3133C21.7349 39.0509 25.5755 42.8916 30.3132 42.8916H56.0481C60.7858 42.8916 64.6264 39.0509 64.6264 34.3133V8.57831C64.6264 3.84064 60.7858 0 56.0481 0H30.3132Z" fill="#8E8E94"/>
<path d="M35.7198 23.8592C35.4571 23.5357 34.9609 23.5435 34.7085 23.8751L29.7866 30.3404C29.4641 30.7639 29.7662 31.3735 30.2985 31.3735H56.4828C57.0436 31.3735 57.3359 30.706 56.9556 30.2938L48.0628 20.6566C47.8162 20.3894 47.3974 20.3794 47.1384 20.6346L39.8446 27.8204C39.5741 28.0868 39.1329 28.0624 38.8936 27.7676L35.7198 23.8592Z" fill="#8E8E94"/>
<path d="M34.1701 15.0747C34.1701 17.3251 36.0218 19.1494 38.306 19.1494C40.5903 19.1494 42.442 17.3251 42.442 15.0747C42.442 12.8243 40.5903 11 38.306 11C36.0218 11 34.1701 12.8243 34.1701 15.0747Z" fill="#8E8E94"/>
<path d="M0.289062 27.8796C0.289062 23.1419 4.1297 19.3013 8.86737 19.3013H34.6023C39.34 19.3013 43.1806 23.1419 43.1806 27.8796V53.6145C43.1806 58.3522 39.34 62.1928 34.6023 62.1928H8.86737C4.1297 62.1928 0.289062 58.3522 0.289062 53.6145V27.8796Z" fill="#FF0D00"/>
<path d="M27.5117 45.9999V36.7354H29.4933V45.9999H27.5117ZM28.4382 42.4099V40.8915H33.7524V42.4099H28.4382ZM28.4382 38.2537V36.7354H34.0484V38.2537H28.4382Z" fill="white"/>
<path d="M19.2525 45.9999V44.4558H21.5944C22.2635 44.4558 22.8297 44.3229 23.2929 44.0569C23.7647 43.7824 24.1207 43.4093 24.3609 42.9375C24.6097 42.4657 24.7341 41.9252 24.7341 41.3162C24.7341 40.7157 24.614 40.1881 24.3738 39.7335C24.1336 39.2788 23.7776 38.9228 23.3058 38.6655C22.8425 38.4081 22.2721 38.2794 21.5944 38.2794H19.2911V36.7354H21.5944C22.6324 36.7354 23.5374 36.9241 24.3094 37.3015C25.0815 37.6704 25.6777 38.2022 26.098 38.8971C26.5269 39.5834 26.7414 40.3983 26.7414 41.3419C26.7414 42.2855 26.5269 43.109 26.098 43.8125C25.6691 44.5073 25.0686 45.0477 24.2966 45.4338C23.5331 45.8112 22.6367 45.9999 21.6073 45.9999H19.2525ZM18.043 45.9999V36.7354H20.0246V45.9999H18.043Z" fill="white"/>
<path d="M9.65503 45.9999V36.7354H14.0557C14.742 36.7354 15.3296 36.8554 15.8185 37.0956C16.3161 37.3358 16.6978 37.6704 16.9638 38.0993C17.2383 38.5282 17.3755 39.03 17.3755 39.6048C17.3755 40.1795 17.2383 40.6857 16.9638 41.1232C16.6892 41.5607 16.3032 41.9038 15.8057 42.1526C15.3167 42.3927 14.7334 42.5128 14.0557 42.5128H11.2249V40.9945H13.9528C14.4074 40.9945 14.7591 40.8701 15.0079 40.6213C15.2652 40.364 15.3939 40.0294 15.3939 39.6177C15.3939 39.2059 15.2652 38.8756 15.0079 38.6269C14.7591 38.3781 14.4074 38.2537 13.9528 38.2537H11.6366V45.9999H9.65503Z" fill="white"/>
</svg>
