<svg width="69" height="76" viewBox="0 0 69 76" fill="none" xmlns="http://www.w3.org/2000/svg">
<rect x="26.8072" y="1.07229" width="40.747" height="40.747" rx="7.50602" stroke="#8E8E94" stroke-width="2.14458"/>
<path d="M39.7196 23.8592C39.4569 23.5357 38.9606 23.5435 38.7082 23.8751L33.7863 30.3404C33.4639 30.7639 33.7659 31.3735 34.2982 31.3735H60.4825C61.0434 31.3735 61.3357 30.706 60.9554 30.2938L52.0625 20.6566C51.816 20.3894 51.3972 20.3794 51.1382 20.6346L43.8443 27.8204C43.5738 28.0868 43.1327 28.0624 42.8933 27.7676L39.7196 23.8592Z" fill="#8E8E94"/>
<path d="M38.1698 15.0747C38.1698 17.3251 40.0216 19.1494 42.3058 19.1494C44.59 19.1494 46.4418 17.3251 46.4418 15.0747C46.4418 12.8243 44.59 11 42.3058 11C40.0216 11 38.1698 12.8243 38.1698 15.0747Z" fill="#8E8E94"/>
<rect x="4.28906" y="19.3013" width="42.8916" height="42.8916" rx="8.57831" fill="#514ED4"/>
<path d="M9.69971 45.4338L7.08762 36.1693H9.09494L11.2567 44.6489H10.6262L12.5563 36.1693H14.8081L16.7125 44.6489H16.0948L18.2694 36.1693H20.1867L17.5746 45.4338H15.3614L13.3927 37.1215H13.9074L11.9129 45.4338H9.69971ZM21.0094 45.4338V36.1693H22.991V45.4338H21.0094ZM21.9359 45.4338V43.9155H27.9064V45.4338H21.9359ZM21.9359 41.4449V39.9523H27.456V41.4449H21.9359ZM21.9359 37.6876V36.1693H27.752V37.6876H21.9359ZM30.3401 45.4338V44.0184H32.7335C33.1624 44.0184 33.4841 43.9026 33.6985 43.671C33.9216 43.4308 34.0331 43.1005 34.0331 42.6802C34.0331 42.2513 33.913 41.9124 33.6728 41.6637C33.4412 41.4149 33.1066 41.2905 32.6691 41.2905H30.3401V39.8751H32.5662C32.9694 39.8751 33.2739 39.7807 33.4798 39.592C33.6943 39.3947 33.8015 39.1073 33.8015 38.7299C33.8015 38.3524 33.6985 38.0694 33.4927 37.8806C33.2954 37.6833 32.9994 37.5847 32.6048 37.5847H30.3401V36.1693H33.0294C33.853 36.1693 34.5178 36.3794 35.0239 36.7998C35.53 37.2201 35.7831 37.7906 35.7831 38.5111C35.7831 38.9658 35.6758 39.3561 35.4614 39.6821C35.2469 40.0081 34.9596 40.2568 34.5993 40.4284C34.239 40.6 33.8358 40.6857 33.3897 40.6857L33.4541 40.4155C33.9345 40.4155 34.3677 40.5185 34.7537 40.7243C35.1483 40.9302 35.4614 41.2219 35.693 41.5993C35.9246 41.9682 36.0404 42.4057 36.0404 42.9118C36.0404 43.4179 35.9203 43.864 35.6801 44.25C35.4485 44.6275 35.1183 44.9191 34.6893 45.125C34.269 45.3309 33.7715 45.4338 33.1967 45.4338H30.3401ZM28.7188 45.4338V36.1693H30.7004V45.4338H28.7188ZM36.8178 45.4338V36.1693H41.2185C41.9047 36.1693 42.4924 36.2894 42.9813 36.5295C43.4789 36.7697 43.8606 37.1043 44.1265 37.5332C44.401 37.9621 44.5383 38.464 44.5383 39.0387C44.5383 39.6135 44.401 40.1196 44.1265 40.5571C43.852 40.9946 43.466 41.3377 42.9685 41.5865C42.4795 41.8267 41.8962 41.9468 41.2185 41.9468H38.3876V40.4284H41.1155C41.5702 40.4284 41.9219 40.304 42.1707 40.0552C42.428 39.7979 42.5567 39.4633 42.5567 39.0516C42.5567 38.6398 42.428 38.3095 42.1707 38.0608C41.9219 37.812 41.5702 37.6876 41.1155 37.6876H38.7994V45.4338H36.8178Z" fill="white"/>
</svg>
