<svg width="65" height="63" viewBox="0 0 65 63" fill="none" xmlns="http://www.w3.org/2000/svg">
<rect x="22.5181" y="1.07229" width="40.747" height="40.747" rx="7.50602" stroke="#8E8E94" stroke-width="2.14458"/>
<path d="M35.4305 23.8592C35.1678 23.5357 34.6716 23.5435 34.4192 23.8751L29.4973 30.3404C29.1748 30.7639 29.4769 31.3735 30.0092 31.3735H56.1935C56.7543 31.3735 57.0466 30.706 56.6663 30.2938L47.7735 20.6566C47.5269 20.3894 47.1081 20.3794 46.8491 20.6346L39.5552 27.8204C39.2848 28.0868 38.8436 28.0624 38.6043 27.7676L35.4305 23.8592Z" fill="#8E8E94"/>
<path d="M33.8808 15.0747C33.8808 17.3251 35.7325 19.1494 38.0167 19.1494C40.301 19.1494 42.1527 17.3251 42.1527 15.0747C42.1527 12.8243 40.301 11 38.0167 11C35.7325 11 33.8808 12.8243 33.8808 15.0747Z" fill="#8E8E94"/>
<rect y="19.3013" width="42.8916" height="42.8916" rx="8.57831" fill="#FF9500"/>
<path d="M30.4588 46.1286C29.4551 46.1286 28.593 45.9313 27.8724 45.5367C27.1518 45.1421 26.5942 44.5888 26.1996 43.8768C25.8136 43.1648 25.6206 42.3327 25.6206 41.3805C25.6206 40.4369 25.8179 39.6091 26.2125 38.8971C26.6071 38.1765 27.1518 37.6146 27.8467 37.2115C28.5501 36.8083 29.365 36.6067 30.2915 36.6067C31.055 36.6067 31.7369 36.7439 32.3374 37.0184C32.9465 37.293 33.4354 37.6704 33.8043 38.1508C34.1818 38.6226 34.4048 39.1716 34.4734 39.7978H32.4918C32.406 39.2917 32.1659 38.8971 31.7713 38.614C31.3852 38.3224 30.9006 38.1765 30.3172 38.1765C29.7768 38.1765 29.305 38.3052 28.9018 38.5625C28.4986 38.8113 28.1855 39.1716 27.9625 39.6434C27.7394 40.1152 27.6279 40.6814 27.6279 41.3419C27.6279 42.0282 27.7394 42.6158 27.9625 43.1048C28.1855 43.5851 28.5115 43.954 28.9404 44.2114C29.3779 44.4601 29.9141 44.5845 30.5488 44.5845C31.0635 44.5845 31.501 44.5202 31.8613 44.3915C32.2216 44.2628 32.4961 44.0827 32.6848 43.8511L34.5635 44.5974C34.066 45.0949 33.4869 45.4767 32.8264 45.7426C32.1744 45.9999 31.3852 46.1286 30.4588 46.1286ZM32.5819 44.5974V42.0496L32.9808 42.4485H30.536V40.9302H34.5635V44.5974H32.5819Z" fill="white"/>
<path d="M16.8745 45.9999V36.7354H19.4351L23.5527 44.9191L22.9222 45.0735V36.7354H24.8523V45.9999H22.2917L18.1741 37.8162L18.8046 37.6618V45.9999H16.8745Z" fill="white"/>
<path d="M8.48633 45.9999V36.7354H12.887C13.5733 36.7354 14.1609 36.8554 14.6498 37.0956C15.1474 37.3358 15.5291 37.6704 15.7951 38.0993C16.0696 38.5282 16.2068 39.03 16.2068 39.6048C16.2068 40.1795 16.0696 40.6857 15.7951 41.1232C15.5205 41.5607 15.1345 41.9038 14.637 42.1526C14.148 42.3927 13.5647 42.5128 12.887 42.5128H10.0562V40.9945H12.7841C13.2387 40.9945 13.5904 40.8701 13.8392 40.6213C14.0965 40.364 14.2252 40.0294 14.2252 39.6177C14.2252 39.2059 14.0965 38.8756 13.8392 38.6269C13.5904 38.3781 13.2387 38.2537 12.7841 38.2537H10.4679V45.9999H8.48633Z" fill="white"/>
</svg>
