<svg width="65" height="63" viewBox="0 0 65 63" fill="none" xmlns="http://www.w3.org/2000/svg">
<path fill-rule="evenodd" clip-rule="evenodd" d="M56.0481 2.14458H30.3132C26.7599 2.14458 23.8794 5.02505 23.8794 8.57831V34.3133C23.8794 37.8665 26.7599 40.747 30.3132 40.747H56.0481C59.6014 40.747 62.4819 37.8665 62.4819 34.3133V8.57831C62.4819 5.02506 59.6014 2.14458 56.0481 2.14458ZM30.3132 0C25.5755 0 21.7349 3.84063 21.7349 8.57831V34.3133C21.7349 39.0509 25.5755 42.8916 30.3132 42.8916H56.0481C60.7858 42.8916 64.6264 39.0509 64.6264 34.3133V8.57831C64.6264 3.84064 60.7858 0 56.0481 0H30.3132Z" fill="#8E8E94"/>
<path d="M35.066 23.8592C34.8033 23.5357 34.3071 23.5435 34.0547 23.8751L29.1328 30.3404C28.8103 30.7639 29.1124 31.3735 29.6447 31.3735H55.829C56.3898 31.3735 56.6821 30.706 56.3018 30.2938L47.409 20.6566C47.1624 20.3894 46.7436 20.3794 46.4846 20.6346L39.1907 27.8204C38.9203 28.0868 38.4791 28.0624 38.2398 27.7676L35.066 23.8592Z" fill="#8E8E94"/>
<path d="M33.5163 15.0747C33.5163 17.3251 35.368 19.1494 37.6522 19.1494C39.9365 19.1494 41.7882 17.3251 41.7882 15.0747C41.7882 12.8243 39.9365 11 37.6522 11C35.368 11 33.5163 12.8243 33.5163 15.0747Z" fill="#8E8E94"/>
<path d="M0.289062 27.8796C0.289062 23.1419 4.1297 19.3013 8.86737 19.3013H34.6023C39.34 19.3013 43.1806 23.1419 43.1806 27.8796V53.6145C43.1806 58.3522 39.34 62.1928 34.6023 62.1928H8.86737C4.1297 62.1928 0.289062 58.3522 0.289062 53.6145V27.8796Z" fill="#FF0D00"/>
<path d="M27.5117 45.4338V36.1692H29.4933V45.4338H27.5117ZM28.4382 41.8437V40.3254H33.7524V41.8437H28.4382ZM28.4382 37.6875V36.1692H34.0484V37.6875H28.4382Z" fill="white"/>
<path d="M19.253 45.4338V43.8897H21.5949C22.264 43.8897 22.8302 43.7567 23.2934 43.4908C23.7652 43.2163 24.1212 42.8431 24.3614 42.3713C24.6102 41.8995 24.7345 41.3591 24.7345 40.75C24.7345 40.1495 24.6144 39.622 24.3743 39.1673C24.1341 38.7127 23.7781 38.3567 23.3063 38.0993C22.843 37.842 22.2726 37.7133 21.5949 37.7133H19.2916V36.1692H21.5949C22.6329 36.1692 23.5379 36.3579 24.3099 36.7354C25.082 37.1042 25.6782 37.6361 26.0985 38.3309C26.5274 39.0172 26.7419 39.8321 26.7419 40.7757C26.7419 41.7194 26.5274 42.5429 26.0985 43.2463C25.6696 43.9411 25.0691 44.4816 24.297 44.8676C23.5336 45.245 22.6371 45.4338 21.6077 45.4338H19.253ZM18.0435 45.4338V36.1692H20.025V45.4338H18.0435Z" fill="white"/>
<path d="M9.65527 45.4338V36.1692H14.0559C14.7422 36.1692 15.3298 36.2893 15.8188 36.5295C16.3163 36.7697 16.6981 37.1042 16.964 37.5331C17.2385 37.9621 17.3758 38.4639 17.3758 39.0386C17.3758 39.6134 17.2385 40.1195 16.964 40.557C16.6895 40.9945 16.3035 41.3376 15.8059 41.5864C15.317 41.8266 14.7336 41.9467 14.0559 41.9467H11.2251V40.4283H13.953C14.4077 40.4283 14.7594 40.3039 15.0081 40.0552C15.2655 39.7978 15.3942 39.4633 15.3942 39.0515C15.3942 38.6397 15.2655 38.3095 15.0081 38.0607C14.7594 37.8119 14.4077 37.6875 13.953 37.6875H11.6369V45.4338H9.65527Z" fill="white"/>
</svg>
