<svg width="65" height="63" viewBox="0 0 65 63" fill="none" xmlns="http://www.w3.org/2000/svg">
<path fill-rule="evenodd" clip-rule="evenodd" d="M56.0481 2.14458H30.3132C26.7599 2.14458 23.8794 5.02505 23.8794 8.57831V34.3133C23.8794 37.8665 26.7599 40.747 30.3132 40.747H56.0481C59.6014 40.747 62.4819 37.8665 62.4819 34.3133V8.57831C62.4819 5.02506 59.6014 2.14458 56.0481 2.14458ZM30.3132 0C25.5755 0 21.7349 3.84063 21.7349 8.57831V34.3133C21.7349 39.0509 25.5755 42.8916 30.3132 42.8916H56.0481C60.7858 42.8916 64.6264 39.0509 64.6264 34.3133V8.57831C64.6264 3.84064 60.7858 0 56.0481 0H30.3132Z" fill="#8E8E94"/>
<path d="M53 13H49.535L47.8312 10.445C47.74 10.3082 47.6164 10.196 47.4714 10.1184C47.3264 10.0408 47.1645 10.0001 47 10H39C38.8355 10.0001 38.6736 10.0408 38.5286 10.1184C38.3836 10.196 38.26 10.3082 38.1687 10.445L36.4637 13H33C32.2044 13 31.4413 13.3161 30.8787 13.8787C30.3161 14.4413 30 15.2044 30 16V30C30 30.7956 30.3161 31.5587 30.8787 32.1213C31.4413 32.6839 32.2044 33 33 33H53C53.7956 33 54.5587 32.6839 55.1213 32.1213C55.6839 31.5587 56 30.7956 56 30V16C56 15.2044 55.6839 14.4413 55.1213 13.8787C54.5587 13.3161 53.7956 13 53 13ZM54 30C54 30.2652 53.8946 30.5196 53.7071 30.7071C53.5196 30.8946 53.2652 31 53 31H33C32.7348 31 32.4804 30.8946 32.2929 30.7071C32.1054 30.5196 32 30.2652 32 30V16C32 15.7348 32.1054 15.4804 32.2929 15.2929C32.4804 15.1054 32.7348 15 33 15H37C37.1647 15.0001 37.3268 14.9595 37.4721 14.8819C37.6173 14.8043 37.7411 14.692 37.8325 14.555L39.535 12H46.4638L48.1675 14.555C48.2589 14.692 48.3827 14.8043 48.5279 14.8819C48.6732 14.9595 48.8353 15.0001 49 15H53C53.2652 15 53.5196 15.1054 53.7071 15.2929C53.8946 15.4804 54 15.7348 54 16V30ZM43 17C41.9122 17 40.8488 17.3226 39.9444 17.9269C39.0399 18.5313 38.3349 19.3902 37.9187 20.3952C37.5024 21.4002 37.3935 22.5061 37.6057 23.573C37.8179 24.6399 38.3417 25.6199 39.1109 26.3891C39.8801 27.1583 40.8601 27.6821 41.927 27.8943C42.9939 28.1065 44.0998 27.9976 45.1048 27.5813C46.1098 27.1651 46.9687 26.4601 47.5731 25.5556C48.1774 24.6512 48.5 23.5878 48.5 22.5C48.4983 21.0418 47.9184 19.6438 46.8873 18.6127C45.8562 17.5816 44.4582 17.0017 43 17ZM43 26C42.3078 26 41.6311 25.7947 41.0555 25.4101C40.4799 25.0256 40.0313 24.4789 39.7664 23.8394C39.5015 23.1999 39.4322 22.4961 39.5673 21.8172C39.7023 21.1382 40.0356 20.5146 40.5251 20.0251C41.0146 19.5356 41.6382 19.2023 42.3172 19.0673C42.9961 18.9322 43.6999 19.0015 44.3394 19.2664C44.9789 19.5313 45.5256 19.9799 45.9101 20.5555C46.2947 21.1311 46.5 21.8078 46.5 22.5C46.5 23.4283 46.1313 24.3185 45.4749 24.9749C44.8185 25.6313 43.9283 26 43 26Z" fill="#8E8E94"/>
<path d="M0.289062 27.8796C0.289062 23.1419 4.1297 19.3013 8.86737 19.3013H34.6023C39.34 19.3013 43.1806 23.1419 43.1806 27.8796V53.6146C43.1806 58.3522 39.34 62.1929 34.6023 62.1929H8.86737C4.1297 62.1929 0.289062 58.3522 0.289062 53.6146V27.8796Z" fill="#FF9500"/>
<path d="M30.7478 45.5625C29.7442 45.5625 28.8821 45.3652 28.1615 44.9706C27.4409 44.576 26.8833 44.0227 26.4887 43.3107C26.1027 42.5987 25.9097 41.7666 25.9097 40.8144C25.9097 39.8708 26.107 39.043 26.5016 38.331C26.8962 37.6104 27.4409 37.0485 28.1357 36.6454C28.8392 36.2422 29.6541 36.0406 30.5806 36.0406C31.344 36.0406 32.026 36.1778 32.6265 36.4523C33.2355 36.7269 33.7245 37.1043 34.0934 37.5847C34.4708 38.0565 34.6939 38.6055 34.7625 39.2317H32.7809C32.6951 38.7256 32.4549 38.331 32.0603 38.0479C31.6743 37.7563 31.1896 37.6104 30.6063 37.6104C30.0659 37.6104 29.5941 37.7391 29.1909 37.9964C28.7877 38.2452 28.4746 38.6055 28.2515 39.0773C28.0285 39.5491 27.917 40.1153 27.917 40.7758C27.917 41.4621 28.0285 42.0497 28.2515 42.5387C28.4746 43.019 28.8006 43.3879 29.2295 43.6453C29.667 43.894 30.2031 44.0184 30.8379 44.0184C31.3526 44.0184 31.7901 43.9541 32.1504 43.8254C32.5107 43.6967 32.7852 43.5166 32.9739 43.285L34.8526 44.0313C34.355 44.5288 33.776 44.9106 33.1155 45.1765C32.4635 45.4338 31.6743 45.5625 30.7478 45.5625ZM32.871 44.0313V41.4835L33.2699 41.8824H30.825V40.3641H34.8526V44.0313H32.871Z" fill="white"/>
<path d="M17.1636 45.4338V36.1693H19.7242L23.8418 44.353L23.2113 44.5074V36.1693H25.1414V45.4338H22.5808L18.4632 37.2501L19.0937 37.0957V45.4338H17.1636Z" fill="white"/>
<path d="M8.77539 45.4338V36.1693H13.1761C13.8623 36.1693 14.4499 36.2893 14.9389 36.5295C15.4365 36.7697 15.8182 37.1043 16.0841 37.5332C16.3586 37.9621 16.4959 38.4639 16.4959 39.0387C16.4959 39.6134 16.3586 40.1196 16.0841 40.5571C15.8096 40.9946 15.4236 41.3377 14.926 41.5865C14.4371 41.8266 13.8538 41.9467 13.1761 41.9467H10.3452V40.4284H13.0731C13.5278 40.4284 13.8795 40.304 14.1283 40.0552C14.3856 39.7979 14.5143 39.4633 14.5143 39.0516C14.5143 38.6398 14.3856 38.3095 14.1283 38.0608C13.8795 37.812 13.5278 37.6876 13.0731 37.6876H10.757V45.4338H8.77539Z" fill="white"/>
</svg>
