<svg width="65" height="63" viewBox="0 0 65 63" fill="none" xmlns="http://www.w3.org/2000/svg">
<path fill-rule="evenodd" clip-rule="evenodd" d="M55.7591 2.14458H30.0241C26.4709 2.14458 23.5904 5.02505 23.5904 8.57831V34.3133C23.5904 37.8665 26.4709 40.747 30.0241 40.747H55.7591C59.3123 40.747 62.1928 37.8665 62.1928 34.3133V8.57831C62.1928 5.02506 59.3123 2.14458 55.7591 2.14458ZM30.0241 0C25.2864 0 21.4458 3.84063 21.4458 8.57831V34.3133C21.4458 39.0509 25.2864 42.8916 30.0241 42.8916H55.7591C60.4967 42.8916 64.3374 39.0509 64.3374 34.3133V8.57831C64.3374 3.84064 60.4967 0 55.7591 0H30.0241Z" fill="#8E8E94"/>
<path d="M42.7109 9C40.3376 9 38.0175 9.70379 36.0441 11.0224C34.0707 12.3409 32.5326 14.2151 31.6244 16.4078C30.7161 18.6005 30.4785 21.0133 30.9415 23.3411C31.4045 25.6689 32.5474 27.807 34.2257 29.4853C35.9039 31.1635 38.0421 32.3064 40.3699 32.7694C42.6976 33.2324 45.1104 32.9948 47.3031 32.0865C49.4959 31.1783 51.37 29.6402 52.6886 27.6668C54.0072 25.6934 54.7109 23.3734 54.7109 21C54.7076 17.8184 53.4422 14.7681 51.1925 12.5184C48.9428 10.2687 45.8925 9.00336 42.7109 9ZM39.6682 25.6154H45.7536C45.134 27.7315 44.0956 29.6388 42.7109 31.1411C41.3263 29.6388 40.2879 27.7315 39.6682 25.6154ZM39.2494 23.7692C38.9433 21.9358 38.9433 20.0642 39.2494 18.2308H46.1725C46.4786 20.0642 46.4786 21.9358 46.1725 23.7692H39.2494ZM32.5571 21C32.5563 20.0636 32.6856 19.1316 32.9413 18.2308H37.379C37.1036 20.0667 37.1036 21.9333 37.379 23.7692H32.9413C32.6856 22.8684 32.5563 21.9364 32.5571 21ZM45.7536 16.3846H39.6682C40.2879 14.2685 41.3263 12.3612 42.7109 10.8588C44.0956 12.3612 45.134 14.2685 45.7536 16.3846ZM48.0429 18.2308H52.4806C52.9929 20.0414 52.9929 21.9586 52.4806 23.7692H48.0429C48.3182 21.9333 48.3182 20.0667 48.0429 18.2308ZM51.7536 16.3846H47.6656C47.1945 14.531 46.4034 12.7738 45.3279 11.1923C46.7019 11.5616 47.9835 12.2143 49.0902 13.1085C50.1968 14.0028 51.1041 15.1187 51.7536 16.3846ZM40.094 11.1923C39.0185 12.7738 38.2274 14.531 37.7563 16.3846H33.6683C34.3178 15.1187 35.2251 14.0028 36.3317 13.1085C37.4384 12.2143 38.72 11.5616 40.094 11.1923ZM33.6683 25.6154H37.7563C38.2274 27.469 39.0185 29.2262 40.094 30.8077C38.72 30.4384 37.4384 29.7857 36.3317 28.8915C35.2251 27.9972 34.3178 26.8813 33.6683 25.6154ZM45.3279 30.8077C46.4034 29.2262 47.1945 27.469 47.6656 25.6154H51.7536C51.1041 26.8813 50.1968 27.9972 49.0902 28.8915C47.9835 29.7857 46.7019 30.4384 45.3279 30.8077Z" fill="#8E8E94"/>
<path d="M0 27.8796C0 23.1419 3.84064 19.3013 8.57831 19.3013H34.3133C39.0509 19.3013 42.8916 23.1419 42.8916 27.8796V53.6145C42.8916 58.3522 39.0509 62.1928 34.3133 62.1928H8.57831C3.84063 62.1928 0 58.3522 0 53.6145V27.8796Z" fill="#FF9500"/>
<path d="M30.4588 46.1286C29.4551 46.1286 28.593 45.9313 27.8724 45.5367C27.1518 45.1421 26.5942 44.5888 26.1996 43.8768C25.8136 43.1648 25.6206 42.3327 25.6206 41.3805C25.6206 40.4369 25.8179 39.6091 26.2125 38.8971C26.6071 38.1765 27.1518 37.6146 27.8467 37.2115C28.5501 36.8083 29.365 36.6067 30.2915 36.6067C31.055 36.6067 31.7369 36.7439 32.3374 37.0184C32.9465 37.293 33.4354 37.6704 33.8043 38.1508C34.1818 38.6226 34.4048 39.1716 34.4734 39.7978H32.4918C32.406 39.2917 32.1659 38.8971 31.7713 38.614C31.3852 38.3224 30.9006 38.1765 30.3172 38.1765C29.7768 38.1765 29.305 38.3052 28.9018 38.5625C28.4986 38.8113 28.1855 39.1716 27.9625 39.6434C27.7394 40.1152 27.6279 40.6814 27.6279 41.3419C27.6279 42.0282 27.7394 42.6158 27.9625 43.1048C28.1855 43.5851 28.5115 43.954 28.9404 44.2114C29.3779 44.4601 29.9141 44.5845 30.5488 44.5845C31.0635 44.5845 31.501 44.5202 31.8613 44.3915C32.2216 44.2628 32.4961 44.0827 32.6848 43.8511L34.5635 44.5974C34.066 45.0949 33.4869 45.4767 32.8264 45.7426C32.1744 45.9999 31.3852 46.1286 30.4588 46.1286ZM32.5819 44.5974V42.0496L32.9808 42.4485H30.536V40.9302H34.5635V44.5974H32.5819Z" fill="white"/>
<path d="M16.8745 45.9999V36.7354H19.4351L23.5527 44.9191L22.9222 45.0735V36.7354H24.8523V45.9999H22.2917L18.1741 37.8162L18.8046 37.6618V45.9999H16.8745Z" fill="white"/>
<path d="M8.48633 45.9999V36.7354H12.887C13.5733 36.7354 14.1609 36.8554 14.6498 37.0956C15.1474 37.3358 15.5291 37.6704 15.7951 38.0993C16.0696 38.5282 16.2068 39.03 16.2068 39.6048C16.2068 40.1795 16.0696 40.6857 15.7951 41.1232C15.5205 41.5607 15.1345 41.9038 14.637 42.1526C14.148 42.3927 13.5647 42.5128 12.887 42.5128H10.0562V40.9945H12.7841C13.2387 40.9945 13.5904 40.8701 13.8392 40.6213C14.0965 40.364 14.2252 40.0294 14.2252 39.6177C14.2252 39.2059 14.0965 38.8756 13.8392 38.6269C13.5904 38.3781 13.2387 38.2537 12.7841 38.2537H10.4679V45.9999H8.48633Z" fill="white"/>
</svg>
