<svg width="65" height="63" viewBox="0 0 65 63" fill="none" xmlns="http://www.w3.org/2000/svg">
<path fill-rule="evenodd" clip-rule="evenodd" d="M56.0481 2.14458H30.3132C26.7599 2.14458 23.8794 5.02505 23.8794 8.57831V34.3133C23.8794 37.8665 26.7599 40.747 30.3132 40.747H56.0481C59.6014 40.747 62.4819 37.8665 62.4819 34.3133V8.57831C62.4819 5.02506 59.6014 2.14458 56.0481 2.14458ZM30.3132 0C25.5755 0 21.7349 3.84063 21.7349 8.57831V34.3133C21.7349 39.0509 25.5755 42.8916 30.3132 42.8916H56.0481C60.7858 42.8916 64.6264 39.0509 64.6264 34.3133V8.57831C64.6264 3.84064 60.7858 0 56.0481 0H30.3132Z" fill="#8E8E94"/>
<path d="M32.2749 36C31.8958 36 31.5383 35.8834 31.2242 35.6503C30.0977 34.8236 29.946 33.9016 30.011 33.2763C30.206 31.5488 32.3832 29.7472 36.4993 27.9031C38.1241 24.4058 39.6731 20.103 40.6046 16.5102C39.5214 14.2104 38.4707 11.2218 39.2398 9.47313C39.5106 8.85844 39.8464 8.39213 40.4638 8.18017C40.7129 8.09538 41.3304 8 41.5687 8C42.1103 8 42.5977 8.68887 42.9335 9.11279C43.2584 9.51552 43.9733 10.3528 42.5327 16.3195C43.995 19.2657 46.0639 22.2755 48.0461 24.3316C49.4651 24.0772 50.6891 23.95 51.6856 23.95C53.3862 23.95 54.4044 24.3316 54.8269 25.137C55.1735 25.7941 55.0327 26.5678 54.4044 27.4262C53.7979 28.2528 52.9638 28.6874 51.9998 28.6874C50.6783 28.6874 49.151 27.8713 47.4395 26.271C44.3633 26.8963 40.7779 28.0197 37.875 29.2597C36.9651 31.1355 36.0986 32.651 35.297 33.7638C34.1813 35.2793 33.2281 36 32.2857 36H32.2749ZM35.1562 30.5632C32.8382 31.835 31.8958 32.8842 31.8308 33.4671C31.82 33.5625 31.7875 33.8168 32.2966 34.1983C32.459 34.1453 33.4014 33.732 35.1562 30.5526V30.5632ZM49.9309 25.8577C50.8083 26.5254 51.0249 26.8539 51.6098 26.8539C51.859 26.8539 52.5847 26.8433 52.9205 26.3876C53.083 26.165 53.1479 26.0273 53.1696 25.9425C53.0396 25.8683 52.8555 25.7305 51.9023 25.7305C51.3498 25.7305 50.6674 25.7517 49.9417 25.8471L49.9309 25.8577ZM41.8395 18.8842C41.0596 21.5019 40.0414 24.3422 38.9473 26.8963C41.2112 26.0379 43.67 25.2854 45.9881 24.7555C44.5258 23.0916 43.0635 21.0144 41.8503 18.8842H41.8395ZM41.1787 9.91824C41.0704 9.95004 39.7381 11.7835 41.287 13.3308C42.3161 11.0946 41.2329 9.90765 41.1787 9.91824Z" fill="#8E8E94"/>
<path d="M0.289062 27.8796C0.289062 23.1419 4.1297 19.3013 8.86737 19.3013H34.6023C39.34 19.3013 43.1806 23.1419 43.1806 27.8796V53.6145C43.1806 58.3522 39.34 62.1928 34.6023 62.1928H8.86737C4.1297 62.1928 0.289062 58.3522 0.289062 53.6145V27.8796Z" fill="#FF9500"/>
<path d="M30.7478 46.1286C29.7442 46.1286 28.8821 45.9313 28.1615 45.5367C27.4409 45.1421 26.8833 44.5888 26.4887 43.8768C26.1027 43.1648 25.9097 42.3327 25.9097 41.3805C25.9097 40.4369 26.107 39.6091 26.5016 38.8971C26.8962 38.1765 27.4409 37.6146 28.1357 37.2115C28.8392 36.8083 29.6541 36.6067 30.5806 36.6067C31.344 36.6067 32.026 36.7439 32.6265 37.0184C33.2355 37.293 33.7245 37.6704 34.0934 38.1508C34.4708 38.6226 34.6939 39.1716 34.7625 39.7978H32.7809C32.6951 39.2917 32.4549 38.8971 32.0603 38.614C31.6743 38.3224 31.1896 38.1765 30.6063 38.1765C30.0659 38.1765 29.5941 38.3052 29.1909 38.5625C28.7877 38.8113 28.4746 39.1716 28.2515 39.6434C28.0285 40.1152 27.917 40.6814 27.917 41.3419C27.917 42.0282 28.0285 42.6158 28.2515 43.1048C28.4746 43.5851 28.8006 43.954 29.2295 44.2114C29.667 44.4601 30.2031 44.5845 30.8379 44.5845C31.3526 44.5845 31.7901 44.5202 32.1504 44.3915C32.5107 44.2628 32.7852 44.0827 32.9739 43.8511L34.8526 44.5974C34.355 45.0949 33.776 45.4767 33.1155 45.7426C32.4635 45.9999 31.6743 46.1286 30.7478 46.1286ZM32.871 44.5974V42.0496L33.2699 42.4485H30.825V40.9302H34.8526V44.5974H32.871Z" fill="white"/>
<path d="M17.1636 45.9999V36.7354H19.7242L23.8418 44.9191L23.2113 45.0735V36.7354H25.1414V45.9999H22.5808L18.4632 37.8162L19.0937 37.6618V45.9999H17.1636Z" fill="white"/>
<path d="M8.77539 45.9999V36.7354H13.1761C13.8623 36.7354 14.4499 36.8554 14.9389 37.0956C15.4365 37.3358 15.8182 37.6704 16.0841 38.0993C16.3586 38.5282 16.4959 39.03 16.4959 39.6048C16.4959 40.1795 16.3586 40.6857 16.0841 41.1232C15.8096 41.5607 15.4236 41.9038 14.926 42.1526C14.4371 42.3927 13.8538 42.5128 13.1761 42.5128H10.3452V40.9945H13.0731C13.5278 40.9945 13.8795 40.8701 14.1283 40.6213C14.3856 40.364 14.5143 40.0294 14.5143 39.6177C14.5143 39.2059 14.3856 38.8756 14.1283 38.6269C13.8795 38.3781 13.5278 38.2537 13.0731 38.2537H10.757V45.9999H8.77539Z" fill="white"/>
</svg>
