<svg width="65" height="63" viewBox="0 0 65 63" fill="none" xmlns="http://www.w3.org/2000/svg">
<rect x="22.5181" y="1.07229" width="40.747" height="40.747" rx="7.50602" stroke="#8E8E94" stroke-width="2.14458"/>
<path d="M31.9875 37C31.6084 37 31.251 36.8834 30.9368 36.6503C29.8103 35.8236 29.6587 34.9016 29.7237 34.2763C29.9186 32.5488 32.0959 30.7472 36.212 28.9031C37.8368 25.4058 39.3857 21.103 40.3173 17.5102C39.2341 15.2104 38.1834 12.2218 38.9524 10.4731C39.2232 9.85844 39.559 9.39213 40.1764 9.18017C40.4256 9.09538 41.043 9 41.2813 9C41.8229 9 42.3103 9.68887 42.6461 10.1128C42.9711 10.5155 43.686 11.3528 42.2453 17.3195C43.7076 20.2657 45.7765 23.2755 47.7588 25.3316C49.1777 25.0772 50.4018 24.95 51.3983 24.95C53.0989 24.95 54.1171 25.3316 54.5395 26.137C54.8862 26.7941 54.7453 27.5678 54.1171 28.4262C53.5105 29.2528 52.6764 29.6874 51.7124 29.6874C50.3909 29.6874 48.8636 28.8713 47.1522 27.271C44.0759 27.8963 40.4906 29.0197 37.5876 30.2596C36.6777 32.1355 35.8112 33.651 35.0096 34.7638C33.894 36.2793 32.9407 37 31.9984 37H31.9875ZM34.8688 31.5632C32.5508 32.835 31.6084 33.8842 31.5434 34.4671C31.5326 34.5625 31.5001 34.8168 32.0092 35.1983C32.1717 35.1453 33.1141 34.732 34.8688 31.5526V31.5632ZM49.6435 26.8577C50.5209 27.5254 50.7375 27.8539 51.3225 27.8539C51.5716 27.8539 52.2973 27.8433 52.6331 27.3876C52.7956 27.165 52.8606 27.0273 52.8823 26.9425C52.7523 26.8683 52.5681 26.7305 51.6149 26.7305C51.0625 26.7305 50.3801 26.7517 49.6544 26.8471L49.6435 26.8577ZM41.5521 19.8842C40.7722 22.5019 39.754 25.3422 38.66 27.8963C40.9239 27.0378 43.3827 26.2854 45.7007 25.7555C44.2384 24.0916 42.7761 22.0144 41.5629 19.8842H41.5521ZM40.8914 10.9182C40.783 10.95 39.4507 12.7835 40.9997 14.3308C42.0287 12.0946 40.9455 10.9076 40.8914 10.9182Z" fill="#8E8E94"/>
<rect y="19.3013" width="42.8916" height="42.8916" rx="8.57831" fill="#FF9500"/>
<path d="M30.4588 45.5625C29.4551 45.5625 28.593 45.3652 27.8724 44.9706C27.1518 44.5759 26.5942 44.0226 26.1996 43.3106C25.8136 42.5986 25.6206 41.7666 25.6206 40.8144C25.6206 39.8707 25.8179 39.0429 26.2125 38.3309C26.6071 37.6104 27.1518 37.0485 27.8467 36.6453C28.5501 36.2421 29.365 36.0405 30.2915 36.0405C31.055 36.0405 31.7369 36.1778 32.3374 36.4523C32.9465 36.7268 33.4354 37.1042 33.8043 37.5846C34.1818 38.0564 34.4048 38.6054 34.4734 39.2317H32.4918C32.406 38.7255 32.1659 38.3309 31.7713 38.0479C31.3852 37.7562 30.9006 37.6104 30.3172 37.6104C29.7768 37.6104 29.305 37.739 28.9018 37.9964C28.4986 38.2452 28.1855 38.6054 27.9625 39.0773C27.7394 39.5491 27.6279 40.1152 27.6279 40.7758C27.6279 41.462 27.7394 42.0496 27.9625 42.5386C28.1855 43.019 28.5115 43.3879 28.9404 43.6452C29.3779 43.894 29.9141 44.0184 30.5488 44.0184C31.0635 44.0184 31.501 43.954 31.8613 43.8253C32.2216 43.6967 32.4961 43.5165 32.6848 43.2849L34.5635 44.0312C34.066 44.5288 33.4869 44.9105 32.8264 45.1764C32.1744 45.4338 31.3852 45.5625 30.4588 45.5625ZM32.5819 44.0312V41.4835L32.9808 41.8824H30.536V40.364H34.5635V44.0312H32.5819Z" fill="white"/>
<path d="M16.8745 45.4338V36.1692H19.4351L23.5527 44.3529L22.9222 44.5073V36.1692H24.8523V45.4338H22.2917L18.1741 37.2501L18.8046 37.0956V45.4338H16.8745Z" fill="white"/>
<path d="M8.48633 45.4338V36.1692H12.887C13.5733 36.1692 14.1609 36.2893 14.6498 36.5295C15.1474 36.7697 15.5291 37.1042 15.7951 37.5331C16.0696 37.9621 16.2068 38.4639 16.2068 39.0386C16.2068 39.6134 16.0696 40.1195 15.7951 40.557C15.5205 40.9945 15.1345 41.3376 14.637 41.5864C14.148 41.8266 13.5647 41.9467 12.887 41.9467H10.0562V40.4283H12.7841C13.2387 40.4283 13.5904 40.3039 13.8392 40.0552C14.0965 39.7978 14.2252 39.4633 14.2252 39.0515C14.2252 38.6397 14.0965 38.3095 13.8392 38.0607C13.5904 37.8119 13.2387 37.6875 12.7841 37.6875H10.4679V45.4338H8.48633Z" fill="white"/>
</svg>
