<svg width="65" height="63" viewBox="0 0 65 63" fill="none" xmlns="http://www.w3.org/2000/svg">
<rect x="22.5181" y="1.07229" width="40.747" height="40.747" rx="7.50602" stroke="#8E8E94" stroke-width="2.14458"/>
<path d="M31.9875 37C31.6084 37 31.251 36.8834 30.9368 36.6503C29.8103 35.8236 29.6587 34.9016 29.7237 34.2763C29.9186 32.5488 32.0959 30.7472 36.212 28.9031C37.8368 25.4058 39.3857 21.103 40.3173 17.5102C39.2341 15.2104 38.1834 12.2218 38.9524 10.4731C39.2232 9.85844 39.559 9.39213 40.1764 9.18017C40.4256 9.09538 41.043 9 41.2813 9C41.8229 9 42.3103 9.68887 42.6461 10.1128C42.9711 10.5155 43.686 11.3528 42.2453 17.3195C43.7076 20.2657 45.7765 23.2755 47.7588 25.3316C49.1777 25.0772 50.4018 24.95 51.3983 24.95C53.0989 24.95 54.1171 25.3316 54.5395 26.137C54.8862 26.7941 54.7453 27.5678 54.1171 28.4262C53.5105 29.2528 52.6764 29.6874 51.7124 29.6874C50.3909 29.6874 48.8636 28.8713 47.1522 27.271C44.0759 27.8963 40.4906 29.0197 37.5876 30.2596C36.6777 32.1355 35.8112 33.651 35.0096 34.7638C33.894 36.2793 32.9407 37 31.9984 37H31.9875ZM34.8688 31.5632C32.5508 32.835 31.6084 33.8842 31.5434 34.4671C31.5326 34.5625 31.5001 34.8168 32.0092 35.1983C32.1717 35.1453 33.1141 34.732 34.8688 31.5526V31.5632ZM49.6435 26.8577C50.5209 27.5254 50.7375 27.8539 51.3225 27.8539C51.5716 27.8539 52.2973 27.8433 52.6331 27.3876C52.7956 27.165 52.8606 27.0273 52.8823 26.9425C52.7523 26.8683 52.5681 26.7305 51.6149 26.7305C51.0625 26.7305 50.3801 26.7517 49.6544 26.8471L49.6435 26.8577ZM41.5521 19.8842C40.7722 22.5019 39.754 25.3422 38.66 27.8963C40.9239 27.0378 43.3827 26.2854 45.7007 25.7555C44.2384 24.0916 42.7761 22.0144 41.5629 19.8842H41.5521ZM40.8914 10.9182C40.783 10.95 39.4507 12.7835 40.9997 14.3308C42.0287 12.0946 40.9455 10.9076 40.8914 10.9182Z" fill="#8E8E94"/>
<rect y="19.3013" width="42.8916" height="42.8916" rx="8.57831" fill="#FF244C"/>
<path d="M35.9926 45.4338L33.432 41.3805L29.8548 36.1692H32.171L34.5772 39.9908L38.3088 45.4338H35.9926ZM33.7151 39.978L36.2114 36.1692H38.3088L34.3713 41.6379L33.7151 39.978ZM34.1654 41.6893L31.7077 45.4338H29.6104L33.5092 40.0294L34.1654 41.6893Z" fill="white"/>
<path d="M24.3608 45.4338V37.6875H21.3369V36.1692H29.3662V37.6875H26.3424V45.4338H24.3608Z" fill="white"/>
<path d="M13.3589 45.4338V36.1692H17.7596C18.4458 36.1692 19.0334 36.2893 19.5224 36.5295C20.0199 36.7697 20.4017 37.1042 20.6676 37.5331C20.9421 37.9621 21.0794 38.4639 21.0794 39.0386C21.0794 39.6134 20.9421 40.1195 20.6676 40.557C20.3931 40.9945 20.0071 41.3376 19.5095 41.5864C19.0206 41.8266 18.4372 41.9467 17.7596 41.9467H14.9287V40.4283H17.6566C18.1113 40.4283 18.463 40.3039 18.7118 40.0552C18.9691 39.7978 19.0978 39.4633 19.0978 39.0515C19.0978 38.6397 18.9691 38.3095 18.7118 38.0607C18.463 37.8119 18.1113 37.6875 17.6566 37.6875H15.3405V45.4338H13.3589Z" fill="white"/>
<path d="M4.9707 45.4338V36.1692H9.37138C10.0576 36.1692 10.6453 36.2893 11.1342 36.5295C11.6318 36.7697 12.0135 37.1042 12.2794 37.5331C12.5539 37.9621 12.6912 38.4639 12.6912 39.0386C12.6912 39.6134 12.5539 40.1195 12.2794 40.557C12.0049 40.9945 11.6189 41.3376 11.1214 41.5864C10.6324 41.8266 10.0491 41.9467 9.37138 41.9467H6.54053V40.4283H9.26844C9.72309 40.4283 10.0748 40.3039 10.3236 40.0552C10.5809 39.7978 10.7096 39.4633 10.7096 39.0515C10.7096 38.6397 10.5809 38.3095 10.3236 38.0607C10.0748 37.8119 9.72309 37.6875 9.26844 37.6875H6.95229V45.4338H4.9707Z" fill="white"/>
</svg>
