<svg width="65" height="63" viewBox="0 0 65 63" fill="none" xmlns="http://www.w3.org/2000/svg">
<path fill-rule="evenodd" clip-rule="evenodd" d="M56.0481 2.14458H30.3132C26.7599 2.14458 23.8794 5.02505 23.8794 8.57831V34.3133C23.8794 37.8665 26.7599 40.747 30.3132 40.747H56.0481C59.6014 40.747 62.4819 37.8665 62.4819 34.3133V8.57831C62.4819 5.02506 59.6014 2.14458 56.0481 2.14458ZM30.3132 0C25.5755 0 21.7349 3.84063 21.7349 8.57831V34.3133C21.7349 39.0509 25.5755 42.8916 30.3132 42.8916H56.0481C60.7858 42.8916 64.6264 39.0509 64.6264 34.3133V8.57831C64.6264 3.84064 60.7858 0 56.0481 0H30.3132Z" fill="#8E8E94"/>
<g clip-path="url(#clip0_9045_22961)">
<path d="M32.2749 36C31.8958 36 31.5383 35.8834 31.2242 35.6503C30.0977 34.8236 29.946 33.9016 30.011 33.2763C30.206 31.5488 32.3832 29.7472 36.4993 27.9031C38.1241 24.4058 39.6731 20.103 40.6046 16.5102C39.5214 14.2104 38.4707 11.2218 39.2398 9.47313C39.5106 8.85844 39.8464 8.39213 40.4638 8.18017C40.7129 8.09538 41.3304 8 41.5687 8C42.1103 8 42.5977 8.68887 42.9335 9.11279C43.2584 9.51552 43.9733 10.3528 42.5327 16.3195C43.995 19.2657 46.0639 22.2755 48.0461 24.3316C49.4651 24.0772 50.6891 23.95 51.6856 23.95C53.3862 23.95 54.4044 24.3316 54.8269 25.137C55.1735 25.7941 55.0327 26.5678 54.4044 27.4262C53.7979 28.2528 52.9638 28.6874 51.9998 28.6874C50.6783 28.6874 49.151 27.8713 47.4395 26.271C44.3633 26.8963 40.7779 28.0197 37.875 29.2597C36.9651 31.1355 36.0986 32.651 35.297 33.7638C34.1813 35.2793 33.2281 36 32.2857 36H32.2749ZM35.1562 30.5632C32.8382 31.835 31.8958 32.8842 31.8308 33.4671C31.82 33.5625 31.7875 33.8168 32.2966 34.1983C32.459 34.1453 33.4014 33.732 35.1562 30.5526V30.5632ZM49.9309 25.8577C50.8083 26.5254 51.0249 26.8539 51.6098 26.8539C51.859 26.8539 52.5847 26.8433 52.9205 26.3876C53.083 26.165 53.1479 26.0273 53.1696 25.9425C53.0396 25.8683 52.8555 25.7305 51.9023 25.7305C51.3498 25.7305 50.6674 25.7517 49.9417 25.8471L49.9309 25.8577ZM41.8395 18.8842C41.0596 21.5019 40.0414 24.3422 38.9473 26.8963C41.2112 26.0379 43.67 25.2854 45.9881 24.7555C44.5258 23.0916 43.0635 21.0144 41.8503 18.8842H41.8395ZM41.1787 9.91824C41.0704 9.95004 39.7381 11.7835 41.287 13.3308C42.3161 11.0946 41.2329 9.90765 41.1787 9.91824Z" fill="#8E8E94"/>
</g>
<path d="M0.289062 27.8796C0.289062 23.1419 4.1297 19.3013 8.86737 19.3013H34.6023C39.34 19.3013 43.1806 23.1419 43.1806 27.8796V53.6145C43.1806 58.3522 39.34 62.1928 34.6023 62.1928H8.86737C4.1297 62.1928 0.289062 58.3522 0.289062 53.6145V27.8796Z" fill="#FF244C"/>
<path d="M29.0951 45.4338V37.6875H26.0713V36.1692H34.1006V37.6875H31.0767V45.4338H29.0951Z" fill="white"/>
<path d="M18.0933 45.4338V36.1692H22.4939C23.1802 36.1692 23.7678 36.2893 24.2568 36.5295C24.7543 36.7697 25.1361 37.1042 25.402 37.5331C25.6765 37.9621 25.8137 38.4639 25.8137 39.0386C25.8137 39.6134 25.6765 40.1195 25.402 40.557C25.1275 40.9945 24.7415 41.3376 24.2439 41.5864C23.7549 41.8266 23.1716 41.9467 22.4939 41.9467H19.6631V40.4283H22.391C22.8456 40.4283 23.1974 40.3039 23.4461 40.0552C23.7035 39.7978 23.8322 39.4633 23.8322 39.0515C23.8322 38.6397 23.7035 38.3095 23.4461 38.0607C23.1974 37.8119 22.8456 37.6875 22.391 37.6875H20.0749V45.4338H18.0933Z" fill="white"/>
<path d="M9.70532 45.4338V36.1692H14.106C14.7923 36.1692 15.3799 36.2893 15.8688 36.5295C16.3664 36.7697 16.7481 37.1042 17.014 37.5331C17.2886 37.9621 17.4258 38.4639 17.4258 39.0386C17.4258 39.6134 17.2886 40.1195 17.014 40.557C16.7395 40.9945 16.3535 41.3376 15.856 41.5864C15.367 41.8266 14.7837 41.9467 14.106 41.9467H11.2752V40.4283H14.0031C14.4577 40.4283 14.8094 40.3039 15.0582 40.0552C15.3155 39.7978 15.4442 39.4633 15.4442 39.0515C15.4442 38.6397 15.3155 38.3095 15.0582 38.0607C14.8094 37.8119 14.4577 37.6875 14.0031 37.6875H11.6869V45.4338H9.70532Z" fill="white"/>
<defs>
<clipPath id="clip0_9045_22961">
<rect width="25" height="28" fill="white" transform="translate(30 8)"/>
</clipPath>
</defs>
</svg>
