<svg width="65" height="63" viewBox="0 0 65 63" fill="none" xmlns="http://www.w3.org/2000/svg">
<path fill-rule="evenodd" clip-rule="evenodd" d="M56.0481 2.14458H30.3132C26.7599 2.14458 23.8794 5.02505 23.8794 8.57831V34.3133C23.8794 37.8665 26.7599 40.747 30.3132 40.747H56.0481C59.6014 40.747 62.4819 37.8665 62.4819 34.3133V8.57831C62.4819 5.02506 59.6014 2.14458 56.0481 2.14458ZM30.3132 0C25.5755 0 21.7349 3.84063 21.7349 8.57831V34.3133C21.7349 39.0509 25.5755 42.8916 30.3132 42.8916H56.0481C60.7858 42.8916 64.6264 39.0509 64.6264 34.3133V8.57831C64.6264 3.84064 60.7858 0 56.0481 0H30.3132Z" fill="#8E8E94"/>
<path d="M43 9C40.6266 9 38.3066 9.70379 36.3332 11.0224C34.3598 12.3409 32.8217 14.2151 31.9135 16.4078C31.0052 18.6005 30.7676 21.0133 31.2306 23.3411C31.6936 25.6689 32.8365 27.807 34.5147 29.4853C36.193 31.1635 38.3311 32.3064 40.6589 32.7694C42.9867 33.2324 45.3995 32.9948 47.5922 32.0865C49.7849 31.1783 51.6591 29.6402 52.9776 27.6668C54.2962 25.6934 55 23.3734 55 21C54.9966 17.8184 53.7313 14.7681 51.4816 12.5184C49.2319 10.2687 46.1816 9.00336 43 9ZM39.9573 25.6154H46.0427C45.4231 27.7315 44.3846 29.6388 43 31.1411C41.6154 29.6388 40.5769 27.7315 39.9573 25.6154ZM39.5385 23.7692C39.2323 21.9358 39.2323 20.0642 39.5385 18.2308H46.4615C46.7677 20.0642 46.7677 21.9358 46.4615 23.7692H39.5385ZM32.8462 21C32.8454 20.0636 32.9747 19.1316 33.2304 18.2308H37.6681C37.3927 20.0667 37.3927 21.9333 37.6681 23.7692H33.2304C32.9747 22.8684 32.8454 21.9364 32.8462 21ZM46.0427 16.3846H39.9573C40.5769 14.2685 41.6154 12.3612 43 10.8588C44.3846 12.3612 45.4231 14.2685 46.0427 16.3846ZM48.3319 18.2308H52.7696C53.2819 20.0414 53.2819 21.9586 52.7696 23.7692H48.3319C48.6073 21.9333 48.6073 20.0667 48.3319 18.2308ZM52.0427 16.3846H47.9546C47.4835 14.531 46.6924 12.7738 45.6169 11.1923C46.991 11.5616 48.2726 12.2143 49.3792 13.1085C50.4859 14.0028 51.3932 15.1187 52.0427 16.3846ZM40.3831 11.1923C39.3076 12.7738 38.5165 14.531 38.0454 16.3846H33.9573C34.6068 15.1187 35.5141 14.0028 36.6208 13.1085C37.7275 12.2143 39.009 11.5616 40.3831 11.1923ZM33.9573 25.6154H38.0454C38.5165 27.469 39.3076 29.2262 40.3831 30.8077C39.009 30.4384 37.7275 29.7857 36.6208 28.8915C35.5141 27.9972 34.6068 26.8813 33.9573 25.6154ZM45.6169 30.8077C46.6924 29.2262 47.4835 27.469 47.9546 25.6154H52.0427C51.3932 26.8813 50.4859 27.9972 49.3792 28.8915C48.2726 29.7857 46.991 30.4384 45.6169 30.8077Z" fill="#8E8E94"/>
<path d="M0.289062 27.8796C0.289062 23.1419 4.1297 19.3013 8.86737 19.3013H34.6023C39.34 19.3013 43.1806 23.1419 43.1806 27.8796V53.6145C43.1806 58.3522 39.34 62.1928 34.6023 62.1928H8.86737C4.1297 62.1928 0.289062 58.3522 0.289062 53.6145V27.8796Z" fill="#FF9500"/>
<path d="M30.7478 45.5625C29.7442 45.5625 28.8821 45.3652 28.1615 44.9706C27.4409 44.5759 26.8833 44.0226 26.4887 43.3106C26.1027 42.5986 25.9097 41.7666 25.9097 40.8144C25.9097 39.8707 26.107 39.0429 26.5016 38.3309C26.8962 37.6104 27.4409 37.0485 28.1357 36.6453C28.8392 36.2421 29.6541 36.0405 30.5806 36.0405C31.344 36.0405 32.026 36.1778 32.6265 36.4523C33.2355 36.7268 33.7245 37.1042 34.0934 37.5846C34.4708 38.0564 34.6939 38.6054 34.7625 39.2317H32.7809C32.6951 38.7255 32.4549 38.3309 32.0603 38.0479C31.6743 37.7562 31.1896 37.6104 30.6063 37.6104C30.0659 37.6104 29.5941 37.739 29.1909 37.9964C28.7877 38.2452 28.4746 38.6054 28.2515 39.0773C28.0285 39.5491 27.917 40.1152 27.917 40.7758C27.917 41.462 28.0285 42.0496 28.2515 42.5386C28.4746 43.019 28.8006 43.3879 29.2295 43.6452C29.667 43.894 30.2031 44.0184 30.8379 44.0184C31.3526 44.0184 31.7901 43.954 32.1504 43.8253C32.5107 43.6967 32.7852 43.5165 32.9739 43.2849L34.8526 44.0312C34.355 44.5288 33.776 44.9105 33.1155 45.1764C32.4635 45.4338 31.6743 45.5625 30.7478 45.5625ZM32.871 44.0312V41.4835L33.2699 41.8824H30.825V40.364H34.8526V44.0312H32.871Z" fill="white"/>
<path d="M17.1636 45.4338V36.1692H19.7242L23.8418 44.3529L23.2113 44.5073V36.1692H25.1414V45.4338H22.5808L18.4632 37.2501L19.0937 37.0956V45.4338H17.1636Z" fill="white"/>
<path d="M8.77539 45.4338V36.1692H13.1761C13.8623 36.1692 14.4499 36.2893 14.9389 36.5295C15.4365 36.7697 15.8182 37.1042 16.0841 37.5331C16.3586 37.9621 16.4959 38.4639 16.4959 39.0386C16.4959 39.6134 16.3586 40.1195 16.0841 40.557C15.8096 40.9945 15.4236 41.3376 14.926 41.5864C14.4371 41.8266 13.8538 41.9467 13.1761 41.9467H10.3452V40.4283H13.0731C13.5278 40.4283 13.8795 40.3039 14.1283 40.0552C14.3856 39.7978 14.5143 39.4633 14.5143 39.0515C14.5143 38.6397 14.3856 38.3095 14.1283 38.0607C13.8795 37.8119 13.5278 37.6875 13.0731 37.6875H10.757V45.4338H8.77539Z" fill="white"/>
</svg>
