<svg width="65" height="63" viewBox="0 0 65 63" fill="none" xmlns="http://www.w3.org/2000/svg">
<rect x="22.8072" y="1.07229" width="40.747" height="40.747" rx="7.50602" stroke="#8E8E94" stroke-width="2.14458"/>
<path d="M43 9C40.6266 9 38.3066 9.70379 36.3332 11.0224C34.3598 12.3409 32.8217 14.2151 31.9135 16.4078C31.0052 18.6005 30.7676 21.0133 31.2306 23.3411C31.6936 25.6689 32.8365 27.807 34.5147 29.4853C36.193 31.1635 38.3311 32.3064 40.6589 32.7694C42.9867 33.2324 45.3995 32.9948 47.5922 32.0865C49.7849 31.1783 51.6591 29.6402 52.9776 27.6668C54.2962 25.6934 55 23.3734 55 21C54.9966 17.8184 53.7313 14.7681 51.4816 12.5184C49.2319 10.2687 46.1816 9.00336 43 9ZM39.9573 25.6154H46.0427C45.4231 27.7315 44.3846 29.6388 43 31.1411C41.6154 29.6388 40.5769 27.7315 39.9573 25.6154ZM39.5385 23.7692C39.2323 21.9358 39.2323 20.0642 39.5385 18.2308H46.4615C46.7677 20.0642 46.7677 21.9358 46.4615 23.7692H39.5385ZM32.8462 21C32.8454 20.0636 32.9747 19.1316 33.2304 18.2308H37.6681C37.3927 20.0667 37.3927 21.9333 37.6681 23.7692H33.2304C32.9747 22.8684 32.8454 21.9364 32.8462 21ZM46.0427 16.3846H39.9573C40.5769 14.2685 41.6154 12.3612 43 10.8588C44.3846 12.3612 45.4231 14.2685 46.0427 16.3846ZM48.3319 18.2308H52.7696C53.2819 20.0414 53.2819 21.9586 52.7696 23.7692H48.3319C48.6073 21.9333 48.6073 20.0667 48.3319 18.2308ZM52.0427 16.3846H47.9546C47.4835 14.531 46.6924 12.7738 45.6169 11.1923C46.991 11.5616 48.2726 12.2143 49.3792 13.1085C50.4859 14.0028 51.3932 15.1187 52.0427 16.3846ZM40.3831 11.1923C39.3076 12.7738 38.5165 14.531 38.0454 16.3846H33.9573C34.6068 15.1187 35.5141 14.0028 36.6208 13.1085C37.7275 12.2143 39.009 11.5616 40.3831 11.1923ZM33.9573 25.6154H38.0454C38.5165 27.469 39.3076 29.2262 40.3831 30.8077C39.009 30.4384 37.7275 29.7857 36.6208 28.8915C35.5141 27.9972 34.6068 26.8813 33.9573 25.6154ZM45.6169 30.8077C46.6924 29.2262 47.4835 27.469 47.9546 25.6154H52.0427C51.3932 26.8813 50.4859 27.9972 49.3792 28.8915C48.2726 29.7857 46.991 30.4384 45.6169 30.8077Z" fill="#8E8E94"/>
<rect x="0.289062" y="19.3013" width="42.8916" height="42.8916" rx="8.57831" fill="#E6B800"/>
<path d="M28.7503 45.5625C27.7466 45.5625 26.8845 45.3652 26.1639 44.9706C25.4433 44.5759 24.8857 44.0226 24.4911 43.3106C24.1051 42.5986 23.9121 41.7666 23.9121 40.8144C23.9121 39.8707 24.1094 39.0429 24.504 38.3309C24.8986 37.6104 25.4433 37.0485 26.1382 36.6453C26.8416 36.2421 27.6565 36.0405 28.583 36.0405C29.3465 36.0405 30.0284 36.1778 30.6289 36.4523C31.238 36.7268 31.727 37.1042 32.0958 37.5846C32.4733 38.0564 32.6963 38.6054 32.7649 39.2317H30.7833C30.6976 38.7255 30.4574 38.3309 30.0628 38.0479C29.6767 37.7562 29.1921 37.6104 28.6087 37.6104C28.0683 37.6104 27.5965 37.739 27.1933 37.9964C26.7901 38.2452 26.477 38.6054 26.254 39.0773C26.031 39.5491 25.9194 40.1152 25.9194 40.7758C25.9194 41.462 26.031 42.0496 26.254 42.5386C26.477 43.019 26.803 43.3879 27.2319 43.6452C27.6694 43.894 28.2056 44.0184 28.8404 44.0184C29.3551 44.0184 29.7925 43.954 30.1528 43.8253C30.5131 43.6967 30.7876 43.5165 30.9763 43.2849L32.855 44.0312C32.3575 44.5288 31.7784 44.9105 31.1179 45.1764C30.4659 45.4338 29.6767 45.5625 28.7503 45.5625ZM30.8734 44.0312V41.4835L31.2723 41.8824H28.8275V40.364H32.855V44.0312H30.8734Z" fill="white"/>
<path d="M15.8315 45.4338V36.1692H20.2322C20.9185 36.1692 21.5061 36.2893 21.9951 36.5295C22.4926 36.7697 22.8743 37.1042 23.1403 37.5331C23.4148 37.9621 23.552 38.4639 23.552 39.0386C23.552 39.6134 23.4148 40.1195 23.1403 40.557C22.8658 40.9945 22.4797 41.3376 21.9822 41.5864C21.4932 41.8266 20.9099 41.9467 20.2322 41.9467H17.4014V40.4283H20.1293C20.5839 40.4283 20.9356 40.3039 21.1844 40.0552C21.4418 39.7978 21.5704 39.4633 21.5704 39.0515C21.5704 38.6397 21.4418 38.3095 21.1844 38.0607C20.9356 37.8119 20.5839 37.6875 20.1293 37.6875H17.8131V45.4338H15.8315Z" fill="white"/>
<path d="M11.8544 45.5624C11.5284 45.5624 11.2153 45.5367 10.915 45.4852C10.6148 45.4423 10.396 45.3866 10.2588 45.318V43.7996C10.4132 43.8596 10.5976 43.9111 10.8121 43.954C11.0265 43.9969 11.2453 44.0183 11.4683 44.0183C11.9487 44.0183 12.2961 43.9411 12.5106 43.7867C12.7336 43.6237 12.8452 43.3321 12.8452 42.9117V36.1692H14.8267V43.0018C14.8267 43.8596 14.5737 44.503 14.0676 44.9319C13.5614 45.3523 12.8237 45.5624 11.8544 45.5624Z" fill="white"/>
</svg>
