<svg width="65" height="63" viewBox="0 0 65 63" fill="none" xmlns="http://www.w3.org/2000/svg">
<path fill-rule="evenodd" clip-rule="evenodd" d="M56.0481 2.14458H30.3132C26.7599 2.14458 23.8794 5.02505 23.8794 8.57831V34.3133C23.8794 37.8665 26.7599 40.747 30.3132 40.747H56.0481C59.6014 40.747 62.4819 37.8665 62.4819 34.3133V8.57831C62.4819 5.02506 59.6014 2.14458 56.0481 2.14458ZM30.3132 0C25.5755 0 21.7349 3.84063 21.7349 8.57831V34.3133C21.7349 39.0509 25.5755 42.8916 30.3132 42.8916H56.0481C60.7858 42.8916 64.6264 39.0509 64.6264 34.3133V8.57831C64.6264 3.84064 60.7858 0 56.0481 0H30.3132Z" fill="#8E8E94"/>
<path d="M35.7198 23.8592C35.4571 23.5357 34.9609 23.5435 34.7085 23.8751L29.7866 30.3404C29.4641 30.7639 29.7662 31.3735 30.2985 31.3735H56.4828C57.0436 31.3735 57.3359 30.706 56.9556 30.2938L48.0628 20.6566C47.8162 20.3894 47.3974 20.3794 47.1384 20.6346L39.8446 27.8204C39.5741 28.0868 39.1329 28.0624 38.8936 27.7676L35.7198 23.8592Z" fill="#8E8E94"/>
<path d="M34.1701 15.0747C34.1701 17.3251 36.0218 19.1494 38.306 19.1494C40.5903 19.1494 42.442 17.3251 42.442 15.0747C42.442 12.8243 40.5903 11 38.306 11C36.0218 11 34.1701 12.8243 34.1701 15.0747Z" fill="#8E8E94"/>
<path d="M0.289062 27.8796C0.289062 23.1419 4.1297 19.3013 8.86737 19.3013H34.6023C39.34 19.3013 43.1806 23.1419 43.1806 27.8796V53.6145C43.1806 58.3522 39.34 62.1928 34.6023 62.1928H8.86737C4.1297 62.1928 0.289062 58.3522 0.289062 53.6145V27.8796Z" fill="#514ED4"/>
<path d="M32.8179 45.4338V36.1692H37.2185C37.9048 36.1692 38.4924 36.2893 38.9814 36.5295C39.4789 36.7697 39.8607 37.1042 40.1266 37.5331C40.4011 37.9621 40.5384 38.4639 40.5384 39.0386C40.5384 39.6134 40.4011 40.1195 40.1266 40.557C39.8521 40.9945 39.4661 41.3376 38.9685 41.5864C38.4796 41.8266 37.8962 41.9467 37.2185 41.9467H34.3877V40.4283H37.1156C37.5703 40.4283 37.922 40.3039 38.1707 40.0552C38.4281 39.7978 38.5568 39.4633 38.5568 39.0515C38.5568 38.6397 38.4281 38.3095 38.1707 38.0607C37.922 37.8119 37.5703 37.6875 37.1156 37.6875H34.7995V45.4338H32.8179Z" fill="white"/>
<path d="M26.3401 45.4338V44.0183H28.7334C29.1623 44.0183 29.484 43.9025 29.6985 43.6709C29.9215 43.4307 30.033 43.1005 30.033 42.6801C30.033 42.2512 29.9129 41.9124 29.6727 41.6636C29.4411 41.4148 29.1066 41.2904 28.6691 41.2904H26.3401V39.875H28.5661C28.9693 39.875 29.2738 39.7807 29.4797 39.5919C29.6942 39.3946 29.8014 39.1073 29.8014 38.7298C29.8014 38.3524 29.6985 38.0693 29.4926 37.8806C29.2953 37.6833 28.9993 37.5846 28.6047 37.5846H26.3401V36.1692H29.0294C29.8529 36.1692 30.5177 36.3794 31.0238 36.7997C31.5299 37.22 31.783 37.7905 31.783 38.5111C31.783 38.9657 31.6758 39.356 31.4613 39.682C31.2468 40.008 30.9595 40.2568 30.5992 40.4283C30.2389 40.5999 29.8357 40.6857 29.3896 40.6857L29.454 40.4155C29.9344 40.4155 30.3676 40.5184 30.7536 40.7243C31.1482 40.9302 31.4613 41.2218 31.6929 41.5993C31.9245 41.9681 32.0403 42.4056 32.0403 42.9117C32.0403 43.4179 31.9202 43.8639 31.6801 44.25C31.4484 44.6274 31.1182 44.9191 30.6893 45.1249C30.2689 45.3308 29.7714 45.4338 29.1966 45.4338H26.3401ZM24.7188 45.4338V36.1692H26.7003V45.4338H24.7188Z" fill="white"/>
<path d="M17.0095 45.4338V36.1692H18.9911V45.4338H17.0095ZM17.936 45.4338V43.9154H23.9065V45.4338H17.936ZM17.936 41.4449V39.9522H23.4561V41.4449H17.936ZM17.936 37.6875V36.1692H23.7521V37.6875H17.936Z" fill="white"/>
<path d="M5.69974 45.4338L3.08765 36.1692H5.09497L7.25671 44.6489H6.6262L8.55632 36.1692H10.8081L12.7125 44.6489H12.0949L14.2695 36.1692H16.1867L13.5746 45.4338H11.3614L9.39271 37.1214H9.90741L7.91295 45.4338H5.69974Z" fill="white"/>
</svg>
