<svg width="65" height="63" viewBox="0 0 65 63" fill="none" xmlns="http://www.w3.org/2000/svg">
<path fill-rule="evenodd" clip-rule="evenodd" d="M56.0481 2.14458H30.3132C26.7599 2.14458 23.8794 5.02505 23.8794 8.57831V34.3133C23.8794 37.8665 26.7599 40.747 30.3132 40.747H56.0481C59.6014 40.747 62.4819 37.8665 62.4819 34.3133V8.57831C62.4819 5.02506 59.6014 2.14458 56.0481 2.14458ZM30.3132 0C25.5755 0 21.7349 3.84063 21.7349 8.57831V34.3133C21.7349 39.0509 25.5755 42.8916 30.3132 42.8916H56.0481C60.7858 42.8916 64.6264 39.0509 64.6264 34.3133V8.57831C64.6264 3.84064 60.7858 0 56.0481 0H30.3132Z" fill="#8E8E94"/>
<path d="M37.5308 25.6208C37.5873 26.0481 37.625 26.4196 37.6422 26.7383H37.7082C37.7333 26.4362 37.7856 26.0723 37.8652 25.6465C37.9448 25.2206 38.0165 24.8607 38.0803 24.5668L41.1078 12.006H45.0225L48.163 24.378C48.3455 25.1473 48.4761 25.9271 48.554 26.7126H48.6059C48.6644 25.9516 48.7735 25.1951 48.9325 24.4475L51.4371 12H55L50.6001 30H46.4373L43.4538 18.0795C43.3675 17.7367 43.2685 17.2882 43.1602 16.7371C43.0518 16.1859 42.9843 15.7827 42.9576 15.529H42.9058C42.8713 15.8219 42.8037 16.2569 42.7032 16.8337C42.6027 17.4106 42.5221 17.8374 42.4614 18.1142L39.6569 29.997H35.4234L31 12.006H34.6273L37.3549 24.5924C37.4161 24.8507 37.4742 25.195 37.5308 25.6208Z" fill="#8E8E94"/>
<path d="M0.289062 27.8796C0.289062 23.1419 4.1297 19.3013 8.86737 19.3013H34.6023C39.34 19.3013 43.1806 23.1419 43.1806 27.8796V53.6145C43.1806 58.3522 39.34 62.1928 34.6023 62.1928H8.86737C4.1297 62.1928 0.289062 58.3522 0.289062 53.6145V27.8796Z" fill="#FF0D00"/>
<path d="M27.5117 45.4338V36.1692H29.4933V45.4338H27.5117ZM28.4382 41.8437V40.3254H33.7524V41.8437H28.4382ZM28.4382 37.6875V36.1692H34.0484V37.6875H28.4382Z" fill="white"/>
<path d="M19.2525 45.4338V43.8897H21.5944C22.2635 43.8897 22.8297 43.7567 23.2929 43.4908C23.7647 43.2163 24.1207 42.8431 24.3609 42.3713C24.6097 41.8995 24.7341 41.3591 24.7341 40.75C24.7341 40.1495 24.614 39.622 24.3738 39.1673C24.1336 38.7127 23.7776 38.3567 23.3058 38.0993C22.8425 37.842 22.2721 37.7133 21.5944 37.7133H19.2911V36.1692H21.5944C22.6324 36.1692 23.5374 36.3579 24.3094 36.7354C25.0815 37.1042 25.6777 37.6361 26.098 38.3309C26.5269 39.0172 26.7414 39.8321 26.7414 40.7757C26.7414 41.7194 26.5269 42.5429 26.098 43.2463C25.6691 43.9411 25.0686 44.4816 24.2966 44.8676C23.5331 45.245 22.6367 45.4338 21.6073 45.4338H19.2525ZM18.043 45.4338V36.1692H20.0246V45.4338H18.043Z" fill="white"/>
<path d="M9.65503 45.4338V36.1692H14.0557C14.742 36.1692 15.3296 36.2893 15.8185 36.5295C16.3161 36.7697 16.6978 37.1042 16.9638 37.5331C17.2383 37.9621 17.3755 38.4639 17.3755 39.0386C17.3755 39.6134 17.2383 40.1195 16.9638 40.557C16.6892 40.9945 16.3032 41.3376 15.8057 41.5864C15.3167 41.8266 14.7334 41.9467 14.0557 41.9467H11.2249V40.4283H13.9528C14.4074 40.4283 14.7591 40.3039 15.0079 40.0552C15.2652 39.7978 15.3939 39.4633 15.3939 39.0515C15.3939 38.6397 15.2652 38.3095 15.0079 38.0607C14.7591 37.8119 14.4074 37.6875 13.9528 37.6875H11.6366V45.4338H9.65503Z" fill="white"/>
</svg>
