<svg width="65" height="63" viewBox="0 0 65 63" fill="none" xmlns="http://www.w3.org/2000/svg">
<rect x="22.5181" y="1.07229" width="40.747" height="40.747" rx="7.50602" stroke="#8E8E94" stroke-width="2.14458"/>
<path d="M31.9875 37C31.6084 37 31.251 36.8834 30.9368 36.6503C29.8103 35.8236 29.6587 34.9016 29.7237 34.2763C29.9186 32.5488 32.0959 30.7472 36.212 28.9031C37.8368 25.4058 39.3857 21.103 40.3173 17.5102C39.2341 15.2104 38.1834 12.2218 38.9524 10.4731C39.2232 9.85844 39.559 9.39213 40.1764 9.18017C40.4256 9.09538 41.043 9 41.2813 9C41.8229 9 42.3103 9.68887 42.6461 10.1128C42.9711 10.5155 43.686 11.3528 42.2453 17.3195C43.7076 20.2657 45.7765 23.2755 47.7588 25.3316C49.1777 25.0772 50.4018 24.95 51.3983 24.95C53.0989 24.95 54.1171 25.3316 54.5395 26.137C54.8862 26.7941 54.7453 27.5678 54.1171 28.4262C53.5105 29.2528 52.6764 29.6874 51.7124 29.6874C50.3909 29.6874 48.8636 28.8713 47.1522 27.271C44.0759 27.8963 40.4906 29.0197 37.5876 30.2596C36.6777 32.1355 35.8112 33.651 35.0096 34.7638C33.894 36.2793 32.9407 37 31.9984 37H31.9875ZM34.8688 31.5632C32.5508 32.835 31.6084 33.8842 31.5434 34.4671C31.5326 34.5625 31.5001 34.8168 32.0092 35.1983C32.1717 35.1453 33.1141 34.732 34.8688 31.5526V31.5632ZM49.6435 26.8577C50.5209 27.5254 50.7375 27.8539 51.3225 27.8539C51.5716 27.8539 52.2973 27.8433 52.6331 27.3876C52.7956 27.165 52.8606 27.0273 52.8823 26.9425C52.7523 26.8683 52.5681 26.7305 51.6149 26.7305C51.0625 26.7305 50.3801 26.7517 49.6544 26.8471L49.6435 26.8577ZM41.5521 19.8842C40.7722 22.5019 39.754 25.3422 38.66 27.8963C40.9239 27.0378 43.3827 26.2854 45.7007 25.7555C44.2384 24.0916 42.7761 22.0144 41.5629 19.8842H41.5521ZM40.8914 10.9182C40.783 10.95 39.4507 12.7835 40.9997 14.3308C42.0287 12.0946 40.9455 10.9076 40.8914 10.9182Z" fill="#8E8E94"/>
<rect y="19.3013" width="42.8916" height="42.8916" rx="8.57831" fill="#0066FF"/>
<path d="M31.4533 45.5625C30.7842 45.5625 30.1665 45.4466 29.6003 45.215C29.0342 44.9748 28.5409 44.6403 28.1206 44.2114C27.7088 43.7825 27.3871 43.2763 27.1555 42.693C26.9239 42.1011 26.8081 41.4577 26.8081 40.7629C26.8081 40.068 26.9196 39.4333 27.1427 38.8585C27.3743 38.2838 27.696 37.7862 28.1077 37.3659C28.5281 36.937 29.0213 36.611 29.5875 36.388C30.1536 36.1563 30.7756 36.0405 31.4533 36.0405C32.2167 36.0405 32.903 36.1906 33.5121 36.4909C34.1297 36.7826 34.6315 37.1986 35.0176 37.739C35.4122 38.2709 35.6523 38.8971 35.7381 39.6177H33.808C33.6965 38.9572 33.4263 38.4596 32.9974 38.1251C32.5684 37.7819 32.058 37.6104 31.4661 37.6104C30.9429 37.6104 30.4796 37.7347 30.0764 37.9835C29.6818 38.2323 29.373 38.5926 29.15 39.0644C28.9269 39.5276 28.8154 40.0895 28.8154 40.75C28.8154 41.4191 28.9269 41.9982 29.15 42.4871C29.3816 42.9675 29.699 43.3407 30.1022 43.6066C30.5054 43.864 30.9686 43.9926 31.4919 43.9926C32.0495 43.9926 32.5427 43.8253 32.9716 43.4908C33.4005 43.1562 33.6793 42.6587 33.808 41.9982H35.7639C35.6523 42.7187 35.3993 43.3492 35.0047 43.8897C34.6101 44.4215 34.1082 44.8333 33.4992 45.125C32.8901 45.4166 32.2082 45.5625 31.4533 45.5625Z" fill="white"/>
<path d="M21.4844 45.5625C20.7982 45.5625 20.1634 45.4466 19.58 45.215C19.0053 44.9834 18.5035 44.6574 18.0745 44.2371C17.6542 43.8082 17.3239 43.3021 17.0837 42.7187C16.8521 42.1268 16.7363 41.4749 16.7363 40.7629C16.7363 39.8193 16.9379 38.9958 17.3411 38.2923C17.7443 37.5803 18.3019 37.027 19.0139 36.6324C19.7344 36.2378 20.5537 36.0405 21.4716 36.0405C22.4066 36.0405 23.2301 36.2378 23.9421 36.6324C24.6541 37.027 25.2117 37.5803 25.6149 38.2923C26.0266 39.0043 26.2325 39.8321 26.2325 40.7758C26.2325 41.4792 26.1124 42.1268 25.8722 42.7187C25.6406 43.3021 25.3104 43.8082 24.8814 44.2371C24.4611 44.6574 23.9593 44.9834 23.3759 45.215C22.8012 45.4466 22.1707 45.5625 21.4844 45.5625ZM21.4716 43.9926C22.012 43.9926 22.4881 43.8554 22.8998 43.5809C23.3116 43.3064 23.6333 42.9289 23.8649 42.4485C24.1051 41.9596 24.2252 41.3934 24.2252 40.75C24.2252 40.1152 24.1094 39.5619 23.8778 39.0901C23.6462 38.6183 23.3245 38.2537 22.9127 37.9964C22.501 37.739 22.0206 37.6104 21.4716 37.6104C20.9311 37.6104 20.455 37.739 20.0433 37.9964C19.6315 38.2537 19.3098 38.6183 19.0782 39.0901C18.8552 39.5533 18.7437 40.1066 18.7437 40.75C18.7437 41.402 18.8595 41.9724 19.0911 42.4614C19.3227 42.9418 19.6444 43.3192 20.0561 43.5937C20.4679 43.8597 20.9397 43.9926 21.4716 43.9926Z" fill="white"/>
<path d="M8.67194 45.4338V43.8897H11.0138C11.6829 43.8897 12.2491 43.7567 12.7123 43.4908C13.1841 43.2163 13.5401 42.8431 13.7803 42.3713C14.0291 41.8995 14.1535 41.3591 14.1535 40.75C14.1535 40.1495 14.0334 39.622 13.7932 39.1673C13.553 38.7127 13.197 38.3567 12.7252 38.0993C12.262 37.842 11.6915 37.7133 11.0138 37.7133H8.71055V36.1692H11.0138C12.0518 36.1692 12.9568 36.3579 13.7289 36.7354C14.5009 37.1042 15.0971 37.6361 15.5174 38.3309C15.9464 39.0172 16.1608 39.8321 16.1608 40.7757C16.1608 41.7194 15.9464 42.5429 15.5174 43.2463C15.0885 43.9411 14.488 44.4816 13.716 44.8676C12.9525 45.245 12.0561 45.4338 11.0267 45.4338H8.67194ZM7.4624 45.4338V36.1692H9.44399V45.4338H7.4624Z" fill="white"/>
</svg>
