<?xml version="1.0" encoding="UTF-8"?>
<svg width="10px" height="8px" viewBox="0 0 10 8" version="1.1" xmlns="http://www.w3.org/2000/svg" xmlns:xlink="http://www.w3.org/1999/xlink">
    <!-- Generator: Sketch 64 (93537) - https://sketch.com -->
    <title>Path</title>
    <desc>Created with Sketch.</desc>
    <g id="Page-1" stroke="none" stroke-width="1" fill="none" fill-rule="evenodd">
        <g id="About-us---1440" transform="translate(-870.000000, -6782.000000)" fill="#0084FF" fill-rule="nonzero" stroke="#0084FF" stroke-width="0.87209995">
            <path d="M876.060495,6783.09024 C875.937885,6782.96992 875.73382,6782.96992 875.606923,6783.09024 C875.484312,6783.20649 875.484312,6783.39996 875.606923,6783.51594 L877.906796,6785.6965 L870.317529,6785.6965 C870.140616,6785.69678 870,6785.8301 870,6785.99783 C870,6786.16557 870.140616,6786.30322 870.317529,6786.30322 L877.906796,6786.30322 L875.606923,6788.47972 C875.484312,6788.60004 875.484312,6788.79379 875.606923,6788.90976 C875.73382,6789.03008 875.938171,6789.03008 876.060495,6788.90976 L878.904827,6786.21299 C879.031724,6786.09674 879.031724,6785.90326 878.904827,6785.78728 L876.060495,6783.09024 Z" id="Path"></path>
        </g>
    </g>
</svg>