<svg width="4458" height="720" viewBox="0 0 4458 720" fill="none" xmlns="http://www.w3.org/2000/svg">
<g clip-path="url(#clip0_4584_7309)">
<path fill-rule="evenodd" clip-rule="evenodd" d="M0 158.155C0 70.8089 70.8089 0 158.155 0H561.845C649.192 0 720 70.8089 720 158.155V561.845C720 649.192 649.192 720 561.845 720H158.155C70.8089 720 0 649.192 0 561.845V158.155ZM553.106 573.204L407.399 357.805L545.279 155.533H444.729L359.834 286.204L275.541 155.533H175.594L312.871 358.402L167.767 573.204H268.316L359.834 430.003L451.954 573.204H553.106Z" fill="white"/>
<path d="M1120.92 568.695H1033.04V151.304H1120.92V568.695Z" fill="white"/>
<path d="M1591.83 438.707V151.304H1679.11V568.695H1589.42L1377.55 280.695V568.695H1289.68V151.304H1379.36L1591.83 438.707Z" fill="white"/>
<path d="M1815.35 151.304H2116.9V228.223H2009.76V568.695H1922.48V228.223H1815.35V151.304Z" fill="white"/>
<path d="M2511.42 151.304V228.223H2340.48V317.664H2487.95V394.583H2340.48V491.776H2511.42V568.695H2252.61V151.304H2511.42Z" fill="white"/>
<path d="M3007.44 568.695H2900.91L2782.93 396.968H2754.64V568.695H2666.77V151.304H2836.5C2879.84 151.304 2912.94 162.832 2935.82 185.888C2959.09 208.944 2970.73 239.155 2970.73 276.521C2970.73 337.341 2940.23 374.508 2879.24 388.024L3007.44 568.695ZM2754.64 326.012H2823.86C2843.13 326.012 2857.77 322.235 2867.8 314.682C2878.24 306.732 2883.45 294.012 2883.45 276.521C2883.45 259.428 2878.24 247.105 2867.8 239.552C2857.77 232 2843.13 228.223 2823.86 228.223H2754.64V326.012Z" fill="white"/>
<path d="M3446.57 438.707V151.304H3533.84V568.695H3444.16L3232.29 280.695V568.695H3144.41V151.304H3234.09L3446.57 438.707Z" fill="white"/>
<path d="M3908.43 353.44L4054.1 568.695H3952.98L3860.88 425.589L3769.39 568.695H3668.87L3813.93 354.036L3676.7 151.304H3776.62L3860.88 281.888L3945.75 151.304H4046.27L3908.43 353.44Z" fill="white"/>
<path d="M4156.54 151.304H4458.09V228.223H4350.95V568.695H4263.68V228.223H4156.54V151.304Z" fill="white"/>
</g>
<defs>
<clipPath id="clip0_4584_7309">
<rect width="4458" height="720" fill="white"/>
</clipPath>
</defs>
</svg>
