<svg width="27" height="32" viewBox="0 0 27 32" fill="none" xmlns="http://www.w3.org/2000/svg">
<path fill-rule="evenodd" clip-rule="evenodd" d="M19.2112 0.245653L17.726 2.34308C21.8712 4.20346 22.135 8.63134 22.1476 8.8427C22.1479 8.84783 22.1481 8.85054 22.1481 8.85054H4.93912C4.93912 8.85054 5.06354 4.20976 9.34051 2.31974L7.87338 0.248246C7.84227 0.204171 7.88634 0.118615 7.97188 0.0589847C8.05742 -0.000645459 8.15073 -0.0162011 8.18184 0.0278733L9.70081 2.16419C10.7402 1.76233 12.0026 1.51863 13.5449 1.52381C15.0768 1.529 16.334 1.78048 17.3708 2.18752L18.9028 0.0252807C18.9339 -0.0187938 19.0272 -0.00323807 19.1127 0.0563921C19.1983 0.118615 19.2423 0.201578 19.2112 0.245653ZM8.72877 5.09644C8.72877 5.6694 9.19276 6.13348 9.76561 6.13348C10.3385 6.13348 10.8025 5.6694 10.8025 5.09644C10.8025 4.52347 10.3385 4.05939 9.76561 4.05939C9.19276 4.05939 8.72877 4.52347 8.72877 5.09644ZM16.2822 5.09644C16.2822 5.6694 16.7461 6.13348 17.319 6.13348C17.8893 6.13348 18.3533 5.6694 18.3558 5.09644C18.3558 4.52347 17.8919 4.05939 17.319 4.05939C16.7461 4.05939 16.2822 4.52347 16.2822 5.09644Z" fill="#18181B"/>
<path d="M2.09558 9.27832C1.07688 9.27832 0.25 10.1054 0.25 11.1243V19.418C0.25 20.4369 1.07688 21.264 2.09558 21.264C3.11427 21.264 3.94116 20.4369 3.94116 19.418V11.1243C3.94116 10.1054 3.11427 9.27832 2.09558 9.27832Z" fill="#18181B"/>
<path d="M23.1435 11.1243C23.1435 10.1054 23.9703 9.27832 24.989 9.27832C26.0077 9.27832 26.8346 10.1054 26.8346 11.1243V19.418C26.8346 20.4369 26.0077 21.264 24.989 21.264C23.9703 21.264 23.1435 20.4369 23.1435 19.418V11.1243Z" fill="#18181B"/>
<path d="M4.88209 9.86944H22.2025V24.5047C22.2025 25.0777 21.7385 25.5418 21.1657 25.5418H18.9494V30.1541C18.9494 31.173 18.1226 32 17.1039 32C16.0852 32 15.2583 31.173 15.2583 30.1541V25.5418H11.8263V30.1541C11.8263 31.173 10.9995 32 9.98076 32C8.96206 32 8.13518 31.173 8.13518 30.1541V25.5418H5.91893C5.34608 25.5418 4.88209 25.0777 4.88209 24.5047V9.86944Z" fill="#18181B"/>
</svg>
