<svg width="33" height="32" viewBox="0 0 33 32" fill="none" xmlns="http://www.w3.org/2000/svg">
<path d="M16.7412 3C14.1701 3 11.6566 3.76244 9.5188 5.1909C7.38096 6.61935 5.71472 8.64968 4.73078 11.0251C3.74684 13.4006 3.4894 16.0144 3.99101 18.5362C4.49262 21.0579 5.73075 23.3743 7.54883 25.1924C9.36691 27.0105 11.6833 28.2486 14.205 28.7502C16.7268 29.2518 19.3407 28.9944 21.7161 28.0104C24.0915 27.0265 26.1219 25.3603 27.5503 23.2224C28.9788 21.0846 29.7412 18.5712 29.7412 16C29.7376 12.5533 28.3668 9.24882 25.9296 6.81163C23.4924 4.37445 20.1879 3.00364 16.7412 3ZM13.445 21H20.0375C19.3662 23.2925 18.2412 25.3587 16.7412 26.9862C15.2412 25.3587 14.1162 23.2925 13.445 21ZM12.9912 19C12.6596 17.0138 12.6596 14.9862 12.9912 13H20.4912C20.8229 14.9862 20.8229 17.0138 20.4912 19H12.9912ZM5.74122 16C5.74035 14.9855 5.88044 13.9759 6.15747 13H10.965C10.6666 14.9889 10.6666 17.0111 10.965 19H6.15747C5.88044 18.0241 5.74035 17.0145 5.74122 16ZM20.0375 11H13.445C14.1162 8.7075 15.2412 6.64125 16.7412 5.01375C18.2412 6.64125 19.3662 8.7075 20.0375 11ZM22.5175 13H27.325C27.88 14.9615 27.88 17.0385 27.325 19H22.5175C22.8158 17.0111 22.8158 14.9889 22.5175 13ZM26.5375 11H22.1087C21.5984 8.99189 20.7414 7.0883 19.5762 5.375C21.0648 5.77503 22.4531 6.48215 23.652 7.45091C24.8509 8.41967 25.8338 9.62861 26.5375 11ZM13.9062 5.375C12.7411 7.0883 11.884 8.99189 11.3737 11H6.94497C7.64863 9.62861 8.6315 8.41967 9.8304 7.45091C11.0293 6.48215 12.4177 5.77503 13.9062 5.375ZM6.94497 21H11.3737C11.884 23.0081 12.7411 24.9117 13.9062 26.625C12.4177 26.225 11.0293 25.5178 9.8304 24.5491C8.6315 23.5803 7.64863 22.3714 6.94497 21ZM19.5762 26.625C20.7414 24.9117 21.5984 23.0081 22.1087 21H26.5375C25.8338 22.3714 24.8509 23.5803 23.652 24.5491C22.4531 25.5178 21.0648 26.225 19.5762 26.625Z" fill="white"/>
</svg>
