<svg width="29" height="35" viewBox="0 0 29 35" fill="none" xmlns="http://www.w3.org/2000/svg">
<path d="M27.3565 27.0316C27.0994 26.6318 26.9281 26.1891 26.8709 25.7179C26.7995 25.1752 26.5568 24.6754 26.1712 24.2756C26.0856 24.2042 25.9999 24.1328 25.8999 24.0757C25.8142 24.0186 25.7286 23.9757 25.6286 23.9472C26.1855 22.1765 26.0998 20.263 25.3716 18.5637C24.629 16.7359 23.5723 15.0509 22.2586 13.5801C20.9448 12.3092 20.1595 10.5956 20.0309 8.76777C20.0595 5.7119 20.3737 0 14.9473 0H14.2334C8.17874 0.485512 9.79235 6.88285 9.70667 9.02481C9.64955 10.567 9.1212 12.0664 8.19302 13.3087C6.52228 15.2222 5.20854 17.407 4.30892 19.7775C3.89481 20.9199 3.75201 22.1479 3.89481 23.3474C3.83769 23.3903 3.78057 23.4474 3.73773 23.5045C3.36645 23.89 3.09514 24.3756 2.78098 24.704C2.45255 24.961 2.067 25.1467 1.65288 25.2466C1.12453 25.3894 0.681859 25.7464 0.410543 26.2176C0.282025 26.4747 0.210627 26.7603 0.224906 27.0459C0.224906 27.3029 0.224906 27.5742 0.224906 27.8313C0.324865 28.3025 0.324865 28.788 0.224906 29.2592C-0.0749688 29.9447 -0.0749688 30.7301 0.224906 31.4155C0.524781 31.8867 1.01029 32.1866 1.5672 32.2437C2.92378 32.3294 4.26608 32.615 5.53698 33.0862L5.65122 32.8435L5.55126 33.0434C6.67936 33.686 8.00738 33.9287 9.29256 33.7288C10.0494 33.586 10.7063 33.0862 11.0347 32.3865C11.8629 32.3865 12.7911 32.0152 14.2619 31.9438C15.2615 31.8582 16.5181 32.3008 17.9461 32.2151C17.9889 32.3722 18.0461 32.515 18.1175 32.6578C18.5744 33.7145 19.6597 34.3714 20.802 34.2714C22.0872 34.1144 23.2439 33.4289 24.0293 32.4008C25.0289 31.4869 26.1855 30.7729 27.4421 30.2588C27.9419 30.0303 28.2846 29.5734 28.3703 29.0308C28.2989 28.2597 27.9276 27.5457 27.3422 27.0316H27.3565ZM13.9906 6.93997C13.9906 6.56869 14.0763 6.19742 14.2334 5.8547C14.3619 5.52627 14.5761 5.25495 14.8474 5.04076C15.0901 4.85512 15.39 4.74088 15.7042 4.74088C16.004 4.74088 16.3039 4.84084 16.5324 5.02648C16.818 5.22639 17.0322 5.51199 17.175 5.82614C17.3321 6.15458 17.4035 6.51157 17.4035 6.88285C17.4035 7.2684 17.3321 7.63967 17.175 7.98239C17.1036 8.16803 17.0036 8.33938 16.8751 8.49646H16.7466L16.3325 8.3251L16.0183 8.22514C16.1183 8.13947 16.2182 8.02523 16.2896 7.91099C16.361 7.72535 16.4039 7.51116 16.4039 7.31124C16.4182 7.11132 16.4039 6.92569 16.3182 6.74005C16.2754 6.56869 16.1897 6.41161 16.0612 6.2831C15.9612 6.18314 15.8184 6.11174 15.6756 6.11174C15.5328 6.11174 15.4043 6.15458 15.3043 6.25454C15.1758 6.36877 15.0616 6.51157 15.0045 6.68293C14.9331 6.86857 14.8759 7.08276 14.8759 7.28268C14.8617 7.39692 14.8617 7.51116 14.8759 7.62539C14.5904 7.49688 14.3048 7.39692 14.0049 7.32552C14.0049 7.22556 14.0049 7.11132 14.0049 7.01136V6.93997H13.9906ZM10.2921 7.03992C10.2636 6.71149 10.3064 6.39733 10.4064 6.08318C10.4778 5.81186 10.6206 5.56911 10.8205 5.36919C10.9776 5.19783 11.1918 5.0836 11.4202 5.06932C11.6344 5.06932 11.8486 5.15499 12.0057 5.29779C12.2199 5.46915 12.3913 5.69763 12.4912 5.95466C12.6197 6.25454 12.6911 6.56869 12.7054 6.89713C12.7197 7.03992 12.7197 7.16844 12.7054 7.31124H12.5769C12.377 7.36836 12.1914 7.46832 12.02 7.58255C12.0343 7.45404 12.0343 7.3398 12.02 7.21128C12.02 7.0542 11.9772 6.88285 11.9058 6.74005C11.8629 6.61153 11.7772 6.48301 11.6773 6.38305C11.6059 6.32593 11.5059 6.2831 11.406 6.2831C11.2917 6.2831 11.1918 6.3545 11.1346 6.44017C11.049 6.55441 10.9918 6.68293 10.9633 6.82573C10.9347 6.99708 10.9347 7.15416 10.9633 7.32552C10.9633 7.4826 11.0204 7.63967 11.0775 7.79675C11.1346 7.92527 11.2203 8.05379 11.3203 8.15375L11.0775 8.35366L10.8776 8.49646C10.7063 8.3251 10.5777 8.12519 10.4921 7.89671C10.3635 7.59683 10.2921 7.28268 10.2636 6.96852L10.2921 7.03992ZM10.5635 9.13905L11.2489 8.62498L11.5059 8.43934C11.8344 8.06807 12.2485 7.78247 12.7054 7.59683C12.9196 7.52544 13.1481 7.4826 13.3766 7.4826C14.0049 7.51116 14.6046 7.72535 15.1187 8.08235C15.6042 8.3251 16.1183 8.5393 16.6324 8.71066C16.918 8.81061 17.1607 8.99625 17.3178 9.25329C17.4177 9.46748 17.4177 9.71024 17.3178 9.92444C17.0179 10.5242 16.461 10.9669 15.8041 11.1239C15.4186 11.2953 15.0473 11.5095 14.7046 11.7522C14.2762 12.0236 13.7764 12.1521 13.2766 12.1235C13.0481 12.1235 12.8339 12.0664 12.634 11.9807C12.4627 11.9093 12.3199 11.8094 12.1771 11.6951C11.9058 11.4381 11.6202 11.1953 11.306 10.9811C10.8491 10.7812 10.5063 10.4099 10.3207 9.95299C10.2065 9.65312 10.3064 9.32469 10.5635 9.13905ZM10.7919 31.4869C10.7777 32.4151 10.0922 33.2005 9.17832 33.3432C7.9931 33.5289 6.77932 33.2861 5.75118 32.6864C4.43744 32.1866 3.0523 31.8867 1.65288 31.8153C1.23877 31.7725 0.867496 31.5583 0.62474 31.2298C0.453383 30.6444 0.510502 30.0018 0.796097 29.4592H0.810377C0.924615 28.9308 0.924615 28.3739 0.810377 27.8455C0.667579 27.4029 0.667579 26.9459 0.810377 26.5032C1.02457 26.132 1.38157 25.8607 1.79568 25.7464C2.28119 25.6465 2.73815 25.418 3.10942 25.0895C3.48069 24.704 3.75201 24.2185 4.06616 23.8758C4.29464 23.5902 4.63735 23.4188 5.00863 23.4045H5.25138C5.85113 23.5616 6.36521 23.9472 6.67936 24.4755L7.97882 26.8602C8.47861 27.6885 9.0498 28.4738 9.69239 29.2021C10.2779 29.8304 10.6491 30.6158 10.7348 31.4726H10.8062L10.7919 31.4869ZM10.6777 29.759C10.5063 29.4877 10.3064 29.2307 10.1065 28.9594L9.72095 28.4596C9.94943 28.4596 10.1779 28.4167 10.3778 28.3311C10.592 28.2454 10.7491 28.074 10.8348 27.8598C10.949 27.2601 10.7634 26.6318 10.335 26.1891C9.62099 25.3037 8.76421 24.5755 7.7789 24.0186C7.00779 23.5759 6.40804 22.8619 6.12245 22.0194C5.90825 21.2483 5.90825 20.4343 6.12245 19.6632C6.508 18.2638 7.12203 16.9358 7.93598 15.722C8.07878 15.6078 7.93598 15.9362 7.35051 17.15C6.76504 18.3638 5.70834 20.7199 7.16487 22.662C7.22199 21.2483 7.53615 19.8489 8.09306 18.5494C8.907 16.7216 10.592 13.5372 10.7348 11.0097C10.8633 11.1097 11.0061 11.1953 11.1489 11.281C11.4488 11.4952 11.7201 11.7237 11.9914 11.9664C12.3341 12.2663 12.7768 12.4377 13.2338 12.452H13.4051C13.9049 12.452 14.4047 12.2949 14.8331 12.0378C15.1615 11.8094 15.5185 11.6094 15.8898 11.4381C16.461 11.2525 16.9608 10.8955 17.3178 10.4242C17.9747 12.6233 18.8457 14.7653 19.931 16.793C20.6735 18.1353 21.2019 19.5776 21.5018 21.0769C21.7588 21.0769 22.0015 21.1055 22.2443 21.1626C22.8012 19.1206 22.2015 16.9215 20.6735 15.4507C20.3594 15.1365 20.3451 15.008 20.5022 15.008C21.6303 16.1076 22.4299 17.507 22.7869 19.0492C22.9869 19.8346 22.9869 20.6485 22.7869 21.4339L23.0868 21.5624C24.5148 22.2764 25.1145 22.9047 24.8432 23.7615H24.5719C24.7861 23.0904 24.3006 22.5906 23.044 22.0194C21.7874 21.4482 20.6878 21.491 20.5022 22.662V22.8476L20.2023 22.9904C19.5883 23.3617 19.1742 23.99 19.0599 24.6897C18.8743 25.5751 18.7886 26.4604 18.7743 27.36C18.6744 28.0169 18.5316 28.6738 18.3174 29.3021C16.1183 31.0585 13.0624 31.2441 10.6777 29.759ZM27.1994 29.859C25.8999 30.3873 24.7004 31.1442 23.6866 32.1152C22.9869 33.0291 21.9587 33.6431 20.8306 33.8288C19.8453 33.9716 18.9028 33.4432 18.503 32.5293C18.2603 31.7296 18.2888 30.8728 18.5887 30.1017C18.8886 29.2164 19.117 28.3168 19.2456 27.3886C19.2598 26.5175 19.3598 25.6465 19.5312 24.7897C19.6168 24.2042 19.9453 23.6901 20.4451 23.3617H20.5165C20.4879 24.2185 20.9877 25.0039 21.7731 25.3323C22.7584 25.3894 23.7008 24.9896 24.3434 24.247H24.6433C25.086 24.1899 25.5287 24.3184 25.8571 24.604C26.1712 24.961 26.3712 25.3894 26.414 25.8607C26.514 26.4033 26.7424 26.9174 27.0709 27.36C27.7706 28.1311 27.999 28.6595 27.9705 29.0022C27.9419 29.3449 27.6563 29.5877 27.1994 29.859ZM10.8348 9.99583C10.6063 9.8102 10.6349 9.55316 10.7205 9.55316C10.8062 9.55316 10.9205 9.79592 11.0204 9.8816C11.1775 10.053 11.3488 10.21 11.5345 10.3528C12.0057 10.7527 12.5912 10.9811 13.2052 10.9954C13.9192 10.924 14.6046 10.6955 15.2044 10.31C15.5328 10.1101 15.8327 9.89588 16.1326 9.6674C16.361 9.49604 16.3468 9.29613 16.5324 9.32469C16.718 9.35325 16.5324 9.53888 16.3182 9.76736C16.0183 10.0244 15.6899 10.2671 15.3329 10.4528C14.6903 10.8669 13.962 11.1097 13.2052 11.1811C12.5198 11.1525 11.8772 10.8812 11.3774 10.4242C11.1918 10.2957 11.0061 10.1529 10.8348 9.99583Z" fill="#FFFFFF"/>
</svg>
