<svg width="33" height="32" viewBox="0 0 33 32" fill="none" xmlns="http://www.w3.org/2000/svg">
<path d="M18.135 10.6178V10.3557L17.3177 10.4096C17.0863 10.4251 16.909 10.4713 16.7933 10.5561C16.6777 10.641 16.616 10.7566 16.616 10.9031C16.616 11.0496 16.6777 11.1653 16.7933 11.2501C16.909 11.3349 17.0632 11.3812 17.256 11.3812C17.3793 11.3812 17.495 11.3658 17.603 11.3272C17.7109 11.2887 17.8034 11.2347 17.8805 11.1653C17.9577 11.0959 18.0193 11.0188 18.0656 10.9263C18.1119 10.8337 18.135 10.7335 18.135 10.6178ZM16.5234 0C7.59428 0 0.523438 7.07084 0.523438 16C0.523438 24.9292 7.59428 32 16.5234 32C25.4526 32 32.5234 24.9292 32.5234 16C32.5234 7.07084 25.4526 0 16.5234 0ZM19.6309 9.48434C19.708 9.27614 19.816 9.09108 19.9548 8.93687C20.0936 8.78265 20.2555 8.66699 20.456 8.58988C20.6564 8.51277 20.8646 8.46651 21.1037 8.46651C21.3196 8.46651 21.5124 8.49735 21.682 8.55904C21.8593 8.62072 22.0058 8.70554 22.1292 8.8212C22.2526 8.93687 22.3528 9.06024 22.4222 9.19904C22.4916 9.33783 22.5379 9.49976 22.5533 9.66169H21.9133C21.8979 9.57687 21.8671 9.49205 21.8285 9.41494C21.7899 9.33783 21.736 9.26843 21.6666 9.21446C21.5972 9.16048 21.5201 9.11422 21.4275 9.08337C21.335 9.05253 21.2348 9.03711 21.1114 9.03711C20.9726 9.03711 20.8492 9.06795 20.7413 9.12193C20.6333 9.1759 20.5331 9.25301 20.456 9.35325C20.3789 9.45349 20.3172 9.57687 20.2709 9.72337C20.2246 9.86988 20.2092 10.0241 20.2092 10.2014C20.2092 10.3788 20.2324 10.5484 20.2709 10.6872C20.3172 10.8337 20.3789 10.9494 20.456 11.0496C20.5331 11.1499 20.6333 11.227 20.7413 11.281C20.8492 11.3349 20.9803 11.3581 21.1114 11.3581C21.3273 11.3581 21.5124 11.3041 21.6511 11.2039C21.7899 11.1036 21.8825 10.9494 21.921 10.7489H22.561C22.5456 10.9263 22.4916 11.0882 22.4145 11.227C22.3374 11.3658 22.2372 11.4969 22.1061 11.5971C21.9827 11.6973 21.8362 11.7822 21.6666 11.8361C21.4969 11.8901 21.3119 11.921 21.1037 11.921C20.8646 11.921 20.6487 11.8824 20.4483 11.8053C20.2555 11.7282 20.0858 11.6125 19.9471 11.466C19.8083 11.3195 19.7003 11.1345 19.6232 10.9263C19.5461 10.7181 19.5075 10.4713 19.5075 10.2014C19.5075 9.93928 19.5461 9.70024 19.6232 9.49205L19.6309 9.48434ZM10.4936 8.51277H11.1336V9.08337H11.149C11.1875 8.99084 11.2415 8.90602 11.3032 8.82892C11.3649 8.75181 11.442 8.69012 11.5191 8.63614C11.6039 8.58217 11.6964 8.54361 11.789 8.51277C11.8892 8.48193 11.9972 8.47422 12.1051 8.47422C12.3442 8.47422 12.5369 8.52819 12.7066 8.64386C12.8685 8.75952 12.9842 8.92145 13.0536 9.12964H13.069C13.1152 9.0294 13.1692 8.93687 13.2386 8.85976C13.308 8.78265 13.3928 8.71325 13.4777 8.65157C13.5625 8.58988 13.6704 8.55133 13.7784 8.52048C13.8863 8.48964 14.002 8.47422 14.1177 8.47422C14.2873 8.47422 14.4338 8.49735 14.5726 8.55132C14.7114 8.6053 14.8271 8.6747 14.9196 8.77494C15.0121 8.87518 15.0892 8.99084 15.1432 9.12193C15.1972 9.25301 15.2203 9.41494 15.2203 9.57687V11.8747H14.5495V9.7388C14.5495 9.51518 14.4955 9.34554 14.3798 9.22217C14.2642 9.09879 14.1022 9.03711 13.894 9.03711C13.7938 9.03711 13.6936 9.05253 13.6087 9.09108C13.5239 9.12964 13.4468 9.1759 13.3851 9.2453C13.3234 9.30699 13.2772 9.39181 13.2386 9.47663C13.2001 9.56916 13.1846 9.6694 13.1846 9.77735V11.8747H12.5215V9.68482C12.5215 9.58458 12.5061 9.49976 12.4752 9.42265C12.4444 9.34554 12.4058 9.27614 12.3442 9.22217C12.2902 9.16819 12.2208 9.12193 12.1437 9.09108C12.0666 9.06024 11.974 9.04482 11.8738 9.04482C11.7736 9.04482 11.6733 9.06024 11.5885 9.09879C11.5037 9.13735 11.4266 9.19133 11.3649 9.26072C11.3032 9.33012 11.2492 9.40723 11.2184 9.49976C11.1875 9.59229 11.1258 9.69253 11.1258 9.80048V11.867H10.4936V8.49735V8.51277ZM11.9509 24.6593C9.00536 24.6593 7.15476 22.6082 7.15476 19.3388C7.15476 16.0694 9.00536 14.0106 11.9509 14.0106C14.8964 14.0106 16.7471 16.0694 16.7471 19.3388C16.7471 22.6082 14.9042 24.6593 11.9509 24.6593ZM17.4102 11.8747C17.3022 11.9055 17.1943 11.9133 17.0786 11.9133C16.909 11.9133 16.7548 11.8901 16.616 11.8439C16.4772 11.7976 16.3538 11.7282 16.2536 11.6434C16.1533 11.5586 16.0762 11.4506 16.0222 11.3272C15.9683 11.2039 15.9374 11.0651 15.9374 10.9186C15.9374 10.6255 16.0454 10.3942 16.269 10.2246C16.4926 10.0549 16.8087 9.96241 17.2251 9.93157L18.135 9.87759V9.61542C18.135 9.42265 18.0733 9.27614 17.9499 9.16819C17.8266 9.06024 17.6492 9.01398 17.4256 9.01398C17.3331 9.01398 17.2483 9.0294 17.1711 9.04482C17.094 9.06795 17.0246 9.09879 16.963 9.14506C16.9013 9.19132 16.855 9.23759 16.8164 9.29928C16.7779 9.36096 16.7471 9.42265 16.7393 9.49976H16.1071C16.1071 9.35325 16.1456 9.21446 16.215 9.08337C16.2844 8.95229 16.3769 8.84434 16.5003 8.75181C16.6237 8.65928 16.7625 8.58217 16.9244 8.5359C17.0863 8.48964 17.2637 8.4588 17.4487 8.4588C17.6569 8.4588 17.842 8.48193 18.0039 8.5359C18.1658 8.58988 18.3124 8.65928 18.428 8.75952C18.5437 8.85976 18.6362 8.96771 18.6979 9.10651C18.7596 9.2453 18.7904 9.39181 18.7904 9.56145V11.8747H18.1504V11.3118H18.135C18.0887 11.4043 18.0271 11.4892 17.9499 11.5586C17.8728 11.6357 17.7957 11.6973 17.7032 11.7436C17.6107 11.7976 17.5104 11.8361 17.4025 11.867L17.4102 11.8747ZM21.6511 24.6593C19.3996 24.6593 17.8728 23.4795 17.7649 21.6289H19.2299C19.3456 22.6853 20.3634 23.387 21.7668 23.387C23.1702 23.387 24.0724 22.6853 24.0724 21.7292C24.0724 20.9041 23.4863 20.4029 22.1292 20.0559L20.8107 19.7243C18.9138 19.254 18.0502 18.3904 18.0502 16.9639C18.0502 15.2135 19.5769 14.0029 21.7591 14.0029C23.9413 14.0029 25.3755 15.2212 25.4295 16.9793H23.9798C23.8796 15.9229 23.016 15.2752 21.7283 15.2752C20.4405 15.2752 19.5615 15.9306 19.5615 16.879C19.5615 17.627 20.1167 18.0742 21.4738 18.4135L22.5842 18.6911C24.7046 19.2077 25.576 20.0405 25.576 21.5441C25.576 23.4564 24.0646 24.6516 21.6434 24.6516L21.6511 24.6593ZM11.9432 15.3214C9.92296 15.3214 8.65838 16.8713 8.65838 19.3311C8.65838 21.7908 9.92296 23.3407 11.9432 23.3407C13.9634 23.3407 15.228 21.7908 15.228 19.3311C15.228 16.8713 13.9557 15.3214 11.9432 15.3137V15.3214Z" fill="#FFFFFF"/>
</svg>
