<svg width="32" height="32" viewBox="0 0 32 32" fill="none" xmlns="http://www.w3.org/2000/svg">
<path d="M31.9959 0C26.2127 0.800851 20.4303 1.63007 14.6584 2.51117C14.6543 6.76995 14.6543 11.0287 14.6592 15.2907C17.6207 15.2812 20.5814 15.2536 23.5417 15.226L23.5427 15.226C26.3621 15.1996 29.181 15.1733 32 15.1627C31.998 12.6349 31.998 10.1081 31.998 7.58134C31.998 5.05456 31.998 2.52779 31.9959 0Z" fill="black"/>
<path d="M13.0755 2.76002C8.71102 3.30473 4.34657 3.88267 0 4.55139V15.3864C2.28785 15.3923 4.57547 15.3769 6.8631 15.3614C8.93626 15.3474 11.0094 15.3334 13.0828 15.3353C13.0813 13.4718 13.0805 11.6091 13.0797 9.74647V9.7458C13.0787 7.41753 13.0777 5.0894 13.0755 2.76002Z" fill="black"/>
<path d="M0 16.706C2.27709 16.6984 4.55418 16.7138 6.83128 16.7292C8.91132 16.7433 10.9914 16.7573 13.0714 16.7538C13.0714 18.3443 13.073 19.9347 13.0747 21.5252V21.5266C13.0773 24.1394 13.08 26.7524 13.0755 29.3656C9.75768 28.8746 6.43611 28.431 3.11329 27.9874L3.11001 27.9869C2.07344 27.8485 1.03674 27.7101 0 27.5702V16.706Z" fill="black"/>
<path d="M31.9951 16.8738H14.6324C14.6357 18.7988 14.6399 20.723 14.6441 22.6467C14.6491 24.9498 14.6541 27.2521 14.6576 29.5545C20.4408 30.3367 26.2233 31.1375 31.9951 32C31.9951 30.3184 31.9959 28.6371 31.9968 26.956C31.9984 23.5946 32 20.2342 31.9951 16.8738Z" fill="black"/>
</svg>
