<svg width="96" height="71" viewBox="0 0 96 71" fill="none" xmlns="http://www.w3.org/2000/svg">
<g clip-path="url(#clip0_2695_5344)">
<g opacity="0.87">
<path d="M94.9372 12.6486C94.6882 11.7427 94.2073 10.9356 93.5591 10.2874C92.6189 9.35144 91.3395 8.75899 89.9228 8.72464H84.3932V6.299C84.3932 6.16592 84.3889 6.03712 84.3803 5.90833C84.2858 4.59891 83.7106 3.414 82.8305 2.5382C81.8688 1.57653 80.5422 0.979778 79.0868 0.971191H59.9865C58.5183 0.971191 57.1874 1.57223 56.2214 2.5382C55.3413 3.41829 54.7661 4.59891 54.6716 5.90833C54.663 6.03712 54.6587 6.16592 54.6587 6.299V8.72464H24.0442C22.5802 8.72464 21.2451 9.32568 20.2791 10.2916C19.6351 10.9356 19.15 11.747 18.901 12.6529C18.7765 13.0994 18.7121 13.5716 18.7121 14.0567V65.6219C18.7121 67.0859 19.3131 68.4211 20.2791 69.3827C21.2451 70.3487 22.5802 70.9497 24.0442 70.9497H89.9314C91.3481 70.9154 92.6318 70.3229 93.5677 69.387C94.5336 68.4211 95.1347 67.0902 95.1347 65.6262V14.0482C95.1347 13.563 95.0703 13.0951 94.9458 12.6443H94.9415L94.9372 12.6486Z" fill="#002D9C"/>
</g>
<path d="M2.62557 69.241C3.69027 70.3057 5.15854 70.9669 6.77276 70.9669H90.7041C88.4544 70.8724 86.5225 69.5029 85.6167 67.5667C85.2646 66.8154 85.0671 65.9782 85.0671 65.0981V36.7933H85.0629V14.5161C85.0629 13.563 84.831 12.6572 84.4232 11.8586C83.4486 9.95248 81.4652 8.64307 79.1898 8.64307H6.77276C5.15854 8.64307 3.69027 9.30421 2.62557 10.3689C1.56087 11.4379 0.899719 12.9062 0.899719 14.5204V65.0981C0.899719 66.7124 1.56087 68.1806 2.62557 69.2453V69.241Z" fill="#0066FF"/>
<path d="M2.59554 69.2238C3.66024 70.2885 5.12851 70.9497 6.74273 70.9497H90.674C88.4244 70.8552 86.4925 69.4857 85.5866 67.5495C85.2346 66.7982 85.0371 65.961 85.0371 65.0809V36.7804H85.0328V14.5032C85.0328 13.5501 84.801 12.6442 84.3931 11.8457C83.4186 9.93954 81.4352 8.63013 79.1598 8.63013H6.74273C5.12851 8.63013 3.66024 9.29127 2.59554 10.356C1.53084 11.4207 0.86969 12.8889 0.86969 14.5032V65.0809C0.86969 66.6951 1.53084 68.1634 2.59554 69.2281V69.2238Z" fill="#0066FF"/>
<path d="M50.4257 56.7264C50.0822 56.7264 49.7345 56.5933 49.4726 56.3314C48.9488 55.8077 48.9488 54.9533 49.4726 54.4253L54.8047 49.0932L49.4726 43.761C48.9488 43.2373 48.9488 42.3829 49.4726 41.8549C49.9964 41.3268 50.8507 41.3311 51.3788 41.8549L57.6597 48.1358C57.913 48.3891 58.0546 48.7325 58.0546 49.0889C58.0546 49.4452 57.913 49.7886 57.6597 50.0419L51.3788 56.3271C51.1169 56.589 50.7691 56.7221 50.4257 56.7221V56.7264Z" fill="white"/>
<path d="M56.7108 50.4412H25.2935C24.5508 50.4412 23.9454 49.8402 23.9454 49.0932C23.9454 48.3462 24.5465 47.7451 25.2935 47.7451H56.7065C57.4493 47.7451 58.0546 48.3462 58.0546 49.0932C58.0546 49.8402 57.4536 50.4412 56.7065 50.4412H56.7108Z" fill="white"/>
<path d="M31.5787 37.8752C31.2352 37.8752 30.8918 37.7421 30.6256 37.4802L24.3404 31.195C24.0871 30.9417 23.9454 30.5983 23.9454 30.2419C23.9454 29.8856 24.0871 29.5422 24.3404 29.2889L30.6256 23.008C31.1494 22.4842 32.0037 22.4799 32.5318 23.008C33.0598 23.536 33.0555 24.3861 32.5318 24.9141L27.1997 30.2462L32.5318 35.5783C33.0598 36.1021 33.0598 36.9564 32.5318 37.4845C32.2699 37.7464 31.9264 37.8795 31.5787 37.8795V37.8752Z" fill="white"/>
<path d="M56.7108 31.5943H25.2935C24.5508 31.5943 23.9454 30.9933 23.9454 30.2462C23.9454 29.4992 24.5465 28.8982 25.2935 28.8982H56.7065C57.4493 28.8982 58.0546 29.4992 58.0546 30.2462C58.0546 30.9933 57.4536 31.5943 56.7065 31.5943H56.7108Z" fill="white"/>
</g>
<defs>
<clipPath id="clip0_2695_5344">
<rect width="94.2607" height="70" fill="white" transform="translate(0.86969 0.966797)"/>
</clipPath>
</defs>
</svg>
