<svg width="174" height="135" viewBox="0 0 174 135" fill="none" xmlns="http://www.w3.org/2000/svg">
<path d="M124.607 126.794C124.607 126.794 111.63 134.863 89.9252 134.863C68.2205 134.863 54.5352 126.794 54.5352 126.794L59.7427 73.4359L60.9508 60.98L118.358 59.6492C118.358 62.9763 118.587 67.4679 118.962 72.5417C120.503 94.2303 124.607 126.794 124.607 126.794Z" fill="#0066FF"/>
<path d="M118.962 72.5417C113.526 74.9331 102.923 78.5097 88.4672 78.5097C75.761 78.5097 65.8043 75.7441 59.7428 73.4359L60.9509 60.98L118.358 59.6492C118.358 62.9763 118.587 67.4679 118.962 72.5417Z" fill="#91BDFF"/>
<path d="M89.9046 72.5834C117.135 72.5834 139.209 67.9936 139.209 62.3317C139.209 56.6699 117.135 52.0801 89.9046 52.0801C62.6745 52.0801 40.6002 56.6699 40.6002 62.3317C40.6002 67.9936 62.6745 72.5834 89.9046 72.5834Z" fill="#0066FF"/>
<path d="M118.337 59.6491C118.337 62.9138 105.61 65.5547 89.9046 65.5547C74.1989 65.5547 61.4718 62.9138 61.4718 59.6491C61.4718 56.3843 74.1989 53.7227 89.9046 53.7227C105.61 53.7227 118.337 56.3635 118.337 59.6283V59.6491Z" fill="#001B42"/>
<path d="M131.007 0.161716L69.0082 24.0112L83.1561 60.9843L145.155 37.1347L131.007 0.161716Z" fill="#80B0FC"/>
<path fill-rule="evenodd" clip-rule="evenodd" d="M145.153 37.1121L104.194 21.6029L83.1582 60.9658L69.0066 23.9912L131.001 0.137451L145.153 37.1121Z" fill="#97BFFE"/>
<path fill-rule="evenodd" clip-rule="evenodd" d="M131.001 0.137451L110.425 30.7482C109.045 33.0734 106.45 33.8307 104.18 33.1074L69.0066 23.9911L131.001 0.137451Z" fill="#C0D8FF"/>
<g clip-path="url(#clip0_9152_6544)">
<path d="M50.2849 11.9604L10.5661 32.2593L11.94 34.9477L51.6588 14.6488L50.2849 11.9604Z" fill="#001B42"/>
<path d="M11.941 34.9493L2.38448 39.8351C2.17752 39.754 1.68651 39.5267 1.32535 38.9951C0.777523 38.1835 0.972306 37.2989 1.00883 37.1487C4.19433 35.5215 7.37984 33.8902 10.5653 32.2629L11.941 34.9493Z" fill="#0066FF"/>
<path d="M11.0644 33.2325L1.01282 37.1443L10.5693 32.2585L11.0644 33.2325Z" fill="#0058DB"/>
<path d="M11.9411 34.9492C10.4721 35.8055 8.41068 36.7997 5.81358 37.453C3.99967 37.9115 2.36431 38.0901 1.02112 38.1469C1.0617 38.3782 1.21996 39.1289 1.88547 39.5875C2.05996 39.7092 2.23445 39.7823 2.38865 39.835C5.57416 38.2078 8.75967 36.5765 11.9452 34.9492H11.9411Z" fill="#0058DB"/>
<path d="M51.6483 14.6512L61.2049 9.76539C61.2617 9.55031 61.3631 9.01872 61.144 8.41408C60.8072 7.49292 59.9793 7.13582 59.8333 7.07495C56.6477 8.7022 53.4622 10.3335 50.2767 11.9607L51.6524 14.6471L51.6483 14.6512Z" fill="#0066FF"/>
<path d="M50.7678 12.9345L59.8293 7.07886L50.2728 11.9647L50.7678 12.9345Z" fill="#0058DB"/>
<path d="M51.6483 14.6511C53.2065 13.9612 55.2152 12.8737 57.2685 11.1531C58.701 9.95197 59.8048 8.73052 60.6367 7.67139C60.799 7.83776 61.3184 8.40994 61.3022 9.21747C61.2981 9.42849 61.2575 9.61516 61.2088 9.76936C58.0233 11.3966 54.8378 13.0279 51.6523 14.6552L51.6483 14.6511Z" fill="#0058DB"/>
<path d="M17.5367 28.6998C17.5367 28.6998 32.8312 22.5155 46.0075 14.1479L17.5367 28.6998Z" fill="#5D5D66"/>
<path d="M74.7792 6.82709C74.7792 6.82709 79.4783 5.20391 79.7542 1.57202C79.7542 1.57202 80.4441 6.33202 83.9705 6.83521C83.9705 6.83521 80.5334 7.89028 79.3769 12.5894C79.3769 12.5894 79.2024 9.08333 74.7832 6.82709H74.7792Z" fill="#C6D7FF"/>
<path d="M65.1411 3.46709C65.1411 3.46709 66.8374 2.88275 66.9348 1.57202C66.9348 1.57202 67.1823 3.28854 68.4565 3.47115C68.4565 3.47115 67.2148 3.8526 66.7968 5.54883C66.7968 5.54883 66.7359 4.28275 65.1371 3.47115L65.1411 3.46709Z" fill="#C6D7FF"/>
<path d="M68.4568 15.6775C68.4568 15.6775 70.9119 14.8294 71.0539 12.9343C71.0539 12.9343 71.415 15.4219 73.2533 15.6816C73.2533 15.6816 71.4597 16.2335 70.855 18.6885C70.855 18.6885 70.7658 16.8584 68.4568 15.6816V15.6775Z" fill="#C6D7FF"/>
<path d="M63.0515 19.5772C63.0515 20.0682 62.6538 20.4659 62.1628 20.4659C61.6718 20.4659 61.2741 20.0682 61.2741 19.5772C61.2741 19.0862 61.6718 18.6885 62.1628 18.6885C62.6538 18.6885 63.0515 19.0862 63.0515 19.5772Z" fill="#C6D7FF"/>
<path d="M66.5453 10.0085C66.5453 10.5239 66.1273 10.9419 65.6119 10.9419C65.0966 10.9419 64.6786 10.5239 64.6786 10.0085C64.6786 9.49317 65.0966 9.0752 65.6119 9.0752C66.1273 9.0752 66.5453 9.49317 66.5453 10.0085Z" fill="#C6D7FF"/>
</g>
<g opacity="0.7">
<path d="M66.8334 98.146L65.8729 100.095L63.7148 100.406L65.2741 101.925L64.9061 104.067L66.8334 103.052L68.7607 104.067L68.3927 101.925L69.952 100.406L67.7939 100.095L66.8334 98.146Z" fill="white"/>
<path d="M128.061 12.283L127.101 14.2317L124.943 14.5431L126.502 16.0622L126.134 18.1978L128.061 17.1892L129.988 18.1978L129.62 16.0622L131.18 14.5431L129.022 14.2317L128.061 12.283Z" fill="white"/>
<path d="M169.933 64.3379L168.973 66.2805L166.821 66.598L168.38 68.1109L168.012 70.2527L169.933 69.2441L171.86 70.2527L171.492 68.1109L173.052 66.598L170.9 66.2805L169.933 64.3379Z" fill="white"/>
<path d="M87.1166 37.092L86.524 38.2999L85.1893 38.4929L86.156 39.4269L85.9253 40.753L87.1166 40.1242L88.3078 40.753L88.0833 39.4269L89.0438 38.4929L87.7153 38.2999L87.1166 37.092Z" fill="white"/>
<path d="M3.327 68.0361L2.73446 69.244L1.39973 69.437L2.36648 70.3709L2.1357 71.6971L3.327 71.0683L4.5183 71.6971L4.28752 70.3709L5.25427 69.437L3.91952 69.244L3.327 68.0361Z" fill="white"/>
<path d="M84.5966 113.3L84.0041 114.502L82.6693 114.695L83.6361 115.629L83.4053 116.955L84.5966 116.332L85.7879 116.955L85.5633 115.629L86.5239 114.695L85.1954 114.502L84.5966 113.3Z" fill="white"/>
<path d="M162.28 95.0513L161.931 95.7548L161.158 95.8669L161.719 96.4086L161.588 97.1806L162.28 96.8195L162.973 97.1806L162.842 96.4086L163.403 95.8669L162.623 95.7548L162.28 95.0513Z" fill="white"/>
<path d="M33.92 114.926L33.577 115.623L32.7974 115.735L33.3587 116.283L33.2277 117.055L33.92 116.688L34.6124 117.055L34.4814 116.283L35.0427 115.735L34.2693 115.623L33.92 114.926Z" fill="white"/>
<path d="M20.348 49.5383L19.9987 50.2357L19.2253 50.3477L19.7867 50.8956L19.6557 51.6677L20.348 51.3003L21.0403 51.6677L20.9094 50.8956L21.4707 50.3477L20.6973 50.2357L20.348 49.5383Z" fill="white"/>
<path d="M90.9713 85.3389L90.622 86.0362L89.8486 86.1545L90.4099 86.6962L90.2789 87.4682L90.9713 87.1009L91.6636 87.4682L91.5326 86.6962L92.0877 86.1545L91.3143 86.0362L90.9713 85.3389Z" fill="white"/>
<path d="M164.482 17.2056L163.247 19.7147L160.472 20.1132L162.48 22.0682L162.006 24.8202L164.482 23.5189L166.965 24.8202L166.49 22.0682L168.499 20.1132L165.723 19.7147L164.482 17.2056Z" fill="white"/>
</g>
<defs>
<clipPath id="clip0_9152_6544">
<rect width="83.018" height="38.2626" fill="white" transform="translate(0.948242 1.57202)"/>
</clipPath>
</defs>
</svg>
