<svg width="126" height="71" viewBox="0 0 126 71" fill="none" xmlns="http://www.w3.org/2000/svg">
<path d="M46.7665 44.3157L74.3672 35.1478L73.3502 32.104L78.2653 30.4716L79.2824 33.5154L81.74 32.6991L80.7229 29.6553L83.5589 28.7136L84.576 31.7574L88.5461 30.4389L88.0648 28.9974L93.1689 27.3022L93.6501 28.7437L95.9188 27.9903L94.9833 25.1906L101.072 23.168L102.008 25.9677L106.695 24.4109L105.678 21.3671L110.687 19.7033L111.705 22.7471L117.537 20.8097C118.225 20.581 118.806 20.1095 119.17 19.4842L125.07 9.35526C125.805 8.09315 125.511 6.48509 124.376 5.56253L119.543 1.63526C118.753 0.993312 117.688 0.798551 116.721 1.12016L46.4356 24.4647L46.7665 44.3157Z" fill="#0058DB"/>
<path d="M2.17524 49.1472C7.75733 65.8563 25.867 74.8897 42.6249 69.3236C59.382 63.7575 68.4414 45.6991 62.8593 28.99C57.2772 12.2808 39.1669 3.24743 22.4097 8.81352C5.65184 14.3796 -3.40685 32.438 2.17524 49.1472ZM25.0497 41.5489C26.1799 44.9322 24.3456 48.5892 20.9525 49.7161C17.5594 50.843 13.892 49.0139 12.7618 45.6306C11.6316 42.2472 13.466 38.5903 16.8591 37.4634C20.2521 36.3365 23.9196 38.1656 25.0497 41.5489Z" fill="url(#paint0_linear_2695_5300)"/>
<path d="M22.4096 8.81356C5.65178 14.3797 -3.40691 32.4381 2.17518 49.1472C7.75727 65.8564 25.8669 74.8897 42.6248 69.3237C56.2453 64.7993 64.779 52.0225 64.5002 38.4251L67.4589 37.4423C66.1077 33.6528 66.5504 31.4021 67.3966 29.9978C69.7752 26.05 75.4016 28.5774 84.2849 24.5976C91.7379 21.2585 91.63 17.7534 98.9051 15.5527C103.996 14.0132 106.302 15.0479 110.752 14.5501C114.702 14.108 119.738 12.5217 125.466 7.91343C125.481 7.02867 125.104 6.15353 124.375 5.56155L119.542 1.63428C118.752 0.992336 117.687 0.797574 116.721 1.11919L58.4979 20.4583C50.543 9.41066 36.0301 4.28919 22.4096 8.81356ZM12.7617 45.6306C11.6316 42.2473 13.4659 38.5904 16.859 37.4634C20.2521 36.3365 23.9195 38.1656 25.0497 41.5489C26.1798 44.9323 24.3455 48.5892 20.9524 49.7161C17.5593 50.8431 13.8919 49.014 12.7617 45.6306Z" fill="#0066FF"/>
<path d="M8.12988 47.1697C12.6165 60.5993 27.1718 67.86 40.6407 63.3862C54.1095 58.9124 61.3904 44.3982 56.9038 30.9686C52.4172 17.5384 37.8618 10.2784 24.393 14.7521C10.9241 19.2259 3.64326 33.7395 8.12988 47.1697Z" fill="white"/>
<path d="M31.4515 37.6288L29.8089 27.168H35.4937L33.8512 37.6288L43.2703 32.875L45.0412 38.2729L34.6725 40.0508L42.064 47.4712L37.5085 50.8337L32.6449 41.4421L27.7813 50.8337L23.2258 47.4712L30.6174 40.0508L20.2486 38.2729L22.0195 32.875L31.4386 37.6288H31.4515Z" fill="#003380"/>
<defs>
<linearGradient id="paint0_linear_2695_5300" x1="4.61742" y1="63.6648" x2="129.856" y2="-47.4998" gradientUnits="userSpaceOnUse">
<stop stop-color="#FFC444"/>
<stop offset="1" stop-color="#F36F56"/>
</linearGradient>
</defs>
</svg>
