<svg width="124" height="82" viewBox="0 0 124 82" fill="none" xmlns="http://www.w3.org/2000/svg">
<rect y="29.1412" width="124" height="23.907" rx="6.39512" fill="#80B0FC"/>
<path d="M8.62866 40.5523L7.99887 36.4953L10.1785 36.4953L9.54874 40.5523L13.1602 38.7086L13.8392 40.8021L9.86364 41.4915L12.6977 44.3694L10.951 45.6734L9.08624 42.0311L7.22147 45.6734L5.4748 44.3694L8.30885 41.4915L4.33331 40.8021L5.0123 38.7086L8.62373 40.5523L8.62866 40.5523Z" fill="#C0D8FF"/>
<path d="M21.9258 40.5523L21.296 36.4953L23.4756 36.4953L22.8459 40.5523L26.4573 38.7086L27.1363 40.8021L23.1608 41.4915L25.9948 44.3694L24.2481 45.6734L22.3834 42.0311L20.5186 45.6734L18.7719 44.3694L21.606 41.4915L17.6304 40.8021L18.3094 38.7086L21.9209 40.5523L21.9258 40.5523Z" fill="#C0D8FF"/>
<path d="M35.2229 40.5523L34.5931 36.4953L36.7728 36.4953L36.143 40.5523L39.7544 38.7086L40.4334 40.8021L36.4579 41.4915L39.2919 44.3694L37.5452 45.6734L35.6805 42.0311L33.8157 45.6734L32.069 44.3694L34.9031 41.4915L30.9276 40.8021L31.6065 38.7086L35.218 40.5523L35.2229 40.5523Z" fill="#C0D8FF"/>
<path d="M48.5201 40.5523L47.8903 36.4953L50.0699 36.4953L49.4402 40.5523L53.0516 38.7086L53.7306 40.8021L49.7551 41.4915L52.5891 44.3694L50.8424 45.6734L48.9777 42.0311L47.1129 45.6734L45.3662 44.3694L48.2003 41.4915L44.2247 40.8021L44.9037 38.7086L48.5152 40.5523L48.5201 40.5523Z" fill="#C0D8FF"/>
<path d="M61.8172 40.5523L61.1874 36.4953L63.3671 36.4953L62.7373 40.5523L66.3487 38.7086L67.0277 40.8021L63.0522 41.4915L65.8862 44.3694L64.1395 45.6734L62.2748 42.0311L60.41 45.6734L58.6633 44.3694L61.4974 41.4915L57.5219 40.8021L58.2008 38.7086L61.8123 40.5523L61.8172 40.5523Z" fill="#C0D8FF"/>
<path d="M75.1144 40.5523L74.4846 36.4953L76.6642 36.4953L76.0345 40.5523L79.6459 38.7086L80.3249 40.8021L76.3494 41.4915L79.1834 44.3694L77.4367 45.6734L75.572 42.0311L73.7072 45.6734L71.9605 44.3694L74.7946 41.4915L70.819 40.8021L71.498 38.7086L75.1095 40.5523L75.1144 40.5523Z" fill="#C0D8FF"/>
<path d="M88.4115 40.5523L87.7817 36.4953L89.9614 36.4953L89.3316 40.5523L92.943 38.7086L93.622 40.8021L89.6465 41.4915L92.4805 44.3694L90.7338 45.6734L88.8691 42.0311L87.0043 45.6734L85.2576 44.3694L88.0917 41.4915L84.1161 40.8021L84.7951 38.7086L88.4066 40.5523L88.4115 40.5523Z" fill="#C0D8FF"/>
<path d="M101.709 40.5523L101.079 36.4953L103.259 36.4953L102.629 40.5523L106.24 38.7086L106.919 40.8021L102.944 41.4915L105.778 44.3694L104.031 45.6734L102.166 42.0311L100.301 45.6734L98.5548 44.3694L101.389 41.4915L97.4133 40.8021L98.0923 38.7086L101.704 40.5523L101.709 40.5523Z" fill="#C0D8FF"/>
<path d="M115.006 40.5523L114.376 36.4953L116.556 36.4953L115.926 40.5523L119.537 38.7086L120.216 40.8021L116.241 41.4915L119.075 44.3694L117.328 45.6734L115.463 42.0311L113.599 45.6734L111.852 44.3694L114.686 41.4915L110.71 40.8021L111.389 38.7086L115.001 40.5523L115.006 40.5523Z" fill="#C0D8FF"/>
<g clip-path="url(#clip0_5781_20141)">
<path d="M62.2493 81.1652C53.5363 78.5602 46.422 73.5113 41.1001 66.1529C36.8511 60.2773 33.7349 52.9285 31.8351 44.3085C28.6089 29.6542 30.0452 16.2088 30.0619 16.0766L30.0858 15.8507L30.3056 15.8074C42.6606 13.4476 50.6471 9.60738 55.1709 6.80054C60.0698 3.76058 62.0748 1.24692 62.0939 1.22289L62.3329 0.920092L62.5719 1.22289C62.591 1.24692 64.596 3.76299 69.4949 6.80054C74.0187 9.60738 82.0052 13.45 94.3602 15.8074L94.58 15.8507L94.6039 16.0766C94.6182 16.2112 96.0569 29.6542 92.8283 44.3085C90.9309 52.9285 87.8123 60.2773 83.5633 66.1529C78.2438 73.5113 71.1271 78.5602 62.4141 81.1652L62.3281 81.1916L62.2421 81.1652H62.2493Z" fill="#3B8EFF"/>
<path d="M62.3397 77.9626C48.5824 73.0449 39.5721 61.2835 35.5414 42.9688C33.4272 33.3675 33.2401 24.3232 33.3898 18.9294C48.0371 15.4187 57.1543 10.1836 62.3397 6.26134C67.5224 10.1836 76.6396 15.4187 91.2817 18.9294C91.4314 24.4066 91.2336 33.6392 89.0632 43.3104C84.9951 61.4314 76.0088 73.0799 62.3397 77.9653V77.9626Z" fill="#0166FF"/>
<path d="M70.5535 33.2563C70.5535 28.6904 66.8733 24.9896 62.3328 24.9896C57.7923 24.9896 54.1121 28.6904 54.1121 33.2563C54.1121 36.5822 56.0645 39.4468 58.8796 40.7589L57.257 59.1812H67.4062L65.7836 40.7589C68.5987 39.4468 70.5511 36.5822 70.5511 33.2563H70.5535Z" fill="#001B42"/>
</g>
<defs>
<clipPath id="clip0_5781_20141">
<rect width="65.8373" height="81.0838" fill="white" transform="translate(29.4166 0.424908)"/>
</clipPath>
</defs>
</svg>
