<svg width="92" height="81" viewBox="0 0 92 81" fill="none" xmlns="http://www.w3.org/2000/svg">
<path d="M91.5632 16.2112V76.2949C91.5632 77.4846 91.0432 78.5513 90.2083 79.2763C89.5188 79.8883 88.6042 80.2514 87.6212 80.2514H4.37556C3.38122 80.2514 2.47795 79.8883 1.78849 79.2763C0.953538 78.5513 0.433594 77.4846 0.433594 76.2949V16.2124C0.433594 14.0272 2.19837 12.2559 4.37556 12.2559H87.6225C89.7984 12.2559 91.5632 14.0272 91.5632 16.2112Z" fill="#97BFFE"/>
<path d="M90.2083 79.2751C89.5189 79.8871 88.6042 80.2502 87.6213 80.2502H4.37565C3.3813 80.2502 2.47804 79.8871 1.78857 79.2751L42.3671 48.8542L45.9928 46.2461L49.6298 48.8542L90.2083 79.2751Z" fill="#80B0FC"/>
<path opacity="0.15" d="M91.5653 16.2112V20.3176L53.4284 51.5778L52.5365 50.9429L48.3972 54.0551C46.9803 55.1204 45.0321 55.1229 43.6127 54.0601L39.4772 50.9657L38.5625 51.5892L0.437012 20.3176V16.2124C0.437012 14.0272 2.20179 12.2559 4.37898 12.2559H87.6259C89.8018 12.2559 91.5666 14.0272 91.5666 16.2112H91.5653Z" fill="#80B0FC"/>
<path d="M91.5632 16.2112V17.472L49.6298 48.8567L48.328 49.7925C46.9377 50.7918 45.0679 50.793 43.6776 49.7963L42.367 48.8567L0.433594 17.472V16.2124C0.433594 14.0272 2.19837 12.2559 4.37556 12.2559H87.6225C89.7984 12.2559 91.5632 14.0272 91.5632 16.2112Z" fill="#C0D8FF"/>
<path d="M58.2824 11.7503C58.2824 11.7503 68.1302 8.35772 68.6956 0.748047C68.6956 0.748047 70.1327 10.7137 77.5304 11.7738C77.5304 11.7738 70.3212 13.9884 67.8946 23.8362C67.8946 23.8362 67.5412 16.4857 58.2588 11.7738L58.2824 11.7503Z" fill="#DDE7FF"/>
<path d="M6.55469 57.2933C6.55469 57.2933 20.8081 52.3694 21.6327 41.3672C21.6327 41.3672 23.7295 55.8091 34.4018 57.3169C34.4018 57.3169 23.9886 60.521 20.4783 74.7744C20.4783 74.7744 19.96 64.1491 6.55469 57.3169V57.2933Z" fill="white"/>
</svg>
