<svg width="104" height="71" viewBox="0 0 104 71" fill="none" xmlns="http://www.w3.org/2000/svg">
<rect width="44.4542" height="8.29393" rx="4.14696" transform="matrix(0.966832 0.255413 -0.262264 0.964996 60.9731 43.5227)" fill="#0066FF"/>
<path d="M41.6665 40.797C41.6765 40.7959 41.7061 40.7877 41.7279 40.7831L41.8018 40.7679C41.8515 40.758 41.9029 40.7493 41.9543 40.7411C42.0566 40.7248 42.1612 40.7149 42.264 40.7073C42.4709 40.6939 42.6765 40.6974 42.8739 40.7201C43.2699 40.765 43.6293 40.8914 43.9177 41.0884C43.9526 41.1146 43.9904 41.1368 44.0235 41.1647L44.1234 41.2475C44.1854 41.3092 44.2487 41.3663 44.3031 41.4345C44.3622 41.4963 44.41 41.5732 44.4626 41.642C44.5076 41.72 44.559 41.79 44.598 41.8739C44.7658 42.1944 44.8811 42.5626 44.9514 42.9548C45.0383 43.4396 45.5076 43.763 45.9993 43.6774C46.491 43.5917 46.8191 43.129 46.7322 42.6442C46.7239 42.5982 46.7121 42.5539 46.6973 42.5108L46.6884 42.4857C46.5105 41.9828 46.267 41.4794 45.9201 41.0208C45.8385 40.9048 45.7363 40.797 45.6417 40.6881C45.5365 40.5849 45.4366 40.4789 45.319 40.3868C45.2079 40.2901 45.0838 40.2062 44.9609 40.1229L44.7682 40.0104C44.7038 39.9737 44.6352 39.944 44.569 39.9113C44.0294 39.6613 43.4455 39.5722 42.9005 39.5967C42.6269 39.6083 42.3609 39.6468 42.1027 39.7045C41.9732 39.7342 41.8461 39.7674 41.7203 39.8082C41.657 39.828 41.5944 39.8496 41.5317 39.8723C41.5004 39.8834 41.4685 39.8962 41.4372 39.9084L41.332 39.9521C41.1003 40.0483 40.9921 40.3111 41.0896 40.5389C41.1712 40.73 41.3716 40.8361 41.5701 40.8093L41.6665 40.7959V40.797Z" fill="#00189C"/>
<path d="M30.0208 28.6294L30.0799 28.5333C30.0964 28.5041 30.1142 28.475 30.1295 28.4459C30.162 28.3876 30.1922 28.3299 30.2211 28.2711C30.2802 28.1539 30.3317 28.0345 30.3801 27.9127C30.4753 27.6691 30.5521 27.4145 30.6035 27.1494C30.707 26.6214 30.7016 26.0387 30.5285 25.4764C30.5054 25.4071 30.4853 25.336 30.4575 25.2678L30.3724 25.0639C30.3068 24.9322 30.2406 24.7987 30.1591 24.6764C30.0834 24.5482 29.9918 24.4357 29.9032 24.318C29.8074 24.2102 29.714 24.0948 29.6094 23.9987C29.1992 23.5943 28.7294 23.2843 28.2501 23.0378L28.2306 23.0279C27.7879 22.8006 27.2418 22.9702 27.0113 23.4072C26.7808 23.8437 26.9527 24.3821 27.396 24.6093C27.438 24.6309 27.4859 24.6501 27.529 24.6647C27.9126 24.79 28.2654 24.9555 28.5627 25.1658C28.6413 25.2159 28.704 25.276 28.7761 25.3313C28.8375 25.3925 28.9073 25.4502 28.9611 25.5166C29.0219 25.5795 29.0704 25.6501 29.123 25.7194L29.1922 25.8289C29.2158 25.8657 29.2323 25.9053 29.2536 25.9432C29.4097 26.2532 29.4847 26.622 29.4723 27.0148C29.4664 27.2105 29.4404 27.4116 29.3972 27.6114C29.3748 27.7111 29.3494 27.8113 29.3186 27.9092C29.3033 27.9582 29.2873 28.0065 29.2702 28.0543L29.2442 28.1242C29.2365 28.1446 29.2241 28.1726 29.2217 28.1825L29.1951 28.274C29.1254 28.5117 29.2643 28.7605 29.5054 28.8293C29.7075 28.887 29.9173 28.7996 30.0208 28.6306V28.6294Z" fill="#00189C"/>
<path d="M38.9301 46.0171C38.9401 46.02 38.9697 46.0258 38.9915 46.0311L39.0648 46.0491C39.1145 46.0614 39.1641 46.0754 39.2137 46.0905C39.313 46.1196 39.4117 46.1552 39.5081 46.1925C39.7002 46.2688 39.884 46.3603 40.0518 46.4652C40.3887 46.675 40.657 46.943 40.8302 47.2437C40.8503 47.2827 40.8739 47.3183 40.8917 47.3579L40.9449 47.4756C40.9732 47.5578 41.0057 47.6358 41.0247 47.7215C41.0507 47.8025 41.0601 47.8922 41.0773 47.9767C41.0838 48.0665 41.0991 48.1515 41.0968 48.2436C41.1068 48.6043 41.0489 48.9848 40.9396 49.3688C40.8042 49.8425 41.0844 50.3349 41.5649 50.4678C42.0454 50.6012 42.5448 50.325 42.6801 49.8513C42.6931 49.8064 42.702 49.7615 42.7073 49.7167L42.7103 49.6899C42.7717 49.1608 42.7741 48.6031 42.6636 48.0414C42.6411 47.9016 42.5968 47.7611 42.5596 47.623C42.5099 47.4849 42.4668 47.3468 42.4012 47.2134C42.3438 47.0782 42.2688 46.9494 42.1949 46.8224L42.0708 46.6382C42.0294 46.5776 41.9804 46.5211 41.9354 46.4634C41.5595 46.0078 41.0725 45.6768 40.5713 45.4658C40.3196 45.3592 40.0631 45.28 39.8048 45.2211C39.6753 45.1926 39.5459 45.1681 39.4147 45.1506C39.3491 45.1419 39.2835 45.1337 39.2167 45.1279C39.1836 45.1244 39.1493 45.1226 39.1156 45.1197L39.0016 45.1139C38.751 45.1011 38.537 45.2916 38.5246 45.5387C38.514 45.7455 38.6475 45.9273 38.8384 45.9879L38.9306 46.0171H38.9301Z" fill="#00189C"/>
<path d="M33.3069 48.981C33.3128 48.9891 33.3341 49.0113 33.3483 49.0276L33.3973 49.0841C33.4298 49.1226 33.4623 49.1628 33.4936 49.2036C33.5569 49.2846 33.6154 49.3702 33.6715 49.4565C33.7821 49.6295 33.8766 49.8096 33.9505 49.9914C34.0995 50.3562 34.1574 50.7279 34.119 51.0717C34.1125 51.1149 34.1101 51.1574 34.1012 51.1999L34.0746 51.3258C34.0492 51.4085 34.0285 51.4907 33.9931 51.5711C33.9659 51.6521 33.9204 51.7296 33.8843 51.8083C33.8359 51.8846 33.798 51.9621 33.7419 52.0361C33.5356 52.3339 33.2626 52.6095 32.9458 52.8571C32.5545 53.1631 32.4895 53.7236 32.7998 54.1094C33.1101 54.4951 33.6786 54.5592 34.0699 54.2533C34.1071 54.2242 34.1408 54.1933 34.1721 54.1601L34.1905 54.1403C34.5545 53.7469 34.8879 53.2959 35.132 52.7773C35.1964 52.6509 35.2443 52.5116 35.2963 52.3776C35.3382 52.2371 35.3849 52.1002 35.4115 51.9545C35.4452 51.8118 35.4606 51.6643 35.4765 51.5187L35.4854 51.2978C35.4878 51.2244 35.4819 51.151 35.4795 51.0781C35.4458 50.4914 35.2472 49.9425 34.9665 49.4821C34.8258 49.2508 34.6651 49.0381 34.4907 48.8411C34.4026 48.7432 34.3122 48.6488 34.2159 48.5585C34.168 48.5131 34.1195 48.4694 34.0687 48.4257C34.0439 48.4041 34.0173 48.382 33.9913 48.3604L33.902 48.2899C33.7064 48.1349 33.4204 48.1658 33.2631 48.3587C33.1313 48.5201 33.1319 48.7444 33.2507 48.9041L33.3081 48.981H33.3069Z" fill="url(#paint0_linear_2695_5314)"/>
<path d="M26.0007 31.409L26.0243 31.2988C26.0302 31.2662 26.0373 31.2324 26.042 31.2003C26.0533 31.1351 26.0621 31.0704 26.0704 31.0057C26.087 30.8764 26.0952 30.7464 26.1005 30.6159C26.1088 30.3548 26.0958 30.0897 26.0556 29.8228C25.9764 29.2908 25.7755 28.7425 25.4238 28.2682C25.3783 28.2105 25.3358 28.1499 25.2867 28.0945L25.1378 27.9296C25.032 27.8271 24.9244 27.7228 24.8068 27.6336C24.6927 27.5375 24.568 27.4611 24.4451 27.3784C24.3186 27.3079 24.1921 27.2292 24.0609 27.1727C23.5378 26.925 22.9906 26.7852 22.4557 26.7089L22.4338 26.7059C21.9397 26.636 21.4811 26.974 21.4101 27.4611C21.3392 27.9483 21.682 28.4004 22.1761 28.4704C22.2228 28.4768 22.2742 28.4797 22.3203 28.4791C22.7246 28.4721 23.1129 28.5141 23.464 28.6149C23.555 28.6364 23.6342 28.6726 23.7205 28.7017C23.7991 28.7396 23.8842 28.771 23.9575 28.8165C24.0361 28.8561 24.1052 28.9068 24.1785 28.9546L24.2802 29.0356C24.3145 29.0624 24.344 29.0944 24.3765 29.1236C24.6277 29.3648 24.8221 29.6888 24.9421 30.0635C25.0024 30.2505 25.045 30.4487 25.0716 30.6514C25.084 30.7528 25.0934 30.8554 25.097 30.9579C25.0988 31.0092 25.0999 31.0605 25.0999 31.1106L25.0988 31.1852C25.0988 31.2073 25.0964 31.2371 25.097 31.2475L25.1023 31.3425C25.1159 31.5896 25.3304 31.779 25.5816 31.7656C25.7914 31.7539 25.9605 31.6036 26.0018 31.4101L26.0007 31.409Z" fill="#00189C"/>
<path d="M22.6649 37.7632L22.6052 37.6671C22.5868 37.6391 22.5679 37.6099 22.5496 37.5831C22.5124 37.5284 22.4739 37.4748 22.4344 37.4223C22.3557 37.3168 22.2718 37.2172 22.1843 37.1187C22.0082 36.9235 21.8144 36.7394 21.5986 36.5733C21.1701 36.2406 20.6424 35.9784 20.056 35.8723C19.9828 35.8612 19.9095 35.8461 19.8356 35.8391L19.6122 35.8205C19.4638 35.8175 19.3131 35.8146 19.1654 35.8298C19.0152 35.8374 18.8716 35.8659 18.7251 35.8898C18.5838 35.9242 18.4372 35.9533 18.3025 36.0005C17.7499 36.1747 17.2546 36.444 16.8131 36.7516L16.7953 36.7639C16.3875 37.0476 16.29 37.6041 16.5784 38.0062C16.8663 38.4083 17.4307 38.5044 17.8385 38.22C17.8769 38.1932 17.9165 38.16 17.9496 38.1286C18.2386 37.85 18.5495 37.6169 18.8752 37.4526C18.9561 37.4066 19.0389 37.3792 19.1222 37.3413C19.2056 37.3157 19.2895 37.2807 19.374 37.2644C19.4591 37.2399 19.5442 37.23 19.6305 37.2155L19.7605 37.205C19.8043 37.2009 19.8474 37.205 19.8917 37.2032C20.2428 37.2085 20.6093 37.3116 20.958 37.5027C21.1323 37.5977 21.3013 37.7125 21.4615 37.8419C21.5413 37.9071 21.6199 37.9753 21.6938 38.047C21.731 38.0825 21.7671 38.1192 21.8019 38.1559L21.8528 38.2107C21.8676 38.227 21.8871 38.2503 21.8947 38.2573L21.9651 38.3226C22.1477 38.4927 22.4349 38.4852 22.6075 38.3051C22.7523 38.1548 22.7695 37.931 22.6649 37.762V37.7632Z" fill="url(#paint1_linear_2695_5314)"/>
<path d="M23.7808 32.558C20.8777 36.6952 18.8895 44.6281 23.4085 48.4583C27.7047 52.1002 35.0612 50.0805 38.871 46.1805C43.6406 41.298 43.9745 32.308 39.4526 28.7844C35.9649 26.0672 30.7774 27.5275 30.294 27.6708C26.4795 28.8013 24.4759 31.568 23.7814 32.558H23.7808Z" fill="#00189C"/>
<path d="M36.7119 28.1295C37.0051 27.7356 37.2752 27.3417 37.5411 26.9379C37.8053 26.5347 38.0612 26.1256 38.3059 25.7101C38.5506 25.2947 38.7858 24.8722 39.011 24.4445C39.235 24.0156 39.4466 23.5798 39.6476 23.1381C40.0418 22.2506 40.3905 21.3358 40.634 20.3778L40.6807 20.1983L40.7203 20.0165C40.7463 19.8953 40.7747 19.7747 40.7983 19.6523C40.8403 19.4064 40.887 19.1611 40.9118 18.91C40.9472 18.6611 40.9555 18.4065 40.9721 18.1536C40.9721 17.8978 40.9786 17.642 40.9537 17.3833L40.9401 17.1892C40.9354 17.1246 40.923 17.0599 40.9147 16.9952L40.8864 16.8006C40.8751 16.7359 40.8704 16.6706 40.8533 16.6065L40.7628 16.2196C40.7487 16.1532 40.7292 16.0967 40.712 16.0349C40.6949 15.9743 40.6765 15.9143 40.657 15.8537C40.5046 15.37 40.3213 14.8858 40.0335 14.4056C39.8881 14.1662 39.7161 13.9261 39.475 13.7017C39.3538 13.5899 39.2149 13.4821 39.0471 13.3912C38.8804 13.3008 38.6824 13.228 38.4661 13.1989C38.2504 13.168 38.0199 13.1872 37.8142 13.2478C37.6073 13.3073 37.4247 13.4034 37.2722 13.5129C36.9655 13.735 36.7586 14.0007 36.5979 14.2681C36.4371 14.5373 36.3254 14.8147 36.2432 15.0956C36.1611 15.3764 36.1114 15.6608 36.089 15.9469C36.0665 16.233 36.0707 16.5203 36.1032 16.8052C36.1185 16.948 36.1422 17.0902 36.1717 17.2312L36.1948 17.3367L36.219 17.4346C36.235 17.4998 36.2533 17.5657 36.2716 17.6327C36.3094 17.7661 36.3544 17.903 36.4117 18.047C36.4708 18.1921 36.5376 18.3424 36.6558 18.5172C36.6836 18.5598 36.7202 18.607 36.7563 18.6512L36.8201 18.7229C36.8414 18.7462 36.8691 18.7724 36.8946 18.7963C37.0009 18.8936 37.1493 19.002 37.3561 19.0702C37.4596 19.1034 37.5736 19.125 37.6871 19.1273C37.8018 19.1314 37.9094 19.1162 38.0086 19.0929C38.2049 19.044 38.3449 18.9636 38.4561 18.889C38.5666 18.8126 38.6493 18.7375 38.7208 18.6658C38.7918 18.5936 38.8515 18.5248 38.9046 18.4566C39.011 18.3214 39.0944 18.1932 39.1706 18.0662C39.2463 17.9392 39.3125 17.8151 39.3745 17.6898C39.4052 17.6274 39.4348 17.5645 39.4638 17.501L39.5063 17.4048L39.5276 17.3547L39.5512 17.2959L39.5536 17.2895C39.7368 16.8332 39.5104 16.3169 39.0477 16.1363C38.5849 15.9556 38.0612 16.1788 37.878 16.6351C37.8703 16.6543 37.8627 16.6759 37.8562 16.6951C37.8562 16.6951 37.8514 16.7102 37.8479 16.7196L37.8361 16.7528L37.8106 16.8215C37.7929 16.8676 37.774 16.9136 37.7551 16.9591C37.7167 17.05 37.6753 17.138 37.6333 17.219C37.5914 17.2988 37.5482 17.3734 37.5098 17.4281C37.4744 17.4823 37.4348 17.5196 37.4572 17.5056C37.4702 17.4992 37.5027 17.4771 37.5819 17.4579C37.6227 17.4474 37.67 17.4433 37.7244 17.4439C37.7776 17.4462 37.8319 17.4555 37.878 17.4718C37.9702 17.5033 38.0163 17.5441 38.0335 17.5616C38.037 17.5645 38.0423 17.5715 38.0429 17.5727C38.0441 17.5744 38.0453 17.5761 38.0459 17.5779C38.0447 17.5761 38.0429 17.5779 38.0376 17.5697C38.0175 17.5488 37.9791 17.4847 37.9448 17.4107C37.9094 17.3355 37.8745 17.2487 37.842 17.1543C37.826 17.1071 37.8095 17.0599 37.7947 17.0098L37.7722 16.9358L37.7533 16.8682C37.7291 16.7778 37.7078 16.6864 37.693 16.5931C37.6605 16.4078 37.6469 16.2179 37.6511 16.0296C37.6552 15.8414 37.6771 15.6538 37.7184 15.4749C37.7592 15.2966 37.8189 15.1259 37.8946 14.9808C37.9685 14.8357 38.0618 14.7162 38.1404 14.6504C38.1795 14.6166 38.2125 14.5985 38.2356 14.588C38.2598 14.5775 38.2746 14.5723 38.2977 14.5723C38.3207 14.5723 38.3544 14.577 38.4005 14.5974C38.446 14.6172 38.5016 14.6521 38.5595 14.6993C38.6759 14.7937 38.7983 14.9353 38.9088 15.0979C39.1322 15.4248 39.3172 15.8257 39.472 16.2418C39.4921 16.2936 39.511 16.3461 39.5294 16.3991C39.5465 16.4509 39.5696 16.5069 39.582 16.5558L39.6706 16.8588C39.6878 16.9084 39.6937 16.9626 39.7055 17.0144L39.7374 17.1712C39.7469 17.2236 39.761 17.2755 39.7675 17.3291L39.7876 17.4899C39.8213 17.7032 39.8266 17.9234 39.8397 18.1425C39.8367 18.364 39.8432 18.5848 39.8231 18.8086C39.8142 19.0317 39.7835 19.2561 39.7581 19.4804C39.7433 19.5929 39.7226 19.7048 39.7055 19.8167L39.6783 19.9851L39.644 20.1529C39.4679 21.0502 39.186 21.9383 38.8544 22.8106C38.6842 23.2453 38.5033 23.6777 38.3089 24.1054C38.1133 24.5319 37.907 24.9549 37.6907 25.3733C37.4744 25.7917 37.2462 26.2048 37.0092 26.6133C36.7722 27.0201 36.5246 27.4274 36.2681 27.8143L36.2651 27.8189C36.183 27.9425 36.2184 28.1085 36.3437 28.1895C36.4649 28.2676 36.6262 28.2373 36.7113 28.1237L36.7119 28.1295Z" fill="#4390FF"/>
<path d="M41.7906 32.7778C42.1186 32.4474 42.4691 32.1211 42.8213 31.8058C43.1754 31.49 43.5353 31.1818 43.9035 30.8834C44.2717 30.5851 44.6464 30.2961 45.0271 30.0158C45.4089 29.7367 45.7978 29.4698 46.1926 29.2128C46.9851 28.7059 47.8043 28.2444 48.656 27.8819L48.815 27.8126L48.9763 27.7502C49.0839 27.7094 49.1903 27.6657 49.2984 27.6273C49.5153 27.555 49.7311 27.4775 49.9497 27.4204C50.1672 27.3528 50.3877 27.312 50.6064 27.2613C50.8262 27.2275 51.0455 27.185 51.2636 27.1716L51.4273 27.1559C51.4817 27.1506 51.5361 27.1529 51.5898 27.1512L51.7524 27.1483C51.8062 27.1483 51.8611 27.1425 51.9137 27.1483L52.2329 27.1687C52.2843 27.1698 52.344 27.1803 52.3995 27.1856C52.4563 27.1914 52.5118 27.199 52.568 27.2066C53.013 27.2666 53.4504 27.3586 53.8222 27.5031C54.0071 27.5742 54.1738 27.6616 54.292 27.7537C54.3511 27.7992 54.3978 27.8452 54.4274 27.8848C54.4575 27.925 54.4693 27.9565 54.4741 27.9786C54.4794 28.0014 54.477 28.0165 54.4717 28.0422C54.4664 28.0672 54.4557 28.1028 54.4303 28.1476C54.3824 28.2374 54.2843 28.3527 54.1561 28.4553C54.0284 28.5596 53.8724 28.6534 53.7045 28.7309C53.5367 28.809 53.3552 28.8708 53.1697 28.915C52.9841 28.9593 52.7932 28.9873 52.6029 28.996C52.5077 29.0013 52.4125 29.0007 52.3174 28.9966L52.2465 28.9931L52.1685 28.9873C52.1159 28.9838 52.0656 28.978 52.0154 28.9727C51.9149 28.9617 51.8215 28.9465 51.7394 28.929C51.659 28.9115 51.5869 28.8882 51.5621 28.8737C51.5538 28.8702 51.5544 28.8678 51.5526 28.8673C51.555 28.8673 51.5567 28.8678 51.5585 28.869C51.5597 28.8696 51.568 28.8731 51.5715 28.876C51.5928 28.8894 51.643 28.9249 51.6939 29.0065C51.7199 29.0473 51.7411 29.098 51.7547 29.1481C51.7671 29.2006 51.7731 29.2472 51.7719 29.2886C51.7695 29.369 51.7547 29.4051 51.7512 29.4191C51.7417 29.4436 51.7701 29.3975 51.8168 29.3515C51.8629 29.3031 51.9273 29.2454 51.9977 29.1878C52.0686 29.1301 52.1472 29.0718 52.2287 29.0147C52.2695 28.9861 52.3115 28.9582 52.3534 28.9314L52.4161 28.8917L52.4462 28.8731C52.4545 28.8678 52.4687 28.8597 52.4687 28.8597C52.9001 28.615 53.0485 28.0719 52.8003 27.6465C52.552 27.2211 52.0012 27.0749 51.5697 27.3196C51.5514 27.3301 51.5337 27.3406 51.5166 27.3522L51.5089 27.3575L51.4557 27.393L51.4108 27.4239L51.3245 27.4857C51.2677 27.527 51.2122 27.569 51.1566 27.6121C51.0461 27.6984 50.9368 27.7893 50.8274 27.8895C50.7181 27.9903 50.6087 28.0981 50.4976 28.2298C50.4421 28.2956 50.3859 28.3679 50.3304 28.4518C50.2748 28.5363 50.2181 28.6319 50.1661 28.7548C50.1158 28.8778 50.0668 29.0298 50.0603 29.2291C50.0585 29.3293 50.0668 29.4366 50.0957 29.5461C50.1223 29.6551 50.1684 29.76 50.2234 29.8526C50.3357 30.0368 50.4752 30.1568 50.594 30.2384C50.6229 30.2576 50.6548 30.2792 50.6826 30.2943L50.7671 30.3403C50.8191 30.3654 50.8741 30.3905 50.922 30.4079C51.12 30.4837 51.2837 30.5157 51.4403 30.542C51.5952 30.5664 51.7411 30.5804 51.8812 30.588C51.951 30.5915 52.0207 30.595 52.0887 30.5961L52.1909 30.5979H52.3008C52.4468 30.5956 52.5928 30.588 52.7376 30.5723C53.0272 30.5425 53.3127 30.4849 53.5911 30.4015C53.8694 30.3182 54.1407 30.2092 54.4014 30.07C54.662 29.9307 54.9126 29.7635 55.1449 29.5508C55.3754 29.3381 55.5946 29.0817 55.7483 28.7391C55.8246 28.5683 55.8801 28.372 55.8949 28.1599C55.9109 27.9489 55.8801 27.7228 55.8033 27.5218C55.7282 27.3196 55.6136 27.1448 55.4883 27.0032C55.3624 26.861 55.2253 26.7503 55.0887 26.6576C54.8145 26.4735 54.5391 26.3593 54.2713 26.2707C53.7341 26.0971 53.2146 26.0242 52.7027 25.9817C52.6389 25.9759 52.5751 25.9712 52.5113 25.9677C52.4462 25.9648 52.3865 25.9578 52.3174 25.9584L51.9143 25.9549C51.8469 25.952 51.7813 25.9613 51.7145 25.9648L51.516 25.9794C51.4498 25.9852 51.383 25.987 51.318 25.9963L51.1229 26.0248C50.8611 26.0563 50.6093 26.1181 50.3558 26.1723C50.1081 26.2422 49.8581 26.3051 49.6194 26.3925C49.3758 26.4706 49.143 26.5679 48.9083 26.6611C48.7919 26.7095 48.679 26.7631 48.5644 26.8144L48.393 26.8919L48.2257 26.9758C47.3291 27.4163 46.4969 27.9483 45.7032 28.5188C45.309 28.8078 44.9219 29.1044 44.5454 29.4127C44.1701 29.7215 43.8024 30.0385 43.4431 30.3636C43.0838 30.6888 42.7339 31.0227 42.3911 31.3636C42.0483 31.7062 41.7155 32.0512 41.3887 32.4183C41.2894 32.5296 41.3006 32.6985 41.4135 32.7964C41.5223 32.8908 41.686 32.8839 41.7864 32.783L41.7912 32.7784L41.7906 32.7778Z" fill="#4390FF"/>
<path d="M30.2932 27.6716C30.7767 27.5282 35.9642 26.068 39.4518 28.7851C42.0423 30.8036 43.0382 34.6157 42.521 38.4219C41.4519 36.7414 39.8839 34.6687 37.7242 32.7032C35.6657 30.8298 33.0693 29.0549 29.8553 27.8114C29.9989 27.7625 30.1443 27.7147 30.2938 27.671L30.2932 27.6716Z" fill="#00189C"/>
<path d="M37.7236 32.7039C37.7236 32.7039 20.7924 53.2203 17.0701 49.8942C13.3472 46.5682 16.7953 36.7641 16.7953 36.7641L37.7236 32.7039Z" fill="#4390FF"/>
<path d="M37.7236 32.704L35.4753 51.5183C35.4753 51.5183 30.1756 59.1489 25.7092 56.7452C20.1878 53.774 37.7236 32.7034 37.7236 32.7034V32.704Z" fill="#4390FF"/>
<path d="M37.7236 32.7039L14.2272 40.6409C13.8035 40.7843 13.3756 40.437 13.4364 40C13.8649 36.9297 16.287 27.4071 29.8546 27.8121C29.8546 27.8121 34.7702 29.5555 37.7236 32.7039Z" fill="#0166FF"/>
<path d="M33.0828 55.7213L37.7236 32.7039C37.7236 32.7039 40.4429 34.9706 42.5204 38.4225C42.5204 38.4225 47.8698 48.5942 33.9706 56.3524C33.5226 56.6023 32.9824 56.2201 33.0828 55.7219V55.7213Z" fill="#0166FF"/>
<path d="M2.32028 26.1826C6.97766 8.04074 25.2293 -2.89233 43.2798 2.2317C61.6611 7.44975 72.1846 27.0853 66.6003 45.5949C61.1465 63.6697 42.444 73.4208 24.9916 67.844C7.84071 62.364 -2.23195 43.9111 2.32028 26.1826ZM61.2979 43.994C65.914 28.5037 57.1068 12.0968 41.757 7.69444C26.6392 3.35771 11.2803 12.459 7.31699 27.6915C3.42941 42.6316 11.9183 58.2042 26.4001 62.7911C41.0958 67.4465 56.7731 59.1788 61.2979 43.994Z" fill="#0166FF"/>
<path d="M1.14028 27.7385C5.79767 9.59665 24.0493 -1.33643 42.0998 3.78761C60.4811 9.00565 71.0046 28.6412 65.4203 47.1508C59.9665 65.2263 41.2641 74.9767 23.8116 69.3999C6.66072 63.9199 -3.41194 45.467 1.14028 27.7385ZM60.118 45.5499C64.734 30.0596 55.9268 13.6527 40.577 9.25035C25.4592 4.91361 10.1003 14.0149 6.137 29.2474C2.24942 44.1875 10.7383 59.7601 25.2202 64.347C39.9158 69.0024 55.5931 60.7347 60.118 45.5499Z" fill="#115AFF"/>
<path d="M2.9042 28.2707C7.31831 11.1587 24.5485 0.876784 41.5599 5.72364C58.865 10.6541 68.78 29.1444 63.5414 46.5839C58.4185 63.6371 40.7873 72.867 24.3087 67.6171C8.09863 62.453 -1.41525 45.0155 2.9042 28.2707ZM60.1179 45.5492C64.7339 30.0588 55.9268 13.652 40.5769 9.24957C25.4592 4.91353 10.1003 14.0149 6.13696 29.2473C2.24938 44.1874 10.7383 59.76 25.2201 64.347C39.9158 69.0024 55.593 60.7346 60.1179 45.5498V45.5492Z" fill="#0166FF"/>
<defs>
<linearGradient id="paint0_linear_2695_5314" x1="33.5179" y1="54.395" x2="34.6861" y2="47.9313" gradientUnits="userSpaceOnUse">
<stop stop-color="#311944"/>
<stop offset="1" stop-color="#893976"/>
</linearGradient>
<linearGradient id="paint1_linear_2695_5314" x1="16.4711" y1="37.3752" x2="23.1193" y2="36.9952" gradientUnits="userSpaceOnUse">
<stop stop-color="#311944"/>
<stop offset="1" stop-color="#893976"/>
</linearGradient>
</defs>
</svg>
