<svg width="53" height="48" viewBox="0 0 53 48" fill="none" xmlns="http://www.w3.org/2000/svg">
<path d="M52.1556 16.8318C52.1556 34.3431 36.7172 45.0118 34.3198 46.3436C32.5837 47.3346 30.9751 48 29.8744 48C28.9146 48 28.2792 47.5105 28.2792 46.6693C28.2792 45.828 29.0835 44.8371 29.8744 44.1717C32.0904 42.5023 38.3124 33.8275 38.3124 25.6564C38.3124 23.4974 37.1971 21.5024 35.9274 20.824C34.4888 19.9958 27.7993 18.4893 27.7993 9.66578C27.8004 4.49369 31.7794 1.5171e-07 37.3536 1.5171e-07C44.6774 -0.00108528 52.1566 5.82226 52.1566 16.8307L52.1556 16.8318Z" fill="#0066FF"/>
<path d="M24.3573 16.8318C24.3573 34.3431 8.91334 45.0118 6.52961 46.3436C4.77989 47.3346 3.18659 48 2.07294 48C1.11469 48 0.492078 47.5105 0.492078 46.6693C0.492078 45.828 1.28147 44.8371 2.07294 44.1717C4.30024 42.5023 10.5066 33.8275 10.5066 25.6564C10.5066 23.4974 9.39299 21.5024 8.12291 20.824C6.68501 19.9948 0 18.4882 0 9.66469C0 4.49261 3.99049 0 9.56185 0C16.8684 0 24.3573 5.82335 24.3573 16.8318Z" fill="#0066FF"/>
</svg>
