<?xml version="1.0" encoding="UTF-8"?>
<svg width="10px" height="6px" viewBox="0 0 10 6" version="1.1" xmlns="http://www.w3.org/2000/svg" xmlns:xlink="http://www.w3.org/1999/xlink">
    <!-- Generator: Sketch 64 (93537) - https://sketch.com -->
    <title>Path</title>
    <desc>Created with Sketch.</desc>
    <g id="Page-1" stroke="none" stroke-width="1" fill="none" fill-rule="evenodd">
        <g id="Core---1440" transform="translate(-1207.000000, -6619.000000)" fill="#000000" fill-rule="nonzero">
            <path d="M1210.67603,6617.28213 L1210.67404,6617.285 C1210.49539,6617.10928 1210.26072,6617 1210.00005,6617 C1209.44807,6617 1209,6617.48 1209,6618.07144 C1209,6618.38431 1209.12671,6618.66285 1209.32603,6618.85859 L1209.32404,6618.86147 L1212.52003,6621.99998 L1209.32401,6625.13928 L1209.326,6625.14212 C1209.12668,6625.33711 1209,6625.61569 1209,6625.92856 C1209,6626.52 1209.448,6627 1210.00002,6627 C1210.26069,6627 1210.49536,6626.89072 1210.674,6626.71574 L1210.67599,6626.71858 L1214.67599,6622.79001 C1214.882,6622.58642 1215,6622.30071 1215,6622.00002 C1215,6621.69933 1214.882,6621.41358 1214.67599,6621.21003 L1210.67603,6617.28213 Z" id="Path" transform="translate(1212.000000, 6622.000000) rotate(90.000000) translate(-1212.000000, -6622.000000) "></path>
        </g>
    </g>
</svg>