<?xml version="1.0" encoding="UTF-8"?>
<svg width="14px" height="11px" viewBox="0 0 14 11" version="1.1" xmlns="http://www.w3.org/2000/svg" xmlns:xlink="http://www.w3.org/1999/xlink">
    <!-- Generator: Sketch 64 (93537) - https://sketch.com -->
    <title>Path</title>
    <desc>Created with Sketch.</desc>
    <g id="Page-1" stroke="none" stroke-width="1" fill="none" fill-rule="evenodd">
        <g id="Token---1440" transform="translate(-1042.000000, -2785.000000)" fill="#0D8AFF" fill-rule="nonzero" stroke="#0D8AFF">
            <path d="M1051.08066,2786.13125 C1050.91718,2785.95625 1050.64509,2785.95625 1050.4759,2786.13125 C1050.31242,2786.30034 1050.31242,2786.58177 1050.4759,2786.75046 L1053.54239,2789.92219 L1043.42337,2789.92219 C1043.18749,2789.92258 1043,2790.1165 1043,2790.36048 C1043,2790.60446 1043.18749,2790.80469 1043.42337,2790.80469 L1053.54239,2790.80469 L1050.4759,2793.9705 C1050.31242,2794.14551 1050.31242,2794.42732 1050.4759,2794.59602 C1050.64509,2794.77102 1050.91756,2794.77102 1051.08066,2794.59602 L1054.8731,2790.67344 C1055.0423,2790.50435 1055.0423,2790.22292 1054.8731,2790.05423 L1051.08066,2786.13125 Z" id="Path"></path>
        </g>
    </g>
</svg>