<svg width="24" height="24" viewBox="0 0 24 24" fill="none" xmlns="http://www.w3.org/2000/svg">
<path d="M20.47 2.00002H3.53C3.33958 1.99737 3.1505 2.03227 2.97356 2.1027C2.79663 2.17314 2.6353 2.27774 2.4988 2.41053C2.36229 2.54332 2.25328 2.7017 2.17799 2.87663C2.1027 3.05155 2.06261 3.2396 2.06 3.43002V20.57C2.06261 20.7604 2.1027 20.9485 2.17799 21.1234C2.25328 21.2983 2.36229 21.4567 2.4988 21.5895C2.6353 21.7223 2.79663 21.8269 2.97356 21.8973C3.1505 21.9678 3.33958 22.0027 3.53 22H20.47C20.6604 22.0027 20.8495 21.9678 21.0264 21.8973C21.2034 21.8269 21.3647 21.7223 21.5012 21.5895C21.6377 21.4567 21.7467 21.2983 21.822 21.1234C21.8973 20.9485 21.9374 20.7604 21.94 20.57V3.43002C21.9374 3.2396 21.8973 3.05155 21.822 2.87663C21.7467 2.7017 21.6377 2.54332 21.5012 2.41053C21.3647 2.27774 21.2034 2.17314 21.0264 2.1027C20.8495 2.03227 20.6604 1.99737 20.47 2.00002V2.00002ZM8.09 18.74H5.09V9.74002H8.09V18.74ZM6.59 8.48002C6.17626 8.48002 5.77947 8.31566 5.48691 8.0231C5.19435 7.73055 5.03 7.33376 5.03 6.92002C5.03 6.50628 5.19435 6.10949 5.48691 5.81693C5.77947 5.52437 6.17626 5.36002 6.59 5.36002C6.80969 5.3351 7.03217 5.35687 7.24287 5.4239C7.45357 5.49093 7.64774 5.60171 7.81265 5.74898C7.97757 5.89625 8.10952 6.0767 8.19987 6.2785C8.29021 6.4803 8.33692 6.69891 8.33692 6.92002C8.33692 7.14112 8.29021 7.35973 8.19987 7.56154C8.10952 7.76334 7.97757 7.94378 7.81265 8.09106C7.64774 8.23833 7.45357 8.34911 7.24287 8.41613C7.03217 8.48316 6.80969 8.50493 6.59 8.48002V8.48002ZM18.91 18.74H15.91V13.91C15.91 12.7 15.48 11.91 14.39 11.91C14.0527 11.9125 13.7242 12.0183 13.4488 12.2132C13.1735 12.4081 12.9645 12.6827 12.85 13C12.7717 13.2351 12.7378 13.4826 12.75 13.73V18.73H9.75C9.75 18.73 9.75 10.55 9.75 9.73002H12.75V11C13.0225 10.5271 13.4189 10.1375 13.8964 9.87322C14.374 9.6089 14.9146 9.47987 15.46 9.50002C17.46 9.50002 18.91 10.79 18.91 13.56V18.74Z" fill="#697077"/>
</svg>
