<svg width="23" height="24" viewBox="0 0 23 24" fill="none" xmlns="http://www.w3.org/2000/svg">
<path d="M11.173 1.5C8.43182 1.52241 5.79507 1.81916 4.25843 2.52487C4.25843 2.52487 1.2109 3.88818 1.2109 8.53945C1.2109 9.60453 1.19016 10.8781 1.22389 12.2287C1.33456 16.7773 2.05782 21.2603 6.26341 22.3734C8.20252 22.8867 9.86734 22.994 11.2082 22.9203C13.6397 22.7855 15.0048 22.0527 15.0048 22.0527L14.9245 20.2885C14.9245 20.2885 13.1869 20.8363 11.2354 20.7695C9.30199 20.7032 7.26094 20.5611 6.94823 18.1873C6.91935 17.9788 6.90491 17.7558 6.90491 17.5216C6.90491 17.5216 8.80284 17.9856 11.2082 18.0958C12.679 18.1632 14.0582 18.0095 15.4591 17.8423C18.1456 17.5216 20.4848 15.8663 20.7788 14.3538C21.242 11.9713 21.2038 8.53945 21.2038 8.53945C21.2038 3.88818 18.1565 2.52487 18.1565 2.52487C16.6199 1.81916 13.9815 1.52241 11.2403 1.5H11.173ZM8.07075 5.13434C9.21254 5.13434 10.0771 5.57325 10.6488 6.45108L11.2046 7.38263L11.7605 6.45108C12.3321 5.57325 13.1967 5.13434 14.3386 5.13434C15.3253 5.13434 16.1205 5.48124 16.7276 6.15795C17.3162 6.83466 17.6092 7.74923 17.6092 8.90026V14.5322H15.3779V9.06596C15.3779 7.91366 14.8932 7.32866 13.9234 7.32866C12.8512 7.32866 12.3137 8.02256 12.3137 9.39447V12.3864H10.0956V9.39447C10.0956 8.02256 9.55814 7.32866 8.48589 7.32866C7.51611 7.32866 7.03125 7.91366 7.03125 9.06596V14.5322H4.79993V8.90026C4.79993 7.74923 5.09298 6.83466 5.68167 6.15795C6.28872 5.48124 7.08387 5.13434 8.07075 5.13434Z" fill="#697077"/>
</svg>
