<?xml version="1.0" encoding="UTF-8"?>
<svg width="12px" height="8px" viewBox="0 0 12 8" version="1.1" xmlns="http://www.w3.org/2000/svg" xmlns:xlink="http://www.w3.org/1999/xlink">
    <!-- Generator: Sketch 64 (93537) - https://sketch.com -->
    <title>Path</title>
    <desc>Created with Sketch.</desc>
    <g id="Page-1" stroke="none" stroke-width="1" fill="none" fill-rule="evenodd">
        <g id="Drive---1440" transform="translate(-377.000000, -6538.000000)" fill="#0084FF" fill-rule="nonzero" stroke="#0084FF" stroke-width="0.87209995">
            <path d="M384.872903,6538.67622 C384.74047,6538.53446 384.520057,6538.53446 384.382994,6538.67622 C384.250561,6538.8132 384.250561,6539.04118 384.382994,6539.17784 L386.867112,6541.7472 L378.669862,6541.7472 C378.478776,6541.74752 378.326895,6541.90461 378.326895,6542.10225 C378.326895,6542.2999 378.478776,6542.4621 378.669862,6542.4621 L386.867112,6542.4621 L384.382994,6545.02667 C384.250561,6545.16844 384.250561,6545.39673 384.382994,6545.53339 C384.520057,6545.67516 384.740779,6545.67516 384.872903,6545.53339 L387.945096,6542.35577 C388.08216,6542.2188 388.08216,6541.99082 387.945096,6541.85416 L384.872903,6538.67622 Z" id="Path"></path>
        </g>
    </g>
</svg>