<svg width="17" height="17" viewBox="0 0 17 17" fill="none" xmlns="http://www.w3.org/2000/svg">
<path d="M11.6673 4.24259L8.48528 7.42457L5.3033 4.24259C5.16265 4.10194 4.97188 4.02292 4.77297 4.02292C4.57406 4.02292 4.38329 4.10194 4.24264 4.24259C4.10199 4.38324 4.02297 4.57401 4.02297 4.77292C4.02297 4.97183 4.10199 5.1626 4.24264 5.30325L7.42462 8.48523L4.24264 11.6672C4.10199 11.8079 4.02297 11.9986 4.02297 12.1975C4.02297 12.3965 4.10199 12.5872 4.24264 12.7279C4.38329 12.8685 4.57406 12.9475 4.77297 12.9475C4.97188 12.9475 5.16265 12.8685 5.3033 12.7279L8.48528 9.54589L11.6673 12.7279C11.8079 12.8685 11.9987 12.9475 12.1976 12.9475C12.3965 12.9475 12.5873 12.8685 12.7279 12.7279C12.8686 12.5872 12.9476 12.3965 12.9476 12.1975C12.9476 11.9986 12.8686 11.8079 12.7279 11.6672L9.54594 8.48523L12.7279 5.30325C12.8686 5.1626 12.9476 4.97183 12.9476 4.77292C12.9476 4.57401 12.8686 4.38324 12.7279 4.24259C12.5873 4.10194 12.3965 4.02292 12.1976 4.02292C11.9987 4.02292 11.8079 4.10194 11.6673 4.24259Z" fill="#B3BAC5"/>
</svg>
