<svg width="18" height="18" viewBox="0 0 18 18" fill="none" xmlns="http://www.w3.org/2000/svg">
<path d="M12.182 4.75736L9.00005 7.93934L5.81807 4.75736C5.67742 4.61671 5.48665 4.53769 5.28774 4.53769C5.08883 4.53769 4.89806 4.61671 4.75741 4.75736C4.61676 4.89801 4.53774 5.08878 4.53774 5.28769C4.53774 5.4866 4.61676 5.67737 4.75741 5.81802L7.93939 9L4.75741 12.182C4.61676 12.3226 4.53774 12.5134 4.53774 12.7123C4.53774 12.9112 4.61676 13.102 4.75741 13.2426C4.89806 13.3833 5.08883 13.4623 5.28774 13.4623C5.48665 13.4623 5.67742 13.3833 5.81807 13.2426L9.00005 10.0607L12.182 13.2426C12.3227 13.3833 12.5135 13.4623 12.7124 13.4623C12.9113 13.4623 13.102 13.3833 13.2427 13.2426C13.3833 13.102 13.4624 12.9112 13.4624 12.7123C13.4624 12.5134 13.3833 12.3226 13.2427 12.182L10.0607 9L13.2427 5.81802C13.3833 5.67737 13.4624 5.4866 13.4624 5.28769C13.4624 5.08878 13.3833 4.89801 13.2427 4.75736C13.102 4.61671 12.9113 4.53769 12.7124 4.53769C12.5135 4.53769 12.3227 4.61671 12.182 4.75736Z" fill="#97A0AF"/>
</svg>
