<svg width="39" height="48" viewBox="0 0 39 48" fill="none" xmlns="http://www.w3.org/2000/svg">
<path d="M31.2 16.8V12C31.2 8.8174 29.9357 5.76516 27.6853 3.51472C25.4348 1.26428 22.3826 0 19.2 0C16.0174 0 12.9652 1.26428 10.7147 3.51472C8.46428 5.76516 7.2 8.8174 7.2 12V16.8C5.29044 16.8 3.45909 17.5586 2.10883 18.9088C0.75857 20.2591 0 22.0904 0 24V40.8C0 42.7096 0.75857 44.5409 2.10883 45.8912C3.45909 47.2414 5.29044 48 7.2 48H31.2C33.1096 48 34.9409 47.2414 36.2912 45.8912C37.6414 44.5409 38.4 42.7096 38.4 40.8V24C38.4 22.0904 37.6414 20.2591 36.2912 18.9088C34.9409 17.5586 33.1096 16.8 31.2 16.8ZM12 12C12 10.0904 12.7586 8.25909 14.1088 6.90883C15.4591 5.55857 17.2904 4.8 19.2 4.8C21.1096 4.8 22.9409 5.55857 24.2912 6.90883C25.6414 8.25909 26.4 10.0904 26.4 12V16.8H12V12ZM33.6 40.8C33.6 41.4365 33.3471 42.047 32.8971 42.4971C32.447 42.9471 31.8365 43.2 31.2 43.2H7.2C6.56348 43.2 5.95303 42.9471 5.50294 42.4971C5.05286 42.047 4.8 41.4365 4.8 40.8V24C4.8 23.3635 5.05286 22.753 5.50294 22.3029C5.95303 21.8529 6.56348 21.6 7.2 21.6H31.2C31.8365 21.6 32.447 21.8529 32.8971 22.3029C33.3471 22.753 33.6 23.3635 33.6 24V40.8Z" fill="#42BE65"/>
<path d="M16.1362 29.8356C16.1362 28.0307 17.5079 26.5675 19.2 26.5675C20.8921 26.5675 22.2638 28.0307 22.2638 29.8356C22.2638 31.0452 21.6477 32.1014 20.7319 32.6665V35.7447C20.7319 36.6471 20.0461 37.3787 19.2 37.3787C18.354 37.3787 17.6681 36.6471 17.6681 35.7447V32.6665C16.7523 32.1014 16.1362 31.0452 16.1362 29.8356Z" fill="#42BE65"/>
</svg>
