<svg width="71" height="90" viewBox="0 0 71 90" fill="none" xmlns="http://www.w3.org/2000/svg">
<path fill-rule="evenodd" clip-rule="evenodd" d="M57.6875 22.9375V31.8125C61.2182 31.8125 64.6043 33.2151 67.1009 35.7116C69.5974 38.2082 71 41.5943 71 45.125V76.1875C71 79.7182 69.5974 83.1043 67.1009 85.6009C64.6043 88.0974 61.2182 89.5 57.6875 89.5H13.3125C9.78181 89.5 6.39572 88.0974 3.89914 85.6009C1.40256 83.1043 0 79.7182 0 76.1875V45.125C0 41.5943 1.40256 38.2082 3.89914 35.7116C6.39572 33.2151 9.78181 31.8125 13.3125 31.8125V22.9375C13.3125 17.053 15.6501 11.4095 19.8111 7.24857C23.972 3.0876 29.6155 0.75 35.5 0.75C41.3845 0.75 47.028 3.0876 51.1889 7.24857C55.3499 11.4095 57.6875 17.053 57.6875 22.9375ZM26.0866 13.5241C23.5901 16.0207 22.1875 19.4068 22.1875 22.9375V31.8125H48.8125V22.9375C48.8125 19.4068 47.4099 16.0207 44.9134 13.5241C42.4168 11.0276 39.0307 9.625 35.5 9.625C31.9693 9.625 28.5832 11.0276 26.0866 13.5241ZM35.5 49.8722C32.3714 49.8722 29.8351 52.5776 29.8351 55.9148C29.8351 58.1514 30.9743 60.1041 32.6676 61.1489V66.8404C32.6676 68.509 33.9357 69.8617 35.5 69.8617C37.0643 69.8617 38.3324 68.509 38.3324 66.8404V61.1489C40.0257 60.1041 41.1649 58.1514 41.1649 55.9148C41.1649 52.5776 38.6286 49.8722 35.5 49.8722Z" fill="#42BE65"/>
</svg>
