<svg width="8" height="8" viewBox="0 0 8 8" fill="none" xmlns="http://www.w3.org/2000/svg">
<path d="M7.94669 0.413134C7.87908 0.250313 7.74969 0.120925 7.58687 0.0533075C7.50676 0.0191634 7.42073 0.00105282 7.33366 0H0.670208C0.493483 0 0.323996 0.0702041 0.199032 0.195168C0.0740678 0.320132 0.00386369 0.489619 0.00386369 0.666345C0.00386369 0.84307 0.0740678 1.01256 0.199032 1.13752C0.323996 1.26249 0.493483 1.33269 0.670208 1.33269H5.72776L0.197104 6.85669C0.134648 6.91863 0.0850761 6.99233 0.0512467 7.07353C0.0174172 7.15473 0 7.24183 0 7.32979C0 7.41776 0.0174172 7.50485 0.0512467 7.58605C0.0850761 7.66725 0.134648 7.74095 0.197104 7.8029C0.259049 7.86535 0.332747 7.91492 0.413948 7.94875C0.495148 7.98258 0.582243 8 0.670208 8C0.758174 8 0.845269 7.98258 0.926469 7.94875C1.00767 7.91492 1.08137 7.86535 1.14331 7.8029L6.66731 2.27224V7.32979C6.66731 7.50652 6.73751 7.67601 6.86248 7.80097C6.98744 7.92593 7.15693 7.99614 7.33366 7.99614C7.51038 7.99614 7.67987 7.92593 7.80483 7.80097C7.9298 7.67601 8 7.50652 8 7.32979V0.666345C7.99895 0.579269 7.98084 0.493243 7.94669 0.413134Z" fill="#A6C8FF"/>
</svg>
