<svg width="32" height="33" viewBox="0 0 32 33" fill="none" xmlns="http://www.w3.org/2000/svg">
<path d="M19 26.9339V20.9339C19 20.6686 18.8946 20.4143 18.7071 20.2268C18.5196 20.0392 18.2652 19.9339 18 19.9339H14C13.7348 19.9339 13.4804 20.0392 13.2929 20.2268C13.1054 20.4143 13 20.6686 13 20.9339V26.9339C13 27.1991 12.8946 27.4534 12.7071 27.641C12.5196 27.8285 12.2652 27.9339 12 27.9339H6C5.73478 27.9339 5.48043 27.8285 5.29289 27.641C5.10536 27.4534 5 27.1991 5 26.9339V15.3714C5.00224 15.233 5.03215 15.0964 5.08796 14.9698C5.14378 14.8431 5.22437 14.7289 5.325 14.6339L15.325 5.54636C15.5093 5.37771 15.7501 5.28418 16 5.28418C16.2499 5.28418 16.4907 5.37771 16.675 5.54636L26.675 14.6339C26.7756 14.7289 26.8562 14.8431 26.912 14.9698C26.9679 15.0964 26.9978 15.233 27 15.3714V26.9339C27 27.1991 26.8946 27.4534 26.7071 27.641C26.5196 27.8285 26.2652 27.9339 26 27.9339H20C19.7348 27.9339 19.4804 27.8285 19.2929 27.641C19.1054 27.4534 19 27.1991 19 26.9339Z" stroke="#0066FF" stroke-width="2" stroke-linecap="round" stroke-linejoin="round"/>
</svg>
