<svg width="32" height="33" viewBox="0 0 32 33" fill="none" xmlns="http://www.w3.org/2000/svg">
<path d="M10 16.9336C10 14.9558 10.5865 13.0224 11.6853 11.3779C12.7841 9.7334 14.3459 8.45168 16.1732 7.6948C18.0004 6.93793 20.0111 6.73989 21.9509 7.12575C23.8907 7.5116 25.6725 8.46401 27.0711 9.86253C28.4696 11.2611 29.422 13.0429 29.8079 14.9827C30.1937 16.9225 29.9957 18.9332 29.2388 20.7604C28.4819 22.5877 27.2002 24.1495 25.5557 25.2483C23.9112 26.3471 21.9778 26.9336 20 26.9336H9C7.14348 26.9336 5.36301 26.1961 4.05025 24.8833C2.7375 23.5706 2 21.7901 2 19.9336C2 18.0771 2.7375 16.2966 4.05025 14.9839C5.36301 13.6711 7.14348 12.9336 9 12.9336C9.58566 12.9334 10.1692 13.0047 10.7375 13.1461" stroke="#0066FF" stroke-width="2" stroke-linecap="round" stroke-linejoin="round"/>
<path d="M24 15.4336L18 21.4336L15 18.4336" stroke="#0066FF" stroke-width="2" stroke-linecap="round" stroke-linejoin="round"/>
</svg>
