<svg width="32" height="33" viewBox="0 0 32 33" fill="none" xmlns="http://www.w3.org/2000/svg">
<path d="M6.00003 27.9336C5.99837 27.5392 6.07484 27.1483 6.22502 26.7836C6.3752 26.4189 6.59611 26.0875 6.87502 25.8086C7.15392 25.5297 7.4853 25.3088 7.85002 25.1586C8.21475 25.0084 8.6056 24.932 9.00003 24.9336H26V4.93362H9.00003C8.6056 4.93197 8.21475 5.00843 7.85002 5.15861C7.4853 5.30879 7.15392 5.52971 6.87502 5.80861C6.59611 6.08752 6.3752 6.41889 6.22502 6.78362C6.07484 7.14834 5.99837 7.53919 6.00003 7.93362V27.9336Z" stroke="#0066FF" stroke-width="2" stroke-linecap="round" stroke-linejoin="round"/>
<path d="M6 27.9336V28.9336H24" stroke="#0066FF" stroke-width="2" stroke-linecap="round" stroke-linejoin="round"/>
</svg>
