<svg width="62" height="16" viewBox="0 0 62 16" fill="none" xmlns="http://www.w3.org/2000/svg">
<path d="M29.6275 4.3317C29.115 4.3317 28.8339 4.3813 28.4206 4.5797C27.66 4.92689 27.0979 5.48902 26.6019 6.39835L26.4366 6.67941L26.4531 6.16688C26.4697 5.88582 26.4862 5.37329 26.5027 5.00956L26.5193 4.36477H26.4035C26.2713 4.36477 21.9065 5.24102 21.7742 5.29062C21.6916 5.32369 21.675 5.35676 21.675 5.57169C21.675 5.78662 21.6916 5.81969 21.7742 5.83622C21.8238 5.85275 22.0222 5.88582 22.2206 5.91889C22.6009 5.98502 22.7166 6.05115 22.8819 6.26608C23.1795 6.64635 23.2291 7.34074 23.2291 10.2341C23.2291 12.5983 23.1795 13.7887 23.0638 14.1524C22.9315 14.5988 22.6835 14.8303 22.2537 14.9129C22.1214 14.946 21.9396 14.9791 21.8569 14.9956L21.7081 15.0287L21.6916 15.3263C21.675 15.5412 21.6916 15.6404 21.7412 15.6735C21.7742 15.69 23.2622 15.7065 25.0478 15.7065L28.3048 15.69L28.3214 15.3428C28.3214 15.1609 28.3214 14.9956 28.3048 14.9956C28.0568 14.9956 27.2798 14.8964 27.1475 14.8303C26.7838 14.6815 26.6019 14.3508 26.5193 13.673C26.4366 12.8959 26.3705 10.9284 26.4035 9.34126C26.4366 7.72101 26.4366 7.721 26.5358 7.60527C26.7672 7.35727 27.3624 7.15888 27.908 7.15888C28.3379 7.15888 28.7843 7.27461 29.2472 7.48954C29.4787 7.60527 29.6771 7.67141 29.7102 7.67141C29.7763 7.65487 30.8344 4.8277 30.8344 4.69543C30.8344 4.5301 30.2227 4.3317 29.6275 4.3317Z" fill="black"/>
<path d="M21.6916 9.24206C21.4601 7.29114 20.6334 5.86929 19.2612 5.05916C17.7401 4.16637 15.442 4.11677 13.8052 4.94343C12.6148 5.53862 11.6559 6.67941 11.226 8.00207C10.7796 9.35779 10.7796 11.1434 11.226 12.5156C11.5071 13.4084 11.8874 14.0532 12.4826 14.6319C13.1935 15.3428 14.1194 15.7892 15.194 15.938C15.5743 15.9876 16.7812 15.9876 17.178 15.938C17.3599 15.9049 17.6905 15.8388 17.8889 15.7892C19.8233 15.2271 21.146 13.7391 21.5924 11.6228C21.7081 11.0938 21.7577 9.83726 21.6916 9.24206ZM16.7977 15.0948C15.5908 15.4585 14.7311 14.3012 14.4004 11.9039C14.2847 11.1268 14.3012 9.01059 14.4004 8.13433C14.6319 6.19995 15.2271 5.22449 16.1695 5.22449C16.5993 5.22449 16.8308 5.32369 17.1615 5.65435C17.9551 6.44795 18.3188 7.969 18.3188 10.3498C18.3188 12.2511 18.1204 13.4415 17.7071 14.2516C17.4921 14.6319 17.1119 14.9956 16.7977 15.0948Z" fill="black"/>
<path d="M5.81969 1.47146H7.20847C8.79566 1.47146 9.06019 1.50452 9.62232 1.78559C10.4324 2.18238 11.0276 2.97598 11.5567 4.36477C11.7716 4.92689 11.7716 4.92689 12.2346 4.7781L12.5487 4.6789L12.5156 2.64531C12.4991 1.52105 12.466 0.529062 12.466 0.446396L12.433 0.264532L6.36528 0.247998C3.02558 0.247998 0.231465 0.247999 0.148799 0.264532L0 0.297598L0.0330659 1.02506L0.495996 1.07466C1.09119 1.14079 1.45492 1.32266 1.66985 1.62025C2.14932 2.31465 2.23198 3.27357 2.23198 7.78714C2.23198 12.5983 2.13278 13.7722 1.66985 14.3674C1.43839 14.6815 1.23999 14.7807 0.694394 14.8799C-0.0165337 15.0121 0.0165329 14.9956 0.0165329 15.3593C0.0165329 15.5577 0.0330666 15.6735 0.066133 15.69C0.148799 15.7231 7.90287 15.7231 7.98554 15.69C8.08473 15.6569 8.08473 15.0783 7.98554 15.0287C7.93594 15.0121 7.68794 14.9625 7.40687 14.9129C7.12581 14.8633 6.82821 14.7972 6.72901 14.7641C6.21648 14.5492 5.93542 13.9375 5.83622 12.8298C5.75355 12.0362 5.70395 10.5647 5.70395 9.49006V8.49807L6.18342 8.5146C7.19194 8.54766 7.70447 8.59726 7.9194 8.69646C8.38233 8.89486 8.74606 9.45699 8.92793 10.2506L9.02713 10.6639L9.75459 10.697V5.40636L9.02713 5.43942L8.92793 5.85275C8.72953 6.66288 8.39887 7.15887 7.90287 7.39034C7.70447 7.48954 7.55567 7.50607 7.09274 7.53914C6.77861 7.55567 6.33222 7.5722 6.11728 7.5722H5.70395V6.26608C5.70395 4.95996 5.77009 2.16585 5.81969 1.73599V1.47146Z" fill="black"/>
<path d="M60.8918 10.7962C60.528 10.0522 59.8336 9.55619 58.4118 8.96099C57.2545 8.48153 56.6593 8.13433 56.3121 7.75407C56.0145 7.43994 55.9318 7.17541 55.9649 6.71248C55.9979 6.28261 56.0971 6.01808 56.3782 5.72049C56.7254 5.34022 57.2214 5.20796 57.8001 5.34022C58.7425 5.53862 59.3542 6.19995 59.8832 7.58874C60.0651 8.08473 60.0982 8.10126 60.4288 7.969L60.6438 7.88633V7.30767C60.6438 6.99354 60.6272 6.33221 60.6107 5.83622L60.5776 4.94343L60.4123 4.87729C59.536 4.51356 57.8827 4.2821 56.8081 4.3813C55.5846 4.49703 54.6753 4.87729 53.9809 5.60475C53.2865 6.31568 52.9724 7.15887 53.0385 8.15087C53.0881 8.97753 53.3196 9.55619 53.8321 10.0853C54.295 10.5647 54.6918 10.7962 55.8326 11.2426C57.6513 11.9535 58.1473 12.3834 58.1307 13.2596C58.1307 14.0036 57.7339 14.5492 57.023 14.7972C56.7585 14.8799 56.1137 14.8799 55.7665 14.7972C54.8572 14.5657 54.1628 13.7722 53.5676 12.3172L53.4188 11.937L53.2369 11.9535C53.1377 11.9535 53.0054 11.9866 52.9393 12.0196L52.8236 12.0858L52.8401 12.7306C52.8401 13.0778 52.8566 13.8218 52.8732 14.3673L52.9062 15.3759L53.1046 15.4585C53.518 15.6404 54.7745 15.9049 55.5515 15.9876C55.6507 16.0041 56.1798 16.0041 56.7419 15.9876C57.7009 15.9711 57.7835 15.9711 58.263 15.8388C59.7014 15.4585 60.6272 14.6649 61.0406 13.458C61.1728 13.0778 61.1894 12.9786 61.2059 12.4164C61.1894 11.6559 61.1232 11.2756 60.8918 10.7962Z" fill="black"/>
<path d="M49.798 4.77809C48.5911 4.16637 46.7228 4.21596 45.3671 4.87729C44.0775 5.50555 43.1847 6.56368 42.6887 8.05167C42.4242 8.82873 42.3415 9.44045 42.3746 10.449C42.3911 11.0772 42.4242 11.4079 42.4903 11.7055C43.0029 13.9871 44.557 15.5247 46.7394 15.9215C47.2188 16.0041 48.31 16.0041 48.7895 15.9215C49.4839 15.8057 50.2775 15.4916 50.79 15.1444C51.4017 14.7311 52.03 14.1028 52.03 13.9044C52.03 13.7887 51.815 13.5076 51.7324 13.5076C51.6993 13.5076 51.5174 13.5903 51.3521 13.706C50.7569 14.1028 50.1783 14.2516 49.3681 14.2516C48.2604 14.2516 47.566 13.9705 46.8551 13.2596C46.541 12.9455 46.4087 12.7802 46.2599 12.466C45.9127 11.7882 45.7143 10.9946 45.6812 10.1018L45.6647 9.72152L52.1788 9.68845L52.1953 9.47352C52.1953 9.35779 52.1953 9.04366 52.1622 8.76259C51.9638 6.82821 51.1537 5.47249 49.798 4.77809ZM46.5244 8.79566L45.6978 8.81219V8.63033C45.6978 8.53113 45.7308 8.2666 45.7639 8.05167C46.045 6.28261 46.7063 5.22449 47.5329 5.22449C48.2935 5.22449 48.7564 6.26608 48.8556 8.18393L48.8887 8.72953L48.1281 8.76259C47.6983 8.76259 46.9708 8.77913 46.5244 8.79566Z" fill="black"/>
<path d="M38.0098 4.5797C37.7453 4.5301 37.5138 4.51356 37.0178 4.5301C36.2573 4.56316 35.7448 4.66236 35.1661 4.92689C34.9843 5.00956 34.8189 5.09223 34.8024 5.09223C34.7859 5.09223 34.7859 3.95144 34.8024 2.54611C34.8189 0.56213 34.8189 0 34.7693 0C34.6205 0 30.14 0.859728 30.0904 0.892794C30.0574 0.925861 30.0408 1.02506 30.0408 1.15732C30.0574 1.40532 30.0243 1.38879 30.5699 1.50452C30.7352 1.53759 30.9336 1.62025 30.9997 1.66985C31.1816 1.80212 31.3304 2.08318 31.4461 2.47998C31.5288 2.79411 31.5453 3.02558 31.5784 5.17489C31.6115 7.37381 31.6115 9.63885 31.5453 13.7722L31.5123 15.4916L31.8264 15.5577C32.2893 15.6569 33.6285 15.8884 34.0584 15.938C34.7032 16.0041 36.1912 15.9876 36.6706 15.9215C38.7373 15.6073 40.2914 14.4169 41.0189 12.5818C41.2173 12.1023 41.3991 11.3418 41.4653 10.7962C41.5479 10.1514 41.4983 8.84526 41.3826 8.3162C40.9527 6.31568 39.6962 4.92689 38.0098 4.5797ZM34.8685 14.946C34.8189 14.7972 34.7528 9.63886 34.7693 7.58874L34.7858 5.98502L35.0835 5.90235C35.2818 5.85275 35.5133 5.81969 35.7778 5.81969C36.1581 5.81969 36.1912 5.83622 36.5053 5.98502C37.2658 6.36528 37.7784 7.29114 38.0264 8.69646C38.109 9.22553 38.1256 10.6474 38.0429 11.2756C37.8445 12.8132 37.3485 14.0532 36.6706 14.6484C36.4061 14.8799 36.1581 15.0121 35.844 15.0783C35.6125 15.1279 35.5464 15.1279 35.1165 15.0948C34.9512 15.0617 34.9181 15.0452 34.8685 14.946Z" fill="black"/>
</svg>
