<svg width="94" height="16" viewBox="0 0 94 16" fill="none" xmlns="http://www.w3.org/2000/svg">
<path d="M8.62172 4.27085H6.32366V0.832449H2.60268V4.27085H0.720047V6.67963H2.60268V11.7386C2.60268 14.8265 3.41246 15.7464 6.5862 15.7464C7.26471 15.7464 7.94322 15.6589 8.62172 15.6368V12.8995C8.29328 12.8995 7.96536 12.9433 7.65906 12.9433C6.84875 12.9433 6.32366 12.7461 6.32366 11.8483V6.67963H8.62172V4.27085Z" fill="black"/>
<path d="M11.7254 8.81057C11.9441 7.4409 12.8198 6.50618 14.1331 6.50618C15.3804 6.50618 16.2783 7.54951 16.3436 8.81057H11.7254ZM20.0646 10.8761C20.2396 7.04919 18.2041 4.00567 14.1331 4.00567C10.7843 4.00567 8.00437 6.48404 8.00437 9.94089C8.00437 13.7241 10.5212 15.942 14.2206 15.942C16.7596 15.942 19.1889 14.8112 19.868 12.202H16.3874C16.0373 13.0287 15.1616 13.4415 14.2643 13.4415C12.6885 13.4415 11.7913 12.4198 11.7254 10.8761H20.0646Z" fill="black"/>
<path d="M31.8259 8.43151C31.5634 5.43122 29.046 3.94188 26.2223 3.94188C22.5672 3.94188 20.2692 6.52621 20.2692 10.1396C20.2692 13.6218 22.8082 15.9657 26.2223 15.9657C29.2432 15.9657 31.6071 14.2133 31.9356 11.1693H28.3237C28.1487 12.3739 27.4918 13.1183 26.2007 13.1183C24.6249 13.1183 23.9896 11.6074 23.9896 10.1396C23.9896 8.56331 24.3186 6.78928 26.3979 6.78928C27.3389 6.78928 28.1925 7.46779 28.2141 8.43151H31.8259Z" fill="black"/>
<path d="M32.0152 15.6368H35.7367V9.43899C35.7367 8.19058 36.3493 7.00807 37.7501 7.00807C39.7856 7.00807 39.6106 8.58493 39.6106 10.1396V15.6368H43.3315V8.344C43.3315 6.70177 43.0252 3.94188 39.2383 3.94188C37.8813 3.94188 36.3493 4.66467 35.7799 5.82556H35.7367V0H32.0152V15.6368Z" fill="black"/>
<path d="M43.6141 15.671H47.3356V10.0374C47.3356 8.61287 48.2988 7.34126 50.1372 7.34126C50.6406 7.34126 51.0782 7.42878 51.5601 7.56058V4.16277C51.2754 4.09687 50.9691 4.07526 50.6844 4.07526C49.0865 4.07526 47.817 4.84233 47.2697 6.28897H47.226V4.29457H43.6141V15.671Z" fill="black"/>
<path d="M54.7939 12.405C54.7939 11.5061 55.4946 11.1556 56.326 10.9579C57.1363 10.7391 58.0989 10.6732 58.6246 10.3442C58.7121 12.6897 58.1211 13.6982 56.3481 13.6982C55.5167 13.6982 54.7939 13.3255 54.7939 12.405ZM55.0127 7.80151C55.1883 6.83673 55.8446 6.37701 56.8732 6.37701C57.6397 6.37701 58.6683 6.70546 58.6683 7.56058C58.6683 8.26175 58.3183 8.48107 57.6835 8.61287C55.1002 9.13849 51.0729 8.8538 51.0729 12.5584C51.0729 14.9039 52.7805 16 54.9473 16C56.3043 16 57.7273 15.6051 58.6899 14.5971C58.7342 14.9693 58.7774 15.3204 58.9092 15.671H62.6518C62.2143 14.7727 62.2143 13.7204 62.2143 12.7556V7.77989C62.2143 4.55712 59.6094 3.9656 56.917 3.9656C55.6258 3.9656 54.3126 4.18492 53.3056 4.75482C52.2987 5.34634 51.5986 6.31111 51.5327 7.80151H55.0127Z" fill="black"/>
<path d="M68.3034 6.80352C69.923 6.80352 70.514 8.31816 70.514 9.96408C70.514 11.4128 70.1202 13.1468 68.3034 13.1468C66.5958 13.1468 66.027 11.4128 66.027 9.85443C66.027 8.40568 66.5958 6.80352 68.3034 6.80352ZM74.1037 0H70.3827V5.50872H70.3389C69.5729 4.47751 68.5006 3.95084 67.0993 3.95084C63.8818 3.95084 62.306 6.75976 62.306 9.72263C62.306 12.9275 63.8159 16 67.384 16C68.6972 16 69.7917 15.429 70.514 14.3536H70.5577V15.6705H74.1037V0Z" fill="black"/>
<path d="M77.8716 12.405C77.8716 11.5061 78.5717 11.1556 79.4036 10.9579C80.2134 10.7391 81.1766 10.6732 81.7017 10.3442C81.7892 12.6897 81.1982 13.6982 79.4252 13.6982C78.5938 13.6982 77.8716 13.3255 77.8716 12.405ZM78.0904 7.80151C78.2654 6.83673 78.9223 6.37701 79.9509 6.37701C80.7169 6.37701 81.7455 6.70546 81.7455 7.56058C81.7455 8.26175 81.3954 8.48107 80.7606 8.61287C78.1779 9.13849 74.1506 8.8538 74.1506 12.5584C74.1506 14.9039 75.8577 16 78.0245 16C79.3815 16 80.8044 15.6051 81.7676 14.5971C81.8113 14.9693 81.8551 15.3204 81.9864 15.671H85.729C85.2914 14.7727 85.2914 13.7204 85.2914 12.7556V7.77989C85.2914 4.55712 82.687 3.9656 79.9946 3.9656C78.7035 3.9656 77.3897 4.18492 76.3833 4.75482C75.3763 5.34634 74.6757 6.31111 74.6098 7.80151H78.0904Z" fill="black"/>
<path d="M85.8328 15.671H89.5543V10.0374C89.5543 8.61287 90.5175 7.34126 92.3559 7.34126C92.8594 7.34126 93.2969 7.42878 93.7788 7.56058V4.16277C93.4941 4.09687 93.1878 4.07526 92.9031 4.07526C91.3052 4.07526 90.0357 4.84233 89.4884 6.28897H89.4447V4.29457H85.8328V15.671Z" fill="black"/>
<path fill-rule="evenodd" clip-rule="evenodd" d="M90.1685 15.671H93.7714V12.0333H90.1685V15.671Z" fill="black"/>
</svg>
