<?xml version="1.0" encoding="UTF-8"?>
<svg width="14px" height="11px" viewBox="0 0 14 11" version="1.1" xmlns="http://www.w3.org/2000/svg" xmlns:xlink="http://www.w3.org/1999/xlink">
    <!-- Generator: Sketch 64 (93537) - https://sketch.com -->
    <title>Path</title>
    <desc>Created with Sketch.</desc>
    <g id="Page-1" stroke="none" stroke-width="1" fill="none" fill-rule="evenodd">
        <g id="Drive---1440" transform="translate(-847.000000, -1873.000000)" fill="#0D8AFF" fill-rule="nonzero" stroke="#0D8AFF">
            <g id="Group-16" transform="translate(0.000000, 1002.000000)">
                <path d="M856.080661,872.131252 C855.91718,871.956249 855.645094,871.956249 855.475897,872.131252 C855.312417,872.300342 855.312417,872.581766 855.475897,872.750462 L858.542394,875.922188 L848.423372,875.922188 C848.187488,875.922582 848,876.116504 848,876.360483 C848,876.604462 848.187488,876.80469 848.423372,876.80469 L858.542394,876.80469 L855.475897,879.970504 C855.312417,880.145507 855.312417,880.427324 855.475897,880.596021 C855.645094,880.771023 855.917561,880.771023 856.080661,880.596021 L859.873103,876.673438 C860.042299,876.504348 860.042299,876.222925 859.873103,876.054228 L856.080661,872.131252 Z" id="Path"></path>
            </g>
        </g>
    </g>
</svg>