<svg width="23" height="24" viewBox="0 0 23 24" fill="none" xmlns="http://www.w3.org/2000/svg">
<path d="M11.1686 1.5C8.42743 1.52241 5.79068 1.81916 4.25404 2.52487C4.25404 2.52487 1.2065 3.88818 1.2065 8.53945C1.2065 9.60453 1.18577 10.8781 1.2195 12.2287C1.33016 16.7773 2.05343 21.2603 6.25902 22.3734C8.19812 22.8867 9.86295 22.994 11.2038 22.9203C13.6353 22.7855 15.0004 22.0527 15.0004 22.0527L14.9201 20.2885C14.9201 20.2885 13.1825 20.8363 11.231 20.7695C9.29759 20.7032 7.25654 20.5611 6.94383 18.1873C6.91495 17.9788 6.90051 17.7558 6.90051 17.5216C6.90051 17.5216 8.79844 17.9856 11.2038 18.0958C12.6746 18.1632 14.0538 18.0095 15.4547 17.8423C18.1412 17.5216 20.4804 15.8663 20.7744 14.3538C21.2376 11.9713 21.1994 8.53945 21.1994 8.53945C21.1994 3.88818 18.1521 2.52487 18.1521 2.52487C16.6156 1.81916 13.9771 1.52241 11.2359 1.5H11.1686ZM8.06635 5.13434C9.20814 5.13434 10.0727 5.57325 10.6444 6.45108L11.2002 7.38263L11.7561 6.45108C12.3277 5.57325 13.1923 5.13434 14.3342 5.13434C15.3209 5.13434 16.1161 5.48124 16.7232 6.15795C17.3118 6.83466 17.6048 7.74923 17.6048 8.90026V14.5322H15.3735V9.06596C15.3735 7.91366 14.8888 7.32866 13.919 7.32866C12.8468 7.32866 12.3093 8.02256 12.3093 9.39447V12.3864H10.0912V9.39447C10.0912 8.02256 9.55375 7.32866 8.4815 7.32866C7.51172 7.32866 7.02686 7.91366 7.02686 9.06596V14.5322H4.79554V8.90026C4.79554 7.74923 5.08859 6.83466 5.67727 6.15795C6.28433 5.48124 7.07947 5.13434 8.06635 5.13434Z" fill="#C1C7CD"/>
</svg>
