<svg width="186" height="30" viewBox="0 0 186 30" fill="none" xmlns="http://www.w3.org/2000/svg">
<path fill-rule="evenodd" clip-rule="evenodd" d="M0.122803 6.58981C0.122803 2.95037 3.07317 0 6.71261 0H23.533C27.1725 0 30.1228 2.95037 30.1228 6.58981V23.4102C30.1228 27.0497 27.1725 30 23.533 30H6.71261C3.07317 30 0.122803 27.0497 0.122803 23.4102V6.58981ZM23.1689 23.8835L17.0978 14.9085L22.8428 6.48056H18.6532L15.1159 11.9252L11.6037 6.48056H7.43922L13.1591 14.9334L7.11308 23.8835H11.3026L15.1159 17.9168L18.9542 23.8835H23.1689Z" fill="#091E42"/>
<path d="M46.8285 23.6929H43.1669V6.30157H46.8285V23.6929Z" fill="#091E42"/>
<path d="M66.4497 18.2767V6.30157H70.0862V23.6929H66.3494L57.5214 11.6929V23.6929H53.8599V6.30157H57.5967L66.4497 18.2767Z" fill="#091E42"/>
<path d="M75.7628 6.30157H88.3275V9.50653H83.8635V23.6929H80.2269V9.50653H75.7628V6.30157Z" fill="#091E42"/>
<path d="M104.766 6.30157V9.50653H97.6435V13.2332H103.788V16.4382H97.6435V20.4879H104.766V23.6929H93.982V6.30157H104.766Z" fill="#091E42"/>
<path d="M125.434 23.6929H120.995L116.079 16.5376H114.9V23.6929H111.239V6.30157H118.311C120.117 6.30157 121.496 6.7819 122.449 7.74256C123.419 8.70322 123.904 9.96201 123.904 11.519C123.904 14.0531 122.633 15.6017 120.092 16.1649L125.434 23.6929ZM114.9 13.581H117.784C118.587 13.581 119.197 13.4237 119.615 13.109C120.05 12.7777 120.267 12.2477 120.267 11.519C120.267 10.8067 120.05 10.2933 119.615 9.97858C119.197 9.66388 118.587 9.50653 117.784 9.50653H114.9V13.581Z" fill="#091E42"/>
<path d="M143.73 18.2767V6.30157H147.367V23.6929H143.63L134.802 11.6929V23.6929H131.14V6.30157H134.877L143.73 18.2767Z" fill="#091E42"/>
<path d="M162.975 14.7239L169.044 23.6929H164.831L160.994 17.7301L157.182 23.6929H152.993L159.037 14.7487L153.319 6.30157H157.482L160.994 11.7425L164.53 6.30157H168.718L162.975 14.7239Z" fill="#091E42"/>
<path d="M173.313 6.30157H185.877V9.50653H181.413V23.6929H177.777V9.50653H173.313V6.30157Z" fill="#091E42"/>
</svg>
