<svg width="114" height="31" viewBox="0 0 114 31" fill="none" xmlns="http://www.w3.org/2000/svg">
<path d="M28.3244 30.3328C26.3371 30.0417 24.599 29.1956 23.2717 27.8731C22.1645 26.77 21.4467 25.5569 20.9175 23.8947C20.0913 21.2995 20.0911 17.9629 20.9168 15.4207C21.717 12.957 23.5187 10.8124 25.7238 9.69898C28.7775 8.15702 33.0756 8.25388 35.9038 9.9284C38.4492 11.4354 39.991 14.1131 40.42 17.7716C40.551 18.8887 40.466 21.248 40.2597 22.222C39.4154 26.2081 36.9565 28.9927 33.354 30.0423C32.9658 30.1553 32.3638 30.2877 32.0162 30.3363C31.2808 30.4392 29.0362 30.4371 28.3244 30.3328ZM32.6255 30.025C34.0798 29.6836 35.2391 29.1623 36.2753 28.3838C38.7959 26.4902 40.177 23.5868 40.3045 19.9137C40.4303 16.2926 39.3446 13.2058 37.2452 11.2155C35.5411 9.59996 33.3936 8.82555 30.6176 8.82555C27.6749 8.82555 25.3051 9.7433 23.4819 11.589C21.5289 13.566 20.4958 16.3239 20.4958 19.5609C20.4958 22.9189 21.4292 25.6297 23.2392 27.5289C24.2372 28.576 25.2086 29.2039 26.6017 29.7024C27.0942 29.8787 27.4566 29.9633 28.7735 30.2096C28.8862 30.2306 29.6423 30.2345 30.4537 30.2183C31.5521 30.1962 32.1068 30.1468 32.6255 30.025ZM29.5159 28.8535C28.1696 28.2391 27.215 26.372 26.7365 23.4173C26.4333 21.5443 26.4046 17.3792 26.681 15.3383C27.0691 12.4722 27.889 10.779 29.1655 10.207C30.0405 9.81495 31.2532 10.0469 32.0329 10.7555C33.7646 12.3291 34.6386 16.8039 34.2615 22.1653C33.9909 26.0125 33.1608 28.0992 31.6125 28.8243C31.0512 29.0872 30.0584 29.101 29.5159 28.8535ZM31.2975 28.732C31.8781 28.5586 32.5941 27.8832 32.9759 27.1488C33.7641 25.6328 34.1161 23.391 34.1248 19.8312C34.1357 15.3699 33.4405 12.531 31.9729 11.0446C31.3566 10.4204 30.9197 10.2266 30.1317 10.2278C28.383 10.2307 27.2731 12.067 26.8346 15.6829C26.6331 17.3449 26.632 21.3046 26.8327 22.7578C27.4539 27.2551 29.0577 29.4011 31.2975 28.732ZM63.5235 30.3317C62.7104 30.2488 60.2258 29.8329 59.3579 29.6344L58.7574 29.4971L58.8043 26.2717C58.917 18.5063 58.9312 14.2672 58.8582 10.1446C58.7867 6.10605 58.7659 5.67905 58.6111 5.08166C58.4149 4.32471 58.1317 3.79671 57.7912 3.55278C57.6589 3.45802 57.2994 3.32373 56.9924 3.25436C55.9719 3.02377 56.0273 3.06074 56.0001 2.59245C55.9844 2.3227 56.0134 2.14449 56.082 2.08981C56.174 2.0165 64.5441 0.410538 64.8107 0.415049C64.8873 0.416344 64.8982 1.49288 64.8589 5.19821C64.8311 7.82803 64.8275 9.9797 64.851 9.9797C64.8745 9.9797 65.1803 9.84649 65.5307 9.68367C66.5867 9.1929 67.56 8.97995 68.9737 8.93038C69.9149 8.89739 70.3509 8.91805 70.8338 9.01855C73.991 9.67562 76.3274 12.275 77.1439 16.039C77.3569 17.0209 77.4362 19.4612 77.2947 20.6835C77.1742 21.7252 76.8303 23.1289 76.4725 24.0398C75.1221 27.4771 72.2249 29.7195 68.3815 30.3023C67.4962 30.4365 64.7161 30.4534 63.5235 30.3317ZM68.1541 30.1352C70.6438 29.7596 72.4699 28.8996 74.0165 27.3744C76.252 25.1698 77.3287 22.0584 77.1832 18.2237C77.1083 16.2493 76.7877 14.9597 75.9742 13.3597C74.8722 11.1922 72.9873 9.67182 70.8471 9.2241C69.2417 8.88826 67.1762 9.15131 65.6057 9.89159C65.2143 10.0761 64.8397 10.227 64.7731 10.227C64.6675 10.227 64.6561 9.61655 64.683 5.41849L64.7138 0.609958L64.385 0.676256C64.2042 0.712721 62.3597 1.05842 60.2862 1.44447C58.2127 1.83052 56.4353 2.16546 56.3364 2.18878C56.1862 2.22422 56.1598 2.28182 56.1759 2.53993C56.1939 2.82757 56.2174 2.8536 56.5196 2.92049C57.5585 3.15045 57.7435 3.23239 58.1298 3.63379C58.6031 4.12552 58.8168 4.75343 58.9571 6.06383C59.0688 7.10802 59.0936 25.0982 58.9869 27.7536L58.9237 29.3281L59.7688 29.5099C62.9691 30.1983 66.159 30.4362 68.1541 30.1352ZM65.2303 28.8811C65.0647 28.8635 64.8876 28.7986 64.8366 28.7368C64.6961 28.5666 64.5439 17.3757 64.6376 14.1017L64.7119 11.5048L65.3675 11.3147C66.3349 11.0342 67.3763 11.0778 68.1146 11.4297C69.5972 12.1365 70.5712 13.8823 71.077 16.7397C71.2418 17.6705 71.2175 20.9033 71.037 22.0536C70.6603 24.4556 69.9747 26.3095 69.0203 27.5072C68.5576 28.0878 67.7892 28.6369 67.1884 28.8164C66.8008 28.9322 65.9701 28.9596 65.2303 28.8811ZM66.8082 28.6922C67.4036 28.5787 67.8662 28.3403 68.3628 27.8912C69.6075 26.7655 70.5433 24.4417 70.9113 21.5625C71.0612 20.3897 71.041 17.7176 70.8749 16.7388C70.4255 14.0915 69.4598 12.3516 68.051 11.6511C67.4666 11.3605 67.3764 11.34 66.6833 11.34C66.1875 11.34 65.7611 11.3933 65.3985 11.5008L64.8557 11.6616L64.8156 14.6747C64.7642 18.5344 64.8891 28.1973 64.9939 28.4745C65.0607 28.6514 65.1344 28.689 65.4662 28.7152C66.2472 28.7768 66.3764 28.7746 66.8082 28.6922ZM87.0863 30.2909C83.0203 29.5532 80.1125 26.6529 79.1623 22.3875C79.0401 21.8389 78.9861 21.225 78.9554 20.0373C78.907 18.1584 79.0589 16.9921 79.5409 15.5431C80.4665 12.7607 82.1254 10.7891 84.535 9.60742C87.0784 8.36015 90.5557 8.27846 92.8066 9.4131C95.3409 10.6906 96.8321 13.2413 97.2104 16.9458C97.2613 17.4446 97.2908 18.0382 97.276 18.2649L97.249 18.6771L91.1841 18.6982L85.1193 18.7193L85.1424 19.4401C85.1959 21.1099 85.5528 22.5867 86.213 23.8708C86.5131 24.4544 86.7519 24.7726 87.3321 25.3618C88.6428 26.6929 89.9467 27.2083 92.0037 27.2083C93.4951 27.2083 94.5676 26.9089 95.6893 26.1795C96.0035 25.9752 96.3218 25.8081 96.3967 25.8081C96.5679 25.8081 96.9621 26.3185 96.9621 26.5403C96.9621 26.9035 95.7862 28.075 94.6393 28.8543C93.7 29.4926 92.2103 30.0706 90.9185 30.2979C90.0138 30.457 87.9815 30.4534 87.0863 30.2909ZM90.7311 30.1325C92.6301 29.8227 94.5001 28.9059 95.8441 27.6257C96.5804 26.9245 96.8245 26.5861 96.7221 26.4088C96.4489 25.9357 96.4607 25.9363 95.7632 26.3673C94.6525 27.0536 94.0958 27.2428 92.7908 27.3775C91.2666 27.5348 89.8606 27.2786 88.5615 26.6067C87.6997 26.1609 86.6669 25.1357 86.1507 24.2135C85.4462 22.9551 85.064 21.4851 84.95 19.596C84.9022 18.8028 84.9125 18.6052 85.0052 18.5462C85.0683 18.506 87.8011 18.4729 91.1227 18.4722L97.126 18.471V18.2324C97.126 17.6902 96.9491 16.2327 96.7905 15.4686C96.1528 12.3962 94.4692 10.2053 92.0685 9.32403C91.1129 8.97325 90.209 8.82555 89.0176 8.82555C86.1948 8.82555 83.8895 9.75691 82.1061 11.6178C80.6842 13.1014 79.8406 14.7681 79.3257 17.1107C79.1705 17.8168 79.1445 18.1837 79.1445 19.6663C79.1445 21.1381 79.171 21.5176 79.3215 22.1984C80.2772 26.5223 83.1052 29.3698 87.1682 30.0992C88.1979 30.284 89.7152 30.2982 90.7311 30.1325ZM84.9673 17.089C84.9057 16.9886 85.0587 15.5212 85.21 14.7612C85.5749 12.9292 86.159 11.6063 86.9628 10.7916C87.3952 10.3534 87.5925 10.2168 87.9451 10.1115C88.1878 10.039 88.4626 9.97991 88.5559 9.98016C88.9319 9.98118 89.3757 10.1742 89.706 10.4804C90.5924 11.3023 91.0996 13.0673 91.2001 15.6799L91.2497 16.9695L90.3974 17.0173C88.6864 17.1132 85.012 17.1617 84.9673 17.089ZM89.6596 16.8533L91.0855 16.8034L91.0342 15.7846C90.8532 12.1919 89.9791 10.2286 88.5615 10.2302C87.0208 10.2319 85.7895 12.2243 85.2776 15.5444C85.2147 15.9524 85.1625 16.4364 85.1617 16.6197L85.1602 16.9532L86.6969 16.9282C87.5421 16.9145 88.8753 16.8808 89.6596 16.8533ZM103.478 30.3709C102.018 30.2135 99.6937 29.7017 98.92 29.3672L98.5421 29.2038L98.4905 27.3204C98.4622 26.2846 98.4295 24.8996 98.4179 24.2427L98.3968 23.0484L98.6233 22.9392C98.7478 22.8791 98.9993 22.823 99.182 22.8145L99.5142 22.799L99.7972 23.4998C100.901 26.2335 102.196 27.7074 103.888 28.1557C104.533 28.3267 105.743 28.3283 106.221 28.1586C107.559 27.6835 108.292 26.6644 108.299 25.2722C108.306 23.6235 107.405 22.8313 104.002 21.4939C101.893 20.6653 101.157 20.2388 100.281 19.337C99.3366 18.3642 98.8831 17.2568 98.7979 15.7146C98.695 13.8509 99.2749 12.2798 100.56 10.941C101.853 9.59369 103.532 8.86347 105.818 8.65357C107.832 8.46872 110.923 8.89833 112.543 9.58814L112.838 9.71399L112.891 11.3926C112.92 12.3158 112.95 13.5534 112.957 14.1428L112.971 15.2145L112.575 15.3627C111.947 15.597 111.906 15.5676 111.557 14.6375C110.579 12.0305 109.442 10.7969 107.671 10.4201C106.592 10.1904 105.691 10.4373 105.035 11.142C104.524 11.6917 104.325 12.1799 104.276 12.9997C104.224 13.8879 104.382 14.368 104.921 14.9618C105.586 15.6937 106.676 16.3255 108.846 17.2377C111.504 18.355 112.772 19.3036 113.462 20.6899C113.91 21.5903 114.036 22.3094 113.991 23.6936C113.958 24.7323 113.925 24.9458 113.69 25.6432C112.924 27.9169 111.195 29.4139 108.524 30.1157C107.619 30.3534 107.49 30.3657 105.691 30.3855C104.654 30.3969 103.658 30.3903 103.478 30.3709ZM107.371 30.1399C110.853 29.608 113.101 27.7298 113.691 24.86C113.975 23.4743 113.843 21.9334 113.349 20.9029C112.659 19.4603 111.492 18.5893 108.6 17.3596C106.453 16.4464 105.165 15.6722 104.638 14.9769C104.202 14.4025 104.061 13.9609 104.067 13.1948C104.075 12.0394 104.511 11.1545 105.342 10.6027C106.038 10.1408 106.91 10.0281 107.925 10.2689C109.153 10.5599 110.075 11.3174 110.909 12.718C111.174 13.1636 111.719 14.4148 111.985 15.1869C112.026 15.3067 112.073 15.3117 112.359 15.2267C112.54 15.1732 112.712 15.1039 112.743 15.0728C112.774 15.0416 112.772 13.8606 112.739 12.4483L112.678 9.88048L112.381 9.75382C111.879 9.5401 110.569 9.18171 109.707 9.02209C109.057 8.90197 108.486 8.87087 106.961 8.87256C105.14 8.87457 104.991 8.88655 104.239 9.09176C102.055 9.68787 100.436 10.9279 99.5892 12.6522C99.1395 13.5686 98.984 14.275 98.9892 15.3795C98.9964 16.9478 99.4213 18.1054 100.361 19.1168C101.169 19.9871 102.22 20.608 104.01 21.273C105.419 21.7963 106.874 22.5269 107.425 22.9883C107.749 23.2594 108.003 23.5684 108.193 23.9208C108.463 24.422 108.477 24.4883 108.477 25.2722C108.477 26.0275 108.455 26.1429 108.217 26.649C107.594 27.9713 106.348 28.6278 104.717 28.4936C102.499 28.3112 100.938 26.8363 99.6674 23.7227C99.3359 22.9105 99.3132 22.8937 98.8092 23.0864L98.5779 23.1749L98.6357 26.0784C98.6871 28.6554 98.7091 28.9939 98.8311 29.088C99.1955 29.3691 101.554 29.9323 103.191 30.1289C104.461 30.2815 106.41 30.2866 107.371 30.1399ZM0.108936 29.8755C0.0407947 29.8478 0.00648939 29.6423 0.00648939 29.2619C0.00648939 28.5788 -0.0367928 28.6094 1.27683 28.3643C2.28434 28.1762 2.6448 27.984 3.08971 27.3972C3.95233 26.2596 4.13878 24.0691 4.14072 15.0497C4.14253 6.57945 3.98031 4.7976 3.08816 3.48848C2.69234 2.90767 2.02529 2.59228 0.908021 2.45771L0.0474681 2.35405L0.023734 1.67827L0 1.00249L0.269606 0.954168C0.41789 0.92759 5.62775 0.916359 11.8471 0.92921L23.1549 0.952578L23.2079 1.28234C23.2371 1.4637 23.285 3.32403 23.3143 5.41639L23.3676 9.22068L22.7846 9.39882C21.907 9.66695 21.9123 9.67022 21.5175 8.61945C20.5478 6.03845 19.4358 4.55123 17.9142 3.80024C16.8648 3.28229 16.3795 3.21966 13.4159 3.21966H10.8367L10.7922 3.65247C10.7088 4.46409 10.5772 9.68503 10.5781 12.1437L10.579 14.5963L11.3371 14.5919C11.7541 14.5895 12.5763 14.5587 13.1642 14.5234C14.048 14.4703 14.3106 14.4231 14.6804 14.2509C15.5889 13.8278 16.207 12.8967 16.5857 11.3807L16.7812 10.598L17.4501 10.5741L18.1191 10.5501V15.5031V20.4562L17.4499 20.4322L16.7807 20.4083L16.5907 19.6251C16.2338 18.1536 15.5469 17.1001 14.6982 16.7225C14.3062 16.5481 13.3363 16.449 11.46 16.3916L10.579 16.3646V18.2254C10.579 20.2531 10.6898 22.9963 10.8319 24.485C11.0299 26.5604 11.5572 27.7073 12.5041 28.1223C12.6849 28.2015 13.257 28.3302 13.7753 28.4083C14.2937 28.4864 14.7824 28.5838 14.8613 28.6248C15.0613 28.7287 15.0731 29.8036 14.8751 29.88C14.72 29.9399 0.256582 29.9354 0.108936 29.8755ZM14.8408 29.2293C14.8408 28.9799 14.8186 28.7759 14.7916 28.7759C14.4011 28.7759 12.5813 28.3812 12.2888 28.2331C11.2481 27.706 10.767 26.4531 10.5803 23.7839C10.4476 21.8865 10.3156 16.3122 10.4013 16.226C10.479 16.1478 13.9441 16.2867 14.349 16.3842C15.4687 16.6539 16.3318 17.7618 16.7639 19.4842L16.9544 20.2434L17.4548 20.268L17.9552 20.2925V15.5071V10.7217H17.4224C16.9244 10.7217 16.8897 10.7338 16.8897 10.9074C16.8897 11.2198 16.5788 12.2082 16.2846 12.8315C15.8236 13.8078 15.1745 14.3971 14.349 14.5886C14.1462 14.6356 13.1887 14.711 12.2212 14.756C10.8568 14.8196 10.4474 14.8155 10.3959 14.7377C10.3008 14.5941 10.5176 3.73998 10.6257 3.23564L10.6664 3.04551L13.6756 3.07076L16.6848 3.096L17.3851 3.34826C19.0071 3.93256 20.1742 5.12573 21.1493 7.1965C21.3683 7.66173 21.6491 8.33916 21.7732 8.70189C21.8974 9.06462 22.0072 9.37294 22.0173 9.38704C22.0274 9.40113 22.2966 9.33295 22.6155 9.23551L23.1954 9.05835L23.1546 6.36572C23.1322 4.88477 23.0926 3.10734 23.0665 2.41588L23.0193 1.15868H11.5909H0.162583L0.186983 1.67356L0.211383 2.18844L0.949 2.28124C1.93299 2.40504 2.29378 2.51287 2.69001 2.80159C3.29064 3.23924 3.66003 3.88217 3.89263 4.8948C4.25401 6.46803 4.38407 10.0159 4.32383 16.6573C4.26019 23.6748 4.1722 25.1343 3.72744 26.55C3.36165 27.7144 2.68083 28.3317 1.5563 28.5185C1.2468 28.5699 0.80836 28.6519 0.581988 28.7008L0.170404 28.7896V29.2362V29.6827H7.50559H14.8408V29.2293ZM40.5099 29.8599C40.4351 29.812 40.4107 29.6219 40.4279 29.2219L40.4525 28.6522L40.7393 28.5908C40.8971 28.557 41.236 28.4899 41.4924 28.4417C42.2859 28.2926 42.742 27.8593 42.9986 27.0107C43.2076 26.3194 43.2998 24.1077 43.3046 19.6663C43.3105 14.2344 43.198 12.9516 42.652 12.2245C42.356 11.8304 42.1427 11.7183 41.4247 11.5797C41.0703 11.5113 40.6973 11.4379 40.5959 11.4167C40.4317 11.3823 40.4115 11.3284 40.4115 10.9244C40.4115 10.5316 40.4362 10.4606 40.5959 10.3945C40.8412 10.2931 48.9603 8.66067 49.2197 8.66067H49.422L49.3823 9.87665C49.3605 10.5454 49.3256 11.5193 49.3048 12.0407L49.2669 12.9887L49.5611 12.4552C50.5027 10.7472 51.5586 9.68691 52.9628 9.03961C53.7336 8.68428 54.2479 8.57823 55.2002 8.57823C56.3296 8.57823 57.4586 8.94891 57.4586 9.3197C57.4586 9.56902 55.4688 14.8576 55.3591 14.9C55.3055 14.9206 54.917 14.7712 54.4957 14.5678C53.6169 14.1437 52.7926 13.9363 51.9923 13.938C50.9957 13.9402 49.8825 14.3094 49.443 14.7836C49.255 14.9864 49.2541 14.9986 49.2074 18.0275C49.1611 21.027 49.2605 24.6859 49.4282 26.1574C49.5711 27.4111 49.9022 28.0283 50.5862 28.3156C50.8143 28.4115 52.2579 28.6105 52.729 28.611C52.7648 28.611 52.7832 28.8985 52.77 29.2499L52.7461 29.8888L46.6812 29.9085C43.3456 29.9193 40.5685 29.8974 40.5099 29.8599ZM52.6231 29.2364V28.79L51.988 28.736C50.523 28.6116 50.1216 28.4637 49.7369 27.9063C49.1794 27.0987 49.058 25.6084 49.058 19.5699V14.8569L49.2612 14.6394C49.5175 14.3649 50.3189 13.9819 50.8856 13.863C52.0363 13.6217 53.5073 13.8302 54.6577 14.3977C54.9879 14.5606 55.2719 14.68 55.2888 14.6629C55.3227 14.6289 57.2123 9.60606 57.271 9.3942C57.2976 9.29806 57.1887 9.21429 56.8708 9.08635C56.1906 8.81253 55.6006 8.71863 54.8396 8.76305C52.8042 8.88186 50.9977 10.2421 49.6966 12.6357C49.4806 13.0331 49.2569 13.3585 49.1994 13.359C49.116 13.3595 49.1063 12.9031 49.1511 11.0877L49.2073 8.81577L49.0097 8.86262C48.901 8.88839 47.2631 9.22216 45.3699 9.60434C41.3095 10.424 40.7451 10.5435 40.6483 10.6037C40.6082 10.6286 40.5754 10.7759 40.5754 10.9311C40.5754 11.2423 40.5393 11.2243 41.4619 11.3736C42.7301 11.5787 43.1781 12.2008 43.3673 14.0192C43.6139 16.3902 43.5153 25.6331 43.23 26.895C43.0841 27.5402 42.7071 28.1616 42.3277 28.3824C42.1871 28.4643 41.7445 28.5955 41.3442 28.6742L40.6164 28.8171L40.5916 29.2499L40.5668 29.6827H46.595H52.6231V29.2364Z" fill="#AEAEB3"/>
<path d="M14.8408 29.2293C14.8408 28.9799 14.8186 28.7759 14.7916 28.7759C14.4011 28.7759 12.5813 28.3812 12.2888 28.2331C11.2481 27.706 10.767 26.4531 10.5803 23.7839C10.4476 21.8865 10.3156 16.3122 10.4013 16.226C10.479 16.1478 13.9441 16.2867 14.349 16.3842C15.4687 16.6539 16.3318 17.7618 16.7639 19.4842L16.9544 20.2434L17.4548 20.268L17.9552 20.2925V15.5071V10.7217H17.4224C16.9244 10.7217 16.8897 10.7338 16.8897 10.9074C16.8897 11.2198 16.5788 12.2082 16.2846 12.8315C15.8236 13.8078 15.1745 14.3971 14.349 14.5886C14.1462 14.6356 13.1887 14.711 12.2212 14.756C10.8568 14.8196 10.4474 14.8155 10.3959 14.7377C10.3008 14.5941 10.5176 3.73998 10.6257 3.23564L10.6664 3.04551L13.6756 3.07076L16.6848 3.096L17.3851 3.34826C19.0071 3.93256 20.1742 5.12573 21.1493 7.1965C21.3683 7.66173 21.6491 8.33916 21.7732 8.70189C21.8974 9.06462 22.0072 9.37294 22.0173 9.38704C22.0274 9.40113 22.2966 9.33295 22.6155 9.23551L23.1954 9.05835L23.1546 6.36572C23.1322 4.88477 23.0926 3.10734 23.0665 2.41588L23.0193 1.15868H11.5909H0.162583L0.186983 1.67356L0.211383 2.18844L0.949 2.28124C1.93299 2.40504 2.29378 2.51287 2.69001 2.80159C3.29064 3.23924 3.66003 3.88217 3.89263 4.8948C4.25401 6.46803 4.38407 10.0159 4.32383 16.6573C4.26019 23.6748 4.1722 25.1343 3.72744 26.55C3.36165 27.7144 2.68083 28.3317 1.5563 28.5185C1.2468 28.5699 0.80836 28.6519 0.581988 28.7008L0.170404 28.7896V29.2362V29.6827H7.50559H14.8408V29.2293Z" fill="#AEAEB3"/>
<path fill-rule="evenodd" clip-rule="evenodd" d="M32.6255 30.025C34.0798 29.6836 35.2391 29.1623 36.2753 28.3838C38.7959 26.4902 40.177 23.5868 40.3045 19.9137C40.4303 16.2926 39.3446 13.2058 37.2452 11.2155C35.5411 9.59996 33.3936 8.82555 30.6176 8.82555C27.6749 8.82555 25.3051 9.7433 23.4819 11.589C21.5289 13.566 20.4958 16.3239 20.4958 19.5609C20.4958 22.9189 21.4292 25.6297 23.2392 27.5289C24.2372 28.576 25.2086 29.2039 26.6017 29.7024C27.0942 29.8787 27.4566 29.9633 28.7735 30.2096C28.8862 30.2306 29.6423 30.2345 30.4537 30.2183C31.5521 30.1962 32.1068 30.1468 32.6255 30.025ZM26.7365 23.4173C27.215 26.372 28.1696 28.2391 29.5159 28.8535C30.0584 29.101 31.0512 29.0872 31.6125 28.8243C33.1608 28.0992 33.9909 26.0125 34.2615 22.1653C34.6386 16.8039 33.7646 12.3291 32.0329 10.7555C31.2532 10.0469 30.0405 9.81495 29.1655 10.207C27.889 10.779 27.0691 12.4722 26.681 15.3383C26.4046 17.3792 26.4333 21.5443 26.7365 23.4173Z" fill="#AEAEB3"/>
<path d="M52.6231 29.2364V28.79L51.988 28.736C50.523 28.6116 50.1216 28.4637 49.7369 27.9063C49.1794 27.0987 49.058 25.6084 49.058 19.5699V14.8569L49.2612 14.6394C49.5175 14.3649 50.3189 13.9819 50.8856 13.863C52.0363 13.6217 53.5073 13.8302 54.6577 14.3977C54.9879 14.5606 55.2719 14.68 55.2888 14.6629C55.3227 14.6289 57.2123 9.60606 57.271 9.3942C57.2976 9.29806 57.1887 9.21429 56.8708 9.08635C56.1906 8.81253 55.6006 8.71863 54.8396 8.76305C52.8042 8.88186 50.9977 10.2421 49.6966 12.6357C49.4806 13.0331 49.2569 13.3585 49.1994 13.359C49.116 13.3595 49.1063 12.9031 49.1511 11.0877L49.2073 8.81577L49.0097 8.86262C48.901 8.88839 47.2631 9.22216 45.3699 9.60434C41.3095 10.424 40.7451 10.5435 40.6483 10.6037C40.6082 10.6286 40.5754 10.7759 40.5754 10.9311C40.5754 11.2423 40.5393 11.2243 41.4619 11.3736C42.7301 11.5787 43.1781 12.2008 43.3673 14.0192C43.6139 16.3902 43.5153 25.6331 43.23 26.895C43.0841 27.5402 42.7071 28.1616 42.3277 28.3824C42.1871 28.4643 41.7445 28.5955 41.3442 28.6742L40.6164 28.8171L40.5916 29.2499L40.5668 29.6827H46.595H52.6231V29.2364Z" fill="#AEAEB3"/>
<path fill-rule="evenodd" clip-rule="evenodd" d="M68.1541 30.1352C70.6438 29.7596 72.4699 28.8996 74.0165 27.3744C76.252 25.1698 77.3287 22.0584 77.1832 18.2237C77.1083 16.2493 76.7877 14.9597 75.9742 13.3597C74.8722 11.1922 72.9873 9.67182 70.8471 9.2241C69.2417 8.88826 67.1762 9.15131 65.6057 9.89159C65.2143 10.0761 64.8397 10.227 64.7731 10.227C64.6675 10.227 64.6561 9.61655 64.683 5.41849L64.7138 0.609958L64.385 0.676256C64.2042 0.712721 62.3597 1.05842 60.2862 1.44447C58.2127 1.83052 56.4353 2.16546 56.3364 2.18878C56.1862 2.22422 56.1598 2.28182 56.1759 2.53993C56.1939 2.82757 56.2174 2.8536 56.5196 2.92049C57.5585 3.15045 57.7435 3.23239 58.1298 3.63379C58.6031 4.12552 58.8168 4.75343 58.9571 6.06383C59.0688 7.10802 59.0936 25.0982 58.9869 27.7536L58.9237 29.3281L59.7688 29.5099C62.9691 30.1983 66.159 30.4362 68.1541 30.1352ZM64.8366 28.7368C64.8876 28.7986 65.0647 28.8635 65.2303 28.8811C65.9701 28.9596 66.8008 28.9322 67.1884 28.8164C67.7892 28.6369 68.5576 28.0878 69.0203 27.5072C69.9747 26.3095 70.6603 24.4556 71.037 22.0536C71.2175 20.9033 71.2418 17.6705 71.077 16.7397C70.5712 13.8823 69.5972 12.1365 68.1146 11.4297C67.3763 11.0778 66.3349 11.0342 65.3675 11.3147L64.7119 11.5048L64.6376 14.1017C64.5439 17.3757 64.6961 28.5666 64.8366 28.7368Z" fill="#AEAEB3"/>
<path fill-rule="evenodd" clip-rule="evenodd" d="M90.7311 30.1325C92.6301 29.8227 94.5001 28.9059 95.8441 27.6257C96.5804 26.9245 96.8245 26.5861 96.7221 26.4088C96.4489 25.9357 96.4607 25.9363 95.7632 26.3673C94.6525 27.0536 94.0958 27.2428 92.7908 27.3775C91.2666 27.5348 89.8606 27.2786 88.5615 26.6067C87.6997 26.1609 86.6669 25.1357 86.1507 24.2135C85.4462 22.9551 85.064 21.4851 84.95 19.596C84.9022 18.8028 84.9125 18.6052 85.0052 18.5462C85.0683 18.506 87.8011 18.4729 91.1227 18.4722L97.126 18.471V18.2324C97.126 17.6902 96.9491 16.2327 96.7905 15.4686C96.1528 12.3962 94.4692 10.2053 92.0685 9.32403C91.1129 8.97325 90.209 8.82555 89.0176 8.82555C86.1948 8.82555 83.8895 9.75691 82.1061 11.6178C80.6842 13.1014 79.8406 14.7681 79.3257 17.1107C79.1705 17.8168 79.1445 18.1837 79.1445 19.6663C79.1445 21.1381 79.171 21.5176 79.3215 22.1984C80.2772 26.5223 83.1052 29.3698 87.1682 30.0992C88.1979 30.284 89.7152 30.2982 90.7311 30.1325ZM85.21 14.7612C85.0587 15.5212 84.9057 16.9886 84.9673 17.089C85.012 17.1617 88.6864 17.1132 90.3974 17.0173L91.2497 16.9695L91.2001 15.6799C91.0996 13.0673 90.5924 11.3023 89.706 10.4804C89.3757 10.1742 88.9319 9.98118 88.5559 9.98016C88.4626 9.97991 88.1878 10.039 87.9451 10.1115C87.5925 10.2168 87.3952 10.3534 86.9628 10.7916C86.159 11.6063 85.5749 12.9292 85.21 14.7612Z" fill="#AEAEB3"/>
<path d="M107.371 30.1399C110.853 29.608 113.101 27.7298 113.691 24.86C113.975 23.4743 113.843 21.9334 113.349 20.9029C112.659 19.4603 111.492 18.5893 108.6 17.3596C106.453 16.4464 105.165 15.6722 104.638 14.9769C104.202 14.4025 104.061 13.9609 104.067 13.1948C104.075 12.0394 104.511 11.1545 105.342 10.6027C106.038 10.1408 106.91 10.0281 107.925 10.2689C109.153 10.5599 110.075 11.3174 110.909 12.718C111.174 13.1636 111.719 14.4148 111.985 15.1869C112.026 15.3067 112.073 15.3117 112.359 15.2267C112.54 15.1732 112.712 15.1039 112.743 15.0728C112.774 15.0416 112.772 13.8606 112.739 12.4483L112.678 9.88048L112.381 9.75382C111.879 9.5401 110.569 9.18171 109.707 9.02209C109.057 8.90197 108.486 8.87087 106.961 8.87256C105.14 8.87457 104.991 8.88655 104.239 9.09176C102.055 9.68787 100.436 10.9279 99.5892 12.6522C99.1395 13.5686 98.984 14.275 98.9892 15.3795C98.9964 16.9478 99.4213 18.1054 100.361 19.1168C101.169 19.9871 102.22 20.608 104.01 21.273C105.419 21.7963 106.874 22.5269 107.425 22.9883C107.749 23.2594 108.003 23.5684 108.193 23.9208C108.463 24.422 108.477 24.4883 108.477 25.2722C108.477 26.0275 108.455 26.1429 108.217 26.649C107.594 27.9713 106.348 28.6278 104.717 28.4936C102.499 28.3112 100.938 26.8363 99.6674 23.7227C99.3359 22.9105 99.3132 22.8937 98.8092 23.0864L98.5779 23.1749L98.6357 26.0784C98.6871 28.6554 98.7091 28.9939 98.8311 29.088C99.1955 29.3691 101.554 29.9323 103.191 30.1289C104.461 30.2815 106.41 30.2866 107.371 30.1399Z" fill="#AEAEB3"/>
</svg>
