<?xml version="1.0" encoding="utf-8"?>
<!-- Generator: Adobe Illustrator 26.5.3, SVG Export Plug-In . SVG Version: 6.00 Build 0)  -->
<svg version="1.1" id="Layer_1" xmlns="http://www.w3.org/2000/svg" xmlns:xlink="http://www.w3.org/1999/xlink" x="0px" y="0px"
	 viewBox="0 0 3794.61 590.33" style="enable-background:new 0 0 3794.61 590.33;" xml:space="preserve">
<style type="text/css">
	.st0{fill:#AEAEB3;}
</style>
<g>
	<path class="st0" d="M2070.91,9.35c3.78-0.17,7.03-0.45,10.28-0.45c70.98-0.02,141.99-1.07,212.95,0.3
		c62.83,1.21,120.55,19.12,169.22,60.93c32.54,27.95,55.41,62.57,70.4,102.53c10.09,26.91,15.93,54.78,18.64,83.42
		c4.39,46.48,1.71,92.33-10.83,137.38c-10.39,37.32-27.23,71.36-52.63,100.93c-30.78,35.83-68.99,60.18-114.04,73.89
		c-29.47,8.97-59.65,12.85-90.48,12.74c-66.98-0.23-133.97-0.07-200.96-0.07c-3.95,0-7.9,0-12.55,0
		C2070.91,390.33,2070.91,200.5,2070.91,9.35z M2166.05,494.29c4.41,0,8,0,11.6,0c37.65,0,75.31,0.19,112.96-0.08
		c21.09-0.15,41.64-4.1,61.41-11.45c43.36-16.11,73.09-46.25,90.53-88.84c11.09-27.08,15.85-55.38,17.2-84.51
		c1.44-31.15-1.23-61.77-9.57-91.81c-7.68-27.67-20.37-52.74-40.39-73.63c-32.3-33.69-73.22-47.53-118.59-48.86
		c-38.62-1.13-77.3-0.24-115.95-0.21c-2.91,0-5.81,0.34-9.18,0.56C2166.05,228.29,2166.05,360.48,2166.05,494.29z"/>
	<path class="st0" d="M3596.03,346c66.46,78.32,132.02,155.58,198.57,234.02c-3.85,0.41-6.29,0.9-8.72,0.9
		c-29.67,0.05-59.33-0.15-89,0.18c-6.38,0.07-10.32-2.15-14.29-6.94c-46.54-56.04-93.29-111.91-139.99-167.82
		c-13.65-16.34-27.64-32.4-40.81-49.12c-5.08-6.46-10.43-8.76-18.51-8.49c-17.95,0.6-35.93,0.19-55.07,0.19
		c-1.21,9.93-0.46,19.48-0.59,28.97c-0.13,9.67-0.03,19.33-0.03,29c0,9.67,0,19.33,0,29c0,9.67,0,19.33,0,29c0,9.33,0,18.67,0,28
		c0,9.67,0,19.33,0,29s0,19.33,0,29c0,9.59,0,19.19,0,29.4c-31.48,0-61.98,0-92.48,0c-1.9-7.23-2.31-559.63-0.29-571
		c3.08-0.14,6.32-0.42,9.56-0.42c66.33-0.03,132.67-0.54,199,0.2c33.11,0.37,65.36,6.36,95.6,21.15
		c40.41,19.77,67.23,51.2,78.53,94.38c11.61,44.36,10.44,89.04-4.79,132.66c-14.72,42.15-45.1,68.08-87.08,81.15
		C3616.49,341.3,3607.05,343.22,3596.03,346z M3428.13,268.25c4.08,0,7.65,0,11.21,0c30.67,0,61.34,0.34,92-0.17
		c11.55-0.19,23.29-1.35,34.56-3.81c22.64-4.93,41.28-16.51,53.59-36.82c10.6-17.49,13.58-36.82,11.72-56.7
		c-1.74-18.51-7.82-35.52-21.04-49.57c-18.91-20.09-43.14-27.33-69.34-28.05c-34.97-0.96-69.99-0.25-105-0.2
		c-2.55,0-5.09,0.47-7.71,0.73C3428.13,151.95,3428.13,209.51,3428.13,268.25z"/>
	<path class="st0" d="M470.01,209.32c0,125.22,0,247.77,0,370.98c-29.89,0-59.07,0-88.26,0c-2.12-7.26-3.1-553.03-0.95-577.32
		c1.58,0.84,3.07,1.27,4.07,2.22c8.7,8.25,17.39,16.53,25.95,24.93c39.71,38.99,79.34,78.05,119.06,117.02
		c29.73,29.17,59.55,58.23,89.32,87.36c31.44,30.76,62.85,61.54,94.29,92.29c14.05,13.74,28.13,27.45,42.22,41.15
		c1.86,1.8,3.86,3.46,5.64,5.04c0.8-0.4,1.14-0.5,1.38-0.72c0.22-0.2,0.36-0.5,0.47-0.79c0.11-0.31,0.19-0.64,0.21-0.97
		c0.05-1,0.08-2,0.08-3c0.03-118.02,0.05-236.03,0.08-354.05c0-0.66,0.16-1.31,0.28-1.97c0.06-0.33,0.18-0.64,0.27-0.96
		c6.97-2.07,77.26-2.48,88.76-0.41c0,192.05,0,384.22,0,578.47c-3.55-3.31-6.12-5.59-8.55-8.01c-28.37-28.2-56.72-56.42-85.06-84.65
		c-59.27-59.05-118.5-118.14-177.81-177.15c-34.49-34.32-69.1-68.52-103.68-102.75C475.95,214.25,473.91,212.69,470.01,209.32z"/>
	<path class="st0" d="M3079.86,232.25c0,28.59,0,55.83,0,84.36c-12.24,0.64-24.44,0.21-36.61,0.29c-12,0.08-23.99,0.02-35.99,0.02
		c-12.33,0-24.66,0-36.99,0c-12,0-23.99,0-35.99,0c-12.33,0-24.66,0-36.99,0c-11.9,0-23.79,0-35.34,0
		c-2.53,11-2.2,169.02,0.31,177.26c80.63,0,161.5,0,243.53,0c1.02,28.91,0.22,57.05,0.52,85.01c-7.52,2.12-324.43,2.71-337.41,0.7
		c0-189.72,0-379.54,0-569.35c7.04-2.07,324.19-2.63,336.77-0.5c0,27.71,0,55.54,0,84.4c-81.39,0-162.54,0-243.35,0
		c-2.5,7.99-2.97,125.42-0.59,137.66c23.85,0.28,48.03,0.09,72.2,0.12c23.99,0.04,47.99,0.01,71.98,0.01
		C3030.18,232.25,3054.47,232.25,3079.86,232.25z"/>
	<path class="st0" d="M1443.5,144.27c-15.89-10.14-29.89-19.74-44.51-28.27c-28.21-16.46-58.59-26.51-91.24-29.93
		c-24.04-2.52-47.79-2.4-71.15,4.28c-17.02,4.87-31.9,13.14-42.67,27.83c-14.77,20.15-16.38,63.08,11.56,85.13
		c11.95,9.43,25.33,15.97,39.33,21.32c35.11,13.41,70.42,26.32,105.53,39.72c28.82,11,55.67,25.26,78.02,47.19
		c21.12,20.73,34.4,45.49,40.09,74.38c5.33,27.06,5.93,54.19-0.24,81.2c-9.36,40.99-33.47,71.21-69.07,92.52
		c-29.66,17.76-62.21,26.71-96.52,29.22c-14.24,1.04-28.59,1.85-42.84,1.29c-53.27-2.08-103.96-14-150.29-41.45
		c-13.36-7.91-13.33-7.95-13.33-23.26c0-24.67,0-49.33,0-74c0-3.28,0-6.57,0-10.56c5.69,0.48,8.62,4.41,12.08,7
		c29.1,21.77,60.9,38.24,96.03,47.6c39.4,10.49,79.24,13.59,119.24,3.07c14.99-3.94,28.81-10.42,39.74-21.88
		c14.77-15.49,19.32-34.1,17.52-55.06c-2.41-28.03-18.84-45.92-42.54-57.18c-23.38-11.11-47.74-20.23-71.87-29.71
		c-28.78-11.31-58.45-20.4-85.88-35.02c-27.77-14.8-52.1-33.47-68.18-61.23c-11.01-19-16.75-39.57-19.05-61.44
		c-2.61-24.87-1.28-49.22,7.06-72.8c12.32-34.82,35.75-60.32,67.88-78C1200.35,8.51,1235,0.9,1271.56,0.1
		c38.3-0.85,75.64,3.82,111.89,16.45c17.98,6.26,34.99,14.55,51.55,23.88c6.09,3.43,8.83,7.62,8.69,15.06
		c-0.49,26.32-0.19,52.66-0.19,79C1443.5,137.38,1443.5,140.28,1443.5,144.27z"/>
	<path class="st0" d="M92.83,580.44c-31.27,0-61.77,0-92.83,0C0,390.11,0,200.3,0,10.51c7.12-2.05,81.48-2.44,92.83-0.39
		C92.83,199.79,92.83,389.56,92.83,580.44z"/>
	<path class="st0" d="M1686.2,9.45c30.92,0,61.41,0,92.61,0c0,190.36,0,380.39,0,570.97c-30.94,0-61.44,0-92.61,0
		C1686.2,390.1,1686.2,200.06,1686.2,9.45z"/>
</g>
</svg>
