<svg width="488" height="301" viewBox="0 0 488 301" fill="none" xmlns="http://www.w3.org/2000/svg">
<path d="M0 16.415C0 7.57849 7.16344 0.415039 16 0.415039H472C480.837 0.415039 488 7.57848 488 16.415V300.415H0V16.415Z" fill="url(#paint0_linear_8692_18951)"/>
<path d="M127.326 165H121V135H127.326V165Z" fill="white"/>
<path d="M161.227 155.657V135H167.51V165H161.054L145.801 144.3V165H139.475V135H145.931L161.227 155.657Z" fill="white"/>
<path d="M177.318 135H199.026V140.529H191.314V165H185.03V140.529H177.318V135Z" fill="white"/>
<path d="M227.428 135V140.529H215.122V146.957H225.738V152.486H215.122V159.471H227.428V165H208.796V135H227.428Z" fill="white"/>
<path d="M263.136 165H255.467L246.974 152.657H244.937V165H238.611V135H250.83C253.95 135 256.333 135.829 257.98 137.486C259.656 139.143 260.493 141.314 260.493 144C260.493 148.371 258.298 151.043 253.907 152.014L263.136 165ZM244.937 147.557H249.921C251.307 147.557 252.361 147.286 253.084 146.743C253.835 146.171 254.21 145.257 254.21 144C254.21 142.771 253.835 141.886 253.084 141.343C252.361 140.8 251.307 140.529 249.921 140.529H244.937V147.557Z" fill="white"/>
<path d="M294.749 155.657V135H301.032V165H294.575L279.323 144.3V165H272.997V135H279.453L294.749 155.657Z" fill="white"/>
<path d="M327.998 149.529L338.484 165H331.205L324.575 154.714L317.989 165H310.753L321.195 149.571L311.316 135H318.509L324.575 144.386L330.685 135H337.921L327.998 149.529Z" fill="white"/>
<path d="M345.859 135H367.568V140.529H359.855V165H353.572V140.529H345.859V135Z" fill="white"/>
<defs>
<linearGradient id="paint0_linear_8692_18951" x1="244" y1="-1.82887" x2="244" y2="304.122" gradientUnits="userSpaceOnUse">
<stop stop-color="#060C40"/>
<stop offset="1" stop-color="#0F62FE"/>
</linearGradient>
</defs>
</svg>
