<?xml version="1.0" encoding="utf-8"?>
<!-- Generator: Adobe Illustrator 26.5.3, SVG Export Plug-In . SVG Version: 6.00 Build 0)  -->
<svg version="1.1" id="Layer_1" xmlns="http://www.w3.org/2000/svg" xmlns:xlink="http://www.w3.org/1999/xlink" x="0px" y="0px"
	 viewBox="0 0 477.74 104" style="enable-background:new 0 0 477.74 104;" xml:space="preserve">
<style type="text/css">
	.st0{fill:#AFAFAF;}
</style>
<g>
	<path class="st0" d="M477.74,0c0,33.78,0,67.56,0,102.05c-5.63-1.17-11.42,2.18-16.9-2.89c-7.52,4.84-16.5,4.93-25.61,2.69
		c-6.15-1.51-11.21-4.96-15.18-9.92c-9.25-11.53-10.14-32.37-1.93-44.7c8.84-13.26,21.62-16.39,43.62-10.35c0-12.41,0-24.65,0-36.9
		C467.07,0,472.4,0,477.74,0z M446.73,46.74c-6.13-0.01-11.17,2.26-14.09,7.76c-4.87,9.17-4.8,18.62,0.2,27.64
		c3.17,5.73,8.74,8.15,15.22,7.55c6.65-0.62,10.96-4.54,12.87-10.88c2.36-7.87,2.27-15.74-0.88-23.41
		C457.62,49.52,453.01,46.8,446.73,46.74z"/>
	<path class="st0" d="M110.7,104c-3.97-1.13-8.09-1.9-11.89-3.44C87.66,96.01,79.43,88.15,74.92,77
		c-5.98-14.81-6.12-29.92-0.11-44.78c7.74-19.17,28.69-30.24,50.28-26.68c5.22,0.86,10.32,2.45,15.46,3.74
		c2.42,0.6,3.57,1.97,3.16,4.67c-0.61,4.09-0.96,8.22-1.39,12.1c-6.59-1.38-13-3.5-19.53-3.94c-21.41-1.45-31.55,7.4-33.5,28.82
		c-0.8,8.76,0.41,17.35,5.28,24.95c5.2,8.11,12.82,12.19,22.4,11.36c8.37-0.72,16.66-2.32,25.39-3.59c0.06,0.63,0.25,2.19,0.37,3.75
		c0.93,12.34,0.93,12.34-11.38,15.12c-1.9,0.43-3.78,0.99-5.67,1.49C120.7,104,115.7,104,110.7,104z"/>
	<path class="st0" d="M401.73,0c0.09,25.12,0.17,50.25,0.27,75.37c0.01,2.33,0.2,4.65,0.21,6.98c0.02,4.91,1.96,8,7.86,7.68
		c-0.48,4.38-0.93,8.44-1.37,12.4c-12.31,2.09-19.58-1.41-22.37-10.66c-0.47-1.56-0.64-3.26-0.64-4.9
		c-0.02-28.96,0.01-57.91,0.03-86.87C391.06,0,396.39,0,401.73,0z"/>
	<path class="st0" d="M239.67,72.92c6.32-22.7,12.26-44.07,18.26-65.64c5.69,0,11.31,0,17.51,0c-2.08,7.31-4.09,14.54-6.19,21.75
		c-6.54,22.48-13.19,44.93-19.61,67.44c-1.17,4.09-2.85,5.84-7.47,5.62c-9.48-0.45-9.46-0.14-12.42-9.11
		c-5.68-17.18-11.4-34.35-17.12-51.52c-0.2-0.6-0.55-1.16-1.41-2.93c-7.18,21.63-14.03,42.25-20.98,63.16c-5.29,0-10.71,0-16.28,0
		c-8.81-31.36-17.6-62.66-26.58-94.63c5.51,0,10.45-0.22,15.35,0.16c1.15,0.09,2.73,2.03,3.13,3.41
		c5.72,19.78,11.26,39.61,16.86,59.42c0.31,1.11,0.71,2.19,1.5,4.61c2.38-7.35,4.42-13.5,6.37-19.69
		c4.7-14.89,9.29-29.81,14.15-44.64c0.45-1.37,2.47-3.03,3.88-3.15c8.57-0.75,8.58-0.61,11.3,7.52
		c5.8,17.32,11.61,34.64,17.43,51.95C237.9,68.29,238.55,69.9,239.67,72.92z"/>
	<path class="st0" d="M16.42,70.73c0,10.57,0,20.49,0,30.79c-5.67,0-10.87,0-16.42,0C0,70.21,0,38.87,0,6.46
		C15.15,7.1,30.15,6.82,44.91,8.61c14.06,1.71,19.37,7.88,21.28,22.31c2.35,17.79-3.75,34.2-23.63,38.52
		c-6.89,1.49-14.22,0.93-21.36,1.28C19.89,70.78,18.57,70.73,16.42,70.73z M16.63,54.96c7.75-0.39,15.24-0.3,22.58-1.29
		c5.16-0.69,8.63-4.51,9.38-9.78c0.55-3.88,0.45-7.92,0.16-11.85c-0.36-5.04-3.41-8.76-8.2-9.48c-7.79-1.16-15.73-1.32-23.92-1.92
		C16.63,32.56,16.63,43.3,16.63,54.96z"/>
	<path class="st0" d="M335.04,68.35c0.16,20.02-13.51,34.07-32.54,34.8c-21.66,0.83-35.39-14.61-35.68-34.27
		c-0.31-20.83,13.96-35.74,33.91-35.75C321.15,33.11,334.88,47.2,335.04,68.35z M319.29,68.42c-0.44-0.16-0.87-0.32-1.31-0.48
		c-0.08-1.66-0.09-3.32-0.26-4.97c-0.93-8.87-7.09-15.53-14.91-16.18c-9.07-0.75-15.76,4.09-18.16,13.46
		c-1.87,7.29-1.59,14.52,2.07,21.27c5.53,10.18,19.98,11.66,26.63,2.21C316.4,79.39,317.37,73.57,319.29,68.42z"/>
	<path class="st0" d="M358.78,101.71c-5.83,0-10.78,0-16.05,0c0-22.48,0-44.72,0-67.29c4.84,0,9.59,0,14.71,0
		c0.26,1.94,0.53,3.97,0.9,6.79c6.64-6.11,13.79-8.74,22.44-8c-1.13,5.34-2.16,10.2-3.29,15.53c-2.36,0-4.64-0.08-6.91,0.01
		c-7.51,0.3-11.81,4.81-11.81,12.3C358.77,74.51,358.78,87.96,358.78,101.71z"/>
</g>
</svg>
