<svg width="175" height="31" viewBox="0 0 175 31" fill="none" xmlns="http://www.w3.org/2000/svg">
<path d="M14.8156 8.42288H10.5068V1.97588H3.52994V8.42288H0V12.9393H3.52994V22.425C3.52994 28.2146 5.04827 29.9396 10.999 29.9396C12.2712 29.9396 13.5434 29.7755 14.8156 29.734V24.6017C14.1998 24.6017 13.585 24.6837 13.0106 24.6837C11.4913 24.6837 10.5068 24.314 10.5068 22.6306V12.9393H14.8156V8.42288Z" fill="#AEAEB3"/>
<path d="M20.6349 16.9349C21.0452 14.3667 22.6871 12.6141 25.1494 12.6141C27.4882 12.6141 29.1716 14.5704 29.2942 16.9349H20.6349ZM36.271 20.8078C36.5992 13.6323 32.7826 7.92566 25.1494 7.92566C18.8705 7.92566 13.6581 12.5726 13.6581 19.0542C13.6581 26.1477 18.3772 30.3063 25.3135 30.3063C30.0741 30.3063 34.6291 28.186 35.9023 23.2939H29.3763C28.7199 24.8438 27.078 25.6178 25.3956 25.6178C22.4409 25.6178 20.7585 23.7021 20.6349 20.8078H36.271Z" fill="#AEAEB3"/>
<path d="M58.3235 16.2241C57.8312 10.5986 53.1111 7.80606 47.8167 7.80606C40.9635 7.80606 36.6546 12.6517 36.6546 19.4269C36.6546 25.9559 41.4152 30.3508 47.8167 30.3508C53.4808 30.3508 57.9133 27.065 58.5291 21.3574H51.7569C51.4287 23.6161 50.197 25.0119 47.7762 25.0119C44.8216 25.0119 43.6304 22.1789 43.6304 19.4269C43.6304 16.4713 44.2473 13.1449 48.1459 13.1449C49.9104 13.1449 51.5108 14.4171 51.5513 16.2241H58.3235Z" fill="#AEAEB3"/>
<path d="M58.6784 29.734H65.6562V18.1131C65.6562 15.7724 66.8048 13.5552 69.4313 13.5552C73.2479 13.5552 72.9197 16.5118 72.9197 19.4269V29.734H79.8965V16.06C79.8965 12.9809 79.3222 7.80606 72.2218 7.80606C69.6774 7.80606 66.8048 9.16129 65.7373 11.338H65.6562V0.415039H58.6784V29.734Z" fill="#AEAEB3"/>
<path d="M80.4264 29.7982H87.4042V19.2351C87.4042 16.5642 89.2102 14.1799 92.6571 14.1799C93.6011 14.1799 94.4216 14.344 95.3251 14.5911V8.22024C94.7913 8.09668 94.2169 8.05615 93.6832 8.05615C90.687 8.05615 88.3067 9.49442 87.2806 12.2069H87.1986V8.46736H80.4264V29.7982Z" fill="#AEAEB3"/>
<path d="M101.389 23.6745C101.389 21.9891 102.702 21.3317 104.261 20.961C105.78 20.5508 107.585 20.4272 108.571 19.8104C108.735 24.2082 107.627 26.0992 104.303 26.0992C102.744 26.0992 101.389 25.4004 101.389 23.6745ZM101.799 15.0429C102.128 13.2339 103.359 12.3719 105.287 12.3719C106.724 12.3719 108.653 12.9878 108.653 14.5911C108.653 15.9058 107.997 16.317 106.806 16.5642C101.963 17.5497 94.4117 17.0159 94.4117 23.9621C94.4117 28.3599 97.6134 30.415 101.676 30.415C104.221 30.415 106.889 29.6747 108.694 27.7846C108.777 28.4825 108.858 29.1409 109.105 29.7982H116.122C115.302 28.1138 115.302 26.1408 115.302 24.3318V15.0023C115.302 8.95964 110.417 7.85054 105.369 7.85054C102.948 7.85054 100.486 8.26176 98.598 9.33032C96.7099 10.4394 95.3972 12.2484 95.2737 15.0429H101.799Z" fill="#AEAEB3"/>
<path d="M126.719 13.1716C129.755 13.1716 130.864 16.0116 130.864 19.0977C130.864 21.8141 130.125 25.0653 126.719 25.0653C123.517 25.0653 122.45 21.8141 122.45 18.8921C122.45 16.1757 123.517 13.1716 126.719 13.1716ZM137.594 0.415039H130.617V10.7439H130.535C129.099 8.81037 127.089 7.82286 124.461 7.82286C118.428 7.82286 115.474 13.0896 115.474 18.645C115.474 24.6541 118.305 30.415 124.995 30.415C127.457 30.415 129.509 29.3445 130.864 27.328H130.946V29.7972H137.594V0.415039Z" fill="#AEAEB3"/>
<path d="M144.659 23.6745C144.659 21.9891 145.972 21.3317 147.532 20.961C149.05 20.5508 150.856 20.4272 151.841 19.8104C152.005 24.2082 150.897 26.0992 147.572 26.0992C146.013 26.0992 144.659 25.4004 144.659 23.6745ZM145.069 15.0429C145.398 13.2339 146.629 12.3719 148.558 12.3719C149.994 12.3719 151.923 12.9878 151.923 14.5911C151.923 15.9058 151.266 16.317 150.076 16.5642C145.233 17.5497 137.682 17.0159 137.682 23.9621C137.682 28.3599 140.883 30.415 144.946 30.415C147.49 30.415 150.158 29.6747 151.964 27.7846C152.046 28.4825 152.128 29.1409 152.374 29.7982H159.392C158.571 28.1138 158.571 26.1408 158.571 24.3318V15.0023C158.571 8.95964 153.688 7.85054 148.64 7.85054C146.219 7.85054 143.756 8.26176 141.869 9.33032C139.981 10.4394 138.667 12.2484 138.543 15.0429H145.069Z" fill="#AEAEB3"/>
<path d="M159.586 29.7982H166.564V19.2351C166.564 16.5642 168.37 14.1799 171.817 14.1799C172.761 14.1799 173.582 14.344 174.485 14.5911V8.22024C173.951 8.09668 173.377 8.05615 172.843 8.05615C169.847 8.05615 167.467 9.49442 166.441 12.2069H166.359V8.46736H159.586V29.7982Z" fill="#AEAEB3"/>
<path fill-rule="evenodd" clip-rule="evenodd" d="M167.716 29.7982H174.471V22.9776H167.716V29.7982Z" fill="#AEAEB3"/>
</svg>
