<?xml version="1.0" encoding="utf-8"?>
<!-- Generator: Adobe Illustrator 26.5.3, SVG Export Plug-In . SVG Version: 6.00 Build 0)  -->
<svg version="1.1" id="Layer_1" xmlns="http://www.w3.org/2000/svg" xmlns:xlink="http://www.w3.org/1999/xlink" x="0px" y="0px"
	 viewBox="0 0 615.17 140.41" style="enable-background:new 0 0 615.17 140.41;" xml:space="preserve">
<style type="text/css">
	.st0{fill:#AFAFAF;}
</style>
<path class="st0" d="M354.19,61.08c3.2,7.22,6.32,14.27,9.78,22.08c-5.54,0-10.48,0.09-15.41-0.09c-0.86-0.03-2.15-1.06-2.44-1.91
	c-3.03-8.6-5.89-17.26-8.85-26.05c2.84-0.4,5.95-0.11,8.17-1.37c2.07-1.18,4.2-3.94,4.38-6.16c0.11-1.38-3.34-3.08-5.25-4.55
	c-0.33-0.26-0.97-0.11-1.47-0.15c-7.94-0.51-8.1-0.51-8.22,7.46c-0.16,10.78-0.04,21.56-0.04,32.59c-6.36,0-11.31,0-16.47,0
	c0.79-16.94,1.57-33.77,2.34-50.4c10.82,0,21.45-0.42,32.02,0.14c7.53,0.4,11.94,4.57,12.98,10.35c1.25,6.88-1.56,12.42-8.15,16.11
	C356.57,59.67,355.6,60.26,354.19,61.08z"/>
<path class="st0" d="M419.38,79.75c0,7.52,0,13.97,0,20.67c-5.34,0-10.09,0-15.18,0c0.94-18.01,1.89-36,2.9-55.41
	c8.98-0.16,18.2-0.86,27.34-0.34c7.97,0.46,13.1,5.52,14.72,13.38c1.78,8.59,0.74,16.87-6.39,22.81
	c-6.09,5.07-13.02,3.81-19.73,0.74C422.17,81.19,421.32,80.73,419.38,79.75z M420.61,62.1c-0.17,7.13,2.22,11.11,6.81,11.38
	c4.15,0.24,7.34-3.69,7.52-9.29c0.2-6.07-2.6-9.34-8.14-9.49C421.46,54.55,420.77,55.37,420.61,62.1z"/>
<path class="st0" d="M125.02,0c3.32,6.44,2.67,11.85-1.77,17.45c-6.04,7.61-12.18,14.99-20.71,19.91
	c-9.81,5.66-19.78,6.32-29.83,0.51c-3.45-2-6.85-4.12-10.41-5.9c-14.14-7.06-26.45-3.29-34.36,10.43c-0.9,1.56-1.7,3.17-3.1,5.79
	c-1.13-6.72-2.52-11.97,0.61-17.74C34.74,13.29,50.5,8.41,67.38,18c20.86,11.84,34.4,9.56,50.26-8.59
	C120.22,6.44,122.51,3.22,125.02,0z"/>
<path class="st0" d="M500.27,32.14c5.13,0,9.87,0,14.85,0c-0.19,4.2-0.36,8.11-0.55,12.32c11.03-0.95,21.91-1.95,26.59,10.93
	c3.09,8.49-0.15,20.19-6.51,25.16c-6.31,4.93-14.08,4.74-22.15-0.55c-1.63,3.58-4.46,4.13-14.84,2.65
	C498.52,66.03,499.38,49.35,500.27,32.14z M518.75,54.69c-5.25-0.03-5.91,0.89-5.97,8.27c-0.05,6.36,2.87,10.56,7.3,10.53
	c4.12-0.03,7.05-3.98,7.18-9.68C527.39,57.84,524.48,54.72,518.75,54.69z"/>
<path class="st0" d="M286.71,49.65c4.83-5.21,10.93-5.29,17.19-4.74c6.48,0.57,10.4,4.1,10.42,10.46
	c0.03,8.14-0.51,16.29-1.02,24.43c-0.06,0.9-1.42,2.36-2.28,2.45c-3.14,0.3-6.37,0.43-9.46-0.06c-0.93-0.15-2.14-2.5-2.14-3.84
	c0-5.15,0.5-10.29,0.71-15.44c0.14-3.47-0.95-6.46-4.71-7.24c-3.74-0.77-7.02,1.01-8.01,4.42c-1.51,5.19-2.65,10.68-2.73,16.05
	c-0.08,4.99-1.36,7.15-6.48,6.3c-1.3-0.22-2.67-0.15-3.99-0.01c-3.39,0.34-4.22-1.1-3.97-4.39c0.81-10.77,1.3-21.57,1.93-32.36
	c0.13-2.32,0.62-4.66,0.42-6.95c-0.46-5.36,2.26-6.31,6.91-6.12c7.43,0.31,7.59,0.23,6.87,7.69c-0.28,2.9-0.6,5.79-0.9,8.69
	C285.88,49.22,286.29,49.43,286.71,49.65z"/>
<path class="st0" d="M46.34,99.98c-2.54-11.34,2.09-19.24,10.75-25.4c9.41-6.69,19.23-6.53,29.23-1.54
	c2.82,1.41,5.43,3.22,8.14,4.84c11.96,7.15,23.23,6.08,33.13-3.75c4.07-4.04,7.27-8.96,10.93-13.55c2,5.12,2.84,10.22-1.22,15.04
	c-4.27,5.06-7.96,10.75-12.85,15.1c-8.8,7.84-18.95,8.06-29.26,2.77c-3.4-1.75-6.56-3.93-9.91-5.77
	c-13.02-7.15-24.09-5.18-33.93,6.01C49.63,95.67,48.11,97.76,46.34,99.98z"/>
<path class="st0" d="M468.6,45.15c-0.34,6.67-0.71,13.1-0.97,19.53c-0.13,3.3,0.11,6.61,4.43,7.09c4.11,0.46,6.36-2.13,7.01-5.65
	c0.87-4.71,1.09-9.55,1.53-14.34c0.19-2.12,0.22-4.26,0.34-6.64c4.93,0,9.52,0,14.66,0c-0.69,12.45-1.38,24.81-2.06,37.17
	c-7,2.12-13.04,1.26-14.21-0.83c-5.94,0.84-11.34,2.31-16.71,2.2c-7.11-0.15-10.51-4.17-10.34-11.39
	c0.21-8.96,0.94-17.91,1.46-27.14C458.78,45.15,463.53,45.15,468.6,45.15z"/>
<path class="st0" d="M403.23,66.61c-8.28,0-16.72,0-25.22,0c1.48,7.96,5.38,8.85,22.81,5.42c-0.42,3.07-0.61,6.02-1.33,8.84
	c-0.24,0.93-1.8,2.14-2.8,2.17c-6.77,0.21-13.69,0.98-20.31-0.05c-8.59-1.33-12.84-7.05-13.52-15.58
	c-0.76-9.42,3.97-18.35,11.51-21.46c6.4-2.64,13.03-2.78,19.56-0.7C402.8,48.05,406.68,56.89,403.23,66.61z M378.55,58.56
	c4.13,0,7.67,0,11.22,0c0.28-0.6,0.57-1.19,0.85-1.79c-1.84-1.35-3.57-3.58-5.56-3.84C381.7,52.48,379.33,54.59,378.55,58.56z"/>
<path class="st0" d="M227.88,72.92c0.41,8.58-0.86,10.19-8.28,10.36c-4.46,0.1-9.05,0.26-13.39-0.58
	c-10.87-2.11-14.34-7.01-14.15-18.69c0.16-9.73,6.13-17.57,15.27-18.75c4.83-0.62,10.04-0.38,14.75,0.79
	c7,1.74,10.63,7.98,10.35,15.19c-0.12,3.15-1.44,4.49-4.59,4.45c-5.82-0.09-11.66-0.13-17.47,0.07c-1.59,0.06-3.14,1.08-4.7,1.66
	c0.88,1.7,1.38,4.4,2.72,4.91c3.43,1.31,7.21,2.05,10.89,2.23C221.98,74.69,224.75,73.57,227.88,72.92z M206.44,59.91
	c3.57,0,6.66,0.05,9.75-0.02c2.89-0.06,3.71-2.19,2.21-3.92c-1.49-1.72-4.14-3.34-6.29-3.36C208.69,52.59,206.65,55.11,206.44,59.91
	z"/>
<path class="st0" d="M169.81,82.4c0.47-11.63,0.79-22.71,1.42-33.78c0.23-4.11-1.03-5.91-5.27-5.28c-1.47,0.22-3.02-0.11-4.48,0.11
	c-4.52,0.67-5.83-1.25-5.47-5.61c0.24-2.92,1.02-4.18,4.07-4.16c12.48,0.09,24.97,0.1,37.46,0c3.32-0.03,4.42,1.38,4.2,4.53
	c-0.21,2.97-0.17,5.31-4.5,5.32c-11.67,0.04-11.58,0.26-11.84,12.12c-0.17,7.81-0.51,15.62-1.11,23.41
	c-0.09,1.18-1.87,3.06-3.02,3.19C177.53,82.66,173.71,82.4,169.81,82.4z"/>
<path class="st0" d="M614.62,44.87c0.21,4.32,0.37,7.75,0.55,11.54c-3.39-0.43-6.43-1.09-9.48-1.14c-6.24-0.1-9.9,3.6-9.72,9.4
	c0.18,5.76,3.49,8.52,10.07,8.14c2.44-0.14,4.86-0.7,7.96-1.17c-0.46,3.32-0.63,6.43-1.43,9.37c-0.28,1.03-2.02,2.13-3.24,2.34
	c-3.09,0.53-6.28,0.89-9.41,0.75c-12.02-0.54-18.24-6.71-18.65-18.2c-0.45-12.66,5.69-20.66,17.49-21.76
	C603.94,43.66,609.24,44.58,614.62,44.87z"/>
<path class="st0" d="M267.08,55.74c-2.64-0.46-4.91-1.06-7.2-1.22c-4.19-0.29-8.69,0.37-10.11,4.64c-1.1,3.29-1.14,7.73,0.23,10.82
	c1.68,3.79,6.12,3.97,10.14,3.25c1.78-0.32,3.59-0.5,5.39-0.74c0.09,10.09-0.59,10.47-10.42,10.98
	c-17.93,0.92-23.18-12.11-19.51-26.41c1.83-7.14,7.5-11.49,14.86-12.08c2.65-0.22,5.33-0.21,7.98-0.08
	C267.2,45.3,267.73,45.97,267.08,55.74z"/>
<path class="st0" d="M40.77,127.88c-3.26-12.51-5.78-23.68-9.1-34.61C26.91,77.61,18.1,64.5,5.31,54.08
	c-1.31-1.07-2.17-3.55-2.07-5.3c0.2-3.41,1.23-6.78,2.03-10.69c7.01,3.64,11.76,9.19,16.07,14.99
	c13.36,17.98,19.85,38.65,22.24,60.63C44.04,117.88,41.95,122.33,40.77,127.88z"/>
<path class="st0" d="M546.11,32.13c4.95,0,9.69,0,14.95,0c-0.91,16.85-1.8,33.51-2.72,50.63c-4.85,0-9.72,0-14.98,0
	C544.27,65.95,545.18,49.16,546.11,32.13z"/>
<path class="st0" d="M34.41,140.41c-3.42-19.25-8.24-37.66-20.28-53.23c-3.03-3.92-6.32-7.97-10.33-10.73
	C-0.48,73.5-1,70.37,0.41,66.07c0.41-1.26,0.7-2.55,1.31-4.82c3.47,3.11,6.85,5.69,9.68,8.77c13.48,14.69,20.07,32.66,24.05,51.78
	C36.72,127.88,39.09,134.1,34.41,140.41z"/>
<path class="st0" d="M578.62,82.94c-6.13,0-11.08,0-16.19,0c0.63-12.63,1.25-25.01,1.88-37.73c4.95,0,9.84,0,14.31,0
	C578.62,57.77,578.62,70.14,578.62,82.94z"/>
<path class="st0" d="M579.68,31.46c-0.14,3-0.27,5.74-0.41,8.75c-5.04,0-9.58,0-14.39,0c0-2.99,0-5.73,0-8.75
	C569.81,31.46,574.55,31.46,579.68,31.46z"/>
</svg>
