<svg width="151" height="37" viewBox="0 0 151 37" fill="none" xmlns="http://www.w3.org/2000/svg">
<g clip-path="url(#clip0_6204_1093)">
<mask id="mask0_6204_1093" style="mask-type:luminance" maskUnits="userSpaceOnUse" x="0" y="0" width="151" height="37">
<path d="M151 0.415039H0V36.415H151V0.415039Z" fill="white"/>
</mask>
<g mask="url(#mask0_6204_1093)">
<path d="M73.76 11.665C76.34 14.195 77.78 17.625 77.79 21.215V36.415H64.06V23.075C64.06 21.885 63.57 20.735 62.71 19.895L57.97 15.235C57.11 14.395 55.95 13.915 54.73 13.915H50.33V36.415H36.6V0.415039H56.62C58.42 0.415039 60.21 0.765039 61.87 1.44504C63.53 2.12504 65.05 3.11504 66.32 4.37504L73.74 11.675L73.76 11.665ZM137.27 0.415039V13.755C137.27 14.945 136.78 16.095 135.92 16.935L131.18 21.595C130.76 22.015 130.25 22.345 129.7 22.575C129.14 22.805 128.55 22.915 127.95 22.915H121.36C122.79 20.745 123.55 18.205 123.55 15.615V0.415039H109.82V13.755C109.82 14.945 109.33 16.095 108.47 16.935L103.72 21.595C103.3 22.015 102.79 22.345 102.23 22.575C101.67 22.805 101.08 22.915 100.48 22.915H96.08V0.415039H82.35V36.415H102.37C106.01 36.415 109.5 34.995 112.08 32.465L116.66 27.955V36.415H129.82C133.46 36.415 136.95 34.995 139.53 32.465L146.95 25.165C149.53 22.635 150.97 19.205 150.98 15.615V0.415039H137.25H137.27ZM0 13.915H9.15V36.415H22.88V13.915H32.03V0.415039H0V13.915Z" fill="#AEAEB3"/>
</g>
</g>
<defs>
<clipPath id="clip0_6204_1093">
<rect width="151" height="36" fill="white" transform="translate(0 0.415039)"/>
</clipPath>
</defs>
</svg>
