<svg width="32" height="31" viewBox="0 0 32 31" fill="none" xmlns="http://www.w3.org/2000/svg">
<path d="M32 14.2392C32 14.3438 32 14.4485 32 14.5523C31.9733 14.6838 31.9358 14.8135 31.9225 14.9458C31.8492 15.681 31.8375 16.427 31.7042 17.1512C30.9417 21.2933 28.8933 24.6692 25.525 27.1828C21.9092 29.8805 17.8333 30.8668 13.3858 30.1309C9.19167 29.4376 5.79833 27.3486 3.2425 23.9475C1.23417 21.274 0.165 18.2456 0.0750002 14.8847C0.0708327 14.7315 0.0258345 14.5799 1.39353e-06 14.4267L1.41e-06 14.2383C0.0266681 14.1077 0.0633349 13.9779 0.0775008 13.8456C0.168335 13.0184 0.188333 12.1769 0.353334 11.3648C1.31667 6.63743 3.87 3.0237 8.00334 0.544493C8.51167 0.239719 8.7875 0.320099 9.0775 0.834192C10.6383 3.60645 12.1975 6.37955 13.76 9.15097C14.1208 9.79149 14.0733 10.0067 13.4592 10.4052C11.7925 11.4853 10.9533 13.4898 11.3808 15.3678C11.9725 17.9634 14.3425 19.5216 16.95 19.0293C19.0475 18.6341 20.7117 16.6472 20.7133 14.5121C20.715 12.7119 19.9542 11.3187 18.44 10.3449C17.9825 10.051 17.89 9.76637 18.1392 9.32428C19.74 6.47918 21.3442 3.63492 22.9517 0.793168C23.21 0.336847 23.51 0.261491 23.9667 0.529422C26.5942 2.06585 28.6417 4.17162 30.0717 6.86517C31.225 9.03626 31.86 11.3505 31.9242 13.8147C31.9275 13.957 31.9733 14.0977 32 14.2392Z" fill="#E60B00"/>
</svg>
