<svg width="32" height="31" viewBox="0 0 32 31" fill="none" xmlns="http://www.w3.org/2000/svg">
<g clip-path="url(#clip0_5975_20611)">
<path d="M0 16.4947C0 16.39 0 16.2854 0 16.1815C0.0266667 16.0501 0.0641667 15.9203 0.0775 15.788C0.150833 15.0529 0.1625 14.3069 0.295833 13.5826C1.05833 9.44055 3.10667 6.06461 6.475 3.55107C10.0908 0.853333 14.1667 -0.132991 18.6142 0.602984C22.8083 1.29626 26.2017 3.38529 28.7575 6.78635C30.7658 9.45981 31.835 12.4883 31.925 15.8491C31.9292 16.0024 31.9742 16.1539 32 16.3071V16.4955C31.9733 16.6261 31.9367 16.7559 31.9225 16.8882C31.8317 17.7155 31.8117 18.5569 31.6467 19.3691C30.6833 24.0964 28.13 27.7102 23.9967 30.1894C23.4883 30.4941 23.2125 30.4138 22.9225 29.8997C21.3617 27.1274 19.8025 24.3543 18.24 21.5829C17.8792 20.9424 17.9267 20.7272 18.5408 20.3286C20.2075 19.2485 21.0467 17.2441 20.6192 15.366C20.0275 12.7704 17.6575 11.2122 15.05 11.7046C12.9525 12.0998 11.2883 14.0867 11.2867 16.2217C11.285 18.0219 12.0458 19.4152 13.56 20.3889C14.0175 20.6828 14.11 20.9675 13.8608 21.4096C12.26 24.2547 10.6558 27.0989 9.04833 29.9407C8.79 30.397 8.49 30.4724 8.03333 30.2044C5.40583 28.668 3.35833 26.5622 1.92833 23.8687C0.775 21.6976 0.14 19.3833 0.0758333 16.9192C0.0725 16.7769 0.0266667 16.6362 0 16.4947Z" fill="#2DAE4D"/>
</g>
<defs>
<clipPath id="clip0_5975_20611">
<rect width="32" height="30" fill="white" transform="translate(0 0.366699)"/>
</clipPath>
</defs>
</svg>
