<svg width="170" height="16" viewBox="0 0 170 16" fill="none" xmlns="http://www.w3.org/2000/svg">
<path d="M11.604 14.5555C12.7199 13.5918 13.3384 12.2735 13.4594 10.5985H10.2513C10.1803 11.5466 9.90081 12.2474 9.41167 12.7001C8.92356 13.1527 8.18411 13.3791 7.1933 13.3791C6.09507 13.3791 5.29199 12.99 4.78094 12.213C4.27198 11.436 4.01645 10.2064 4.01645 8.52409V7.34763C4.03105 5.73626 4.30327 4.54729 4.83517 3.78072C5.36604 3.01415 6.16599 2.63138 7.23607 2.63138C8.21958 2.63138 8.95172 2.8577 9.43357 3.31034C9.91437 3.76299 10.1949 4.49201 10.2732 5.49743H13.4813C13.3092 3.75777 12.6751 2.4061 11.5779 1.4445C10.4797 0.481846 9.03204 0 7.23607 0C5.93759 0 4.79868 0.304544 3.8183 0.914673C2.83897 1.52376 2.08491 2.39984 1.55717 3.5398C1.02943 4.68079 0.765564 6.00013 0.765564 7.49677V8.44899C0.765564 10.7946 1.33815 12.6396 2.48227 13.9829C3.62535 15.3273 5.19709 15.999 7.19227 15.999C9.01744 15.999 10.488 15.5182 11.604 14.5555Z" fill="#C1C7D0"/>
<path d="M30.2278 15.7852H33.4359V0.213807H30.2278V15.7852Z" fill="#C1C7D0"/>
<path d="M45.5315 15.7852H48.7407V0.213807H45.543V10.4807L39.2863 0.213807H36.0781V15.7852H39.2863V5.54019L45.5315 15.7852Z" fill="#C1C7D0"/>
<path d="M57.8534 2.81286H62.6228V0.213807H49.9394V2.81286H54.6452V15.7852H57.8534V2.81286Z" fill="#C1C7D0"/>
<path d="M67.329 9.03722H73.4887V6.52369H67.329V2.81286H74.5369V0.213807H64.1198V15.7852H74.5578V13.208H67.329V9.03722Z" fill="#C1C7D0"/>
<path d="M86.1298 13.208H79.3172V0.213807H76.109V15.7852H86.1298V13.208Z" fill="#C1C7D0"/>
<path d="M90.8464 9.03618H97.0061V6.52369H90.8464V2.81286H98.0543V0.213807H87.6383V15.7852H98.0751V13.208H90.8464V9.03618Z" fill="#C1C7D0"/>
<path d="M109.497 15.4264C110.552 15.0457 111.369 14.5086 111.947 13.8171V7.6042H105.818V9.96754H108.738V12.6521C108.226 13.1652 107.365 13.4218 106.161 13.4218C104.963 13.4218 104.054 13.0046 103.433 12.1703C102.814 11.3359 102.503 10.1031 102.503 8.46985V7.47591C102.51 5.85725 102.799 4.63803 103.369 3.81826C103.94 2.9985 104.77 2.58862 105.861 2.58862C106.716 2.58862 107.389 2.79512 107.877 3.20814C108.365 3.62219 108.681 4.27404 108.823 5.16576H111.947C111.754 3.48348 111.138 2.20168 110.097 1.32143C109.056 0.440128 107.611 0 105.765 0C104.439 0 103.282 0.301415 102.294 0.904244C101.308 1.50603 100.552 2.3769 100.028 3.51372C99.5033 4.65054 99.2416 5.99596 99.2416 7.54996V8.60961C99.2562 10.1209 99.5388 11.436 100.092 12.5551C100.644 13.6752 101.429 14.5284 102.444 15.1166C103.46 15.7048 104.642 16 105.989 16C107.273 16 108.442 15.8081 109.497 15.4264Z" fill="#C1C7D0"/>
<path d="M166.526 15.7852H169.734V0.213807H166.526V6.52369H160.27V0.213807H157.061V15.7852H160.27V9.11231H166.526V15.7852Z" fill="#C1C7D0"/>
<path fill-rule="evenodd" clip-rule="evenodd" d="M28.0257 8.35304C28.0257 9.88619 27.7545 11.2295 27.2122 12.3841C26.6709 13.5397 25.896 14.4303 24.8864 15.0582C23.8779 15.685 22.7212 15.999 21.4165 15.999C20.1264 15.999 18.9749 15.6892 17.9622 15.0686C16.9505 14.4481 16.1652 13.5626 15.6093 12.4112C15.0534 11.2598 14.7718 9.93521 14.7645 8.43752V7.66782C14.7645 6.13467 15.0409 4.78613 15.5937 3.62115C16.1464 2.45512 16.9266 1.56026 17.9361 0.935533C18.9447 0.311844 20.0982 0 21.3956 0C22.6931 0 23.8466 0.312887 24.8551 0.935533C25.8637 1.56026 26.6448 2.45512 27.1966 3.6201C27.7493 4.78613 28.0257 6.13154 28.0257 7.65739V8.35304ZM23.8987 3.92465C24.4828 4.77361 24.7748 6.01369 24.7748 7.64696V8.40623C24.7675 10.0249 24.4755 11.2566 23.8987 12.1014C23.3199 12.9462 22.4928 13.3686 21.4165 13.3686C20.3183 13.3686 19.4766 12.9295 18.8925 12.0524C18.3085 11.1763 18.0165 9.94251 18.0165 8.35304V7.59377C18.0227 5.97406 18.3189 4.7465 18.903 3.909C19.4881 3.07151 20.3183 2.65224 21.3956 2.65224C22.4793 2.65224 23.3136 3.07672 23.8987 3.92465Z" fill="#C1C7D0"/>
<path fill-rule="evenodd" clip-rule="evenodd" d="M119.978 10.0854H117.423V15.7852H114.214V0.213807H120C121.839 0.213807 123.258 0.623688 124.255 1.4445C125.254 2.26426 125.753 3.42194 125.753 4.91963C125.753 5.9824 125.523 6.86787 125.063 7.57708C124.604 8.28629 123.906 8.85157 122.972 9.27189L126.341 15.635V15.7852H122.897L119.978 10.0854ZM120.009 7.48634H117.423L117.422 2.81286H120C120.862 2.81286 121.502 3.02353 121.919 3.44384C122.336 3.86415 122.545 4.44195 122.545 5.17619C122.545 5.89688 122.324 6.46112 121.881 6.871C121.439 7.28088 120.815 7.48634 120.009 7.48634Z" fill="#C1C7D0"/>
<path fill-rule="evenodd" clip-rule="evenodd" d="M137.651 12.576H132.025L130.956 15.7852H127.545L133.342 0.213807H136.314L142.142 15.7852H138.732L137.651 12.576ZM136.784 9.97901H132.892L134.828 4.14888L136.784 9.97901Z" fill="#C1C7D0"/>
<path fill-rule="evenodd" clip-rule="evenodd" d="M146.474 10.2992V15.7852H143.266V0.213807H149.34C150.509 0.213807 151.537 0.427612 152.425 0.856268C153.314 1.28388 153.996 1.89088 154.473 2.67936C154.951 3.46679 155.19 4.36373 155.19 5.36914C155.19 6.89499 154.668 8.09752 153.623 8.97777C152.578 9.85907 151.133 10.2992 149.287 10.2992H146.474ZM149.34 7.70015H146.474V2.81286H149.415C150.207 2.82746 150.827 3.07046 151.276 3.5398C151.725 4.01017 151.949 4.6276 151.949 5.39104C151.949 6.13154 151.727 6.70204 151.281 7.10149C150.836 7.50095 150.189 7.70015 149.34 7.70015Z" fill="#C1C7D0"/>
</svg>
