<?xml version="1.0" encoding="utf-8"?>
<!-- Generator: Adobe Illustrator 26.3.1, SVG Export Plug-In . SVG Version: 6.00 Build 0)  -->
<svg version="1.1" id="Layer_1" xmlns="http://www.w3.org/2000/svg" xmlns:xlink="http://www.w3.org/1999/xlink" x="0px" y="0px"
	 viewBox="0 0 145 16" style="enable-background:new 0 0 145 16;" xml:space="preserve">
<style type="text/css">
	.st0{clip-path:url(#SVGID_00000047782078990697304870000008343434866098315198_);}
	.st1{fill:#AEAEB3;}
</style>
<g>
	<defs>
		<rect id="SVGID_1_" x="0.2" y="0" width="144.2" height="16"/>
	</defs>
	<clipPath id="SVGID_00000116942232455176049650000013281523483490544010_">
		<use xlink:href="#SVGID_1_"  style="overflow:visible;"/>
	</clipPath>
	<g style="clip-path:url(#SVGID_00000116942232455176049650000013281523483490544010_);">
		<path class="st1" d="M0.2,14.5H2V1.9H0.2V0.7h12.2v3.6h-1.2V2H5.5v4.8H9V5h1.2v5.2H9V8.3H5.5v6.1h5.9v-2.2h1.2v3.6H0.2V14.5z"/>
		<path class="st1" d="M17.7,14.5h1.4v1.2h-6v-1.2h1.4V1.2h-1.4V0h4.6V14.5z"/>
		<path class="st1" d="M37.8,11.4c-0.4,1.5-1,2.7-1.9,3.4c-0.9,0.7-2.2,1.1-3.7,1.1c-2.3,0-4.1-0.7-5.4-2.1c-1.3-1.4-2-3.3-2-5.7
			c0-2.4,0.7-4.3,2-5.7C28,1,29.8,0.4,32.1,0.4c0.8,0,1.7,0.1,2.5,0.3c0.9,0.2,1.9,0.6,2.8,1v3.7h-1.1C36,4.1,35.6,3.1,35,2.5
			c-0.3-0.3-0.7-0.6-1.1-0.7c-0.4-0.2-0.9-0.2-1.3-0.2c-0.6,0-1.2,0.1-1.7,0.4c-0.5,0.3-1,0.7-1.2,1.2c-0.6,1.1-1,2.7-1,5
			c0,2.2,0.3,3.9,1,5c0.6,1.1,1.6,1.6,3,1.6c0.4,0,0.8,0,1.2-0.2c0.4-0.1,0.7-0.4,1-0.6c0.6-0.6,1-1.4,1.2-2.5L37.8,11.4L37.8,11.4z
			"/>
		<path class="st1" d="M43.9,16c-1.7,0-3-0.5-4-1.5s-1.4-2.4-1.4-4.1c0-1.7,0.5-3.1,1.4-4.1s2.3-1.5,4-1.5c1.7,0,3,0.5,4,1.5
			s1.4,2.4,1.4,4.1c0,1.8-0.5,3.1-1.5,4.1S45.6,16,43.9,16z M43.9,14.9c0.3,0,0.6-0.1,0.9-0.3c0.3-0.2,0.5-0.4,0.6-0.7
			c0.3-0.6,0.4-1.8,0.4-3.6c0-1.7-0.1-2.9-0.4-3.5c-0.1-0.3-0.3-0.5-0.6-0.7c-0.3-0.2-0.6-0.3-0.9-0.3S43.3,5.9,43,6.1
			c-0.3,0.2-0.5,0.4-0.6,0.7c-0.3,0.6-0.4,1.8-0.4,3.5c0,1.7,0.1,2.9,0.4,3.5c0.1,0.3,0.3,0.6,0.5,0.7S43.6,14.9,43.9,14.9
			L43.9,14.9z"/>
		<path class="st1" d="M49.2,15.7v-1.2h1.4V6.2h-1.4V5h4.6v1.5c0.3-0.6,0.8-1,1.3-1.4c0.6-0.3,1.2-0.4,1.9-0.4
			c1.1,0,1.9,0.4,2.5,1.1c0.6,0.7,0.8,1.8,0.8,3.1v5.6h1.4v1.2h-5.8v-1.2H57V8.8c0-0.9-0.1-1.5-0.3-1.9c-0.1-0.2-0.3-0.3-0.5-0.4
			c-0.2-0.1-0.4-0.1-0.6-0.1c-0.3,0-0.6,0.1-0.8,0.2s-0.5,0.3-0.6,0.6c-0.3,0.5-0.4,1.4-0.4,2.5v4.8h1.2v1.2L49.2,15.7L49.2,15.7z"
			/>
		<path class="st1" d="M70.5,2.7h-1c0-0.4-0.2-0.8-0.4-1.2c-0.1-0.1-0.3-0.2-0.4-0.3c-0.2-0.1-0.3-0.1-0.5-0.1c-0.2,0-0.4,0-0.6,0.1
			c-0.2,0.1-0.3,0.3-0.4,0.4c-0.2,0.4-0.3,1-0.3,1.9V5h2.4v1.2h-2.4v8.3h1.8v1.2h-6.5v-1.2h1.4V6.2h-1.4V5h1.4V3.6
			c0-1.2,0.3-2.1,1-2.7c0.7-0.6,1.7-0.9,3-0.9c0.5,0,1,0,1.5,0.1c0.5,0.1,1,0.2,1.4,0.3L70.5,2.7L70.5,2.7z"/>
		<path class="st1" d="M74.5,14.5h1.4v1.2h-6v-1.2h1.4V6.2h-1.4V5h4.6V14.5z M70.9,2c0-0.5,0.2-1,0.5-1.4c0.2-0.2,0.3-0.3,0.6-0.4
			C72.2,0.1,72.4,0,72.7,0c0.2,0,0.5,0,0.7,0.1c0.2,0.1,0.4,0.2,0.5,0.4C74.2,1,74.4,1.5,74.4,2c0,0.5-0.2,1-0.5,1.4
			c-0.2,0.2-0.3,0.3-0.6,0.4c-0.2,0.1-0.4,0.1-0.7,0.1c-0.2,0-0.5,0-0.7-0.1c-0.2-0.1-0.4-0.2-0.6-0.4C71.1,2.9,70.9,2.5,70.9,2
			L70.9,2z"/>
		<path class="st1" d="M86.5,14.5h1.4v1.2h-4.6v-1.4c-0.2,0.5-0.6,0.9-1.1,1.2C81.6,15.9,81,16,80.4,16c-0.6,0-1.2-0.1-1.8-0.4
			c-0.6-0.3-1.1-0.7-1.4-1.2c-0.8-1-1.2-2.4-1.2-4.1c0-1.7,0.4-3.1,1.2-4.1c0.8-1,1.8-1.5,3.2-1.5c0.6,0,1.2,0.1,1.7,0.4
			c0.5,0.3,0.9,0.7,1.1,1.2V1.2h-1.4V0h4.6L86.5,14.5L86.5,14.5z M83.2,10.9v-1c0-1.2-0.1-2.2-0.4-2.7c-0.1-0.3-0.3-0.5-0.6-0.6
			c-0.2-0.1-0.5-0.2-0.8-0.2c-0.3,0-0.6,0.1-0.8,0.2c-0.3,0.2-0.4,0.4-0.6,0.7c-0.3,0.6-0.4,1.7-0.4,3.2c0,1.5,0.1,2.6,0.4,3.2
			c0.1,0.3,0.3,0.5,0.6,0.7c0.3,0.2,0.5,0.2,0.8,0.2c0.3,0,0.6-0.1,0.8-0.2c0.2-0.1,0.4-0.4,0.6-0.6C83.1,13,83.2,12.1,83.2,10.9z"
			/>
		<path class="st1" d="M98.2,10.8h-6.6v0.1c0,1.4,0.2,2.4,0.6,3c0.2,0.3,0.5,0.5,0.8,0.7s0.7,0.2,1,0.2c0.6,0,1.2-0.2,1.7-0.6
			c0.5-0.5,0.8-1.1,0.8-1.8H98c-0.3,1.2-0.8,2.1-1.5,2.7S94.6,16,93.2,16c-1.7,0-3-0.5-3.8-1.5c-0.9-1-1.3-2.4-1.3-4.2
			c0-1.8,0.4-3.2,1.4-4.2c0.9-1,2.2-1.5,3.8-1.5c1.6,0,2.8,0.5,3.7,1.6C97.7,7.3,98.1,8.8,98.2,10.8z M94.6,9.7c0-1.4-0.1-2.4-0.4-3
			c-0.1-0.2-0.2-0.5-0.5-0.6c-0.2-0.2-0.5-0.2-0.7-0.2c-0.3,0-0.5,0.1-0.7,0.2c-0.2,0.1-0.4,0.4-0.5,0.6c-0.2,0.6-0.4,1.5-0.4,2.8
			v0.2H94.6z"/>
		<path class="st1" d="M98.3,15.7v-1.2h1.4V6.2h-1.4V5h4.6v1.5c0.3-0.6,0.8-1,1.3-1.4c0.6-0.3,1.2-0.4,1.9-0.4
			c1.1,0,1.9,0.4,2.5,1.1c0.6,0.7,0.8,1.8,0.8,3.1v5.6h1.4v1.2H105v-1.2h1.2V8.8c0-0.9-0.1-1.5-0.3-1.9c-0.1-0.2-0.3-0.3-0.5-0.4
			c-0.2-0.1-0.4-0.1-0.6-0.1c-0.3,0-0.6,0.1-0.8,0.2c-0.3,0.1-0.5,0.3-0.6,0.6c-0.3,0.5-0.4,1.4-0.4,2.5v4.8h1.2v1.2L98.3,15.7
			L98.3,15.7z"/>
		<path class="st1" d="M120.6,12.4c-0.2,1.2-0.7,2.1-1.4,2.7c-0.7,0.6-1.7,0.9-2.9,0.9c-1.7,0-3.1-0.5-4-1.5c-0.9-1-1.4-2.4-1.4-4.2
			c0-1.8,0.5-3.2,1.4-4.2c0.9-1,2.2-1.5,3.9-1.5c0.7,0,1.4,0.1,2,0.2c0.7,0.2,1.4,0.4,2.1,0.6v3h-1c-0.1-0.9-0.3-1.6-0.7-2
			c-0.2-0.2-0.4-0.4-0.7-0.5c-0.3-0.1-0.6-0.2-0.9-0.1c-0.9,0-1.5,0.3-1.9,1c-0.4,0.7-0.6,1.8-0.6,3.5c0,1.7,0.2,2.8,0.6,3.5
			c0.2,0.3,0.4,0.6,0.7,0.8c0.3,0.2,0.7,0.3,1.1,0.3c0.3,0,0.6,0,0.8-0.2c0.3-0.1,0.5-0.3,0.7-0.5c0.4-0.5,0.7-1.2,0.7-1.8
			L120.6,12.4L120.6,12.4z"/>
		<path class="st1" d="M125.6,14.5h1.4v1.2h-6v-1.2h1.4V6.2H121V5h4.6V14.5z M122.1,2c0-0.5,0.2-1,0.5-1.4c0.2-0.2,0.3-0.3,0.6-0.4
			c0.2-0.1,0.4-0.1,0.7-0.1c0.2,0,0.5,0,0.7,0.1c0.2,0.1,0.4,0.2,0.5,0.4c0.3,0.4,0.5,0.9,0.5,1.4c0,0.5-0.2,1-0.5,1.4
			c-0.2,0.2-0.3,0.3-0.6,0.4c-0.2,0.1-0.4,0.1-0.7,0.1c-0.2,0-0.5,0-0.7-0.1c-0.2-0.1-0.4-0.2-0.6-0.4C122.3,2.9,122.1,2.5,122.1,2
			L122.1,2z"/>
		<path class="st1" d="M136.7,9.1v5.4h1.4v1.2h-4.6v-1.4c-0.4,0.5-0.8,0.9-1.4,1.2c-0.5,0.3-1.2,0.4-1.8,0.4c-1,0-1.7-0.3-2.3-0.9
			s-0.8-1.4-0.8-2.5c0-1.2,0.4-2.1,1.1-2.7c0.7-0.6,1.9-0.9,3.4-0.9h1.7V8.3c0-0.9-0.2-1.5-0.6-1.9c-0.4-0.4-0.9-0.6-1.7-0.6
			c-0.5,0-1.1,0.1-1.5,0.4c-0.4,0.3-0.6,0.8-0.7,1.4h-1V5.4c0.6-0.2,1.2-0.4,1.8-0.5c0.6-0.1,1.3-0.2,2-0.2c1.7,0,3,0.4,3.8,1.1
			S136.7,7.6,136.7,9.1z M133.5,12.3v-2.2h-1.2c-0.3,0-0.5,0-0.8,0.1c-0.2,0.1-0.5,0.2-0.6,0.4c-0.4,0.4-0.5,1-0.5,1.6
			c0,0.7,0.1,1.2,0.4,1.5c0.1,0.2,0.3,0.3,0.5,0.4c0.2,0.1,0.4,0.1,0.6,0.1c0.2,0,0.5,0,0.7-0.1c0.2-0.1,0.4-0.2,0.5-0.4
			C133.3,13.4,133.5,12.9,133.5,12.3L133.5,12.3z"/>
		<path class="st1" d="M143,14.5h1.4v1.2h-6v-1.2h1.4V1.2h-1.4V0h4.6V14.5z"/>
	</g>
</g>
</svg>
