<svg width="145" height="16" viewBox="0 0 145 16" fill="none" xmlns="http://www.w3.org/2000/svg">
<g clip-path="url(#clip0_2043_6972)">
<path d="M0.217224 14.4828H1.95516V1.8759H0.217224V0.662109H12.4103V4.22073H11.1689V2.04142H5.4586V6.86901H9.01722V4.96556H10.2586V10.1794H9.01722V8.2759H5.4586V14.3725H11.3345V12.1931H12.5758V15.7518H0.217224V14.4828Z" fill="#C1C7D0"/>
<path d="M17.7069 14.4828H19.0862V15.6966H13.1276V14.4828H14.5069V1.21379H13.1276V0H17.7069V14.4828Z" fill="#C1C7D0"/>
<path d="M37.7896 11.3931C37.431 12.938 36.7965 14.0966 35.8586 14.8414C34.9207 15.5862 33.6793 15.9724 32.1345 15.9724C29.8448 15.9724 28.0241 15.2828 26.7 13.8759C25.3758 12.469 24.7138 10.5655 24.7138 8.16554C24.7138 5.76554 25.3758 3.86209 26.7 2.45519C28.0241 1.0483 29.8448 0.358643 32.1345 0.358643C32.9817 0.365357 33.8248 0.476541 34.6448 0.689677C35.5885 0.937793 36.511 1.26065 37.4034 1.65519V5.35175H36.2724C36.0241 4.08278 35.6103 3.14485 34.9758 2.51037C34.6532 2.19347 34.2686 1.9466 33.8461 1.78521C33.4237 1.62382 32.9724 1.55138 32.5207 1.57244C31.9261 1.54318 31.3351 1.67992 30.8138 1.96736C30.2926 2.2548 29.8615 2.6816 29.5689 3.20002C28.9345 4.27588 28.6034 5.93106 28.6034 8.16554C28.6034 10.4 28.9345 12.0552 29.5689 13.1311C30.2034 14.2069 31.1965 14.7311 32.5207 14.7311C32.9254 14.7495 33.3296 14.6857 33.7089 14.5434C34.0882 14.4012 34.4348 14.1835 34.7276 13.9035C35.3069 13.3517 35.7207 12.4966 35.9689 11.3655H37.7896V11.3931Z" fill="#C1C7D0"/>
<path d="M43.9138 16C42.2034 16 40.8793 15.5035 39.9138 14.4828C38.9483 13.4621 38.4793 12.0828 38.4793 10.3449C38.4793 8.60694 38.9483 7.20004 39.9138 6.20694C40.8793 5.21384 42.2034 4.71729 43.9138 4.71729C45.6241 4.71729 46.9483 5.21384 47.9138 6.20694C48.8793 7.20004 49.3483 8.57935 49.3483 10.3449C49.3483 12.1104 48.8517 13.4897 47.8862 14.4828C46.9207 15.4759 45.5965 16 43.9138 16ZM43.9138 14.869C44.2239 14.8786 44.5292 14.7905 44.7865 14.6173C45.0439 14.444 45.2404 14.1944 45.3483 13.9035C45.6241 13.269 45.7621 12.0828 45.7621 10.3449C45.7621 8.63453 45.6241 7.44832 45.3483 6.81384C45.2326 6.52816 45.0343 6.28353 44.7787 6.11128C44.5232 5.93903 44.222 5.84701 43.9138 5.84701C43.6056 5.84701 43.3044 5.93903 43.0489 6.11128C42.7933 6.28353 42.595 6.52816 42.4793 6.81384C42.2034 7.44832 42.0655 8.63453 42.0655 10.3449C42.0655 12.0552 42.2034 13.2414 42.4793 13.8759C42.5743 14.1771 42.7669 14.4382 43.0266 14.618C43.2863 14.7978 43.5984 14.8861 43.9138 14.869V14.869Z" fill="#C1C7D0"/>
<path d="M49.2103 15.6965V14.4827H50.5896V6.20688H49.2103V4.99309H53.7896V6.51033C54.1048 5.94414 54.5609 5.46901 55.1138 5.13102C55.6942 4.8373 56.3395 4.69497 56.9896 4.71723C58.0655 4.71723 58.8931 5.07585 59.4448 5.79309C59.9965 6.51033 60.2724 7.55861 60.2724 8.93792V14.5379H61.6517V15.7517H55.8862V14.5379H57.0448V8.7724C57.0448 7.86205 56.9345 7.22757 56.7414 6.86895C56.6269 6.69173 56.4662 6.5492 56.2765 6.45681C56.0869 6.36441 55.8756 6.32568 55.6655 6.34481C55.3758 6.33268 55.0885 6.401 54.8353 6.54221C54.5821 6.68342 54.3729 6.892 54.231 7.14481C53.9276 7.66895 53.7896 8.52412 53.7896 9.65516V14.4552H54.9483V15.669H49.2103V15.6965Z" fill="#C1C7D0"/>
<path d="M70.5345 2.70346H69.5138C69.4979 2.28396 69.3535 1.87948 69.1 1.54484C68.9764 1.41463 68.8262 1.31269 68.6595 1.24602C68.4928 1.17936 68.3137 1.14955 68.1345 1.15864C67.9225 1.14403 67.7108 1.19093 67.5249 1.29369C67.3389 1.39645 67.1866 1.55071 67.0862 1.73795C66.8655 2.12415 66.7551 2.75864 66.7551 3.61381V4.99312H69.1827V6.20691H66.7551V14.4828H68.6034V15.6966H62.1483V14.4828H63.5276V6.20691H62.0931V4.99312H63.5276V3.64139C63.5276 2.45519 63.8586 1.54484 64.5482 0.937945C65.2379 0.331049 66.231 0.0276006 67.5551 0.0276006C68.062 0.0269075 68.5686 0.0545367 69.0724 0.110359C69.5557 0.173064 70.0348 0.265189 70.5069 0.386221V2.70346H70.5345Z" fill="#C1C7D0"/>
<path d="M74.4517 14.4828H75.8311V15.6966H69.8724V14.4828H71.2517V6.20691H69.8724V4.99311H74.4517V14.4828ZM70.9207 1.95863C70.9073 1.45285 71.0846 0.960517 71.4173 0.579321C71.5683 0.39868 71.7587 0.255034 71.9739 0.159398C72.1891 0.0637615 72.4233 0.0186751 72.6586 0.0275965C72.8886 0.027953 73.1158 0.0773506 73.3251 0.172492C73.5344 0.267633 73.721 0.406329 73.8724 0.579321C74.2093 0.958075 74.3871 1.4521 74.369 1.95863C74.3822 2.4561 74.2046 2.93977 73.8724 3.31036C73.7173 3.48193 73.5278 3.61907 73.3164 3.71293C73.105 3.8068 72.8762 3.85529 72.6448 3.85529C72.4135 3.85529 72.1847 3.8068 71.9733 3.71293C71.7619 3.61907 71.5724 3.48193 71.4173 3.31036C71.0851 2.93977 70.9075 2.4561 70.9207 1.95863V1.95863Z" fill="#C1C7D0"/>
<path d="M86.4517 14.4828H87.831V15.6966H83.2517V14.3448C83.0145 14.8585 82.6305 15.2904 82.1483 15.5862C81.6253 15.8744 81.0347 16.0173 80.4379 16C79.8177 16.024 79.2009 15.8987 78.6392 15.6347C78.0776 15.3706 77.5875 14.9756 77.2103 14.4828C76.4379 13.4621 76.0241 12.0828 76.0241 10.3448C76.0241 8.6069 76.4103 7.2 77.2103 6.2069C78.0103 5.21379 79.0586 4.71724 80.4379 4.71724C81.0351 4.69639 81.6266 4.8395 82.1483 5.13103C82.6305 5.42685 83.0145 5.85878 83.2517 6.37241V1.21379H81.8724V0H86.4793V14.4828H86.4517ZM83.2241 10.869V9.82069C83.2241 8.57931 83.0862 7.66897 82.7827 7.11724C82.6619 6.85725 82.4659 6.63944 82.22 6.49193C81.9741 6.34441 81.6897 6.27396 81.4034 6.28965C81.1068 6.27512 80.8128 6.35197 80.5612 6.50983C80.3096 6.6677 80.1125 6.89897 79.9965 7.17241C79.7207 7.75172 79.5827 8.82759 79.5827 10.3724C79.5827 11.9172 79.7207 12.9655 79.9965 13.5724C80.1125 13.8459 80.3096 14.0771 80.5612 14.235C80.8128 14.3929 81.1068 14.4697 81.4034 14.4552C81.6897 14.4709 81.9741 14.4004 82.22 14.2529C82.4659 14.1054 82.6619 13.8876 82.7827 13.6276C83.0862 13.0207 83.2241 12.1103 83.2241 10.869Z" fill="#C1C7D0"/>
<path d="M98.1758 10.8414H91.5551V10.9242C91.5551 12.3035 91.7483 13.2966 92.1069 13.9311C92.3013 14.2317 92.5727 14.4747 92.8929 14.6348C93.2131 14.7949 93.5704 14.8663 93.9276 14.8414C94.5467 14.87 95.152 14.6518 95.6103 14.2345C96.0889 13.753 96.382 13.118 96.4379 12.4414H97.9551C97.6793 13.6552 97.1827 14.5656 96.4103 15.1173C95.6379 15.669 94.562 15.9725 93.1827 15.9725C91.5 15.9725 90.231 15.4759 89.3483 14.5104C88.4655 13.5449 88.0241 12.138 88.0241 10.3173C88.0241 8.55177 88.4655 7.14487 89.4034 6.15176C90.3414 5.15866 91.5827 4.66211 93.2103 4.66211C94.8379 4.66211 96.0241 5.18625 96.8793 6.23452C97.6793 7.31039 98.1207 8.82763 98.1758 10.8414ZM94.6448 9.65521C94.6448 8.24832 94.5345 7.25521 94.2862 6.6759C94.1993 6.42867 94.0385 6.21414 93.8256 6.06141C93.6126 5.90868 93.3579 5.82515 93.0958 5.82214C92.8338 5.81912 92.5772 5.89678 92.3608 6.04458C92.1444 6.19237 91.9787 6.40315 91.8862 6.64832C91.6379 7.20004 91.5276 8.13797 91.5276 9.46211V9.65521H94.6448Z" fill="#C1C7D0"/>
<path d="M98.2862 15.6965V14.4827H99.6655V6.20688H98.2862V4.99309H102.866V6.51033C103.181 5.94414 103.637 5.46901 104.19 5.13102C104.77 4.8373 105.415 4.69497 106.066 4.71723C107.141 4.71723 107.969 5.07585 108.521 5.79309C109.072 6.51033 109.348 7.55861 109.348 8.93792V14.5379H110.728V15.7517H104.962V14.5379H106.121V8.7724C106.121 7.86205 106.01 7.22757 105.817 6.86895C105.703 6.69173 105.542 6.5492 105.352 6.45681C105.163 6.36441 104.951 6.32568 104.741 6.34481C104.452 6.33268 104.164 6.401 103.911 6.54221C103.658 6.68342 103.449 6.892 103.307 7.14481C103.003 7.66895 102.866 8.52412 102.866 9.65516V14.4552H104.024V15.669H98.2862V15.6965Z" fill="#C1C7D0"/>
<path d="M120.603 12.3587C120.355 13.5725 119.886 14.4828 119.197 15.0897C118.479 15.6966 117.514 16 116.3 16C114.59 16 113.238 15.5035 112.3 14.5104C111.362 13.5173 110.893 12.138 110.893 10.3449C110.893 8.55177 111.362 7.17246 112.3 6.17935C113.238 5.18625 114.534 4.6897 116.162 4.6897C116.848 4.69637 117.532 4.77029 118.203 4.91039C118.919 5.06212 119.62 5.27438 120.3 5.54487V8.52418H119.279C119.197 7.61384 118.948 6.95177 118.562 6.51039C118.362 6.28735 118.114 6.11208 117.837 5.9975C117.56 5.88291 117.261 5.83193 116.962 5.84832C116.079 5.84832 115.417 6.17935 115.059 6.86901C114.7 7.55866 114.479 8.71728 114.479 10.3725C114.479 12.0276 114.672 13.1587 115.031 13.8483C115.194 14.1795 115.451 14.4555 115.77 14.6419C116.089 14.8282 116.455 14.9168 116.824 14.8966C117.112 14.9061 117.398 14.8544 117.665 14.745C117.931 14.6357 118.171 14.4711 118.369 14.2621C118.796 13.7364 119.047 13.0899 119.086 12.4138H120.603V12.3587Z" fill="#C1C7D0"/>
<path d="M125.624 14.4828H127.003V15.6966H121.045V14.4828H122.424V6.20691H121.045V4.99311H125.624V14.4828ZM122.093 1.95863C122.08 1.45285 122.257 0.960517 122.59 0.579321C122.741 0.39868 122.931 0.255034 123.146 0.159398C123.361 0.0637615 123.596 0.0186751 123.831 0.0275965C124.061 0.027953 124.288 0.0773506 124.497 0.172492C124.707 0.267633 124.893 0.406329 125.045 0.579321C125.382 0.958075 125.559 1.4521 125.541 1.95863C125.555 2.4561 125.377 2.93977 125.045 3.31036C124.89 3.48193 124.7 3.61907 124.489 3.71293C124.277 3.8068 124.049 3.85529 123.817 3.85529C123.586 3.85529 123.357 3.8068 123.146 3.71293C122.934 3.61907 122.745 3.48193 122.59 3.31036C122.269 2.93303 122.093 2.45387 122.093 1.95863V1.95863Z" fill="#C1C7D0"/>
<path d="M136.659 9.13108V14.4828H138.038V15.6966H133.459V14.3449C133.096 14.8656 132.613 15.2914 132.052 15.5863C131.507 15.8683 130.9 16.0105 130.286 16C129.293 16 128.548 15.6966 128.024 15.1173C127.5 14.538 127.224 13.6828 127.224 12.5794C127.224 11.3656 127.61 10.4828 128.355 9.87591C129.1 9.26901 130.259 8.96557 131.776 8.96557H133.459V8.33108C133.459 7.47591 133.266 6.81384 132.907 6.40005C132.548 5.98626 131.969 5.79315 131.197 5.79315C130.663 5.75711 130.135 5.91373 129.707 6.23453C129.348 6.53798 129.128 7.00695 128.962 7.66902H127.941V5.35177C128.522 5.12288 129.122 4.94744 129.734 4.82764C130.381 4.71431 131.037 4.65892 131.693 4.66212C133.431 4.66212 134.672 5.02074 135.472 5.73798C136.272 6.45522 136.659 7.58626 136.659 9.13108ZM133.459 12.3311V10.1794H132.245C131.989 10.1656 131.733 10.2078 131.494 10.3031C131.256 10.3984 131.042 10.5444 130.866 10.7311C130.506 11.173 130.329 11.7353 130.369 12.3035C130.369 12.9932 130.479 13.4897 130.728 13.8207C130.851 13.9874 131.014 14.1203 131.202 14.2071C131.39 14.2939 131.597 14.3318 131.803 14.3173C132.031 14.3253 132.257 14.2795 132.463 14.1836C132.669 14.0877 132.849 13.9445 132.99 13.7656C133.315 13.3604 133.482 12.8504 133.459 12.3311V12.3311Z" fill="#C1C7D0"/>
<path d="M143.003 14.4828H144.383V15.6966H138.424V14.4828H139.803V1.21379H138.424V0H143.003V14.4828Z" fill="#C1C7D0"/>
</g>
<defs>
<clipPath id="clip0_2043_6972">
<rect width="144.166" height="16" fill="white" transform="translate(0.217224)"/>
</clipPath>
</defs>
</svg>
