<?xml version="1.0" encoding="utf-8"?>
<!-- Generator: Adobe Illustrator 26.3.1, SVG Export Plug-In . SVG Version: 6.00 Build 0)  -->
<svg version="1.1" id="Layer_1" xmlns="http://www.w3.org/2000/svg" xmlns:xlink="http://www.w3.org/1999/xlink" x="0px" y="0px"
	 viewBox="0 0 82 16" style="enable-background:new 0 0 82 16;" xml:space="preserve">
<style type="text/css">
	.st0{fill:#AEAEB3;}
</style>
<path class="st0" d="M0.8,15.4v-1.7H2c0.7,0,1.2-0.2,1.2-1.6V3.5c0-1-0.3-1.3-1.4-1.3h-1V0.6h14.3v5.9h-1.6
	c-0.3-3.1-0.6-4.3-3.5-4.3H6.2v4.7h1.2c1.3,0,1.9-0.7,1.9-2.5V4.1h1.6v7.5H9.3v-0.5c0-1.8-0.6-2.5-1.9-2.5H6.2v5.2h4.3
	c2,0,2.8-1.3,3-4.6h1.6v6.3H0.8z M16.3,15.4v-1.7h1.4c0.6,0,1-0.2,1-1V3.2c0-0.7-0.3-1-1.2-1h-1.3V0.6h8.1v1.7h-1.2
	c-1,0-1.3,0.2-1.3,1v10.6h3.6c2.3,0,2.8-1.3,3-4.8h1.6v6.4H16.3z M34.5,15.4v-1.7h1.4c0.5,0,0.9-0.2,0.9-0.8V3
	c0-0.6-0.4-0.8-0.9-0.8h-1.4V0.6h8.6c3.3,0,5.2,1.6,5.2,4.1c0,2.8-2,4.1-4.9,4.1h-3.4V13c0,0.6,0.5,0.8,1.1,0.8h1.4v1.7L34.5,15.4
	L34.5,15.4z M39.9,7h2c2.1,0,3.2-0.7,3.2-2.4c0-1.7-0.9-2.5-3.2-2.5h-2L39.9,7L39.9,7z M45.5,15.4h6.8v-1.7h-1.7
	c-0.4,0-0.7-0.1-0.7-0.4c0-0.2,0-0.3,0.1-0.5l0.7-2.3h4.9l0.7,2.3c0,0.1,0.1,0.3,0.1,0.5c0,0.2-0.2,0.3-0.7,0.3H54v1.7h14.7v-1.7
	h-1.3c-0.7,0-1.1-0.4-1.1-1.1V3.3c0-0.9,0.7-1.1,1.4-1.1h1V0.6H61v1.7h1.2c0.8,0,1.1,0.4,1.1,1V13c0,0.6-0.3,0.8-1.2,0.8h-0.5
	c-1.1,0-1.9-0.2-2.3-1.2L55,0.6h-3l-4.1,12c-0.4,1.1-1.1,1.2-2.3,1.2L45.5,15.4z M55,9h-3.7l1.7-5.4h0L55,9L55,9z M79.9,0.5h1.2v5.7
	h-1.5c-0.5-2.5-1.9-4.3-4.4-4.3c-2,0-2.8,0.5-2.8,2.1c0,3.4,9.6,0.9,9.6,7.2c0,3.6-2.7,4.8-5.7,4.8c-1.6,0-3.2-0.7-4.5-1.8l-0.5,1.3
	h-1.5V9.4h1.6c0.3,3.1,2.1,4.7,5.1,4.7c1.9,0,2.8-0.9,2.8-2c0-3.9-9.6-1-9.6-7.5c0-3.2,2.7-4.6,5.3-4.6c1.6,0,3,0.8,4.1,1.6
	L79.9,0.5L79.9,0.5z"/>
</svg>
