<svg width="62" height="16" viewBox="0 0 62 16" fill="none" xmlns="http://www.w3.org/2000/svg">
<path d="M15.4635 15.9561C14.3995 15.8009 13.4688 15.3496 12.7582 14.6443C12.1654 14.056 11.781 13.409 11.4977 12.5225C11.0554 11.1384 11.0552 9.35888 11.4973 8.00302C11.9258 6.68904 12.8904 5.54527 14.0711 4.95144C15.7061 4.12906 18.0073 4.18072 19.5216 5.07379C20.8844 5.87753 21.7099 7.30566 21.9396 9.25684C22.0097 9.8526 21.9642 11.1109 21.8538 11.6304C21.4017 13.7563 20.0852 15.2414 18.1564 15.8012C17.9485 15.8615 17.6262 15.9321 17.4401 15.958C17.0463 16.0129 15.8446 16.0117 15.4635 15.9561ZM17.7663 15.792C18.545 15.6099 19.1657 15.3319 19.7205 14.9167C21.07 13.9068 21.8095 12.3583 21.8778 10.3993C21.9451 8.46801 21.3638 6.82173 20.2398 5.76026C19.3274 4.89862 18.1776 4.48561 16.6913 4.48561C15.1157 4.48561 13.8469 4.97507 12.8707 5.95942C11.8251 7.01383 11.272 8.48474 11.272 10.2111C11.272 12.0021 11.7717 13.4478 12.7408 14.4607C13.2751 15.0192 13.7952 15.3541 14.5411 15.6199C14.8048 15.7139 14.9988 15.7591 15.7039 15.8904C15.7643 15.9017 16.1691 15.9037 16.6035 15.895C17.1916 15.8833 17.4886 15.857 17.7663 15.792ZM16.1014 15.1672C15.3806 14.8395 14.8695 13.8437 14.6133 12.2679C14.4509 11.269 14.4356 9.04754 14.5836 7.95906C14.7914 6.4305 15.2303 5.52744 15.9138 5.22238C16.3823 5.01329 17.0316 5.13699 17.449 5.51489C18.3762 6.35418 18.8442 8.74074 18.6422 11.6001C18.4974 13.652 18.0529 14.7649 17.224 15.1516C16.9234 15.2918 16.3918 15.2992 16.1014 15.1672ZM17.0553 15.1024C17.3662 15.0099 17.7495 14.6497 17.9539 14.258C18.376 13.4495 18.5644 12.2538 18.5691 10.3553C18.5749 7.97594 18.2027 6.46187 17.4169 5.66911C17.087 5.3362 16.853 5.23281 16.4311 5.23349C15.4948 5.23499 14.9006 6.21435 14.6658 8.14283C14.5579 9.02927 14.5573 11.1411 14.6648 11.9162C14.9974 14.3147 15.8561 15.4592 17.0553 15.1024ZM34.3095 15.9556C33.8742 15.9114 32.5439 15.6895 32.0792 15.5837L31.7577 15.5104L31.7828 13.7902C31.8431 9.64868 31.8507 7.3878 31.8116 5.18909C31.7734 3.0352 31.7622 2.80747 31.6793 2.48886C31.5743 2.08516 31.4227 1.80356 31.2403 1.67346C31.1695 1.62292 30.977 1.5513 30.8127 1.5143C30.2663 1.39132 30.2959 1.41104 30.2814 1.16128C30.273 1.01742 30.2885 0.922374 30.3252 0.893211C30.3745 0.854115 34.856 -0.00240055 34.9987 5.05771e-06C35.0397 0.00069623 35.0455 0.574849 35.0245 2.55103C35.0096 3.9536 35.0077 5.10115 35.0203 5.10115C35.0328 5.10115 35.1966 5.03011 35.3842 4.94327C35.9496 4.68152 36.4707 4.56795 37.2276 4.54152C37.7315 4.52392 37.965 4.53494 38.2235 4.58854C39.9139 4.93897 41.1649 6.32533 41.602 8.33278C41.7161 8.85646 41.7585 10.1579 41.6828 10.8098C41.6183 11.3654 41.4341 12.1141 41.2425 12.5999C40.5196 14.4331 38.9683 15.6291 36.9105 15.9399C36.4365 16.0114 34.948 16.0204 34.3095 15.9556ZM36.7888 15.8508C38.1218 15.6504 39.0995 15.1918 39.9276 14.3783C41.1245 13.2025 41.701 11.5431 41.6231 9.49793C41.583 8.44496 41.4113 7.75713 40.9758 6.90383C40.3857 5.74782 39.3765 4.93695 38.2307 4.69817C37.3711 4.51905 36.2652 4.65934 35.4243 5.05416C35.2148 5.15255 35.0142 5.23306 34.9786 5.23306C34.922 5.23306 34.9159 4.90747 34.9303 2.66851L34.9468 0.103957L34.7708 0.139316C34.6739 0.158764 33.6864 0.343135 32.5762 0.54903C31.466 0.754926 30.5144 0.933559 30.4614 0.945994C30.381 0.964894 30.3669 0.995615 30.3755 1.13327C30.3851 1.28669 30.3977 1.30056 30.5595 1.33624C31.1158 1.45888 31.2148 1.50259 31.4217 1.71667C31.675 1.97892 31.7895 2.31381 31.8646 3.01269C31.9244 3.56959 31.9377 13.1643 31.8806 14.5806L31.8467 15.4203L32.2992 15.5173C34.0127 15.8844 35.7206 16.0113 36.7888 15.8508ZM35.2234 15.1819C35.1347 15.1725 35.0398 15.1379 35.0125 15.105C34.9373 15.0142 34.8559 9.04566 34.906 7.29954L34.9458 5.91456L35.2968 5.81315C35.8147 5.66354 36.3723 5.6868 36.7676 5.8745C37.5614 6.25143 38.0829 7.18255 38.3538 8.70651C38.442 9.20292 38.429 10.9271 38.3323 11.5406C38.1306 12.8216 37.7635 13.8104 37.2525 14.4491C37.0048 14.7588 36.5934 15.0517 36.2718 15.1474C36.0642 15.2091 35.6194 15.2238 35.2234 15.1819ZM36.0682 15.0812C36.387 15.0206 36.6346 14.8935 36.9005 14.6539C37.5669 14.0536 38.068 12.8142 38.265 11.2786C38.3453 10.6532 38.3345 9.22802 38.2455 8.70599C38.0049 7.29412 37.4879 6.36618 36.7336 5.99255C36.4207 5.83755 36.3724 5.82662 36.0013 5.82662C35.7359 5.82662 35.5075 5.8551 35.3134 5.91241L35.0228 5.99819L35.0013 7.60516C34.9738 9.66366 35.0406 14.8172 35.0968 14.9651C35.1326 15.0594 35.172 15.0794 35.3496 15.0934C35.7678 15.1263 35.837 15.1251 36.0682 15.0812ZM46.9253 15.9338C44.7483 15.5404 43.1914 13.9935 42.6827 11.7186C42.6173 11.426 42.5884 11.0986 42.572 10.4652C42.546 9.4631 42.6273 8.84112 42.8854 8.06829C43.381 6.58436 44.2692 5.53284 45.5593 4.9026C46.9211 4.23739 48.7829 4.19382 49.988 4.79896C51.3449 5.48029 52.1433 6.8407 52.3459 8.81643C52.3731 9.08243 52.3889 9.399 52.381 9.51991L52.3665 9.73975L49.1193 9.75101L45.8722 9.76228L45.8845 10.1467C45.9132 11.0372 46.1043 11.8249 46.4578 12.5097C46.6184 12.821 46.7463 12.9907 47.0569 13.3049C47.7587 14.0149 48.4568 14.2897 49.5582 14.2897C50.3567 14.2897 50.9309 14.1301 51.5315 13.7411C51.6997 13.6321 51.8701 13.543 51.9102 13.543C52.0019 13.543 52.213 13.8152 52.213 13.9335C52.213 14.1272 51.5834 14.752 50.9693 15.1676C50.4664 15.508 49.6688 15.8163 48.9771 15.9375C48.4927 16.0224 47.4046 16.0204 46.9253 15.9338ZM48.8768 15.8493C49.8936 15.6841 50.8948 15.1951 51.6144 14.5124C52.0086 14.1384 52.1393 13.9579 52.0845 13.8633C51.9382 13.611 51.9445 13.6113 51.571 13.8412C50.9764 14.2072 50.6783 14.3081 49.9796 14.38C49.1635 14.4639 48.4107 14.3272 47.7152 13.9689C47.2537 13.7311 46.7007 13.1843 46.4244 12.6925C46.0472 12.0214 45.8426 11.2374 45.7815 10.2299C45.7559 9.80681 45.7615 9.70141 45.8111 9.66994C45.8449 9.64849 47.308 9.63087 49.0864 9.6305L52.3007 9.62983V9.50259C52.3007 9.21341 52.206 8.43611 52.1211 8.02858C51.7796 6.38994 50.8782 5.22149 49.5928 4.75146C49.0812 4.56438 48.5972 4.48561 47.9594 4.48561C46.448 4.48561 45.2137 4.98233 44.2588 5.97479C43.4976 6.76607 43.0459 7.65497 42.7702 8.90436C42.6871 9.28092 42.6732 9.4766 42.6732 10.2674C42.6732 11.0523 42.6874 11.2547 42.7679 11.6178C43.2796 13.9239 44.7938 15.4425 46.9692 15.8316C47.5205 15.9301 48.3329 15.9377 48.8768 15.8493ZM45.7908 8.89278C45.7578 8.83926 45.8397 8.05665 45.9207 7.65128C46.1161 6.67422 46.4288 5.96866 46.8592 5.53418C47.0907 5.30048 47.1963 5.22763 47.3851 5.17145C47.5151 5.13279 47.6622 5.10126 47.7122 5.1014C47.9135 5.10194 48.1511 5.20489 48.3279 5.36821C48.8025 5.80656 49.0741 6.74789 49.1279 8.14124L49.1545 8.82905L48.6981 8.85453C47.7821 8.90568 45.8147 8.93156 45.7908 8.89278ZM48.3031 8.76709L49.0666 8.74048L49.0391 8.19711C48.9422 6.28101 48.4742 5.23391 47.7152 5.23475C46.8902 5.23566 46.231 6.2983 45.9569 8.06898C45.9232 8.28662 45.8953 8.54471 45.8949 8.64251L45.8941 8.82034L46.7169 8.80702C47.1694 8.7997 47.8832 8.78173 48.3031 8.76709ZM55.7015 15.9765C54.9197 15.8925 53.6755 15.6196 53.2612 15.4411L53.0589 15.354L53.0313 14.3496C53.0161 13.7971 52.9986 13.0585 52.9924 12.7081L52.9811 12.0711L53.1024 12.0129C53.1691 11.9809 53.3037 11.9509 53.4015 11.9464L53.5794 11.9381L53.7309 12.3118C54.3221 13.7698 55.0155 14.5559 55.9211 14.795C56.2666 14.8862 56.9143 14.887 57.1701 14.7966C57.8865 14.5432 58.2794 13.9997 58.2828 13.2572C58.2868 12.3778 57.8044 11.9553 55.982 11.242C54.853 10.8001 54.4591 10.5727 53.9901 10.0917C53.4843 9.57288 53.2415 8.98229 53.1959 8.15976C53.1408 7.16581 53.4513 6.32789 54.1392 5.61385C54.8316 4.89528 55.7303 4.50583 56.9547 4.39388C58.0329 4.2953 59.6879 4.52442 60.555 4.89232L60.7132 4.95944L60.7414 5.85469C60.7569 6.34708 60.7729 7.00714 60.777 7.32149L60.7845 7.89304L60.572 7.97207C60.2361 8.09703 60.2141 8.08137 60.0272 7.58533C59.5035 6.19491 58.895 5.537 57.9468 5.33603C57.369 5.21355 56.8863 5.34522 56.5354 5.72104C56.2617 6.01423 56.1549 6.2746 56.1291 6.71182C56.101 7.18554 56.1855 7.4416 56.4744 7.75829C56.8304 8.14862 57.4137 8.48556 58.5757 8.97208C59.9989 9.56798 60.678 10.0739 61.0472 10.8133C61.2869 11.2935 61.3548 11.677 61.3307 12.4152C61.3126 12.9692 61.2949 13.0831 61.1691 13.455C60.759 14.6677 59.8333 15.466 58.4031 15.8403C57.9187 15.9671 57.8495 15.9737 56.8863 15.9842C56.3312 15.9903 55.798 15.9868 55.7015 15.9765ZM57.7859 15.8533C59.6502 15.5696 60.8539 14.5679 61.1697 13.0373C61.3221 12.2983 61.251 11.4764 60.9869 10.9269C60.6173 10.1575 59.9922 9.69294 58.4441 9.03712C57.2942 8.55004 56.605 8.13714 56.3227 7.76633C56.0895 7.45999 56.0137 7.22445 56.0168 6.8159C56.0215 6.19967 56.2547 5.72771 56.6997 5.43343C57.0723 5.18706 57.5392 5.12695 58.0829 5.25538C58.7399 5.41058 59.2339 5.81461 59.6801 6.56156C59.8221 6.79926 60.114 7.46654 60.2562 7.87831C60.2782 7.9422 60.3036 7.94489 60.4568 7.89955C60.5533 7.871 60.6458 7.83406 60.6624 7.81746C60.679 7.80085 60.6779 7.17099 60.66 6.41775L60.6275 5.04823L60.4682 4.98068C60.1996 4.8667 59.4983 4.67556 59.0365 4.59043C58.6889 4.52636 58.3832 4.50978 57.5665 4.51068C56.5916 4.51175 56.512 4.51814 56.1094 4.62759C54.9398 4.94551 54.0727 5.60683 53.6196 6.52647C53.3787 7.01522 53.2955 7.39196 53.2983 7.98104C53.3021 8.81745 53.5296 9.43486 54.0327 9.9743C54.4655 10.4385 55.0282 10.7696 55.9867 11.1243C56.741 11.4033 57.5196 11.793 57.8148 12.0391C57.9882 12.1837 58.1245 12.3484 58.2261 12.5364C58.3706 12.8037 58.3781 12.8391 58.3782 13.2572C58.3782 13.66 58.3666 13.7215 58.239 13.9915C57.9055 14.6967 57.2385 15.0468 56.3648 14.9752C55.1776 14.878 54.3419 14.0913 53.6614 12.4307C53.4839 11.9976 53.4718 11.9886 53.2019 12.0914L53.0781 12.1386L53.109 13.6872C53.1365 15.0615 53.1483 15.2421 53.2136 15.2923C53.4087 15.4422 54.6717 15.7425 55.5479 15.8474C56.2281 15.9288 57.2715 15.9315 57.7859 15.8533ZM0.356544 15.7122C0.32006 15.6975 0.301692 15.5879 0.301692 15.385C0.301692 15.0207 0.278518 15.037 0.981848 14.9063C1.52128 14.806 1.71428 14.7034 1.95249 14.3905C2.41435 13.7838 2.51417 12.6155 2.51521 7.80517C2.51618 3.28768 2.42933 2.33737 1.95166 1.63917C1.73973 1.3294 1.38259 1.1612 0.784384 1.08942L0.323633 1.03414L0.310925 0.673724L0.298218 0.313309L0.442568 0.287535C0.521961 0.27336 3.31138 0.267371 6.64129 0.274225L12.6957 0.286687L12.724 0.462558C12.7397 0.559287 12.7653 1.55146 12.781 2.66739L12.8095 4.69634L12.4974 4.79135C12.0275 4.93435 12.0303 4.9361 11.819 4.37569C11.2997 2.99915 10.7044 2.20597 9.8897 1.80544C9.32782 1.5292 9.06803 1.4958 7.48125 1.4958H6.1003L6.0765 1.72663C6.03186 2.15949 5.96137 4.944 5.96186 6.25531L5.96235 7.56335L6.36825 7.56102C6.59149 7.55973 7.0317 7.54327 7.34649 7.52444C7.81971 7.49612 7.96031 7.47095 8.15829 7.37912C8.64472 7.15348 8.97566 6.65688 9.1784 5.84834L9.28307 5.43091L9.64123 5.41814L9.9994 5.40537V8.04699V10.6886L9.6411 10.6758L9.28279 10.6631L9.18109 10.2454C8.99 9.46057 8.62224 8.89873 8.16781 8.69731C7.95794 8.60429 7.43865 8.55143 6.43407 8.52081L5.96235 8.50643V9.49884C5.96235 10.5803 6.02168 12.0433 6.09774 12.8373C6.20378 13.9442 6.48608 14.5559 6.99306 14.7772C7.08987 14.8195 7.39616 14.8881 7.67371 14.9297C7.95125 14.9714 8.21289 15.0233 8.25513 15.0452C8.36224 15.1006 8.36856 15.6739 8.26251 15.7147C8.17952 15.7466 0.435595 15.7442 0.356544 15.7122ZM8.24416 15.3676C8.24416 15.2346 8.2323 15.1258 8.21781 15.1258C8.00873 15.1258 7.03442 14.9153 6.8778 14.8363C6.32059 14.5552 6.06301 13.887 5.96306 12.4634C5.89201 11.4515 5.82131 8.47849 5.8672 8.43251C5.90881 8.39082 7.76406 8.46489 7.98087 8.5169C8.58037 8.66071 9.04246 9.25159 9.27384 10.1702L9.37582 10.5751L9.64373 10.5882L9.91164 10.6013V8.04909V5.49686H9.62641C9.35976 5.49686 9.34119 5.50331 9.34119 5.59593C9.34119 5.76252 9.17474 6.28969 9.01718 6.62213C8.77039 7.14281 8.42283 7.45709 7.98087 7.55921C7.87227 7.5843 7.3596 7.62449 6.84162 7.64853C6.11106 7.68242 5.89187 7.68023 5.86431 7.63877C5.81339 7.56215 5.92947 1.7733 5.98733 1.50432L6.00914 1.40292L7.62031 1.41638L9.23148 1.42985L9.60641 1.56439C10.4748 1.87601 11.0997 2.51237 11.6218 3.61678C11.7391 3.8649 11.8894 4.2262 11.9559 4.41965C12.0223 4.61311 12.0811 4.77755 12.0866 4.78507C12.092 4.79258 12.2361 4.75622 12.4069 4.70425L12.7173 4.60977L12.6955 3.1737C12.6835 2.38386 12.6623 1.43589 12.6483 1.06711L12.623 0.396607H6.50415H0.385267L0.398331 0.671211L0.411395 0.945815L0.806324 0.995308C1.33316 1.06133 1.52633 1.11884 1.73848 1.27283C2.06007 1.50624 2.25784 1.84914 2.38238 2.38921C2.57587 3.22826 2.64551 5.12048 2.61325 8.66254C2.57918 12.4052 2.53207 13.1836 2.29394 13.9387C2.09809 14.5597 1.73357 14.8889 1.13148 14.9885C0.965769 15.0159 0.731024 15.0597 0.609822 15.0857L0.389454 15.1331V15.3713V15.6094H4.31681H8.24416V15.3676ZM21.9877 15.7039C21.9477 15.6784 21.9346 15.577 21.9438 15.3637L21.957 15.0598L22.1106 15.0271C22.195 15.0091 22.3765 14.9733 22.5138 14.9476C22.9386 14.868 23.1828 14.637 23.3202 14.1844C23.4321 13.8157 23.4815 12.6361 23.4841 10.2674C23.4872 7.37033 23.427 6.68619 23.1346 6.29837C22.9762 6.08818 22.862 6.02841 22.4775 5.95447C22.2878 5.91798 22.0881 5.87885 22.0338 5.86753C21.9458 5.84918 21.935 5.82048 21.935 5.605C21.935 5.39548 21.9483 5.35763 22.0338 5.32239C22.1651 5.26828 26.5122 4.39767 26.651 4.39767H26.7594L26.7381 5.04619C26.7264 5.40288 26.7078 5.92225 26.6966 6.20035L26.6764 6.70598L26.8338 6.42142C27.338 5.51047 27.9034 4.945 28.6552 4.59977C29.0679 4.41026 29.3432 4.3537 29.8531 4.3537C30.4578 4.3537 31.0623 4.5514 31.0623 4.74915C31.0623 4.88212 29.9969 7.70271 29.9382 7.7253C29.9095 7.73632 29.7015 7.6566 29.4759 7.54813C29.0054 7.32193 28.564 7.21132 28.1355 7.21226C27.602 7.21342 27.0059 7.41034 26.7706 7.66322C26.67 7.77138 26.6695 7.77789 26.6445 9.3933C26.6197 10.9931 26.6729 12.9444 26.7627 13.7293C26.8392 14.3979 27.0165 14.727 27.3827 14.8803C27.5049 14.9314 28.2778 15.0376 28.53 15.0378C28.5491 15.0378 28.559 15.1912 28.552 15.3786L28.5391 15.7194L25.2919 15.7298C23.506 15.7356 22.0191 15.7239 21.9877 15.7039ZM28.4733 15.3714V15.1333L28.1332 15.1045C27.3489 15.0382 27.134 14.9593 26.928 14.662C26.6295 14.2313 26.5645 13.4365 26.5645 10.2159V7.70233L26.6733 7.58631C26.8105 7.43992 27.2396 7.23565 27.543 7.17226C28.1591 7.04353 28.9467 7.15474 29.5627 7.45743C29.7394 7.5443 29.8915 7.60795 29.9006 7.59888C29.9187 7.58071 30.9304 4.90188 30.9618 4.78889C30.9761 4.73761 30.9178 4.69293 30.7476 4.6247C30.3834 4.47866 30.0675 4.42858 29.66 4.45227C28.5702 4.51564 27.6031 5.24109 26.9064 6.5177C26.7908 6.72962 26.671 6.9032 26.6402 6.90342C26.5955 6.90373 26.5904 6.66029 26.6144 5.69211L26.6444 4.48039L26.5386 4.50538C26.4804 4.51912 25.6035 4.69713 24.5898 4.90096C22.4158 5.33812 22.1137 5.40183 22.0618 5.43393C22.0404 5.44722 22.0228 5.52579 22.0228 5.60854C22.0228 5.77456 22.0034 5.76494 22.4974 5.84454C23.1765 5.95397 23.4163 6.28572 23.5176 7.25557C23.6496 8.52011 23.5969 13.4497 23.4441 14.1227C23.366 14.4668 23.1642 14.7982 22.961 14.9159C22.8857 14.9596 22.6487 15.0296 22.4344 15.0715L22.0447 15.1478L22.0315 15.3786L22.0182 15.6094H25.2458H28.4733V15.3714Z" fill="#AEAEB3"/>
<path d="M8.24416 15.3676C8.24416 15.2346 8.2323 15.1258 8.21781 15.1258C8.00873 15.1258 7.03442 14.9153 6.8778 14.8363C6.32059 14.5552 6.06301 13.887 5.96306 12.4634C5.89201 11.4515 5.82131 8.47849 5.8672 8.43251C5.90881 8.39082 7.76406 8.46489 7.98087 8.5169C8.58037 8.66071 9.04246 9.25159 9.27384 10.1702L9.37582 10.5751L9.64373 10.5882L9.91164 10.6013V8.04909V5.49686H9.62641C9.35976 5.49686 9.34119 5.50331 9.34119 5.59593C9.34119 5.76252 9.17474 6.28969 9.01718 6.62213C8.77039 7.14281 8.42283 7.45709 7.98087 7.55921C7.87227 7.5843 7.3596 7.62449 6.84162 7.64853C6.11106 7.68242 5.89187 7.68023 5.86431 7.63877C5.81339 7.56215 5.92947 1.7733 5.98733 1.50432L6.00914 1.40292L7.62031 1.41638L9.23148 1.42985L9.60641 1.56439C10.4748 1.87601 11.0997 2.51237 11.6218 3.61678C11.7391 3.8649 11.8894 4.2262 11.9559 4.41965C12.0223 4.61311 12.0811 4.77755 12.0866 4.78507C12.092 4.79258 12.2361 4.75622 12.4069 4.70425L12.7173 4.60977L12.6955 3.1737C12.6835 2.38386 12.6623 1.43589 12.6483 1.06711L12.623 0.396607H6.50415H0.385267L0.398331 0.671211L0.411395 0.945815L0.806324 0.995308C1.33316 1.06133 1.52633 1.11884 1.73848 1.27283C2.06007 1.50624 2.25784 1.84914 2.38238 2.38921C2.57587 3.22826 2.64551 5.12048 2.61325 8.66254C2.57918 12.4052 2.53207 13.1836 2.29394 13.9387C2.09809 14.5597 1.73357 14.8889 1.13148 14.9885C0.965769 15.0159 0.731024 15.0597 0.609822 15.0857L0.389454 15.1331V15.3713V15.6094H4.31681H8.24416V15.3676Z" fill="#AEAEB3"/>
<path fill-rule="evenodd" clip-rule="evenodd" d="M17.7663 15.792C18.545 15.6099 19.1657 15.3319 19.7205 14.9167C21.07 13.9068 21.8095 12.3583 21.8778 10.3993C21.9451 8.46801 21.3638 6.82173 20.2398 5.76026C19.3274 4.89862 18.1776 4.48561 16.6913 4.48561C15.1157 4.48561 13.8469 4.97507 12.8707 5.95942C11.8251 7.01383 11.272 8.48474 11.272 10.2111C11.272 12.0021 11.7717 13.4478 12.7408 14.4607C13.2751 15.0192 13.7952 15.3541 14.5411 15.6199C14.8048 15.7139 14.9988 15.7591 15.7039 15.8904C15.7643 15.9017 16.1691 15.9037 16.6035 15.895C17.1916 15.8833 17.4886 15.857 17.7663 15.792ZM14.6133 12.2679C14.8695 13.8437 15.3806 14.8395 16.1014 15.1672C16.3918 15.2992 16.9234 15.2918 17.224 15.1516C18.0529 14.7649 18.4974 13.652 18.6422 11.6001C18.8442 8.74074 18.3762 6.35418 17.449 5.51489C17.0316 5.13699 16.3823 5.01329 15.9138 5.22238C15.2303 5.52744 14.7914 6.4305 14.5836 7.95906C14.4356 9.04754 14.4509 11.269 14.6133 12.2679Z" fill="#AEAEB3"/>
<path d="M28.4733 15.3714V15.1333L28.1332 15.1045C27.3489 15.0382 27.134 14.9593 26.928 14.662C26.6295 14.2313 26.5645 13.4365 26.5645 10.2159V7.70233L26.6733 7.58631C26.8105 7.43992 27.2396 7.23565 27.543 7.17226C28.1591 7.04353 28.9467 7.15474 29.5627 7.45743C29.7394 7.5443 29.8915 7.60795 29.9006 7.59888C29.9187 7.58071 30.9304 4.90188 30.9618 4.78889C30.9761 4.73761 30.9178 4.69293 30.7476 4.6247C30.3834 4.47866 30.0675 4.42858 29.66 4.45227C28.5702 4.51564 27.6031 5.24109 26.9064 6.5177C26.7908 6.72962 26.671 6.9032 26.6402 6.90342C26.5955 6.90373 26.5904 6.66029 26.6144 5.69211L26.6444 4.48039L26.5386 4.50538C26.4804 4.51912 25.6035 4.69713 24.5898 4.90096C22.4158 5.33812 22.1137 5.40183 22.0618 5.43393C22.0404 5.44722 22.0228 5.52579 22.0228 5.60854C22.0228 5.77456 22.0034 5.76494 22.4974 5.84454C23.1765 5.95397 23.4163 6.28572 23.5176 7.25557C23.6496 8.52011 23.5969 13.4497 23.4441 14.1227C23.366 14.4668 23.1642 14.7982 22.961 14.9159C22.8857 14.9596 22.6487 15.0296 22.4344 15.0715L22.0447 15.1478L22.0315 15.3786L22.0182 15.6094H25.2458H28.4733V15.3714Z" fill="#AEAEB3"/>
<path fill-rule="evenodd" clip-rule="evenodd" d="M36.7888 15.8508C38.1218 15.6504 39.0995 15.1918 39.9276 14.3783C41.1245 13.2025 41.701 11.5431 41.6231 9.49793C41.583 8.44496 41.4113 7.75713 40.9758 6.90383C40.3857 5.74782 39.3765 4.93695 38.2307 4.69817C37.3711 4.51905 36.2652 4.65934 35.4243 5.05416C35.2148 5.15255 35.0142 5.23306 34.9786 5.23306C34.922 5.23306 34.9159 4.90747 34.9303 2.66851L34.9468 0.103957L34.7708 0.139316C34.6739 0.158764 33.6864 0.343135 32.5762 0.54903C31.466 0.754926 30.5144 0.933559 30.4614 0.945994C30.381 0.964894 30.3669 0.995615 30.3755 1.13327C30.3851 1.28669 30.3977 1.30056 30.5595 1.33624C31.1158 1.45888 31.2148 1.50259 31.4217 1.71667C31.675 1.97892 31.7895 2.31381 31.8646 3.01269C31.9244 3.56959 31.9377 13.1643 31.8806 14.5806L31.8467 15.4203L32.2992 15.5173C34.0127 15.8844 35.7206 16.0113 36.7888 15.8508ZM35.0125 15.105C35.0398 15.1379 35.1347 15.1725 35.2234 15.1819C35.6194 15.2238 36.0642 15.2091 36.2718 15.1474C36.5934 15.0517 37.0048 14.7588 37.2525 14.4491C37.7635 13.8104 38.1306 12.8216 38.3323 11.5406C38.429 10.9271 38.442 9.20292 38.3538 8.70651C38.0829 7.18255 37.5614 6.25143 36.7676 5.8745C36.3723 5.6868 35.8147 5.66354 35.2968 5.81315L34.9458 5.91456L34.906 7.29954C34.8559 9.04566 34.9373 15.0142 35.0125 15.105Z" fill="#AEAEB3"/>
<path fill-rule="evenodd" clip-rule="evenodd" d="M48.8768 15.8493C49.8936 15.6841 50.8948 15.1951 51.6144 14.5124C52.0086 14.1384 52.1393 13.9579 52.0845 13.8633C51.9382 13.611 51.9445 13.6113 51.571 13.8412C50.9764 14.2072 50.6783 14.3081 49.9796 14.38C49.1635 14.4639 48.4107 14.3272 47.7152 13.9689C47.2537 13.7311 46.7007 13.1843 46.4244 12.6925C46.0472 12.0214 45.8426 11.2374 45.7815 10.2299C45.7559 9.80681 45.7615 9.70141 45.8111 9.66994C45.8449 9.64849 47.308 9.63087 49.0864 9.6305L52.3007 9.62983V9.50259C52.3007 9.21341 52.206 8.43611 52.1211 8.02858C51.7796 6.38994 50.8782 5.22149 49.5928 4.75146C49.0812 4.56438 48.5972 4.48561 47.9594 4.48561C46.448 4.48561 45.2137 4.98233 44.2588 5.97479C43.4976 6.76607 43.0459 7.65497 42.7702 8.90436C42.6871 9.28092 42.6732 9.4766 42.6732 10.2674C42.6732 11.0523 42.6874 11.2547 42.7679 11.6178C43.2796 13.9239 44.7938 15.4425 46.9692 15.8316C47.5205 15.9301 48.3329 15.9377 48.8768 15.8493ZM45.9207 7.65128C45.8397 8.05665 45.7578 8.83926 45.7908 8.89278C45.8147 8.93156 47.7821 8.90568 48.6981 8.85453L49.1545 8.82905L49.1279 8.14124C49.0741 6.74789 48.8025 5.80656 48.3279 5.36821C48.1511 5.20489 47.9135 5.10194 47.7122 5.1014C47.6622 5.10126 47.5151 5.13279 47.3851 5.17145C47.1963 5.22763 47.0907 5.30048 46.8592 5.53418C46.4288 5.96866 46.1161 6.67422 45.9207 7.65128Z" fill="#AEAEB3"/>
<path d="M57.7859 15.8533C59.6502 15.5696 60.8539 14.5679 61.1697 13.0373C61.3221 12.2983 61.251 11.4764 60.9869 10.9269C60.6173 10.1575 59.9922 9.69294 58.4441 9.03712C57.2942 8.55004 56.605 8.13714 56.3227 7.76633C56.0895 7.45999 56.0137 7.22445 56.0168 6.8159C56.0215 6.19967 56.2547 5.72771 56.6997 5.43343C57.0723 5.18706 57.5392 5.12695 58.0829 5.25538C58.7399 5.41058 59.2339 5.81461 59.6801 6.56156C59.8221 6.79926 60.114 7.46654 60.2562 7.87831C60.2782 7.9422 60.3036 7.94489 60.4568 7.89955C60.5533 7.871 60.6458 7.83406 60.6624 7.81746C60.679 7.80085 60.6779 7.17099 60.66 6.41775L60.6275 5.04823L60.4682 4.98068C60.1996 4.8667 59.4983 4.67556 59.0365 4.59043C58.6889 4.52636 58.3832 4.50978 57.5665 4.51068C56.5916 4.51175 56.512 4.51814 56.1094 4.62759C54.9398 4.94551 54.0727 5.60683 53.6196 6.52647C53.3787 7.01522 53.2955 7.39196 53.2983 7.98104C53.3021 8.81745 53.5296 9.43486 54.0327 9.9743C54.4655 10.4385 55.0282 10.7696 55.9867 11.1243C56.741 11.4033 57.5196 11.793 57.8148 12.0391C57.9882 12.1837 58.1245 12.3484 58.2261 12.5364C58.3706 12.8037 58.3781 12.8391 58.3782 13.2572C58.3782 13.66 58.3666 13.7215 58.239 13.9915C57.9055 14.6967 57.2385 15.0468 56.3648 14.9752C55.1776 14.878 54.3419 14.0913 53.6614 12.4307C53.4839 11.9976 53.4718 11.9886 53.2019 12.0914L53.0781 12.1386L53.109 13.6872C53.1365 15.0615 53.1483 15.2421 53.2136 15.2923C53.4087 15.4422 54.6717 15.7425 55.5479 15.8474C56.2281 15.9288 57.2715 15.9315 57.7859 15.8533Z" fill="#AEAEB3"/>
</svg>
