<svg width="152" height="16" viewBox="0 0 152 16" fill="none" xmlns="http://www.w3.org/2000/svg">
<path d="M8.93061 14.948C9.28017 14.1302 10.1609 11.7775 10.1609 11.6615C10.1609 11.5844 10.0469 11.4603 9.90768 11.3858C9.66607 11.2565 9.60877 11.2919 8.65134 12.162C8.09959 12.6634 7.41739 13.2929 7.13535 13.5609L6.62257 14.0481L5.36621 14.0492L4.10987 14.0504V8.22077V2.39113L4.49447 2.27893C4.70599 2.21722 5.05213 2.13555 5.26365 2.09744C5.63938 2.02976 5.64826 2.01774 5.64826 1.57641V1.12466L2.85352 1.15195L0.0587733 1.17924V1.58092C0.0587733 2.01815 0.0149686 1.98843 1.05873 2.25903L1.54589 2.38532V8.16263V13.9399L1.11001 14.0482C0.870284 14.1077 0.535681 14.1917 0.366455 14.2349C0.129477 14.2953 0.0511348 14.3794 0.0254973 14.6008C-0.0449652 15.2092 -0.280557 15.1786 4.46779 15.1786H8.83198L8.93061 14.948Z" fill="#C1C7D0"/>
<path fill-rule="evenodd" clip-rule="evenodd" d="M13.7307 14.7429L13.6991 14.307L13.0581 14.1534C12.7056 14.0689 12.4184 13.9536 12.4199 13.897C12.4214 13.8405 12.7637 12.8942 13.1806 11.7943L13.9386 9.7944H16.164H18.3895L19.1339 11.7943C19.5433 12.8942 19.8432 13.8328 19.8002 13.8801C19.7572 13.9273 19.4053 14.0426 19.0181 14.1364L18.3143 14.307L18.2827 14.7445L18.251 15.182L21.1543 15.1547L24.0576 15.1275V14.8198C24.0576 14.3694 23.9494 14.275 23.2831 14.1439C22.9527 14.0789 22.6192 13.9506 22.5422 13.8587C22.4651 13.7668 22.2288 13.207 22.0171 12.6148C21.8054 12.0225 21.2203 10.4253 20.7168 9.0655C20.2133 7.70569 19.7998 6.5519 19.7979 6.50153C19.7959 6.45116 19.7052 6.22534 19.5962 5.9997C19.4872 5.77408 19.3965 5.54848 19.3946 5.49839C19.3927 5.44829 18.9925 4.34066 18.5053 3.03697C18.0181 1.73329 17.5775 0.516643 17.5262 0.333316C17.4749 0.149993 17.3898 0 17.3372 0C17.2846 0 17.049 0.208951 16.8136 0.464329C16.5782 0.719712 16.1619 1.07362 15.8885 1.2508C15.3627 1.59149 15.3318 1.64574 15.4925 1.94598C15.5988 2.14468 15.5987 2.145 14.3108 5.28179C13.9866 6.07149 13.4107 7.47912 13.031 8.40984C12.6513 9.34057 12.0745 10.7482 11.7491 11.5379C11.4237 12.3276 11.0767 13.1805 10.9779 13.4333C10.7885 13.9177 10.745 13.9572 10.1395 14.1949C9.86283 14.3035 9.7161 14.4473 9.60104 14.7227C9.51406 14.9309 9.44289 15.1187 9.44289 15.14C9.44289 15.1613 10.4147 15.1788 11.6025 15.1788H13.7622L13.7307 14.7429ZM15.537 5.48692C15.3852 5.82185 14.3658 8.50935 14.3658 8.57478C14.3658 8.64115 17.8135 8.62003 17.8803 8.55324C17.9143 8.51929 17.8796 8.34622 17.8033 8.16864C17.727 7.99106 17.3534 6.99198 16.9732 5.94844C16.593 4.9049 16.2501 4.01424 16.2112 3.96921C16.1722 3.92418 16.036 4.17801 15.9085 4.53328C15.7809 4.88856 15.6138 5.31769 15.537 5.48692Z" fill="#C1C7D0"/>
<path d="M32.7551 14.2044C33.0847 13.4147 33.5565 12.284 33.8036 11.6917C34.0506 11.0995 34.4875 10.038 34.7745 9.33288C35.0615 8.62779 35.3383 7.95859 35.3896 7.84578C35.441 7.73296 35.7879 6.90223 36.1605 5.99971C36.5332 5.09719 36.8979 4.22031 36.971 4.05109C37.044 3.88187 37.2294 3.44017 37.3828 3.06954L37.6618 2.39567L38.526 2.20635L39.3902 2.01702V1.57077V1.12451L36.9031 1.15196L34.4161 1.17944V1.58214V1.98484L35.1767 2.17181C35.595 2.27464 35.958 2.37951 35.9834 2.40486C36.0087 2.43021 35.981 2.58023 35.922 2.73822C35.4827 3.91276 34.8574 5.52229 34.7746 5.69203C34.7195 5.80485 34.5586 6.20971 34.4171 6.59171C34.2755 6.97371 33.8209 8.15058 33.4068 9.20697C32.9928 10.2634 32.62 11.22 32.5785 11.3328C32.5115 11.515 32.4825 11.4958 32.3187 11.1615C32.2172 10.9544 32.0861 10.6545 32.0273 10.4948C31.9685 10.3352 31.6821 9.62774 31.3908 8.92265C29.3191 3.90722 28.7246 2.42669 28.7657 2.38553C28.786 2.36529 29.1772 2.27125 29.6351 2.17657L30.4675 2.00443V1.56629V1.12816H27.3395H24.2114V1.58967C24.2114 1.99786 24.2381 2.05199 24.4422 2.05808C24.5691 2.06196 24.9698 2.14358 25.3327 2.23965L25.9924 2.41431L26.6972 4.10445C28.055 7.3602 28.1469 7.58151 30.2101 12.5635C30.5839 13.466 30.9563 14.3499 31.0376 14.5276C31.1189 14.7054 31.1856 14.89 31.1858 14.9379C31.1861 14.9857 31.2795 15.1779 31.3935 15.3648C31.5586 15.6357 31.657 15.6981 31.8783 15.6725C32.131 15.6431 32.2094 15.5119 32.7551 14.2044Z" fill="#C1C7D0"/>
<path fill-rule="evenodd" clip-rule="evenodd" d="M62.4787 12.6148C62.514 10.9508 62.5508 7.98686 62.5606 6.02834C62.5706 4.03857 62.6194 2.44212 62.6712 2.4101C62.7222 2.37858 63.1007 2.27001 63.5123 2.16882L64.2608 1.98484V1.58214V1.17944L61.8763 1.15192L59.4918 1.1244V1.56846V2.01253L60.3025 2.19655L61.1133 2.38058L61.1769 3.62608C61.2596 5.24763 61.3028 11.2817 61.2317 11.2816C61.2015 11.2816 61.0169 11.0872 60.8214 10.8497C60.507 10.4675 58.908 8.57882 56.9278 6.25044C56.5611 5.81934 55.4334 4.49047 54.4216 3.2974L52.5821 1.12818H50.7039H48.8256L48.8257 1.56405L48.8258 1.99993L49.7082 2.20505L50.5907 2.41017L50.577 5.02542C50.5696 6.46381 50.54 8.84062 50.5114 10.3072C50.4827 11.7738 50.4609 13.1898 50.4629 13.4539L50.4664 13.9341L49.6889 14.1071C49.254 14.2038 48.8758 14.2408 48.8306 14.191C48.7862 14.142 48.677 13.8942 48.5879 13.6404C48.4987 13.3866 47.9353 11.8405 47.3359 10.2047C46.7364 8.56884 45.8067 6.0305 45.2699 4.56391C44.7331 3.09731 44.2565 1.80507 44.2109 1.69225C44.1652 1.57944 44.0238 1.18715 43.8967 0.820497C43.7696 0.453851 43.6277 0.110997 43.5812 0.0586057C43.5322 0.00336137 43.2266 0.222033 42.8536 0.579187C42.4999 0.917897 42.0798 1.28001 41.9202 1.38388C41.6718 1.5455 41.6388 1.61999 41.6914 1.90039C41.7551 2.2399 41.5524 2.78716 39.698 7.28172C38.8591 9.31512 37.4987 12.6528 37.2418 13.3079C37.0107 13.8974 36.9265 13.9644 36.185 14.1482L35.5441 14.307V14.7173V15.1275H37.7491H39.9542V14.7173V14.307L39.2875 14.1438C38.826 14.0307 38.6296 13.9361 38.6492 13.8361C38.7035 13.5592 40.0401 9.99856 40.1375 9.87134C40.2106 9.77586 40.7939 9.74314 42.4233 9.74314H44.611L44.7039 10.0765C44.755 10.2598 44.9128 10.7098 45.0547 11.0764C46.1374 13.8746 46.1706 14.0439 45.6392 14.049C45.5507 14.0498 45.2392 14.1216 44.9469 14.2084C44.4224 14.3642 44.4155 14.3716 44.4155 14.7735V15.1809L49.0563 15.1542L53.6971 15.1275L53.7283 14.7527C53.757 14.4082 53.7322 14.3693 53.4206 14.2711C53.2342 14.2123 52.8701 14.1346 52.6115 14.0983C52.3529 14.0621 52.0945 14.0019 52.0373 13.9646C51.897 13.8732 51.7593 4.06536 51.8996 4.15202C51.9928 4.20962 53.3872 5.84164 58.9096 12.3564C61.6928 15.6397 61.7657 15.7148 62.1278 15.6732L62.4146 15.6403L62.4787 12.6148ZM41.0642 7.25636C40.8139 7.89111 40.6386 8.45805 40.6745 8.51624C40.7519 8.64137 44.1079 8.64152 44.1079 8.51641C44.1079 8.47178 43.8364 7.70266 43.5046 6.80725C43.1727 5.91185 42.7979 4.8908 42.6716 4.53825C42.5453 4.1857 42.413 3.89731 42.3775 3.89738C42.3421 3.89745 42.1345 4.39358 41.9162 4.99989C41.6979 5.6062 41.3145 6.62161 41.0642 7.25636Z" fill="#C1C7D0"/>
<path d="M73.4147 15.7351C74.4218 15.5464 75.4593 15.1464 76.1185 14.6929L76.5856 14.3716L77.1803 14.7752C77.5073 14.9972 77.8841 15.1788 78.0175 15.1788H78.2601V12.2106C78.2601 9.94829 78.2905 9.22294 78.3883 9.16033C78.4588 9.11516 78.7472 8.98511 79.0293 8.87134C79.4842 8.68781 79.5421 8.62988 79.5421 8.35771V8.05094L76.8499 8.02361L74.1577 7.99629V8.40427C74.1577 8.85266 74.0408 8.78274 75.3628 9.12479L75.7474 9.2243L75.7179 11.4776L75.6885 13.7309L75.3585 13.9349C74.7373 14.3188 73.4648 14.666 72.6791 14.666C71.2149 14.666 70.0979 14.1948 69.1436 13.1747C68.0521 12.0078 67.593 10.7188 67.5197 8.61505C67.4789 7.44466 67.5046 7.09566 67.6862 6.35874C68.1019 4.67135 68.9859 3.26119 70.0853 2.53145C72.7473 0.764461 76.1626 2.11319 77.2743 5.37047C77.3337 5.5443 77.3604 5.54782 77.5691 5.40933C77.7932 5.26063 77.7992 5.20565 77.8263 3.07745C77.8456 1.55631 77.8186 0.855198 77.7368 0.756648C77.6136 0.608242 77.2372 0.560437 77.2306 0.692361C77.2287 0.734667 77.073 0.948952 76.885 1.16855C76.5054 1.61208 76.6588 1.61555 75.3884 1.13475C71.7056 -0.259076 67.4652 1.40207 65.6349 4.95564C65.1089 5.97682 64.9183 6.72322 64.8559 8.0057C64.6899 11.4193 66.2914 14.0939 69.2349 15.3186C70.5301 15.8575 71.9868 16.0026 73.4147 15.7351Z" fill="#C1C7D0"/>
<path d="M88.0545 15.7358C90.266 15.352 91.7759 14.0584 92.2933 12.1042C92.4089 11.6678 92.4574 10.4914 92.5051 6.97405L92.5671 2.41017L93.3619 2.2083L94.1567 2.00642V1.56538V1.12433L91.8235 1.15189L89.4903 1.17944V1.58143V1.98342L90.3108 2.19679L91.1312 2.41015V7.12787V11.8456L90.8461 12.4262C90.2685 13.6021 89.1634 14.2671 87.6657 14.3399C86.6203 14.3908 85.9349 14.2198 85.1801 13.7198C84.6459 13.366 84.3047 12.9038 83.9766 12.0897C83.7623 11.5582 83.7528 11.3715 83.7166 7.00771C83.6738 1.83364 83.5644 2.37621 84.6981 2.14205L85.3367 2.01014V1.56915V1.12815H82.5163H79.6959V1.58967C79.6959 1.95398 79.7323 2.05118 79.8687 2.05118C79.9637 2.05118 80.3062 2.12548 80.6298 2.21628L81.2182 2.38137L81.2582 7.06219C81.296 11.4958 81.3094 11.7733 81.5113 12.316C81.8294 13.1709 81.9911 13.4448 82.534 14.0487C83.3473 14.9532 84.3784 15.4996 85.7469 15.7511C86.6735 15.9215 86.9972 15.9193 88.0545 15.7358Z" fill="#C1C7D0"/>
<path fill-rule="evenodd" clip-rule="evenodd" d="M118.467 15.8974C118.666 15.842 119.042 15.6618 119.302 15.497L119.775 15.1972L122.837 15.1534C126.225 15.1048 126.526 15.0601 127.865 14.4064C130.636 13.0537 132.171 10.3662 131.877 7.38431C131.591 4.49173 129.731 2.34531 126.71 1.42014C126.055 1.21935 125.706 1.1996 122.072 1.15715L118.143 1.11125L118.175 1.54922L118.207 1.9872L119.002 2.19312L119.798 2.39904L119.772 8.14385L119.745 13.8887L119.397 14.1235C118.996 14.3934 118.539 14.4224 118.031 14.2102C117.315 13.911 117.098 13.6155 115.529 10.7986C114.562 9.0635 114.087 8.60488 112.939 8.30263C112.323 8.14033 112.288 8.11735 112.566 8.05988C113.98 7.76814 114.502 7.53082 115.179 6.87151C115.921 6.14806 116.156 5.5704 116.156 4.46137C116.156 3.7498 116.109 3.44514 115.954 3.1315C115.494 2.20403 114.539 1.58656 113.109 1.29134C112.484 1.16232 111.641 1.1282 109.077 1.1282H105.837L105.868 1.55814L105.9 1.98808L106.772 2.19914L107.643 2.41019V8.1535V13.8968L107.151 14.0182C106.881 14.085 106.419 14.1688 106.126 14.2043L105.592 14.2691L105.097 12.9035C104.052 10.0209 101.153 2.09121 100.96 1.58972C100.873 1.36409 100.738 1.02792 100.659 0.842686C100.58 0.657448 100.515 0.449766 100.514 0.381172C100.513 0.312574 100.47 0.190185 100.419 0.109191C100.345 -0.00746081 100.185 0.0934532 99.6494 0.594796C99.2773 0.942871 98.8353 1.29877 98.6673 1.38569C98.3181 1.56625 98.3283 1.53987 98.4666 1.90355C98.5566 2.1404 98.4779 2.40629 97.9102 3.78193C97.5465 4.66329 97.0328 5.91515 96.7688 6.56383C96.5047 7.21252 96.1377 8.11248 95.9534 8.56374C95.769 9.015 95.2157 10.3765 94.7239 11.5892C94.232 12.802 93.7955 13.8304 93.7539 13.8746C93.7122 13.9188 93.382 14.0346 93.0201 14.132L92.362 14.3091L92.3304 14.7439L92.2989 15.1788H94.5157H96.7325L96.701 14.7429L96.6694 14.307L96.054 14.158C95.7156 14.076 95.4207 13.9964 95.3986 13.9811C95.3629 13.9564 95.7127 12.9878 96.6422 10.538L96.9437 9.74316H99.142C101.327 9.74316 101.341 9.74471 101.429 9.97392L101.677 10.6149C102.53 12.8212 102.875 13.8844 102.76 13.9552C102.691 13.9977 102.428 14.0635 102.174 14.1015C101.343 14.2262 101.233 14.3036 101.233 14.766V15.1788H106.618H112.002V14.7727C112.002 14.3916 111.978 14.3597 111.617 14.2552C111.406 14.194 111.025 14.1101 110.771 14.0688L110.31 13.9938L110.282 11.3066L110.255 8.61947L110.59 8.68094C111.174 8.78808 111.755 9.19787 112.13 9.76632C112.327 10.0638 112.962 11.161 113.542 12.2046C114.123 13.2481 114.728 14.2934 114.887 14.5274C115.661 15.6648 117.193 16.2512 118.467 15.8974ZM122.283 8.05094C122.268 11.1534 122.278 13.7494 122.305 13.8199C122.367 13.9811 124.268 13.9948 125.218 13.8407C127.078 13.5388 128.382 12.3526 129.1 10.3073C129.369 9.54256 129.362 6.74155 129.09 5.9485C128.633 4.61802 127.997 3.74811 127.027 3.12612C126.165 2.57342 125.482 2.42341 123.796 2.41639L122.309 2.41019L122.283 8.05094ZM97.7663 7.45449C97.5411 8.02896 97.3829 8.5251 97.4148 8.557C97.5025 8.6447 100.804 8.62657 100.856 8.5381C100.895 8.46982 100.4 7.02928 100.054 6.20488C99.9828 6.03566 99.7699 5.44722 99.5808 4.89725C99.3917 4.34727 99.2086 3.8973 99.1737 3.8973C99.1388 3.8973 98.9 4.46265 98.6431 5.15365C98.3862 5.84464 97.9916 6.88002 97.7663 7.45449ZM110.258 2.33382V4.91034V7.48694L111.002 7.48462C111.504 7.48309 111.882 7.42037 112.166 7.29135C113.724 6.5837 114.257 4.33183 113.146 3.14435C112.666 2.63084 112.142 2.4292 111.156 2.37928L110.258 2.33382Z" fill="#C1C7D0"/>
<path fill-rule="evenodd" clip-rule="evenodd" d="M141.496 14.8198C141.509 14.3792 141.388 14.2749 140.702 14.1332C140.166 14.0225 140.098 13.9818 140.145 13.7982C140.174 13.6832 140.518 12.7353 140.909 11.6917L141.622 9.7944L143.838 9.76676L146.054 9.73913L146.144 9.97189C146.723 11.4678 147.592 13.8777 147.563 13.9067C147.547 13.9227 147.189 14.0194 146.767 14.1215L146 14.307L145.969 14.7429L145.937 15.1788H148.815H151.692V14.7336V14.2884L151.103 14.1598C150.433 14.0139 150.051 13.807 150.051 13.5902C150.051 13.5088 149.987 13.2907 149.908 13.1054C149.707 12.6336 149.564 12.2517 148.632 9.69185C146.902 4.93925 145.616 1.43997 145.429 0.974329C145.384 0.861515 145.315 0.653834 145.276 0.512812C145.124 -0.0411775 145.035 -0.0314232 144.345 0.613817C143.984 0.951415 143.551 1.299 143.382 1.38624C143.12 1.52171 143.085 1.58527 143.145 1.82183C143.183 1.97417 143.214 2.15266 143.214 2.21847C143.214 2.32482 142.923 3.07787 142.665 3.64087C142.613 3.75368 142.475 4.09982 142.359 4.41006C142.244 4.7203 142.105 5.06644 142.053 5.17925C142 5.29207 141.743 5.91511 141.482 6.5638C140.109 9.9746 139.884 10.5291 139.797 10.7174C139.707 10.9109 138.847 13.0108 138.575 13.703C138.392 14.168 137.814 14.3453 137.152 14.1397L136.667 13.9892L136.641 8.1899L136.615 2.39061L137.461 2.19017L138.308 1.98972V1.58459V1.17945L135.36 1.15224L132.411 1.12503V1.56247V1.99992L133.232 2.19337L134.052 2.38681V8.16348V13.9402L133.616 14.0479C132.362 14.3579 132.411 14.3283 132.411 14.7737V15.1809L136.949 15.1542L141.487 15.1275L141.496 14.8198L141.496 14.8198ZM142.456 7.48648C142.244 8.02217 142.092 8.49523 142.119 8.53771C142.172 8.62433 145.474 8.64593 145.559 8.56021C145.59 8.5301 145.354 7.80321 145.036 6.94491C144.718 6.08661 144.344 5.04976 144.206 4.6408C144.067 4.23185 143.924 3.89725 143.888 3.89725C143.852 3.89725 143.601 4.48568 143.331 5.20488C143.062 5.92407 142.668 6.9508 142.456 7.48648Z" fill="#C1C7D0"/>
</svg>
