<?xml version="1.0" encoding="utf-8"?>
<!-- Generator: Adobe Illustrator 26.3.1, SVG Export Plug-In . SVG Version: 6.00 Build 0)  -->
<svg version="1.1" id="Layer_1" xmlns="http://www.w3.org/2000/svg" xmlns:xlink="http://www.w3.org/1999/xlink" x="0px" y="0px"
	 viewBox="0 0 152 16" style="enable-background:new 0 0 152 16;" xml:space="preserve">
<style type="text/css">
	.st0{fill:#AEAEB3;}
	.st1{fill-rule:evenodd;clip-rule:evenodd;fill:#AEAEB3;}
</style>
<path class="st0" d="M8.9,14.9c0.3-0.8,1.2-3.2,1.2-3.3c0-0.1-0.1-0.2-0.3-0.3c-0.2-0.1-0.3-0.1-1.3,0.8c-0.6,0.5-1.2,1.1-1.5,1.4
	L6.6,14l-1.3,0l-1.3,0V8.2V2.4l0.4-0.1c0.2-0.1,0.6-0.1,0.8-0.2C5.6,2,5.6,2,5.6,1.6V1.1l-2.8,0l-2.8,0v0.4c0,0.4,0,0.4,1,0.7
	l0.5,0.1v5.8v5.8L1.1,14c-0.2,0.1-0.6,0.1-0.7,0.2c-0.2,0.1-0.3,0.1-0.3,0.4c-0.1,0.6-0.3,0.6,4.4,0.6h4.4L8.9,14.9z"/>
<path class="st1" d="M13.7,14.7l0-0.4l-0.6-0.2c-0.4-0.1-0.6-0.2-0.6-0.3c0-0.1,0.3-1,0.8-2.1l0.8-2h2.2h2.2l0.7,2
	c0.4,1.1,0.7,2,0.7,2.1c0,0-0.4,0.2-0.8,0.3l-0.7,0.2l0,0.4l0,0.4l2.9,0l2.9,0v-0.3c0-0.5-0.1-0.5-0.8-0.7c-0.3-0.1-0.7-0.2-0.7-0.3
	c-0.1-0.1-0.3-0.7-0.5-1.2c-0.2-0.6-0.8-2.2-1.3-3.5c-0.5-1.4-0.9-2.5-0.9-2.6c0-0.1-0.1-0.3-0.2-0.5c-0.1-0.2-0.2-0.5-0.2-0.5
	c0-0.1-0.4-1.2-0.9-2.5c-0.5-1.3-0.9-2.5-1-2.7C17.5,0.2,17.4,0,17.3,0c-0.1,0-0.3,0.2-0.5,0.5c-0.2,0.3-0.7,0.6-0.9,0.8
	c-0.5,0.3-0.6,0.4-0.4,0.7c0.1,0.2,0.1,0.2-1.2,3.3C14,6.1,13.4,7.5,13,8.4c-0.4,0.9-1,2.3-1.3,3.1c-0.3,0.8-0.7,1.6-0.8,1.9
	c-0.2,0.5-0.2,0.5-0.8,0.8c-0.3,0.1-0.4,0.3-0.5,0.5c-0.1,0.2-0.2,0.4-0.2,0.4c0,0,1,0,2.2,0h2.2L13.7,14.7z M15.5,5.5
	c-0.2,0.3-1.2,3-1.2,3.1c0,0.1,3.4,0,3.5,0c0,0,0-0.2-0.1-0.4C17.7,8,17.4,7,17,5.9S16.3,4,16.2,4c0,0-0.2,0.2-0.3,0.6
	C15.8,4.9,15.6,5.3,15.5,5.5z"/>
<path class="st0" d="M32.8,14.2c0.3-0.8,0.8-1.9,1-2.5c0.2-0.6,0.7-1.7,1-2.4c0.3-0.7,0.6-1.4,0.6-1.5c0.1-0.1,0.4-0.9,0.8-1.8
	c0.4-0.9,0.7-1.8,0.8-1.9c0.1-0.2,0.3-0.6,0.4-1l0.3-0.7l0.9-0.2L39.4,2V1.6V1.1l-2.5,0l-2.5,0v0.4V2l0.8,0.2
	C35.6,2.3,36,2.4,36,2.4c0,0,0,0.2-0.1,0.3c-0.4,1.2-1.1,2.8-1.1,3c-0.1,0.1-0.2,0.5-0.4,0.9c-0.1,0.4-0.6,1.6-1,2.6
	c-0.4,1.1-0.8,2-0.8,2.1c-0.1,0.2-0.1,0.2-0.3-0.2c-0.1-0.2-0.2-0.5-0.3-0.7c-0.1-0.2-0.3-0.9-0.6-1.6c-2.1-5-2.7-6.5-2.6-6.5
	c0,0,0.4-0.1,0.9-0.2L30.5,2V1.6V1.1h-3.1h-3.1v0.5c0,0.4,0,0.5,0.2,0.5c0.1,0,0.5,0.1,0.9,0.2L26,2.4l0.7,1.7
	c1.4,3.3,1.4,3.5,3.5,8.5c0.4,0.9,0.7,1.8,0.8,2c0.1,0.2,0.1,0.4,0.1,0.4c0,0,0.1,0.2,0.2,0.4c0.2,0.3,0.3,0.3,0.5,0.3
	C32.1,15.6,32.2,15.5,32.8,14.2z"/>
<path class="st1" d="M62.5,12.6c0-1.7,0.1-4.6,0.1-6.6c0-2,0.1-3.6,0.1-3.6c0.1,0,0.4-0.1,0.8-0.2L64.3,2V1.6V1.2l-2.4,0l-2.4,0v0.4
	V2l0.8,0.2l0.8,0.2l0.1,1.2c0.1,1.6,0.1,7.7,0.1,7.7c0,0-0.2-0.2-0.4-0.4c-0.3-0.4-1.9-2.3-3.9-4.6c-0.4-0.4-1.5-1.8-2.5-3l-1.8-2.2
	h-1.9h-1.9l0,0.4l0,0.4l0.9,0.2l0.9,0.2l0,2.6c0,1.4,0,3.8-0.1,5.3c0,1.5-0.1,2.9,0,3.1l0,0.5l-0.8,0.2c-0.4,0.1-0.8,0.1-0.9,0.1
	c0,0-0.2-0.3-0.2-0.6c-0.1-0.3-0.7-1.8-1.3-3.4c-0.6-1.6-1.5-4.2-2.1-5.6c-0.5-1.5-1-2.8-1.1-2.9c0-0.1-0.2-0.5-0.3-0.9
	c-0.1-0.4-0.3-0.7-0.3-0.8c0-0.1-0.4,0.2-0.7,0.5c-0.4,0.3-0.8,0.7-0.9,0.8c-0.2,0.2-0.3,0.2-0.2,0.5c0.1,0.3-0.1,0.9-2,5.4
	c-0.8,2-2.2,5.4-2.5,6c-0.2,0.6-0.3,0.7-1.1,0.8l-0.6,0.2v0.4v0.4h2.2H40v-0.4v-0.4l-0.7-0.2c-0.5-0.1-0.7-0.2-0.6-0.3
	c0.1-0.3,1.4-3.8,1.5-4c0.1-0.1,0.7-0.1,2.3-0.1h2.2l0.1,0.3c0.1,0.2,0.2,0.6,0.4,1c1.1,2.8,1.1,3,0.6,3c-0.1,0-0.4,0.1-0.7,0.2
	c-0.5,0.2-0.5,0.2-0.5,0.6v0.4l4.6,0l4.6,0l0-0.4c0-0.3,0-0.4-0.3-0.5c-0.2-0.1-0.6-0.1-0.8-0.2c-0.3,0-0.5-0.1-0.6-0.1
	c-0.1-0.1-0.3-9.9-0.1-9.8c0.1,0.1,1.5,1.7,7,8.2c2.8,3.3,2.9,3.4,3.2,3.3l0.3,0L62.5,12.6z M41.1,7.3c-0.3,0.6-0.4,1.2-0.4,1.3
	c0.1,0.1,3.4,0.1,3.4,0c0,0-0.3-0.8-0.6-1.7c-0.3-0.9-0.7-1.9-0.8-2.3s-0.3-0.6-0.3-0.6c0,0-0.2,0.5-0.5,1.1S41.3,6.6,41.1,7.3z"/>
<path class="st0" d="M73.4,15.7c1-0.2,2-0.6,2.7-1l0.5-0.3l0.6,0.4c0.3,0.2,0.7,0.4,0.8,0.4h0.2v-3c0-2.3,0-3,0.1-3.1
	c0.1,0,0.4-0.2,0.6-0.3c0.5-0.2,0.5-0.2,0.5-0.5V8.1l-2.7,0l-2.7,0v0.4c0,0.4-0.1,0.4,1.2,0.7l0.4,0.1l0,2.3l0,2.3l-0.3,0.2
	c-0.6,0.4-1.9,0.7-2.7,0.7c-1.5,0-2.6-0.5-3.5-1.5c-1.1-1.2-1.6-2.5-1.6-4.6c0-1.2,0-1.5,0.2-2.3c0.4-1.7,1.3-3.1,2.4-3.8
	c2.7-1.8,6.1-0.4,7.2,2.8c0.1,0.2,0.1,0.2,0.3,0c0.2-0.1,0.2-0.2,0.3-2.3c0-1.5,0-2.2-0.1-2.3c-0.1-0.1-0.5-0.2-0.5-0.1
	c0,0-0.2,0.3-0.3,0.5c-0.4,0.4-0.2,0.4-1.5,0c-3.7-1.4-7.9,0.3-9.8,3.8c-0.5,1-0.7,1.8-0.8,3.1c-0.2,3.4,1.4,6.1,4.4,7.3
	C70.5,15.9,72,16,73.4,15.7z"/>
<path class="st0" d="M88.1,15.7c2.2-0.4,3.7-1.7,4.2-3.6c0.1-0.4,0.2-1.6,0.2-5.1l0.1-4.6l0.8-0.2L94.2,2V1.6V1.1l-2.3,0l-2.3,0v0.4
	V2l0.8,0.2l0.8,0.2v4.7v4.7l-0.3,0.6c-0.6,1.2-1.7,1.8-3.2,1.9c-1,0.1-1.7-0.1-2.5-0.6c-0.5-0.4-0.9-0.8-1.2-1.6
	c-0.2-0.5-0.2-0.7-0.3-5.1c0-5.2-0.2-4.6,1-4.9L85.3,2V1.6V1.1h-2.8h-2.8v0.5c0,0.4,0,0.5,0.2,0.5c0.1,0,0.4,0.1,0.8,0.2l0.6,0.2
	l0,4.7c0,4.4,0.1,4.7,0.3,5.3c0.3,0.9,0.5,1.1,1,1.7c0.8,0.9,1.8,1.5,3.2,1.7C86.7,15.9,87,15.9,88.1,15.7z"/>
<path class="st1" d="M118.5,15.9c0.2-0.1,0.6-0.2,0.8-0.4l0.5-0.3l3.1,0c3.4,0,3.7-0.1,5-0.7c2.8-1.4,4.3-4,4-7
	c-0.3-2.9-2.1-5-5.2-6c-0.7-0.2-1-0.2-4.6-0.3l-3.9,0l0,0.4l0,0.4l0.8,0.2l0.8,0.2l0,5.7l0,5.7l-0.3,0.2c-0.4,0.3-0.9,0.3-1.4,0.1
	c-0.7-0.3-0.9-0.6-2.5-3.4c-1-1.7-1.4-2.2-2.6-2.5c-0.6-0.2-0.7-0.2-0.4-0.2c1.4-0.3,1.9-0.5,2.6-1.2c0.7-0.7,1-1.3,1-2.4
	c0-0.7,0-1-0.2-1.3c-0.5-0.9-1.4-1.5-2.8-1.8c-0.6-0.1-1.5-0.2-4-0.2h-3.2l0,0.4l0,0.4l0.9,0.2l0.9,0.2v5.7v5.7l-0.5,0.1
	c-0.3,0.1-0.7,0.2-1,0.2l-0.5,0.1l-0.5-1.4c-1-2.9-3.9-10.8-4.1-11.3c-0.1-0.2-0.2-0.6-0.3-0.7c-0.1-0.2-0.1-0.4-0.1-0.5
	c0-0.1,0-0.2-0.1-0.3c-0.1-0.1-0.2,0-0.8,0.5c-0.4,0.3-0.8,0.7-1,0.8c-0.3,0.2-0.3,0.2-0.2,0.5c0.1,0.2,0,0.5-0.6,1.9
	c-0.4,0.9-0.9,2.1-1.1,2.8c-0.3,0.6-0.6,1.5-0.8,2c-0.2,0.5-0.7,1.8-1.2,3c-0.5,1.2-0.9,2.2-1,2.3c0,0-0.4,0.2-0.7,0.3l-0.7,0.2
	l0,0.4l0,0.4h2.2h2.2l0-0.4l0-0.4l-0.6-0.1c-0.3-0.1-0.6-0.2-0.7-0.2c0,0,0.3-1,1.2-3.4l0.3-0.8h2.2c2.2,0,2.2,0,2.3,0.2l0.2,0.6
	c0.9,2.2,1.2,3.3,1.1,3.3c-0.1,0-0.3,0.1-0.6,0.1c-0.8,0.1-0.9,0.2-0.9,0.7v0.4h5.4h5.4v-0.4c0-0.4,0-0.4-0.4-0.5
	c-0.2-0.1-0.6-0.1-0.8-0.2l-0.5-0.1l0-2.7l0-2.7l0.3,0.1c0.6,0.1,1.2,0.5,1.5,1.1c0.2,0.3,0.8,1.4,1.4,2.4c0.6,1,1.2,2.1,1.3,2.3
	C115.7,15.7,117.2,16.3,118.5,15.9z M122.3,8.1c0,3.1,0,5.7,0,5.8c0.1,0.2,2,0.2,2.9,0c1.9-0.3,3.2-1.5,3.9-3.5
	c0.3-0.8,0.3-3.6,0-4.4c-0.5-1.3-1.1-2.2-2.1-2.8c-0.9-0.6-1.5-0.7-3.2-0.7l-1.5,0L122.3,8.1z M97.8,7.5c-0.2,0.6-0.4,1.1-0.4,1.1
	c0.1,0.1,3.4,0.1,3.4,0c0-0.1-0.5-1.5-0.8-2.3C100,6,99.8,5.4,99.6,4.9c-0.2-0.5-0.4-1-0.4-1c0,0-0.3,0.6-0.5,1.3
	C98.4,5.8,98,6.9,97.8,7.5z M110.3,2.3v2.6v2.6l0.7,0c0.5,0,0.9-0.1,1.2-0.2c1.6-0.7,2.1-3,1-4.1c-0.5-0.5-1-0.7-2-0.8L110.3,2.3z"
	/>
<path class="st1" d="M141.5,14.8c0-0.4-0.1-0.5-0.8-0.7c-0.5-0.1-0.6-0.2-0.6-0.3c0-0.1,0.4-1.1,0.8-2.1l0.7-1.9l2.2,0l2.2,0
	l0.1,0.2c0.6,1.5,1.4,3.9,1.4,3.9c0,0-0.4,0.1-0.8,0.2l-0.8,0.2l0,0.4l0,0.4h2.9h2.9v-0.4v-0.4l-0.6-0.1c-0.7-0.1-1.1-0.4-1.1-0.6
	c0-0.1-0.1-0.3-0.1-0.5c-0.2-0.5-0.3-0.9-1.3-3.4c-1.7-4.8-3-8.3-3.2-8.7c0-0.1-0.1-0.3-0.2-0.5C145.1,0,145,0,144.3,0.6
	c-0.4,0.3-0.8,0.7-1,0.8c-0.3,0.1-0.3,0.2-0.2,0.4c0,0.2,0.1,0.3,0.1,0.4c0,0.1-0.3,0.9-0.5,1.4c-0.1,0.1-0.2,0.5-0.3,0.8
	c-0.1,0.3-0.3,0.7-0.3,0.8c-0.1,0.1-0.3,0.7-0.6,1.4c-1.4,3.4-1.6,4-1.7,4.2c-0.1,0.2-0.9,2.3-1.2,3c-0.2,0.5-0.8,0.6-1.4,0.4
	l-0.5-0.2l0-5.8l0-5.8l0.8-0.2l0.8-0.2V1.6V1.2l-2.9,0l-2.9,0v0.4V2l0.8,0.2l0.8,0.2v5.8v5.8l-0.4,0.1c-1.3,0.3-1.2,0.3-1.2,0.7v0.4
	l4.5,0l4.5,0L141.5,14.8L141.5,14.8z M142.5,7.5c-0.2,0.5-0.4,1-0.3,1.1c0.1,0.1,3.4,0.1,3.4,0c0,0-0.2-0.8-0.5-1.6
	c-0.3-0.9-0.7-1.9-0.8-2.3c-0.1-0.4-0.3-0.7-0.3-0.7s-0.3,0.6-0.6,1.3C143.1,5.9,142.7,7,142.5,7.5z"/>
</svg>
