<svg width="113" height="16" viewBox="0 0 113 16" fill="none" xmlns="http://www.w3.org/2000/svg">
<g clip-path="url(#clip0_2643_4516)">
<path d="M21.2941 5.33H31.7541V0H21.2941V5.33Z" fill="#AEAEB3"/>
<path d="M0.394043 0V5.33H5.61404V16H10.834V5.33H16.074V0H0.394043Z" fill="#AEAEB3"/>
<path d="M16.0741 16H31.7541V10.67H21.2941V5.33H16.0741V16Z" fill="#AEAEB3"/>
<path d="M45.0941 4.03H37.4141V6.25H39.9841V13.21H42.5241V6.25H45.0941V4.03Z" fill="#AEAEB3"/>
<path d="M47.984 6.17C46.174 6.17 44.834 7.38 44.834 9.77C44.834 11.88 45.974 13.35 48.044 13.35C49.124 13.35 50.004 13.07 50.844 12.57L49.944 11.06C49.254 11.41 48.774 11.54 48.154 11.54C47.534 11.54 47.074 11.2 46.984 10.44H51.034C51.054 10.33 51.054 10.18 51.054 9.97C51.074 7.42 49.894 6.17 47.994 6.17H47.984ZM47.014 8.97C47.084 8.28 47.384 7.93 47.924 7.93C48.614 7.93 48.854 8.28 48.964 8.97H47.004H47.014Z" fill="#AEAEB3"/>
<path d="M55.534 11.43C54.904 11.43 54.564 10.87 54.564 9.77C54.564 8.67 54.864 8.07 55.474 8.07C55.974 8.07 56.204 8.35 56.534 8.97L58.154 7.74C57.554 6.77 56.814 6.17 55.504 6.17C53.304 6.17 52.224 7.62 52.224 9.73C52.224 12.04 53.434 13.33 55.454 13.33C56.664 13.33 57.414 12.86 58.214 11.69L56.724 10.52C56.274 11.19 55.974 11.43 55.534 11.43Z" fill="#AEAEB3"/>
<path d="M63.6641 6.17C62.8441 6.17 62.3541 6.45 61.9341 6.77V3.66L59.5641 4.61V13.22H61.9341V9.29C61.9341 8.43 62.2341 8.19 62.7341 8.19C63.2341 8.19 63.5141 8.43 63.5141 9.31V13.23H65.8841V9.02C65.8841 7.21 65.1541 6.19 63.6641 6.19V6.17Z" fill="#AEAEB3"/>
<path d="M71.574 11.13C70.474 11.13 70.024 10.01 70.024 8.61C70.024 7.21 70.494 6.09 71.554 6.09C72.394 6.09 72.714 6.63 73.024 7.49L75.334 6.58C74.704 4.85 73.804 3.88 71.544 3.88C69.084 3.88 67.344 5.67 67.344 8.62C67.344 11.34 68.794 13.36 71.524 13.36C73.704 13.36 74.734 12.19 75.344 10.99L73.204 9.85001C72.704 10.71 72.364 11.14 71.564 11.14L71.574 11.13Z" fill="#AEAEB3"/>
<path d="M79.1641 6.82999V6.32999H76.7941V13.21H79.1641V9.45999C79.1641 8.61999 79.5141 8.33999 80.0941 8.33999C80.5641 8.33999 80.8941 8.57999 81.1941 8.91999L81.7541 6.47999C81.4741 6.30999 81.1341 6.17999 80.6341 6.17999C80.0141 6.17999 79.5541 6.43999 79.1641 6.82999Z" fill="#AEAEB3"/>
<path d="M86.804 10.26C86.804 11.12 86.504 11.36 86.024 11.36C85.544 11.36 85.244 11.12 85.244 10.24V6.32001H82.874V10.53C82.874 12.34 83.604 13.35 85.114 13.35C85.914 13.35 86.424 13.07 86.834 12.75V13.22H89.204V6.34001H86.834V10.26" fill="#AEAEB3"/>
<path d="M94.994 6.17C94.174 6.17 93.684 6.45 93.264 6.77V6.3H90.894V13.18H93.264V9.25C93.264 8.39 93.564 8.15 94.064 8.15C94.564 8.15 94.844 8.39 94.844 9.27V13.19H97.214V8.98C97.214 7.21 96.504 6.18 94.994 6.18V6.17Z" fill="#AEAEB3"/>
<path d="M101.914 11.43C101.284 11.43 100.944 10.87 100.944 9.77C100.944 8.67 101.244 8.07 101.834 8.07C102.334 8.07 102.564 8.35 102.894 8.97L104.514 7.74C103.914 6.77 103.174 6.17 101.864 6.17C99.664 6.17 98.584 7.62 98.584 9.73C98.584 12.04 99.794 13.33 101.814 13.33C103.024 13.33 103.774 12.86 104.574 11.69L103.084 10.52C102.674 11.19 102.354 11.43 101.914 11.43Z" fill="#AEAEB3"/>
<path d="M110.044 6.17C109.224 6.17 108.734 6.45 108.304 6.77V3.66L105.934 4.61V13.22H108.304V9.29C108.304 8.43 108.604 8.19 109.104 8.19C109.604 8.19 109.884 8.43 109.884 9.31V13.23H112.254V9.02C112.274 7.21 111.544 6.19 110.034 6.19L110.044 6.17Z" fill="#AEAEB3"/>
</g>
<defs>
<clipPath id="clip0_2643_4516">
<rect width="111.87" height="16" fill="white" transform="translate(0.394043)"/>
</clipPath>
</defs>
</svg>
