<svg width="94" height="16" viewBox="0 0 94 16" fill="none" xmlns="http://www.w3.org/2000/svg">
<path d="M8.23688 4.27085H5.93882V0.832449H2.21784V4.27085H0.335205V6.67963H2.21784V11.7386C2.21784 14.8265 3.02762 15.7464 6.20136 15.7464C6.87987 15.7464 7.55837 15.6589 8.23688 15.6368V12.8995C7.90844 12.8995 7.58052 12.9433 7.27421 12.9433C6.46391 12.9433 5.93882 12.7461 5.93882 11.8483V6.67963H8.23688V4.27085Z" fill="#AEAEB3"/>
<path d="M11.3405 8.81057C11.5593 7.4409 12.435 6.50618 13.7482 6.50618C14.9956 6.50618 15.8934 7.54951 15.9588 8.81057H11.3405ZM19.6798 10.8761C19.8548 7.04919 17.8193 4.00567 13.7482 4.00567C10.3995 4.00567 7.61953 6.48404 7.61953 9.94089C7.61953 13.7241 10.1364 15.942 13.8357 15.942C16.3747 15.942 18.8041 14.8112 19.4831 12.202H16.0025C15.6525 13.0287 14.7768 13.4415 13.8795 13.4415C12.3037 13.4415 11.4064 12.4198 11.3405 10.8761H19.6798Z" fill="#AEAEB3"/>
<path d="M31.4411 8.43151C31.1785 5.43122 28.6611 3.94188 25.8375 3.94188C22.1824 3.94188 19.8843 6.52621 19.8843 10.1396C19.8843 13.6218 22.4233 15.9657 25.8375 15.9657C28.8583 15.9657 31.2223 14.2133 31.5507 11.1693H27.9389C27.7639 12.3739 27.107 13.1183 25.8158 13.1183C24.24 13.1183 23.6048 11.6074 23.6048 10.1396C23.6048 8.56331 23.9337 6.78928 26.013 6.78928C26.9541 6.78928 27.8076 7.46779 27.8292 8.43151H31.4411Z" fill="#AEAEB3"/>
<path d="M31.6303 15.6368H35.3518V9.43899C35.3518 8.19058 35.9644 7.00807 37.3652 7.00807C39.4007 7.00807 39.2257 8.58493 39.2257 10.1396V15.6368H42.9467V8.344C42.9467 6.70177 42.6404 3.94188 38.8535 3.94188C37.4965 3.94188 35.9645 4.66467 35.3951 5.82556H35.3518V0H31.6303V15.6368Z" fill="#AEAEB3"/>
<path d="M43.2293 15.671H46.9508V10.0374C46.9508 8.61287 47.914 7.34126 49.7523 7.34126C50.2558 7.34126 50.6934 7.42878 51.1752 7.56058V4.16277C50.8905 4.09687 50.5842 4.07526 50.2996 4.07526C48.7016 4.07526 47.4321 4.84233 46.8849 6.28897H46.8411V4.29457H43.2293V15.671Z" fill="#AEAEB3"/>
<path d="M54.4091 12.405C54.4091 11.5061 55.1097 11.1556 55.9411 10.9579C56.7514 10.7391 57.7141 10.6732 58.2397 10.3442C58.3272 12.6897 57.7362 13.6982 55.9633 13.6982C55.1319 13.6982 54.4091 13.3255 54.4091 12.405ZM54.6279 7.80151C54.8034 6.83673 55.4598 6.37701 56.4884 6.37701C57.2549 6.37701 58.2835 6.70546 58.2835 7.56058C58.2835 8.26175 57.9334 8.48107 57.2987 8.61287C54.7154 9.13849 50.6881 8.8538 50.6881 12.5584C50.6881 14.9039 52.3957 16 54.5625 16C55.9195 16 57.3424 15.6051 58.3051 14.5971C58.3494 14.9693 58.3926 15.3204 58.5244 15.671H62.267C61.8294 14.7727 61.8294 13.7204 61.8294 12.7556V7.77989C61.8294 4.55712 59.2245 3.9656 56.5321 3.9656C55.241 3.9656 53.9277 4.18492 52.9208 4.75482C51.9138 5.34634 51.2137 6.31111 51.1478 7.80151H54.6279Z" fill="#AEAEB3"/>
<path d="M67.9186 6.80352C69.5381 6.80352 70.1291 8.31816 70.1291 9.96408C70.1291 11.4128 69.7353 13.1468 67.9186 13.1468C66.211 13.1468 65.6421 11.4128 65.6421 9.85443C65.6421 8.40568 66.211 6.80352 67.9186 6.80352ZM73.7188 0H69.9979V5.50872H69.9541C69.1881 4.47751 68.1158 3.95084 66.7145 3.95084C63.497 3.95084 61.9212 6.75976 61.9212 9.72263C61.9212 12.9275 63.4311 16 66.9991 16C68.3124 16 69.4069 15.429 70.1291 14.3536H70.1729V15.6705H73.7188V0Z" fill="#AEAEB3"/>
<path d="M77.4867 12.405C77.4867 11.5061 78.1869 11.1556 79.0188 10.9579C79.8286 10.7391 80.7918 10.6732 81.3168 10.3442C81.4044 12.6897 80.8134 13.6982 79.0404 13.6982C78.209 13.6982 77.4867 13.3255 77.4867 12.405ZM77.7055 7.80151C77.8806 6.83673 78.5375 6.37701 79.566 6.37701C80.332 6.37701 81.3606 6.70546 81.3606 7.56058C81.3606 8.26175 81.0106 8.48107 80.3758 8.61287C77.793 9.13849 73.7658 8.8538 73.7658 12.5584C73.7658 14.9039 75.4728 16 77.6396 16C78.9966 16 80.4195 15.6051 81.3827 14.5971C81.4265 14.9693 81.4703 15.3204 81.6015 15.671H85.3441C84.9066 14.7727 84.9066 13.7204 84.9066 12.7556V7.77989C84.9066 4.55712 82.3022 3.9656 79.6098 3.9656C78.3187 3.9656 77.0049 4.18492 75.9985 4.75482C74.9915 5.34634 74.2909 6.31111 74.225 7.80151H77.7055Z" fill="#AEAEB3"/>
<path d="M85.448 15.671H89.1695V10.0374C89.1695 8.61287 90.1327 7.34126 91.971 7.34126C92.4745 7.34126 92.9121 7.42878 93.394 7.56058V4.16277C93.1093 4.09687 92.803 4.07526 92.5183 4.07526C90.9203 4.07526 89.6508 4.84233 89.1036 6.28897H89.0598V4.29457H85.448V15.671Z" fill="#AEAEB3"/>
<path fill-rule="evenodd" clip-rule="evenodd" d="M89.7837 15.671H93.3866V12.0333H89.7837V15.671Z" fill="#AEAEB3"/>
</svg>
