<svg width="126" height="16" viewBox="0 0 126 16" fill="none" xmlns="http://www.w3.org/2000/svg">
<g clip-path="url(#clip0_2043_6991)">
<path d="M88.5351 0C90.1157 0.0437329 92.0306 0.112456 93.1864 1.31199C93.8691 2.12051 94.2402 3.14645 94.2329 4.20461C94.2529 4.66655 94.176 5.12757 94.0071 5.55799C93.8381 5.9884 93.5809 6.37866 93.252 6.70363C92.785 7.1177 92.2517 7.45033 91.6745 7.68762C92.3831 7.8496 93.0401 8.18564 93.5862 8.66537C94.3079 9.47643 94.6933 10.5321 94.6639 11.6173C94.6768 12.1263 94.5869 12.6326 94.3996 13.106C94.2123 13.5794 93.9314 14.0102 93.5737 14.3725C92.3242 15.6439 90.6811 15.6658 88.8881 15.7095H81.6815V12.5045L83.0841 12.5264V3.18313L81.6815 3.205V0H88.5351ZM87.1669 6.31941C88.4351 6.34127 88.6132 6.34127 88.9256 6.27567C89.2785 6.2004 89.5931 6.00184 89.8129 5.71561C90.0328 5.42939 90.1434 5.07422 90.1251 4.71378C90.1425 4.4254 90.0797 4.13783 89.9435 3.88305C89.8072 3.62827 89.603 3.41626 89.3535 3.2706C88.9974 3.09254 88.7756 3.09254 87.195 3.07068L87.1669 6.31941ZM87.1669 12.5045H88.4164C89.2817 12.5045 90.5062 12.4826 90.5062 10.9926C90.5246 10.6723 90.4423 10.3544 90.2709 10.0832C90.0994 9.81211 89.8475 9.60141 89.5503 9.48067C89.1723 9.32448 88.9943 9.32448 87.1919 9.32448L87.1669 12.5045Z" fill="#C1C7D0"/>
<path d="M106.428 11.7485C106.272 12.5732 106.069 13.6634 105.047 14.6411C104.026 15.6189 102.548 15.9781 101.108 15.9781C98.0377 15.9781 95.345 14.4881 95.345 9.99294C95.3303 9.20995 95.4356 8.42932 95.6574 7.67822C96.4383 5.02926 98.5968 3.92969 100.968 3.92969C102.748 3.92969 104.195 4.55444 105.029 5.39786C106.722 7.0441 106.634 9.71493 106.609 10.7395H99.5714C99.5714 11.6298 99.5964 13.2073 101.04 13.2073C102.242 13.2073 102.398 12.1858 102.467 11.761L106.428 11.7485ZM102.473 8.54351C102.49 8.23521 102.452 7.92638 102.361 7.63137C102.265 7.37123 102.087 7.14891 101.855 6.9971C101.623 6.84528 101.348 6.77197 101.071 6.78795C99.7339 6.78795 99.6902 8.07807 99.6902 8.54351H102.473Z" fill="#C1C7D0"/>
<path d="M118.377 12.5044V15.7094H113.569L113.482 14.3756C113.135 14.8947 112.659 15.3152 112.101 15.596C111.543 15.8768 110.922 16.0085 110.299 15.9781C108.227 15.9781 106.937 14.7535 106.937 12.5263C106.913 11.9239 107.043 11.3254 107.317 10.7882C107.59 10.251 107.998 9.79315 108.499 9.45874C109.967 8.456 112.248 8.54347 113.372 8.56534C113.402 8.15781 113.387 7.74833 113.329 7.34394C113.296 7.10361 113.176 6.88389 112.99 6.72745C112.805 6.57102 112.568 6.48902 112.326 6.49739C112.185 6.49549 112.046 6.52221 111.916 6.57591C111.786 6.62961 111.668 6.70918 111.57 6.80977C111.44 6.96229 111.342 7.13931 111.282 7.33033C111.222 7.52135 111.201 7.72249 111.22 7.92184H107.337C107.337 7.27591 107.473 6.63725 107.737 6.04757C108.562 4.37947 110.655 3.88904 112.257 3.88904C113.769 3.88904 115.506 4.33262 116.462 5.31348C117.33 6.17877 117.418 7.18775 117.418 8.02805V12.5044H118.377ZM113.379 10.5927C112.96 10.5421 112.536 10.5729 112.129 10.6833C111.82 10.7656 111.55 10.9521 111.363 11.2111C111.176 11.4702 111.085 11.7858 111.104 12.1046C111.104 12.8824 111.507 13.3072 112.107 13.3072C112.308 13.3099 112.506 13.2599 112.681 13.1624C112.856 13.0648 113.003 12.9231 113.107 12.7512C113.288 12.4324 113.38 12.0712 113.375 11.7047L113.379 10.5927Z" fill="#C1C7D0"/>
<path d="M123.984 0.577881V4.18272H125.83V7.37523H123.984V11.5267C124.006 11.9484 124.049 12.8169 125.118 12.8169C125.323 12.8184 125.526 12.7813 125.717 12.7075V15.6439C124.92 15.8132 124.108 15.9105 123.293 15.9344C122.003 15.9344 121.022 15.5751 120.532 15.0878C119.907 14.4631 119.888 13.6415 119.888 12.9949V7.37523H118.886V4.18272H120.201V1.44004L123.984 0.577881Z" fill="#C1C7D0"/>
<path d="M0.710083 0H7.45432V3.205L6.07361 3.18313L8.36334 12.1734L10.8343 3.18313L9.45667 3.205V0H15.6417V3.205L14.5953 3.18313L10.6999 15.7095H5.62691L1.68783 3.18313L0.710083 3.205V0Z" fill="#C1C7D0"/>
<path d="M25.2973 11.7485C25.1411 12.5732 24.9412 13.6634 23.9197 14.6411C22.8983 15.6189 21.4207 15.9781 19.9807 15.9781C16.91 15.9781 14.2173 14.4881 14.2173 9.99294C14.2013 9.20987 14.3066 8.42904 14.5297 7.67822C15.3075 5.02926 17.466 3.92969 19.8401 3.92969C21.6206 3.92969 23.067 4.55444 23.901 5.39786C25.5941 7.0441 25.5035 9.71493 25.4816 10.7395H18.4438C18.4438 11.6298 18.4656 13.2073 19.9119 13.2073C21.1146 13.2073 21.2708 12.1858 21.3364 11.761L25.2973 11.7485ZM21.3364 8.54351C21.3526 8.23544 21.3157 7.92687 21.227 7.63137C21.1304 7.3707 20.9525 7.148 20.7197 6.99613C20.4868 6.84427 20.2113 6.77128 19.9338 6.78795C18.5999 6.78795 18.5562 8.07807 18.5562 8.54351H21.3364Z" fill="#C1C7D0"/>
<path d="M37.7581 12.5045H38.7171V15.7095H33.6191V8.93717C33.6327 8.65323 33.6032 8.36885 33.5316 8.09375C33.4536 7.90673 33.3194 7.74856 33.1476 7.64112C32.9758 7.53367 32.7749 7.48226 32.5726 7.49399C32.4154 7.49403 32.2597 7.52557 32.1149 7.58673C31.97 7.64789 31.8389 7.73744 31.7292 7.8501C31.3293 8.24994 31.3043 8.75912 31.2825 9.41199V12.5358H32.0634V15.7095H26.2313V12.5045H27.1685V7.37528H26.2313V4.18278H30.7952L30.9264 5.94147C31.1019 5.59233 31.3353 5.27546 31.6167 5.00433C32.0022 4.63009 32.4586 4.3367 32.9591 4.14143C33.4596 3.94616 33.9941 3.85295 34.5312 3.86728C35.7339 3.86728 36.5367 4.31398 36.9584 4.76068C37.7143 5.51663 37.7362 6.45064 37.7581 7.2597V12.5045Z" fill="#C1C7D0"/>
<path d="M44.2337 0.577881V4.18272H46.0798V7.37523H44.2337V11.5267C44.2556 11.9484 44.2993 12.8169 45.3676 12.8169C45.5737 12.8187 45.7782 12.7816 45.9705 12.7075V15.6439C45.1718 15.8132 44.3595 15.9105 43.5433 15.9344C42.2532 15.9344 41.2755 15.5751 40.785 15.0878C40.1603 14.4631 40.1384 13.6415 40.1384 12.9949V7.37523H39.1357V4.18272H40.4508V1.44004L44.2337 0.577881Z" fill="#C1C7D0"/>
<path d="M51.8213 4.18274V10.927C51.8213 11.3924 51.8651 12.4608 52.9115 12.4608C53.958 12.4608 54.0017 11.305 54.0017 10.7052V7.37524L53.1583 7.39711V4.18274H58.1564V12.5264L59.1122 12.5045V15.7095H54.3672V14.4194C53.9834 14.9828 53.4393 15.4181 52.8053 15.6689C52.2454 15.8901 51.6487 16.0035 51.0466 16.0031C50.5997 16.025 50.1529 15.9576 49.7324 15.8047C49.3119 15.6519 48.9261 15.4166 48.5976 15.1128C47.7292 14.2694 47.6855 13.1542 47.6605 12.089V7.37524L46.7233 7.39711V4.18274H51.8213Z" fill="#C1C7D0"/>
<path d="M64.6164 6.18512C64.7944 5.56037 65.2161 4.05158 67.4278 4.05158C67.7965 4.04547 68.1643 4.08961 68.5211 4.18278V7.87821C68.1997 7.80205 67.8705 7.7643 67.5402 7.76576C66.8266 7.73488 66.1274 7.9735 65.5816 8.43425C65.0474 8.96841 65.0256 9.56818 65.0256 10.6209L64.9818 12.4952H66.3376V15.7095H60.0088V12.5045H60.9647V7.37528H60.0088V4.18278H64.482L64.6164 6.18512Z" fill="#C1C7D0"/>
<path d="M80.4571 11.7485C80.304 12.5732 80.1041 13.6634 79.0795 14.6411C78.0549 15.6189 76.5804 15.9781 75.1404 15.9781C72.0697 15.9781 69.377 14.4881 69.377 9.99294C69.361 9.20987 69.4664 8.42904 69.6894 7.67822C70.4672 5.02926 72.6257 3.92969 74.9842 3.92969C76.7648 3.92969 78.2111 4.55444 79.0451 5.39786C80.7351 7.0441 80.6476 9.71493 80.6257 10.7395H73.6066C73.6066 11.6298 73.6285 13.2073 75.0717 13.2073C76.2743 13.2073 76.4305 12.1858 76.4992 11.761L80.4571 11.7485ZM76.4992 8.54351C76.516 8.23521 76.4779 7.92638 76.3868 7.63137C76.2911 7.37066 76.1139 7.14777 75.8815 6.99581C75.6491 6.84386 75.3738 6.77096 75.0966 6.78795C73.7597 6.78795 73.7159 8.07807 73.7159 8.54351H76.4992Z" fill="#C1C7D0"/>
</g>
<defs>
<clipPath id="clip0_2043_6991">
<rect width="125.12" height="16" fill="white" transform="translate(0.710083)"/>
</clipPath>
</defs>
</svg>
