<svg width="126" height="18" viewBox="0 0 126 18" fill="none" xmlns="http://www.w3.org/2000/svg">
<g clip-path="url(#clip0_2643_4530)">
<path d="M88.094 0.994995C89.674 1.035 91.594 1.105 92.744 2.305C93.424 3.115 93.794 4.13499 93.794 5.19499C93.814 5.65499 93.734 6.115 93.564 6.545C93.394 6.975 93.134 7.365 92.804 7.69499C92.334 8.10499 91.804 8.44499 91.224 8.67499C91.934 8.83499 92.594 9.175 93.134 9.65499C93.854 10.465 94.244 11.525 94.214 12.605C94.224 13.115 94.134 13.625 93.954 14.095C93.764 14.565 93.484 14.995 93.124 15.365C91.874 16.635 90.234 16.655 88.434 16.705H81.224V13.505L82.624 13.525V4.175L81.224 4.195V0.994995H88.074H88.094ZM86.724 7.315C87.994 7.335 88.174 7.335 88.484 7.275C88.834 7.195 89.154 7.00499 89.374 6.71499C89.594 6.42499 89.704 6.075 89.684 5.71499C89.704 5.42499 89.634 5.135 89.504 4.885C89.364 4.635 89.164 4.415 88.914 4.275C88.554 4.095 88.334 4.095 86.754 4.075L86.724 7.325V7.315ZM86.724 13.505H87.974C88.844 13.505 90.064 13.485 90.064 11.995C90.084 11.675 90.004 11.355 89.824 11.085C89.654 10.815 89.404 10.605 89.104 10.485C88.724 10.325 88.544 10.325 86.744 10.325L86.714 13.505H86.724Z" fill="#AEAEB3"/>
<path d="M105.984 12.745C105.824 13.565 105.624 14.655 104.604 15.635C103.584 16.615 102.104 16.975 100.664 16.975C97.594 16.975 94.904 15.485 94.904 10.985C94.894 10.205 94.994 9.42499 95.214 8.67499C95.994 6.02499 98.154 4.92499 100.524 4.92499C102.304 4.92499 103.754 5.54499 104.584 6.39499C106.274 8.04499 106.194 10.715 106.164 11.735H99.124C99.124 12.625 99.144 14.205 100.594 14.205C101.794 14.205 101.954 13.185 102.024 12.755H105.984V12.745ZM102.024 9.52499C102.044 9.21499 102.004 8.90499 101.914 8.61499C101.814 8.35499 101.644 8.13499 101.404 7.98499C101.174 7.83499 100.894 7.75499 100.624 7.77499C99.284 7.77499 99.244 9.06499 99.244 9.53499H102.024V9.52499Z" fill="#AEAEB3"/>
<path d="M117.934 13.495V16.695H113.124L113.034 15.365C112.684 15.885 112.214 16.305 111.654 16.585C111.094 16.865 110.474 16.995 109.854 16.965C107.784 16.965 106.494 15.745 106.494 13.515C106.474 12.915 106.604 12.315 106.874 11.775C107.144 11.235 107.554 10.775 108.054 10.445C109.524 9.445 111.804 9.525 112.924 9.555C112.954 9.145 112.934 8.735 112.884 8.335C112.854 8.095 112.734 7.875 112.544 7.715C112.364 7.555 112.124 7.475 111.884 7.485C111.744 7.485 111.604 7.505 111.474 7.565C111.344 7.625 111.224 7.695 111.124 7.795C110.994 7.945 110.894 8.125 110.834 8.315C110.774 8.505 110.754 8.705 110.774 8.905H106.894C106.894 8.255 107.034 7.625 107.294 7.035C108.114 5.365 110.214 4.875 111.814 4.875C113.324 4.875 115.064 5.315 116.014 6.295C116.884 7.165 116.974 8.165 116.974 9.005V13.485H117.934V13.495ZM112.934 11.585C112.514 11.535 112.094 11.565 111.684 11.675C111.374 11.755 111.104 11.945 110.914 12.205C110.724 12.465 110.634 12.775 110.654 13.095C110.654 13.875 111.054 14.295 111.654 14.295C111.854 14.295 112.054 14.245 112.224 14.155C112.404 14.055 112.544 13.915 112.654 13.745C112.834 13.425 112.924 13.065 112.924 12.695V11.585H112.934Z" fill="#AEAEB3"/>
<path d="M123.534 1.575V5.175H125.384V8.365H123.534V12.515C123.554 12.935 123.604 13.805 124.664 13.805C124.874 13.805 125.074 13.765 125.264 13.695V16.635C124.464 16.805 123.654 16.905 122.844 16.925C121.554 16.925 120.574 16.565 120.084 16.075C119.464 15.455 119.444 14.625 119.444 13.985V8.375H118.444V5.185H119.754V2.435L123.534 1.575Z" fill="#AEAEB3"/>
<path d="M0.264038 0.994995H7.00404V4.195L5.62404 4.175L7.91404 13.165L10.384 4.175L9.00404 4.195V0.994995H15.194V4.195L14.144 4.175L10.244 16.705H5.18404L1.24404 4.175L0.264038 4.195V0.994995Z" fill="#AEAEB3"/>
<path d="M24.854 12.745C24.694 13.565 24.494 14.655 23.474 15.635C22.454 16.615 20.974 16.975 19.534 16.975C16.464 16.975 13.774 15.485 13.774 10.985C13.754 10.205 13.864 9.42499 14.084 8.67499C14.864 6.02499 17.024 4.92499 19.394 4.92499C21.174 4.92499 22.624 5.54499 23.454 6.39499C25.144 8.04499 25.054 10.715 25.034 11.735H17.994C17.994 12.625 18.014 14.205 19.464 14.205C20.664 14.205 20.824 13.185 20.884 12.755H24.844L24.854 12.745ZM20.894 9.52499C20.914 9.21499 20.874 8.90499 20.784 8.61499C20.684 8.35499 20.514 8.13499 20.274 7.97499C20.044 7.82499 19.764 7.75499 19.484 7.76499C18.154 7.76499 18.104 9.05499 18.104 9.52499H20.884H20.894Z" fill="#AEAEB3"/>
<path d="M37.3141 13.495H38.2741V16.695H33.1741V9.925C33.1841 9.645 33.1541 9.355 33.0841 9.085C33.0041 8.895 32.8741 8.735 32.7041 8.635C32.5341 8.525 32.3341 8.475 32.1341 8.485C31.9741 8.485 31.8241 8.515 31.6741 8.575C31.5341 8.635 31.3941 8.725 31.2841 8.835C30.8841 9.235 30.8641 9.745 30.8341 10.395V13.515H31.6141V16.685H25.7841V13.485H26.7241V8.375H25.7841V5.185H30.3441L30.4741 6.945C30.6541 6.595 30.8841 6.275 31.1641 6.005C31.5541 5.635 32.0041 5.335 32.5041 5.145C33.0041 4.945 33.5341 4.855 34.0741 4.875C35.2741 4.875 36.0841 5.325 36.5041 5.765C37.2641 6.525 37.2841 7.455 37.3041 8.265V13.505L37.3141 13.495Z" fill="#AEAEB3"/>
<path d="M43.7841 1.575V5.175H45.6341V8.365H43.7841V12.515C43.8041 12.935 43.8541 13.805 44.9141 13.805C45.1241 13.805 45.3241 13.765 45.5141 13.695V16.635C44.7141 16.805 43.9041 16.905 43.0841 16.925C41.7941 16.925 40.8141 16.565 40.3241 16.075C39.7041 15.455 39.6741 14.625 39.6741 13.985V8.375H38.6741V5.185H39.9941V2.435L43.7741 1.575H43.7841Z" fill="#AEAEB3"/>
<path d="M51.3741 5.17499V11.915C51.3741 12.385 51.4141 13.445 52.4641 13.445C53.5141 13.445 53.5541 12.285 53.5541 11.685V8.35499L52.7141 8.37499V5.16499H57.7141V13.525L58.6741 13.505V16.705H53.9241V15.415C53.5441 15.975 52.9941 16.415 52.3641 16.665C51.8041 16.885 51.2041 16.995 50.6041 16.995C50.1541 17.015 49.7141 16.945 49.2941 16.795C48.8741 16.645 48.4841 16.405 48.1641 16.105C47.2941 15.265 47.2541 14.145 47.2241 13.085V8.37499L46.2841 8.39499V5.18499H51.3841L51.3741 5.17499Z" fill="#AEAEB3"/>
<path d="M64.1741 7.18499C64.3541 6.56499 64.7741 5.05499 66.9841 5.05499C67.3541 5.05499 67.7241 5.09499 68.0741 5.18499V8.88499C67.7541 8.80499 67.4241 8.77499 67.0941 8.77499C66.3841 8.74499 65.6841 8.98499 65.1341 9.44499C64.6041 9.97499 64.5741 10.575 64.5741 11.635L64.5341 13.505H65.8941V16.715H59.5641V13.515H60.5241V8.37499H59.5641V5.18499H64.0341L64.1641 7.18499H64.1741Z" fill="#AEAEB3"/>
<path d="M80.0141 12.745C79.8641 13.565 79.6641 14.655 78.6341 15.635C77.6141 16.615 76.1341 16.975 74.6941 16.975C71.6241 16.975 68.9341 15.485 68.9341 10.985C68.9141 10.205 69.0241 9.42499 69.2441 8.67499C70.0241 6.02499 72.1841 4.92499 74.5341 4.92499C76.3141 4.92499 77.7641 5.54499 78.5941 6.39499C80.2841 8.04499 80.1941 10.715 80.1741 11.735H73.1541C73.1541 12.625 73.1741 14.205 74.6241 14.205C75.8241 14.205 75.9841 13.185 76.0541 12.755H80.0141V12.745ZM76.0541 9.52499C76.0741 9.21499 76.0341 8.90499 75.9441 8.61499C75.8441 8.35499 75.6741 8.13499 75.4341 7.97499C75.2041 7.82499 74.9241 7.75499 74.6541 7.76499C73.3141 7.76499 73.2741 9.05499 73.2741 9.52499H76.0541Z" fill="#AEAEB3"/>
</g>
<defs>
<clipPath id="clip0_2643_4530">
<rect width="125.12" height="16.01" fill="white" transform="translate(0.264038 0.994995)"/>
</clipPath>
</defs>
</svg>
