<svg width="81" height="16" viewBox="0 0 81 16" fill="none" xmlns="http://www.w3.org/2000/svg">
<g clip-path="url(#clip0_3076_12245)">
<path d="M68.1917 2.48917V13.5493H73.6448C75.1717 13.5493 76.0506 13.3055 76.6921 12.7474C77.4941 12.0289 77.8982 10.7458 77.8982 8.01283C77.8982 5.27987 77.5005 4.00321 76.6921 3.27827C76.0506 2.71371 75.1653 2.47634 73.6448 2.47634H68.1917V2.48917ZM75.6464 8.01925C75.6464 10.425 75.486 10.9832 75.0049 11.3039C74.6841 11.5477 74.2864 11.6247 73.478 11.6247H70.4307V4.33039H73.478C74.2799 4.33039 74.6841 4.33039 75.0049 4.65116C75.486 5.04892 75.6464 5.61347 75.6464 8.01925ZM80.7018 16H64.7018V0H80.7018V16ZM51.6336 4.33039V2.48917H61.0963V6.01764H59.0883V4.33681H55.239V6.97995H58.2864V8.74419H55.239V11.7081H59.1717V9.78348H61.1733V13.5557H51.6336V11.7081H53.154V4.33039H51.6272H51.6336ZM43.0498 10.6688C43.0498 11.8749 43.1268 12.7538 43.2872 13.4787H45.4556C45.3722 12.9142 45.2952 11.8749 45.2952 10.5148C45.2118 8.91099 44.7306 8.6672 43.6079 8.42983C44.891 8.18605 45.4556 7.62791 45.4556 5.61989C45.4556 4.01604 45.2118 3.3745 44.7306 2.97674C44.4099 2.65597 43.8517 2.49559 42.9664 2.49559H36.2302V13.5493H38.4756V9.21893H41.6063C42.2479 9.21893 42.4852 9.29591 42.729 9.46271C42.9728 9.62951 43.0498 9.86046 43.0498 10.6688ZM38.4756 7.46111V4.41379H42.0875C42.5686 4.41379 42.729 4.49078 42.806 4.57418C42.9664 4.73456 43.1268 4.97193 43.1268 5.93424C43.1268 6.89655 42.9664 7.21732 42.806 7.37771C42.729 7.45469 42.5686 7.53809 42.0875 7.53809L38.4756 7.46111ZM48.6633 16H32.6248V0H48.6248V16H48.6633ZM28.4548 11.7081V13.5557H20.8333V11.7081H23.5598V4.33039H20.8333V2.48917H28.4548V4.33681H25.7282V11.7145H28.4548V11.7081ZM15.5855 2.48917H13.5005L11.9736 11.2269L10.2094 3.13071C10.1324 2.56616 9.8886 2.48917 9.40745 2.48917H8.28475C7.8036 2.48917 7.56623 2.64956 7.48283 3.13071L5.7186 11.2269L4.19815 2.48917H1.95276L4.12116 12.9976C4.19815 13.4787 4.36495 13.5621 4.92309 13.5621H6.44995C6.93111 13.5621 7.09149 13.4852 7.25187 12.9976L8.93271 5.3761L10.6135 12.9976C10.6905 13.4787 10.8573 13.5621 11.4155 13.5621H12.8589C13.3401 13.5621 13.5775 13.4852 13.6609 12.9976L15.5855 2.48917ZM16.7082 16H0.669678V0H16.6697V16H16.7082Z" fill="#AEAEB3"/>
</g>
<defs>
<clipPath id="clip0_3076_12245">
<rect width="80.0321" height="16" fill="white" transform="translate(0.669678)"/>
</clipPath>
</defs>
</svg>
