<svg width="81" height="16" viewBox="0 0 81 16" fill="none" xmlns="http://www.w3.org/2000/svg">
<g clip-path="url(#clip0_3076_12245)">
<path d="M67.8911 2.48917V13.5493H73.3442C74.871 13.5493 75.7499 13.3055 76.3915 12.7474C77.1934 12.0289 77.5976 10.7458 77.5976 8.01283C77.5976 5.27987 77.1998 4.00321 76.3915 3.27827C75.7499 2.71371 74.8646 2.47634 73.3442 2.47634H67.8911V2.48917ZM75.3458 8.01925C75.3458 10.425 75.1854 10.9832 74.7042 11.3039C74.3835 11.5477 73.9857 11.6247 73.1774 11.6247H70.13V4.33039H73.1774C73.9793 4.33039 74.3835 4.33039 74.7042 4.65116C75.1854 5.04892 75.3458 5.61347 75.3458 8.01925ZM80.4011 16H64.4011V0H80.4011V16ZM51.3329 4.33039V2.48917H60.7956V6.01764H58.7876V4.33681H54.9384V6.97995H57.9857V8.74419H54.9384V11.7081H58.871V9.78348H60.8726V13.5557H51.3329V11.7081H52.8534V4.33039H51.3265H51.3329ZM42.7491 10.6688C42.7491 11.8749 42.8261 12.7538 42.9865 13.4787H45.1549C45.0715 12.9142 44.9945 11.8749 44.9945 10.5148C44.9111 8.91099 44.43 8.6672 43.3073 8.42983C44.5904 8.18605 45.1549 7.62791 45.1549 5.61989C45.1549 4.01604 44.9111 3.3745 44.43 2.97674C44.1092 2.65597 43.5511 2.49559 42.6657 2.49559H35.9296V13.5493H38.175V9.21893H41.3057C41.9472 9.21893 42.1846 9.29591 42.4284 9.46271C42.6721 9.62951 42.7491 9.86046 42.7491 10.6688ZM38.175 7.46111V4.41379H41.7868C42.268 4.41379 42.4284 4.49078 42.5053 4.57418C42.6657 4.73456 42.8261 4.97193 42.8261 5.93424C42.8261 6.89655 42.6657 7.21732 42.5053 7.37771C42.4284 7.45469 42.268 7.53809 41.7868 7.53809L38.175 7.46111ZM48.3626 16H32.3241V0H48.3241V16H48.3626ZM28.1541 11.7081V13.5557H20.5326V11.7081H23.2592V4.33039H20.5326V2.48917H28.1541V4.33681H25.4276V11.7145H28.1541V11.7081ZM15.2848 2.48917H13.1998L11.6729 11.2269L9.90871 3.13071C9.83173 2.56616 9.58794 2.48917 9.10679 2.48917H7.98409C7.50294 2.48917 7.26557 2.64956 7.18217 3.13071L5.41794 11.2269L3.89749 2.48917H1.6521L3.8205 12.9976C3.89749 13.4787 4.06429 13.5621 4.62243 13.5621H6.14929C6.63045 13.5621 6.79083 13.4852 6.95122 12.9976L8.63205 5.3761L10.3129 12.9976C10.3899 13.4787 10.5567 13.5621 11.1148 13.5621H12.5583C13.0394 13.5621 13.2768 13.4852 13.3602 12.9976L15.2848 2.48917ZM16.4075 16H0.369019V0H16.369V16H16.4075Z" fill="#C1C7D0"/>
</g>
<defs>
<clipPath id="clip0_3076_12245">
<rect width="80.0321" height="16" fill="white" transform="translate(0.369019)"/>
</clipPath>
</defs>
</svg>
