<?xml version="1.0" encoding="UTF-8"?>
<svg width="172px" height="41px" viewBox="0 0 172 41" version="1.1" xmlns="http://www.w3.org/2000/svg" xmlns:xlink="http://www.w3.org/1999/xlink">
    <!-- Generator: Sketch 64 (93537) - https://sketch.com -->
    <title>629,000</title>
    <desc>Created with Sketch.</desc>
    <defs>
        <linearGradient x1="81.6089685%" y1="46.4621931%" x2="8.69622741%" y2="54.5371544%" id="linearGradient-1">
            <stop stop-color="#FF1594" offset="0%"></stop>
            <stop stop-color="#FF5EB6" offset="99.9656883%"></stop>
        </linearGradient>
        <path d="M67.1624015,125.794286 C69.3735016,125.794286 71.3719962,125.342015 73.1578848,124.437474 C74.9437735,123.532933 76.3508374,122.257298 77.3790762,120.61057 C78.407315,118.963841 78.9214346,117.096776 78.9214346,115.009374 C78.9214346,113.370376 78.6585766,111.87827 78.1328603,110.533055 C77.6071441,109.18784 76.88815,108.08229 75.975878,107.216405 C75.0636059,106.35052 74.0044424,105.681778 72.7983878,105.210179 C71.5923331,104.738581 70.301236,104.502782 68.9250968,104.502782 C66.7294587,104.502782 64.7348298,104.997573 62.9412101,105.987157 L62.8484367,105.963964 C63.7607087,103.691014 65.1871003,101.816218 67.1276115,100.339574 C69.0681226,98.86293 71.5382154,97.6993967 74.5378897,96.8489734 L72.6592276,91.653661 C70.1388825,92.1175281 67.8079499,92.9872791 65.6664298,94.2629139 C63.5249098,95.5385486 61.7042311,97.0925037 60.2043938,98.924779 C58.7045564,100.757054 57.5371575,102.863784 56.7021966,105.244969 C55.8672356,107.626154 55.4497552,110.123306 55.4497552,112.736424 C55.4497552,114.653742 55.7474032,116.431899 56.3426995,118.070897 C56.9379958,119.709894 57.7574944,121.089899 58.8011956,122.210912 C59.8448967,123.331924 61.0857414,124.209406 62.5237297,124.843358 C63.9617179,125.47731 65.507942,125.794286 67.1624015,125.794286 Z M67.3479484,119.995946 C65.7398756,119.995946 64.3791984,119.373591 63.2659172,118.12888 C62.1526359,116.88417 61.5959953,115.264501 61.5959953,113.269872 L61.5959953,112.829198 C62.2917961,111.978775 63.1422194,111.282974 64.1472648,110.741795 C65.1523103,110.200617 66.1960114,109.930028 67.2783683,109.930028 C68.8864411,109.930028 70.1814039,110.390029 71.1632559,111.310033 C72.145108,112.230036 72.6360342,113.409032 72.6360342,114.84702 C72.6360342,116.269546 72.137377,117.483332 71.1400626,118.488377 C70.1427481,119.493423 68.8787101,119.995946 67.3479484,119.995946 Z M102.943791,125.399998 L102.943791,119.532079 L91.0455973,119.532079 L91.0455973,119.416112 L97.1918375,113.061131 C99.2328531,110.942805 100.643782,109.064143 101.424626,107.425145 C102.205469,105.786148 102.59589,104.00799 102.59589,102.090673 C102.59589,100.62176 102.313704,99.2688137 101.749333,98.0318347 C101.184961,96.7948557 100.423445,95.7704822 99.4647867,94.9587146 C98.506128,94.1469471 97.4044434,93.5168607 96.159733,93.0684559 C94.9150226,92.620051 93.6045978,92.3958484 92.2284586,92.3958484 C89.6462648,92.3958484 87.4583577,92.9563547 85.664738,94.077367 C83.8711184,95.1983792 82.4563235,96.6943509 81.4203533,98.565282 L86.0590251,101.881932 C87.481551,99.531672 89.3756755,98.3565417 91.7413981,98.3565417 C92.576359,98.3565417 93.3224122,98.5498196 93.9795573,98.9363757 C94.6367023,99.3229318 95.1508219,99.8525134 95.5219156,100.525121 C95.8930094,101.197728 96.0785563,101.951512 96.0785563,102.786473 C96.0785563,104.00799 95.7229249,105.194717 95.0116617,106.346654 C94.3003986,107.498591 93.2025797,108.863133 91.7182047,110.440282 L81.5595135,121.155614 L81.6290935,125.399998 L102.943791,125.399998 Z M112.35433,126.58286 C114.890137,126.10353 117.236532,125.233779 119.393515,123.973607 C121.550497,122.713434 123.390504,121.171076 124.913534,119.346532 C126.436565,117.521987 127.627157,115.419123 128.485312,113.037938 C129.343466,110.656753 129.772543,108.136408 129.772543,105.476903 C129.772543,104.379084 129.675904,103.319921 129.482626,102.299413 C129.289348,101.278905 129.003296,100.335708 128.624472,99.469823 C128.245647,98.6039377 127.793376,97.7999011 127.26766,97.0577136 C126.741944,96.3155261 126.142782,95.6583811 125.470175,95.0862781 C124.797567,94.5141751 124.070842,94.0271146 123.289999,93.6250965 C122.509156,93.2230784 121.666464,92.917699 120.761923,92.7089588 C119.857382,92.5002186 118.925782,92.3958484 117.967123,92.3958484 C116.343588,92.3958484 114.812826,92.6625721 113.374838,93.1960193 C111.93685,93.7294666 110.696005,94.4677884 109.652304,95.4109851 C108.608603,96.3541819 107.785239,97.5022531 107.182211,98.855199 C106.579184,100.208145 106.27767,101.673192 106.27767,103.250341 C106.27767,104.564631 106.447755,105.782282 106.787924,106.903295 C107.128094,108.024307 107.603557,108.998428 108.214316,109.825658 C108.825074,110.652888 109.547934,111.364151 110.382895,111.959447 C111.217856,112.554743 112.130128,112.999282 113.119711,113.293065 C114.109295,113.586848 115.152996,113.733739 116.250815,113.733739 C118.461915,113.733739 120.479737,113.223485 122.304281,112.202977 L122.350668,112.22617 C121.422934,114.530044 119.973349,116.416437 118.001913,117.88535 C116.030478,119.354263 113.513998,120.513931 110.452475,121.364354 L112.35433,126.58286 Z M117.920736,108.306493 C116.297201,108.306493 115.006104,107.846491 114.047446,106.926488 C113.088787,106.006485 112.609457,104.819758 112.609457,103.366307 C112.609457,101.928319 113.11198,100.710668 114.117026,99.7133532 C115.122071,98.7160388 116.436362,98.2173816 118.059897,98.2173816 C119.667969,98.2173816 120.993857,98.8397366 122.037558,100.084447 C123.081259,101.329157 123.603109,102.956558 123.603109,104.966649 L123.603109,105.360936 C122.907309,106.226821 122.056885,106.934219 121.05184,107.483129 C120.046795,108.032038 119.003093,108.306493 117.920736,108.306493 Z M135.750466,131.708592 L139.043923,119.346532 L132.688942,119.346532 L131.227761,131.708592 L135.750466,131.708592 Z M155.34289,125.794286 C157.940546,125.794286 160.205764,125.094619 162.138544,123.695287 C164.071324,122.295954 165.544102,120.343846 166.556879,117.838963 C167.569656,115.334081 168.076044,112.419448 168.076044,109.095067 C168.076044,106.497411 167.766799,104.147151 167.14831,102.044286 C166.52982,99.9414212 165.663935,98.1864572 164.550654,96.7793933 C163.437372,95.3723294 162.096023,94.2899729 160.526606,93.532323 C158.957188,92.7746732 157.229283,92.3958484 155.34289,92.3958484 C153.394648,92.3958484 151.624222,92.7978666 150.031611,93.6019031 C148.439,94.4059397 147.101517,95.5385486 146.01916,96.9997302 C144.936803,98.4609119 144.101842,100.223607 143.514277,102.287816 C142.926712,104.352025 142.632929,106.621109 142.632929,109.095067 C142.632929,111.692723 142.942174,114.042983 143.560664,116.145848 C144.179153,118.248713 145.045039,120.003677 146.15832,121.410741 C147.271601,122.817805 148.609085,123.900161 150.170771,124.657811 C151.732457,125.415461 153.456497,125.794286 155.34289,125.794286 Z M155.366083,119.787206 C154.09818,119.787206 153.000361,119.354263 152.072626,118.488377 C151.144892,117.622492 150.44136,116.385513 149.962031,114.77744 C149.482701,113.169367 149.243037,111.275243 149.243037,109.095067 C149.243037,105.677912 149.788081,103.0416 150.878168,101.186132 C151.968256,99.3306628 153.464228,98.4029285 155.366083,98.4029285 C157.283401,98.4029285 158.779373,99.3538562 159.853998,101.255712 C160.928624,103.157567 161.465937,105.770686 161.465937,109.095067 C161.465937,112.512222 160.928624,115.148534 159.853998,117.004002 C158.779373,118.859471 157.283401,119.787206 155.366083,119.787206 Z M184.653332,125.794286 C187.250988,125.794286 189.516206,125.094619 191.448986,123.695287 C193.381766,122.295954 194.854544,120.343846 195.867321,117.838963 C196.880098,115.334081 197.386486,112.419448 197.386486,109.095067 C197.386486,106.497411 197.077241,104.147151 196.458752,102.044286 C195.840262,99.9414212 194.974377,98.1864572 193.861095,96.7793933 C192.747814,95.3723294 191.406465,94.2899729 189.837048,93.532323 C188.26763,92.7746732 186.539725,92.3958484 184.653332,92.3958484 C182.70509,92.3958484 180.934663,92.7978666 179.342053,93.6019031 C177.749442,94.4059397 176.411958,95.5385486 175.329602,96.9997302 C174.247245,98.4609119 173.412284,100.223607 172.824719,102.287816 C172.237154,104.352025 171.943371,106.621109 171.943371,109.095067 C171.943371,111.692723 172.252616,114.042983 172.871105,116.145848 C173.489595,118.248713 174.35548,120.003677 175.468762,121.410741 C176.582043,122.817805 177.919527,123.900161 179.481213,124.657811 C181.042899,125.415461 182.766939,125.794286 184.653332,125.794286 Z M184.676525,119.787206 C183.408621,119.787206 182.310803,119.354263 181.383068,118.488377 C180.455334,117.622492 179.751802,116.385513 179.272473,114.77744 C178.793143,113.169367 178.553478,111.275243 178.553478,109.095067 C178.553478,105.677912 179.098522,103.0416 180.18861,101.186132 C181.278698,99.3306628 182.77467,98.4029285 184.676525,98.4029285 C186.593843,98.4029285 188.089815,99.3538562 189.16444,101.255712 C190.239066,103.157567 190.776379,105.770686 190.776379,109.095067 C190.776379,112.512222 190.239066,115.148534 189.16444,117.004002 C188.089815,118.859471 186.593843,119.787206 184.676525,119.787206 Z M213.963774,125.794286 C216.56143,125.794286 218.826648,125.094619 220.759428,123.695287 C222.692208,122.295954 224.164986,120.343846 225.177763,117.838963 C226.19054,115.334081 226.696928,112.419448 226.696928,109.095067 C226.696928,106.497411 226.387683,104.147151 225.769193,102.044286 C225.150704,99.9414212 224.284819,98.1864572 223.171537,96.7793933 C222.058256,95.3723294 220.716907,94.2899729 219.147489,93.532323 C217.578072,92.7746732 215.850167,92.3958484 213.963774,92.3958484 C212.015532,92.3958484 210.245105,92.7978666 208.652494,93.6019031 C207.059884,94.4059397 205.7224,95.5385486 204.640043,96.9997302 C203.557686,98.4609119 202.722726,100.223607 202.135161,102.287816 C201.547596,104.352025 201.253813,106.621109 201.253813,109.095067 C201.253813,111.692723 201.563058,114.042983 202.181547,116.145848 C202.800037,118.248713 203.665922,120.003677 204.779204,121.410741 C205.892485,122.817805 207.229969,123.900161 208.791655,124.657811 C210.353341,125.415461 212.077381,125.794286 213.963774,125.794286 Z M213.986967,119.787206 C212.719063,119.787206 211.621244,119.354263 210.69351,118.488377 C209.765776,117.622492 209.062244,116.385513 208.582914,114.77744 C208.103585,113.169367 207.86392,111.275243 207.86392,109.095067 C207.86392,105.677912 208.408964,103.0416 209.499052,101.186132 C210.58914,99.3306628 212.085112,98.4029285 213.986967,98.4029285 C215.904285,98.4029285 217.400257,99.3538562 218.474882,101.255712 C219.549508,103.157567 220.086821,105.770686 220.086821,109.095067 C220.086821,112.512222 219.549508,115.148534 218.474882,117.004002 C217.400257,118.859471 215.904285,119.787206 213.986967,119.787206 Z" id="path-2"></path>
    </defs>
    <g id="Page-1" stroke="none" stroke-width="1" fill="none" fill-rule="evenodd">
        <g id="Token---1440" transform="translate(-850.000000, -1554.000000)" fill-rule="nonzero">
            <g id="Group-15" transform="translate(340.000000, 1027.000000)">
                <g id="Group-14" transform="translate(0.000000, 343.000000)">
                    <g id="Group-13-Copy" transform="translate(0.000000, 43.000000)">
                        <g id="Group-11">
                            <g id="Group-5">
                                <g id="Group-21" transform="translate(455.000000, 50.000000)">
                                    <g id="629,000">
                                        <use fill="#FFFFFF" xlink:href="#path-2"></use>
                                        <use fill="url(#linearGradient-1)" xlink:href="#path-2"></use>
                                    </g>
                                </g>
                            </g>
                        </g>
                    </g>
                </g>
            </g>
        </g>
    </g>
</svg>