<?xml version="1.0" encoding="UTF-8"?>
<svg width="190px" height="120px" viewBox="0 0 190 120" version="1.1" xmlns="http://www.w3.org/2000/svg" xmlns:xlink="http://www.w3.org/1999/xlink">
    <!-- Generator: Sketch 64 (93537) - https://sketch.com -->
    <title>Higherinterestrecieved</title>
    <desc>Created with Sketch.</desc>
    <defs>
        <linearGradient x1="81.6089685%" y1="24.4551506%" x2="8.69622741%" y2="82.7606707%" id="linearGradient-1">
            <stop stop-color="#FF1594" offset="0%"></stop>
            <stop stop-color="#FF5EB6" offset="99.9656883%"></stop>
        </linearGradient>
        <path d="M10.4138182,167.199998 L10.4138182,154.02617 L24.2138669,154.02617 L24.2138669,167.199998 L30.939941,167.199998 L30.939941,133.45366 L24.2138669,133.45366 L24.2138669,148.065477 L10.4138182,148.065477 L10.4138182,133.45366 L3.71093745,133.45366 L3.71093745,167.199998 L10.4138182,167.199998 Z M40.0382319,140.736375 C41.0896641,140.736375 41.9942051,140.365281 42.7518549,139.623094 C43.5095048,138.880906 43.8883295,137.984096 43.8883295,136.932664 C43.8883295,135.896694 43.5095048,135.007615 42.7518549,134.265428 C41.9942051,133.523241 41.0896641,133.152147 40.0382319,133.152147 C38.9713374,133.152147 38.0629307,133.523241 37.3130122,134.265428 C36.5630937,135.007615 36.1881343,135.896694 36.1881343,136.932664 C36.1881343,137.628465 36.3582188,138.266282 36.6983882,138.846116 C37.0385576,139.42595 37.5062901,139.885952 38.1015864,140.226121 C38.6968828,140.566291 39.3424311,140.736375 40.0382319,140.736375 Z M43.146142,167.199998 L43.146142,144.006639 L36.9303218,144.006639 L36.9303218,167.199998 L43.146142,167.199998 Z M59.5735344,176.987595 C61.3207673,176.987595 62.8785881,176.786586 64.2469963,176.384568 C65.6154045,175.98255 66.7634757,175.418178 67.6912101,174.691453 C68.6189445,173.964728 69.3843253,173.079514 69.9873526,172.035813 C70.59038,170.992112 71.0233228,169.851772 71.2861807,168.614793 C71.5490387,167.377814 71.6804679,166.017137 71.6804679,164.532762 L71.6804679,144.006639 L65.4646476,144.006639 L65.4646476,146.395555 L65.3486808,146.395555 C64.4518708,145.483283 63.4043043,144.791347 62.2059807,144.319749 C61.007657,143.848151 59.7436189,143.612352 58.4138665,143.612352 C56.3728509,143.612352 54.5328445,144.114875 52.893847,145.11992 C51.2548495,146.124965 49.9753494,147.524298 49.0553461,149.317918 C48.1353427,151.111538 47.6753412,153.12936 47.6753412,155.371385 C47.6753412,157.582485 48.1508051,159.557786 49.1017328,161.297288 C50.0526605,163.03679 51.366951,164.38587 53.0446038,165.344529 C54.7222567,166.303188 56.6202468,166.782517 58.7385735,166.782517 C61.5217766,166.782517 63.7715324,165.877976 65.487841,164.068894 L65.6038078,164.068894 L65.6038078,166.411424 C65.6038078,167.895799 65.0317048,169.125047 63.8874992,170.099168 C62.7432936,171.073289 61.1274895,171.560349 59.0400871,171.560349 C57.663948,171.560349 56.3805819,171.374803 55.1899895,171.003709 C53.9993972,170.632615 52.7701492,170.099168 51.5022454,169.403367 L50.0642572,174.645066 C52.7856112,176.206752 55.9553704,176.987595 59.5735344,176.987595 Z M59.8750481,161.146531 C59.2101717,161.146531 58.5800856,161.057623 57.9847893,160.879808 C57.389493,160.701992 56.8483147,160.442999 56.3612542,160.10283 C55.8741936,159.762661 55.4528475,159.352912 55.0972161,158.873582 C54.7415847,158.394252 54.4671297,157.841478 54.2738519,157.215257 C54.080574,156.589036 53.9839349,155.912563 53.9839349,155.185838 C53.9839349,153.438605 54.5328445,152.016079 55.6306634,150.91826 C56.7284822,149.820441 58.1432771,149.271531 59.8750481,149.271531 C61.5449699,149.271531 62.9404372,149.81271 64.0614494,150.895066 C65.1824616,151.977423 65.7429679,153.392218 65.7429679,155.139451 C65.7429679,156.886684 65.1940583,158.324672 64.0962394,159.453416 C62.9984206,160.58216 61.5913566,161.146531 59.8750481,161.146531 Z M99.4494128,167.223191 L99.4494128,153.260789 C99.4494128,151.529018 99.2406726,150.033047 98.8231921,148.772874 C98.4057117,147.512702 97.8104153,146.511522 97.0373035,145.769334 C96.2641916,145.027147 95.3712473,144.482103 94.3584705,144.134202 C93.3456937,143.786302 92.1898914,143.612352 90.8910633,143.612352 C89.391226,143.612352 87.9957591,143.882941 86.704662,144.424119 C85.4135649,144.965298 84.2964183,145.761603 83.3532216,146.813035 L83.2604482,146.813035 L83.2604482,132.224412 L77.0446279,132.224412 L77.0446279,167.199998 L83.2604482,167.199998 L83.2604482,155.440965 C83.2604482,153.399949 83.7397777,151.84986 84.6984364,150.790696 C85.6570952,149.731533 86.986848,149.201951 88.6876942,149.201951 C90.2339183,149.201951 91.3742582,149.627163 92.1087147,150.477586 C92.8431712,151.328009 93.2103992,152.78146 93.2103992,154.837938 L93.2103992,167.223191 L99.4494128,167.223191 Z M115.343358,167.594285 C117.56992,167.594285 119.533625,167.196132 121.234471,166.399827 C122.935317,165.603522 124.311457,164.540493 125.362889,163.21074 L121.327245,159.453416 C119.873794,161.216111 118.026057,162.089728 115.784032,162.074266 C114.299657,162.058803 113.035619,161.656785 111.991918,160.868211 C110.948216,160.079637 110.240819,158.99728 109.869725,157.621141 L126.12827,157.621141 C126.236506,157.234584 126.290623,156.492397 126.290623,155.394578 C126.290623,153.137091 125.819025,151.115403 124.875829,149.329515 C123.932632,147.543626 122.595148,146.144294 120.863377,145.131517 C119.131606,144.11874 117.144709,143.612352 114.902684,143.612352 C113.279149,143.612352 111.756118,143.906134 110.333592,144.493699 C108.911066,145.081264 107.693415,145.896898 106.680638,146.940599 C105.667862,147.9843 104.867691,149.252204 104.280126,150.74431 C103.692561,152.236416 103.398778,153.848354 103.398778,155.580125 C103.398778,157.945848 103.920629,160.048712 104.96433,161.888719 C106.008031,163.728725 107.434422,165.139655 109.243504,166.121507 C111.052586,167.103359 113.085871,167.594285 115.343358,167.594285 Z M120.12119,153.144822 L109.892919,153.144822 C110.24855,151.830532 110.886367,150.825486 111.806371,150.129686 C112.726374,149.433885 113.828059,149.085984 115.111424,149.085984 C116.425715,149.085984 117.508071,149.445482 118.358495,150.164476 C119.208918,150.88347 119.796483,151.876919 120.12119,153.144822 Z M136.757323,167.199998 L136.757323,156.438279 C136.757323,154.660122 137.279173,153.206671 138.322874,152.077928 C139.366575,150.949184 140.81616,150.384813 142.671629,150.384813 C143.150959,150.384813 143.699868,150.408006 144.318358,150.454393 L144.318358,143.635545 C144.225584,143.620083 144.063231,143.612352 143.831297,143.612352 C142.455158,143.612352 141.164061,143.940924 139.958006,144.598069 C138.751951,145.255215 137.70825,146.194546 136.826903,147.416063 L136.757323,147.416063 L136.757323,144.006639 L130.541502,144.006639 L130.541502,167.199998 L136.757323,167.199998 Z M6.54052726,182.536375 C7.59195942,182.536375 8.49650043,182.165281 9.25415027,181.423093 C10.0118001,180.680906 10.3906249,179.784096 10.3906249,178.732664 C10.3906249,177.696694 10.0118001,176.807615 9.25415027,176.065427 C8.49650043,175.32324 7.59195942,174.952146 6.54052726,174.952146 C5.47363274,174.952146 4.56522606,175.32324 3.81530757,176.065427 C3.06538908,176.807615 2.69042965,177.696694 2.69042965,178.732664 C2.69042965,179.428465 2.86051417,180.066282 3.20068355,180.646116 C3.54085294,181.22595 4.00858544,181.685951 4.60388178,182.026121 C5.19917811,182.36629 5.84472649,182.536375 6.54052726,182.536375 Z M9.64843738,208.999997 L9.64843738,185.806638 L3.43261714,185.806638 L3.43261714,208.999997 L9.64843738,208.999997 Z M37.6725093,209.023191 L37.6725093,195.246335 C37.6725093,193.499103 37.4715001,191.983803 37.069482,190.700437 C36.6674639,189.417071 36.0837642,188.396564 35.3183833,187.638914 C34.5530025,186.881264 33.6716549,186.320758 32.6743404,185.957395 C31.677026,185.594032 30.5366857,185.412351 29.2533199,185.412351 C27.8153317,185.412351 26.4507892,185.702268 25.1596921,186.282102 C23.868595,186.861936 22.7514484,187.700763 21.8082517,188.798582 L21.7386716,188.798582 L21.7386716,185.806638 L15.5228514,185.806638 L15.5228514,208.999997 L21.7386716,208.999997 L21.7386716,197.333738 C21.7386716,195.308185 22.2141355,193.746498 23.1650632,192.648679 C24.1159909,191.55086 25.3954913,191.001951 27.0035641,191.001951 C28.5188635,191.001951 29.639876,191.434894 30.3666012,192.300779 C31.0933263,193.166664 31.4566891,194.666501 31.4566891,196.80029 L31.4566891,209.023191 L37.6725093,209.023191 Z M50.1338373,209.394284 C51.5563632,209.394284 52.7160311,209.270587 53.6128411,209.023191 C54.5096511,208.775795 55.3987298,208.412432 56.2800774,207.933103 L54.6797356,202.969724 C53.6283035,203.510902 52.6541824,203.781492 51.7573724,203.781492 C51.0306473,203.781492 50.5087967,203.541827 50.1918207,203.062497 C49.8748446,202.583168 49.7163568,201.833249 49.7163568,200.812742 L49.7163568,190.955564 L56.0249505,190.955564 L56.0249505,185.806638 L49.7163568,185.806638 L49.7163568,177.549802 L43.5005366,178.22241 L43.5005366,185.806638 L40.7637202,185.806638 L40.7637202,190.955564 L43.5005366,190.955564 L43.5005366,201.670896 C43.5005366,204.206703 44.0919672,206.127887 45.2748285,207.434446 C46.4576898,208.741005 48.0773593,209.394284 50.1338373,209.394284 Z M69.4603995,209.394284 C71.686962,209.394284 73.6506665,208.996132 75.3515127,208.199826 C77.0523589,207.403521 78.4284985,206.340492 79.4799306,205.01074 L75.4442862,201.253415 C73.9908355,203.016111 72.1430982,203.889727 69.9010733,203.874265 C68.4166984,203.858803 67.1526603,203.456785 66.1089591,202.66821 C65.065258,201.879636 64.3578605,200.797279 63.9867668,199.42114 L80.2453115,199.42114 C80.3535473,199.034584 80.407665,198.292396 80.407665,197.194578 C80.407665,194.937091 79.9360668,192.915403 78.9928701,191.129514 C78.0496734,189.343626 76.7121899,187.944293 74.980419,186.931516 C73.2486481,185.918739 71.2617505,185.412351 69.0197257,185.412351 C67.3961906,185.412351 65.8731599,185.706134 64.450634,186.293699 C63.0281081,186.881264 61.8104567,187.696897 60.7976799,188.740598 C59.7849031,189.784299 58.9847322,191.052203 58.3971672,192.544309 C57.8096023,194.036415 57.5158196,195.648354 57.5158196,197.380124 C57.5158196,199.745847 58.0376702,201.848712 59.0813713,203.688718 C60.1250725,205.528725 61.5514641,206.939654 63.3605461,207.921506 C65.1696281,208.903358 67.2029127,209.394284 69.4603995,209.394284 Z M74.2382315,194.944822 L64.0099601,194.944822 C64.3655915,193.630531 65.0034089,192.625486 65.9234123,191.929685 C66.8434156,191.233884 67.9451002,190.885984 69.2284659,190.885984 C70.5427564,190.885984 71.6251129,191.245481 72.4755362,191.964475 C73.3259595,192.683469 73.9135245,193.676918 74.2382315,194.944822 Z M90.8743641,208.999997 L90.8743641,198.238279 C90.8743641,196.460121 91.3962147,195.006671 92.4399158,193.877927 C93.483617,192.749184 94.9332019,192.184812 96.7886707,192.184812 C97.2680002,192.184812 97.8169095,192.208005 98.4353992,192.254392 L98.4353992,185.435545 C98.3426257,185.420082 98.1802722,185.412351 97.9483386,185.412351 C96.5721994,185.412351 95.2811023,185.740924 94.0750476,186.398069 C92.868993,187.055214 91.8252918,187.994545 90.9439442,189.216062 L90.8743641,189.216062 L90.8743641,185.806638 L84.6585439,185.806638 L84.6585439,208.999997 L90.8743641,208.999997 Z M111.847655,209.394284 C114.074217,209.394284 116.037922,208.996132 117.738768,208.199826 C119.439614,207.403521 120.815754,206.340492 121.867186,205.01074 L117.831541,201.253415 C116.378091,203.016111 114.530353,203.889727 112.288329,203.874265 C110.803954,203.858803 109.539916,203.456785 108.496214,202.66821 C107.452513,201.879636 106.745116,200.797279 106.374022,199.42114 L122.632567,199.42114 C122.740803,199.034584 122.79492,198.292396 122.79492,197.194578 C122.79492,194.937091 122.323322,192.915403 121.380125,191.129514 C120.436929,189.343626 119.099445,187.944293 117.367674,186.931516 C115.635903,185.918739 113.649006,185.412351 111.406981,185.412351 C109.783446,185.412351 108.260415,185.706134 106.837889,186.293699 C105.415363,186.881264 104.197712,187.696897 103.184935,188.740598 C102.172158,189.784299 101.371988,191.052203 100.784423,192.544309 C100.196858,194.036415 99.9030749,195.648354 99.9030749,197.380124 C99.9030749,199.745847 100.424925,201.848712 101.468627,203.688718 C102.512328,205.528725 103.938719,206.939654 105.747801,207.921506 C107.556883,208.903358 109.590168,209.394284 111.847655,209.394284 Z M116.625487,194.944822 L106.397215,194.944822 C106.752847,193.630531 107.390664,192.625486 108.310668,191.929685 C109.230671,191.233884 110.332356,190.885984 111.615721,190.885984 C112.930012,190.885984 114.012368,191.245481 114.862792,191.964475 C115.713215,192.683469 116.30078,193.676918 116.625487,194.944822 Z M134.537254,209.394284 C137.459617,209.394284 139.690046,208.729408 141.228538,207.399656 C142.767031,206.069903 143.536277,204.330401 143.536277,202.18115 C143.536277,201.609047 143.489891,201.091062 143.397117,200.627195 C143.103335,199.080971 142.206525,197.843992 140.706688,196.916257 C139.840802,196.359617 138.124494,195.609698 135.557762,194.666501 C134.336245,194.202634 133.451032,193.785154 132.902122,193.41406 C132.353213,193.042966 132.078758,192.625486 132.078758,192.161619 C132.078758,191.604978 132.310692,191.175901 132.774559,190.874387 C133.238426,190.572874 133.764142,190.422117 134.351707,190.422117 C135.248517,190.422117 136.180117,190.626991 137.146507,191.036741 C138.112897,191.44649 139.029035,192.061114 139.89492,192.880613 L142.910057,188.334714 C141.595766,187.314207 140.258283,186.572019 138.897606,186.108152 C137.536928,185.644285 136.044823,185.412351 134.421287,185.412351 C132.844139,185.412351 131.425478,185.698402 130.165306,186.270505 C128.905134,186.842608 127.907819,187.658241 127.173363,188.717405 C126.438906,189.776568 126.071678,190.99422 126.071678,192.370359 C126.071678,193.097084 126.156721,193.769691 126.326805,194.388181 C126.49689,195.006671 126.748151,195.55558 127.080589,196.03491 C127.413027,196.514239 127.784121,196.947182 128.19387,197.333738 C128.60362,197.720294 129.094546,198.07206 129.666649,198.389036 C130.238752,198.706012 130.799258,198.980466 131.348167,199.2124 C131.897077,199.444333 132.519432,199.676267 133.215233,199.908201 C134.313052,200.263832 135.136416,200.557615 135.685325,200.789548 C136.234235,201.021482 136.663312,201.272743 136.972557,201.543332 C137.281802,201.813922 137.436424,202.127032 137.436424,202.482663 C137.436424,203.054766 137.181297,203.518634 136.671043,203.874265 C136.160789,204.229896 135.464989,204.407712 134.583641,204.407712 C132.233381,204.407712 130.09186,203.503171 128.15908,201.694089 L125.143944,205.984861 C127.726138,208.25781 130.857241,209.394284 134.537254,209.394284 Z M154.814744,209.394284 C156.23727,209.394284 157.396938,209.270587 158.293748,209.023191 C159.190558,208.775795 160.079637,208.412432 160.960984,207.933103 L159.360643,202.969724 C158.30921,203.510902 157.335089,203.781492 156.438279,203.781492 C155.711554,203.781492 155.189704,203.541827 154.872728,203.062497 C154.555752,202.583168 154.397264,201.833249 154.397264,200.812742 L154.397264,190.955564 L160.705857,190.955564 L160.705857,185.806638 L154.397264,185.806638 L154.397264,177.549802 L148.181443,178.22241 L148.181443,185.806638 L145.444627,185.806638 L145.444627,190.955564 L148.181443,190.955564 L148.181443,201.670896 C148.181443,204.206703 148.772874,206.127887 149.955735,207.434446 C151.138597,208.741005 152.758266,209.394284 154.814744,209.394284 Z M9.37011707,250.799997 L9.37011707,240.038278 C9.37011707,238.260121 9.89196765,236.80667 10.9356688,235.677927 C11.97937,234.549183 13.4289549,233.984812 15.2844236,233.984812 C15.7637532,233.984812 16.3126624,234.008005 16.9311521,234.054392 L16.9311521,227.235544 C16.8383787,227.220082 16.6760252,227.212351 16.4440916,227.212351 C15.0679524,227.212351 13.7768553,227.540923 12.5708006,228.198068 C11.364746,228.855213 10.3210448,229.794545 9.43969715,231.016062 L9.37011707,231.016062 L9.37011707,227.606638 L3.15429684,227.606638 L3.15429684,250.799997 L9.37011707,250.799997 Z M30.3434078,251.194284 C32.5699703,251.194284 34.5336748,250.796131 36.234521,249.999826 C37.9353672,249.203521 39.3115068,248.140492 40.3629389,246.810739 L36.3272945,243.053415 C34.8738438,244.81611 33.0261065,245.689727 30.7840816,245.674264 C29.2997067,245.658802 28.0356686,245.256784 26.9919674,244.46821 C25.9482663,243.679636 25.2408688,242.597279 24.8697751,241.22114 L41.1283198,241.22114 C41.2365556,240.834583 41.2906733,240.092396 41.2906733,238.994577 C41.2906733,236.73709 40.8190751,234.715402 39.8758784,232.929514 C38.9326817,231.143625 37.5951982,229.744292 35.8634273,228.731516 C34.1316564,227.718739 32.1447588,227.212351 29.902734,227.212351 C28.2791989,227.212351 26.7561682,227.506133 25.3336423,228.093698 C23.9111164,228.681263 22.693465,229.496897 21.6806882,230.540598 C20.6679114,231.584299 19.8677405,232.852203 19.2801755,234.344309 C18.6926106,235.836415 18.3988279,237.448353 18.3988279,239.180124 C18.3988279,241.545847 18.9206785,243.648711 19.9643796,245.488718 C21.0080808,247.328724 22.4344724,248.739654 24.2435544,249.721506 C26.0526364,250.703358 28.085921,251.194284 30.3434078,251.194284 Z M35.1212398,236.744821 L24.8929684,236.744821 C25.2485998,235.430531 25.8864172,234.425485 26.8064206,233.729685 C27.7264239,233.033884 28.8281085,232.685983 30.1114742,232.685983 C31.4257647,232.685983 32.5081212,233.04548 33.3585445,233.764475 C34.2089678,234.483469 34.7965328,235.476918 35.1212398,236.744821 Z M56.187304,251.194284 C58.4138665,251.194284 60.412361,250.807728 62.1827873,250.034616 C63.9532136,249.261504 65.3718742,248.256458 66.4387687,247.019479 L62.1711906,243.262155 C61.5681633,243.942494 60.8066481,244.503 59.8866448,244.943674 C58.9666414,245.384348 57.9345369,245.604684 56.7903313,245.604684 C54.9503249,245.604684 53.4543533,245.009388 52.3024163,243.818796 C51.1504794,242.628203 50.5745111,241.081979 50.5745111,239.180124 C50.5745111,238.25239 50.7214022,237.394235 51.0151849,236.605661 C51.3089676,235.817087 51.7225824,235.144479 52.2560296,234.587839 C52.7894769,234.031198 53.4427566,233.59439 54.2158685,233.277414 C54.9889803,232.960438 55.8316726,232.80195 56.7439446,232.80195 C58.9241204,232.80195 60.7254714,233.62918 62.1479973,235.28364 L66.3459953,231.665476 C65.2017897,230.227487 63.748339,229.125803 61.9856438,228.360422 C60.2229485,227.595041 58.3906731,227.212351 56.4888177,227.212351 C54.123095,227.212351 52.0124993,227.714874 50.1570306,228.719919 C48.3015619,229.724964 46.8558426,231.139759 45.8198725,232.964304 C44.7839023,234.788848 44.2659174,236.87625 44.2659174,239.226511 C44.2659174,241.561309 44.780037,243.64098 45.8082758,245.465524 C46.8365146,247.290069 48.2551752,248.700998 50.0642572,249.698312 C51.8733392,250.695627 53.9143548,251.194284 56.187304,251.194284 Z M73.4496573,224.336374 C74.5010894,224.336374 75.4056304,223.96528 76.1632803,223.223093 C76.9209301,222.480905 77.2997549,221.584095 77.2997549,220.532663 C77.2997549,219.496693 76.9209301,218.607614 76.1632803,217.865427 C75.4056304,217.123239 74.5010894,216.752146 73.4496573,216.752146 C72.3827628,216.752146 71.4743561,217.123239 70.7244376,217.865427 C69.9745191,218.607614 69.5995597,219.496693 69.5995597,220.532663 C69.5995597,221.228464 69.7696442,221.866281 70.1098136,222.446115 C70.449983,223.025949 70.9177155,223.485951 71.5130118,223.82612 C72.1083081,224.16629 72.7538565,224.336374 73.4496573,224.336374 Z M76.5575674,250.799997 L76.5575674,227.606638 L70.3417472,227.606638 L70.3417472,250.799997 L76.5575674,250.799997 Z M93.1009266,251.194284 C95.327489,251.194284 97.2911936,250.796131 98.9920398,249.999826 C100.692886,249.203521 102.069026,248.140492 103.120458,246.810739 L99.0848132,243.053415 C97.6313626,244.81611 95.7836252,245.689727 93.5416004,245.674264 C92.0572254,245.658802 90.7931873,245.256784 89.7494862,244.46821 C88.705785,243.679636 87.9983876,242.597279 87.6272938,241.22114 L103.885839,241.22114 C103.994074,240.834583 104.048192,240.092396 104.048192,238.994577 C104.048192,236.73709 103.576594,234.715402 102.633397,232.929514 C101.6902,231.143625 100.352717,229.744292 98.620946,228.731516 C96.8891751,227.718739 94.9022776,227.212351 92.6602527,227.212351 C91.0367176,227.212351 89.5136869,227.506133 88.091161,228.093698 C86.6686351,228.681263 85.4509837,229.496897 84.4382069,230.540598 C83.4254302,231.584299 82.6252593,232.852203 82.0376943,234.344309 C81.4501293,235.836415 81.1563466,237.448353 81.1563466,239.180124 C81.1563466,241.545847 81.6781972,243.648711 82.7218984,245.488718 C83.7655995,247.328724 85.1919911,248.739654 87.0010731,249.721506 C88.8101551,250.703358 90.8434397,251.194284 93.1009266,251.194284 Z M97.8787585,236.744821 L87.6504872,236.744821 C88.0061186,235.430531 88.6439359,234.425485 89.5639393,233.729685 C90.4839427,233.033884 91.5856272,232.685983 92.868993,232.685983 C94.1832834,232.685983 95.26564,233.04548 96.1160632,233.764475 C96.9664865,234.483469 97.5540515,235.476918 97.8787585,236.744821 Z M119.54785,250.799997 L128.66284,227.606638 L122.029539,227.606638 L116.695067,243.192575 L116.625487,243.192575 L111.175047,227.606638 L104.611327,227.606638 L113.74951,250.799997 L119.54785,250.799997 Z M141.147362,251.194284 C143.373924,251.194284 145.337629,250.796131 147.038475,249.999826 C148.739321,249.203521 150.11546,248.140492 151.166893,246.810739 L147.131248,243.053415 C145.677798,244.81611 143.83006,245.689727 141.588035,245.674264 C140.10366,245.658802 138.839622,245.256784 137.795921,244.46821 C136.75222,243.679636 136.044823,242.597279 135.673729,241.22114 L151.932273,241.22114 C152.040509,240.834583 152.094627,240.092396 152.094627,238.994577 C152.094627,236.73709 151.623029,234.715402 150.679832,232.929514 C149.736635,231.143625 148.399152,229.744292 146.667381,228.731516 C144.93561,227.718739 142.948713,227.212351 140.706688,227.212351 C139.083153,227.212351 137.560122,227.506133 136.137596,228.093698 C134.71507,228.681263 133.497419,229.496897 132.484642,230.540598 C131.471865,231.584299 130.671694,232.852203 130.084129,234.344309 C129.496564,235.836415 129.202782,237.448353 129.202782,239.180124 C129.202782,241.545847 129.724632,243.648711 130.768333,245.488718 C131.812034,247.328724 133.238426,248.739654 135.047508,249.721506 C136.85659,250.703358 138.889875,251.194284 141.147362,251.194284 Z M145.925193,236.744821 L135.696922,236.744821 C136.052554,235.430531 136.690371,234.425485 137.610374,233.729685 C138.530378,233.033884 139.632062,232.685983 140.915428,232.685983 C142.229718,232.685983 143.312075,233.04548 144.162498,233.764475 C145.012921,234.483469 145.600486,235.476918 145.925193,236.744821 Z M166.156297,251.194284 C169.202358,251.194284 171.56808,250.127389 173.253465,247.9936 L173.392625,247.9936 L173.392625,250.799997 L179.306931,250.799997 L179.306931,215.824411 L173.091111,215.824411 L173.091111,230.227487 L172.975144,230.227487 C171.227911,228.217396 168.893113,227.212351 165.97075,227.212351 C164.439988,227.212351 162.998134,227.513864 161.645188,228.116892 C160.292243,228.719919 159.132575,229.547149 158.166185,230.598581 C157.199794,231.650013 156.438279,232.925648 155.881639,234.425485 C155.324998,235.925323 155.046678,237.541126 155.046678,239.272897 C155.046678,240.277943 155.139451,241.248199 155.324998,242.183664 C155.510545,243.119129 155.777269,243.981149 156.125169,244.769723 C156.473069,245.558298 156.894415,246.292754 157.389207,246.973093 C157.883999,247.653431 158.448371,248.248727 159.082322,248.758981 C159.716274,249.269235 160.400478,249.709909 161.134935,250.081003 C161.869391,250.452096 162.661831,250.730417 163.512254,250.915964 C164.362677,251.101511 165.244025,251.194284 166.156297,251.194284 Z M167.292771,245.627878 C165.545538,245.627878 164.119147,245.040313 163.013597,243.865182 C161.908046,242.690052 161.355271,241.167022 161.355271,239.296091 C161.355271,237.347849 161.923509,235.778431 163.059983,234.587839 C164.196458,233.397247 165.615118,232.80195 167.315965,232.80195 C169.07866,232.80195 170.535976,233.42044 171.687913,234.657419 C172.83985,235.894398 173.415818,237.440622 173.415818,239.296091 C173.415818,240.53307 173.141364,241.63862 172.592454,242.612741 C172.043544,243.586862 171.305222,244.332915 170.377488,244.8509 C169.449754,245.368885 168.421515,245.627878 167.292771,245.627878 Z M188.150095,251.194284 C189.201527,251.194284 190.102203,250.82319 190.852122,250.081003 C191.60204,249.338815 191.977,248.449737 191.977,247.413766 C191.977,246.377796 191.60204,245.484852 190.852122,244.734933 C190.102203,243.985015 189.201527,243.610056 188.150095,243.610056 C187.067738,243.610056 186.151601,243.981149 185.401682,244.723337 C184.651764,245.465524 184.276804,246.362334 184.276804,247.413766 C184.276804,248.465199 184.651764,249.358143 185.401682,250.092599 C186.151601,250.827056 187.067738,251.194284 188.150095,251.194284 Z" id="path-2"></path>
    </defs>
    <g id="Page-1" stroke="none" stroke-width="1" fill="none" fill-rule="evenodd">
        <g id="Token---1440" transform="translate(-412.000000, -1893.000000)" fill-rule="nonzero">
            <g id="Group-15" transform="translate(340.000000, 1027.000000)">
                <g id="Group-14" transform="translate(0.000000, 343.000000)">
                    <g id="Group-13-Copy" transform="translate(0.000000, 43.000000)">
                        <g id="Group-11">
                            <g id="Group-5">
                                <g id="Group-22" transform="translate(70.000000, 348.000000)">
                                    <g id="Higherinterestrecieved.">
                                        <use fill="#000000" xlink:href="#path-2"></use>
                                        <use fill="url(#linearGradient-1)" xlink:href="#path-2"></use>
                                    </g>
                                </g>
                            </g>
                        </g>
                    </g>
                </g>
            </g>
        </g>
    </g>
</svg>