<?xml version="1.0" encoding="UTF-8"?>
<svg width="209px" height="87px" viewBox="0 0 209 87" version="1.1" xmlns="http://www.w3.org/2000/svg" xmlns:xlink="http://www.w3.org/1999/xlink">
    <!-- Generator: Sketch 64 (93537) - https://sketch.com -->
    <title>tomarketbuyInxt</title>
    <desc>Created with Sketch.</desc>
    <defs>
        <linearGradient x1="81.6089685%" y1="38.8520167%" x2="8.72124498%" y2="64.2882967%" id="linearGradient-1">
            <stop stop-color="#FF1594" offset="0%"></stop>
            <stop stop-color="#FF5EB6" offset="99.9656883%"></stop>
        </linearGradient>
        <path d="M10.3674315,165.694285 C11.7899574,165.694285 12.9496254,165.570587 13.8464354,165.323191 C14.7432454,165.075795 15.632324,164.712433 16.5136717,164.233103 L14.9133299,159.269725 C13.8618977,159.810903 12.8877766,160.081492 11.9909666,160.081492 C11.2642415,160.081492 10.7423909,159.841828 10.4254149,159.362498 C10.1084389,158.883168 9.94995105,158.13325 9.94995105,157.112742 L9.94995105,147.255565 L16.2585447,147.255565 L16.2585447,142.106639 L9.94995105,142.106639 L9.94995105,133.849803 L3.73413081,134.52241 L3.73413081,142.106639 L0.997314441,142.106639 L0.997314441,147.255565 L3.73413081,147.255565 L3.73413081,157.970896 C3.73413081,160.506704 4.32556147,162.427887 5.50842278,163.734446 C6.6912841,165.041005 8.31095355,165.694285 10.3674315,165.694285 Z M30.1222094,165.694285 C32.5033944,165.694285 34.6294521,165.195628 36.5003832,164.198313 C38.3713143,163.200999 39.8324959,161.79007 40.883928,159.965525 C41.9353602,158.140981 42.4610765,156.06131 42.4610765,153.726512 C42.4610765,151.963816 42.1556971,150.336416 41.5449388,148.84431 C40.9341804,147.352204 40.0876228,146.0843 39.005266,145.040599 C37.9229091,143.996898 36.61635,143.181264 35.0855883,142.593699 C33.5548266,142.006134 31.9003671,141.712352 30.1222094,141.712352 C28.3131274,141.712352 26.6354746,142.013865 25.0892505,142.616893 C23.5430264,143.21992 22.2364673,144.051015 21.1695728,145.110179 C20.1026783,146.169342 19.2715831,147.441111 18.6762867,148.925486 C18.0809904,150.409861 17.7833424,152.010203 17.7833424,153.726512 C17.7833424,155.102651 17.9727549,156.401479 18.3515797,157.622996 C18.7304044,158.844513 19.2831797,159.946198 20.0099049,160.92805 C20.73663,161.909902 21.59865,162.756459 22.5959644,163.467723 C23.5932788,164.178986 24.7336191,164.727895 26.0169849,165.114451 C27.3003506,165.501007 28.6687588,165.694285 30.1222094,165.694285 Z M30.1222094,160.127879 C28.3595141,160.127879 26.9099292,159.513255 25.7734546,158.284007 C24.63698,157.054759 24.0687427,155.535594 24.0687427,153.726512 C24.0687427,151.871043 24.629249,150.336416 25.7502612,149.12263 C26.8712735,147.908844 28.3285898,147.301951 30.1222094,147.301951 C31.8539804,147.301951 33.2919686,147.901113 34.4361742,149.099437 C35.5803798,150.29776 36.1524828,151.840119 36.1524828,153.726512 C36.1524828,155.58198 35.5726488,157.112742 34.4129809,158.318797 C33.2533129,159.524852 31.8230556,160.127879 30.1222094,160.127879 Z M80.0223901,165.323191 L80.0223901,153.703318 C80.0223901,152.358104 80.234996,151.19457 80.6602075,150.212718 C81.085419,149.230866 81.6536563,148.500275 82.3649194,148.020945 C83.0761825,147.541616 83.8724877,147.301951 84.7538354,147.301951 C87.4597274,147.301951 88.8126732,149.312043 88.8126732,153.332225 L88.8126732,165.323191 L95.0284935,165.323191 L95.0284935,151.824656 C95.0284935,148.392039 94.313365,145.848501 92.8831077,144.194041 C91.4528505,142.539582 89.4388939,141.712352 86.8412377,141.712352 C85.1713158,141.712352 83.6444198,142.033193 82.2605493,142.674876 C80.8766787,143.316559 79.7131455,144.240428 78.7699487,145.446483 L78.7003687,145.446483 C77.3396915,142.957062 75.0435489,141.712352 71.811941,141.712352 C70.5131129,141.712352 69.2606715,142.01 68.0546168,142.605296 C66.8485622,143.200592 65.7893987,144.054881 64.8771266,145.168162 L64.8075466,145.168162 L64.8075466,142.106639 L58.5917263,142.106639 L58.5917263,165.299998 L64.8075466,165.299998 L64.8075466,153.703318 C64.8075466,152.358104 65.0240178,151.19457 65.4569606,150.212718 C65.8899034,149.230866 66.4697374,148.500275 67.1964626,148.020945 C67.9231877,147.541616 68.7581486,147.301951 69.7013453,147.301951 C72.4381617,147.301951 73.8065699,149.312043 73.8065699,153.332225 L73.8065699,165.323191 L80.0223901,165.323191 Z M110.098213,165.694285 C113.066963,165.694285 115.378568,164.627391 117.033027,162.493601 L117.148994,162.493601 L117.148994,165.299998 L123.063301,165.299998 L123.063301,142.106639 L116.84748,142.106639 L116.84748,144.727488 L116.754707,144.727488 C115.022936,142.717397 112.742256,141.712352 109.912666,141.712352 C108.381904,141.712352 106.94005,142.013865 105.587104,142.616893 C104.234159,143.21992 103.074491,144.04715 102.108101,145.098582 C101.141711,146.150014 100.380195,147.425649 99.8235548,148.925486 C99.2669141,150.425324 98.9885938,152.041128 98.9885938,153.772898 C98.9885938,155.535594 99.2669141,157.162995 99.8235548,158.655101 C100.380195,160.147207 101.149442,161.407379 102.131294,162.435618 C103.113146,163.463857 104.288276,164.264028 105.656685,164.836131 C107.025093,165.408234 108.505602,165.694285 110.098213,165.694285 Z M111.234687,160.127879 C109.487455,160.127879 108.061063,159.540314 106.955513,158.365184 C105.849962,157.190053 105.297188,155.667023 105.297188,153.796092 C105.297188,151.84785 105.865425,150.278432 107.001899,149.08784 C108.138374,147.897248 109.557035,147.301951 111.257881,147.301951 C112.943265,147.301951 114.338732,147.920441 115.444282,149.15742 C116.549832,150.394399 117.102607,151.940623 117.102607,153.796092 C117.102607,155.667023 116.538236,157.190053 115.409492,158.365184 C114.280748,159.540314 112.889147,160.127879 111.234687,160.127879 Z M134.700403,165.299998 L134.700403,154.538279 C134.700403,152.760122 135.222253,151.306671 136.265955,150.177928 C137.309656,149.049184 138.759241,148.484813 140.614709,148.484813 C141.094039,148.484813 141.642948,148.508006 142.261438,148.554393 L142.261438,141.735545 C142.168664,141.720083 142.006311,141.712352 141.774377,141.712352 C140.398238,141.712352 139.107141,142.040924 137.901086,142.698069 C136.695032,143.355215 135.651331,144.294546 134.769983,145.516063 L134.700403,145.516063 L134.700403,142.106639 L128.484583,142.106639 L128.484583,165.299998 L134.700403,165.299998 Z M151.811138,165.299998 L151.811138,159.756785 L155.081401,156.069041 L155.150981,156.069041 L160.671001,165.299998 L167.605815,165.299998 L159.279399,151.337596 L167.466655,142.106639 L160.18394,142.106639 L151.903911,151.453563 L151.811138,151.453563 L151.811138,130.324412 L145.595318,130.324412 L145.595318,165.299998 L151.811138,165.299998 Z M179.938718,165.694285 C182.165281,165.694285 184.128985,165.296132 185.829832,164.499827 C187.530678,163.703522 188.906817,162.640493 189.958249,161.31074 L185.922605,157.553416 C184.469154,159.316111 182.621417,160.189728 180.379392,160.174266 C178.895017,160.158803 177.630979,159.756785 176.587278,158.968211 C175.543577,158.179637 174.836179,157.09728 174.465086,155.721141 L190.72363,155.721141 C190.831866,155.334585 190.885984,154.592397 190.885984,153.494578 C190.885984,151.237091 190.414386,149.215403 189.471189,147.429515 C188.527992,145.643626 187.190509,144.244294 185.458738,143.231517 C183.726967,142.21874 181.740069,141.712352 179.498045,141.712352 C177.874509,141.712352 176.351479,142.006134 174.928953,142.593699 C173.506427,143.181264 172.288776,143.996898 171.275999,145.040599 C170.263222,146.0843 169.463051,147.352204 168.875486,148.84431 C168.287921,150.336416 167.994138,151.948354 167.994138,153.680125 C167.994138,156.045848 168.515989,158.148712 169.55969,159.988719 C170.603391,161.828725 172.029783,163.239655 173.838865,164.221507 C175.647947,165.203359 177.681231,165.694285 179.938718,165.694285 Z M184.71655,151.244822 L174.488279,151.244822 C174.84391,149.930532 175.481728,148.925486 176.401731,148.229686 C177.321734,147.533885 178.423419,147.185984 179.706785,147.185984 C181.021075,147.185984 182.103432,147.545482 182.953855,148.264476 C183.804278,148.98347 184.391843,149.976919 184.71655,151.244822 Z M202.383926,165.694285 C203.806452,165.694285 204.96612,165.570587 205.86293,165.323191 C206.75974,165.075795 207.648818,164.712433 208.530166,164.233103 L206.929824,159.269725 C205.878392,159.810903 204.904271,160.081492 204.007461,160.081492 C203.280736,160.081492 202.758885,159.841828 202.441909,159.362498 C202.124933,158.883168 201.966445,158.13325 201.966445,157.112742 L201.966445,147.255565 L208.275039,147.255565 L208.275039,142.106639 L201.966445,142.106639 L201.966445,133.849803 L195.750625,134.52241 L195.750625,142.106639 L193.013809,142.106639 L193.013809,147.255565 L195.750625,147.255565 L195.750625,157.970896 C195.750625,160.506704 196.342056,162.427887 197.524917,163.734446 C198.707778,165.041005 200.327448,165.694285 202.383926,165.694285 Z M16.3049314,207.494285 C17.8975422,207.494285 19.3780515,207.208233 20.7464597,206.63613 C22.1148679,206.064027 23.2899982,205.263856 24.2718503,204.235618 C25.2537024,203.207379 26.0229489,201.947206 26.5795895,200.4551 C27.1362301,198.962994 27.4145504,197.335593 27.4145504,195.572898 C27.4145504,193.841127 27.1362301,192.225323 26.5795895,190.725486 C26.0229489,189.225649 25.2614337,187.950014 24.2950436,186.898582 C23.3286536,185.847149 22.1689856,185.01992 20.8160398,184.416892 C19.4630939,183.813865 18.02124,183.512351 16.4904783,183.512351 C13.5681151,183.512351 11.2333168,184.517397 9.48608387,186.527488 L9.37011707,186.527488 L9.37011707,172.124412 L3.15429684,172.124412 L3.15429684,207.099997 L9.09179676,207.099997 L9.09179676,204.293601 L9.20776356,204.293601 C10.8931478,206.42739 13.2588704,207.494285 16.3049314,207.494285 Z M15.1684568,201.927878 C13.4366859,201.927878 11.987101,201.340313 10.819702,200.165183 C9.65230306,198.990053 9.0686034,197.467022 9.0686034,195.596091 C9.0686034,193.72516 9.64070638,192.175071 10.784912,190.945823 C11.9291176,189.716575 13.3902992,189.101951 15.1684568,189.101951 C16.8693031,189.101951 18.284098,189.697247 19.4128416,190.887839 C20.5415851,192.078432 21.1059568,193.647849 21.1059568,195.596091 C21.1059568,197.467022 20.5531818,198.990053 19.4476316,200.165183 C18.3420814,201.340313 16.9156898,201.927878 15.1684568,201.927878 Z M39.909807,207.494285 C41.2395594,207.494285 42.4958665,207.21983 43.6787278,206.67092 C44.8615891,206.122011 45.9014246,205.32184 46.7982346,204.270408 L46.891008,204.270408 L46.891008,207.099997 L53.1068283,207.099997 L53.1068283,183.906638 L46.891008,183.906638 L46.891008,195.155417 C46.891008,197.304669 46.3962165,198.966859 45.4066331,200.14199 C44.4170496,201.31712 43.1955329,201.904685 41.7420823,201.904685 C40.2577073,201.904685 39.1946785,201.483339 38.5529955,200.640647 C37.9113124,199.797955 37.5904711,198.332908 37.5904711,196.245505 L37.5904711,183.906638 L31.3746508,183.906638 L31.3746508,197.86904 C31.3746508,199.600811 31.5795254,201.092917 31.9892748,202.345359 C32.3990243,203.5978 32.9943203,204.595115 33.7751635,205.337302 C34.5560067,206.07949 35.448951,206.624534 36.4539965,206.972434 C37.4590419,207.320334 38.6109789,207.494285 39.909807,207.494285 Z M67.6662938,216.493308 L80.1675143,183.906638 L73.7197605,183.906638 L68.4084813,198.263328 L68.3389012,198.263328 L62.6565282,183.906638 L56.1623877,183.906638 L65.4397313,205.662009 L61.3113134,216.493308 L67.6662938,216.493308 Z M102.769111,207.099997 L102.769111,173.35366 L96.0430372,173.35366 L96.0430372,207.099997 L102.769111,207.099997 Z M131.314172,207.123191 L131.314172,193.346335 C131.314172,191.599103 131.113163,190.083803 130.711145,188.800437 C130.309127,187.517071 129.725427,186.496564 128.960046,185.738914 C128.194666,184.981264 127.313318,184.420758 126.316003,184.057395 C125.318689,183.694032 124.178349,183.512351 122.894983,183.512351 C121.456995,183.512351 120.092452,183.802268 118.801355,184.382102 C117.510258,184.961936 116.393111,185.800763 115.449915,186.898582 L115.380335,186.898582 L115.380335,183.906638 L109.164514,183.906638 L109.164514,207.099997 L115.380335,207.099997 L115.380335,195.433738 C115.380335,193.408185 115.855799,191.846498 116.806726,190.748679 C117.757654,189.65086 119.037154,189.101951 120.645227,189.101951 C122.160527,189.101951 123.281539,189.534894 124.008264,190.400779 C124.734989,191.266664 125.098352,192.766501 125.098352,194.900291 L125.098352,207.123191 L131.314172,207.123191 Z M141.211773,207.099997 L145.920025,200.443503 L146.035991,200.443503 L150.72105,207.099997 L157.516704,207.099997 L149.468609,195.224998 L157.377544,183.906638 L150.349956,183.906638 L146.012798,190.539939 L145.896831,190.539939 L141.60606,183.906638 L134.532085,183.906638 L142.441021,195.248191 L134.462505,207.099997 L141.211773,207.099997 Z M168.226072,207.494285 C169.648598,207.494285 170.808266,207.370587 171.705076,207.123191 C172.601886,206.875795 173.490965,206.512432 174.372312,206.033103 L172.77197,201.069724 C171.720538,201.610902 170.746417,201.881492 169.849607,201.881492 C169.122882,201.881492 168.601031,201.641827 168.284055,201.162497 C167.967079,200.683168 167.808592,199.933249 167.808592,198.912742 L167.808592,189.055564 L174.117185,189.055564 L174.117185,183.906638 L167.808592,183.906638 L167.808592,175.649802 L161.592771,176.32241 L161.592771,183.906638 L158.855955,183.906638 L158.855955,189.055564 L161.592771,189.055564 L161.592771,199.770896 C161.592771,202.306703 162.184202,204.227887 163.367063,205.534446 C164.549925,206.841005 166.169594,207.494285 168.226072,207.494285 Z M180.814102,207.494285 C181.865534,207.494285 182.76621,207.123191 183.516128,206.381003 C184.266047,205.638816 184.641006,204.749737 184.641006,203.713767 C184.641006,202.677797 184.266047,201.784852 183.516128,201.034934 C182.76621,200.285016 181.865534,199.910056 180.814102,199.910056 C179.731745,199.910056 178.815607,200.28115 178.065689,201.023337 C177.31577,201.765525 176.940811,202.662335 176.940811,203.713767 C176.940811,204.765199 177.31577,205.658143 178.065689,206.3926 C178.815607,207.127056 179.731745,207.494285 180.814102,207.494285 Z" id="path-2"></path>
    </defs>
    <g id="Page-1" stroke="none" stroke-width="1" fill="none" fill-rule="evenodd">
        <g id="Token---1440" transform="translate(-409.000000, -1204.000000)" fill-rule="nonzero">
            <g id="Group-15" transform="translate(340.000000, 1027.000000)">
                <g id="Group-14">
                    <g id="Group-13">
                        <g id="Group-11">
                            <g id="Group-5">
                                <g id="Group-16" transform="translate(69.000000, 47.000000)">
                                    <g id="tomarketbuyInxt.">
                                        <use fill="#FFFFFF" xlink:href="#path-2"></use>
                                        <use fill="url(#linearGradient-1)" xlink:href="#path-2"></use>
                                    </g>
                                </g>
                            </g>
                        </g>
                    </g>
                </g>
            </g>
        </g>
    </g>
</svg>