<svg width="497" height="520" viewBox="0 0 497 520" fill="none" xmlns="http://www.w3.org/2000/svg">
<g clip-path="url(#clip0_6432_44649)">
<rect x="0.034668" width="496" height="520" rx="24" fill="#0066FF"/>
<path d="M437.392 77.963C437.386 75.4306 437.418 72.8949 437.495 70.3529C438.228 45.7201 443.039 21.1833 441.765 -3.39182C439.723 -42.7774 418.525 -66.962 386.312 -79.9347C352.118 -93.7046 313.81 -87.9354 278.543 -76.858C263.901 -72.2606 249.208 -66.629 236.916 -56.5857C218.916 -41.8778 207.811 -19.2748 193.902 0.161909C156.392 52.5842 89.229 44.5387 38.0879 68.4768C8.52553 82.3139 -16.6033 106.06 -38.198 132.508C-51.9596 149.361 -64.6745 167.805 -71.9218 189.038C-78.865 209.374 -80.4944 231.449 -79.8286 253.075C-78.6377 291.731 -70.0555 330.492 -51.6491 363.071C-24.4844 411.146 17.6167 422.412 58.7767 448.547C102.616 476.381 152.893 491.252 203.413 494.383C259.397 497.857 318.327 487.106 364.192 450.516C383.412 435.183 411.21 408.678 418.656 383.808C435.616 327.15 452.783 268.99 450.891 209.579C449.483 165.369 437.508 122.109 437.392 77.963Z" fill="#005EEB"/>
<g clip-path="url(#clip1_6432_44649)">
<path d="M511.035 546.931C511.035 546.931 481.271 545.968 451.943 547.372C421.479 548.862 391.454 552.888 395.743 563.408C396.705 565.774 396.879 568.048 396.357 570.327C390.231 598.451 279.141 619.476 254.628 602.215C236.333 589.334 185.91 605.893 165.251 614.83C125.908 351.249 124.807 81.7942 159.647 63.0486C194.487 44.385 291.044 68.0423 291.044 68.0423C291.044 68.0423 339.977 81.0106 359.936 214.97C379.981 348.842 511.03 546.931 511.03 546.931H511.035Z" fill="#91BDFF"/>
<path d="M395.743 563.403C396.705 565.769 396.879 568.043 396.357 570.322C366.245 478.412 295.337 215.841 321.073 287.422C345.76 356.458 423.234 496.287 451.943 547.366C421.479 548.857 391.454 552.883 395.743 563.403Z" fill="#78A9FF"/>
<path d="M156.009 132.74C127.381 167.783 122.131 176.285 95.3459 178.124C104.363 183.82 109.7 191.528 113.38 199.851H113.467C121.348 217.111 122.484 237.26 136.23 248.564L119.772 264.774L115.57 268.979C115.57 268.979 114.956 268.451 113.907 267.488C106.727 260.83 78.192 233.931 61.2071 209.223C51.228 194.857 45.1893 181.274 49.3908 172.777C56.2175 148.07 73.7296 97.3439 118.282 82.1835C147.519 50.3826 176.146 67.4636 186.299 80.6931C199.866 98.3887 186.212 136.238 156.009 132.735V132.74Z" fill="#0066FF"/>
<path d="M136.229 248.564L119.772 264.774L113.907 267.488C107.167 261.178 81.4314 236.999 64.2724 213.515C63.2233 212.112 62.1691 210.627 61.207 209.223C69.697 209.136 97.009 208.435 113.38 199.851H113.467C114.168 201.341 114.782 202.826 115.304 204.317C121.609 220.44 123.62 238.223 136.224 248.564H136.229Z" fill="#0066FF"/>
<path d="M115.304 204.317C97.183 215.359 76.4367 215.006 64.2673 213.515C63.2182 212.112 62.164 210.627 61.2019 209.223C69.6918 209.136 97.0039 208.435 113.375 199.851H113.462C114.163 201.341 114.777 202.826 115.299 204.317H115.304Z" fill="#0066FF"/>
<path d="M123.891 233.608C123.891 233.608 142.642 235.349 148.317 240.292C153.061 244.42 150.164 249.573 150.164 249.573C160.256 255.253 150.164 277.281 132.545 282.715C114.925 288.155 103.38 254.935 103.38 254.935C103.38 254.935 106.067 234.791 123.891 233.608V233.608Z" fill="#C9DCFD"/>
<path d="M265.753 263.862C276.044 291.581 319.845 418.57 307.343 509.993C324.543 570.793 319.144 622.293 334.65 711.083L289.503 713.465C271.152 605.124 250.958 625.801 245.114 518.511C207.915 434.386 188.622 354.691 178.72 272.641C169.094 210.786 244.971 178.303 265.753 263.862V263.862Z" fill="#0166FF"/>
<path d="M289.969 718.08C289.969 718.08 286.592 685.838 265.349 624.249C258.752 605.324 255.18 592.796 253.323 585.088C251.46 577.288 251.23 574.312 251.23 574.312C262.427 561.344 276.638 541.809 289.258 518.326C303.075 539.966 319.512 561.61 319.512 561.61C319.512 561.61 319.932 566.691 320.679 575.014C324.011 609.883 332.966 702.054 338.365 721.588C345.038 745.768 303.06 759.525 289.964 718.085L289.969 718.08Z" fill="#0166FF"/>
<path d="M320.684 575.008C313.469 566.947 300.491 551.792 289.631 535.233C284.708 553.108 264.034 574.747 253.323 585.088C251.46 577.288 251.23 574.312 251.23 574.312C262.427 561.344 276.638 541.809 289.258 518.326C303.075 539.966 319.512 561.61 319.512 561.61C319.512 561.61 319.932 566.691 320.679 575.014L320.684 575.008Z" fill="#66B8FF"/>
<path d="M212.357 275.612C209.169 396.336 187.665 498.879 187.665 498.879C196.769 581.242 176.069 596.597 166.714 714.428L125.907 713.885C125.805 666.058 123.031 606.83 120.13 510.935C94.44 410.713 106.814 336.898 116.394 276.989C126.614 208.937 218.882 186.416 212.357 275.612V275.612Z" fill="#0166FF"/>
<path d="M119.439 269.906C119.439 290.782 267.57 284.738 267.57 263.862C267.073 229.418 271.822 201.075 278.296 177.643C322.706 134.097 320.06 100.294 308.807 81.9581C289.401 50.3364 191.365 52.129 156.07 65.7221C142.053 71.1204 123.231 93.1081 117.213 128.161C114.117 146.185 127.376 167.169 129.474 181.74C134.321 215.457 120.427 265.066 119.444 269.906H119.439Z" fill="#0166FF"/>
<path d="M211.779 80.063C219.087 74.255 248.241 65.2868 255.999 58.9358L254.249 8.28171L225.581 5.49036C217.265 6.18179 208.954 8.17415 201.805 11.0014L195.352 44.3542L193.929 51.5861C190.685 58.7053 197.117 67.2894 211.779 80.0682V80.063Z" fill="#C9DCFD"/>
<path d="M244.603 19.7493C240.104 26.6739 221.277 44.4106 195.352 44.3491L200.935 15.4932L244.603 19.7493Z" fill="#A6C8FF"/>
<path d="M181.156 -46.9769C178.909 -36.9997 174.278 -15.0888 175.035 -4.999C176.187 10.3611 190.526 27.4012 203.028 29.6343C217.5 31.1094 237.008 26.7968 247.601 17.6904C253.497 10.776 264.909 -5.62897 270.159 -19.9852C281.111 -49.9321 259.965 -76.1965 233.145 -82.2606C206.319 -88.3248 188.172 -78.0864 181.161 -46.9717L181.156 -46.9769Z" fill="#C9DCFD"/>
<path d="M268.723 2.36784C272.987 -2.76909 273.21 -9.62233 269.221 -12.9393C265.231 -16.2563 258.541 -14.7809 254.277 -9.64401C250.012 -4.50708 249.789 2.34617 253.778 5.66316C257.768 8.98014 264.458 7.50477 268.723 2.36784Z" fill="#C9DCFD"/>
<path d="M195.567 41.4297C200.464 50.1879 250.861 45.6346 255.411 38.2747L258.21 66.2958L211.313 92.9186L186.816 65.9475L195.567 41.4297Z" fill="#C9DCFD"/>
<path d="M117.592 276.989C156.234 293.671 245.508 289.999 272.191 277.22L279.013 299.837C220.965 313.533 165.43 313.917 112.709 299.407L117.592 276.984V276.989Z" fill="#91BDFF"/>
<path d="M376.173 223.948C350.611 251.37 296.688 282.649 296.688 282.649L280.144 258.817C297.303 249.352 306.755 224.824 323.125 207.999C328.729 202.217 335.121 197.397 342.823 194.242C316.734 187.497 303.602 181.013 281.894 141.324C251.516 139.219 244.951 99.4488 261.495 84.6367C273.926 73.5123 305.265 61.8603 328.202 98.4808C369.173 121.524 386.68 171.809 388.865 197.397C390.876 204.67 385.364 214.043 376.173 223.943V223.948Z" fill="#0066FF"/>
<path d="M376.173 223.948C374.597 225.613 372.934 227.365 371.184 229.029C344.22 255.14 296.688 282.649 296.688 282.649L280.144 258.817C294.938 250.669 303.955 231.395 316.647 215.446C318.658 212.819 320.848 210.366 323.125 207.999C329.517 211.764 348.6 221.838 376.173 223.943V223.948Z" fill="#0066FF"/>
<path d="M376.173 223.948C374.597 225.613 372.934 227.365 371.184 229.029C348.073 227.892 326.365 219.569 316.647 215.446C318.658 212.819 320.848 210.366 323.125 207.999C329.517 211.764 348.6 221.838 376.173 223.943V223.948Z" fill="#0066FF"/>
<path d="M230.558 126.283L230.573 126.149L230.558 126.283Z" fill="#00288C"/>
<path d="M230.558 126.283L230.573 126.149L230.558 126.283Z" fill="#00288C"/>
<path d="M184.285 119.64C184.285 119.64 184.301 119.521 184.301 119.506L184.285 119.64Z" fill="#00288C"/>
<path d="M184.285 119.64C184.285 119.64 184.301 119.521 184.301 119.506L184.285 119.64Z" fill="#00288C"/>
<path d="M209.039 108.873C213.645 116.125 221.602 122.686 230.527 126.307C230.445 126.994 230 130.799 227.938 148.341C225.19 171.742 203.875 180.209 200.569 181.504C197.76 179.517 178.968 165.11 181.716 141.703C183.779 124.161 184.224 120.356 184.306 119.67C193.773 118.691 202.908 114.584 209.034 108.873H209.039Z" fill="#00288C"/>
<path d="M206.608 121.303C206.608 121.303 206.582 121.324 206.567 121.334C202.12 124.853 196.25 127.291 189.991 128.192L188.236 143.158C187.433 150.006 189.167 156.541 193.389 162.585C196.045 166.385 198.988 168.972 200.62 170.257C200.692 170.314 200.769 170.375 200.835 170.426C202.647 169.694 206.25 168.004 209.847 164.946C215.328 160.295 218.511 154.467 219.315 147.619L221.07 132.653C215.216 130 210.088 125.974 206.598 121.298L206.608 121.303Z" fill="#91BDFF"/>
<path d="M189.431 58.4646C191.944 64.9282 200.326 70.6288 209.783 76.1756C228.989 73.0309 243.722 67.0794 258.138 58.6387C272.319 58.5722 282.518 64.0319 293.014 68.0628L209.282 81.702L160.097 63.1203C166.638 60.7387 176.003 59.1253 189.426 58.4646H189.431Z" fill="#91BDFF"/>
</g>
</g>
<defs>
<clipPath id="clip0_6432_44649">
<rect x="0.034668" width="496" height="520" rx="24" fill="white"/>
</clipPath>
<clipPath id="clip1_6432_44649">
<rect width="463" height="879" fill="white" transform="translate(48.0347 -110)"/>
</clipPath>
</defs>
</svg>
