<svg width="112" height="17" viewBox="0 0 112 17" fill="none" xmlns="http://www.w3.org/2000/svg">
<path d="M23.8725 2.64645e-06V16.65H25.9538V3.81564L36.3601 16.65H38.4413V2.64645e-06H36.3601V13.1813L25.6069 2.64645e-06H23.8725Z" fill="#182D42"/>
<path d="M16.935 16.65H19.0163L12.0788 2.64645e-06H10.6912L9.98058 1.6244L8.95621 3.9658L3.40686 16.65H5.48811L9.95545 6.40144L10.986 4.03732L11.385 3.12188L16.935 16.65Z" fill="#182D42"/>
<path d="M14.16 16.65H16.2413L11.1931 4.53436L10.1594 6.89847L14.16 16.65Z" fill="#182D42"/>
<path d="M7.91624 2.64645e-06H9.30375L9.77348 1.12736L8.7523 3.46876L8.60999 3.12188L2.71311 16.65H0.631851L7.91624 2.64645e-06Z" fill="#182D42"/>
<path d="M58.2132 9.36565H60.2945V14.5688C58.2132 17.1704 56.2266 16.9317 53.357 16.9969C46.246 17.1585 44.6851 10.9266 44.6851 8.49846C44.6851 7.11095 45.2054 2.64645e-06 53.7038 2.64645e-06C56.4788 2.64645e-06 57.6929 0.346876 59.2539 1.56094L58.0398 2.94844C56.3054 1.90782 55.5112 1.73438 53.7038 1.73438C47.6335 1.73438 46.7663 7.45783 46.7663 8.49846C46.7663 11.1 48.6741 15.0891 53.357 15.2625C56.4767 15.3781 58.2132 13.875 58.2132 13.875V9.36565Z" fill="#182D42"/>
<path d="M66.1914 16.65V0H77.6383V1.73438H68.2726V7.28439H76.5976V9.01877H68.2726V14.9157H77.9851V16.65H66.1914Z" fill="#182D42"/>
<path d="M86.3102 0H84.2289V16.65H96.0227V14.9157H86.3102V0Z" fill="#182D42"/>
<path d="M105.388 0C99.8383 0 99.1446 2.94844 99.1446 4.50939C99.1446 11.4469 109.551 7.63127 109.551 12.4875C109.551 13.5282 108.857 15.2625 105.388 15.2625C103.581 15.2625 101.573 14.2219 99.8383 13.1813L98.7977 14.5688C100.706 15.7828 103.307 16.9969 105.735 16.9969C110.071 16.9969 111.285 14.5688 111.285 12.4875C111.285 5.55001 100.879 9.01877 100.879 4.50939C100.879 3.46876 101.92 1.73438 105.388 1.73438C107.196 1.73438 107.99 2.25469 109.724 3.29532L110.938 1.90781C109.377 0.693749 108.163 0 105.388 0Z" fill="#182D42"/>
</svg>
