<svg width="132" height="24" viewBox="0 0 132 24" fill="none" xmlns="http://www.w3.org/2000/svg">
<path d="M6.96252 1.64952C6.96252 0.916397 6.54745 0 4.67292 0H1.86114L1.0176 3.80135H3.99006C6.31313 3.78099 6.96252 2.67452 6.96252 1.64952Z" fill="black"/>
<path d="M14.628 1.64952C14.628 0.916397 14.1794 0 12.3317 0H9.49313L8.67637 3.80135H11.6354C13.9786 3.78099 14.628 2.67452 14.628 1.64952Z" fill="black"/>
<path d="M5.94492 7.33797C5.94492 6.61164 5.50307 5.68845 3.65532 5.68845H0.810062L0 9.4898H2.95238C5.28214 9.4898 5.94492 8.36976 5.94492 7.33797Z" fill="black"/>
<path d="M13.6104 7.33797C13.6104 6.61164 13.1685 5.68845 11.3208 5.68845H8.47553L7.66547 9.4898H10.6379C12.9476 9.4898 13.6104 8.36976 13.6104 7.33797Z" fill="black"/>
<path d="M21.624 5.03679C21.624 4.30367 21.1821 3.38728 19.3344 3.38728H16.4891L15.6791 7.18863H18.6314C20.9612 7.16826 21.624 6.06859 21.624 5.03679Z" fill="black"/>
<path d="M20.5127 10.9696C20.5127 10.2433 20.0708 9.32689 18.2231 9.32689H15.3845L14.5811 13.1215H17.5268C19.8499 13.1215 20.5127 12.0014 20.5127 10.9696Z" fill="black"/>
<path d="M12.4991 13.2912C12.4991 12.5648 12.0572 11.6484 10.2095 11.6484H7.3709L6.54745 15.443H9.50652C11.8363 15.4294 12.4991 14.323 12.4991 13.2912Z" fill="black"/>
<path d="M63.5196 14.418C63.2662 14.9782 62.8293 15.4322 62.2832 15.7027C61.7371 15.9733 61.1154 16.0438 60.5238 15.9022C59.9322 15.7607 59.4072 15.4158 59.038 14.9262C58.6688 14.4366 58.4782 13.8325 58.4986 13.2165C58.4986 11.2683 59.7906 9.53053 61.6919 9.53053C62.2668 9.47733 62.8416 9.63219 63.3147 9.96767C63.7877 10.3031 64.1283 10.7976 64.2761 11.3633H67.2887C67.4695 10.2229 66.5657 6.71346 61.8058 6.71346C60.963 6.71575 60.1292 6.88948 59.3539 7.22436C58.5785 7.55924 57.8773 8.04847 57.2917 8.66307C56.7062 9.27767 56.2482 10.0052 55.9449 10.8024C55.6416 11.5997 55.4992 12.4506 55.5261 13.3047C55.5261 16.3933 57.4274 18.7692 60.9555 18.7692C65.3473 18.7692 66.5322 15.2733 66.6795 14.4112L63.5196 14.418Z" fill="black"/>
<path d="M40.4027 15.2597C40.4348 14.8496 40.502 14.443 40.6035 14.0446C40.7508 13.3319 42.8731 3.38728 42.8731 3.38728H40.0211L37.6779 14.3569C37.5866 14.7899 37.5373 15.231 37.5307 15.6738C37.5307 18.07 39.3583 18.776 40.8379 18.776C41.2151 18.7718 41.5913 18.7354 41.9626 18.6674C42.0161 18.423 42.4647 16.3662 42.4781 16.2711C42.4915 16.1761 42.1099 16.3051 41.7416 16.3051C40.6906 16.3051 40.4027 15.8571 40.4027 15.2597Z" fill="black"/>
<path d="M80.5443 6.74061H76.6145L71.5332 11.3633L73.2537 3.36691H70.3884L67.1548 18.5316H70.0001L70.7968 14.8456L72.5508 13.4405L74.9676 18.5316H78.1409L74.7065 11.7231L80.5443 6.74061Z" fill="black"/>
<path d="M24.8575 13.8546C25.0919 12.7685 27.0869 3.36691 27.0869 3.36691H32.4828C36.3926 3.36691 37.3566 5.57984 37.3566 6.91032C37.3566 9.86994 34.6051 10.6506 34.2703 10.7456C34.9066 10.9748 35.4542 11.4038 35.8334 11.9703C36.2127 12.5367 36.4039 13.2111 36.3792 13.8953C36.3792 16.4205 34.0896 18.5384 30.5213 18.5384H28.9012C25.8885 18.552 24.2818 16.4544 24.8575 13.8546ZM33.3264 13.6645C33.3264 12.9857 32.8644 12.0557 30.8694 12.0557H28.2317L27.4551 15.7281H30.4142C32.2954 15.7281 33.3264 14.8592 33.3264 13.6645ZM34.2837 7.55519C34.2837 6.82207 33.7347 6.19756 32.3824 6.19756H29.5037L28.8342 9.27258H31.8401C33.4201 9.25222 34.2502 8.44443 34.2502 7.5484L34.2837 7.55519Z" fill="black"/>
<path d="M79.2522 13.8546C79.4932 12.7685 81.4883 3.36691 81.4883 3.36691H86.8842C90.8006 3.36691 91.758 5.57984 91.758 6.91032C91.758 9.86994 89.0064 10.6506 88.6784 10.7456C89.3134 10.976 89.8596 11.4055 90.2376 11.9718C90.6155 12.5382 90.8057 13.2119 90.7806 13.8953C90.7806 16.4205 88.4709 18.5384 84.9294 18.5384H83.3025C80.2832 18.552 78.6765 16.4544 79.2522 13.8546ZM87.6876 13.6645C87.6876 12.9857 87.2257 12.0557 85.2373 12.0557H82.613L81.8364 15.7281H84.7888C86.6901 15.7281 87.6876 14.8592 87.6876 13.6645ZM88.6516 7.55519C88.6516 6.82207 88.096 6.19756 86.7302 6.19756H83.8716L83.2021 9.27258H86.2147C87.8215 9.25222 88.6516 8.44443 88.6516 7.5484V7.55519Z" fill="black"/>
<path d="M111.307 6.71346C108.301 6.71346 106.232 8.52589 105.549 11.92C105.248 13.3794 104.163 18.5112 104.163 18.5112H106.968C106.968 18.5112 107.999 13.6238 108.307 12.0829C108.729 10.0804 109.78 9.36762 111.186 9.36762C111.482 9.37104 111.777 9.39599 112.07 9.44229C112.143 9.035 112.552 7.21578 112.646 6.78813C112.398 6.81528 111.916 6.71346 111.307 6.71346Z" fill="black"/>
<path d="M120.907 23.0661L130.4 6.71346H127.354L122.996 14.3908L121.978 6.71346H118.711C114.962 6.71346 113.027 8.45801 112.344 11.7706C111.989 13.4201 110.898 18.5587 110.898 18.5587H113.723C113.723 18.5587 114.761 13.7052 115.183 11.7706C115.231 11.3962 115.359 11.037 115.558 10.7178C115.757 10.3986 116.022 10.1272 116.335 9.92242C116.647 9.71764 117.001 9.5844 117.369 9.53196C117.738 9.47952 118.114 9.50915 118.47 9.61878L119.066 6.82886C119.508 9.46944 120.853 17.9342 120.853 17.9342L117.901 23.1L120.907 23.0661Z" fill="black"/>
<path d="M48.5636 13.5016L51.2415 13.0943C51.1812 13.2979 51.1277 13.5966 51.0741 13.841C50.8562 14.5556 50.4076 15.1751 49.8005 15.5998C49.1933 16.0246 48.4629 16.23 47.7267 16.1829C46.7091 16.1829 46.12 15.6398 46.12 14.9814C46.1267 14.4519 46.6221 13.8003 48.5636 13.5016ZM47.4924 10.4334C47.7857 10.0171 48.1787 9.68348 48.6343 9.46378C49.0899 9.24409 49.5932 9.14558 50.0967 9.17755C51.2214 9.17755 51.7971 9.59163 51.7971 10.0939C51.7971 10.8067 50.6657 10.9968 48.6908 11.2751C45.3434 11.7638 43.1743 12.8296 43.1743 15.3004C43.1743 17.0586 44.6137 18.7624 47.1912 18.7624C47.8149 18.7822 48.4356 18.6678 49.0126 18.4268C49.5895 18.1858 50.1096 17.8236 50.5385 17.364C50.5385 17.6763 50.5921 18.1447 50.6122 18.5248H53.4775C53.2579 17.5105 53.2694 16.4589 53.511 15.4498C53.6984 14.6284 54.1805 12.2526 54.475 10.9425C54.9704 8.45122 53.6248 6.70667 50.1904 6.70667C45.7585 6.70667 44.4798 9.93103 44.279 10.4334H47.4924Z" fill="black"/>
<path d="M99.9858 15.0153C99.7389 15.407 99.3935 15.7248 98.9852 15.936C98.5768 16.1472 98.1203 16.2441 97.6627 16.2168C97.3285 16.2456 96.992 16.205 96.6738 16.0976C96.3555 15.9902 96.0622 15.8182 95.8116 15.5921C95.561 15.366 95.3585 15.0905 95.2164 14.7824C95.0742 14.4744 94.9955 14.1402 94.9848 13.8003H103.621C103.771 13.2123 103.852 12.6085 103.862 12.0014C103.862 9.23186 102.014 6.69988 98.2853 6.69988C96.6387 6.72314 95.0679 7.40553 93.9154 8.59827C92.7628 9.79102 92.1221 11.3974 92.1329 13.0671C92.1329 16.4001 94.1413 18.776 97.6159 18.776C101.941 18.776 103.099 15.3819 103.213 15.0153H99.9858ZM98.3255 9.32689C100.227 9.32689 100.95 10.5012 100.876 11.438H95.4267C95.6304 10.8222 96.0199 10.287 96.5401 9.90817C97.0604 9.52929 97.685 9.32594 98.3255 9.32689Z" fill="black"/>
<path d="M130.4 14.995C130.717 14.9963 131.027 15.093 131.291 15.2728C131.554 15.4527 131.759 15.7076 131.88 16.0054C132 16.3032 132.031 16.6305 131.968 16.9461C131.906 17.2617 131.752 17.5513 131.527 17.7785C131.302 18.0057 131.016 18.1601 130.704 18.2225C130.393 18.2848 130.07 18.2521 129.777 18.1286C129.484 18.0051 129.233 17.7963 129.057 17.5285C128.881 17.2608 128.787 16.9461 128.787 16.6241C128.785 16.4091 128.825 16.1959 128.906 15.997C128.986 15.798 129.105 15.6174 129.256 15.4657C129.406 15.3139 129.584 15.1941 129.781 15.1133C129.977 15.0325 130.188 14.9923 130.4 14.995ZM130.4 15.2665C130.045 15.2665 129.704 15.4095 129.453 15.6641C129.202 15.9187 129.061 16.2641 129.061 16.6241C129.061 16.9842 129.202 17.3295 129.453 17.5841C129.704 17.8387 130.045 17.9818 130.4 17.9818C130.573 17.9819 130.745 17.9465 130.905 17.8776C131.064 17.8087 131.208 17.7079 131.328 17.581C131.448 17.4542 131.542 17.304 131.603 17.1396C131.665 16.9751 131.693 16.7998 131.685 16.6241C131.691 16.4489 131.662 16.2744 131.599 16.1108C131.537 15.9472 131.444 15.7978 131.324 15.6713C131.204 15.5449 131.061 15.444 130.902 15.3744C130.744 15.3049 130.573 15.2682 130.4 15.2665ZM130.052 17.5745H129.777V15.6942H130.447C130.882 15.6942 131.116 15.8571 131.116 16.2304C131.12 16.2974 131.11 16.3645 131.087 16.4274C131.064 16.4903 131.029 16.5478 130.983 16.5962C130.937 16.6446 130.882 16.6829 130.821 16.7087C130.759 16.7346 130.694 16.7473 130.628 16.7463L131.15 17.5745H130.835L130.353 16.7463H130.038V17.5745H130.052ZM130.052 16.5155H130.387C130.735 16.5155 130.835 16.4069 130.835 16.2101C130.835 16.0132 130.748 15.9249 130.433 15.9249H130.052V16.5155Z" fill="black"/>
</svg>
