<svg width="79" height="24" viewBox="0 0 79 24" fill="none" xmlns="http://www.w3.org/2000/svg">
<path d="M13.7656 20.4219C13.099 21.276 12.1875 22 11.0312 22.5938C9.88542 23.1771 8.57812 23.4688 7.10938 23.4688C5.72396 23.4688 4.48958 23.1302 3.40625 22.4531C2.33333 21.776 1.49479 20.8281 0.890625 19.6094C0.296875 18.3802 0 16.974 0 15.3906C0 13.7344 0.317708 12.2448 0.953125 10.9219C1.59896 9.59896 2.48958 8.5625 3.625 7.8125C4.76042 7.0625 6.04688 6.6875 7.48438 6.6875C8.71354 6.6875 9.80208 6.94271 10.75 7.45312C11.7083 7.96354 12.4531 8.69792 12.9844 9.65625C13.526 10.6042 13.7969 11.7188 13.7969 13C13.7969 13.4479 13.776 13.8646 13.7344 14.25H4.39062V13.8594L10.0156 12.4531C10.0781 12.2031 10.1094 11.9062 10.1094 11.5625C10.1094 10.2188 9.82812 9.23438 9.26562 8.60938C8.71354 7.97396 7.99479 7.65625 7.10938 7.65625C6.04688 7.65625 5.1875 8.11979 4.53125 9.04688C3.88542 9.97396 3.5625 11.4844 3.5625 13.5781C3.5625 18.5469 5.65104 21.0312 9.82812 21.0312C10.5781 21.0312 11.2969 20.9271 11.9844 20.7188C12.6823 20.5 13.276 20.2396 13.7656 19.9375V20.4219Z" fill="#000B3D"/>
<path d="M16.3438 19.2344H16.5625L20.7031 22.4062C20.8281 22.4479 21.0625 22.4688 21.4062 22.4688C22.2396 22.4688 22.8854 22.2917 23.3438 21.9375C23.8021 21.5729 24.0312 21.0573 24.0312 20.3906C24.0312 19.8281 23.8906 19.3333 23.6094 18.9062C23.3281 18.4688 22.8594 18.0156 22.2031 17.5469L20.125 16.0312C19.3021 15.4479 18.651 14.9115 18.1719 14.4219C17.7031 13.9219 17.3594 13.4167 17.1406 12.9062C16.9323 12.3854 16.8281 11.8073 16.8281 11.1719C16.8281 10.3177 17.0573 9.5625 17.5156 8.90625C17.974 8.23958 18.6354 7.72396 19.5 7.35938C20.375 6.98438 21.401 6.79688 22.5781 6.79688C23.3177 6.79688 24.026 6.83333 24.7031 6.90625C25.3802 6.97917 25.9635 7.06771 26.4531 7.17188V10.6875H26.2344L22.5156 7.59375C22.401 7.57292 22.2552 7.5625 22.0781 7.5625C21.3073 7.5625 20.7135 7.74479 20.2969 8.10938C19.8802 8.47396 19.6719 8.94271 19.6719 9.51562C19.6719 9.99479 19.7656 10.4323 19.9531 10.8281C20.1406 11.2135 20.526 11.6146 21.1094 12.0312L23.1875 13.5469C24.1458 14.2344 24.8802 14.8177 25.3906 15.2969C25.901 15.776 26.2865 16.2969 26.5469 16.8594C26.8073 17.4115 26.9375 18.0677 26.9375 18.8281C26.9375 19.776 26.6823 20.5885 26.1719 21.2656C25.6719 21.9427 24.9688 22.4583 24.0625 22.8125C23.1667 23.1562 22.1406 23.3281 20.9844 23.3281C19.9427 23.3281 19.0208 23.2865 18.2188 23.2031C17.4271 23.1302 16.8021 23.0365 16.3438 22.9219V19.2344Z" fill="#000B3D"/>
<path d="M43.8906 21.6406C44.2969 21.6406 44.7031 21.5312 45.1094 21.3125V21.6406C44.8073 22.1302 44.3802 22.5469 43.8281 22.8906C43.2865 23.224 42.6562 23.3906 41.9375 23.3906C40.9062 23.3906 40.1042 23.0885 39.5312 22.4844C38.9688 21.8802 38.6875 20.9896 38.6875 19.8125V14.625L36.2188 15.75C35.1354 16.2396 34.349 16.724 33.8594 17.2031C33.3802 17.6823 33.1406 18.2865 33.1406 19.0156C33.1406 19.8177 33.3594 20.4531 33.7969 20.9219C34.2448 21.3802 34.8802 21.6094 35.7031 21.6094C36.1406 21.6094 36.5573 21.5312 36.9531 21.375C37.3594 21.2188 37.6979 21.0312 37.9688 20.8125V21.1875C37.4896 21.7917 36.8646 22.3073 36.0938 22.7344C35.3229 23.151 34.4688 23.3594 33.5312 23.3594C32.7188 23.3594 32.0052 23.1979 31.3906 22.875C30.7865 22.5521 30.3177 22.1146 29.9844 21.5625C29.6615 21.0104 29.5 20.3958 29.5 19.7188C29.5 18.6771 29.849 17.8385 30.5469 17.2031C31.2552 16.5677 32.3333 16.0417 33.7812 15.625L38.6875 14.1875V12.0625C38.6875 10.6042 38.3698 9.53646 37.7344 8.85938C37.1094 8.18229 36.1354 7.84375 34.8125 7.84375C34.2396 7.84375 33.7448 7.88542 33.3281 7.96875V7.625C33.7865 7.375 34.375 7.16146 35.0938 6.98438C35.8125 6.80729 36.5938 6.71875 37.4375 6.71875C39.0521 6.71875 40.2917 7.15104 41.1562 8.01562C42.0208 8.86979 42.4531 10.0417 42.4531 11.5312V20C42.4531 20.5417 42.5625 20.9531 42.7812 21.2344C43 21.5052 43.3698 21.6406 43.8906 21.6406ZM32.25 12.7344C31.875 12.7344 31.526 12.6406 31.2031 12.4531C30.8906 12.2656 30.6406 12.0156 30.4531 11.7031C30.2656 11.3802 30.1719 11.0312 30.1719 10.6562C30.1719 10.2812 30.2656 9.9375 30.4531 9.625C30.6406 9.30208 30.8906 9.04688 31.2031 8.85938C31.526 8.67188 31.875 8.57812 32.25 8.57812C32.625 8.57812 32.9688 8.67188 33.2812 8.85938C33.6042 9.04688 33.8594 9.30208 34.0469 9.625C34.2344 9.9375 34.3281 10.2812 34.3281 10.6562C34.3281 11.0312 34.2344 11.3802 34.0469 11.7031C33.8594 12.0156 33.6042 12.2656 33.2812 12.4531C32.9688 12.6406 32.625 12.7344 32.25 12.7344Z" fill="#000B3D"/>
<path d="M62.4688 22.8281V23.0781H57.0312V9.09375C56.7396 8.76042 56.3438 8.47917 55.8438 8.25C55.3542 8.02083 54.8021 7.90625 54.1875 7.90625C53.4062 7.90625 52.7188 8.15104 52.125 8.64062C51.5417 9.11979 51.0885 9.85417 50.7656 10.8438C50.4427 11.8229 50.2812 13.0417 50.2812 14.5C50.2812 16.9167 50.6562 18.6979 51.4062 19.8438C52.1667 20.9792 53.3281 21.5469 54.8906 21.5469C55.2135 21.5469 55.5 21.5208 55.75 21.4688C56.0104 21.4062 56.2135 21.3333 56.3594 21.25V21.6406C55.8906 22.099 55.3073 22.4896 54.6094 22.8125C53.9115 23.1354 53.1719 23.2969 52.3906 23.2969C51.3073 23.2969 50.3281 23.026 49.4531 22.4844C48.5781 21.9323 47.8802 21.1094 47.3594 20.0156C46.849 18.9115 46.5938 17.5625 46.5938 15.9688C46.5938 13.9479 47.0208 12.25 47.875 10.875C48.7292 9.5 49.8802 8.47917 51.3281 7.8125C52.776 7.13542 54.3906 6.79688 56.1719 6.79688H57.0312V2.82812L54.8594 1.64062V1.375L60.6406 0H60.8125V21.5469L62.4688 22.8281Z" fill="#000B3D"/>
<path d="M78.4844 20.4219C77.8177 21.276 76.9062 22 75.75 22.5938C74.6042 23.1771 73.2969 23.4688 71.8281 23.4688C70.4427 23.4688 69.2083 23.1302 68.125 22.4531C67.0521 21.776 66.2135 20.8281 65.6094 19.6094C65.0156 18.3802 64.7188 16.974 64.7188 15.3906C64.7188 13.7344 65.0365 12.2448 65.6719 10.9219C66.3177 9.59896 67.2083 8.5625 68.3438 7.8125C69.4792 7.0625 70.7656 6.6875 72.2031 6.6875C73.4323 6.6875 74.5208 6.94271 75.4688 7.45312C76.4271 7.96354 77.1719 8.69792 77.7031 9.65625C78.2448 10.6042 78.5156 11.7188 78.5156 13C78.5156 13.4479 78.4948 13.8646 78.4531 14.25H69.1094V13.8594L74.7344 12.4531C74.7969 12.2031 74.8281 11.9062 74.8281 11.5625C74.8281 10.2188 74.5469 9.23438 73.9844 8.60938C73.4323 7.97396 72.7135 7.65625 71.8281 7.65625C70.7656 7.65625 69.9062 8.11979 69.25 9.04688C68.6042 9.97396 68.2812 11.4844 68.2812 13.5781C68.2812 18.5469 70.3698 21.0312 74.5469 21.0312C75.2969 21.0312 76.0156 20.9271 76.7031 20.7188C77.401 20.5 77.9948 20.2396 78.4844 19.9375V20.4219Z" fill="#000B3D"/>
</svg>
