<?xml version="1.0" encoding="utf-8"?>
<!-- Generator: Adobe Illustrator 22.1.0, SVG Export Plug-In . SVG Version: 6.00 Build 0)  -->
<svg version="1.1" xmlns="http://www.w3.org/2000/svg" xmlns:xlink="http://www.w3.org/1999/xlink" x="0px" y="0px"
	 viewBox="0 0 116.7 49.9" style="enable-background:new 0 0 116.7 49.9;" xml:space="preserve">
<style type="text/css">
	.st0{clip-path:url(#SVGID_2_);fill:#1A70B7;}
	.st1{clip-path:url(#SVGID_4_);fill:#224F9D;}
	.st2{fill:#2C579A;}
	.st3{clip-path:url(#SVGID_6_);fill:#2C579A;}
	.st4{fill:#207446;}
	.st5{clip-path:url(#SVGID_8_);fill:#207446;}
	.st6{clip-path:url(#SVGID_10_);fill:#1A70B7;}
	.st7{clip-path:url(#SVGID_12_);fill:#D24726;}
	.st8{clip-path:url(#SVGID_14_);fill:#28ABE3;}
	.st9{clip-path:url(#SVGID_16_);}
	.st10{fill:none;}
	.st11{fill:#FFFFFF;}
	.st12{fill:#221E20;}
	.st13{fill:#5AB14B;}
	.st14{fill:none;stroke:#000000;stroke-width:4.1294;stroke-miterlimit:10;}
	.st15{clip-path:url(#SVGID_20_);fill:#2072B8;}
	.st16{fill:#D73B00;}
	.st17{fill:#5558AF;}
	.st18{fill:#1D284A;}
	.st19{fill:none;stroke:#59C1DA;stroke-width:4;stroke-miterlimit:10;}
	.st20{fill:#277EC9;}
	.st21{display:none;fill:#F9B500;}
	.st22{fill-rule:evenodd;clip-rule:evenodd;fill:#323232;}
	.st23{fill:#323232;}
	.st24{fill:none;stroke:#323232;stroke-width:1.6007;stroke-miterlimit:10;}
	.st25{fill-rule:evenodd;clip-rule:evenodd;}
	.st26{fill-rule:evenodd;clip-rule:evenodd;fill:#616263;}
	.st27{fill:#616263;}
	.st28{fill:#6FB43E;}
	.st29{fill-rule:evenodd;clip-rule:evenodd;fill:#6FB43E;}
	.st30{fill:#020202;}
	.st31{fill:#DB3138;}
	.st32{fill:#0060B2;}
	.st33{fill:#FED815;}
	.st34{fill:#1D2849;}
	.st35{fill:#6CB33F;}
	.st36{fill:#53575A;}
	.st37{fill:#1BA638;}
</style>
<g id="Refuerzo">
	<g>
		<g>
			<path d="M116.4,23.8c-0.1-2.5-0.4-5-1-7.4c-0.7-3.3-2.2-6.1-4.8-8.3c-2.8-2.3-6-3.6-9.6-3.6c-28.2,0-56.4,0-84.6,0
				c-1.3,0-2.6,0.1-3.9,0.4c-3.6,0.9-6.6,2.7-8.8,5.7c-1.3,1.7-2,3.7-2.5,5.8c-0.6,2.5-0.9,5.1-1,7.7c-0.2,3.9,0,7.8,0.9,11.6
				c0.5,2.1,1.1,4.2,2.4,5.9c3.1,4.1,7.3,6.2,12.4,6.2c14.1,0.1,70.4,0,84.5,0c0.6,0,1.2,0,1.8-0.1c2.4-0.3,4.6-1,6.7-2.3
				c2.6-1.7,4.6-3.9,5.7-6.8c0.9-2.4,1.3-5,1.6-7.6C116.5,28.6,116.5,26.2,116.4,23.8z M60.7,43.7c0,0.4-0.2,0.4-0.5,0.4
				c-4.8,0-35.6,0-42.5,0c-2.4,0-4.7-0.6-6.8-1.7c-2.7-1.4-4.4-3.5-5.5-6.3c-0.8-2-1.1-4.1-1.3-6.3c-0.2-2.5-0.2-5,0-7.5
				c0.2-2.3,0.6-4.5,1.4-6.6C6.8,12.7,9,10.5,12,9.3c1.9-0.8,3.9-1.2,5.9-1.2c14,0,42.3,0,42.4,0c0.4,0,0.5,0.1,0.5,0.5
				C60.8,11.6,60.7,37.7,60.7,43.7z M85.4,31.8c-0.5,2.2-2,3.5-4.1,4.1c-1.9,0.5-3.8,0.5-5.8,0.5c-1.4,0-2.8-0.1-4.1-0.4
				c-2.9-0.6-4.5-2.4-5.1-5.3c-0.4-2.3-0.4-4.6-0.3-6.9c0.1-1.1,0.2-2.2,0.5-3.2c0.6-2.4,2.1-3.9,4.5-4.4c1-0.2,1.9-0.4,2.9-0.4
				c1.9-0.1,3.8-0.1,5.7,0.2c1,0.2,1.9,0.4,2.8,0.9c1.3,0.7,2.2,1.8,2.6,3.3c0.7,2.2,0.7,4.6,0.7,6.9H72.3c0,0.2,0,0.3,0,0.4
				c0.1,0.9,0.1,1.8,0.3,2.6c0.2,1.1,1,1.8,2.1,1.9c1,0.1,1.9,0.1,2.9,0c1.3-0.2,1.8-0.8,2-2c0-0.1,0-0.1,0-0.2h6.2
				C85.6,30.5,85.6,31.2,85.4,31.8z M105.6,20.1c0,0.3-0.1,0.4-0.4,0.4c-1.3,0-2.6,0-3.9,0c-0.4,0-0.4,0.1-0.4,0.5c0,5,0,10,0,15
				v0.5h-6.5V36c0-5,0-10,0-15c0-0.5,0-0.5-0.5-0.5c-1.3,0-2.6,0-3.9,0c-0.3,0-0.4-0.1-0.4-0.4c0-1.3,0-2.6,0-3.9
				c0-0.4,0.1-0.5,0.5-0.5c2.8,0,5.6,0,8.4,0h6.5c0.5,0,0.5,0,0.5,0.5C105.6,17.6,105.6,18.8,105.6,20.1z"/>
			<path d="M32.3,29.8c-1.9,0-3.9,0-5.8,0c-0.3,0-0.3,0.1-0.3,0.3c-0.1,1.1-0.7,1.7-1.8,1.9c-1,0.2-1.9,0.2-2.9,0.1
				c-1.2-0.2-1.9-0.8-2.1-1.9c-0.2-0.8-0.2-1.7-0.3-2.5c0-0.5,0-0.5,0.5-0.5h12.9c0-2.2,0-4.3-0.6-6.4c-0.6-2.4-2.1-4-4.6-4.5
				c-1.2-0.3-2.4-0.4-3.6-0.4c-2.1-0.1-4.1,0-6.2,0.5c-2,0.5-3.5,1.6-4.2,3.6c-0.3,0.8-0.5,1.6-0.6,2.4c-0.3,2.5-0.3,5.1,0,7.6
				c0.1,1.2,0.4,2.3,1,3.3c0.9,1.6,2.4,2.4,4.1,2.8c3.1,0.7,6.1,0.6,9.2,0.1c1-0.2,1.9-0.5,2.8-1c2-1.3,2.4-3.2,2.5-5.4
				C32.4,29.9,32.4,29.8,32.3,29.8z M19.1,23.4c0-0.5,0.1-1,0.2-1.5c0.2-0.8,0.7-1.4,1.6-1.6c1.1-0.2,2.2-0.2,3.3,0
				c1,0.2,1.5,0.8,1.7,1.7c0.1,0.4,0.1,0.9,0.2,1.3c0,0.3-0.1,0.4-0.4,0.4c-1,0-2.1,0-3.1,0h-3.1C19.1,23.9,19.1,23.8,19.1,23.4z"/>
			<path d="M36.8,30.3c2.2,0,4.3,0,6.5,0c0,0.1,0,0.1,0,0.2c0.1,1.2,0.8,1.9,2,2c1.3,0.1,2.6,0,3.8-0.1c0.9-0.1,1.3-0.6,1.3-1.5
				c0-0.2,0-0.5,0-0.7c-0.1-0.9-0.5-1.6-1.5-1.7c-1.1-0.1-2.2-0.1-3.3-0.1c-1.8-0.1-3.5-0.1-5.2-0.6c-0.2-0.1-0.5-0.2-0.7-0.2
				c-1.5-0.6-2.4-1.7-2.7-3.3c-0.2-1.4-0.2-2.8,0.1-4.2c0.5-2.2,2-3.3,4.1-3.7c2-0.4,4-0.4,6-0.4c1.6,0,3.2,0,4.7,0.4
				c0.7,0.2,1.4,0.5,2,0.9c1.1,0.7,1.6,1.8,1.7,3.1c0,0.4,0,0.7,0,1.1c0,0.1-0.2,0.2-0.2,0.2c-1.8,0-3.7,0-5.5,0
				c-0.1,0-0.2-0.1-0.3-0.2c-0.3-1-1-1.5-2-1.5c-1.1,0-2.2,0-3.3,0.1c-0.9,0.1-1.2,0.5-1.2,1.5c0,1.1,0.1,1.8,1.7,2
				c0.9,0.1,1.9,0.2,2.8,0.2c1.6,0.1,3.2,0.2,4.7,0.4c0.6,0.1,1.2,0.3,1.8,0.5c1.2,0.5,2,1.4,2.3,2.6c0.4,1.5,0.5,3,0.1,4.6
				c-0.4,2-1.7,3.3-3.6,4c-1.7,0.6-3.4,0.8-5.2,0.8c-1.6,0-3.1,0-4.7-0.1c-0.9-0.1-1.8-0.2-2.6-0.5c-2.1-0.6-3.1-2.1-3.4-4.2
				C36.8,31.4,36.8,30.9,36.8,30.3z"/>
			<path d="M72.2,23.6c0.1-0.7,0.2-1.4,0.3-2c0.2-0.9,1-1.4,1.9-1.5c1-0.1,2-0.1,3,0c0.9,0.2,1.4,0.7,1.6,1.5
				c0.1,0.6,0.2,1.2,0.2,1.7c0,0.2,0,0.3-0.2,0.3c-2.2,0-4.5,0-6.7,0c0,0,0,0-0.1,0C72.3,23.7,72.3,23.7,72.2,23.6z"/>
		</g>
		<g id="XMLID_51_">
			<g id="XMLID_56_">
				<path id="XMLID_57_" d="M112.8,2c-1.3,0-2.3,1-2.3,2.3c0,1.3,1,2.3,2.3,2.3c1.3,0,2.3-1,2.3-2.3C115.2,3,114.1,2,112.8,2z
					 M112.8,6.2c-1,0-1.9-0.8-1.9-1.9s0.8-1.9,1.9-1.9c1,0,1.9,0.8,1.9,1.9S113.9,6.2,112.8,6.2z"/>
			</g>
			<g id="XMLID_54_">
				<path id="XMLID_55_" d="M113.6,4.8c-0.1-0.2-0.2-0.4-0.3-0.4v0c0.2-0.1,0.4-0.3,0.4-0.6c0-0.2-0.1-0.4-0.2-0.5
					c-0.2-0.1-0.4-0.2-0.8-0.2c-0.3,0-0.5,0-0.7,0.1v2.3h0.5V4.6h0.2c0.2,0,0.3,0.1,0.4,0.4c0.1,0.3,0.1,0.5,0.2,0.6h0.5
					C113.8,5.4,113.7,5.1,113.6,4.8z M112.8,4.2h-0.2V3.5c0,0,0.1,0,0.2,0c0.2,0,0.4,0.1,0.4,0.3C113.2,4.1,113,4.2,112.8,4.2z"/>
			</g>
		</g>
	</g>
</g>
<g id="Análisis">
</g>
<g id="Gestión">
</g>
<g id="Nuevo">
</g>
</svg>
