<svg width="133" height="21" viewBox="0 0 133 21" fill="none" xmlns="http://www.w3.org/2000/svg">
<path d="M13.7055 21H3.97921C-0.618688 15.3632 -1.30395 7.49368 2.29921 1.14947L8.59921 12.1137L15.5624 0H25.7971L13.7055 21ZM32.5613 1.19368C36.0761 7.51579 35.4129 15.3411 30.9034 21H21.3539L24.2939 15.8053H20.4034L24.9792 7.73684H28.8918L32.5613 1.19368ZM42.2655 10.8095C42.2655 15.4074 44.3655 17.6179 47.9908 17.6179C51.6161 17.6179 53.7161 15.4295 53.7161 10.8095C53.7161 6.18948 51.6161 3.97895 47.9908 3.97895C44.3655 3.97895 42.2655 6.16737 42.2655 10.8095ZM40.6076 10.8095C40.6076 5.21685 43.3929 2.52 47.9687 2.52C52.5445 2.52 55.3297 5.21685 55.3297 10.8095C55.3297 16.3579 52.5445 19.0768 47.9687 19.0768C43.3929 19.0768 40.6076 16.3579 40.6076 10.8095ZM62.6024 15.8716L57.8055 3.16105C57.7392 2.96211 57.4961 2.63053 57.0539 2.63053C56.6118 2.63053 56.2582 2.98421 56.2582 3.42632C56.2582 3.55895 56.3024 3.71368 56.3245 3.78L61.8508 18.3474C61.9613 18.6789 62.2929 18.9 62.6024 18.9C62.9118 18.9 63.2434 18.6789 63.354 18.3474L68.8803 3.78C68.9024 3.71368 68.9466 3.55895 68.9466 3.42632C68.9466 2.98421 68.5929 2.63053 68.1508 2.63053C67.7087 2.63053 67.4655 2.96211 67.3992 3.16105L62.6024 15.8716ZM80.5297 11.3179V18.1263C80.5297 18.5463 80.8834 18.9221 81.3255 18.9221C81.7676 18.9221 82.1213 18.5463 82.1213 18.1263V3.44842C82.1213 3.02842 81.7676 2.65263 81.3255 2.65263C80.8834 2.65263 80.5297 3.02842 80.5297 3.44842V9.85895H72.3066V3.44842C72.3066 3.02842 71.9529 2.65263 71.5108 2.65263C71.0687 2.65263 70.715 3.02842 70.715 3.44842V18.1263C70.715 18.5463 71.0687 18.9221 71.5108 18.9221C71.9529 18.9221 72.3066 18.5463 72.3066 18.1263V11.3179H80.5297V11.3179ZM89.7255 7.69263C86.675 7.69263 84.8624 9.48316 84.8624 13.3516C84.8624 17.22 86.675 19.0547 89.7255 19.0547C91.6487 19.0547 92.7761 18.2147 93.2845 17.7726C93.5276 17.5516 93.594 17.3968 93.594 17.1758C93.594 16.8 93.2845 16.4905 92.9087 16.4905C92.7319 16.4905 92.6213 16.5347 92.4666 16.6453C91.914 17.0432 91.0961 17.6621 89.7255 17.6621C87.5592 17.6621 86.3876 16.2916 86.3876 13.3295C86.3876 10.4337 87.5371 9.01895 89.7255 9.01895C91.295 9.01895 91.914 9.72632 92.2676 10.1242C92.4224 10.3232 92.5992 10.4116 92.8424 10.4116C93.2182 10.4116 93.5276 10.1242 93.5276 9.72631C93.5276 9.57158 93.4834 9.43895 93.3508 9.28421C92.975 8.79789 91.8255 7.69263 89.7255 7.69263ZM97.2634 2.67474C97.2634 2.27684 96.9319 1.92316 96.5119 1.92316C96.114 1.92316 95.7603 2.27684 95.7603 2.67474V16.1589C95.7603 17.9716 96.6445 18.9221 98.214 18.9221C98.5897 18.9221 98.9213 18.6126 98.9213 18.2147C98.9213 17.8168 98.5897 17.5074 98.214 17.5074C97.5729 17.5074 97.2634 17.1095 97.2634 16.1589V2.67474V2.67474ZM108.581 13.3516C108.581 10.3674 107.321 9.06316 105.155 9.06316C102.989 9.06316 101.729 10.3895 101.729 13.3516C101.729 16.38 102.989 17.6842 105.155 17.6842C107.343 17.6842 108.581 16.38 108.581 13.3516ZM110.129 13.3516C110.129 17.22 108.25 19.0547 105.177 19.0547C102.127 19.0547 100.226 17.2421 100.226 13.3516C100.226 9.48316 102.149 7.69263 105.177 7.69263C108.228 7.69263 110.129 9.48316 110.129 13.3516ZM113.776 8.57684C113.776 8.15684 113.422 7.82527 113.024 7.82527C112.604 7.82527 112.273 8.15684 112.273 8.57684V14.7442C112.273 16.9989 113.024 19.0326 116.672 19.0326C120.341 19.0326 121.071 16.9768 121.071 14.7442V8.57684C121.071 8.15684 120.739 7.82527 120.341 7.82527C119.921 7.82527 119.568 8.15684 119.568 8.57684V14.7442C119.568 16.2695 119.081 17.5958 116.694 17.5958C114.307 17.5958 113.82 16.2695 113.82 14.7442V8.57684H113.776ZM131.129 11.1411C131.129 11.1411 130.222 9.06316 128.012 9.06316C125.868 9.06316 124.674 10.4558 124.674 13.3516C124.674 16.3137 125.823 17.6842 128.012 17.6842C129.824 17.6842 131.129 16.6453 131.129 14.3905V11.1411ZM131.129 9.2179V2.67474C131.129 2.25474 131.46 1.92316 131.88 1.92316C132.3 1.92316 132.632 2.25474 132.632 2.67474V14.3905C132.632 17.5074 130.687 19.0547 128.012 19.0547C124.961 19.0547 123.171 17.2421 123.171 13.3516C123.171 9.48316 124.873 7.69263 127.923 7.69263C129.427 7.69263 130.576 8.46632 131.129 9.2179Z" fill="#000E9C"/>
</svg>
