<svg width="64" height="27" viewBox="0 0 64 27" fill="none" xmlns="http://www.w3.org/2000/svg">
<path fill-rule="evenodd" clip-rule="evenodd" d="M63.8 13.6406C63.8 9.12897 61.6024 5.56902 57.4023 5.56902C53.1844 5.56902 50.6324 9.12897 50.6324 13.6053C50.6324 18.91 53.6452 21.5888 57.9694 21.5888C60.0783 21.5888 61.6733 21.113 62.8784 20.4433V16.9186C61.6733 17.5178 60.291 17.8879 58.5365 17.8879C56.8174 17.8879 55.2933 17.2887 55.0984 15.2091H63.7646C63.7646 14.98 63.8 14.0636 63.8 13.6406ZM55.0452 11.9664C55.0452 9.9749 56.2681 9.1466 57.3846 9.1466C58.4656 9.1466 59.6176 9.9749 59.6176 11.9664H55.0452Z" fill="#635BFF"/>
<path fill-rule="evenodd" clip-rule="evenodd" d="M43.7916 5.56902C42.0548 5.56902 40.9383 6.37971 40.3181 6.94366L40.0877 5.851H36.1888V26.4L40.6193 25.466L40.6371 20.4785C41.2751 20.9367 42.2143 21.5888 43.7739 21.5888C46.9462 21.5888 49.8349 19.051 49.8349 13.4644C49.8172 8.35354 46.893 5.56902 43.7916 5.56902ZM42.7283 17.7116C41.6827 17.7116 41.0624 17.3415 40.6371 16.8833L40.6193 10.345C41.0801 9.83391 41.7181 9.48144 42.7283 9.48144C44.341 9.48144 45.4575 11.279 45.4575 13.5877C45.4575 15.9493 44.3587 17.7116 42.7283 17.7116Z" fill="#635BFF"/>
<path fill-rule="evenodd" clip-rule="evenodd" d="M30.0923 4.52924L34.5406 3.57757V0L30.0923 0.934045V4.52924Z" fill="#635BFF"/>
<path d="M34.5406 5.86863H30.0923V21.2892H34.5406V5.86863Z" fill="#635BFF"/>
<path fill-rule="evenodd" clip-rule="evenodd" d="M25.3251 7.17276L25.0415 5.86862H21.2135V21.2892H25.6441V10.8385C26.6897 9.48144 28.4619 9.72817 29.0113 9.92203V5.86862C28.4442 5.65714 26.3707 5.26942 25.3251 7.17276Z" fill="#635BFF"/>
<path fill-rule="evenodd" clip-rule="evenodd" d="M16.4639 2.04433L12.1397 2.96075L12.122 17.0772C12.122 19.6854 14.0892 21.6064 16.7121 21.6064C18.1653 21.6064 19.2286 21.3421 19.8134 21.0248V17.4473C19.2463 17.6764 16.4462 18.487 16.4462 15.8788V9.62243H19.8134V5.86863H16.4462L16.4639 2.04433Z" fill="#635BFF"/>
<path fill-rule="evenodd" clip-rule="evenodd" d="M4.48372 10.345C4.48372 9.65768 5.05083 9.39332 5.99011 9.39332C7.337 9.39332 9.03833 9.79866 10.3852 10.5212V6.37971C8.91428 5.79813 7.46106 5.56902 5.99011 5.56902C2.3925 5.56902 0 7.43712 0 10.5565C0 15.4206 6.73444 14.6451 6.73444 16.7423C6.73444 17.553 6.02556 17.8174 5.03311 17.8174C3.56217 17.8174 1.68361 17.2182 0.194944 16.4075V20.6019C1.84311 21.3068 3.509 21.6064 5.03311 21.6064C8.71933 21.6064 11.2536 19.7912 11.2536 16.6366C11.2359 11.3848 4.48372 12.3188 4.48372 10.345Z" fill="#635BFF"/>
</svg>
