<svg width="132" height="32" viewBox="0 0 132 32" fill="none" xmlns="http://www.w3.org/2000/svg">
<g clip-path="url(#clip0_1806_9167)">
<path d="M9.45301 4.72602C9.45301 2.11567 7.33685 -0.000488281 4.7265 -0.000488281C2.11616 -0.000488281 0 2.11567 0 4.72602C0 7.33636 2.11616 9.45252 4.7265 9.45252C7.33685 9.45252 9.45301 7.33636 9.45301 4.72602Z" fill="#0066FF"/>
<path d="M20.566 4.72602C20.566 2.11567 18.4499 -0.000488281 15.8395 -0.000488281C13.2292 -0.000488281 11.113 2.11567 11.113 4.72602C11.113 7.33636 13.2292 9.45252 15.8395 9.45252C18.4499 9.45252 20.566 7.33636 20.566 4.72602Z" fill="#0066FF"/>
<path d="M31.6791 4.72602C31.6791 2.11567 29.5629 -0.000488281 26.9526 -0.000488281C24.3422 -0.000488281 22.2261 2.11567 22.2261 4.72602C22.2261 7.33636 24.3422 9.45252 26.9526 9.45252C29.5629 9.45252 31.6791 7.33636 31.6791 4.72602Z" fill="#0066FF"/>
<path d="M20.566 15.8388C20.566 13.2285 18.4499 11.1123 15.8395 11.1123C13.2292 11.1123 11.113 13.2285 11.113 15.8388C11.113 18.4492 13.2292 20.5653 15.8395 20.5653C18.4499 20.5653 20.566 18.4492 20.566 15.8388Z" fill="#0066FF"/>
<path d="M20.566 26.9521C20.566 24.3417 18.4499 22.2256 15.8395 22.2256C13.2292 22.2256 11.113 24.3417 11.113 26.9521C11.113 29.5624 13.2292 31.6786 15.8395 31.6786C18.4499 31.6786 20.566 29.5624 20.566 26.9521Z" fill="#0066FF"/>
<path d="M41.7528 12.1518H37.3557V9.52881H48.8869V12.1518H44.4772V24.2152H41.7528V12.1518Z" fill="#0066FF"/>
<path d="M55.793 17.9298C55.5649 16.5613 54.6652 15.5222 53.17 15.5222C51.5734 15.5222 50.6483 16.574 50.3315 17.9298H55.793ZM58.0992 21.0724C57.8711 21.9087 56.5406 24.4303 53.17 24.4303C50.0274 24.4303 47.7212 22.1241 47.7212 18.8675C47.7212 15.6109 50.0274 13.3047 53.17 13.3047C56.1098 13.3047 58.416 15.6109 58.416 18.6521C58.416 18.9689 58.378 19.2223 58.3527 19.4124L58.3146 19.7038H50.3442C50.5723 21.1991 51.6874 22.2255 53.1826 22.2255C54.4245 22.2255 55.1721 21.5159 55.3875 21.0724H58.0992Z" fill="#0066FF"/>
<path d="M62.6103 9.52881H59.9873V24.2152H62.6103V9.52881Z" fill="#0066FF"/>
<path d="M72.2532 17.9298C72.0251 16.5613 71.1255 15.5222 69.6302 15.5222C68.0336 15.5222 67.1086 16.574 66.7918 17.9298H72.2532ZM74.5721 21.0724C74.344 21.9087 73.0135 24.4303 69.6429 24.4303C66.5003 24.4303 64.1941 22.1241 64.1941 18.8675C64.1941 15.6109 66.5003 13.3047 69.6429 13.3047C72.5827 13.3047 74.8889 15.6109 74.8889 18.6521C74.8889 18.9689 74.8509 19.2223 74.8256 19.4124L74.7875 19.7038H66.8171C67.0452 21.1991 68.1603 22.2255 69.6555 22.2255C70.8974 22.2255 71.645 21.5159 71.8604 21.0724H74.5721Z" fill="#0066FF"/>
<path d="M77.2967 16.0416H75.51V13.52H77.2967V11.9487C77.2967 10.3521 78.3231 9.32568 79.9197 9.32568H82.226V11.6319H80.6547C80.2365 11.6319 79.9197 11.9487 79.9197 12.3669V13.52H82.226V16.0416H79.9197V24.2275H77.2967V16.0416Z" fill="#0066FF"/>
<path d="M95.1001 13.5201H97.5077L97.7231 14.5718H97.8245C98.0146 14.3438 98.268 14.1283 98.5341 13.9383C99.0156 13.6215 99.7506 13.3047 100.764 13.3047C103.172 13.3047 104.959 15.0914 104.959 17.8158V24.2149H102.336V18.0312C102.336 16.6627 101.385 15.725 100.029 15.725C98.6608 15.725 97.7231 16.6753 97.7231 18.0312V24.2149H95.1001V13.5201V13.5201Z" fill="#0066FF"/>
<path d="M121.66 20.2361C121.318 21.9087 120 24.4303 116.629 24.4303C113.487 24.4303 111.18 22.1241 111.18 18.8675C111.18 15.6109 113.487 13.3047 116.629 13.3047C120.013 13.3047 121.33 15.8263 121.66 17.3976H119.037C118.809 16.7894 118.2 15.725 116.629 15.725C115.058 15.725 113.791 16.9794 113.791 18.8675C113.791 20.7556 115.045 22.0101 116.629 22.0101C118.213 22.0101 118.809 20.9583 119.037 20.2234H121.66V20.2361Z" fill="#0066FF"/>
<path d="M129.377 19.6025H127.172C125.803 19.6025 125.183 20.122 125.183 20.971C125.183 21.8074 125.791 22.3396 126.855 22.3396C128.452 22.3396 129.377 21.4145 129.377 19.932V19.6025ZM129.58 23.1759H129.478C129.288 23.404 129.035 23.6194 128.743 23.8095C128.236 24.1263 127.501 24.443 126.437 24.443C124.004 24.443 122.56 22.9478 122.56 21.1864C122.56 19.083 124.029 17.6131 126.969 17.6131H129.377V17.3976C129.377 16.2192 128.667 15.4082 127.489 15.4082C126.31 15.4082 125.702 16.1685 125.601 16.7767H122.978C123.206 15.0154 124.638 13.3174 127.489 13.3174C130.213 13.3174 132 15.1167 132 17.4103V24.2276H129.795L129.58 23.1759Z" fill="#0066FF"/>
<path d="M106.973 13.5201H109.596V24.2149H106.973V13.5201ZM109.837 10.4282C109.837 9.56657 109.14 8.86963 108.279 8.86963C107.417 8.86963 106.72 9.56657 106.72 10.4282C106.72 11.2899 107.417 11.9868 108.279 11.9868C109.14 11.9742 109.837 11.2899 109.837 10.4282Z" fill="#0066FF"/>
<path d="M90.9059 18.8673C90.9059 16.9792 89.6514 15.7247 88.0674 15.7247C86.4962 15.7247 85.229 16.9792 85.229 18.8673C85.229 20.7554 86.4835 22.0098 88.0674 22.0098C89.6514 22.0098 90.9059 20.7554 90.9059 18.8673ZM93.5289 18.8673C93.5289 22.1239 91.2227 24.4301 88.0674 24.4301C84.9249 24.4301 82.6187 22.1239 82.6187 18.8673C82.6187 15.6107 84.9249 13.3045 88.0674 13.3045C91.2227 13.3045 93.5289 15.6107 93.5289 18.8673ZM89.0178 9.00879H91.7422L89.2205 12.05H87.0157L89.0178 9.00879Z" fill="#0066FF"/>
</g>
<defs>
<clipPath id="clip0_1806_9167">
<rect width="132" height="31.679" fill="white"/>
</clipPath>
</defs>
</svg>
