<svg width="126" height="24" viewBox="0 0 126 24" fill="none" xmlns="http://www.w3.org/2000/svg">
<path d="M7.16158 3.58079C7.16158 1.6032 5.55838 0 3.58079 0C1.6032 0 0 1.6032 0 3.58079C0 5.55838 1.6032 7.16158 3.58079 7.16158C5.55838 7.16158 7.16158 5.55838 7.16158 3.58079Z" fill="#0066FF"/>
<path d="M15.5808 3.58067C15.5808 1.60308 13.9776 -0.00012207 12 -0.00012207C10.0224 -0.00012207 8.41919 1.60308 8.41919 3.58067C8.41919 5.55826 10.0224 7.16146 12 7.16146C13.9776 7.16146 15.5808 5.55826 15.5808 3.58067Z" fill="#0066FF"/>
<path d="M24 3.58067C24 1.60308 22.3967 -0.00012207 20.4192 -0.00012207C18.4415 -0.00012207 16.8384 1.60308 16.8384 3.58067C16.8384 5.55826 18.4415 7.16146 20.4192 7.16146C22.3967 7.16146 24 5.55826 24 3.58067Z" fill="#0066FF"/>
<path d="M15.5808 11.9997C15.5808 10.0222 13.9776 8.41895 12 8.41895C10.0224 8.41895 8.41919 10.0222 8.41919 11.9997C8.41919 13.9774 10.0224 15.5805 12 15.5805C13.9776 15.5805 15.5808 13.9774 15.5808 11.9997Z" fill="#0066FF"/>
<path d="M15.5808 20.4192C15.5808 18.4415 13.9776 16.8384 12 16.8384C10.0224 16.8384 8.41919 18.4415 8.41919 20.4192C8.41919 22.3967 10.0224 24 12 24C13.9776 24 15.5808 22.3967 15.5808 20.4192Z" fill="#0066FF"/>
<path d="M35.7528 7.1518H31.3557V4.52881H42.8869V7.1518H38.4772V19.2152H35.7528V7.1518Z" fill="#0066FF"/>
<path d="M49.793 12.9298C49.5649 11.5613 48.6652 10.5222 47.17 10.5222C45.5734 10.5222 44.6483 11.574 44.3315 12.9298H49.793ZM52.0992 16.0724C51.8711 16.9087 50.5406 19.4303 47.17 19.4303C44.0274 19.4303 41.7212 17.1241 41.7212 13.8675C41.7212 10.6109 44.0274 8.30469 47.17 8.30469C50.1098 8.30469 52.416 10.6109 52.416 13.6521C52.416 13.9689 52.378 14.2223 52.3527 14.4124L52.3146 14.7038H44.3442C44.5723 16.1991 45.6874 17.2255 47.1826 17.2255C48.4245 17.2255 49.1721 16.5159 49.3875 16.0724H52.0992Z" fill="#0066FF"/>
<path d="M56.6103 4.52881H53.9873V19.2152H56.6103V4.52881Z" fill="#0066FF"/>
<path d="M66.2532 12.9298C66.0251 11.5613 65.1255 10.5222 63.6302 10.5222C62.0336 10.5222 61.1086 11.574 60.7918 12.9298H66.2532ZM68.5721 16.0724C68.344 16.9087 67.0135 19.4303 63.6429 19.4303C60.5003 19.4303 58.1941 17.1241 58.1941 13.8675C58.1941 10.6109 60.5003 8.30469 63.6429 8.30469C66.5827 8.30469 68.8889 10.6109 68.8889 13.6521C68.8889 13.9689 68.8509 14.2223 68.8256 14.4124L68.7875 14.7038H60.8171C61.0452 16.1991 62.1603 17.2255 63.6555 17.2255C64.8974 17.2255 65.645 16.5159 65.8604 16.0724H68.5721Z" fill="#0066FF"/>
<path d="M71.2967 11.0416H69.51V8.52H71.2967V6.9487C71.2967 5.3521 72.3231 4.32568 73.9197 4.32568H76.226V6.6319H74.6547C74.2365 6.6319 73.9197 6.9487 73.9197 7.3669V8.52H76.226V11.0416H73.9197V19.2275H71.2967V11.0416Z" fill="#0066FF"/>
<path d="M89.1001 8.52009H91.5077L91.7231 9.57179H91.8245C92.0146 9.34379 92.268 9.12829 92.5341 8.93829C93.0156 8.62149 93.7506 8.30469 94.764 8.30469C97.172 8.30469 98.959 10.0914 98.959 12.8158V19.2149H96.336V13.0312C96.336 11.6627 95.385 10.725 94.029 10.725C92.6608 10.725 91.7231 11.6753 91.7231 13.0312V19.2149H89.1001V8.52009Z" fill="#0066FF"/>
<path d="M115.66 15.2361C115.318 16.9087 114 19.4303 110.629 19.4303C107.487 19.4303 105.18 17.1241 105.18 13.8675C105.18 10.6109 107.487 8.30469 110.629 8.30469C114.013 8.30469 115.33 10.8263 115.66 12.3976H113.037C112.809 11.7894 112.2 10.725 110.629 10.725C109.058 10.725 107.791 11.9794 107.791 13.8675C107.791 15.7556 109.045 17.0101 110.629 17.0101C112.213 17.0101 112.809 15.9583 113.037 15.2234H115.66V15.2361Z" fill="#0066FF"/>
<path d="M123.377 14.6025H121.172C119.803 14.6025 119.183 15.122 119.183 15.971C119.183 16.8074 119.791 17.3396 120.855 17.3396C122.452 17.3396 123.377 16.4145 123.377 14.932V14.6025ZM123.58 18.1759H123.478C123.288 18.404 123.035 18.6194 122.743 18.8095C122.236 19.1263 121.501 19.443 120.437 19.443C118.004 19.443 116.56 17.9478 116.56 16.1864C116.56 14.083 118.029 12.6131 120.969 12.6131H123.377V12.3976C123.377 11.2192 122.667 10.4082 121.489 10.4082C120.31 10.4082 119.702 11.1685 119.601 11.7767H116.978C117.206 10.0154 118.638 8.31738 121.489 8.31738C124.213 8.31738 126 10.1167 126 12.4103V19.2276H123.795L123.58 18.1759Z" fill="#0066FF"/>
<path d="M100.973 8.5201H103.596V19.2149H100.973V8.5201ZM103.837 5.4282C103.837 4.56657 103.14 3.86963 102.279 3.86963C101.417 3.86963 100.72 4.56657 100.72 5.4282C100.72 6.2899 101.417 6.9868 102.279 6.9868C103.14 6.9742 103.837 6.2899 103.837 5.4282Z" fill="#0066FF"/>
<path d="M84.9059 13.8673C84.9059 11.9792 83.6514 10.7247 82.0674 10.7247C80.4962 10.7247 79.229 11.9792 79.229 13.8673C79.229 15.7554 80.4835 17.0098 82.0674 17.0098C83.6514 17.0098 84.9059 15.7554 84.9059 13.8673ZM87.5289 13.8673C87.5289 17.1239 85.2227 19.4301 82.0674 19.4301C78.9249 19.4301 76.6187 17.1239 76.6187 13.8673C76.6187 10.6107 78.9249 8.3045 82.0674 8.3045C85.2227 8.3045 87.5289 10.6107 87.5289 13.8673ZM83.0178 4.00879H85.7422L83.2205 7.05H81.0157L83.0178 4.00879Z" fill="#0066FF"/>
</svg>
