<svg width="136" height="25" viewBox="0 0 136 25" fill="none" xmlns="http://www.w3.org/2000/svg">
<g clip-path="url(#clip0)">
<path fill-rule="evenodd" clip-rule="evenodd" d="M15.6399 0V8.16077L23.1199 0H15.6399Z" fill="#C3C31A"/>
<path fill-rule="evenodd" clip-rule="evenodd" d="M23.1199 0L15.6399 8.16077H23.1199V0Z" fill="#FFBB00"/>
<path fill-rule="evenodd" clip-rule="evenodd" d="M23.1199 8.16077L15.6399 16.3215V8.16077H23.1199Z" fill="#F9710A"/>
<path fill-rule="evenodd" clip-rule="evenodd" d="M23.1199 8.16077V16.3215H15.6399L23.1199 8.16077Z" fill="#F22613"/>
<path fill-rule="evenodd" clip-rule="evenodd" d="M7.49976 24.4634H14.9798V16.3026L7.49976 24.4634Z" fill="#C2324E"/>
<path fill-rule="evenodd" clip-rule="evenodd" d="M7.49976 16.3026V24.4634L14.9798 16.3026H7.49976Z" fill="#913D88"/>
<path fill-rule="evenodd" clip-rule="evenodd" d="M0 16.3215H7.48V8.16077L0 16.3215Z" fill="#5A72BC"/>
<path fill-rule="evenodd" clip-rule="evenodd" d="M0 8.16077V16.3215L7.48 8.16077H0Z" fill="#22A7F0"/>
<path fill-rule="evenodd" clip-rule="evenodd" d="M7.48 0L0 8.16077H7.48V0Z" fill="#55BA92"/>
<path fill-rule="evenodd" clip-rule="evenodd" d="M0 0V8.16077L7.48 0H0Z" fill="#88CC33"/>
<path fill-rule="evenodd" clip-rule="evenodd" d="M35.2115 15.3664C34.6845 15.7254 34.1149 15.9264 33.5169 15.9407C32.4205 15.9407 31.6088 15.28 31.6088 13.7866V9.46366H30.5266V8.55887H31.6088V6.56273H32.7054V8.55887L35.0833 8.54449V9.46366H32.7054V13.5854C32.7054 14.5048 33.0613 14.8493 33.702 14.8493C34.0865 14.8493 34.4853 14.7201 34.8981 14.4615L35.2115 15.3664Z" fill="#14232D"/>
<path fill-rule="evenodd" clip-rule="evenodd" d="M43.8407 11.2157V15.8834H42.7299V11.5175C42.7299 10.182 41.9325 9.39206 40.6083 9.39206C39.0133 9.40644 38.0736 10.5408 38.0736 12.1638V15.8834H36.963V5.2271H38.0736V10.0094C38.5863 8.83176 39.6115 8.28603 40.9928 8.27165C42.7868 8.27165 43.8407 9.39206 43.8407 11.2157Z" fill="#14232D"/>
<path fill-rule="evenodd" clip-rule="evenodd" d="M51.7862 11.6181C51.7151 10.1672 50.7467 9.24808 49.2799 9.24808C47.8559 9.24808 46.8309 10.1819 46.6599 11.6181H51.7862ZM52.783 12.5373H46.6599C46.8593 14.0165 47.9274 14.9499 49.3797 14.9499C50.3053 14.9499 51.1169 14.6195 51.7007 14.0021L52.3132 14.6627C51.6011 15.467 50.5474 15.9263 49.2942 15.9263C47.0872 15.9263 45.5635 14.3609 45.5635 12.1062C45.5635 9.85143 47.1014 8.28596 49.2799 8.28596C51.7007 8.27168 52.8969 9.96639 52.783 12.5373Z" fill="#14232D"/>
<path fill-rule="evenodd" clip-rule="evenodd" d="M56.1293 15.8834L53.1532 8.31469H54.3351L56.7274 14.72L59.1053 8.31469H60.2303L57.2826 15.8834H56.1293Z" fill="#14232D"/>
<path fill-rule="evenodd" clip-rule="evenodd" d="M66.7663 11.6181C66.6951 10.1672 65.7268 9.24808 64.26 9.24808C62.836 9.24808 61.8109 10.1819 61.6399 11.6181H66.7663ZM67.7629 12.5373H61.6399C61.8393 14.0165 62.9075 14.9499 64.3597 14.9499C65.2852 14.9499 66.097 14.6195 66.6807 14.0021L67.2931 14.6627C66.5811 15.467 65.5274 15.9263 64.2742 15.9263C62.0673 15.9263 60.5436 14.3609 60.5436 12.1062C60.5436 9.85143 62.0815 8.28596 64.26 8.28596C66.6807 8.27168 67.8769 9.96639 67.7629 12.5373Z" fill="#14232D"/>
<path fill-rule="evenodd" clip-rule="evenodd" d="M76.5344 11.2157V15.8834H75.4238V11.5175C75.4238 10.182 74.6264 9.39206 73.3022 9.39206C71.8212 9.40644 70.9099 10.3828 70.7817 11.819V15.8834H69.671V8.31469H70.7817V9.98074C71.3085 8.83176 72.3195 8.28603 73.6865 8.27165C75.4808 8.27165 76.5344 9.39206 76.5344 11.2157Z" fill="#14232D"/>
<path fill-rule="evenodd" clip-rule="evenodd" d="M82.8852 15.3664C82.3584 15.7254 81.7888 15.9264 81.1907 15.9407C80.0943 15.9407 79.2826 15.28 79.2826 13.7866V9.46366H78.2004V8.55887H79.2826V6.56273H80.3791V8.55887L82.7571 8.54449V9.46366H80.3791V13.5854C80.3791 14.5048 80.7351 14.8493 81.3758 14.8493C81.7603 14.8493 82.159 14.7201 82.572 14.4615L82.8852 15.3664Z" fill="#14232D"/>
<path fill-rule="evenodd" clip-rule="evenodd" d="M91.0732 15.8834H89.9625V14.1744C89.464 15.352 88.4674 15.912 87.1145 15.9263C85.3631 15.9263 84.3093 14.8063 84.3093 12.9824V8.31469H85.4201V12.6809C85.4201 14.0165 86.2032 14.8063 87.499 14.8063C89.0512 14.7776 89.9625 13.643 89.9625 12.0345V8.31469H91.0732V15.8834Z" fill="#14232D"/>
<path fill-rule="evenodd" clip-rule="evenodd" d="M94.8893 9.99507C95.3878 8.88933 96.3133 8.28598 97.5805 8.2717V9.4064C96 9.37744 95.0174 10.3685 94.8893 11.862V15.8834H93.7787V8.31465H94.8893V9.99507Z" fill="#14232D"/>
<path fill-rule="evenodd" clip-rule="evenodd" d="M104.544 11.6181C104.473 10.1672 103.504 9.24808 102.037 9.24808C100.613 9.24808 99.5883 10.1819 99.4174 11.6181H104.544ZM105.54 12.5373H99.4174C99.6167 14.0165 100.685 14.9499 102.137 14.9499C103.063 14.9499 103.875 14.6195 104.458 14.0021L105.071 14.6627C104.359 15.467 103.305 15.9263 102.052 15.9263C99.8447 15.9263 98.321 14.3609 98.321 12.1062C98.321 9.85143 99.8589 8.28596 102.037 8.28596C104.458 8.27168 105.654 9.96639 105.54 12.5373Z" fill="#14232D"/>
<path fill-rule="evenodd" clip-rule="evenodd" d="M108.858 14.8636C108.858 15.5242 108.402 16.0126 107.762 16.0126C107.135 16.0126 106.665 15.5242 106.665 14.8636C106.665 14.1887 107.135 13.7292 107.762 13.7292C108.402 13.7292 108.858 14.1887 108.858 14.8636Z" fill="#14232D"/>
<path fill-rule="evenodd" clip-rule="evenodd" d="M117.088 9.70788L115.608 10.785C115.194 10.268 114.611 9.95207 113.856 9.96646C112.788 9.96646 112.033 10.7992 112.033 12.0345C112.033 13.2839 112.788 14.1314 113.856 14.1314C114.639 14.1314 115.251 13.8296 115.636 13.2265L117.145 14.2607C116.505 15.3377 115.308 15.9697 113.742 15.9697C111.421 15.9697 109.84 14.3899 109.84 12.0489C109.84 9.67921 111.421 8.08517 113.771 8.08517C115.237 8.08517 116.405 8.67385 117.088 9.70788Z" fill="#14232D"/>
<path fill-rule="evenodd" clip-rule="evenodd" d="M118.512 15.8834H120.705V8.15677H118.512V15.8834ZM120.791 5.95938C120.791 6.67759 120.307 7.19465 119.609 7.19465C118.911 7.19465 118.427 6.67759 118.427 5.95938C118.427 5.24146 118.911 4.7244 119.609 4.7244C120.307 4.7244 120.791 5.24146 120.791 5.95938Z" fill="#14232D"/>
<path fill-rule="evenodd" clip-rule="evenodd" d="M127.554 15.4527C126.985 15.7828 126.273 15.984 125.561 15.984C124.194 15.984 123.154 15.1941 123.154 13.5999V10.0238H122.086V8.50153H123.154V6.37615H125.333V8.50153H127.412V10.038H125.333V13.2265C125.333 13.8729 125.603 14.1314 126.073 14.1171C126.358 14.1171 126.7 14.0164 127.099 13.8296L127.554 15.4527Z" fill="#14232D"/>
<path fill-rule="evenodd" clip-rule="evenodd" d="M132.595 16.7453C132.054 18.1094 131.114 18.7701 129.79 18.7701C128.978 18.7701 128.337 18.5403 127.711 18.0232L128.636 16.4292C128.978 16.7162 129.277 16.8454 129.633 16.8454C130.089 16.8454 130.431 16.616 130.644 16.1562L130.858 15.7254L127.682 8.15675H129.947L131.954 13.4707L133.763 8.15675H135.956L132.595 16.7453Z" fill="#14232D"/>
</g>
<defs>
<clipPath id="clip0">
<rect width="136" height="24.4634" fill="white"/>
</clipPath>
</defs>
</svg>
