<svg width="136" height="28" viewBox="0 0 136 28" fill="none" xmlns="http://www.w3.org/2000/svg">
<path fill-rule="evenodd" clip-rule="evenodd" d="M0.285217 0H28.2852V28H0.285217V0ZM8.49855 6.81333L13.3519 15.8667V21.7467H15.2185V15.96L20.0719 6.81333H18.0185L14.3786 14.1867L10.7386 6.81333H8.49855Z" fill="#F26625"/>
<path d="M41.0719 6.41333C42.4719 6.41333 43.6852 6.78667 44.6185 7.53333L43.6852 8.65333C42.8452 8.09333 42.0052 7.72 40.9785 7.72C39.3919 7.72 38.1785 8.56 37.5252 10.1467C37.1519 11.08 36.9652 12.2933 36.9652 13.88C36.9652 15.0933 37.1519 16.12 37.4319 16.8667C38.1785 18.64 39.3919 19.48 41.2585 19.48C42.2852 19.48 43.2185 19.2 44.0585 18.5467L44.9919 19.76C43.7785 20.5067 42.4719 20.88 41.0719 20.88C39.3919 20.88 37.9919 20.2267 36.8719 18.8267C35.7519 17.52 35.2852 15.7467 35.2852 13.6C35.2852 11.4533 35.8452 9.77333 36.9652 8.37333C37.9919 7.16 39.3919 6.41333 41.0719 6.41333Z" fill="#F26625"/>
<path d="M46.3919 15.6533C46.3919 13.9733 46.7652 12.6667 47.6052 11.7333C48.4452 10.8 49.4719 10.24 50.7785 10.24C52.2719 10.24 53.4852 10.8 54.3252 12.0133C54.9785 12.9467 55.2585 14.2533 55.2585 15.84C55.2585 17.7067 54.6985 19.2 53.6719 20.1333C52.9252 20.7867 51.9919 21.16 50.8719 21.16C49.4719 21.16 48.4452 20.6933 47.6052 19.6667C46.7652 18.7333 46.3919 17.3333 46.3919 15.6533ZM52.9252 12.9467C52.4586 12.1067 51.8052 11.64 50.7785 11.64C49.7519 11.64 49.0985 12.0133 48.6319 12.76C48.2585 13.32 48.1652 14.2533 48.1652 15.4667C48.1652 17.0533 48.3519 18.1733 48.8185 18.8267C49.2852 19.48 49.9386 19.8533 50.8719 19.8533C51.9919 19.8533 52.7385 19.2933 53.1119 18.2667C53.2985 17.7067 53.3839 16.9082 53.3919 16.0267C53.4029 14.8102 53.2985 13.6 52.9252 12.9467Z" fill="#F26625"/>
<path d="M58.2452 13.1333C58.2452 12.1067 58.1519 11.2667 57.8719 10.6133L59.4585 10.24C59.7385 10.7067 59.8319 11.2667 59.8319 11.7333V11.8267C60.2052 11.4533 60.5785 11.08 61.1385 10.8C61.7919 10.4267 62.3519 10.24 62.9119 10.24C63.7519 10.24 64.4986 10.6133 64.9652 11.2667C65.0586 11.4533 65.2452 11.7333 65.3385 11.92C66.4585 10.8 67.4852 10.24 68.6052 10.24C69.3519 10.24 70.0052 10.52 70.4719 10.9867C70.9385 11.5467 71.2185 12.2 71.2185 12.9467V20.6933H69.5385V13.04C69.5385 12.0133 69.0719 11.5467 68.2319 11.5467C67.7652 11.5467 67.2736 11.7878 66.7385 12.1067C66.2935 12.3719 65.7119 12.9467 65.7119 12.9467L65.5252 13.1333V20.6933H63.7519V13.4133C63.7519 12.76 63.6585 12.2933 63.4719 12.1067C63.1919 11.8267 62.9119 11.7333 62.4452 11.7333C61.6985 11.7333 60.8585 12.2 59.8319 13.1333V20.7867H58.2452V13.1333Z" fill="#F26625"/>
<path d="M74.1119 6.04L75.7919 5.66667C75.9785 6.41333 76.0719 7.25333 76.0719 8.28V10.6133C76.0719 11.1733 76.0719 11.5467 76.0719 11.7333C77.0052 10.8 78.0319 10.3333 79.0585 10.3333C80.2719 10.3333 81.2985 10.8 81.9519 11.7333C82.6985 12.6667 83.0719 13.9733 83.0719 15.56C83.0719 17.24 82.6985 18.5467 81.9519 19.5733C81.2052 20.6 80.1786 21.0667 78.9652 21.0667C78.4052 21.0667 77.9385 20.9733 77.3785 20.6933C76.8185 20.4133 76.4452 20.1333 76.1652 19.76C76.0719 20.2267 75.9785 20.6 75.8852 20.88H74.2985C74.4852 20.4133 74.5785 19.2931 74.5785 18.2667C74.5785 12.3867 74.5785 12.3 74.5785 8.46667C74.5785 7.50163 74.3919 6.50667 74.1119 6.04ZM76.8185 12.3867C76.5385 12.5733 76.2585 12.8533 76.0719 13.1333V18.4533C76.7252 19.2933 77.5652 19.6667 78.5919 19.6667C79.4319 19.6667 80.0852 19.3867 80.4585 18.7333C80.9252 17.9867 81.2052 16.96 81.2052 15.4667C81.2052 14.16 81.0185 13.2267 80.5519 12.6667C80.1785 12.1067 79.4244 11.8468 78.5919 11.8267C77.8659 11.8091 77.3785 11.92 76.8185 12.3867Z" fill="#F26625"/>
<path d="M85.4986 7.34667C85.4986 6.97333 85.5919 6.69333 85.8719 6.41333C86.1519 6.13333 86.4319 6.04 86.8052 6.04C87.1785 6.04 87.4585 6.13333 87.7385 6.41333C88.0185 6.69333 88.1119 6.97333 88.1119 7.34667C88.1119 7.72 88.0185 8 87.7385 8.28C87.4585 8.56 87.1785 8.65333 86.8052 8.65333C86.4319 8.65333 86.1519 8.56 85.8719 8.28C85.5919 8 85.4986 7.72 85.4986 7.34667ZM85.8719 20.7867V10.52L87.5519 10.24V20.7867H85.8719Z" fill="#F26625"/>
<path d="M91.1919 13.1333C91.1919 12.3867 91.221 12.2674 91.0985 11.7333C91.0032 11.3175 90.9119 11.1733 90.7252 10.7067L92.3119 10.24C92.5919 10.8 92.6852 11.2667 92.6852 11.8267C93.7119 10.8 94.8319 10.24 95.9519 10.24C96.5119 10.24 96.9785 10.3333 97.4452 10.6133C97.9119 10.8933 98.2852 11.2667 98.4719 11.7333C98.6585 12.1067 98.7519 12.48 98.7519 12.9467V20.7867H97.1652V13.7867C97.1652 12.9467 97.0719 12.3867 96.7919 12.1067C96.5119 11.8267 96.1385 11.64 95.6719 11.64C95.2985 11.64 94.7385 11.8267 94.1785 12.1067C93.6185 12.3867 93.1519 12.76 92.7785 13.1333V20.7867H91.1919V13.1333Z" fill="#F26625"/>
<path d="M102.485 12.76L101.645 11.64C103.045 10.7067 104.445 10.24 105.939 10.24C107.432 10.24 108.365 10.8 108.832 11.8267C109.019 12.2 109.019 12.76 109.019 13.6V14.16L108.925 17.52C108.925 17.6133 108.925 17.8 108.925 17.9867C108.925 18.5467 108.925 18.92 109.019 19.2C109.112 19.5733 109.392 19.8533 109.765 20.04L108.925 21.16C108.179 20.88 107.712 20.4133 107.525 19.6667C106.592 20.6 105.565 21.0667 104.539 21.0667C103.512 21.0667 102.672 20.7867 102.019 20.2267C101.459 19.76 101.179 19.0133 101.179 18.08C101.179 16.8667 101.645 16.0267 102.579 15.3733C103.512 14.72 104.912 14.44 106.592 14.44C106.872 14.44 107.059 14.44 107.339 14.44V13.6933C107.339 12.8533 107.39 12.5806 106.965 12.1067C106.572 11.6682 106.219 11.5467 105.565 11.5467C105.005 11.5467 104.315 11.6736 103.605 12.0133C103.131 12.2403 102.952 12.48 102.485 12.76ZM107.432 18.2667L107.525 15.56C107.059 15.56 106.779 15.56 106.685 15.56C105.192 15.56 104.259 15.84 103.699 16.4C103.325 16.7733 103.139 17.3333 103.139 18.08C103.139 19.2933 103.699 19.9467 104.912 19.9467C106.032 19.8533 106.872 19.2933 107.432 18.2667Z" fill="#F26625"/>
<path d="M114.339 10.52H116.952L116.485 11.8267H114.339V18.4533C114.339 19.0133 114.432 19.3867 114.619 19.6667C114.805 19.8533 115.179 20.04 115.645 20.04C116.019 20.04 116.392 19.9467 116.672 19.8533L116.859 20.88C116.299 21.16 115.739 21.2533 115.085 21.2533C113.499 21.2533 112.752 20.5067 112.752 18.92V11.8267H111.352V10.52H112.659L112.845 7.90667L114.525 7.53333L114.339 10.52Z" fill="#F26625"/>
<path d="M118.632 15.6533C118.632 13.9733 119.005 12.6667 119.845 11.7333C120.592 10.8 121.712 10.24 123.019 10.24C124.512 10.24 125.725 10.8 126.565 12.0133C127.219 12.9467 127.499 14.2533 127.499 15.84C127.499 17.7067 126.939 19.2 125.912 20.1333C125.165 20.7867 124.232 21.16 123.112 21.16C121.712 21.16 120.685 20.6933 119.845 19.6667C119.099 18.7333 118.632 17.3333 118.632 15.6533ZM125.259 12.9467C124.792 12.1067 124.139 11.64 123.112 11.64C122.085 11.64 121.432 12.0133 120.965 12.76C120.592 13.32 120.499 14.2533 120.499 15.4667C120.499 17.0533 120.685 18.1733 121.152 18.8267C121.619 19.48 122.272 19.8533 123.205 19.8533C124.325 19.8533 125.072 19.2933 125.445 18.2667C125.632 17.7067 125.725 16.96 125.725 16.0267C125.725 14.6267 125.539 13.6 125.259 12.9467Z" fill="#F26625"/>
<path d="M130.205 10.7067C130.485 11.2667 130.579 12.0133 130.579 12.9467V20.9733H132.165V14.5333C132.165 14.5333 132.165 13.9509 132.352 13.4133C132.539 12.8757 132.952 12.3867 133.752 12.2C134.552 12.0133 134.779 12.1067 134.965 12.2L135.619 10.4267C135.432 10.3333 135.245 10.3333 135.059 10.3333C133.939 10.3333 133.005 10.8933 132.165 12.0133V11.8267C132.165 11.2667 132.072 10.8 131.792 10.24L130.205 10.7067Z" fill="#F26625"/>
</svg>
