<?xml version="1.0" encoding="UTF-8"?>
<svg width="14px" height="11px" viewBox="0 0 14 11" version="1.1" xmlns="http://www.w3.org/2000/svg" xmlns:xlink="http://www.w3.org/1999/xlink">
    <!-- Generator: Sketch 64 (93537) - https://sketch.com -->
    <title>Path</title>
    <desc>Created with Sketch.</desc>
    <g id="Page-1" stroke="none" stroke-width="1" fill="none" fill-rule="evenodd">
        <g id="Core---1440" transform="translate(-835.000000, -4439.000000)" fill="#FFFFFF" fill-rule="nonzero" stroke="#FFFFFF">
            <path d="M844.080661,4440.13125 C843.91718,4439.95625 843.645094,4439.95625 843.475897,4440.13125 C843.312417,4440.30034 843.312417,4440.58177 843.475897,4440.75046 L846.542394,4443.92219 L836.423372,4443.92219 C836.187488,4443.92258 836,4444.1165 836,4444.36048 C836,4444.60446 836.187488,4444.80469 836.423372,4444.80469 L846.542394,4444.80469 L843.475897,4447.9705 C843.312417,4448.14551 843.312417,4448.42732 843.475897,4448.59602 C843.645094,4448.77102 843.917561,4448.77102 844.080661,4448.59602 L847.873103,4444.67344 C848.042299,4444.50435 848.042299,4444.22292 847.873103,4444.05423 L844.080661,4440.13125 Z" id="Path"></path>
        </g>
    </g>
</svg>