<svg width="862" height="552" viewBox="0 0 862 552" fill="none" xmlns="http://www.w3.org/2000/svg">
<path d="M443.696 323.893C400.059 399.473 355.674 481.499 261.007 506.865C166.34 532.23 73.3161 479.509 46.384 378.997C21.6482 286.682 74.8374 185.997 177.661 158.446C264.13 135.276 346.896 187 418.018 228.062C461.655 152.482 506.041 70.4563 600.708 45.0904C700.036 18.4756 788.399 72.4459 815.331 172.958C840.067 265.273 786.877 365.958 684.054 393.509C597.584 416.679 514.819 364.955 443.696 323.893ZM384.107 288.504C327.248 258.65 263.069 210.71 195.283 228.873C136.86 244.528 105.278 304.346 119.996 359.273C135.968 418.881 189.622 450.843 246.88 435.5C313.501 417.649 351.901 345.992 384.107 288.504ZM741.699 192.688C725.727 133.08 672.072 101.118 614.814 116.46C548.194 134.311 509.794 205.968 477.588 263.456C534.446 293.311 598.626 341.25 666.411 323.087C724.835 307.433 756.416 247.615 741.699 192.688Z" fill="#0066FF"/>
<path d="M791.138 187.657C785.211 287.618 702.588 313.284 671.148 321.709L671.087 321.725C726.537 304.216 756.064 246.132 741.74 192.677C725.774 133.089 672.114 101.107 614.856 116.449C548.235 134.3 509.835 205.957 477.629 263.445L459.004 252.398C497.284 178.165 531.28 109.287 590.767 71.7667C680.596 15.096 797.544 79.5916 791.144 187.677L791.138 187.657Z" fill="#0058DB"/>
<path d="M802.951 297.323C802.951 297.323 802.912 297.42 802.882 297.472L803.035 297.149C803.035 297.149 802.975 297.252 802.945 297.303L802.951 297.323Z" fill="#007FFD"/>
<g style="mix-blend-mode:overlay">
<path d="M245.45 435.884C242.787 436.575 240.148 437.195 237.514 437.747C229.457 439.161 224.535 439.187 223.75 439.2C224.16 439.178 224.591 439.15 225.001 439.128C225.042 439.117 225.088 439.127 225.129 439.116C228.924 438.888 232.767 438.428 236.641 437.762C237.63 437.607 238.586 437.416 239.564 437.22C241.518 436.828 243.482 436.389 245.45 435.884Z" fill="#0066FF"/>
</g>
<path d="M742.444 348.045C709.166 362.855 672.393 366.749 636.178 363.483C585.659 358.922 538.119 340.702 493.868 316.606C434.38 284.214 380.817 242.127 321.344 209.709C318.059 207.916 314.759 206.149 311.424 204.414C251.745 173.518 172.679 168.062 119.247 209.7C130.864 203.586 197.012 172.037 269.825 203.378C334.638 231.277 404.086 292.418 474.536 341.68C538.29 378.056 609.809 413.403 684.075 393.504C739.923 378.539 781.116 341.999 803.162 296.962C791.767 320.259 765.195 337.939 742.47 348.06L742.444 348.045Z" fill="#0001B8"/>
<g style="mix-blend-mode:multiply" opacity="0.94">
<path d="M791.138 187.657C785.211 287.618 702.588 313.284 671.148 321.709L671.087 321.725C726.537 304.216 756.064 246.132 741.74 192.677C725.774 133.089 672.114 101.107 614.856 116.449C548.235 134.3 509.835 205.957 477.629 263.445L459.004 252.398C497.284 178.165 531.28 109.287 590.767 71.7667C680.596 15.096 797.544 79.5916 791.144 187.677L791.138 187.657Z" fill="#0066FF"/>
</g>
<g style="mix-blend-mode:multiply" opacity="0.84">
<path d="M443.697 323.893C429.6 348.309 415.423 373.404 399.495 397.039C366.118 446.559 325.072 489.698 261.007 506.864C196.942 524.031 133.975 506.373 92.1761 462.646C93.94 463.751 169.325 531.431 275.078 479.98C320.803 457.737 348.855 420.643 376.597 386.808C395.687 363.53 412.456 338.946 426.92 313.775L443.677 323.898L443.697 323.893Z" fill="#0006BE"/>
</g>
<path d="M773.139 193.991C771.75 231.083 748.652 274.891 714.057 295.663C740.451 269.223 751.285 228.789 741.618 192.709C725.81 133.714 670.765 101.468 614.836 116.454C576.343 126.768 547.265 155.045 523.366 188.178C529.252 178.254 534.278 170.027 534.95 169.102C551.885 146.204 572.014 124.839 596.192 109.509C653.64 73.1268 747.084 88.9057 768.71 159.882C772.072 170.878 773.535 182.47 773.107 193.956L773.139 193.991Z" fill="#0011C0"/>
<path d="M474.515 341.685C472.162 340.344 469.829 338.997 467.502 337.671L443.697 323.893L426.287 313.375C424.125 312.092 414.761 306.582 405.341 301.109C394.677 294.918 383.963 288.784 383.963 288.784C383.963 288.784 377.182 284.817 373.741 282.934C351.529 270.767 329.854 257.579 306.991 246.66C297.82 242.281 288.461 238.26 278.876 234.869C267.375 230.786 255.454 227.671 243.348 226.073C229.025 224.214 214.488 224.582 200.351 227.669C177.351 232.758 156.434 245.132 141.313 263.272C127.48 279.839 118.881 300.569 116.886 322.071C115.715 334.545 116.765 347.212 120.007 359.313C120.172 359.927 120.336 360.54 120.5 361.153C120.588 361.48 120.67 361.787 120.758 362.114C120.884 362.584 121.025 363.028 121.166 363.473C121.231 363.718 121.297 363.963 121.383 364.203C121.471 364.53 121.584 364.872 121.692 365.194C121.786 365.541 121.914 365.857 122.028 366.199C122.126 366.567 122.271 366.945 122.39 367.307C122.687 368.17 122.984 369.032 123.301 369.889C123.409 370.211 123.532 370.507 123.64 370.828C123.721 371.048 123.807 371.287 123.888 371.507C124.049 371.946 124.231 372.379 124.387 372.797C125.171 374.822 126.025 376.784 126.9 378.741C127.054 379.072 127.214 379.423 127.374 379.775C128.812 382.851 130.356 385.833 132.021 388.696C132.233 389.077 132.465 389.453 132.703 389.849C132.935 390.225 133.147 390.607 133.379 390.983C136.62 396.293 140.266 401.231 144.212 405.739C144.458 406.002 144.683 406.27 144.929 406.533C145.609 407.271 146.289 408.009 146.968 408.747C147.209 408.989 147.428 409.237 147.669 409.48C148.786 410.626 149.945 411.762 151.093 412.856C151.505 413.25 151.938 413.638 152.344 414.011C152.892 414.499 153.413 414.973 153.955 415.442C154.497 415.91 155.038 416.378 155.601 416.841C156.788 417.837 158.005 418.782 159.217 419.706C159.69 420.083 160.178 420.434 160.693 420.8C161.155 421.137 161.638 421.467 162.101 421.803C162.293 421.949 162.48 422.074 162.688 422.194C162.688 422.194 162.688 422.194 162.714 422.209C163.202 422.56 163.705 422.885 164.209 423.211C165.408 424.007 166.596 424.762 167.82 425.485C167.846 425.5 167.872 425.515 167.903 425.551C168.479 425.9 169.07 426.224 169.645 426.574C170.267 426.933 170.884 427.272 171.501 427.61C172.091 427.934 172.676 428.237 173.288 428.556C173.313 428.571 173.36 428.58 173.386 428.595C176.54 430.226 179.772 431.66 183.094 432.939C183.756 433.2 184.432 433.435 185.088 433.675C187.097 434.386 189.136 435.045 191.199 435.631C193.263 436.218 195.35 436.732 197.463 437.174C198.158 437.316 198.853 437.458 199.569 437.595C207.325 439.066 215.363 439.629 223.581 439.224L223.601 439.218L223.647 439.228C224.438 439.235 229.335 439.194 237.289 437.807C119.708 462.368 39.7785 349.436 77.4944 264.269C81.0456 256.262 85.2174 248.528 90.0795 241.244C98.4566 228.68 108.281 218.247 119.155 209.769C130.772 203.654 196.921 172.105 269.734 203.447C334.547 231.345 403.995 292.487 474.444 341.748L474.515 341.685Z" fill="#000DC0"/>
<g style="mix-blend-mode:multiply">
<path d="M405.341 301.109C403.025 304.731 400.664 308.431 398.233 312.193C334.691 410.547 266.208 432.731 237.508 437.727C229.452 439.14 224.529 439.167 223.744 439.18L223.703 439.191L223.662 439.202C224.114 439.169 224.544 439.141 225.001 439.128C225.042 439.117 225.088 439.126 225.129 439.116C228.919 438.867 232.767 438.427 236.641 437.762C237.624 437.586 238.586 437.416 239.564 437.22C242.02 436.737 244.474 436.167 246.907 435.515C313.425 417.691 351.813 346.234 383.969 288.804C391.111 292.893 398.234 296.988 405.347 301.129L405.341 301.109Z" fill="#0006BE"/>
<path d="M728.399 57.5204C725.078 56.0003 637.296 16.7072 556.68 81.5134C507.701 120.885 488.965 162.165 441.602 242.074L418.045 228.076C461.667 152.522 506.088 70.4652 600.735 45.1047C647.465 32.5833 691.791 37.9053 728.399 57.5204Z" fill="#000ABE"/>
</g>
<path d="M724.934 55.7107C725.39 55.9392 725.846 56.1676 726.301 56.3961C726.99 56.7593 727.699 57.1169 728.394 57.5005C720.561 53.2894 710.853 51.1581 702.257 49.1672C692.326 46.8548 682.183 45.3879 672.009 44.7839C651.706 43.5854 631.169 45.8458 611.716 51.825C605.602 53.7041 599.593 55.9715 593.744 58.5905C556.82 75.1666 527.553 105.356 504.202 138.408C480.851 171.46 462.586 207.795 441.442 242.293C377.875 203.019 311.802 162.816 237.725 153C312.83 164.118 377.042 210.866 438.786 255.033C500.531 299.199 567.163 343.7 642.907 349.104C675.385 351.422 708.949 346.021 737.305 330.01C778.846 306.545 806.107 260.855 810.194 213.312C811.985 192.522 809.521 171.47 803.513 151.499C797.488 131.467 787.933 112.49 775.53 95.6347C773.354 92.6682 771.244 89.6185 768.816 86.8513C766.576 84.2966 763.699 82.6356 761.041 80.5653C757.743 77.9873 754.747 75.0654 751.449 72.4874C751.366 72.4221 751.308 72.3717 751.225 72.3064C751.194 72.271 751.168 72.256 751.142 72.2411C750.757 71.9498 750.367 71.6381 749.982 71.3468C749.951 71.3114 749.925 71.2965 749.873 71.2665C749.738 71.1713 749.623 71.0705 749.488 70.9752C748.173 69.9912 746.857 69.0072 745.533 68.0695C745.527 68.0491 745.481 68.0396 745.475 68.0191C745.283 67.8735 745.076 67.7538 744.883 67.6081C744.852 67.5727 744.826 67.5578 744.78 67.5483C744.4 67.2775 744 67.0121 743.621 66.7413C743.564 66.6909 743.492 66.6665 743.434 66.6161C741.985 65.624 740.516 64.6375 739.037 63.6972C738.424 63.2917 737.797 62.9122 737.19 62.5271C736.614 62.1774 736.033 61.8073 735.463 61.4781C735.328 61.3829 735.198 61.308 735.043 61.2183C734.757 61.0537 734.467 60.8686 734.182 60.704C733.767 60.4646 733.347 60.2047 732.932 59.9653C732.854 59.9204 732.777 59.8755 732.704 59.851C732.056 59.4769 731.408 59.1028 730.766 58.7491C730.092 58.3601 729.403 57.9969 728.714 57.6337C728.611 57.5739 728.512 57.5345 728.435 57.4896C727.849 57.1863 727.285 56.8775 726.699 56.5742L724.97 55.6793L724.934 55.7107ZM523.91 138.123C527.997 132.361 532.195 126.767 536.54 121.396C544.892 111.03 553.776 101.419 563.342 92.7212C571.887 84.9542 580.984 77.9377 590.782 71.741C597.457 67.5424 604.261 63.9885 611.179 61.1051C612.912 60.3778 614.636 59.6969 616.365 59.0364C618.058 58.4072 619.763 57.819 621.453 57.2567C623.429 56.6177 625.416 56.0196 627.414 55.4624C629.882 54.7792 632.371 54.1777 634.857 53.6431C638.484 52.8685 642.108 52.248 645.75 51.776C667.065 49.0663 688.265 51.7332 707.621 58.8819C710.126 59.81 712.581 60.7953 715.017 61.8735C717.427 62.9366 719.787 64.0571 722.128 65.2703C723.397 65.9163 724.671 66.5827 725.909 67.2806C726.759 67.754 727.614 68.2478 728.464 68.7211C728.801 68.9157 729.118 69.1157 729.455 69.3102C731.021 70.249 732.572 71.2137 734.108 72.2042C735.811 73.3255 737.473 74.4577 739.11 75.6622C740.633 76.7659 742.12 77.9011 743.592 79.0621C744.955 80.1429 746.304 81.2496 747.616 82.3877C748.611 83.2385 749.591 84.1152 750.551 84.9974C750.78 85.1989 751.014 85.4208 751.244 85.6223C752.355 86.6611 753.445 87.7054 754.521 88.7756C754.704 88.9676 754.907 89.1541 755.09 89.3461C755.905 90.1794 756.72 91.0128 757.514 91.8515C758.131 92.5188 758.748 93.186 759.37 93.8737C759.653 94.1924 759.961 94.526 760.224 94.8501C761.045 95.7911 761.873 96.7526 762.659 97.725C762.79 97.887 762.916 98.0286 763.047 98.1907C764.153 99.5376 765.223 100.916 766.278 102.32C767.26 103.613 768.206 104.937 769.138 106.286C770.001 107.545 770.869 108.824 771.677 110.119C772.014 110.643 772.351 111.166 772.668 111.694C773.096 112.39 773.529 113.107 773.956 113.803C774.315 114.408 774.68 115.033 775.019 115.643C775.347 116.213 775.68 116.803 775.988 117.378C776.623 118.522 777.212 119.657 777.806 120.812C778.358 121.891 778.89 122.976 779.406 124.086C779.881 125.12 780.35 126.134 780.809 127.194C781.086 127.821 781.364 128.447 781.626 129.1L782.023 130.089C785.348 138.247 787.865 146.906 789.451 156.012C791.195 166.039 791.835 176.603 791.168 187.605C789.56 214.721 782.307 236.383 771.961 253.703C762.854 268.939 751.38 280.821 739.242 290.142C737.458 291.496 735.683 292.805 733.892 294.051C727.042 298.823 720.056 302.842 713.255 306.242C702.681 311.507 692.513 315.261 683.929 317.977C679.145 319.5 674.822 320.702 671.204 321.672L671.163 321.683C671.163 321.683 671.245 321.661 671.285 321.65C670.897 321.754 670.499 321.904 670.09 322.014C669.743 322.107 669.401 322.221 669.059 322.334C669.018 322.345 668.956 322.362 668.916 322.373C668.568 322.466 668.221 322.559 667.873 322.652C667.832 322.663 667.791 322.674 667.75 322.685C667.342 322.794 666.933 322.904 666.503 323.019C665.972 323.161 665.441 323.304 664.929 323.441C664.439 323.572 663.948 323.704 663.447 323.794C662.854 323.953 662.291 324.06 661.693 324.198C661.176 324.315 660.68 324.426 660.158 324.522C659.268 324.717 658.352 324.896 657.451 325.05C657.16 325.106 656.868 325.163 656.576 325.219C656.197 325.277 655.803 325.36 655.425 325.418C654.964 325.497 654.503 325.577 654.017 325.642C652.798 325.837 651.574 326.011 650.36 326.14C649.934 326.188 649.53 326.231 649.104 326.279C648.571 326.334 648.059 326.384 647.526 326.439C647.013 326.489 646.48 326.544 645.962 326.573C645.942 326.578 645.921 326.584 645.901 326.589C645.84 326.606 645.752 326.607 645.665 326.609C645.47 326.617 645.281 326.646 645.086 326.654C644.742 326.681 644.419 326.702 644.096 326.722C643.625 326.761 643.148 326.779 642.655 326.824C642.199 326.837 641.748 326.87 641.291 326.883C641.096 326.891 640.901 326.899 640.706 326.908C639.86 326.937 638.993 326.973 638.141 326.982C638.141 326.982 638.12 326.987 638.1 326.993C637.556 327.007 637.006 327.001 636.462 327.015C635.893 327.014 635.349 327.029 634.773 327.008C633.983 327 633.192 326.993 632.416 326.96C631.821 326.944 631.204 326.934 630.624 326.893C630.583 326.904 630.536 326.894 630.49 326.885C630.048 326.872 629.607 326.858 629.18 326.819C628.738 326.806 628.311 326.767 627.864 326.734C627.423 326.721 626.996 326.682 626.569 326.643C626.122 326.609 625.701 326.591 625.268 326.531C624.908 326.496 624.549 326.461 624.194 326.446C623.793 326.422 623.407 326.372 623.001 326.328C622.641 326.293 622.281 326.258 621.921 326.223C621.921 326.223 621.808 326.209 621.741 326.205C621.381 326.17 621.021 326.135 620.656 326.08C620.137 326.022 619.638 325.958 619.118 325.9C618.552 325.833 617.961 325.75 617.395 325.683C616.829 325.615 616.258 325.528 615.686 325.44C615.115 325.352 614.544 325.264 613.972 325.176C613.447 325.097 612.897 325.004 612.366 324.905C612.346 324.911 612.299 324.901 612.273 324.886C611.789 324.797 611.305 324.707 610.801 324.623C610.317 324.534 609.833 324.445 609.323 324.34C608.839 324.251 608.349 324.141 607.865 324.052C605.892 323.638 603.913 323.204 601.944 322.724C601.475 322.609 601.006 322.494 600.557 322.373C599.547 322.118 598.537 321.863 597.521 321.587C597.072 321.466 596.644 321.34 596.195 321.219C595.819 321.123 595.437 321.006 595.055 320.889C594.699 320.788 594.343 320.686 593.987 320.584C588.849 319.069 583.722 317.353 578.654 315.447C578.654 315.447 578.53 315.392 578.484 315.383C578.143 315.255 577.802 315.127 577.461 315C577.068 314.842 576.681 314.705 576.288 314.547C574.04 313.681 571.802 312.769 569.559 311.837C569.062 311.619 568.571 311.422 568.075 311.205C567.133 310.8 566.198 310.415 565.277 310.004C565.127 309.935 564.957 309.871 564.807 309.802C564.015 309.466 563.239 309.104 562.469 308.763C562.169 308.624 561.869 308.486 561.568 308.347C560.948 308.075 560.322 307.783 559.701 307.511C559.329 307.348 558.977 307.179 558.599 306.996C558.045 306.728 557.477 306.486 556.923 306.218C555.691 305.628 554.439 305.043 553.202 304.432C552.276 304.001 551.364 303.544 550.433 303.093C549.47 302.606 548.492 302.145 547.523 301.638C546.56 301.151 545.597 300.664 544.634 300.177C543.671 299.69 542.703 299.183 541.734 298.676C540.771 298.189 539.803 297.681 538.855 297.169C537.886 296.661 536.938 296.149 535.969 295.641C531.194 293.109 526.463 290.498 521.773 287.877L521.695 287.832C521.695 287.832 521.643 287.802 521.623 287.808L521.338 287.643C520.773 287.334 520.208 287.025 519.664 286.711C518.477 286.043 517.264 285.36 516.078 284.692C515.43 284.318 514.787 283.965 514.139 283.591C507.324 279.742 500.596 275.892 493.952 272.195C492.144 271.168 490.32 270.167 488.522 269.181C485.076 267.278 481.647 265.436 478.254 263.65C478.099 263.56 477.923 263.476 477.773 263.407L477.565 263.287L476.414 262.588L474.542 261.49L472.67 260.392L470.928 259.369L470.845 259.304C470.69 259.214 470.612 259.169 470.612 259.169L469.025 258.236L467.226 257.162L465.452 256.104L463.731 255.075L462.066 254.097L460.474 253.143L459.168 252.354C459.282 252.126 459.401 251.919 459.516 251.691C467.992 235.245 476.257 219.074 484.649 203.46C487.616 197.933 490.619 192.461 493.624 187.077C503.318 169.779 513.298 153.302 524.079 138.1L523.91 138.123Z" fill="#007FFD"/>
<path d="M426.961 313.764C424.297 318.377 421.607 322.976 418.814 327.515C417.43 329.792 416.021 332.054 414.611 334.315C413.201 336.577 411.766 338.824 410.33 341.071C404.536 350.029 398.53 358.847 392.284 367.509C386.039 376.172 379.471 384.614 372.456 392.694L369.801 395.706L368.471 397.202L367.089 398.668L364.325 401.599C363.408 402.59 362.422 403.489 361.473 404.445C360.518 405.38 359.575 406.356 358.589 407.255L355.636 409.974C353.696 411.809 351.672 413.578 349.669 415.342C341.584 422.372 333.148 428.992 324.302 435.065C315.425 441.103 306.143 446.526 296.494 451.236C286.834 455.906 276.814 459.884 266.478 462.85C256.169 465.832 245.578 467.925 234.904 469.054C213.53 471.298 191.872 469.542 171.008 464.857C165.788 463.692 160.606 462.342 155.468 460.827C150.35 459.306 145.266 457.667 140.223 455.775C135.241 453.78 130.313 451.661 125.599 449.112C123.197 447.915 120.914 446.511 118.587 445.184C117.441 444.506 116.32 443.754 115.189 443.05L113.497 441.969C112.942 441.614 112.396 441.213 111.835 440.837L108.547 438.541L105.354 436.11L103.758 434.895L102.212 433.622C101.191 432.756 100.14 431.942 99.1141 431.056C95.0611 427.541 91.2 423.843 87.5106 419.968C83.8565 416.061 80.3441 412.029 77.0496 407.829C73.7701 403.603 70.6431 399.292 67.6932 394.824C55.9453 376.983 47.0377 357.394 40.47 337.135C43.9146 347.211 47.9412 357.086 52.6094 366.659C54.9435 371.445 57.4098 376.152 60.0286 380.774C62.6884 385.386 65.4952 389.892 68.4546 394.313C71.429 398.709 74.6118 402.983 77.9158 407.137C81.2402 411.285 84.7771 415.245 88.4501 419.059C92.1586 422.842 96.044 426.467 100.075 429.9C101.09 430.746 102.141 431.56 103.156 432.405L104.697 433.657L106.288 434.852L109.485 437.216L112.756 439.451C113.317 439.826 113.837 440.213 114.413 440.563L116.099 441.623C117.224 442.307 118.34 443.038 119.486 443.717C121.803 445.002 124.054 446.371 126.45 447.547C131.128 450.04 136.013 452.083 140.933 454.008C145.886 455.813 150.959 457.412 156.061 458.871C161.163 460.331 166.308 461.625 171.491 462.734C192.193 467.221 213.595 468.761 234.602 466.374C245.1 465.161 255.475 462.994 265.593 459.954C275.717 456.935 285.526 452.904 294.985 448.223C304.445 443.541 313.553 438.121 322.298 432.162C331.043 426.204 339.424 419.708 347.455 412.802C349.469 411.079 351.483 409.356 353.435 407.563L356.383 404.91C357.374 404.031 358.303 403.081 359.248 402.193C363.078 398.581 366.678 394.681 370.252 390.765C377.374 382.92 384 374.615 390.506 366.189C396.966 357.754 403.197 349.117 409.24 340.356C415.336 331.624 421.193 322.736 426.992 313.799L426.961 313.764Z" fill="#007FFD"/>
<path style="mix-blend-mode:multiply" opacity="0.94" d="M791.138 187.741C785.212 287.703 702.588 313.369 671.148 321.793L671.087 321.81C726.537 304.301 756.064 246.217 741.741 192.761C725.774 133.174 672.114 101.191 614.856 116.534C548.236 134.384 509.836 206.042 477.63 263.53L459.004 252.483C497.284 178.25 531.28 109.372 590.768 71.8514C680.596 15.1808 797.545 79.6763 791.144 187.762L791.138 187.741Z" fill="url(#paint0_linear_1502_3851)" fill-opacity="0.1"/>
<defs>
<linearGradient id="paint0_linear_1502_3851" x1="567.542" y1="336.694" x2="664.466" y2="163.906" gradientUnits="userSpaceOnUse">
<stop/>
<stop offset="0.06" stop-color="#131313"/>
<stop offset="0.41" stop-color="#767676"/>
<stop offset="0.7" stop-color="#C0C0C0"/>
<stop offset="0.9" stop-color="#EDEDED"/>
<stop offset="1" stop-color="white"/>
</linearGradient>
</defs>
</svg>
