<svg width="874" height="852" viewBox="0 0 874 852" fill="none" xmlns="http://www.w3.org/2000/svg">
<g clip-path="url(#clip0_10165_631)">
<path d="M753.77 651.407C766.43 637.107 771.37 644.757 779.49 631.457C787.61 618.117 798.05 615.707 802.31 619.417C806.57 623.167 813.59 615.777 820.37 614.177C827.11 612.577 827.42 597.117 835.61 590.927C843.8 584.707 835.03 600.577 836.34 608.207C837.65 615.797 846.27 612.067 840.94 620.007C836.36 626.807 832.52 634.557 839.25 645.297C854.85 611.097 866.33 574.827 873.13 537.187C870.34 540.097 867.77 543.247 865.93 546.427C859.07 558.467 853.97 580.757 848.8 580.347C843.6 579.977 848.16 552.707 841.56 547.767C834.99 542.817 830.8 546.437 830.04 528.987C829.28 511.567 828.48 495.757 824.42 490.697C820.33 485.647 823.79 476.117 811.22 471.587C798.65 467.057 801.64 460.467 804.51 456.787C807.39 453.107 818.78 432.077 807.66 426.757C796.51 421.447 777.95 419.977 774.13 409.997C770.27 399.987 791.05 367.467 791.36 361.697C791.63 355.897 768.42 360.217 764.8 354.117C761.22 348.037 759.41 330.157 771.86 333.767C784.28 337.377 750.16 315.327 755.43 308.917C760.72 302.467 801.44 309.057 797.59 301.657C793.78 294.247 776.96 285.637 774.93 273.867C772.9 262.057 773.52 239.637 776.82 236.497C780.12 233.397 768.5 224.107 763.63 215.577C758.76 207.047 752.91 188.587 761.84 192.147C770.74 195.717 764.46 203.817 771.11 212.587C777.72 221.327 789.7 225.997 793.7 223.387C797.74 220.777 798.61 235.317 802.44 226.047C806.27 216.737 795.86 209.917 795.01 204.967C794.64 202.827 798.67 202.887 803.43 202.577C784.09 173.677 761.55 147.237 736.49 123.727C735.42 128.647 736.43 134.117 741.61 139.557C758.24 157.137 767.08 167.727 765.37 171.207C763.62 174.727 747.97 152.927 746.64 156.347C745.32 159.797 751.16 166.637 746.74 166.787C742.27 166.907 746.92 174.167 743.06 174.007C739.19 173.807 739.74 165.857 740.44 162.337C741.1 158.827 740.13 149.397 738.37 148.007C736.73 146.697 708.09 124.927 722.67 111.237C691.81 84.5666 657.44 62.0866 620.58 44.4466C613.27 46.7566 608.73 50.2466 616.35 55.3766C633.34 66.8166 648.46 80.4866 644.21 81.8366C640 83.2166 627.4 71.8466 627.28 76.7966C627.18 81.6966 638.56 82.4166 639.04 85.8466C639.56 89.2666 637.24 91.3666 634.04 89.3466C630.8 87.3666 621.54 78.7266 617.15 80.9666C612.77 83.2466 583.57 81.7566 587.4 72.4866C591.23 63.2166 597.18 70.0066 603.25 66.3966C609.36 62.8066 611.49 54.7766 605.34 49.7566C599.23 44.7666 579.4 37.1466 574.14 41.8866C568.91 46.6266 564.77 41.2566 561.14 46.0466C557.48 50.8366 503.09 29.7766 538.6 15.9966C539.34 15.6866 539.98 15.3966 540.46 15.0266C479.09 -1.17342 413.42 -4.77342 346.83 6.69658C307.76 13.4266 270.67 24.9466 236.13 40.5566C246.21 44.8966 308.86 71.0466 317.99 52.4766C327.89 32.2466 383.98 12.9966 418.12 14.7866C452.26 16.5766 496.65 16.5666 497.3 24.1266C497.95 31.6866 460.03 19.0766 431.65 22.9866C403.28 26.9366 347.41 21.2166 340.82 40.5466C334.24 59.8766 354.82 82.3066 366.41 82.8466C377.98 83.4266 383.04 103.177 398.35 92.9066C413.65 82.5966 422.28 82.7066 426 82.8666C429.68 83.0266 414.65 66.9466 420.62 62.7366C426.58 58.4866 432.48 67.7166 440.11 60.1766C447.78 52.6366 485.41 55.7766 475.02 63.5366C464.63 71.2566 450.44 61.7966 440.23 71.6266C430.03 81.4866 439.94 85.9266 424.1 89.0966C408.26 92.2566 402.7 125.557 401.03 132.037C399.39 138.467 358.17 141.337 344.85 164.037C331.51 186.777 325.04 170.237 293.61 185.417C262.18 200.637 236.88 202.027 227.63 215.087C218.42 228.177 235.41 221.847 236.87 229.267C238.36 236.647 219.03 235.527 213.3 239.477C207.62 243.457 200.62 257.217 210.35 256.807C220.05 256.407 238.41 244.307 245.91 237.257C253.42 230.207 259.49 239.407 267.53 236.757C275.57 234.067 291.17 226.937 291.64 238.317C292.12 249.737 315.9 274.157 324.16 272.727C332.45 271.297 327.75 291.067 341.88 290.337C356.01 289.607 338.65 308.547 348.21 323.297C357.77 338.037 333.89 331.517 321.3 347.507C308.72 363.527 299.66 351.667 294.67 353.577C289.69 355.517 289.65 371.267 300.84 377.007C312.03 382.747 292.68 390.097 286.35 390.577C280.06 391.007 260.08 403.607 234.21 401.687C208.33 399.737 212.95 424.057 200.1 428.397C187.21 432.757 177.06 454.077 170.88 457.057C164.67 460.047 173.97 441.837 175.45 435.507C176.93 429.207 201.72 384.057 199.11 380.057C196.5 376.027 179.29 395.227 173.52 411.277C166.18 431.677 152.15 424.977 146.55 438.277C138.19 458.207 120.89 470.767 118.19 481.147C115.48 491.487 120.61 505.727 129.74 500.757C138.9 495.777 149.64 503.697 150.57 491.857C151.49 479.977 150.46 474.007 160.01 470.007C169.53 466.017 166.57 479.517 174.72 472.037C185.48 462.227 198.49 463.597 202.37 456.527C206.26 449.487 212.2 433.347 220.07 429.457C227.9 425.537 227.76 421.147 235.34 420.207C240.86 419.507 234.09 410.657 248.08 411.647C264.74 412.797 262.5 416.397 273.89 414.437C285.24 412.487 273.03 421.817 267.19 422.607C261.36 423.397 268.3 431.567 263.14 436.077C257.95 440.587 262.95 443.777 254.02 446.147C245.06 448.557 249.21 465.287 233.93 466.647C218.6 467.987 242.93 484.457 247.57 484.087C252.17 483.697 263.77 515.127 286.84 503.267C309.91 491.447 318.17 481.807 322.48 469.887C326.8 457.997 342.34 462.957 345.16 466.307C347.98 469.657 363.37 475.617 363.42 483.277C363.44 490.947 339.95 480.627 335.58 488.397C331.17 496.177 339.78 511.947 350.27 505.657C360.76 499.367 365.77 506.167 367.81 512.547C369.84 518.887 376.81 529.487 385.22 535.707C393.64 541.927 399.51 566.787 427.62 572.477C455.73 578.167 461.6 591.847 485.93 579.327C510.26 566.857 507.09 548.187 518.29 547.057C528.25 546.067 533.36 566.927 542.62 559.577C551.85 552.237 537.75 541.997 539.04 537.327C540.29 532.627 552.54 526.247 563.13 528.257C573.68 530.277 569.06 541.707 559.41 545.077C549.78 548.437 573.66 554.957 569.9 568.817C566.1 582.677 558.94 568.177 551.49 571.987C544.08 575.827 552.29 590.267 534.92 591.337C517.56 592.407 522.67 599.847 523.47 604.487C524.27 609.127 534.51 622.377 548.76 614.167C562.98 605.967 566.67 604.497 573.15 595.277C579.67 586.087 605.11 597.877 611.85 592.447C618.55 587.027 607.15 644.347 647.4 628.477C687.68 612.607 692.24 604.797 701.5 604.797C710.76 604.797 684.92 625.347 679.04 627.337C673.15 629.287 669.65 637.747 665.47 638.467C661.29 639.187 673.4 638.477 680.9 632.697C688.45 626.947 712.36 613.887 721.47 599.987C730.54 586.047 716.3 584.887 713.93 577.227C711.52 569.537 716.17 559.367 725.14 560.827C734.1 562.247 742.62 567.187 753.44 564.457C764.26 561.757 761.94 580.427 768.52 582.917C775.13 585.397 760.19 597.557 771.44 599.887C782.69 602.187 788.26 592.507 792.27 593.517C796.28 594.527 784.46 605.097 798.44 600.997C812.42 596.887 789.12 613.457 779.98 614.807C770.84 616.167 757.19 627.017 748.43 636.847C739.7 646.637 738.88 660.377 727.75 663.817C716.65 667.207 741.07 665.757 753.73 651.457L753.77 651.407ZM605.06 117.937C599.19 111.607 588.98 109.857 579.44 109.907C569.86 109.967 563.68 101.767 556.87 101.347C550.1 100.927 530.03 91.9366 530.4 101.417C530.77 110.937 516.87 95.1366 530.17 85.1766C533.25 82.8766 548.98 77.8166 562.29 90.1766C575.6 102.577 591.42 92.5066 603.67 100.637C615.92 108.727 619.11 114.257 617.84 117.987C616.56 121.717 610.96 124.277 605.06 117.947V117.937ZM665.94 429.447C660.92 432.447 635.64 396.787 646.47 397.887C646.47 397.887 664 422.977 673.76 420.427C683.53 417.907 690.54 423.937 689.53 427.947C688.52 431.957 670.96 426.437 665.94 429.437V429.447Z" fill="#D6EAFF"/>
<path d="M627.68 647.647C627.69 645.067 640.89 652.077 644.39 649.237C647.89 646.397 656.95 637.817 658.8 640.217C660.65 642.607 656.18 649.127 655.43 654.047C654.68 658.967 653.94 669.467 649.87 669.047C645.81 668.627 647.31 664.377 642.97 665.127C638.63 665.877 637.28 660.837 636.56 655.697C635.83 650.557 627.66 650.367 627.67 647.647H627.68Z" fill="#D6EAFF"/>
<path d="M620.84 655.207C624.3 659.537 619.1 672.907 608.55 673.767C598 674.627 587.17 679.367 579.66 683.047C572.15 686.737 566.09 683.947 566.02 681.727C565.96 679.507 557.03 674.017 557.99 669.387C558.95 664.757 547.88 673.687 544.77 673.257C541.66 672.837 544.44 660.227 545.41 658.467C546.38 656.697 548.28 648.237 546.12 646.847C543.97 645.457 533.33 633.727 533.04 638.567C532.76 643.407 542.46 645.087 541.9 651.087C541.34 657.087 529.13 642.747 522.23 643.457C515.33 644.167 502.38 636.657 511.78 633.767C521.18 630.867 517.03 622.647 524.2 623.007C531.37 623.367 539.63 633.277 548.19 633.877C556.75 634.477 557.92 654.227 562.76 655.467C567.6 656.707 575.04 650.797 581.36 661.517C587.68 672.237 605.99 662.707 607.21 659.617C608.44 656.537 617.32 650.827 620.82 655.197L620.84 655.207Z" fill="#D6EAFF"/>
<path d="M411.51 593.187C404.96 592.377 399.93 589.407 400.29 586.557C400.65 583.707 406.24 582.067 412.79 582.877C419.34 583.687 424.37 586.657 424.01 589.497C423.66 592.347 418.06 593.987 411.51 593.177V593.187Z" fill="#D6EAFF"/>
<path d="M108.46 494.177C108.46 494.177 121.27 504.317 117.99 514.887C114.7 525.457 118.71 540.087 121.89 541.247C125.07 542.397 123.59 562.237 127.26 571.177C130.93 580.127 121.72 566.177 121.06 572.247C120.4 578.317 116.16 584.607 113.95 576.677C111.73 568.747 102.77 498.147 108.47 494.187L108.46 494.177Z" fill="#D6EAFF"/>
<path d="M118.88 590.417C117.43 590.667 116.02 589.467 115.72 587.727C115.42 585.997 116.35 584.387 117.8 584.137C119.25 583.887 120.67 585.087 120.97 586.827C121.27 588.557 120.34 590.167 118.89 590.417H118.88Z" fill="#D6EAFF"/>
<path d="M122.21 594.067C122.21 594.067 121.32 601.567 123.9 603.887C126.48 606.207 130.2 616.427 129.19 619.047C128.18 621.667 123.53 620.447 123.45 616.947C123.37 613.447 121.74 608.317 120.41 608.007C119.08 607.697 118.18 597.847 117.16 596.107C116.14 594.367 119.72 591.627 122.21 594.067Z" fill="#D6EAFF"/>
<path d="M117.87 620.467C118.69 619.947 125.97 624.236 124.66 631.476C123.35 638.726 119.53 637.867 119.46 636.527C119.39 635.177 120.76 630.636 120.04 629.726C119.32 628.816 114.89 622.366 117.86 620.476L117.87 620.467Z" fill="#D6EAFF"/>
<path d="M121.03 647.157C121.03 647.157 127.66 657.297 136.31 660.377C144.96 663.467 153.93 684.047 154.13 687.637C154.33 691.227 146.35 677.057 141.55 675.117C136.75 673.177 117.46 648.937 121.04 647.157H121.03Z" fill="#D6EAFF"/>
<path d="M128.64 625.527C129.19 625.217 134.72 630.547 134.13 633.947C133.54 637.347 136.67 644.997 138.38 645.667C140.09 646.327 143.46 654.797 143.53 658.297C143.6 661.797 140.35 652.887 137.87 652.037C135.39 651.187 129.17 639.167 129.75 637.897C130.33 636.627 126.5 626.747 128.63 625.537L128.64 625.527Z" fill="#D6EAFF"/>
<path d="M155.33 531.547C157.5 530.807 161.59 521.527 166.18 520.417C170.77 519.307 178.96 511.197 181.99 517.697C185.03 524.197 185.42 537.727 191.4 537.147C204.17 535.907 198.1 554.797 204.27 554.407C214.06 553.787 223.1 574.787 230.93 577.587C238.75 580.387 248.38 580.637 249.15 585.137C249.92 589.637 230.18 591.757 228.76 596.477C227.34 601.197 224.7 600.687 219.11 599.737C213.52 598.787 206.86 600.897 204.5 603.857C202.13 606.807 195.91 615.147 193.27 609.097C190.63 603.047 186.88 597.947 180.33 600.677C173.78 603.397 170.67 592.767 166.07 593.877C161.47 594.987 150.81 594.267 151.2 589.097C151.59 583.927 151.2 581.117 149.31 578.727C147.41 576.347 154.05 570.407 151.22 563.237C148.39 556.057 146.62 549.507 149.42 546.307C152.22 543.107 134.53 538.657 155.34 531.557L155.33 531.547Z" fill="#D6EAFF"/>
<path d="M147.8 624.037C147.17 621.617 162.72 619.817 164 617.997C165.28 616.177 168.19 612.647 174.38 614.297C180.57 615.947 190.39 620.157 195.1 619.667C199.81 619.177 208.12 635.937 208.65 642.717C209.18 649.487 223.35 663.167 222.81 664.697C222.28 666.227 209.7 660.887 207.72 657.717C205.74 654.547 199.3 626.447 196.85 627.027C194.4 627.607 184 624.717 188.73 635.497C193.46 646.277 195.13 654.137 192.76 651.507C190.39 648.887 184.11 637.407 179.22 642.377C174.33 647.347 162.24 654.057 158.45 652.477C154.67 650.897 155.04 640.777 159.61 639.667C164.19 638.557 173.12 631.117 171.2 629.207C169.28 627.307 150.16 633.107 147.8 624.037Z" fill="#D6EAFF"/>
<path d="M308.93 609.637C308.93 609.637 321.14 606.417 322.37 603.337C323.59 600.257 332.65 595.347 337.78 597.337C342.91 599.327 354.6 608.807 359.07 607.877C363.54 606.947 352.65 620.636 345.52 617.236C338.39 613.836 329.12 610.967 325.13 614.687C321.14 618.407 327.63 631.977 324.69 633.437C321.75 634.907 313.96 637.836 314.84 643.916C315.73 649.986 307.28 651.916 301.75 652.236C296.22 652.546 296.52 645.047 300.22 643.347C303.92 641.647 310.96 636.816 311.91 633.676C312.86 630.536 321.3 616.527 317.44 616.337C313.58 616.147 294.65 612.497 308.95 609.657L308.93 609.637Z" fill="#D6EAFF"/>
<path d="M258.33 585.847C259.92 585.157 286.34 600.217 286.75 605.017C287.15 609.827 282.26 603.647 280.01 602.967C277.76 602.287 251.8 588.667 258.33 585.847Z" fill="#D6EAFF"/>
<path d="M278.47 636.677C276.25 630.277 279.06 627.557 281.75 628.367C284.44 629.177 287.48 631.047 289.5 626.557C291.52 622.057 296.31 622.597 297.62 623.167C300.64 624.477 302.26 630.187 297.19 632.737C292.12 635.287 291.49 639.467 292.4 642.897C293.31 646.337 292.27 648.957 288.06 647.797C285.26 647.017 280.55 642.637 278.48 636.677H278.47Z" fill="#D6EAFF"/>
<path d="M256.09 632.787C255.03 630.047 261.59 627.227 264.4 628.647C272.79 632.867 272.61 639.517 272.37 643.877C271.96 651.227 279.31 656.757 283.95 655.507C289.36 654.047 293.72 658.297 292.12 661.227C289.81 665.457 280.44 663.397 276.61 666.617C273.7 669.057 270.94 666.677 270.5 663.997C269.79 659.757 266.91 658.447 264.56 660.547C262.97 661.977 257.89 666.327 255.86 663.797C253.99 661.467 255.33 649.597 258.31 649.287C261.29 648.977 263.6 649.197 265.34 646.527C267.8 642.747 263.93 634.637 261.03 633.547C259.26 632.877 256.69 634.297 256.11 632.797L256.09 632.787Z" fill="#D6EAFF"/>
<path d="M151.5 821.627C115.26 794.587 82.9799 762.187 55.9699 725.307V725.277C56.9199 721.997 56.2299 715.877 53.5299 707.747C49.5499 695.807 24.8699 675.297 25.1699 663.677C25.8899 636.277 8.1899 624.307 7.4099 612.427C6.6699 600.547 -7.3101 591.017 7.9999 589.787C31.1899 587.927 19.4199 573.547 35.4299 576.777C51.3199 579.987 64.1299 627.477 65.6699 633.687C68.8299 646.377 89.5199 631.297 92.6899 653.417C94.7199 667.547 125.45 682.107 117.31 694.507C106.97 710.327 137.82 707.387 144.6 709.927C156.27 714.287 161.15 725.777 160.41 738.067C159.66 750.317 173.57 752.467 172.17 755.287C169.64 760.397 146.13 748.567 144.89 753.597C143.65 758.587 155.47 776.827 169.74 778.207C184.01 779.577 195.8 795.897 187.04 798.997C178.31 802.087 167.24 800.817 163.54 804.347C159.09 808.547 166.52 821.667 151.5 821.617V821.627Z" fill="#D6EAFF"/>
<path d="M190.03 760.837C192.19 758.007 204.42 772.087 208.79 767.827C213.16 763.567 214.8 758.267 214.17 756.407C213.53 754.557 205.63 744.527 211.2 738.997C213.42 736.797 204.5 729.617 209.06 726.597C213.62 723.577 217.44 726.267 216.3 716.887C215.16 707.507 220.66 710.707 221.01 712.727C221.36 714.747 226.36 722.497 230.52 721.627C234.68 720.747 239.23 729.547 235.6 732.567C231.97 735.587 233.78 739.587 224.24 739.787C214.7 739.997 223.31 752.007 228.5 749.957C232.04 748.557 245.76 760.017 245.05 767.007C244.34 773.997 240.18 777.637 244.92 784.797C249.66 791.957 255.25 813.297 249.85 814.377C244.45 815.467 252.13 823.877 248.64 825.917C245.16 827.957 239.88 817.687 234.37 827.417C228.86 837.147 230.5 834.627 228.34 831.327C226.18 828.027 222.56 824.657 229.49 818.517C236.41 812.377 222.89 803.377 219.19 803.207C215.49 803.047 200.78 791.747 200.84 784.717C200.91 777.687 186.29 765.727 190.02 760.827L190.03 760.837Z" fill="#D6EAFF"/>
<path d="M255.07 832.637C255.62 829.957 262.06 829.947 262.66 833.457C263.26 836.967 272.09 843.747 276.54 843.627C280.99 843.497 289.76 846.247 289.54 849.897C289.32 853.557 285.75 849.537 281.64 849.767C277.53 849.997 268.87 846.977 265.38 842.487C261.9 838.007 254.11 837.267 255.06 832.637H255.07Z" fill="#D6EAFF"/>
<path d="M189.37 691.207C190.16 688.977 199.42 694.897 200.09 698.777C200.76 702.657 206.46 715.397 203.4 717.997C200.34 720.597 200.91 711.887 199.18 708.347C197.46 704.817 187.86 695.447 189.36 691.207H189.37Z" fill="#D6EAFF"/>
<path d="M187.33 685.327C186.52 685.467 185.44 683.187 184.94 680.237C184.43 677.287 184.68 674.777 185.49 674.637C186.3 674.497 187.37 676.777 187.88 679.727C188.39 682.677 188.14 685.187 187.33 685.327Z" fill="#D6EAFF"/>
<path d="M171.01 717.307C170.27 718.277 171.58 720.507 173.93 722.297C176.28 724.087 178.78 724.747 179.52 723.787C180.26 722.817 178.95 720.587 176.6 718.797C174.25 717.007 171.75 716.347 171.01 717.307Z" fill="#D6EAFF"/>
<path d="M203.11 688.477C202.96 687.107 207.55 685.767 210.03 684.187C213.24 682.147 216.83 685.997 218.73 684.977C220.13 684.227 228.14 682.497 230.39 683.787C232.63 685.087 230.79 687.687 232.86 690.687C234.88 693.627 228.78 694.527 226.7 692.597C224.51 690.567 219.54 690.267 217.64 692.827C215.74 695.387 212.07 689.847 210.27 691.117C208.47 692.387 203.51 692.037 203.11 688.477Z" fill="#D6EAFF"/>
</g>
<path d="M700.031 610.086C700.031 620.796 691.341 629.486 680.631 629.486C669.921 629.486 661.231 620.796 661.231 610.086C661.231 599.376 669.921 590.686 680.631 590.686C691.341 590.686 700.031 599.376 700.031 610.086Z" fill="#FCFFFF"/>
<path d="M418.64 472.278C418.64 482.988 409.95 491.678 399.24 491.678C388.53 491.678 379.84 482.988 379.84 472.278C379.84 461.568 388.53 452.878 399.24 452.878C409.95 452.878 418.64 461.568 418.64 472.278Z" fill="#FCFFFF"/>
<defs>
<clipPath id="clip0_10165_631">
<rect width="872.28" height="851.44" fill="white" transform="translate(0.859863 0.0065918)"/>
</clipPath>
</defs>
</svg>
