<svg width="446" height="420" viewBox="0 0 446 420" fill="none" xmlns="http://www.w3.org/2000/svg">
<path d="M343.063 372.208C317.602 392.972 288.715 406.776 258.738 413.814C193.139 429.289 122.283 412.492 70.4267 365.87C62.4847 358.755 55.0099 350.939 48.0411 342.424C31.8457 322.632 19.9326 300.741 12.0685 277.877C7.82498 265.551 4.78835 252.914 2.95857 240.199C-7.24146 169.82 18.7258 96.0579 77.8626 47.8035C90.8267 37.2272 104.686 28.4396 119.13 21.4794C170.948 -3.63931 230.279 -5.85567 282.914 13.4305C287.43 15.1025 291.946 16.9301 296.346 18.8742C303.665 22.1793 310.828 25.8733 317.836 29.9949C338.275 42.1654 356.962 58.0299 372.885 77.5105C381.566 88.1257 389.002 99.2853 395.27 110.911C398.307 116.511 401.071 122.227 403.524 128.02C439.107 211.581 417.033 311.822 343.102 372.131L343.063 372.208Z" fill="#0166FF"/>
<path d="M343.102 372.21C317.641 393.013 288.715 406.777 258.738 413.854C193.139 429.291 122.322 412.493 70.4268 365.911C63.5749 359.767 57.1123 353.118 51.0001 345.964C97.9903 374.076 154.246 382.553 207.076 370.11C237.053 363.034 265.94 349.269 291.401 328.466C365.332 268.158 387.406 167.955 351.823 84.3556C349.37 78.6008 346.567 72.8461 343.57 67.2469C337.302 55.5818 329.866 44.4223 321.184 33.8459C320.211 32.6794 319.276 31.5129 318.225 30.3464C338.47 42.4392 357.079 58.2648 372.846 77.5899C381.528 88.2051 389.002 99.3646 395.231 111.03C398.229 116.629 401.032 122.345 403.485 128.138C439.068 211.699 417.033 311.941 343.063 372.249L343.102 372.21Z" fill="#327AFE"/>
<path d="M153.779 70.7449C147.16 101.696 87.5565 101.968 70.9717 134.669C54.3869 167.37 79.7313 168.459 74.7481 182.379C69.7649 196.3 50.6885 204.31 50.6106 214.575C50.5717 224.801 100.521 259.719 71.2442 289.115C41.9678 318.472 42.1236 335.191 59.448 348.878C64.1198 352.572 67.974 358.794 70.4267 365.948C62.4847 358.833 55.0099 351.017 48.0411 342.502C31.8457 322.71 19.9326 300.818 12.0685 277.955C7.82498 265.629 4.78835 252.992 2.95857 240.277C-7.24146 169.898 18.7258 96.1358 77.8626 47.8814C90.8267 37.3051 104.686 28.5174 119.13 21.5573C135.948 32.639 157.983 51.2642 153.779 70.7837V70.7449Z" fill="#6FA3FF"/>
<path d="M343.063 372.208C317.602 392.972 288.715 406.776 258.738 413.813C251.38 401.721 252.781 386.245 265.862 372.908C299.032 339.157 362.412 328.892 337.185 307.312C311.957 285.692 203.961 349.383 205.402 310.072C206.842 270.761 314.293 246.226 311.918 232.694C309.543 219.163 299.694 216.246 301.991 202.832C304.249 189.417 365.643 173.008 352.952 138.013C340.26 103.018 261.502 116.005 254.767 72.4942C251.224 49.7473 273.921 31.3166 296.384 18.9127C303.704 22.2178 310.867 25.9117 317.875 30.0334C338.314 42.2039 357.001 58.0684 372.924 77.549C381.605 88.1642 389.041 99.3238 395.309 110.95C398.346 116.549 401.11 122.265 403.563 128.059C439.146 211.619 417.072 311.861 343.141 372.169L343.063 372.208Z" fill="#6FA3FF"/>
<path d="M138.79 144.079C138.79 144.079 172.544 108.345 210.463 117.483C248.421 126.62 208.399 153.217 209.022 172.62C209.645 192.061 227.67 199.099 220.04 219.047C212.37 238.994 146.966 258.902 131.782 230.867C116.599 202.832 116.327 174.992 138.79 144.04V144.079Z" fill="#6FA3FF"/>
<path d="M179.824 334.102C179.824 334.102 202.677 342.19 194.968 356.538C187.26 370.925 159.696 372.986 147.199 360.31C134.702 347.634 154.012 330.253 179.824 334.102Z" fill="#6FA3FF"/>
<path d="M191.567 284.254C191.567 262.344 173.807 244.574 151.887 244.574C129.967 244.574 112.207 262.344 112.207 284.254C112.207 297.124 118.337 308.554 127.837 315.804L142.427 344.974C146.327 352.774 157.457 352.774 161.357 344.974L175.947 315.804C185.447 308.554 191.577 297.124 191.577 284.254H191.567Z" fill="#FF244C"/>
<path d="M170.988 281.025C170.988 291.735 162.298 300.425 151.588 300.425C140.878 300.425 132.188 291.735 132.188 281.025C132.188 270.315 140.878 261.625 151.588 261.625C162.298 261.625 170.988 270.315 170.988 281.025Z" fill="#FCFFFF"/>
<path d="M300.044 128.682C300.044 128.682 322.079 132.22 313.476 146.763C304.872 161.305 279.995 162.899 272.909 149.251C265.824 135.603 282.681 130.782 300.005 128.643L300.044 128.682Z" fill="#6FA3FF"/>
<g clip-path="url(#clip0_10039_31308)">
<path fill-rule="evenodd" clip-rule="evenodd" d="M158.321 42.8114C157.165 40.0739 146.482 30.8087 144.819 31.9142C143.155 33.0198 144.538 33.5637 145.642 34.3183C146.745 35.0728 148.006 36.8101 148.881 37.5295C150.44 38.7754 147.358 36.1608 146.132 35.8976C144.924 35.6344 145.992 37.1435 146.255 37.7752C146.517 38.4069 149.634 39.9511 149.634 39.9511C152.121 41.548 155.746 48.9005 156.639 48.181C158.128 47.0053 159.739 43.7063 158.321 42.8289V42.8114Z" fill="#2A4865"/>
<path fill-rule="evenodd" clip-rule="evenodd" d="M257.598 70.2385C274.252 104.141 294.339 115.529 318.173 129.989C379.081 166.962 446.626 177.42 445.19 180.596C445.155 180.666 434.437 186.756 421.058 189.195C416.207 190.072 406.313 186.352 403.073 187.528C395.262 190.353 398.975 200.653 397.084 200.25C390.551 198.899 383.949 190.23 379.466 192.511C374.16 195.196 368.976 210.305 366.805 210.726C361.796 211.673 351.884 197.951 348.452 200.811C285.478 253.016 238.93 149.537 210.35 94.3491C207.6 89.0322 235.655 66.3429 257.615 70.2385H257.598Z" fill="#FF244C"/>
<path fill-rule="evenodd" clip-rule="evenodd" d="M444.349 179.736C444.997 180.07 445.295 180.351 445.19 180.596C445.172 180.649 439.376 183.93 431.005 186.65C424.473 188.773 419.552 189.791 412.775 188.51C408.817 187.756 404.894 186.861 403.073 187.528C398.187 189.3 401.444 191.915 401.374 195.073C401.146 207.901 383.214 190.616 379.466 192.511C374.16 195.196 385.666 205.69 368.276 211.024C359.607 213.674 347.891 199.811 344.424 202.654C294.391 243.856 245.619 150.204 211.26 96.139C211.996 96.2618 212.399 96.3671 212.399 96.3671C212.399 96.3671 257.51 147.291 309.259 164.452C344.897 176.262 405.419 188.668 444.332 179.736H444.349Z" fill="#EB003F"/>
<path fill-rule="evenodd" clip-rule="evenodd" d="M230.822 77.6963C230.892 77.9595 227.862 76.5381 223.782 74.7307C217.652 72.0108 209.124 68.396 205.148 68.4135C198.529 68.4135 192.452 76.4153 194.413 80.9952C195.464 83.4344 202.294 92.7522 209.789 95.6652C216.409 98.2447 223.834 94.5947 223.834 94.5947C223.834 94.5947 237.301 85.698 230.822 77.7138V77.6963Z" fill="#1B2D4F"/>
<path fill-rule="evenodd" clip-rule="evenodd" d="M265.549 132.375C265.776 127.286 267.142 126.163 267.948 122.899C268.753 119.635 280.119 127.005 290.906 139.973C301.694 152.959 302.902 163.856 302.902 163.856L277.089 157.381L265.549 132.375Z" fill="#1B2D4F"/>
<path fill-rule="evenodd" clip-rule="evenodd" d="M265.741 129.199C265.741 129.199 272.886 132.252 281.993 144.272C291.116 156.293 294.444 167.102 293.323 169.401C292.202 171.7 289.453 176.385 287.246 176.104C281.467 175.367 262.992 160.206 257.545 147.308C254.271 139.57 257.72 133.814 265.759 129.199H265.741Z" fill="#172547"/>
<path fill-rule="evenodd" clip-rule="evenodd" d="M270.102 131.971C270.102 131.971 273.429 132.147 281.45 139.166C289.47 146.185 292.868 166.769 293.358 166.523C293.446 166.488 288.314 169.225 287.824 166.997C285.828 158.03 272.939 139.921 270.102 131.954V131.971Z" fill="#1B2D4F"/>
<path fill-rule="evenodd" clip-rule="evenodd" d="M258.631 133.428C258.386 136.657 259.156 144.711 265.513 153.467C271.888 162.241 288.174 175.665 287.229 176.086C280.311 179.105 258.246 156.064 255.094 150.344C254.113 148.572 251.941 144.922 251.276 141.289C250.365 136.306 256.022 134.446 258.631 133.428Z" fill="#172547"/>
<path fill-rule="evenodd" clip-rule="evenodd" d="M299.75 162.715C301.922 155.696 315.931 170.208 317.42 172.437C323.182 181.14 328.61 207.602 328.61 207.602L325.301 210.041C325.301 210.041 307.998 192.687 299.207 181.947C297.351 179.684 287.456 158.276 299.768 162.715H299.75Z" fill="#1B2D4F"/>
<path fill-rule="evenodd" clip-rule="evenodd" d="M287.491 177.227C284.97 177.648 283.866 179.245 286.02 183.965C287.316 186.808 299.505 193.739 302.429 196.319C310.24 203.233 327.892 212.024 327.892 212.024L330.764 209.059C330.764 209.059 315.984 189.493 306.58 179.28C304.601 177.139 284.795 164.365 287.491 177.192V177.227Z" fill="#172547"/>
<path fill-rule="evenodd" clip-rule="evenodd" d="M304.058 201.601C302.885 202.987 323.357 212.551 324.933 214.762C327.875 218.868 332.621 224.957 336.929 227.01C341.499 229.186 344.196 229.73 344.529 228.8C345.002 227.449 340.939 225.062 338.96 221.447C338.487 220.588 337.384 216.762 337.069 216.078C335.23 211.972 333.689 213.411 331.885 210.778C327.927 204.97 324.95 198.477 323.987 196.81L310.66 202.198L304.058 201.583V201.601Z" fill="#2A4865"/>
<path fill-rule="evenodd" clip-rule="evenodd" d="M271.485 123.671C271.485 123.671 279.874 122.548 288.227 129.181C296.58 135.814 301.063 158.784 301.536 158.539C301.764 158.416 297.911 150.59 291.764 142.763C289.295 139.605 286.248 134.779 282.728 131.568C277.247 126.549 271.485 123.689 271.485 123.689V123.671Z" fill="#1B2D4F"/>
<path fill-rule="evenodd" clip-rule="evenodd" d="M272.939 129.603C272.816 134.147 291.834 151.8 295.425 156.328C298.191 159.837 294.496 167.822 294.129 167.997C293.2 168.453 285.302 163.364 281.415 159.995C277.509 156.626 269.874 151.274 267.352 147.185C267.195 146.922 267.072 146.641 266.949 146.343C265.303 141.693 268.806 131.48 272.939 129.62V129.603Z" fill="#1B2D4F"/>
<path fill-rule="evenodd" clip-rule="evenodd" d="M254.446 67.8871C249.157 68.7645 243.991 72.1688 239.56 72.0635C234.219 71.9407 231.907 66.2903 231.907 66.2903L221.925 73.1865C221.925 73.1865 226.356 77.2752 225.375 82.0306C224.272 87.3476 217.582 93.5595 216.374 95.9635C214.08 100.491 215.586 97.42 215.218 98.0868L254.428 67.8871H254.446Z" fill="#F2AB7E"/>
<path fill-rule="evenodd" clip-rule="evenodd" d="M234.534 69.9753C231.697 67.3431 231.032 62.1841 231.032 62.1841L221.943 73.2041C221.943 73.2041 226.093 77.047 225.463 81.5919C228.3 79.0299 231.505 75.6081 234.552 69.9753H234.534Z" fill="#DC834F"/>
<path fill-rule="evenodd" clip-rule="evenodd" d="M274.515 78.2578C277.597 84.3469 271.065 96.0863 271.1 106.527C271.135 114.406 276.494 125.321 274.742 128.093C270.82 134.253 261.048 140.447 253.588 138.236C253.307 138.148 253.518 138.798 253.255 138.675C248.141 136.376 244.183 126.637 240.086 122.864C237.354 120.355 236.303 119.565 232.363 117.547C230.716 116.705 226.951 112.037 225.568 111.09C225.113 110.774 224.657 110.475 224.219 110.195C219.964 107.457 216.829 106.176 216.076 104.965C213.012 100.07 263.972 78.2052 274.515 78.2403V78.2578Z" fill="#1B2D4F"/>
<path fill-rule="evenodd" clip-rule="evenodd" d="M250.505 72.3091C260.067 61.1312 286.738 64.4653 279.891 77.784C278.42 80.6619 244.218 89.9797 244.218 89.9797C244.218 89.9797 235.585 112.195 224.92 110.668C222.398 110.3 218.335 109.493 215.201 106.931C211.173 103.649 208.476 98.1921 210.35 94.3491C212.276 90.436 212.294 86.8036 219.509 86.2245C229.175 85.4699 244.989 78.7843 250.523 72.3091H250.505Z" fill="#1B2D4F"/>
<path fill-rule="evenodd" clip-rule="evenodd" d="M258.946 83.7678C259.769 86.0665 259.174 84.6276 259.507 86.4C261.346 96.4022 249.332 104.439 240.909 104.404C237.949 104.404 232.695 104.035 232.695 104.035C226.408 109.019 219.526 109.352 213.117 99.7362C215.095 98.7887 217.985 95.3142 220.682 94.2964C225.183 92.5943 229.963 94.1912 231.154 94.0157C235.585 91.1905 237.371 89.4182 241.224 86.7509C245.602 83.7327 252.484 84.1714 258.946 83.7502V83.7678Z" fill="#354C71"/>
<path fill-rule="evenodd" clip-rule="evenodd" d="M228.948 84.5926C226.794 84.4347 221.4 85.1892 216.847 87.8565C213.73 89.6814 210.104 92.8927 211.838 95.402C213.117 97.2094 212.696 98.4729 213.432 97.1743C214.167 95.8582 215.078 90.7167 219.263 88.8216C223.449 86.9264 228.93 84.6101 228.93 84.6101L228.948 84.5926Z" fill="#354C71"/>
<path fill-rule="evenodd" clip-rule="evenodd" d="M269.086 127.321C268.841 126.602 263.149 119.618 257.896 115.161C251.836 110.019 233.851 109.177 238.089 118.179C239.525 121.232 246.635 129.392 252.011 133.989C254.463 136.078 256.652 135.674 256.652 135.674C256.652 135.674 269.821 131.919 269.068 127.304L269.086 127.321Z" fill="#354C71"/>
<path fill-rule="evenodd" clip-rule="evenodd" d="M275.986 145.255L268.736 128.462L257.405 136.078C257.405 136.078 268.823 148.203 270.837 148.694C272.851 149.168 275.128 146.922 276.003 145.273L275.986 145.255Z" fill="#1B2D4F"/>
<path fill-rule="evenodd" clip-rule="evenodd" d="M309.242 201.092C308.068 202.478 328.54 212.042 330.116 214.253C333.058 218.359 337.349 226.168 341.657 228.221C346.228 230.397 350.256 230.818 350.588 229.905C351.061 228.554 346.123 224.571 344.144 220.956C343.671 220.096 343.251 214.902 342.953 214.235C341.114 210.129 338.873 212.937 337.069 210.305C333.111 204.496 329.696 193.617 328.733 191.95L322.376 198.284L309.242 201.11V201.092Z" fill="#EB003F"/>
<path fill-rule="evenodd" clip-rule="evenodd" d="M310.853 200.741C309.68 202.127 329.801 211.428 331.377 213.621C334.319 217.727 338.803 225.413 343.111 227.466C347.681 229.642 347.856 229.747 348.189 228.835C348.259 228.66 348.259 228.449 348.189 228.203C343.688 227.01 339.293 220.605 337.927 218.078C332.883 208.813 321.973 205.812 314.075 200.057L310.853 200.741Z" fill="#2A4865"/>
<path fill-rule="evenodd" clip-rule="evenodd" d="M280.557 176.701C283.779 179.894 288.42 182.228 291.747 181.21C298.402 179.157 300.468 173.068 298.121 169.102C295.775 165.137 292.36 161.487 291.712 161.031C289.961 159.767 274.095 170.296 280.574 176.701H280.557Z" fill="#172547"/>
<path fill-rule="evenodd" clip-rule="evenodd" d="M302.762 162.926C305.704 166.383 308.559 168.172 307.298 171.419C304.794 177.911 301.799 178.315 298.016 175.665C296.896 174.876 294.391 175.823 293.376 174.7C284.567 164.961 296.353 155.398 302.762 162.926Z" fill="#1B2D4F"/>
<path fill-rule="evenodd" clip-rule="evenodd" d="M326.036 197.547C325.055 198.197 333.321 209.673 335.072 210.831C336.824 211.989 330.484 198.986 329.031 197.74C327.595 196.495 325.966 195.968 326.036 197.547Z" fill="#FF244C"/>
<path fill-rule="evenodd" clip-rule="evenodd" d="M271.713 118.074C272.186 117.986 271.24 113.862 273.447 117.968C278.262 126.97 273.499 130.252 264.13 135.148C257.756 138.482 250.943 141.781 248.579 136.323L246.67 131.866C246.67 131.866 252.047 134.358 259.787 129.129C263.57 126.584 269.541 125.338 271.713 118.074Z" fill="#FF244C"/>
<path fill-rule="evenodd" clip-rule="evenodd" d="M248.404 68.8523C248.404 68.8523 248.036 73.4673 239.245 78.3982C230.454 83.3291 224.009 83.452 222.941 83.3642C221.855 83.2765 219.509 86.2421 219.509 86.2421C223.519 86.2772 231.89 86.6457 239.84 82.2412C248.579 77.398 257.545 67.6941 255.794 67.7643L248.421 68.8523H248.404Z" fill="#F90033"/>
<path fill-rule="evenodd" clip-rule="evenodd" d="M260.172 96.0513C259.034 96.9813 256.775 100.754 248.597 100.982C240.418 101.21 234.989 96.876 234.989 96.876C234.989 96.876 244.901 101.947 260.19 96.0513H260.172Z" fill="#1B2D4F"/>
<path fill-rule="evenodd" clip-rule="evenodd" d="M236.128 45.9349C238.667 52.9891 236.128 65.8515 231.68 71.7125C231.347 72.1512 225.165 75.9239 220.542 77.0645C215.919 78.2052 212.906 74.3271 212.906 74.3271L216.812 50.9711C218.983 37.9857 226.303 42.2323 236.128 45.9349Z" fill="#FABD97"/>
<path fill-rule="evenodd" clip-rule="evenodd" d="M236.04 61.605C234.972 66.0095 233.536 69.6244 231.224 72.0459C228.773 74.6255 225.34 75.8889 220.542 77.0646C215.919 78.2052 212.906 74.3272 212.906 74.3272C212.906 74.3272 218.931 75.8714 225.831 73.1339C232.73 70.3965 234.219 62.1841 234.849 61.1839C234.849 61.1839 235.305 61.3418 236.023 61.605H236.04Z" fill="#F2AB7E"/>
<path fill-rule="evenodd" clip-rule="evenodd" d="M214.973 76.0995C213.659 75.2747 212.906 74.3096 212.906 74.3096L216.812 50.9535C217.477 46.9702 218.633 44.6188 220.174 43.3729C223.151 43.8818 225.62 44.9698 226.986 46.9C226.794 46.9702 233.624 51.9011 231.942 52.1994C230.787 52.3925 221.19 47.7774 220.384 48.3916C218.633 49.7252 219.193 52.761 219.193 52.761L215.884 62.7807L214.973 76.0995Z" fill="#F2AB7E"/>
<path fill-rule="evenodd" clip-rule="evenodd" d="M220.542 64.7461C218.388 64.2547 217.81 62.7281 217.547 62.1841C217.285 61.6401 217.074 60.5346 217.074 60.5346L215.884 62.7632C215.884 62.7632 216.707 66.2376 220.542 64.7285V64.7461Z" fill="#DC834F"/>
<path fill-rule="evenodd" clip-rule="evenodd" d="M221.015 56.6214C221.015 56.6214 218.213 61.9384 217.214 62.2894C216.216 62.6228 216.234 62.2894 216.234 62.2894C216.234 62.2894 218.738 56.4635 221.032 56.6214H221.015Z" fill="#F2AB7E"/>
<path fill-rule="evenodd" clip-rule="evenodd" d="M234.219 64.0442C236.513 64.5882 241.977 54.3929 241.977 52.6381C241.977 48.1635 233.063 43.4782 232.345 39.8985C232.205 39.1966 232.065 37.3892 234.096 37.4593C236.618 34.564 223.134 25.1408 220.016 37.9858L217.845 46.9527C217.845 46.9527 218.598 46.356 219.876 46.1104C223.221 45.4962 233.063 51.129 233.308 54.2174C233.448 56.0073 230.366 63.0264 234.236 64.0442H234.219Z" fill="black"/>
<path fill-rule="evenodd" clip-rule="evenodd" d="M223.764 56.7969C224.517 55.6388 226.619 55.7265 227.687 56.3582C228.755 56.99 227.862 57.4286 226.549 57.5866C225.235 57.7445 223.747 57.5339 223.764 56.7969Z" fill="black"/>
<path fill-rule="evenodd" clip-rule="evenodd" d="M215.761 56.0073C216.286 54.8843 216.794 55.0773 217.6 55.7266C218.405 56.3758 217.775 56.797 216.812 56.9198C215.848 57.0426 215.796 56.7443 215.778 56.0073H215.761Z" fill="black"/>
<path fill-rule="evenodd" clip-rule="evenodd" d="M232.573 56.4284C232.695 55.4107 234.552 55.8143 234.622 56.5337C234.674 57.2356 234.394 60.5346 233.186 61.0786C231.995 61.6226 231.662 61.061 231.662 61.061L231.907 59.5168L232.573 56.4284Z" fill="#FABD97"/>
<path fill-rule="evenodd" clip-rule="evenodd" d="M232.941 57.3234C233.483 56.7443 233.606 58.0253 233.571 58.1481C233.518 58.2709 233.098 60.2012 232.958 60.4118C232.8 60.6399 232.1 60.4293 232.1 60.4293C232.1 60.4293 232.765 57.4286 232.941 57.3234Z" fill="#F2AB7E"/>
<path fill-rule="evenodd" clip-rule="evenodd" d="M276.108 71.502C276.108 71.502 286.493 75.8362 290.451 83.6625C294.426 91.4888 292.658 92.1556 289.68 93.6648C286.703 95.1739 280.557 95.0335 277.649 92.9979C274.742 90.9624 262.852 87.4528 262.852 87.4528C258.491 73.555 261.993 73.713 276.126 71.5195L276.108 71.502Z" fill="#1B2D4F"/>
<path fill-rule="evenodd" clip-rule="evenodd" d="M270.067 66.2552C266.879 64.8338 259.069 66.4657 255.917 69.484C252.765 72.5022 252.572 73.0637 252.572 73.0637C252.572 73.0637 258.929 69.0102 262.992 68.2381C267.037 67.466 270.329 69.3085 270.329 69.3085C270.329 69.3085 271.713 67.4309 270.084 66.2727L270.067 66.2552Z" fill="#354C71"/>
<path fill-rule="evenodd" clip-rule="evenodd" d="M269.839 88.2776C269.839 88.2776 277.755 98.8764 285.565 101.877C293.376 104.878 289.978 105.176 291.134 102.193C291.782 100.508 297.929 103.948 299.505 102.351C302.307 99.5257 301.151 92.1381 300.345 88.9093C298.209 80.3284 287.947 75.8187 280.994 74.099L272.343 80.8198L269.839 88.26V88.2776Z" fill="#1B2D4F"/>
<path fill-rule="evenodd" clip-rule="evenodd" d="M287.421 94.5422C281.73 103.93 278.14 106.492 265.934 113.336C263.377 114.775 252.187 105.053 255.689 113.476C256.67 115.828 256.022 117.74 257.388 119.635C258.771 121.566 262.641 121.601 262.641 121.601L293.568 111.985C295.039 111.528 303.918 108.142 303.795 103.772C303.778 102.965 295.319 101.772 295.249 100.947C294.812 94.472 288.087 93.4717 287.421 94.5597V94.5422Z" fill="#FF244C"/>
<path fill-rule="evenodd" clip-rule="evenodd" d="M258.929 120.846C260.575 121.601 262.606 121.618 262.606 121.618L293.533 112.002C294.777 111.616 303.708 107.247 303.76 103.79C289.225 111.844 263.797 119.162 263.254 119.425C262.694 119.706 260.855 120.127 258.929 120.864V120.846Z" fill="#2A4865"/>
<path fill-rule="evenodd" clip-rule="evenodd" d="M265.408 115.477L264.708 113.441C264.708 113.441 265.864 112.02 265.671 111.774C265.478 111.528 264.393 108.668 261.731 107.615C259.069 106.562 258.456 105.913 256.74 107.212C255.024 108.51 252.152 109.265 252.029 109.914C251.924 110.563 251.083 118.039 251.083 118.039L259.769 121.18L265.408 115.494V115.477Z" fill="#FF244C"/>
<path fill-rule="evenodd" clip-rule="evenodd" d="M205.954 72.9058L203.415 66.0972L165.641 49.111L162.926 53.2874L184.782 76.5206L194.413 80.9777L205.954 72.9058Z" fill="#1B2D4F"/>
<path fill-rule="evenodd" clip-rule="evenodd" d="M197.986 59.2361C190.683 59.3414 183.293 65.4129 181.857 69.0277C180.421 72.6426 181.104 75.8012 181.104 75.8012C181.104 75.8012 160.089 53.2874 155.326 49.076C154.783 48.6022 153.785 48.8127 153.697 48.7952C152.839 48.6197 155.799 42.3025 151.473 37.3541C147.165 32.4056 141.982 31.5984 143.47 30.335C146.114 28.124 150.755 31.1597 152.944 32.9847C155.431 35.0553 155.536 36.4942 156.85 38.6702C158.793 41.8814 158.881 43.2677 160.492 43.7765C163.522 44.7592 199.79 57.4638 197.968 59.201L197.986 59.2361Z" fill="#FF244C"/>
<path fill-rule="evenodd" clip-rule="evenodd" d="M182.715 67.5186C182.347 68.0626 182.05 68.5715 181.857 69.0453C180.421 72.6601 181.104 75.8187 181.104 75.8187C181.104 75.8187 160.089 53.305 155.326 49.0935C154.783 48.6197 153.785 48.8303 153.697 48.8127C153.4 48.7425 153.575 47.9002 153.732 46.6193C154.1 46.7947 154.415 46.9176 154.695 47.0229C157.305 47.9002 157.112 45.9174 157.48 45.9875C157.848 46.0577 157.375 47.5317 157.795 48.4618C158.093 49.111 173.486 60.6575 182.698 67.5362L182.715 67.5186Z" fill="#2A4865"/>
<path fill-rule="evenodd" clip-rule="evenodd" d="M291.607 175.911C284.112 174.437 284.077 168.541 283.761 168.348C283.446 168.172 282.413 170.313 284.759 173.279C287.106 176.262 289.996 178.824 291.607 175.893V175.911Z" fill="#1B2D4F"/>
<path fill-rule="evenodd" clip-rule="evenodd" d="M275.128 129.638C279.313 127.9 284.549 129.216 287.947 133.551C291.344 137.903 295.372 151.625 295.109 152.38C294.934 152.888 285.372 142.57 279.541 135.639C276.896 132.48 275.005 130.041 275.128 129.62V129.638Z" fill="#354C71"/>
<path fill-rule="evenodd" clip-rule="evenodd" d="M304.128 164.365C306.51 164.066 312.744 168.699 316.001 174.718C319.241 180.737 320.66 187.387 320.66 187.387L304.146 164.365H304.128Z" fill="#354C71"/>
<path fill-rule="evenodd" clip-rule="evenodd" d="M268.403 144.465C267.86 144.343 264.655 139.535 262.221 138.762C259.086 137.762 256.687 140.816 257.055 141.202C257.703 141.886 267.055 146.132 268.403 144.465Z" fill="#172547"/>
<path fill-rule="evenodd" clip-rule="evenodd" d="M155.308 45.075C154.643 44.9171 144.556 38.8631 144.171 40.7934C143.785 42.7236 150.493 46.2156 152.051 47.4615C153.61 48.7074 154.73 49.0233 155.063 48.9355C155.396 48.8478 160.054 44.2854 155.291 45.075H155.308Z" fill="#FF244C"/>
<path fill-rule="evenodd" clip-rule="evenodd" d="M289.4 97.1217C290.118 98.2798 288.437 100.807 285.215 103.772C282.01 106.738 271.713 111.704 271.713 111.704C271.713 111.704 285.985 101.228 286.668 98.4553C287.351 95.6827 288.542 96.2267 289.4 97.1217Z" fill="#EB003F"/>
<path fill-rule="evenodd" clip-rule="evenodd" d="M192.049 57.7094C192.049 57.7094 161.753 44.3556 161.28 45.1628C160.807 45.97 185.99 58.271 187.338 58.8676C188.687 59.4818 192.049 57.7094 192.049 57.7094Z" fill="#EB003F"/>
<path fill-rule="evenodd" clip-rule="evenodd" d="M282.956 76.7487C286.476 77.1874 298.174 84.1012 297.526 86.6807C296.878 89.2603 288.717 79.8898 284.83 78.8544C280.924 77.8367 282.956 76.7487 282.956 76.7487Z" fill="#354C71"/>
<path fill-rule="evenodd" clip-rule="evenodd" d="M276.143 84.3118C274.585 86.5053 273.061 92.1381 273.061 92.1381C273.061 92.1381 273.639 86.014 274.462 84.9611C275.285 83.9082 275.986 83.6801 276.161 84.3118H276.143Z" fill="#354C71"/>
<path fill-rule="evenodd" clip-rule="evenodd" d="M317.192 196.424C317.192 196.424 301.309 181.544 300.205 181.052C299.102 180.561 300.205 183.018 302.324 184.773C304.461 186.527 316.387 197.109 317.175 196.424H317.192Z" fill="#1B2D4F"/>
<path fill-rule="evenodd" clip-rule="evenodd" d="M277.562 163.277C277.562 163.277 264.095 147.747 263.289 148.168C262.484 148.607 273.254 163.259 277.562 163.277Z" fill="#1B2D4F"/>
</g>
<defs>
<clipPath id="clip0_10039_31308">
<rect width="302" height="238" fill="white" transform="matrix(-1 0 0 1 445.207 29.5804)"/>
</clipPath>
</defs>
</svg>
