<svg width="328" height="385" viewBox="0 0 328 385" fill="none" xmlns="http://www.w3.org/2000/svg">
<g clip-path="url(#clip0_10039_30014)">
<path fill-rule="evenodd" clip-rule="evenodd" d="M183.872 111.511C183.872 111.511 191.353 117.954 193.209 119.722C195.064 121.491 186.834 128.473 182.734 129.342C178.604 130.211 177.288 117.745 177.288 117.745L183.872 111.511Z" fill="#111129"/>
<path fill-rule="evenodd" clip-rule="evenodd" d="M153.765 354.073C106.151 354.612 67.6051 361.955 67.7248 370.495C67.8146 379.036 106.51 385.509 154.124 384.97C201.738 384.431 240.284 377.088 240.164 368.548C240.074 360.007 201.379 353.533 153.765 354.073Z" fill="#E5E5E5" fill-opacity="0.5"/>
<path fill-rule="evenodd" clip-rule="evenodd" d="M190.725 119.423C190.725 119.423 194.047 121.011 195.154 122.33C196.261 123.648 195.034 126.705 193.807 127.334C192.58 127.964 192.101 128.114 191.862 127.814C191.623 127.544 191.772 130.091 190.216 130.781C188.66 131.47 187.792 131.77 187.672 132.099C187.553 132.429 186.685 134.287 185.877 134.257C185.069 134.257 183.123 131.979 183.123 131.979L181.597 129.222C181.597 129.222 189.408 119.782 190.725 119.393V119.423Z" fill="#111129"/>
<path fill-rule="evenodd" clip-rule="evenodd" d="M212.392 255.358C212.182 254.099 210.656 248.525 208.352 248.346C206.077 248.166 206.796 256.677 206.796 256.677C206.796 256.677 202.037 253.83 201.648 257.965C201.259 262.101 202.127 264.648 202.127 264.648L201.558 265.547C201.558 265.547 201.289 262.67 199.104 262.191C196.92 261.711 197.249 276.066 197.249 276.066C197.249 276.066 196.561 274.298 195.453 274.717C194.346 275.137 193.867 304.716 193.867 304.716C193.867 304.716 202.965 269.833 212.392 255.328V255.358Z" fill="#FF244C"/>
<path fill-rule="evenodd" clip-rule="evenodd" d="M114.531 271.421C115.279 268.124 109.982 259.014 108.396 261.981C106.809 264.948 106.57 271.421 106.57 271.421L106.121 273.638C106.121 273.638 106.061 270.012 103.458 270.162C100.854 270.342 100.914 278.853 100.914 278.853C100.914 278.853 100.345 276.815 99.0883 277.654C97.8314 278.523 98.0708 287.214 98.0708 287.214C98.0708 287.214 97.173 284.127 95.108 285.176C93.073 286.195 91.5467 304.745 91.5467 304.745L114.531 271.421Z" fill="#FF244C"/>
<path fill-rule="evenodd" clip-rule="evenodd" d="M173.966 106.626C173.966 106.626 163.88 90.7433 163.671 88.5257C163.461 86.3081 167.412 85.3791 167.412 85.3791C167.412 85.3791 163.342 80.8239 163.042 78.9359C162.743 77.018 166.514 75.8192 166.514 75.8192C166.514 75.8192 163.791 74.6505 164.12 72.3429C164.419 70.0354 167.771 69.0764 167.771 69.0764C167.771 69.0764 177.647 97.8458 173.966 106.686V106.626Z" fill="#FF244C"/>
<path fill-rule="evenodd" clip-rule="evenodd" d="M228.223 74.9503C228.223 74.9503 196.082 70.3352 185.577 71.5639C175.103 72.7926 185.817 112.89 185.817 112.89C185.817 112.89 177.587 130.301 173.577 107.196C171.332 94.1898 168.699 79.5653 167.95 68.2674C167.621 63.6523 172.709 61.8542 174.115 61.2848C178.964 59.3069 240.464 55.8006 240.643 63.5624C240.823 71.3241 248.933 79.5054 228.223 74.9503Z" fill="#111129"/>
<path fill-rule="evenodd" clip-rule="evenodd" d="M255.038 80.6141C255.038 80.6141 249.561 73.0622 250.489 67.7878C251.417 62.5134 259.288 50.5561 258.689 47.7391C257.851 43.6934 257.282 37.52 251.447 38.3591C249.172 38.6888 237.201 55.0813 237.201 55.0813C237.201 55.0813 247.855 84.0605 255.038 80.6441V80.6141Z" fill="#F2AB7E"/>
<path fill-rule="evenodd" clip-rule="evenodd" d="M256.534 54.1223C257.911 51.2454 258.958 48.818 258.719 47.7391C257.881 43.6934 257.312 37.52 251.477 38.3591C250.579 38.479 248.155 41.1162 245.581 44.2628C247.586 47.9489 250.938 51.7848 256.534 54.1523V54.1223Z" fill="#E38E5F"/>
<path fill-rule="evenodd" clip-rule="evenodd" d="M236.783 55.3511C249.92 61.7642 249.591 70.3651 255.038 80.6142C259.527 89.0052 264.525 94.3396 264.525 94.3396C264.525 94.3396 263.567 100.333 239.386 93.89C215.175 87.4469 236.812 55.3511 236.812 55.3511H236.783Z" fill="#F2AB7E"/>
<path fill-rule="evenodd" clip-rule="evenodd" d="M211.524 152.717C216.492 169.559 252.464 194.553 264.285 214.512C270.121 224.371 259.647 237.108 256.564 241.243C251.596 247.896 245.641 252.721 245.641 252.721C245.641 252.721 194.436 325.184 191.174 325.214C187.942 325.214 188.78 319.879 188.78 319.879C188.78 319.879 203.773 260.782 215.983 245.828C228.193 230.844 241.092 224.611 241.092 224.611C241.092 224.611 149.785 187.031 154.244 170.159C158.673 153.287 164.958 112.29 211.554 152.717H211.524Z" fill="#111129"/>
<path fill-rule="evenodd" clip-rule="evenodd" d="M204.551 140.131C208.531 140.281 212.332 145.405 211.404 154.036C210.297 164.435 203.683 179.119 199.882 186.252C192.969 199.318 149.964 253.71 144.547 261.412C139.131 269.143 135.48 272.41 135.48 272.41L82.9277 348.649L76.0146 348.858C76.0146 348.858 74.9971 339.928 87.3569 313.107C99.7168 286.285 129.434 249.604 129.434 249.604C129.434 249.604 136.048 217.269 150.533 185.323C157.925 169.02 147.51 151.728 163.312 138.662C168.579 134.287 182.615 125.956 186.475 127.694C193.478 130.811 198.386 137.823 204.551 140.161V140.131Z" fill="#1B2D4F"/>
<path fill-rule="evenodd" clip-rule="evenodd" d="M211.524 152.717C221.819 118.074 240.643 119.393 247.915 111.361C250.369 108.664 251.028 101.712 250.429 93.5904C250.19 90.0841 240.613 86.8176 239.955 83.1315C237.561 69.8856 240.134 53.4931 235.226 51.665C228.373 49.0878 217.719 94.7891 199.314 110.792C180.909 126.795 170.345 138.632 170.345 138.632C170.345 138.632 212.153 164.405 211.524 152.747V152.717Z" fill="#1B2D4F"/>
<path fill-rule="evenodd" clip-rule="evenodd" d="M238.668 66.9188C238.578 64.0419 238.488 61.3747 238.249 59.0972C234.718 59.0972 231.366 59.3069 228.163 59.7265C221.49 73.1222 212.332 99.4342 199.284 110.792C187.702 120.861 179.233 129.282 174.534 134.137C180.789 129.402 198.057 119.902 210.776 109.354C226.428 96.3775 224.393 91.6125 229.211 86.3681C232.144 83.1615 236.034 73.8115 238.638 66.9488L238.668 66.9188ZM172.2 136.595L171.392 137.464C171.811 137.464 172.11 137.194 172.2 136.595Z" fill="#172547"/>
<path fill-rule="evenodd" clip-rule="evenodd" d="M239.955 83.1313C247.915 95.2385 260.694 93.6801 264.525 94.3394C266.799 94.729 264.525 101.891 261.682 104.948C245.611 122.27 195.483 110.013 239.955 83.1313Z" fill="#1B2D4F"/>
<path fill-rule="evenodd" clip-rule="evenodd" d="M201.229 310.679C205.868 331.057 216.462 332.196 219.395 335.523C222.328 338.849 218.228 343.524 213.769 342.206C211.045 341.426 206.197 335.912 198.895 331.687C192.82 328.181 184.201 329.829 187.223 322.906L189.079 318.651L201.199 310.679H201.229Z" fill="#111129"/>
<path fill-rule="evenodd" clip-rule="evenodd" d="M246.658 63.0828C239.596 65.0906 237.71 78.2167 237.71 78.2167C237.71 78.2167 235.945 56.8494 236.753 55.351C237.561 53.8526 238.758 58.0781 246.628 63.0828H246.658Z" fill="#111129"/>
<path fill-rule="evenodd" clip-rule="evenodd" d="M230.947 81.2734C233.251 92.3916 239.596 121.94 243.007 127.814C247.736 135.995 299.18 128.084 301.993 122.599C304.837 117.115 303.939 112.74 303.939 112.74C284.905 118.464 268.146 119.153 253.033 115.707C253.033 115.707 247.915 89.3948 244.833 78.4265C240.912 64.4014 228.134 67.7878 230.947 81.2734Z" fill="#1B2D4F"/>
<path fill-rule="evenodd" clip-rule="evenodd" d="M230.947 81.2735C233.251 92.3917 239.596 121.94 243.007 127.814C247.736 135.995 299.18 128.084 301.993 122.599C302.173 122.24 302.353 121.88 302.502 121.521C297.415 122.06 283.528 126.136 272.665 126.615C260.305 127.185 247.347 121.611 245.761 119.333C244.174 117.055 239.027 91.4926 238.399 84.8397C237.74 78.1868 237.142 71.9834 235.226 72.1033C234.388 72.1632 233.042 72.1632 231.605 72.6727C230.588 74.7105 230.199 77.5874 230.947 81.2435V81.2735Z" fill="#172547"/>
<path fill-rule="evenodd" clip-rule="evenodd" d="M273.772 13.216C274.042 14.4147 278.8 43.6036 273.533 51.1855C271.019 54.8117 252.734 50.4064 248.364 39.6778C243.007 26.4319 244.534 4.67508 273.772 13.216Z" fill="#F2AB7E"/>
<path fill-rule="evenodd" clip-rule="evenodd" d="M270.091 5.99361C283.109 7.85163 280.326 20.5281 273.982 18.9398C273.982 18.9398 267.458 14.8042 262.131 14.9541C256.804 15.0739 254.649 19.0897 254.439 27.7205C254.2 38.2692 247.586 54.7816 236.812 55.381C225.62 56.0103 208.92 45.5215 203.204 43.214C197.488 40.9064 168.339 44.6524 168.339 44.6524C168.339 44.6524 167.142 37.2203 177.766 28.0801C188.42 18.9398 216.013 26.3719 220.891 19.5392C225.769 12.7065 221.28 6.23335 228.972 3.35642C232.802 1.91795 234.867 3.05673 237.112 4.04568C239.386 5.00466 238.099 6.95259 242.828 4.76492C252.345 0.389575 260.904 -3.77599 270.061 5.99361H270.091Z" fill="black"/>
<path fill-rule="evenodd" clip-rule="evenodd" d="M255.906 66.0795C254.888 69.9454 253.601 72.4627 242.379 74.5605C236.034 75.7592 209.309 62.6931 184.739 62.7231C167.92 62.7231 147.54 71.5637 153.615 84.7497C160.977 100.753 152.358 104.768 142.662 106.566C132.996 108.365 108.815 93.6801 109.084 107.316C109.323 120.951 140.298 135.516 134.971 142.798C129.644 150.08 77.481 126.016 86.1599 144.326C94.8387 162.637 116.596 171.807 118.481 182.985C120.337 194.163 110.76 197.4 102.62 197.16C94.4496 196.92 79.0971 192.815 79.0971 192.815L30.4657 153.676C30.4657 153.676 69.8496 160.299 72.573 159.071C75.3263 157.872 48.781 141.09 55.4248 130.751C62.0387 120.412 105.014 129.912 102.739 122.03C100.465 114.148 86.3394 103.6 88.584 96.9467C90.8285 90.2937 115.967 101.322 126.322 91.4925C136.677 81.6629 107.019 72.8223 131.799 54.2122C156.578 35.632 228.223 33.4743 255.876 65.9896L255.906 66.0795Z" fill="#FF244C"/>
<path fill-rule="evenodd" clip-rule="evenodd" d="M93.2226 331.357C93.2226 331.357 86.519 341.756 84.8132 346.881C83.1073 352.035 84.7533 368.068 85.3518 371.095C85.9504 374.122 84.6934 376.729 80.2044 375.47C75.6854 374.242 72.6628 356.77 70.5679 352.455C68.5029 348.139 67.0066 351.406 67.3059 346.191C67.6051 340.947 84.3044 323.476 84.3044 323.476L93.2226 331.357Z" fill="#1B2D4F"/>
<path fill-rule="evenodd" clip-rule="evenodd" d="M185.039 137.613C185.368 136.475 193.538 159.97 191.832 163.236C190.126 166.503 182.555 157.962 182.196 159.071C181.866 160.179 185.039 176.302 183.872 178.67C182.704 181.067 177.228 172.047 177.228 172.047C177.228 172.047 177.617 195.422 175.941 196.171C174.265 196.92 170.075 190.777 170.075 190.777L163.372 223.502C163.372 223.502 163.252 183.674 163.401 182.086C163.551 180.498 170.374 185.293 170.374 185.293C170.374 185.293 167.891 166.742 169.926 164.675C171.961 162.577 178.844 166.712 178.844 166.712C178.844 166.712 175.612 153.347 177.557 152.178C179.502 151.009 183.692 154.845 183.872 152.807C184.081 150.769 182.465 133.268 182.465 133.268L184.919 137.583L185.039 137.613Z" fill="#FF244C"/>
<path fill-rule="evenodd" clip-rule="evenodd" d="M291.19 120.622C291.19 120.622 275.029 136.145 271.767 136.744C268.505 137.344 267.009 134.197 267.009 134.197C267.009 134.197 263.837 138.692 259.048 138.423C254.29 138.183 253.751 134.227 253.751 134.227C253.751 134.227 252.674 138.003 249.741 135.666C246.778 133.298 248.693 125.506 248.693 125.506C248.693 125.506 278.92 126.705 291.16 120.622H291.19Z" fill="#FF244C"/>
<path fill-rule="evenodd" clip-rule="evenodd" d="M300.916 114.748C300.796 114.298 301.395 113.399 302.472 112.231C302.203 111.901 305.405 104.679 309.026 102.791C312.258 101.112 314.623 100.723 315.461 101.412L315.58 101.352C315.58 101.352 317.974 96.9169 320.937 97.1866C323.9 97.4563 322.404 100.633 322.404 100.633C322.404 100.633 323.75 99.7039 325.636 100.753C327.521 101.832 324.558 104.259 324.169 105.068C323.78 105.877 327.252 104.529 327.94 106.687C328.599 108.844 326.204 110.582 326.204 110.582C326.204 110.582 328.09 111.931 326.204 114.898C325.187 116.516 323.661 117.055 322.493 117.205C319.321 120.202 301.604 123.319 301.604 123.319L300.976 114.778L300.916 114.748Z" fill="#1B2D4F"/>
<path fill-rule="evenodd" clip-rule="evenodd" d="M242.708 79.9848C242.708 81.3633 248.394 110.762 248.394 110.762C248.394 110.762 240.553 83.0715 240.673 81.2434C240.793 79.4154 242.708 79.9848 242.708 79.9848Z" fill="#2E4060"/>
<path fill-rule="evenodd" clip-rule="evenodd" d="M301.006 116.516C301.006 116.516 274.73 123.079 266.201 122.39C257.701 121.7 255.876 119.483 255.876 119.483C255.876 119.483 265.842 119.273 276.406 118.614C287.778 117.894 299.869 116.186 301.006 116.516Z" fill="#2E4060"/>
<path fill-rule="evenodd" clip-rule="evenodd" d="M90.7387 195.572C88.0153 194.673 38.127 184.903 62.6372 210.796C87.1475 236.688 69.1314 236.508 61.4102 237.887C53.6891 239.265 7.27228 209.897 0.927752 197.16C-5.41677 184.424 23.3132 201.446 27.4132 189.638C31.4832 177.831 12.7489 179.419 14.5445 167.162C16.3701 154.905 30.9146 151.039 41.808 155.564C52.7015 160.12 81.7007 176.003 90.7686 195.542L90.7387 195.572Z" fill="#FF244C"/>
<path fill-rule="evenodd" clip-rule="evenodd" d="M274.79 25.0234C274.76 25.2332 276.855 28.8294 278.261 31.7063C279.01 33.2047 279.548 34.5233 279.518 35.0627C279.399 36.5911 275.777 38.4791 274.012 38.4791C272.246 38.4791 274.82 25.0534 274.82 25.0534L274.79 25.0234Z" fill="#F2AB7E"/>
<path fill-rule="evenodd" clip-rule="evenodd" d="M272.665 28.2599C272.665 28.2599 275.059 29.2189 275.418 28.2599C275.747 27.271 275.418 25.7426 275.149 25.1133C274.85 24.4839 268.745 22.566 264.824 22.9555C260.904 23.3451 254.589 26.0123 254.589 26.0123L254.41 29.2788C254.41 29.2788 263.627 39.0184 272.665 28.3198V28.2599Z" fill="#FF244C"/>
<path fill-rule="evenodd" clip-rule="evenodd" d="M274.999 25.6526C274.999 25.6526 260.515 15.1338 259.048 16.0928C257.582 17.0518 259.826 24.2441 259.826 24.2441L274.999 25.6526Z" fill="#FF244C"/>
<path fill-rule="evenodd" clip-rule="evenodd" d="M255.008 84.9894C255.517 85.379 262.61 92.1518 261.023 92.6013C259.437 93.0509 254.499 87.9862 254.26 86.7276C254.02 85.4689 255.008 84.9595 255.008 84.9595V84.9894Z" fill="#F3BF9C"/>
<path fill-rule="evenodd" clip-rule="evenodd" d="M270.45 26.5219C269.702 25.6827 266.68 24.8137 265.482 25.2932C264.285 25.7726 263.208 26.2222 264.615 26.7316C266.021 27.2411 270.181 28.4398 270.45 26.4919V26.5219Z" fill="black"/>
</g>
<defs>
<clipPath id="clip0_10039_30014">
<rect width="328" height="385" fill="white"/>
</clipPath>
</defs>
</svg>
