<?xml version="1.0" encoding="UTF-8"?>
<svg width="14px" height="11px" viewBox="0 0 14 11" version="1.1" xmlns="http://www.w3.org/2000/svg" xmlns:xlink="http://www.w3.org/1999/xlink">
    <!-- Generator: Sketch 64 (93537) - https://sketch.com -->
    <title>Path</title>
    <desc>Created with Sketch.</desc>
    <g id="Page-1" stroke="none" stroke-width="1" fill="none" fill-rule="evenodd">
        <g id="Token---1440" transform="translate(-1042.000000, -2785.000000)" fill="#0D8AFF" fill-rule="nonzero" stroke="#0D8AFF">
            <path d="M1051.08066,2786.13535 C1050.91718,2785.95488 1050.64509,2785.95488 1050.4759,2786.13535 C1050.31242,2786.30973 1050.31242,2786.59995 1050.4759,2786.77391 L1053.54239,2790.04476 L1043.42337,2790.04476 C1043.18749,2790.04516 1043,2790.24514 1043,2790.49675 C1043,2790.74835 1043.18749,2790.95484 1043.42337,2790.95484 L1053.54239,2790.95484 L1050.4759,2794.21958 C1050.31242,2794.40005 1050.31242,2794.69068 1050.4759,2794.86465 C1050.64509,2795.04512 1050.91756,2795.04512 1051.08066,2794.86465 L1054.8731,2790.81948 C1055.0423,2790.64511 1055.0423,2790.35489 1054.8731,2790.18092 L1051.08066,2786.13535 Z" id="Path"></path>
        </g>
    </g>
</svg>