<svg width="105" height="16" viewBox="0 0 105 16" fill="none" xmlns="http://www.w3.org/2000/svg">
<path d="M22.0795 2.49078e-06V15.6706H24.0383V3.59119L33.8324 15.6706H35.7913V2.49078e-06H33.8324V12.4059L23.7118 2.49078e-06H22.0795Z" fill="black"/>
<path d="M15.5501 15.6706H17.5089L10.9795 2.49078e-06H9.67357L9.0047 1.52884L8.0406 3.73251L2.81767 15.6706H4.7765L8.98106 6.02488L9.95095 3.79983L10.3265 2.93824L15.5501 15.6706Z" fill="black"/>
<path d="M12.9383 15.6706H14.8971L10.1459 4.26763L9.17297 6.49268L12.9383 15.6706Z" fill="black"/>
<path d="M7.0618 2.49078e-06H8.36768L8.80979 1.06105L7.84868 3.26472L7.71474 2.93824L2.16473 15.6706H0.205902L7.0618 2.49078e-06Z" fill="black"/>
<path d="M54.4001 8.81473H56.359V13.7118C54.4001 16.1603 52.5304 15.9357 49.8295 15.9971C43.1369 16.1492 41.6678 10.2838 41.6678 7.99855C41.6678 6.69266 42.1575 2.49078e-06 50.156 2.49078e-06C52.7678 2.49078e-06 53.9104 0.326471 55.3796 1.46912L54.2369 2.77501C52.6045 1.79559 51.857 1.63236 50.156 1.63236C44.4428 1.63236 43.6266 7.01913 43.6266 7.99855C43.6266 10.4471 45.4222 14.2015 49.8295 14.3647C52.7658 14.4735 54.4001 13.0589 54.4001 13.0589V8.81473Z" fill="black"/>
<path d="M61.909 15.6706V0H72.6825V1.63236H63.8678V6.8559H71.7031V8.48825H63.8678V14.0383H73.009V15.6706H61.909Z" fill="black"/>
<path d="M80.8443 0H78.8855V15.6706H89.9855V14.0383H80.8443V0Z" fill="black"/>
<path d="M98.8002 0C93.5767 0 92.9238 2.77501 92.9238 4.24413C92.9238 10.7736 102.718 7.18237 102.718 11.753C102.718 12.7324 102.065 14.3647 98.8002 14.3647C97.0992 14.3647 95.2091 13.3853 93.5767 12.4059L92.5973 13.7118C94.3929 14.8544 96.8414 15.9971 99.1267 15.9971C103.208 15.9971 104.35 13.7118 104.35 11.753C104.35 5.22354 94.5561 8.48825 94.5561 4.24413C94.5561 3.26471 95.5355 1.63236 98.8002 1.63236C100.501 1.63236 101.249 2.12206 102.881 3.10148L104.024 1.79559C102.555 0.65294 101.412 0 98.8002 0Z" fill="black"/>
</svg>
