<svg width="52" height="16" viewBox="0 0 52 16" fill="none" xmlns="http://www.w3.org/2000/svg">
<path fill-rule="evenodd" clip-rule="evenodd" d="M4.34225 16H5.54025V9.6H4.34225V16ZM8.73375 15.904H9.80675V11.866L14.3232 16V9.696H13.2533V13.665L8.73375 9.6V15.904ZM16.7728 14.354C17.3568 14.809 18.0577 15.072 18.8092 15.072C19.5412 15.072 20.0548 14.82 20.0548 14.2635C20.0548 13.7785 19.7272 13.5885 19.1537 13.376L18.2253 13.0535C17.3693 12.7495 16.7183 12.3055 16.7183 11.285C16.7183 10.1935 17.7037 9.6 18.8822 9.6C19.6042 9.6 20.2623 9.7815 20.7763 10.103V11.1855C20.2418 10.7905 19.6568 10.5185 18.9053 10.5185C18.2583 10.5185 17.7747 10.76 17.7747 11.2635C17.7747 11.7185 18.0783 11.9005 18.6128 12.0835L19.6473 12.4465C20.6498 12.799 21.1098 13.3455 21.1098 14.2445C21.1098 15.3755 20.1147 16 18.8092 16C17.9512 16 17.2218 15.76 16.7728 15.457V14.354ZM23.9048 16H25.1023V9.6H23.9048V16ZM30.7203 15.0315C32.0703 15.0315 32.7918 14.1655 32.7918 12.7985C32.7918 11.4215 32.0698 10.5585 30.7203 10.5585H29.3853V15.0315H30.7203V15.0315ZM28.2952 9.6H30.7603C32.6578 9.6 33.8848 10.85 33.8848 12.7985C33.8848 14.7485 32.6578 16 30.7603 16H28.2952V9.6ZM39.8737 9.6V10.5585H36.9753V12.0985H39.5747V13.046H36.9748V15.0315H39.8737V16H35.8812V9.6H39.8737ZM44.1248 12.498H45.3133C46.0168 12.498 46.4132 12.112 46.4132 11.5185C46.4132 10.925 46.0168 10.5385 45.3133 10.5385H44.1248V12.4985V12.498ZM44.1248 13.403V16H43.0672V9.6H45.3333C46.6253 9.6 47.4613 10.2655 47.4613 11.5185C47.4613 12.59 46.9973 13.2055 46.0088 13.3635L48.2573 16H47.0542L44.8773 13.4035H44.1253L44.1248 13.403ZM3.92375 3.295C4.39225 3.1235 4.75725 2.609 4.75725 1.9015C4.75725 0.7225 3.92375 0.1115 2.59025 0.1115H0.35025V6.693H2.79825C4.13175 6.693 4.96525 6.039 4.96525 4.8065C4.96525 4.1095 4.52775 3.4985 3.92375 3.295ZM1.40225 2.877V1.0765H2.58025C3.32025 1.0765 3.71575 1.3445 3.71575 1.966C3.71575 2.5875 3.31975 2.877 2.58025 2.877H1.40225ZM1.40225 3.799H2.77725C3.50725 3.799 3.90275 4.163 3.90275 4.7635C3.90275 5.353 3.50675 5.7285 2.77775 5.7285H1.40275V3.7985L1.40225 3.799ZM9.85275 6.8C11.3842 6.8 12.4158 5.878 12.4158 4.0775V0.1115H11.3323V3.9485C11.3323 5.2135 10.8112 5.8035 9.85275 5.8035C8.89425 5.8035 8.37375 5.2135 8.37375 3.9485V0.1115H7.29025V4.0665C7.29025 5.878 8.33175 6.8 9.85275 6.8V6.8ZM14.9668 6.221C15.4148 6.543 16.1443 6.8 16.9983 6.8C18.3008 6.8 19.2903 6.135 19.2903 4.935C19.2903 3.981 18.8323 3.402 17.8318 3.027L16.8008 2.641C16.2693 2.4485 15.9672 2.2555 15.9672 1.773C15.9672 1.237 16.4463 0.98 17.0923 0.98C17.8423 0.98 18.4258 1.269 18.9573 1.6875V0.54C18.4468 0.1975 17.7903 0.0045 17.0713 0.0045C15.8943 0.0045 14.9148 0.637 14.9148 1.7945C14.9148 2.877 15.5608 3.3485 16.4148 3.67L17.3423 4.013C17.9153 4.238 18.2383 4.442 18.2383 4.9565C18.2383 5.546 17.7278 5.814 16.9983 5.814C16.2483 5.814 15.5503 5.535 14.9668 5.053V6.221V6.221ZM23.1618 0.1115H22.0788V6.6925H23.1618V0.1115ZM26.2528 6.6845H27.2968V2.403L31.6908 6.7865V0.1015H30.6497V4.31L26.2528 0V6.6845V6.6845ZM38.4613 0.113V1.0985H35.6483V2.6825H38.1707V3.657H35.6483V5.6985H38.4613V6.6945H34.5863V0.113H38.4613ZM40.9837 6.2165C41.4317 6.5385 42.1608 6.7955 43.0153 6.7955C44.3173 6.7955 45.3073 6.131 45.3073 4.9305C45.3073 3.9765 44.8488 3.398 43.8488 3.0225L42.8172 2.637C42.2857 2.444 41.9837 2.251 41.9837 1.7685C41.9837 1.2325 42.4627 0.9755 43.1087 0.9755C43.8587 0.9755 44.4423 1.265 44.9738 1.683V0.536C44.4633 0.193 43.8067 0 43.0877 0C41.9107 0 40.9313 0.6325 40.9313 1.79C40.9313 2.8725 41.5773 3.344 42.4313 3.6655L43.3587 4.0085C43.9317 4.2335 44.2547 4.4375 44.2547 4.952C44.2547 5.5415 43.7448 5.8095 43.0148 5.8095C42.2648 5.8095 41.5667 5.531 40.9837 5.0485V6.2165V6.2165ZM47.5267 6.2165C47.9747 6.5385 48.7043 6.7955 49.5583 6.7955C50.8608 6.7955 51.8503 6.131 51.8503 4.9305C51.8503 3.9765 51.3918 3.398 50.3918 3.0225L49.3602 2.637C48.8292 2.444 48.5267 2.251 48.5267 1.7685C48.5267 1.2325 49.0062 0.9755 49.6517 0.9755C50.4017 0.9755 50.9858 1.265 51.5168 1.683V0.536C51.0068 0.193 50.3502 0 49.6312 0C48.4537 0 47.4748 0.6325 47.4748 1.79C47.4748 2.8725 48.1208 3.344 48.9748 3.6655L49.9022 4.0085C50.4752 4.2335 50.7983 4.4375 50.7983 4.952C50.7983 5.5415 50.2878 5.8095 49.5583 5.8095C48.8083 5.8095 48.1102 5.531 47.5267 5.0485V6.2165V6.2165Z" fill="black"/>
</svg>
