<svg width="129" height="12" viewBox="0 0 129 14" fill="none" xmlns="http://www.w3.org/2000/svg">
<path d="M2.84384 13.3641H0.0712891V0.0710449H2.84384V13.3641Z" fill="#091E42"/>
<path d="M20.5496 9.22427V0.0710449H23.3031V13.3641H20.4736L13.7891 4.19189V13.3641H11.0166V0.0710449H13.8461L20.5496 9.22427Z" fill="#091E42"/>
<path d="M30.4499 0.0710449H39.964V2.52077H36.5837V13.3641H33.8302V2.52077H30.4499V0.0710449Z" fill="#091E42"/>
<path d="M55.2597 0.0710449V2.52077H49.8666V5.36928H54.5191V7.819H49.8666V10.9144H55.2597V13.3641H47.094V0.0710449H55.2597Z" fill="#091E42"/>
<path d="M73.7577 13.3641H70.3965L66.6744 7.89496H65.7819V13.3641H63.0093V0.0710449H68.3645C69.7318 0.0710449 70.7763 0.438187 71.4979 1.17247C72.2322 1.90675 72.5993 2.86892 72.5993 4.05896C72.5993 5.99595 71.6372 7.17967 69.7128 7.61011L73.7577 13.3641ZM65.7819 5.63514H67.9657C68.5734 5.63514 69.0355 5.51487 69.352 5.27433C69.6812 5.02113 69.8458 4.61601 69.8458 4.05896C69.8458 3.51458 69.6812 3.12212 69.352 2.88158C69.0355 2.64104 68.5734 2.52077 67.9657 2.52077H65.7819V5.63514Z" fill="#091E42"/>
<path d="M90.4605 9.22427V0.0710449H93.2141V13.3641H90.3846L83.7001 4.19189V13.3641H80.9275V0.0710449H83.757L90.4605 9.22427Z" fill="#091E42"/>
<path d="M107.881 6.50868L112.477 13.3641H109.286L106.381 8.80649L103.494 13.3641H100.323L104.9 6.52767L100.57 0.0710449H103.722L106.381 4.22987L109.058 0.0710449H112.23L107.881 6.50868Z" fill="#091E42"/>
<path d="M118.557 0.0710449H128.071V2.52077H124.691V13.3641H121.937V2.52077H118.557V0.0710449Z" fill="#091E42"/>
</svg>
