<svg width="102" height="16" viewBox="0 0 102 16" fill="none" xmlns="http://www.w3.org/2000/svg">
<path d="M11.2211 16H3.81057C0.307412 11.7053 -0.214693 5.70947 2.53057 0.875789L7.33057 9.22948L12.6358 0H20.4337L11.2211 16ZM25.5874 0.909473C28.2653 5.72632 27.76 11.6884 24.3243 16H17.0485L19.2885 12.0421H16.3243L19.8106 5.89474H22.7916L25.5874 0.909473ZM32.9811 8.23579C32.9811 11.739 34.5811 13.4232 37.3432 13.4232C40.1053 13.4232 41.7053 11.7558 41.7053 8.23579C41.7053 4.71579 40.1053 3.03158 37.3432 3.03158C34.5811 3.03158 32.9811 4.69895 32.9811 8.23579ZM31.7179 8.23579C31.7179 3.97474 33.84 1.92 37.3264 1.92C40.8127 1.92 42.9348 3.97474 42.9348 8.23579C42.9348 12.4632 40.8127 14.5347 37.3264 14.5347C33.84 14.5347 31.7179 12.4632 31.7179 8.23579ZM48.4758 12.0926L44.8211 2.40842C44.7706 2.25684 44.5853 2.00421 44.2485 2.00421C43.9116 2.00421 43.6422 2.27368 43.6422 2.61053C43.6422 2.71158 43.6758 2.82947 43.6927 2.88L47.9032 13.9789C47.9874 14.2316 48.24 14.4 48.4758 14.4C48.7116 14.4 48.9643 14.2316 49.0485 13.9789L53.259 2.88C53.2758 2.82947 53.3095 2.71158 53.3095 2.61053C53.3095 2.27368 53.0401 2.00421 52.7032 2.00421C52.3664 2.00421 52.1811 2.25684 52.1306 2.40842L48.4758 12.0926ZM62.1348 8.62316V13.8105C62.1348 14.1305 62.4043 14.4168 62.7411 14.4168C63.0779 14.4168 63.3474 14.1305 63.3474 13.8105V2.62737C63.3474 2.30737 63.0779 2.02105 62.7411 2.02105C62.4043 2.02105 62.1348 2.30737 62.1348 2.62737V7.51158H55.8695V2.62737C55.8695 2.30737 55.6001 2.02105 55.2632 2.02105C54.9264 2.02105 54.6569 2.30737 54.6569 2.62737V13.8105C54.6569 14.1305 54.9264 14.4168 55.2632 14.4168C55.6001 14.4168 55.8695 14.1305 55.8695 13.8105V8.62316H62.1348V8.62316ZM69.1411 5.86105C66.8169 5.86105 65.4358 7.22527 65.4358 10.1726C65.4358 13.12 66.8169 14.5179 69.1411 14.5179C70.6064 14.5179 71.4653 13.8779 71.8527 13.5411C72.038 13.3726 72.0885 13.2547 72.0885 13.0863C72.0885 12.8 71.8527 12.5642 71.5664 12.5642C71.4316 12.5642 71.3474 12.5979 71.2295 12.6821C70.8085 12.9853 70.1853 13.4568 69.1411 13.4568C67.4906 13.4568 66.5979 12.4126 66.5979 10.1558C66.5979 7.94948 67.4737 6.87158 69.1411 6.87158C70.3369 6.87158 70.8085 7.41053 71.0779 7.71369C71.1958 7.86526 71.3306 7.93263 71.5158 7.93263C71.8022 7.93263 72.038 7.71368 72.038 7.41052C72.038 7.29263 72.0043 7.19158 71.9032 7.07368C71.6169 6.70316 70.7411 5.86105 69.1411 5.86105ZM74.8843 2.03789C74.8843 1.73474 74.6316 1.46526 74.3116 1.46526C74.0085 1.46526 73.739 1.73474 73.739 2.03789V12.3116C73.739 13.6926 74.4127 14.4168 75.6085 14.4168C75.8948 14.4168 76.1474 14.1811 76.1474 13.8779C76.1474 13.5747 75.8948 13.3389 75.6085 13.3389C75.1201 13.3389 74.8843 13.0358 74.8843 12.3116V2.03789V2.03789ZM83.5074 10.1726C83.5074 7.89895 82.5474 6.90526 80.8969 6.90526C79.2464 6.90526 78.2864 7.91579 78.2864 10.1726C78.2864 12.48 79.2464 13.4737 80.8969 13.4737C82.5643 13.4737 83.5074 12.48 83.5074 10.1726ZM84.6864 10.1726C84.6864 13.12 83.2548 14.5179 80.9137 14.5179C78.5895 14.5179 77.1411 13.1368 77.1411 10.1726C77.1411 7.22527 78.6064 5.86105 80.9137 5.86105C83.2379 5.86105 84.6864 7.22527 84.6864 10.1726ZM87.4653 6.53474C87.4653 6.21474 87.1958 5.96211 86.8927 5.96211C86.5727 5.96211 86.3201 6.21474 86.3201 6.53474V11.2337C86.3201 12.9516 86.8927 14.5011 89.6716 14.5011C92.4674 14.5011 93.0232 12.9347 93.0232 11.2337V6.53474C93.0232 6.21474 92.7706 5.96211 92.4674 5.96211C92.1474 5.96211 91.878 6.21474 91.878 6.53474V11.2337C91.878 12.3958 91.5074 13.4063 89.6885 13.4063C87.8695 13.4063 87.499 12.3958 87.499 11.2337V6.53474H87.4653ZM100.686 8.48842C100.686 8.48842 99.9958 6.90526 98.3116 6.90526C96.678 6.90526 95.7685 7.96632 95.7685 10.1726C95.7685 12.4295 96.6443 13.4737 98.3116 13.4737C99.6927 13.4737 100.686 12.6821 100.686 10.9642V8.48842ZM100.686 7.02316V2.03789C100.686 1.71789 100.939 1.46526 101.259 1.46526C101.579 1.46526 101.832 1.71789 101.832 2.03789V10.9642C101.832 13.3389 100.35 14.5179 98.3116 14.5179C95.9874 14.5179 94.6232 13.1368 94.6232 10.1726C94.6232 7.22527 95.9201 5.86105 98.2443 5.86105C99.3895 5.86105 100.265 6.45053 100.686 7.02316Z" fill="black"/>
</svg>
