<svg width="113" height="16" viewBox="0 0 113 16" fill="none" xmlns="http://www.w3.org/2000/svg">
<path d="M21.7547 5.33333H32.2162V0H21.7547V5.33333Z" fill="black"/>
<path d="M0.85025 0V5.33333H6.07169V16H11.2931V5.33333H16.5332V0H0.85025Z" fill="black"/>
<path d="M16.5332 16H32.2162V10.6667H21.7547V5.33333H16.5332V16Z" fill="black"/>
<path d="M45.5495 4.02797H37.8666V6.24709H40.44V13.2028H42.9761V6.24709H45.5495V4.02797Z" fill="black"/>
<path d="M48.44 6.17249C46.6311 6.17249 45.2885 7.38461 45.2885 9.77156C45.2885 11.8788 46.426 13.352 48.4959 13.352C49.5775 13.352 50.454 13.0723 51.2931 12.5688L50.398 11.0583C49.7081 11.4126 49.2232 11.5431 48.6078 11.5431C47.9738 11.5431 47.5262 11.2075 47.433 10.4429H51.4796C51.4983 10.331 51.4983 10.1818 51.4983 9.97669C51.5169 7.42191 50.3421 6.17249 48.44 6.17249ZM47.4703 8.9697C47.5449 8.27972 47.8432 7.92541 48.384 7.92541C49.074 7.92541 49.3164 8.27972 49.4283 8.9697H47.4703Z" fill="black"/>
<path d="M55.9924 11.4312C55.3584 11.4312 55.0227 10.8718 55.0227 9.77156C55.0227 8.68997 55.3211 8.07459 55.9365 8.07459C56.44 8.07459 56.6638 8.35431 56.9994 8.9697L58.6218 7.73893C58.0251 6.76923 57.2791 6.17249 55.9738 6.17249C53.7733 6.17249 52.6917 7.62704 52.6917 9.73427C52.6917 12.0466 53.9039 13.3333 55.9178 13.3333C57.13 13.3333 57.8759 12.8671 58.6777 11.6923L57.1859 10.5175C56.7384 11.1888 56.44 11.4312 55.9924 11.4312Z" fill="black"/>
<path d="M64.123 6.17249C63.3025 6.17249 62.8176 6.45222 62.3887 6.76923V3.65501L60.0204 4.60606V13.2214H62.3887V9.28671C62.3887 8.42891 62.6871 8.18648 63.1906 8.18648C63.6754 8.18648 63.9738 8.4289 63.9738 9.30536V13.2214H66.3421V9.00699C66.3421 7.19814 65.6148 6.17249 64.123 6.17249Z" fill="black"/>
<path d="M72.0297 11.1329C70.9295 11.1329 70.4819 10.014 70.4819 8.61539C70.4819 7.16084 70.9481 6.0979 72.0111 6.0979C72.8502 6.0979 73.1673 6.6387 73.4843 7.4965L75.7966 6.58275C75.1626 4.84849 74.2675 3.87879 72.0111 3.87879C69.5495 3.87879 67.8153 5.669 67.8153 8.61539C67.8153 11.338 69.2698 13.352 71.9924 13.352C74.1742 13.352 75.1999 12.1772 75.8153 10.9837L73.6707 9.84616C73.1673 10.704 72.8316 11.1329 72.0297 11.1329Z" fill="black"/>
<path d="M79.6195 6.82517V6.32168H77.2512V13.2028H79.6195V9.45455C79.6195 8.61539 79.9738 8.33566 80.5519 8.33566C81.0181 8.33566 81.3537 8.57809 81.6521 8.91375L82.2115 6.47086C81.9318 6.30303 81.5962 6.17249 81.0927 6.17249C80.4773 6.17249 80.0111 6.43357 79.6195 6.82517Z" fill="black"/>
<path d="M87.2652 10.2564C87.2652 11.1142 86.9668 11.3566 86.4819 11.3566C85.9971 11.3566 85.6987 11.1142 85.6987 10.2378V6.32168H83.3304V10.5361C83.3304 12.345 84.0577 13.352 85.5682 13.352C86.37 13.352 86.8735 13.0723 87.2838 12.7552V13.2214H89.6521V6.34033H87.2838V10.2564" fill="black"/>
<path d="M95.4516 6.17249C94.6311 6.17249 94.1463 6.45222 93.7174 6.76923V6.30303H91.3491V13.1841H93.7174V9.24942C93.7174 8.39161 94.0157 8.14918 94.5192 8.14918C95.0041 8.14918 95.3024 8.39161 95.3024 9.26807V13.1841H97.6707V8.9697C97.6707 7.19813 96.9621 6.17249 95.4516 6.17249Z" fill="black"/>
<path d="M102.37 11.4312C101.736 11.4312 101.4 10.8718 101.4 9.77156C101.4 8.68997 101.699 8.07459 102.295 8.07459C102.799 8.07459 103.023 8.35431 103.358 8.9697L104.981 7.73893C104.384 6.76923 103.638 6.17249 102.333 6.17249C100.132 6.17249 99.0507 7.62704 99.0507 9.73427C99.0507 12.0466 100.263 13.3333 102.277 13.3333C103.489 13.3333 104.235 12.8671 105.037 11.6923L103.545 10.5175C103.135 11.1888 102.818 11.4312 102.37 11.4312Z" fill="black"/>
<path d="M110.501 6.17249C109.68 6.17249 109.195 6.45222 108.766 6.76923V3.65501L106.398 4.60606V13.2214H108.766V9.28671C108.766 8.42891 109.065 8.18648 109.568 8.18648C110.053 8.18648 110.351 8.4289 110.351 9.30536V13.2214H112.72V9.00699C112.738 7.19814 112.011 6.17249 110.501 6.17249Z" fill="black"/>
</svg>
