
<svg width="319" height="287" viewBox="0 0 319 287" fill="none" xmlns="http://www.w3.org/2000/svg">
<g filter="url(#filter0_dd_3327_11880)">
<g filter="url(#filter1_d_3327_11880)">
<g clip-path="url(#clip0_3327_11880)">
<rect width="318.889" height="287" rx="8" fill="white"/>
<g clip-path="url(#clip1_3327_11880)">
<path d="M0 7.97223C0 3.56929 3.56929 0 7.97222 0H310.917C315.32 0 318.889 3.56929 318.889 7.97222V39.8611H0V7.97223Z" fill="#F3F3F8"/>
<path d="M21.9236 11.9585C23.2876 11.9585 24.6289 12.3085 25.819 12.975C27.0091 13.6415 28.0083 14.6022 28.721 15.7652C29.4337 16.9283 29.8361 18.2547 29.8897 19.6177C29.9432 20.9807 29.6461 22.3347 29.0269 23.55C28.4076 24.7654 27.4869 25.8016 26.3527 26.5594C25.2185 27.3172 23.9089 27.7713 22.5491 27.8784C21.1892 27.9854 19.8247 27.7417 18.5859 27.1706C17.3472 26.5996 16.2757 25.7202 15.4739 24.6167L17.0863 23.4452C17.6877 24.2728 18.4913 24.9324 19.4203 25.3607C20.3494 25.789 21.3728 25.9717 22.3927 25.8915C23.4126 25.8112 24.3948 25.4706 25.2454 24.9022C26.096 24.3338 26.7866 23.5567 27.2511 22.6452C27.7155 21.7337 27.9383 20.7182 27.8981 19.696C27.858 18.6737 27.5562 17.6789 27.0217 16.8066C26.4871 15.9343 25.7377 15.2138 24.8451 14.7139C23.9525 14.214 22.9466 13.9516 21.9236 13.9516L21.9236 11.9585Z" fill="#636367"/>
<path d="M47.5503 24.4307L43.6439 14.6647H41.9558L38.0355 24.4307H39.6678L40.477 22.338H45.1088L45.918 24.4307H47.5503ZM42.8068 16.3249L44.6066 20.9986H40.9932L42.8068 16.3249ZM51.7225 17.8038C50.9831 17.8038 50.4251 18.2362 50.0763 18.9059V17.9154H48.6253V24.4307H50.0763V21.0963C50.0763 19.9383 50.7738 19.171 51.7086 19.171C51.9179 19.171 52.1411 19.2128 52.3085 19.2966V17.9154C52.155 17.8596 51.9318 17.8038 51.7225 17.8038ZM56.5196 24.5562C58.4449 24.5562 59.9796 23.0634 59.9796 21.18C59.9796 19.2826 58.4449 17.7898 56.5196 17.7898C54.5804 17.7898 53.0318 19.2826 53.0318 21.18C53.0318 23.0634 54.5804 24.5562 56.5196 24.5562ZM56.5196 23.2029C55.3756 23.2029 54.4827 22.3101 54.4827 21.18C54.4827 20.0499 55.3756 19.157 56.5196 19.157C57.6218 19.157 58.5426 20.0499 58.5426 21.18C58.5426 22.3101 57.6218 23.2029 56.5196 23.2029ZM64.0545 24.5562C65.7286 24.5562 66.7471 23.5796 66.7471 22.031V17.9154H65.2822V21.8636C65.2822 22.7146 64.7799 23.2029 64.0545 23.2029C63.3429 23.2029 62.8128 22.7146 62.8128 21.8636V17.9154H61.3758V22.031C61.3758 23.5796 62.3803 24.5562 64.0545 24.5562ZM71.6015 17.7898C70.9598 17.7898 70.3598 18.0409 69.9134 18.4734V17.9154H68.4625V24.4307H69.9134V20.4964C69.9134 19.6593 70.4854 19.1152 71.2388 19.1152C71.9363 19.1152 72.4805 19.6314 72.4805 20.4127V24.4307H73.9453V20.2034C73.9453 18.8501 72.899 17.7898 71.6015 17.7898ZM80.7481 18.7245C80.2179 18.1386 79.4785 17.7898 78.5158 17.7898C76.7998 17.7898 75.3349 19.2407 75.3349 21.18C75.3349 23.1053 76.8417 24.5562 78.5158 24.5562C79.4924 24.5562 80.2319 24.2214 80.7481 23.6494V24.4307H82.213V14.6647H80.7481V18.7245ZM78.8228 23.2029C77.6648 23.2029 76.7859 22.324 76.7859 21.18C76.7859 20.022 77.6648 19.157 78.8228 19.157C79.9668 19.157 80.8457 20.022 80.8457 21.18C80.8457 22.324 79.9668 23.2029 78.8228 23.2029ZM89.6267 23.0495C93.0448 19.5756 93.8121 18.8083 93.7703 17.2457C93.7284 15.5715 92.4588 14.5391 90.7707 14.5252C89.0966 14.5252 87.6317 15.6134 87.6456 17.5108H89.1663C89.1384 16.4923 89.8499 15.8785 90.7289 15.8924C91.5659 15.9064 92.2635 16.4226 92.2635 17.4131C92.2635 18.4316 91.8171 18.8501 87.5061 23.3006V24.4307H94.0353V23.0495H89.6267ZM98.8776 24.5562C100.984 24.5562 102.254 22.4914 102.254 19.5477C102.254 16.6039 100.984 14.5391 98.8776 14.5391C96.757 14.5391 95.4874 16.6039 95.4874 19.5477C95.4874 22.4914 96.757 24.5562 98.8776 24.5562ZM98.8915 23.1332C97.6917 23.1332 96.9802 21.6543 96.9802 19.5477C96.9802 17.441 97.6917 15.9622 98.8915 15.9622C100.063 15.9622 100.789 17.441 100.789 19.5477C100.789 21.6543 100.063 23.1332 98.8915 23.1332ZM109.59 24.5562C110.971 24.5562 111.878 23.7191 111.878 22.5472C111.878 21.3753 110.915 20.887 110.023 20.5522C109.269 20.2732 108.795 20.1197 108.795 19.6453C108.795 19.1849 109.116 18.9617 109.548 18.9617C109.995 18.9617 110.469 19.1989 110.72 19.5477L111.683 18.7664C111.222 18.1525 110.441 17.7898 109.59 17.7898C108.293 17.7898 107.344 18.5432 107.344 19.743C107.344 20.7754 108.041 21.2777 109.088 21.6822C109.883 21.9892 110.413 22.1566 110.413 22.617C110.413 23.0495 110.092 23.3564 109.52 23.3564C108.976 23.3564 108.432 23.0913 108.097 22.617L107.065 23.3704C107.525 24.0679 108.544 24.5562 109.59 24.5562ZM119.828 21.1242C119.8 19.1849 118.377 17.7898 116.493 17.7898C114.498 17.7898 113.047 19.2826 113.047 21.18C113.047 23.0634 114.428 24.5562 116.535 24.5562C117.833 24.5562 118.963 23.8587 119.493 22.7704L118.251 22.2682C117.888 22.91 117.233 23.2727 116.493 23.2727C115.447 23.2727 114.61 22.5193 114.512 21.4311H119.814L119.828 21.1242ZM116.479 19.0594C117.33 19.0594 117.958 19.5616 118.237 20.329H114.652C114.945 19.5756 115.6 19.0594 116.479 19.0594ZM124.478 24.5562C125.887 24.5562 127.101 23.7889 127.631 22.5333L126.32 21.9892C126.027 22.7146 125.343 23.2029 124.478 23.2029C123.306 23.2029 122.441 22.338 122.441 21.18C122.441 20.0081 123.306 19.157 124.478 19.157C125.343 19.157 126.027 19.6453 126.32 20.3708L127.631 19.8128C127.101 18.5571 125.887 17.7898 124.478 17.7898C122.539 17.7898 120.99 19.2547 120.99 21.18C120.99 23.0913 122.539 24.5562 124.478 24.5562ZM132.203 24.5562C134.128 24.5562 135.663 23.0634 135.663 21.18C135.663 19.2826 134.128 17.7898 132.203 17.7898C130.264 17.7898 128.715 19.2826 128.715 21.18C128.715 23.0634 130.264 24.5562 132.203 24.5562ZM132.203 23.2029C131.059 23.2029 130.166 22.3101 130.166 21.18C130.166 20.0499 131.059 19.157 132.203 19.157C133.305 19.157 134.226 20.0499 134.226 21.18C134.226 22.3101 133.305 23.2029 132.203 23.2029ZM140.282 17.7898C139.64 17.7898 139.04 18.0409 138.594 18.4734V17.9154H137.143V24.4307H138.594V20.4964C138.594 19.6593 139.166 19.1152 139.919 19.1152C140.617 19.1152 141.161 19.6314 141.161 20.4127V24.4307H142.626V20.2034C142.626 18.8501 141.58 17.7898 140.282 17.7898ZM149.429 18.7245C148.899 18.1386 148.159 17.7898 147.196 17.7898C145.48 17.7898 144.016 19.2407 144.016 21.18C144.016 23.1053 145.522 24.5562 147.196 24.5562C148.173 24.5562 148.912 24.2214 149.429 23.6494V24.4307H150.894V14.6647H149.429V18.7245ZM147.503 23.2029C146.345 23.2029 145.466 22.324 145.466 21.18C145.466 20.022 146.345 19.157 147.503 19.157C148.647 19.157 149.526 20.022 149.526 21.18C149.526 22.324 148.647 23.2029 147.503 23.2029ZM154.837 24.5562C156.218 24.5562 157.125 23.7191 157.125 22.5472C157.125 21.3753 156.162 20.887 155.269 20.5522C154.516 20.2732 154.041 20.1197 154.041 19.6453C154.041 19.1849 154.362 18.9617 154.795 18.9617C155.241 18.9617 155.716 19.1989 155.967 19.5477L156.929 18.7664C156.469 18.1525 155.688 17.7898 154.837 17.7898C153.539 17.7898 152.591 18.5432 152.591 19.743C152.591 20.7754 153.288 21.2777 154.334 21.6822C155.13 21.9892 155.66 22.1566 155.66 22.617C155.66 23.0495 155.339 23.3564 154.767 23.3564C154.223 23.3564 153.679 23.0913 153.344 22.617L152.311 23.3704C152.772 24.0679 153.79 24.5562 154.837 24.5562ZM163.704 24.4307V14.6647H162.253V24.4307H163.704ZM171.968 21.1242C171.94 19.1849 170.517 17.7898 168.634 17.7898C166.639 17.7898 165.188 19.2826 165.188 21.18C165.188 23.0634 166.569 24.5562 168.676 24.5562C169.973 24.5562 171.103 23.8587 171.633 22.7704L170.392 22.2682C170.029 22.91 169.373 23.2727 168.634 23.2727C167.587 23.2727 166.75 22.5193 166.653 21.4311H171.954L171.968 21.1242ZM168.62 19.0594C169.471 19.0594 170.099 19.5616 170.378 20.329H166.792C167.085 19.5756 167.741 19.0594 168.62 19.0594ZM175.407 17.9154V16.8969C175.407 16.2412 175.741 15.8645 176.341 15.8645C176.592 15.8645 176.858 15.9064 177.039 15.9901V14.7065C176.83 14.6089 176.467 14.5391 176.076 14.5391C174.765 14.5391 173.956 15.3623 173.956 16.7016V17.9154H172.867V19.1431H173.956V24.4307H175.407V19.1431H177.067V17.9154H175.407ZM179.553 17.9154V15.5715H178.088V17.9154H176.777V19.1431H178.088V24.4307H179.553V19.1431H180.864V17.9154H179.553Z" fill="#636367"/>
<path d="M266.571 16.9409L259.097 24.4149L251.623 16.9409" stroke="#636367" stroke-width="1.49479" stroke-linecap="round" stroke-linejoin="round"/>
<path d="M305.685 13.2039L292.232 26.657" stroke="#C7C7CD" stroke-width="1.49479" stroke-linecap="round" stroke-linejoin="round"/>
<path d="M305.685 26.657L292.232 13.2039" stroke="#C7C7CD" stroke-width="1.49479" stroke-linecap="round" stroke-linejoin="round"/>
</g>
<path d="M318.889 40.3594H319.387V39.8611V7.97222C319.387 3.2941 315.595 -0.498264 310.917 -0.498264H7.97222C3.2941 -0.498264 -0.498264 3.29411 -0.498264 7.97223V39.8611V40.3594H0H318.889Z" stroke="#E5E5EB" stroke-width="0.996528"/>
<rect width="318.889" height="55.8056" transform="translate(0 43.8474)" fill="white"/>
<g clip-path="url(#clip2_3327_11880)">
<g filter="url(#filter2_i_3327_11880)">
<path d="M15.9444 57.3007C15.9444 56.4751 16.6136 55.8059 17.4392 55.8059H38.3663C39.1918 55.8059 39.8611 56.4751 39.8611 57.3007V86.2C39.8611 87.0256 39.1918 87.6948 38.3663 87.6948H17.4392C16.6136 87.6948 15.9444 87.0256 15.9444 86.2V57.3007Z" fill="#FCFCFD"/>
</g>
<path d="M15.9444 57.3007C15.9444 56.4751 16.6136 55.8059 17.4392 55.8059H38.3663C39.1918 55.8059 39.8611 56.4751 39.8611 57.3007V86.2C39.8611 87.0256 39.1918 87.6948 38.3663 87.6948H17.4392C16.6136 87.6948 15.9444 87.0256 15.9444 86.2V57.3007Z" fill="#FCFCFD"/>
<path d="M17.4392 56.0052H38.3663C39.0817 56.0052 39.6618 56.5852 39.6618 57.3007V86.2C39.6618 86.9155 39.0817 87.4955 38.3663 87.4955H17.4392C16.7237 87.4955 16.1437 86.9155 16.1437 86.2V57.3007C16.1437 56.5852 16.7237 56.0052 17.4392 56.0052Z" stroke="#E5E5EB" stroke-width="0.398611"/>
<mask id="path-13-inside-1_3327_11880" fill="white">
<path d="M17.4392 87.6947H38.3663C39.1918 87.6947 39.8611 87.0254 39.8611 86.1999V85.2034C39.8611 86.0289 39.1918 86.6982 38.3663 86.6982H17.4392C16.6136 86.6982 15.9444 86.0289 15.9444 85.2034V86.1999C15.9444 87.0254 16.6136 87.6947 17.4392 87.6947Z"/>
</mask>
<path d="M17.4392 87.6947H38.3663C39.1918 87.6947 39.8611 87.0254 39.8611 86.1999V85.2034C39.8611 86.0289 39.1918 86.6982 38.3663 86.6982H17.4392C16.6136 86.6982 15.9444 86.0289 15.9444 85.2034V86.1999C15.9444 87.0254 16.6136 87.6947 17.4392 87.6947Z" fill="#E5E5EB"/>
<path d="M38.3663 86.6982H17.4392V88.6912H38.3663V86.6982ZM17.4392 86.6982C17.164 86.6982 16.9409 86.4751 16.9409 86.1999H14.9479C14.9479 87.5758 16.0633 88.6912 17.4392 88.6912V86.6982ZM38.8645 86.1999C38.8645 86.4751 38.6415 86.6982 38.3663 86.6982V88.6912C39.7422 88.6912 40.8576 87.5758 40.8576 86.1999H38.8645ZM38.3663 85.7016H17.4392V87.6947H38.3663V85.7016ZM17.4392 85.7016C17.164 85.7016 16.9409 85.4786 16.9409 85.2034H14.9479C14.9479 86.5793 16.0633 87.6947 17.4392 87.6947V85.7016ZM38.8645 85.2034C38.8645 85.4786 38.6415 85.7016 38.3663 85.7016V87.6947C39.7422 87.6947 40.8576 86.5793 40.8576 85.2034H38.8645ZM16.9409 86.1999V85.2034H14.9479V86.1999H16.9409ZM40.8576 86.1999V85.2034H38.8645V86.1999H40.8576Z" fill="#E5E5EB" mask="url(#path-13-inside-1_3327_11880)"/>
<path d="M21.449 69.2254V74.8059H22.6129V72.5259H23.6971C24.885 72.5259 25.4749 71.8721 25.4749 70.8915C25.4749 69.9269 24.885 69.2254 23.6971 69.2254H21.449ZM22.6129 71.5612V70.2538H23.5297C24.008 70.2538 24.319 70.4212 24.319 70.9075C24.319 71.3938 24.008 71.5612 23.5297 71.5612H22.6129ZM27.689 74.8059C29.7937 74.8059 30.6228 73.5543 30.6228 72.0156C30.6228 70.477 29.7937 69.2254 27.689 69.2254H25.975V74.8059H27.689ZM27.139 70.2538H27.6332C28.9168 70.2538 29.427 71.0191 29.427 72.0156C29.427 73.0122 28.9168 73.7775 27.6332 73.7775H27.139V70.2538ZM34.6791 69.2254H31.2511V74.8059H32.415V72.478H34.3682V71.4496H32.415V70.2538H34.6791V69.2254Z" fill="#FF0D00"/>
</g>
<rect x="28.8993" y="71.7501" width="17.9375" height="17.9375" rx="8.96875" fill="#32C356"/>
<path d="M41.2937 78.5391L36.9339 82.8989L34.754 80.719" stroke="white" stroke-width="0.934245" stroke-linecap="round" stroke-linejoin="round"/>
<rect x="28.8993" y="71.7501" width="17.9375" height="17.9375" rx="8.96875" stroke="white" stroke-width="1.99306"/>
<path d="M54.3447 69.2798V59.5138H52.8379V69.2798H54.3447ZM59.3941 62.6389C58.7523 62.6389 58.1524 62.89 57.706 63.3225V62.7645H56.255V69.2798H57.706V65.3455C57.706 64.5084 58.278 63.9643 59.0313 63.9643C59.7289 63.9643 60.273 64.4805 60.273 65.2618V69.2798H61.7379V65.0525C61.7379 63.6992 60.6916 62.6389 59.3941 62.6389ZM65.9363 67.5498L64.1924 62.7645H62.6298L65.2387 69.2798H66.6199L69.2428 62.7645H67.6802L65.9363 67.5498ZM73.3594 69.4053C75.2847 69.4053 76.8194 67.9125 76.8194 66.0291C76.8194 64.1317 75.2847 62.6389 73.3594 62.6389C71.4202 62.6389 69.8716 64.1317 69.8716 66.0291C69.8716 67.9125 71.4202 69.4053 73.3594 69.4053ZM73.3594 68.0521C72.2154 68.0521 71.3225 67.1592 71.3225 66.0291C71.3225 64.899 72.2154 64.0062 73.3594 64.0062C74.4616 64.0062 75.3824 64.899 75.3824 66.0291C75.3824 67.1592 74.4616 68.0521 73.3594 68.0521ZM78.9566 61.1461C79.4449 61.1461 79.8495 60.7415 79.8495 60.2672C79.8495 59.7649 79.4449 59.3883 78.9566 59.3883C78.4823 59.3883 78.0638 59.7649 78.0638 60.2672C78.0638 60.7415 78.4823 61.1461 78.9566 61.1461ZM79.6821 69.2798V62.7645H78.2312V69.2798H79.6821ZM84.5723 69.4053C85.9814 69.4053 87.1952 68.638 87.7253 67.3824L86.4139 66.8383C86.1209 67.5638 85.4373 68.0521 84.5723 68.0521C83.4004 68.0521 82.5354 67.1871 82.5354 66.0291C82.5354 64.8572 83.4004 64.0062 84.5723 64.0062C85.4373 64.0062 86.1209 64.4945 86.4139 65.2199L87.7253 64.6619C87.1952 63.4063 85.9814 62.6389 84.5723 62.6389C82.6331 62.6389 81.0845 64.1038 81.0845 66.0291C81.0845 67.9405 82.6331 69.4053 84.5723 69.4053ZM95.5899 65.9733C95.562 64.0341 94.1389 62.6389 92.2555 62.6389C90.2604 62.6389 88.8095 64.1317 88.8095 66.0291C88.8095 67.9125 90.1907 69.4053 92.2973 69.4053C93.5948 69.4053 94.7249 68.7078 95.255 67.6196L94.0134 67.1173C93.6506 67.7591 92.9949 68.1218 92.2555 68.1218C91.2091 68.1218 90.372 67.3684 90.2744 66.2802H95.5759L95.5899 65.9733ZM92.2415 63.9085C93.0926 63.9085 93.7204 64.4108 93.9994 65.1781H90.4139C90.7069 64.4247 91.3626 63.9085 92.2415 63.9085ZM97.8547 69.4053C98.329 69.4053 98.7336 69.0147 98.7336 68.5264C98.7336 68.0381 98.329 67.6335 97.8547 67.6335C97.3803 67.6335 96.9757 68.0381 96.9757 68.5264C96.9757 69.0147 97.3803 69.4053 97.8547 69.4053ZM104.136 62.6389C103.159 62.6389 102.42 62.9877 101.89 63.5737V62.7645H100.439V72.5305H101.89V68.4846C102.406 69.0566 103.159 69.4053 104.136 69.4053C105.81 69.4053 107.303 67.9544 107.303 66.0291C107.303 64.0899 105.852 62.6389 104.136 62.6389ZM103.829 68.0521C102.685 68.0521 101.806 67.1731 101.806 66.0291C101.806 64.8711 102.685 64.0062 103.829 64.0062C104.973 64.0062 105.866 64.8711 105.866 66.0291C105.866 67.1731 104.973 68.0521 103.829 68.0521ZM113.869 63.5737C113.339 62.9877 112.599 62.6389 111.637 62.6389C109.921 62.6389 108.456 64.0899 108.456 66.0291C108.456 67.9544 109.963 69.4053 111.637 69.4053C112.613 69.4053 113.353 69.0705 113.869 68.4985V69.2798H115.334V59.5138H113.869V63.5737ZM111.944 68.0521C110.786 68.0521 109.907 67.1731 109.907 66.0291C109.907 64.8711 110.786 64.0062 111.944 64.0062C113.088 64.0062 113.967 64.8711 113.967 66.0291C113.967 67.1731 113.088 68.0521 111.944 68.0521ZM119.151 62.7645V61.746C119.151 61.0903 119.486 60.7136 120.086 60.7136C120.337 60.7136 120.602 60.7555 120.784 60.8392V59.5557C120.575 59.458 120.212 59.3883 119.821 59.3883C118.51 59.3883 117.701 60.2114 117.701 61.5507V62.7645H116.612V63.9922H117.701V69.2798H119.151V63.9922H120.812V62.7645H119.151Z" fill="#3A3A3B"/>
<path d="M55.8375 84.3283C57.679 84.3283 59.0064 83.3477 59.0064 81.4703V75.8499H58.0617V81.3148C58.0617 82.7379 57.129 83.3836 55.8375 83.3836C54.5579 83.3836 53.6371 82.7379 53.6371 81.3148V75.8499H52.6805V81.4703C52.6805 83.3477 54.0078 84.3283 55.8375 84.3283ZM63.6684 78.5285C62.8074 78.5285 62.1138 78.8514 61.6235 79.3776V78.6362H60.7027V87.007H61.6235V83.4793C62.1138 84.0055 62.8074 84.3283 63.6684 84.3283C65.1632 84.3283 66.4547 83.0368 66.4547 81.4344C66.4547 79.82 65.1632 78.5285 63.6684 78.5285ZM63.5488 83.4195C62.4486 83.4195 61.5637 82.5346 61.5637 81.4344C61.5637 80.3223 62.4486 79.4493 63.5488 79.4493C64.649 79.4493 65.5458 80.3223 65.5458 81.4344C65.5458 82.5346 64.649 83.4195 63.5488 83.4195ZM68.7588 84.2207V75.8499H67.838V84.2207H68.7588ZM73.0494 84.3283C74.6518 84.3283 75.9433 83.0368 75.9433 81.4344C75.9433 79.82 74.6518 78.5285 73.0494 78.5285C71.435 78.5285 70.1435 79.82 70.1435 81.4344C70.1435 83.0368 71.435 84.3283 73.0494 84.3283ZM73.0494 83.4195C71.9373 83.4195 71.0524 82.5346 71.0524 81.4344C71.0524 80.3223 71.9373 79.4493 73.0494 79.4493C74.1376 79.4493 75.0345 80.3223 75.0345 81.4344C75.0345 82.5346 74.1376 83.4195 73.0494 83.4195ZM81.9362 79.4374C81.4459 78.8753 80.7284 78.5285 79.8316 78.5285C78.3368 78.5285 77.0453 79.82 77.0453 81.4344C77.0453 83.0368 78.3368 84.3283 79.8316 84.3283C80.7284 84.3283 81.4459 83.9815 81.9362 83.4195V84.2207H82.8451V78.6362H81.9362V79.4374ZM79.9512 83.4195C78.851 83.4195 77.9541 82.5346 77.9541 81.4344C77.9541 80.3223 78.851 79.4493 79.9512 79.4493C81.0513 79.4493 81.9362 80.3223 81.9362 81.4344C81.9362 82.5346 81.0513 83.4195 79.9512 83.4195ZM89.0585 79.3776C88.5801 78.8514 87.8746 78.5285 87.0136 78.5285C85.5188 78.5285 84.2273 79.82 84.2273 81.4344C84.2273 83.0368 85.5188 84.3283 87.0136 84.3283C87.8746 84.3283 88.5801 84.0055 89.0585 83.4793V84.2207H89.9792V75.8499H89.0585V79.3776ZM87.1332 83.4195C86.033 83.4195 85.1361 82.5346 85.1361 81.4344C85.1361 80.3223 86.033 79.4493 87.1332 79.4493C88.2333 79.4493 89.1182 80.3223 89.1182 81.4344C89.1182 82.5346 88.2333 83.4195 87.1332 83.4195ZM97.1624 81.3866C97.1265 79.7842 95.8589 78.5285 94.2685 78.5285C92.6541 78.5285 91.3626 79.82 91.3626 81.4344C91.3626 83.0368 92.6541 84.3283 94.2685 84.3283C95.3686 84.3283 96.3133 83.7304 96.7917 82.7977L95.9546 82.4628C95.5958 83.0488 94.962 83.4195 94.2685 83.4195C93.2042 83.4195 92.3432 82.6063 92.2714 81.5779H97.1504L97.1624 81.3866ZM94.2685 79.4493C95.1175 79.4493 95.835 79.9875 96.11 80.7408H92.403C92.678 79.9755 93.4075 79.4493 94.2685 79.4493ZM103.095 79.3776C102.617 78.8514 101.912 78.5285 101.051 78.5285C99.5558 78.5285 98.2643 79.82 98.2643 81.4344C98.2643 83.0368 99.5558 84.3283 101.051 84.3283C101.912 84.3283 102.617 84.0055 103.095 83.4793V84.2207H104.016V75.8499H103.095V79.3776ZM101.17 83.4195C100.07 83.4195 99.1731 82.5346 99.1731 81.4344C99.1731 80.3223 100.07 79.4493 101.17 79.4493C102.27 79.4493 103.155 80.3223 103.155 81.4344C103.155 82.5346 102.27 83.4195 101.17 83.4195Z" fill="#32C356"/>
<rect x="11.9583" y="99.6528" width="294.972" height="0.996528" fill="#F3F3F8"/>
<rect width="318.889" height="55.8056" transform="translate(0 100.65)" fill="white"/>
<g clip-path="url(#clip3_3327_11880)">
<path d="M13.4531 140.511C12.6276 140.511 11.9583 139.841 11.9583 139.016V118.089C11.9583 117.263 12.6276 116.594 13.4531 116.594H42.3524C43.178 116.594 43.8472 117.263 43.8472 118.089V139.016C43.8472 139.841 43.178 140.511 42.3524 140.511H13.4531Z" fill="#FCFCFD"/>
<path d="M33.5889 128.549C33.7541 128.549 33.8888 128.683 33.8805 128.848C33.8266 129.926 33.4817 130.972 32.8798 131.873C32.2225 132.857 31.2882 133.623 30.1951 134.076C29.102 134.529 27.8992 134.647 26.7387 134.417C25.5783 134.186 24.5124 133.616 23.6757 132.779C22.8391 131.943 22.2694 130.877 22.0385 129.716C21.8077 128.556 21.9262 127.353 22.379 126.26C22.8317 125.167 23.5985 124.233 24.5823 123.575C25.483 122.973 26.5286 122.628 27.6068 122.575C27.7718 122.566 27.9058 122.701 27.9058 122.866V128.25C27.9058 128.415 28.0397 128.549 28.2049 128.549H33.5889Z" fill="#F65F31"/>
<path d="M35.583 126.555C35.7482 126.555 35.8829 126.421 35.8746 126.256C35.8404 125.573 35.6892 124.899 35.4267 124.266C35.1261 123.54 34.6854 122.881 34.1299 122.325C33.5744 121.77 32.915 121.329 32.1892 121.028C31.5556 120.766 30.8823 120.615 30.1989 120.58C30.0339 120.572 29.8999 120.707 29.8999 120.872V126.256C29.8999 126.421 30.0338 126.555 30.199 126.555H35.583Z" fill="#F65F31"/>
<path d="M13.4531 116.793H42.3524C43.0679 116.793 43.6479 117.373 43.6479 118.089V139.016C43.6479 139.731 43.0679 140.311 42.3524 140.311H13.4531C12.7376 140.311 12.1576 139.731 12.1576 139.016V118.089C12.1576 117.373 12.7376 116.793 13.4531 116.793Z" stroke="#E5E5EB" stroke-width="0.398611"/>
<path d="M13.4531 140.511H42.3524C43.178 140.511 43.8472 139.841 43.8472 139.016V138.019C43.8472 138.845 43.178 139.514 42.3524 139.514H13.4531C12.6276 139.514 11.9583 138.845 11.9583 138.019V139.016C11.9583 139.841 12.6276 140.511 13.4531 140.511Z" fill="#E5E5EB"/>
</g>
<rect x="28.8993" y="128.552" width="17.9375" height="17.9375" rx="8.96875" fill="#0066FF"/>
<path d="M37.868 134.095V140.947" stroke="white" stroke-width="0.934245" stroke-linecap="round" stroke-linejoin="round"/>
<path d="M35.0652 138.144L37.868 140.947L40.6707 138.144" stroke="white" stroke-width="0.934245" stroke-linecap="round" stroke-linejoin="round"/>
<rect x="28.8993" y="128.552" width="17.9375" height="17.9375" rx="8.96875" stroke="white" stroke-width="1.99306"/>
<path d="M57.4419 126.208C58.851 126.208 60.26 125.594 61.1529 124.631L59.995 123.641C59.3532 124.324 58.4045 124.743 57.4419 124.743C55.4608 124.743 53.8982 123.18 53.8982 121.199C53.8982 119.218 55.4608 117.655 57.4419 117.655C58.4045 117.655 59.3532 118.074 59.995 118.758L61.1529 117.767C60.26 116.804 58.851 116.19 57.4419 116.19C54.5958 116.19 52.3915 118.381 52.3915 121.199C52.3915 124.017 54.5958 126.208 57.4419 126.208ZM64.3851 124.296L62.5854 119.567H60.9949L63.6457 126.012L62.2924 129.333H63.8131L64.985 126.445L67.7334 119.567H66.129L64.3851 124.296ZM72.6092 119.441C71.6326 119.441 70.8932 119.79 70.363 120.376V116.316H68.9121V126.082H70.363V125.287C70.8792 125.859 71.6326 126.208 72.6092 126.208C74.2834 126.208 75.7762 124.757 75.7762 122.831C75.7762 120.892 74.3252 119.441 72.6092 119.441ZM72.3023 124.854C71.1583 124.854 70.2793 123.975 70.2793 122.831C70.2793 121.673 71.1583 120.808 72.3023 120.808C73.4463 120.808 74.3392 121.673 74.3392 122.831C74.3392 123.975 73.4463 124.854 72.3023 124.854ZM83.7094 122.776C83.6815 120.836 82.2584 119.441 80.375 119.441C78.38 119.441 76.929 120.934 76.929 122.831C76.929 124.715 78.3102 126.208 80.4169 126.208C81.7143 126.208 82.8444 125.51 83.3746 124.422L82.1329 123.92C81.7701 124.561 81.1144 124.924 80.375 124.924C79.3286 124.924 78.4916 124.171 78.3939 123.082H83.6954L83.7094 122.776ZM80.3611 120.711C81.2121 120.711 81.8399 121.213 82.1189 121.98H78.5334C78.8264 121.227 79.4821 120.711 80.3611 120.711ZM88.3041 119.455C87.5647 119.455 87.0066 119.888 86.6578 120.557V119.567H85.2069V126.082H86.6578V122.748C86.6578 121.59 87.3554 120.822 88.2901 120.822C88.4994 120.822 88.7226 120.864 88.89 120.948V119.567C88.7366 119.511 88.5133 119.455 88.3041 119.455ZM92.2598 126.208C93.641 126.208 94.5479 125.371 94.5479 124.199C94.5479 123.027 93.5852 122.538 92.6923 122.204C91.939 121.925 91.4646 121.771 91.4646 121.297C91.4646 120.836 91.7855 120.613 92.218 120.613C92.6644 120.613 93.1388 120.85 93.3899 121.199L94.3525 120.418C93.8922 119.804 93.1109 119.441 92.2598 119.441C90.9624 119.441 90.0137 120.195 90.0137 121.394C90.0137 122.427 90.7112 122.929 91.7576 123.334C92.5528 123.641 93.083 123.808 93.083 124.268C93.083 124.701 92.7621 125.008 92.1901 125.008C91.646 125.008 91.1019 124.743 90.767 124.268L89.7346 125.022C90.195 125.719 91.2135 126.208 92.2598 126.208ZM102.497 122.776C102.47 120.836 101.046 119.441 99.1631 119.441C97.168 119.441 95.7171 120.934 95.7171 122.831C95.7171 124.715 97.0982 126.208 99.2049 126.208C100.502 126.208 101.632 125.51 102.163 124.422L100.921 123.92C100.558 124.561 99.9025 124.924 99.1631 124.924C98.1167 124.924 97.2796 124.171 97.182 123.082H102.483L102.497 122.776ZM99.1491 120.711C100 120.711 100.628 121.213 100.907 121.98H97.3215C97.6144 121.227 98.2702 120.711 99.1491 120.711ZM107.148 126.208C108.557 126.208 109.771 125.44 110.301 124.185L108.99 123.641C108.697 124.366 108.013 124.854 107.148 124.854C105.976 124.854 105.111 123.989 105.111 122.831C105.111 121.659 105.976 120.808 107.148 120.808C108.013 120.808 108.697 121.297 108.99 122.022L110.301 121.464C109.771 120.208 108.557 119.441 107.148 119.441C105.209 119.441 103.66 120.906 103.66 122.831C103.66 124.743 105.209 126.208 107.148 126.208ZM114.315 126.208C115.989 126.208 117.008 125.231 117.008 123.682V119.567H115.543V123.515C115.543 124.366 115.04 124.854 114.315 124.854C113.603 124.854 113.073 124.366 113.073 123.515V119.567H111.636V123.682C111.636 125.231 112.641 126.208 114.315 126.208ZM121.82 119.455C121.081 119.455 120.523 119.888 120.174 120.557V119.567H118.723V126.082H120.174V122.748C120.174 121.59 120.871 120.822 121.806 120.822C122.015 120.822 122.239 120.864 122.406 120.948V119.567C122.253 119.511 122.029 119.455 121.82 119.455ZM124.312 117.948C124.801 117.948 125.205 117.544 125.205 117.069C125.205 116.567 124.801 116.19 124.312 116.19C123.838 116.19 123.419 116.567 123.419 117.069C123.419 117.544 123.838 117.948 124.312 117.948ZM125.038 126.082V119.567H123.587V126.082H125.038ZM129.061 119.567V117.223H127.596V119.567H126.285V120.794H127.596V126.082H129.061V120.794H130.372V119.567H129.061ZM134.346 124.296L132.547 119.567H130.956L133.607 126.012L132.254 129.333H133.774L134.946 126.445L137.695 119.567H136.09L134.346 124.296ZM144.482 127.073V126.082H137.967V127.073H144.482ZM145.497 116.316V126.082H147.004V121.897H149.125C151.036 121.897 152.096 120.878 152.096 119.134C152.096 117.39 151.036 116.316 149.125 116.316H145.497ZM147.004 120.571V117.697H148.943C149.92 117.697 150.59 118.046 150.59 119.148C150.59 120.264 149.92 120.571 148.943 120.571H147.004ZM156.412 119.455C155.673 119.455 155.115 119.888 154.766 120.557V119.567H153.315V126.082H154.766V122.748C154.766 121.59 155.464 120.822 156.399 120.822C156.608 120.822 156.831 120.864 156.998 120.948V119.567C156.845 119.511 156.622 119.455 156.412 119.455ZM164.502 122.776C164.474 120.836 163.051 119.441 161.168 119.441C159.173 119.441 157.722 120.934 157.722 122.831C157.722 124.715 159.103 126.208 161.21 126.208C162.507 126.208 163.637 125.51 164.167 124.422L162.926 123.92C162.563 124.561 161.907 124.924 161.168 124.924C160.121 124.924 159.284 124.171 159.187 123.082H164.488L164.502 122.776ZM161.154 120.711C162.005 120.711 162.633 121.213 162.912 121.98H159.326C159.619 121.227 160.275 120.711 161.154 120.711ZM168.134 126.208C169.515 126.208 170.422 125.371 170.422 124.199C170.422 123.027 169.46 122.538 168.567 122.204C167.813 121.925 167.339 121.771 167.339 121.297C167.339 120.836 167.66 120.613 168.092 120.613C168.539 120.613 169.013 120.85 169.264 121.199L170.227 120.418C169.766 119.804 168.985 119.441 168.134 119.441C166.837 119.441 165.888 120.195 165.888 121.394C165.888 122.427 166.586 122.929 167.632 123.334C168.427 123.641 168.957 123.808 168.957 124.268C168.957 124.701 168.636 125.008 168.064 125.008C167.52 125.008 166.976 124.743 166.641 124.268L165.609 125.022C166.069 125.719 167.088 126.208 168.134 126.208ZM178.372 122.776C178.344 120.836 176.921 119.441 175.037 119.441C173.042 119.441 171.591 120.934 171.591 122.831C171.591 124.715 172.973 126.208 175.079 126.208C176.377 126.208 177.507 125.51 178.037 124.422L176.795 123.92C176.432 124.561 175.777 124.924 175.037 124.924C173.991 124.924 173.154 124.171 173.056 123.082H178.358L178.372 122.776ZM175.023 120.711C175.874 120.711 176.502 121.213 176.781 121.98H173.196C173.489 121.227 174.144 120.711 175.023 120.711ZM183.008 119.441C182.367 119.441 181.767 119.692 181.32 120.125V119.567H179.869V126.082H181.32V122.148C181.32 121.311 181.892 120.767 182.646 120.767C183.343 120.767 183.887 121.283 183.887 122.064V126.082H185.352V121.855C185.352 120.501 184.306 119.441 183.008 119.441ZM189.281 119.567V117.223H187.816V119.567H186.505V120.794H187.816V126.082H189.281V120.794H190.592V119.567H189.281ZM196.843 120.432C196.313 119.818 195.559 119.441 194.555 119.441C192.839 119.441 191.374 120.892 191.374 122.831C191.374 124.757 192.881 126.208 194.555 126.208C195.559 126.208 196.313 125.845 196.843 125.231V126.082H198.28V119.567H196.843V120.432ZM194.862 124.854C193.732 124.854 192.825 123.961 192.825 122.831C192.825 121.701 193.732 120.808 194.862 120.808C195.978 120.808 196.885 121.701 196.885 122.831C196.885 123.961 195.978 124.854 194.862 124.854ZM202.292 119.567V117.223H200.827V119.567H199.516V120.794H200.827V126.082H202.292V120.794H203.604V119.567H202.292ZM205.555 117.948C206.043 117.948 206.447 117.544 206.447 117.069C206.447 116.567 206.043 116.19 205.555 116.19C205.08 116.19 204.662 116.567 204.662 117.069C204.662 117.544 205.08 117.948 205.555 117.948ZM206.28 126.082V119.567H204.829V126.082H206.28ZM211.17 126.208C213.096 126.208 214.63 124.715 214.63 122.831C214.63 120.934 213.096 119.441 211.17 119.441C209.231 119.441 207.682 120.934 207.682 122.831C207.682 124.715 209.231 126.208 211.17 126.208ZM211.17 124.854C210.026 124.854 209.133 123.961 209.133 122.831C209.133 121.701 210.026 120.808 211.17 120.808C212.272 120.808 213.193 121.701 213.193 122.831C213.193 123.961 212.272 124.854 211.17 124.854ZM219.249 119.441C218.607 119.441 218.008 119.692 217.561 120.125V119.567H216.11V126.082H217.561V122.148C217.561 121.311 218.133 120.767 218.886 120.767C219.584 120.767 220.128 121.283 220.128 122.064V126.082H221.593V121.855C221.593 120.501 220.547 119.441 219.249 119.441ZM224.085 126.208C224.559 126.208 224.964 125.817 224.964 125.329C224.964 124.84 224.559 124.436 224.085 124.436C223.61 124.436 223.206 124.84 223.206 125.329C223.206 125.817 223.61 126.208 224.085 126.208ZM230.366 119.441C229.39 119.441 228.65 119.79 228.12 120.376V119.567H226.669V129.333H228.12V125.287C228.636 125.859 229.39 126.208 230.366 126.208C232.04 126.208 233.533 124.757 233.533 122.831C233.533 120.892 232.082 119.441 230.366 119.441ZM230.059 124.854C228.915 124.854 228.036 123.975 228.036 122.831C228.036 121.673 228.915 120.808 230.059 120.808C231.203 120.808 232.096 121.673 232.096 122.831C232.096 123.975 231.203 124.854 230.059 124.854ZM238.718 119.441C237.741 119.441 237.002 119.79 236.472 120.376V119.567H235.021V129.333H236.472V125.287C236.988 125.859 237.741 126.208 238.718 126.208C240.392 126.208 241.885 124.757 241.885 122.831C241.885 120.892 240.434 119.441 238.718 119.441ZM238.411 124.854C237.267 124.854 236.388 123.975 236.388 122.831C236.388 121.673 237.267 120.808 238.411 120.808C239.555 120.808 240.448 121.673 240.448 122.831C240.448 123.975 239.555 124.854 238.411 124.854ZM245.468 119.567V117.223H244.003V119.567H242.692V120.794H244.003V126.082H245.468V120.794H246.779V119.567H245.468Z" fill="#3A3A3B"/>
<path d="M53.9361 140.078C57.105 136.849 57.8345 136.192 57.7867 134.84C57.7388 133.417 56.6745 132.544 55.3113 132.533C53.8643 132.521 52.6805 133.525 52.7044 135.02L53.7328 135.032C53.7089 134.063 54.3905 133.465 55.2635 133.477C56.0766 133.489 56.7582 133.979 56.7582 134.984C56.7582 135.917 56.2799 136.371 52.4652 140.282V141.023H58.0497V140.078H53.9361ZM62.3676 135.438C62.1046 135.438 61.8893 135.486 61.7099 135.546L64.1255 132.652H62.9416L60.0118 136.383C59.6053 136.897 59.2943 137.531 59.2943 138.284C59.2943 139.839 60.5978 141.107 62.2241 141.107C63.7907 141.107 65.1659 139.887 65.1659 138.249C65.1659 136.527 63.6472 135.438 62.3676 135.438ZM62.2241 140.186C61.0522 140.186 60.2271 139.385 60.2271 138.249C60.2271 137.089 61.0642 136.252 62.2241 136.252C63.3961 136.252 64.2331 137.089 64.2331 138.249C64.2331 139.373 63.408 140.186 62.2241 140.186ZM67.8335 136.048C68.6706 136.048 69.3403 135.379 69.3403 134.302C69.3403 133.214 68.6706 132.544 67.8335 132.544C66.9845 132.544 66.3029 133.214 66.3029 134.302C66.3029 135.379 66.9845 136.048 67.8335 136.048ZM67.4389 141.023L73.1669 132.652H72.2103L66.4703 141.023H67.4389ZM67.8335 135.331C67.403 135.331 67.0323 134.996 67.0323 134.302C67.0323 133.597 67.403 133.25 67.8335 133.25C68.264 133.25 68.6347 133.597 68.6347 134.302C68.6347 134.996 68.264 135.331 67.8335 135.331ZM71.8157 141.131C72.6647 141.131 73.3344 140.461 73.3344 139.373C73.3344 138.296 72.6647 137.627 71.8157 137.627C70.9666 137.627 70.2969 138.296 70.2969 139.373C70.2969 140.461 70.9666 141.131 71.8157 141.131ZM71.8157 140.425C71.3852 140.425 71.0144 140.078 71.0144 139.373C71.0144 138.679 71.3852 138.344 71.8157 138.344C72.2462 138.344 72.6169 138.679 72.6169 139.373C72.6169 140.078 72.2462 140.425 71.8157 140.425Z" fill="#0066FF"/>
<g clip-path="url(#clip4_3327_11880)">
<rect x="78.8055" y="135.03" width="188.264" height="3.98611" rx="1.99306" fill="#F3F3F8"/>
<rect x="78.8055" y="135.03" width="56.8021" height="3.98611" fill="#0066FF"/>
</g>
<path d="M304.564 122.947L293.353 134.158" stroke="#8E8E94" stroke-width="1.24566" stroke-linecap="round" stroke-linejoin="round"/>
<path d="M304.564 134.158L293.353 122.947" stroke="#8E8E94" stroke-width="1.24566" stroke-linecap="round" stroke-linejoin="round"/>
<rect x="11.9583" y="156.455" width="294.972" height="0.996528" fill="#F3F3F8"/>
<rect width="318.889" height="55.8056" transform="translate(0 157.452)" fill="white"/>
<g clip-path="url(#clip5_3327_11880)">
<g filter="url(#filter3_i_3327_11880)">
<path d="M15.9444 170.905C15.9444 170.079 16.6136 169.41 17.4392 169.41H38.3663C39.1918 169.41 39.8611 170.079 39.8611 170.905V199.804C39.8611 200.63 39.1918 201.299 38.3663 201.299H17.4392C16.6136 201.299 15.9444 200.63 15.9444 199.804V170.905Z" fill="#FCFCFD"/>
</g>
<path d="M15.9444 170.905C15.9444 170.079 16.6136 169.41 17.4392 169.41H38.3663C39.1918 169.41 39.8611 170.079 39.8611 170.905V199.804C39.8611 200.63 39.1918 201.299 38.3663 201.299H17.4392C16.6136 201.299 15.9444 200.63 15.9444 199.804V170.905Z" fill="#FCFCFD"/>
<path d="M17.4392 169.609H38.3663C39.0817 169.609 39.6618 170.189 39.6618 170.905V199.804C39.6618 200.519 39.0817 201.099 38.3663 201.099H17.4392C16.7237 201.099 16.1437 200.519 16.1437 199.804V170.905C16.1437 170.189 16.7237 169.609 17.4392 169.609Z" stroke="#E5E5EB" stroke-width="0.398611"/>
<mask id="path-38-inside-2_3327_11880" fill="white">
<path d="M17.4392 201.299H38.3663C39.1918 201.299 39.8611 200.629 39.8611 199.804V198.807C39.8611 199.633 39.1918 200.302 38.3663 200.302H17.4392C16.6136 200.302 15.9444 199.633 15.9444 198.807V199.804C15.9444 200.629 16.6136 201.299 17.4392 201.299Z"/>
</mask>
<path d="M17.4392 201.299H38.3663C39.1918 201.299 39.8611 200.629 39.8611 199.804V198.807C39.8611 199.633 39.1918 200.302 38.3663 200.302H17.4392C16.6136 200.302 15.9444 199.633 15.9444 198.807V199.804C15.9444 200.629 16.6136 201.299 17.4392 201.299Z" fill="#E5E5EB"/>
<path d="M38.3663 200.302H17.4392V202.295H38.3663V200.302ZM17.4392 200.302C17.164 200.302 16.9409 200.079 16.9409 199.804H14.9479C14.9479 201.18 16.0633 202.295 17.4392 202.295V200.302ZM38.8645 199.804C38.8645 200.079 38.6415 200.302 38.3663 200.302V202.295C39.7422 202.295 40.8576 201.18 40.8576 199.804H38.8645ZM38.3663 199.306H17.4392V201.299H38.3663V199.306ZM17.4392 199.306C17.164 199.306 16.9409 199.083 16.9409 198.807H14.9479C14.9479 200.183 16.0633 201.299 17.4392 201.299V199.306ZM38.8645 198.807C38.8645 199.083 38.6415 199.306 38.3663 199.306V201.299C39.7422 201.299 40.8576 200.183 40.8576 198.807H38.8645ZM16.9409 199.804V198.807H14.9479V199.804H16.9409ZM40.8576 199.804V198.807H38.8645V199.804H40.8576Z" fill="#E5E5EB" mask="url(#path-38-inside-2_3327_11880)"/>
<path d="M21.449 182.829V188.41H22.6129V186.13H23.6971C24.885 186.13 25.4749 185.476 25.4749 184.496C25.4749 183.531 24.885 182.829 23.6971 182.829H21.449ZM22.6129 185.165V183.858H23.5297C24.008 183.858 24.319 184.025 24.319 184.511C24.319 184.998 24.008 185.165 23.5297 185.165H22.6129ZM27.689 188.41C29.7937 188.41 30.6228 187.158 30.6228 185.62C30.6228 184.081 29.7937 182.829 27.689 182.829H25.975V188.41H27.689ZM27.139 183.858H27.6332C28.9168 183.858 29.427 184.623 29.427 185.62C29.427 186.616 28.9168 187.381 27.6332 187.381H27.139V183.858ZM34.6791 182.829H31.2511V188.41H32.415V186.082H34.3682V185.054H32.415V183.858H34.6791V182.829Z" fill="#FF0D00"/>
</g>
<path d="M54.3447 182.884V173.118H52.8379V182.884H54.3447ZM59.3941 176.243C58.7523 176.243 58.1524 176.494 57.706 176.927V176.369H56.255V182.884H57.706V178.95C57.706 178.113 58.278 177.569 59.0313 177.569C59.7289 177.569 60.273 178.085 60.273 178.866V182.884H61.7379V178.657C61.7379 177.303 60.6916 176.243 59.3941 176.243ZM65.6666 176.369V174.025H64.2017V176.369H62.8903V177.596H64.2017V182.884H65.6666V177.596H66.9781V176.369H65.6666ZM74.5402 179.578C74.5123 177.638 73.0892 176.243 71.2058 176.243C69.2107 176.243 67.7598 177.736 67.7598 179.633C67.7598 181.517 69.141 183.01 71.2476 183.01C72.5451 183.01 73.6752 182.312 74.2053 181.224L72.9637 180.722C72.6009 181.363 71.9452 181.726 71.2058 181.726C70.1594 181.726 69.3223 180.973 69.2247 179.884H74.5262L74.5402 179.578ZM71.1918 177.513C72.0429 177.513 72.6707 178.015 72.9497 178.782H69.3642C69.6572 178.029 70.3129 177.513 71.1918 177.513ZM79.1349 176.257C78.3954 176.257 77.8374 176.69 77.4886 177.359V176.369H76.0376V182.884H77.4886V179.55C77.4886 178.392 78.1862 177.624 79.1209 177.624C79.3302 177.624 79.5534 177.666 79.7208 177.75V176.369C79.5673 176.313 79.3441 176.257 79.1349 176.257ZM84.0951 176.243C83.4534 176.243 82.8534 176.494 82.407 176.927V176.369H80.9561V182.884H82.407V178.95C82.407 178.113 82.979 177.569 83.7324 177.569C84.43 177.569 84.9741 178.085 84.9741 178.866V182.884H86.439V178.657C86.439 177.303 85.3926 176.243 84.0951 176.243ZM89.3353 182.884L91.1769 180.638L93.0184 182.884H94.7763L92.0279 179.633L94.7763 176.369H93.0324L91.1769 178.643L89.3213 176.369H87.5774L90.3258 179.633L87.5774 182.884H89.3353ZM98.2017 176.369V174.025H96.7368V176.369H95.4254V177.596H96.7368V182.884H98.2017V177.596H99.5131V176.369H98.2017ZM109.553 179.047L106.093 173.118H104.474V182.884H105.981V175.643L109.539 181.824L113.138 175.629V182.884H114.645V173.118H113.041L109.553 179.047ZM123.002 179.578C122.974 177.638 121.551 176.243 119.668 176.243C117.673 176.243 116.222 177.736 116.222 179.633C116.222 181.517 117.603 183.01 119.71 183.01C121.007 183.01 122.137 182.312 122.667 181.224L121.426 180.722C121.063 181.363 120.407 181.726 119.668 181.726C118.621 181.726 117.784 180.973 117.687 179.884H122.988L123.002 179.578ZM119.654 177.513C120.505 177.513 121.133 178.015 121.412 178.782H117.826C118.119 178.029 118.775 177.513 119.654 177.513ZM130.945 179.578C130.917 177.638 129.494 176.243 127.611 176.243C125.616 176.243 124.165 177.736 124.165 179.633C124.165 181.517 125.546 183.01 127.653 183.01C128.95 183.01 130.08 182.312 130.61 181.224L129.369 180.722C129.006 181.363 128.35 181.726 127.611 181.726C126.564 181.726 125.727 180.973 125.63 179.884H130.931L130.945 179.578ZM127.597 177.513C128.448 177.513 129.076 178.015 129.355 178.782H125.769C126.062 178.029 126.718 177.513 127.597 177.513ZM134.579 176.369V174.025H133.114V176.369H131.803V177.596H133.114V182.884H134.579V177.596H135.89V176.369H134.579ZM139.711 183.01C141.385 183.01 142.403 182.033 142.403 180.484V176.369H140.939V180.317C140.939 181.168 140.436 181.656 139.711 181.656C138.999 181.656 138.469 181.168 138.469 180.317V176.369H137.032V180.484C137.032 182.033 138.037 183.01 139.711 183.01ZM147.816 176.243C146.839 176.243 146.1 176.592 145.57 177.178V176.369H144.119V186.135H145.57V182.089C146.086 182.661 146.839 183.01 147.816 183.01C149.49 183.01 150.983 181.559 150.983 179.633C150.983 177.694 149.532 176.243 147.816 176.243ZM147.509 181.656C146.365 181.656 145.486 180.777 145.486 179.633C145.486 178.475 146.365 177.61 147.509 177.61C148.653 177.61 149.546 178.475 149.546 179.633C149.546 180.777 148.653 181.656 147.509 181.656ZM155.355 173.118V174.499H157.964V182.884H159.471V174.499H162.052V173.118H155.355ZM163.864 174.75C164.352 174.75 164.757 174.346 164.757 173.871C164.757 173.369 164.352 172.992 163.864 172.992C163.39 172.992 162.971 173.369 162.971 173.871C162.971 174.346 163.39 174.75 163.864 174.75ZM164.589 182.884V176.369H163.138V182.884H164.589ZM169.48 183.01C170.889 183.01 172.102 182.242 172.633 180.987L171.321 180.443C171.028 181.168 170.345 181.656 169.48 181.656C168.308 181.656 167.443 180.791 167.443 179.633C167.443 178.461 168.308 177.61 169.48 177.61C170.345 177.61 171.028 178.099 171.321 178.824L172.633 178.266C172.102 177.01 170.889 176.243 169.48 176.243C167.54 176.243 165.992 177.708 165.992 179.633C165.992 181.545 167.54 183.01 169.48 183.01ZM176.884 179.285L179.827 176.369H177.958L175.503 178.852V173.118H174.052V182.884H175.503V179.717L178.153 182.884H180.093L176.884 179.285ZM187.228 179.578C187.2 177.638 185.777 176.243 183.893 176.243C181.898 176.243 180.447 177.736 180.447 179.633C180.447 181.517 181.828 183.01 183.935 183.01C185.233 183.01 186.363 182.312 186.893 181.224L185.651 180.722C185.288 181.363 184.633 181.726 183.893 181.726C182.847 181.726 182.01 180.973 181.912 179.884H187.214L187.228 179.578ZM183.879 177.513C184.73 177.513 185.358 178.015 185.637 178.782H182.052C182.345 178.029 183 177.513 183.879 177.513ZM190.861 176.369V174.025H189.396V176.369H188.085V177.596H189.396V182.884H190.861V177.596H192.173V176.369H190.861ZM198.641 182.884V173.118H197.134V182.884H198.641ZM203.69 176.243C203.048 176.243 202.448 176.494 202.002 176.927V176.369H200.551V182.884H202.002V178.95C202.002 178.113 202.574 177.569 203.327 177.569C204.025 177.569 204.569 178.085 204.569 178.866V182.884H206.034V178.657C206.034 177.303 204.988 176.243 203.69 176.243ZM209.767 176.369V175.35C209.767 174.695 210.102 174.318 210.702 174.318C210.953 174.318 211.218 174.36 211.4 174.443V173.16C211.19 173.062 210.828 172.992 210.437 172.992C209.126 172.992 208.316 173.816 208.316 175.155V176.369H207.228V177.596H208.316V182.884H209.767V177.596H211.428V176.369H209.767ZM215.612 183.01C217.537 183.01 219.072 181.517 219.072 179.633C219.072 177.736 217.537 176.243 215.612 176.243C213.673 176.243 212.124 177.736 212.124 179.633C212.124 181.517 213.673 183.01 215.612 183.01ZM215.612 181.656C214.468 181.656 213.575 180.763 213.575 179.633C213.575 178.503 214.468 177.61 215.612 177.61C216.714 177.61 217.635 178.503 217.635 179.633C217.635 180.763 216.714 181.656 215.612 181.656ZM221.319 183.01C221.793 183.01 222.198 182.619 222.198 182.131C222.198 181.642 221.793 181.238 221.319 181.238C220.845 181.238 220.44 181.642 220.44 182.131C220.44 182.619 220.845 183.01 221.319 183.01ZM227.6 176.243C226.624 176.243 225.884 176.592 225.354 177.178V176.369H223.903V186.135H225.354V182.089C225.87 182.661 226.624 183.01 227.6 183.01C229.275 183.01 230.767 181.559 230.767 179.633C230.767 177.694 229.316 176.243 227.6 176.243ZM227.293 181.656C226.149 181.656 225.271 180.777 225.271 179.633C225.271 178.475 226.149 177.61 227.293 177.61C228.437 177.61 229.33 178.475 229.33 179.633C229.33 180.777 228.437 181.656 227.293 181.656ZM237.333 177.178C236.803 176.592 236.064 176.243 235.101 176.243C233.385 176.243 231.92 177.694 231.92 179.633C231.92 181.559 233.427 183.01 235.101 183.01C236.078 183.01 236.817 182.675 237.333 182.103V182.884H238.798V173.118H237.333V177.178ZM235.408 181.656C234.25 181.656 233.371 180.777 233.371 179.633C233.371 178.475 234.25 177.61 235.408 177.61C236.552 177.61 237.431 178.475 237.431 179.633C237.431 180.777 236.552 181.656 235.408 181.656ZM242.616 176.369V175.35C242.616 174.695 242.951 174.318 243.551 174.318C243.802 174.318 244.067 174.36 244.248 174.443V173.16C244.039 173.062 243.676 172.992 243.285 172.992C241.974 172.992 241.165 173.816 241.165 175.155V176.369H240.077V177.596H241.165V182.884H242.616V177.596H244.276V176.369H242.616Z" fill="#3A3A3B"/>
<path d="M60.4414 196.21L58.4563 189.454H57.117L55.1797 196.21L53.0751 189.454H52.0706L54.6775 197.825H55.682L57.7867 190.482L59.9392 197.825H60.9437L63.5267 189.454H62.5461L60.4414 196.21ZM68.5298 193.041C68.0395 192.479 67.322 192.133 66.4252 192.133C64.9304 192.133 63.6389 193.424 63.6389 195.038C63.6389 196.641 64.9304 197.932 66.4252 197.932C67.322 197.932 68.0395 197.586 68.5298 197.023V197.825H69.4387V192.24H68.5298V193.041ZM66.5447 197.023C65.4446 197.023 64.5477 196.139 64.5477 195.038C64.5477 193.926 65.4446 193.053 66.5447 193.053C67.6449 193.053 68.5298 193.926 68.5298 195.038C68.5298 196.139 67.6449 197.023 66.5447 197.023ZM71.4108 190.578C71.7456 190.578 72.0326 190.303 72.0326 189.968C72.0326 189.609 71.7456 189.346 71.4108 189.346C71.0759 189.346 70.777 189.609 70.777 189.968C70.777 190.303 71.0759 190.578 71.4108 190.578ZM71.8652 197.825V192.24H70.9444V197.825H71.8652ZM75.1154 192.24V190.231H74.1827V192.24H72.9988V193.101H74.1827V197.825H75.1154V193.101H76.2993V192.24H75.1154ZM77.9038 190.578C78.2386 190.578 78.5256 190.303 78.5256 189.968C78.5256 189.609 78.2386 189.346 77.9038 189.346C77.5689 189.346 77.27 189.609 77.27 189.968C77.27 190.303 77.5689 190.578 77.9038 190.578ZM78.3582 197.825V192.24H77.4374V197.825H78.3582ZM82.1265 192.133C81.6123 192.133 81.146 192.324 80.7872 192.635V192.24H79.8664V197.825H80.7872V194.165C80.7992 193.508 81.3373 192.994 82.0189 192.994C82.6886 192.994 83.2267 193.532 83.2267 194.213V197.825H84.1475V194.153C84.1475 193.041 83.2387 192.133 82.1265 192.133ZM90.3442 193.029C89.8539 192.479 89.1364 192.133 88.2515 192.133C86.7567 192.133 85.4652 193.424 85.4652 195.038C85.4652 196.641 86.7567 197.932 88.2515 197.932C89.1364 197.932 89.8539 197.586 90.3442 197.035V197.837C90.3442 199.164 89.4592 199.822 88.371 199.822C87.4144 199.822 86.7088 199.308 86.4099 198.59L85.6326 199.092C86.099 200.061 87.0915 200.731 88.371 200.731C89.9735 200.731 91.265 199.678 91.265 197.837V192.24H90.3442V193.029ZM88.371 197.023C87.2589 197.023 86.374 196.127 86.374 195.038C86.374 193.926 87.2589 193.053 88.371 193.053C89.4592 193.053 90.3561 193.926 90.3561 195.038C90.3561 196.127 89.4592 197.023 88.371 197.023ZM97.619 192.24V190.231H96.6863V192.24H95.5024V193.101H96.6863V197.825H97.619V193.101H98.8029V192.24H97.619ZM102.431 197.932C104.034 197.932 105.325 196.641 105.325 195.038C105.325 193.424 104.034 192.133 102.431 192.133C100.817 192.133 99.5255 193.424 99.5255 195.038C99.5255 196.641 100.817 197.932 102.431 197.932ZM102.431 197.023C101.319 197.023 100.434 196.139 100.434 195.038C100.434 193.926 101.319 193.053 102.431 193.053C103.52 193.053 104.417 193.926 104.417 195.038C104.417 196.139 103.52 197.023 102.431 197.023ZM111.854 197.932C113.121 197.932 113.958 197.119 113.958 195.816V192.24H113.037V195.72C113.037 196.533 112.559 197.023 111.854 197.023C111.16 197.023 110.658 196.533 110.658 195.72V192.24H109.749V195.816C109.749 197.119 110.586 197.932 111.854 197.932ZM118.532 192.133C117.671 192.133 116.977 192.455 116.487 192.982V192.24H115.566V200.611H116.487V197.083C116.977 197.609 117.671 197.932 118.532 197.932C120.027 197.932 121.318 196.641 121.318 195.038C121.318 193.424 120.027 192.133 118.532 192.133ZM118.412 197.023C117.312 197.023 116.427 196.139 116.427 195.038C116.427 193.926 117.312 193.053 118.412 193.053C119.512 193.053 120.409 193.926 120.409 195.038C120.409 196.139 119.512 197.023 118.412 197.023ZM123.622 197.825V189.454H122.702V197.825H123.622ZM127.913 197.932C129.515 197.932 130.807 196.641 130.807 195.038C130.807 193.424 129.515 192.133 127.913 192.133C126.299 192.133 125.007 193.424 125.007 195.038C125.007 196.641 126.299 197.932 127.913 197.932ZM127.913 197.023C126.801 197.023 125.916 196.139 125.916 195.038C125.916 193.926 126.801 193.053 127.913 193.053C129.001 193.053 129.898 193.926 129.898 195.038C129.898 196.139 129.001 197.023 127.913 197.023ZM136.8 193.041C136.309 192.479 135.592 192.133 134.695 192.133C133.2 192.133 131.909 193.424 131.909 195.038C131.909 196.641 133.2 197.932 134.695 197.932C135.592 197.932 136.309 197.586 136.8 197.023V197.825H137.709V192.24H136.8V193.041ZM134.815 197.023C133.715 197.023 132.818 196.139 132.818 195.038C132.818 193.926 133.715 193.053 134.815 193.053C135.915 193.053 136.8 193.926 136.8 195.038C136.8 196.139 135.915 197.023 134.815 197.023ZM143.922 192.982C143.444 192.455 142.738 192.133 141.877 192.133C140.382 192.133 139.091 193.424 139.091 195.038C139.091 196.641 140.382 197.932 141.877 197.932C142.738 197.932 143.444 197.609 143.922 197.083V197.825H144.843V189.454H143.922V192.982ZM141.997 197.023C140.897 197.023 140 196.139 140 195.038C140 193.926 140.897 193.053 141.997 193.053C143.097 193.053 143.982 193.926 143.982 195.038C143.982 196.139 143.097 197.023 141.997 197.023Z" fill="#8E8E94"/>
<path d="M298.959 192.829C303.086 192.829 306.433 189.482 306.433 185.355C306.433 181.227 303.086 177.881 298.959 177.881C294.831 177.881 291.485 181.227 291.485 185.355C291.485 189.482 294.831 192.829 298.959 192.829Z" stroke="#D1D1D7" stroke-width="1.24566" stroke-miterlimit="10"/>
<path d="M298.959 180.995V185.354H303.318" stroke="#D1D1D7" stroke-width="1.24566" stroke-linecap="round" stroke-linejoin="round"/>
<rect x="11.9583" y="213.257" width="294.972" height="0.996528" fill="#F3F3F8"/>
<rect width="318.889" height="55.8056" transform="translate(0 214.254)" fill="white"/>
<g filter="url(#filter4_i_3327_11880)">
<path d="M15.9444 227.707C15.9444 226.881 16.6136 226.212 17.4392 226.212H38.3663C39.1918 226.212 39.8611 226.881 39.8611 227.707V256.606C39.8611 257.432 39.1918 258.101 38.3663 258.101H17.4392C16.6136 258.101 15.9444 257.432 15.9444 256.606V227.707Z" fill="#FCFCFD"/>
</g>
<path d="M15.9444 227.707C15.9444 226.881 16.6136 226.212 17.4392 226.212H38.3663C39.1918 226.212 39.8611 226.881 39.8611 227.707V256.606C39.8611 257.432 39.1918 258.101 38.3663 258.101H17.4392C16.6136 258.101 15.9444 257.432 15.9444 256.606V227.707Z" fill="#FCFCFD"/>
<path d="M17.4392 226.411H38.3663C39.0817 226.411 39.6618 226.991 39.6618 227.707V256.606C39.6618 257.321 39.0817 257.901 38.3663 257.901H17.4392C16.7237 257.901 16.1437 257.321 16.1437 256.606V227.707C16.1437 226.991 16.7237 226.411 17.4392 226.411Z" stroke="#E5E5EB" stroke-width="0.398611"/>
<mask id="path-49-inside-3_3327_11880" fill="white">
<path d="M17.4392 258.101H38.3663C39.1918 258.101 39.8611 257.431 39.8611 256.606V255.609C39.8611 256.435 39.1918 257.104 38.3663 257.104H17.4392C16.6136 257.104 15.9444 256.435 15.9444 255.609V256.606C15.9444 257.431 16.6136 258.101 17.4392 258.101Z"/>
</mask>
<path d="M17.4392 258.101H38.3663C39.1918 258.101 39.8611 257.431 39.8611 256.606V255.609C39.8611 256.435 39.1918 257.104 38.3663 257.104H17.4392C16.6136 257.104 15.9444 256.435 15.9444 255.609V256.606C15.9444 257.431 16.6136 258.101 17.4392 258.101Z" fill="#E5E5EB"/>
<path d="M38.3663 257.104H17.4392V259.097H38.3663V257.104ZM17.4392 257.104C17.164 257.104 16.9409 256.881 16.9409 256.606H14.9479C14.9479 257.982 16.0633 259.097 17.4392 259.097V257.104ZM38.8645 256.606C38.8645 256.881 38.6415 257.104 38.3663 257.104V259.097C39.7422 259.097 40.8576 257.982 40.8576 256.606H38.8645ZM38.3663 256.108H17.4392V258.101H38.3663V256.108ZM17.4392 256.108C17.164 256.108 16.9409 255.885 16.9409 255.609H14.9479C14.9479 256.985 16.0633 258.101 17.4392 258.101V256.108ZM38.8645 255.609C38.8645 255.885 38.6415 256.108 38.3663 256.108V258.101C39.7422 258.101 40.8576 256.985 40.8576 255.609H38.8645ZM16.9409 256.606V255.609H14.9479V256.606H16.9409ZM40.8576 256.606V255.609H38.8645V256.606H40.8576Z" fill="#E5E5EB" mask="url(#path-49-inside-3_3327_11880)"/>
<g clip-path="url(#clip6_3327_11880)">
<path d="M34.6971 234.682H23.8201C23.4447 234.682 23.1404 234.987 23.1404 235.362V238.39L29.444 240.244L35.3768 238.39V235.362C35.3768 234.987 35.0725 234.682 34.6971 234.682Z" fill="#41A5EE"/>
<path d="M35.3768 238.39H23.1404V242.098L29.444 243.211L35.3768 242.098V238.39Z" fill="#2B7CD3"/>
<path d="M23.1404 242.098V245.806L29.0732 246.548L35.3768 245.806V242.098H23.1404Z" fill="#185ABD"/>
<path d="M23.8201 249.514H34.6971C35.0725 249.514 35.3768 249.21 35.3768 248.835V245.806H23.1404V248.835C23.1404 249.21 23.4447 249.514 23.8201 249.514Z" fill="#103F91"/>
<path opacity="0.1" d="M27.6519 237.649H23.1404V246.919H27.6519C28.0268 246.918 28.3304 246.614 28.3316 246.239V238.329C28.3304 237.954 28.0268 237.65 27.6519 237.649Z" fill="black" fill-opacity="0.5"/>
<path opacity="0.2" d="M26.9103 238.02H23.1404V246.548H26.9103C27.2852 246.547 27.5888 246.243 27.59 245.868V238.699C27.5888 238.324 27.2852 238.021 26.9103 238.02Z" fill="black" fill-opacity="0.6"/>
<path d="M20.1119 238.02H26.9102C27.2856 238.02 27.5899 238.324 27.5899 238.699V245.497C27.5899 245.873 27.2856 246.177 26.9102 246.177H20.1119C19.7366 246.177 19.4323 245.873 19.4323 245.497V238.699C19.4323 238.324 19.7366 238.02 20.1119 238.02Z" fill="url(#paint0_linear_3327_11880)"/>
<path d="M22.2216 243.232C22.2349 243.337 22.2438 243.428 22.2479 243.507H22.2634C22.2694 243.433 22.2817 243.343 22.3005 243.239C22.3193 243.134 22.3362 243.046 22.3513 242.974L23.0662 239.889H23.9906L24.7322 242.927C24.7753 243.116 24.8062 243.308 24.8246 243.5H24.8368C24.8506 243.314 24.8764 243.128 24.9139 242.944L25.5054 239.888H26.3467L25.3077 244.308H24.3247L23.6202 241.381C23.5998 241.296 23.5765 241.186 23.5509 241.051C23.5253 240.916 23.5093 240.817 23.503 240.754H23.4908C23.4826 240.826 23.4667 240.933 23.443 241.075C23.4192 241.216 23.4002 241.321 23.3859 241.389L22.7236 244.307H21.7239L20.6794 239.889H21.5359L22.18 242.98C22.1945 243.043 22.2082 243.128 22.2216 243.232Z" fill="white"/>
</g>
<path d="M59.13 233.98H54.3447V229.92H52.8379V239.686H54.3447V235.389H59.13V239.686H60.6228V229.92H59.13V233.98ZM65.7025 239.812C67.6278 239.812 69.1624 238.319 69.1624 236.435C69.1624 234.538 67.6278 233.045 65.7025 233.045C63.7633 233.045 62.2147 234.538 62.2147 236.435C62.2147 238.319 63.7633 239.812 65.7025 239.812ZM65.7025 238.458C64.5585 238.458 63.6656 237.565 63.6656 236.435C63.6656 235.305 64.5585 234.412 65.7025 234.412C66.8047 234.412 67.7255 235.305 67.7255 236.435C67.7255 237.565 66.8047 238.458 65.7025 238.458ZM77.3722 238.082L75.7678 233.171H74.5122L72.9077 238.054L71.4568 233.171H69.8105L72.0567 239.686H73.6193L75.14 235.166L76.6467 239.686H78.2093L80.4415 233.171H78.8231L77.3722 238.082ZM87.4657 233.171V230.827H86.0008V233.171H84.6894V234.398H86.0008V239.686H87.4657V234.398H88.7771V233.171H87.4657ZM93.0467 239.812C94.972 239.812 96.5066 238.319 96.5066 236.435C96.5066 234.538 94.972 233.045 93.0467 233.045C91.1074 233.045 89.5588 234.538 89.5588 236.435C89.5588 238.319 91.1074 239.812 93.0467 239.812ZM93.0467 238.458C91.9027 238.458 91.0098 237.565 91.0098 236.435C91.0098 235.305 91.9027 234.412 93.0467 234.412C94.1488 234.412 95.0696 235.305 95.0696 236.435C95.0696 237.565 94.1488 238.458 93.0467 238.458ZM105.308 233.045C104.331 233.045 103.592 233.394 103.062 233.98V233.171H101.611V242.937H103.062V238.891C103.578 239.463 104.331 239.812 105.308 239.812C106.982 239.812 108.475 238.361 108.475 236.435C108.475 234.496 107.024 233.045 105.308 233.045ZM105.001 238.458C103.857 238.458 102.978 237.579 102.978 236.435C102.978 235.277 103.857 234.412 105.001 234.412C106.145 234.412 107.038 235.277 107.038 236.435C107.038 237.579 106.145 238.458 105.001 238.458ZM113.06 233.059C112.32 233.059 111.762 233.492 111.413 234.161V233.171H109.962V239.686H111.413V236.352C111.413 235.194 112.111 234.426 113.046 234.426C113.255 234.426 113.478 234.468 113.646 234.552V233.171C113.492 233.115 113.269 233.059 113.06 233.059ZM117.857 239.812C119.782 239.812 121.317 238.319 121.317 236.435C121.317 234.538 119.782 233.045 117.857 233.045C115.917 233.045 114.369 234.538 114.369 236.435C114.369 238.319 115.917 239.812 117.857 239.812ZM117.857 238.458C116.713 238.458 115.82 237.565 115.82 236.435C115.82 235.305 116.713 234.412 117.857 234.412C118.959 234.412 119.88 235.305 119.88 236.435C119.88 237.565 118.959 238.458 117.857 238.458ZM124.892 233.171V230.827H123.427V233.171H122.116V234.398H123.427V239.686H124.892V234.398H126.203V233.171H124.892ZM133.765 236.38C133.738 234.44 132.314 233.045 130.431 233.045C128.436 233.045 126.985 234.538 126.985 236.435C126.985 238.319 128.366 239.812 130.473 239.812C131.77 239.812 132.9 239.114 133.431 238.026L132.189 237.524C131.826 238.165 131.17 238.528 130.431 238.528C129.385 238.528 128.548 237.775 128.45 236.686H133.751L133.765 236.38ZM130.417 234.315C131.268 234.315 131.896 234.817 132.175 235.584H128.589C128.882 234.831 129.538 234.315 130.417 234.315ZM138.416 239.812C139.825 239.812 141.039 239.044 141.569 237.789L140.258 237.245C139.965 237.97 139.281 238.458 138.416 238.458C137.244 238.458 136.379 237.593 136.379 236.435C136.379 235.263 137.244 234.412 138.416 234.412C139.281 234.412 139.965 234.901 140.258 235.626L141.569 235.068C141.039 233.813 139.825 233.045 138.416 233.045C136.477 233.045 134.928 234.51 134.928 236.435C134.928 238.347 136.477 239.812 138.416 239.812ZM145.192 233.171V230.827H143.727V233.171H142.416V234.398H143.727V239.686H145.192V234.398H146.504V233.171H145.192ZM154.102 237.9L152.302 233.171H150.712L153.362 239.616L152.009 242.937H153.53L154.702 240.049L157.45 233.171H155.846L154.102 237.9ZM161.577 239.812C163.503 239.812 165.037 238.319 165.037 236.435C165.037 234.538 163.503 233.045 161.577 233.045C159.638 233.045 158.09 234.538 158.09 236.435C158.09 238.319 159.638 239.812 161.577 239.812ZM161.577 238.458C160.433 238.458 159.541 237.565 159.541 236.435C159.541 235.305 160.433 234.412 161.577 234.412C162.68 234.412 163.6 235.305 163.6 236.435C163.6 237.565 162.68 238.458 161.577 238.458ZM169.112 239.812C170.786 239.812 171.805 238.835 171.805 237.286V233.171H170.34V237.119C170.34 237.97 169.838 238.458 169.112 238.458C168.401 238.458 167.871 237.97 167.871 237.119V233.171H166.434V237.286C166.434 238.835 167.438 239.812 169.112 239.812ZM176.617 233.059C175.878 233.059 175.32 233.492 174.971 234.161V233.171H173.52V239.686H174.971V236.352C174.971 235.194 175.669 234.426 176.603 234.426C176.813 234.426 177.036 234.468 177.203 234.552V233.171C177.05 233.115 176.827 233.059 176.617 233.059ZM185.76 233.045C184.783 233.045 184.044 233.394 183.514 233.98V233.171H182.063V242.937H183.514V238.891C184.03 239.463 184.783 239.812 185.76 239.812C187.434 239.812 188.927 238.361 188.927 236.435C188.927 234.496 187.476 233.045 185.76 233.045ZM185.453 238.458C184.309 238.458 183.43 237.579 183.43 236.435C183.43 235.277 184.309 234.412 185.453 234.412C186.597 234.412 187.49 235.277 187.49 236.435C187.49 237.579 186.597 238.458 185.453 238.458ZM193.512 233.059C192.772 233.059 192.214 233.492 191.865 234.161V233.171H190.415V239.686H191.865V236.352C191.865 235.194 192.563 234.426 193.498 234.426C193.707 234.426 193.93 234.468 194.098 234.552V233.171C193.944 233.115 193.721 233.059 193.512 233.059ZM196.004 231.552C196.492 231.552 196.897 231.148 196.897 230.673C196.897 230.171 196.492 229.795 196.004 229.795C195.53 229.795 195.111 230.171 195.111 230.673C195.111 231.148 195.53 231.552 196.004 231.552ZM196.729 239.686V233.171H195.278V239.686H196.729ZM201.158 237.956L199.415 233.171H197.852L200.461 239.686H201.842L204.465 233.171H202.902L201.158 237.956ZM210.563 234.036C210.033 233.422 209.279 233.045 208.275 233.045C206.559 233.045 205.094 234.496 205.094 236.435C205.094 238.361 206.601 239.812 208.275 239.812C209.279 239.812 210.033 239.449 210.563 238.835V239.686H212V233.171H210.563V234.036ZM208.582 238.458C207.452 238.458 206.545 237.565 206.545 236.435C206.545 235.305 207.452 234.412 208.582 234.412C209.698 234.412 210.605 235.305 210.605 236.435C210.605 237.565 209.698 238.458 208.582 238.458ZM216.961 239.812C218.37 239.812 219.583 239.044 220.114 237.789L218.802 237.245C218.509 237.97 217.826 238.458 216.961 238.458C215.789 238.458 214.924 237.593 214.924 236.435C214.924 235.263 215.789 234.412 216.961 234.412C217.826 234.412 218.509 234.901 218.802 235.626L220.114 235.068C219.583 233.813 218.37 233.045 216.961 233.045C215.021 233.045 213.473 234.51 213.473 236.435C213.473 238.347 215.021 239.812 216.961 239.812ZM224.254 237.9L222.454 233.171H220.864L223.514 239.616L222.161 242.937H223.682L224.854 240.049L227.602 233.171H225.998L224.254 237.9ZM229.03 239.812C229.505 239.812 229.909 239.421 229.909 238.933C229.909 238.444 229.505 238.04 229.03 238.04C228.556 238.04 228.151 238.444 228.151 238.933C228.151 239.421 228.556 239.812 229.03 239.812ZM236.693 233.98C236.163 233.394 235.423 233.045 234.461 233.045C232.745 233.045 231.28 234.496 231.28 236.435C231.28 238.361 232.787 239.812 234.461 239.812C235.437 239.812 236.177 239.477 236.693 238.905V239.686H238.158V229.92H236.693V233.98ZM234.768 238.458C233.61 238.458 232.731 237.579 232.731 236.435C232.731 235.277 233.61 234.412 234.768 234.412C235.912 234.412 236.791 235.277 236.791 236.435C236.791 237.579 235.912 238.458 234.768 238.458ZM243.119 239.812C245.045 239.812 246.579 238.319 246.579 236.435C246.579 234.538 245.045 233.045 243.119 233.045C241.18 233.045 239.632 234.538 239.632 236.435C239.632 238.319 241.18 239.812 243.119 239.812ZM243.119 238.458C241.975 238.458 241.083 237.565 241.083 236.435C241.083 235.305 241.975 234.412 243.119 234.412C244.222 234.412 245.142 235.305 245.142 236.435C245.142 237.565 244.222 238.458 243.119 238.458ZM251.212 239.812C252.621 239.812 253.835 239.044 254.365 237.789L253.054 237.245C252.761 237.97 252.077 238.458 251.212 238.458C250.04 238.458 249.175 237.593 249.175 236.435C249.175 235.263 250.04 234.412 251.212 234.412C252.077 234.412 252.761 234.901 253.054 235.626L254.365 235.068C253.835 233.813 252.621 233.045 251.212 233.045C249.273 233.045 247.725 234.51 247.725 236.435C247.725 238.347 249.273 239.812 251.212 239.812Z" fill="#3A3A3B"/>
<path d="M60.4414 253.013L58.4563 246.256H57.117L55.1797 253.013L53.0751 246.256H52.0706L54.6775 254.627H55.682L57.7867 247.285L59.9392 254.627H60.9437L63.5267 246.256H62.5461L60.4414 253.013ZM68.5298 249.844C68.0395 249.282 67.322 248.935 66.4252 248.935C64.9304 248.935 63.6389 250.226 63.6389 251.841C63.6389 253.443 64.9304 254.735 66.4252 254.735C67.322 254.735 68.0395 254.388 68.5298 253.826V254.627H69.4387V249.042H68.5298V249.844ZM66.5447 253.826C65.4446 253.826 64.5477 252.941 64.5477 251.841C64.5477 250.729 65.4446 249.856 66.5447 249.856C67.6449 249.856 68.5298 250.729 68.5298 251.841C68.5298 252.941 67.6449 253.826 66.5447 253.826ZM71.4108 247.38C71.7456 247.38 72.0326 247.105 72.0326 246.77C72.0326 246.412 71.7456 246.148 71.4108 246.148C71.0759 246.148 70.777 246.412 70.777 246.77C70.777 247.105 71.0759 247.38 71.4108 247.38ZM71.8652 254.627V249.042H70.9444V254.627H71.8652ZM75.1154 249.042V247.033H74.1827V249.042H72.9988V249.903H74.1827V254.627H75.1154V249.903H76.2993V249.042H75.1154ZM77.9038 247.38C78.2386 247.38 78.5256 247.105 78.5256 246.77C78.5256 246.412 78.2386 246.148 77.9038 246.148C77.5689 246.148 77.27 246.412 77.27 246.77C77.27 247.105 77.5689 247.38 77.9038 247.38ZM78.3582 254.627V249.042H77.4374V254.627H78.3582ZM82.1265 248.935C81.6123 248.935 81.146 249.126 80.7872 249.437V249.042H79.8664V254.627H80.7872V250.968C80.7992 250.31 81.3373 249.796 82.0189 249.796C82.6886 249.796 83.2267 250.334 83.2267 251.016V254.627H84.1475V250.956C84.1475 249.844 83.2387 248.935 82.1265 248.935ZM90.3442 249.832C89.8539 249.282 89.1364 248.935 88.2515 248.935C86.7567 248.935 85.4652 250.226 85.4652 251.841C85.4652 253.443 86.7567 254.735 88.2515 254.735C89.1364 254.735 89.8539 254.388 90.3442 253.838V254.639C90.3442 255.966 89.4592 256.624 88.371 256.624C87.4144 256.624 86.7088 256.11 86.4099 255.392L85.6326 255.895C86.099 256.863 87.0915 257.533 88.371 257.533C89.9735 257.533 91.265 256.48 91.265 254.639V249.042H90.3442V249.832ZM88.371 253.826C87.2589 253.826 86.374 252.929 86.374 251.841C86.374 250.729 87.2589 249.856 88.371 249.856C89.4592 249.856 90.3561 250.729 90.3561 251.841C90.3561 252.929 89.4592 253.826 88.371 253.826ZM97.619 249.042V247.033H96.6863V249.042H95.5024V249.903H96.6863V254.627H97.619V249.903H98.8029V249.042H97.619ZM102.431 254.735C104.034 254.735 105.325 253.443 105.325 251.841C105.325 250.226 104.034 248.935 102.431 248.935C100.817 248.935 99.5255 250.226 99.5255 251.841C99.5255 253.443 100.817 254.735 102.431 254.735ZM102.431 253.826C101.319 253.826 100.434 252.941 100.434 251.841C100.434 250.729 101.319 249.856 102.431 249.856C103.52 249.856 104.417 250.729 104.417 251.841C104.417 252.941 103.52 253.826 102.431 253.826ZM111.854 254.735C113.121 254.735 113.958 253.921 113.958 252.618V249.042H113.037V252.522C113.037 253.335 112.559 253.826 111.854 253.826C111.16 253.826 110.658 253.335 110.658 252.522V249.042H109.749V252.618C109.749 253.921 110.586 254.735 111.854 254.735ZM118.532 248.935C117.671 248.935 116.977 249.258 116.487 249.784V249.042H115.566V257.413H116.487V253.886C116.977 254.412 117.671 254.735 118.532 254.735C120.027 254.735 121.318 253.443 121.318 251.841C121.318 250.226 120.027 248.935 118.532 248.935ZM118.412 253.826C117.312 253.826 116.427 252.941 116.427 251.841C116.427 250.729 117.312 249.856 118.412 249.856C119.512 249.856 120.409 250.729 120.409 251.841C120.409 252.941 119.512 253.826 118.412 253.826ZM123.622 254.627V246.256H122.702V254.627H123.622ZM127.913 254.735C129.515 254.735 130.807 253.443 130.807 251.841C130.807 250.226 129.515 248.935 127.913 248.935C126.299 248.935 125.007 250.226 125.007 251.841C125.007 253.443 126.299 254.735 127.913 254.735ZM127.913 253.826C126.801 253.826 125.916 252.941 125.916 251.841C125.916 250.729 126.801 249.856 127.913 249.856C129.001 249.856 129.898 250.729 129.898 251.841C129.898 252.941 129.001 253.826 127.913 253.826ZM136.8 249.844C136.309 249.282 135.592 248.935 134.695 248.935C133.2 248.935 131.909 250.226 131.909 251.841C131.909 253.443 133.2 254.735 134.695 254.735C135.592 254.735 136.309 254.388 136.8 253.826V254.627H137.709V249.042H136.8V249.844ZM134.815 253.826C133.715 253.826 132.818 252.941 132.818 251.841C132.818 250.729 133.715 249.856 134.815 249.856C135.915 249.856 136.8 250.729 136.8 251.841C136.8 252.941 135.915 253.826 134.815 253.826ZM143.922 249.784C143.444 249.258 142.738 248.935 141.877 248.935C140.382 248.935 139.091 250.226 139.091 251.841C139.091 253.443 140.382 254.735 141.877 254.735C142.738 254.735 143.444 254.412 143.922 253.886V254.627H144.843V246.256H143.922V249.784ZM141.997 253.826C140.897 253.826 140 252.941 140 251.841C140 250.729 140.897 249.856 141.997 249.856C143.097 249.856 143.982 250.729 143.982 251.841C143.982 252.941 143.097 253.826 141.997 253.826Z" fill="#8E8E94"/>
<path d="M298.959 249.631C303.086 249.631 306.433 246.284 306.433 242.157C306.433 238.029 303.086 234.683 298.959 234.683C294.831 234.683 291.485 238.029 291.485 242.157C291.485 246.284 294.831 249.631 298.959 249.631Z" stroke="#D1D1D7" stroke-width="1.24566" stroke-miterlimit="10"/>
<path d="M298.959 237.797V242.156H303.318" stroke="#D1D1D7" stroke-width="1.24566" stroke-linecap="round" stroke-linejoin="round"/>
</g>
<rect x="-0.498264" y="-0.498264" width="319.885" height="287.997" rx="8.49826" stroke="#E5E5EB" stroke-width="0.996528"/>
</g>
</g>
<defs>
<filter id="filter0_dd_3327_11880" x="-20.9965" y="-0.996582" width="360.882" height="328.993" filterUnits="userSpaceOnUse" color-interpolation-filters="sRGB">
<feFlood flood-opacity="0" result="BackgroundImageFix"/>
<feColorMatrix in="SourceAlpha" type="matrix" values="0 0 0 0 0 0 0 0 0 0 0 0 0 0 0 0 0 0 127 0" result="hardAlpha"/>
<feMorphology radius="5" operator="erode" in="SourceAlpha" result="effect1_dropShadow_3327_11880"/>
<feOffset dy="20"/>
<feGaussianBlur stdDeviation="12.5"/>
<feComposite in2="hardAlpha" operator="out"/>
<feColorMatrix type="matrix" values="0 0 0 0 0 0 0 0 0 0 0 0 0 0 0 0 0 0 0.1 0"/>
<feBlend mode="normal" in2="BackgroundImageFix" result="effect1_dropShadow_3327_11880"/>
<feColorMatrix in="SourceAlpha" type="matrix" values="0 0 0 0 0 0 0 0 0 0 0 0 0 0 0 0 0 0 127 0" result="hardAlpha"/>
<feMorphology radius="6" operator="erode" in="SourceAlpha" result="effect2_dropShadow_3327_11880"/>
<feOffset dy="8"/>
<feGaussianBlur stdDeviation="5"/>
<feComposite in2="hardAlpha" operator="out"/>
<feColorMatrix type="matrix" values="0 0 0 0 0 0 0 0 0 0 0 0 0 0 0 0 0 0 0.1 0"/>
<feBlend mode="normal" in2="effect1_dropShadow_3327_11880" result="effect2_dropShadow_3327_11880"/>
<feBlend mode="normal" in="SourceGraphic" in2="effect2_dropShadow_3327_11880" result="shape"/>
</filter>
<filter id="filter1_d_3327_11880" x="-40.8576" y="-8.96881" width="400.604" height="368.715" filterUnits="userSpaceOnUse" color-interpolation-filters="sRGB">
<feFlood flood-opacity="0" result="BackgroundImageFix"/>
<feColorMatrix in="SourceAlpha" type="matrix" values="0 0 0 0 0 0 0 0 0 0 0 0 0 0 0 0 0 0 127 0" result="hardAlpha"/>
<feOffset dy="31.8889"/>
<feGaussianBlur stdDeviation="19.9306"/>
<feComposite in2="hardAlpha" operator="out"/>
<feColorMatrix type="matrix" values="0 0 0 0 0 0 0 0 0 0 0 0 0 0 0 0 0 0 0.08 0"/>
<feBlend mode="normal" in2="BackgroundImageFix" result="effect1_dropShadow_3327_11880"/>
<feBlend mode="normal" in="SourceGraphic" in2="effect1_dropShadow_3327_11880" result="shape"/>
</filter>
<filter id="filter2_i_3327_11880" x="15.9444" y="55.8059" width="23.9167" height="31.8889" filterUnits="userSpaceOnUse" color-interpolation-filters="sRGB">
<feFlood flood-opacity="0" result="BackgroundImageFix"/>
<feBlend mode="normal" in="SourceGraphic" in2="BackgroundImageFix" result="shape"/>
<feColorMatrix in="SourceAlpha" type="matrix" values="0 0 0 0 0 0 0 0 0 0 0 0 0 0 0 0 0 0 127 0" result="hardAlpha"/>
<feOffset dy="-0.996528"/>
<feComposite in2="hardAlpha" operator="arithmetic" k2="-1" k3="1"/>
<feColorMatrix type="matrix" values="0 0 0 0 0 0 0 0 0 0 0 0 0 0 0 0 0 0 0.16 0"/>
<feBlend mode="normal" in2="shape" result="effect1_innerShadow_3327_11880"/>
</filter>
<filter id="filter3_i_3327_11880" x="15.9444" y="169.41" width="23.9167" height="31.8889" filterUnits="userSpaceOnUse" color-interpolation-filters="sRGB">
<feFlood flood-opacity="0" result="BackgroundImageFix"/>
<feBlend mode="normal" in="SourceGraphic" in2="BackgroundImageFix" result="shape"/>
<feColorMatrix in="SourceAlpha" type="matrix" values="0 0 0 0 0 0 0 0 0 0 0 0 0 0 0 0 0 0 127 0" result="hardAlpha"/>
<feOffset dy="-0.996528"/>
<feComposite in2="hardAlpha" operator="arithmetic" k2="-1" k3="1"/>
<feColorMatrix type="matrix" values="0 0 0 0 0 0 0 0 0 0 0 0 0 0 0 0 0 0 0.16 0"/>
<feBlend mode="normal" in2="shape" result="effect1_innerShadow_3327_11880"/>
</filter>
<filter id="filter4_i_3327_11880" x="15.9444" y="226.212" width="23.9167" height="31.8889" filterUnits="userSpaceOnUse" color-interpolation-filters="sRGB">
<feFlood flood-opacity="0" result="BackgroundImageFix"/>
<feBlend mode="normal" in="SourceGraphic" in2="BackgroundImageFix" result="shape"/>
<feColorMatrix in="SourceAlpha" type="matrix" values="0 0 0 0 0 0 0 0 0 0 0 0 0 0 0 0 0 0 127 0" result="hardAlpha"/>
<feOffset dy="-0.996528"/>
<feComposite in2="hardAlpha" operator="arithmetic" k2="-1" k3="1"/>
<feColorMatrix type="matrix" values="0 0 0 0 0 0 0 0 0 0 0 0 0 0 0 0 0 0 0.16 0"/>
<feBlend mode="normal" in2="shape" result="effect1_innerShadow_3327_11880"/>
</filter>
<linearGradient id="paint0_linear_3327_11880" x1="20.8494" y1="237.488" x2="26.1727" y2="246.708" gradientUnits="userSpaceOnUse">
<stop stop-color="#2368C4"/>
<stop offset="0.5" stop-color="#1A5DBE"/>
<stop offset="1" stop-color="#1146AC"/>
</linearGradient>
<clipPath id="clip0_3327_11880">
<rect width="318.889" height="287" rx="8" fill="white"/>
</clipPath>
<clipPath id="clip1_3327_11880">
<path d="M0 7.97223C0 3.56929 3.56929 0 7.97222 0H310.917C315.32 0 318.889 3.56929 318.889 7.97222V39.8611H0V7.97223Z" fill="white"/>
</clipPath>
<clipPath id="clip2_3327_11880">
<rect width="31.8889" height="31.8889" fill="white" transform="translate(11.9583 55.8059)"/>
</clipPath>
<clipPath id="clip3_3327_11880">
<rect width="31.8889" height="31.8889" fill="white" transform="translate(11.9583 112.608)"/>
</clipPath>
<clipPath id="clip4_3327_11880">
<rect x="78.8055" y="135.03" width="188.264" height="3.98611" rx="1.99306" fill="white"/>
</clipPath>
<clipPath id="clip5_3327_11880">
<rect width="31.8889" height="31.8889" fill="white" transform="translate(11.9583 169.41)"/>
</clipPath>
<clipPath id="clip6_3327_11880">
<rect width="15.9444" height="14.832" fill="white" transform="translate(19.4323 234.682)"/>
</clipPath>
</defs>
</svg>
