<svg width="104" height="24" fill="none" xmlns="http://www.w3.org/2000/svg"><g clip-path="url(#a)" fill-rule="evenodd" clip-rule="evenodd"><path d="M.468 20.841c.252-.362.667-.597 1.225-.687a147.502 147.502 0 0 1 47.443-.073c.432.073.703.2.847.344.126.127.18.29.144.525-.036.199-.126.326-.27.398-.18.09-.469.127-.901.072a145.497 145.497 0 0 0-46.687 1.845c-.144.019-.288.037-.414.037H1.73a1.583 1.583 0 0 1-.81-.254C.559 22.813.324 22.433.234 22c-.054-.434.018-.85.234-1.158z" fill="#6573FF"/><path d="M11.438 8.54c-.469-.363-1.063-.688-1.802-.978-.72-.29-1.585-.524-2.575-.742-.847-.199-1.513-.38-2-.578-.486-.181-.828-.398-1.044-.634-.217-.235-.307-.524-.307-.868 0-.633.27-1.122.811-1.484.54-.361 1.26-.542 2.161-.542.81 0 1.585.126 2.36.398.774.271 1.513.687 2.233 1.23l1.117-2.515a5.43 5.43 0 0 0-1.53-.977c-.613-.271-1.28-.47-2-.633A11.221 11.221 0 0 0 6.646 0c-1.26 0-2.36.217-3.314.651-.936.434-1.675 1.032-2.215 1.773a4.353 4.353 0 0 0-.793 2.533c0 .651.108 1.23.306 1.737.217.506.54.94.991 1.302.45.38 1.045.706 1.765.977.72.29 1.603.525 2.63.742.81.181 1.477.362 1.963.543.487.18.847.38 1.063.633.216.235.342.525.342.868 0 .58-.27 1.032-.81 1.357-.54.326-1.315.489-2.324.489-.937 0-1.82-.127-2.666-.398-.846-.272-1.657-.688-2.45-1.23L0 14.49c.486.38 1.063.724 1.73.995a11.35 11.35 0 0 0 2.143.633c.756.145 1.549.218 2.341.218 1.387 0 2.558-.2 3.548-.598.973-.398 1.73-.958 2.252-1.682.522-.724.774-1.592.774-2.587 0-.633-.108-1.176-.342-1.664-.198-.47-.54-.905-1.008-1.267zm6.304-7.509-.018.006v-.006h.018zm-.018.006v3.74h2.881v2.532h-2.881v4.432c0 .434.09.796.252 1.068.162.271.378.47.648.579.27.108.559.162.865.162.18 0 .36-.018.522-.036.18-.036.378-.072.594-.108v2.587c-.306.126-.63.217-.936.253a6.015 6.015 0 0 1-1.009.072c-1.387 0-2.45-.398-3.188-1.194-.738-.796-1.099-1.917-1.099-3.328V2.134l3.35-1.097zM29.25 5.174c.504.326.883.724 1.153 1.212h.018V4.794h3.314v11.361h-3.314v-1.682c-.27.488-.649.904-1.153 1.212-.702.434-1.513.651-2.413.651-.991 0-1.856-.253-2.612-.723a4.778 4.778 0 0 1-1.765-2.045c-.415-.886-.63-1.917-.63-3.093 0-1.194.197-2.225.63-3.13.432-.905 1.008-1.592 1.765-2.099.756-.488 1.62-.741 2.593-.741.92 0 1.712.217 2.414.669zm-1.44 8.557c.828 0 1.458-.29 1.908-.85.45-.56.685-1.375.685-2.424 0-1.086-.234-1.9-.685-2.479-.45-.579-1.098-.868-1.909-.868-.81 0-1.459.29-1.927.886-.468.597-.703 1.411-.703 2.479 0 1.05.235 1.863.685 2.424.45.56 1.099.832 1.945.832zm20.767-12.7-.018.006v-.006h.018zm-.018.006v3.74h2.882v2.532H48.56v4.432c0 .434.09.796.252 1.068.162.271.378.47.648.579.27.108.559.162.865.162.18 0 .36-.018.522-.036.18-.036.378-.072.595-.108v2.587c-.307.126-.63.217-.937.253a6.015 6.015 0 0 1-1.009.072c-1.387 0-2.45-.398-3.188-1.194-.738-.796-1.099-1.917-1.099-3.328V2.134l3.35-1.097zm11.51 3.468c.972 0 1.837.235 2.593.741.757.507 1.333 1.194 1.765 2.08.432.905.649 1.955.649 3.13 0 1.177-.217 2.208-.649 3.094-.432.887-1.008 1.574-1.765 2.045-.756.488-1.621.723-2.594.723-.918 0-1.729-.217-2.413-.651a3.218 3.218 0 0 1-1.117-1.194v6.694h-3.368V8.05c0-.543-.018-1.086-.036-1.629a16.567 16.567 0 0 0-.144-1.628h3.17l.216 1.936a3.24 3.24 0 0 1 1.279-1.556c.684-.452 1.495-.67 2.413-.67zm-.955 9.226c.828 0 1.459-.271 1.909-.832.45-.56.666-1.375.684-2.46 0-1.05-.234-1.882-.684-2.479-.45-.579-1.099-.886-1.91-.886-.846 0-1.494.29-1.945.868-.45.579-.666 1.411-.666 2.479 0 1.067.216 1.9.666 2.46.45.56 1.1.85 1.946.85zm15.634-7.345a3.36 3.36 0 0 0-1.153-1.212c-.702-.452-1.495-.67-2.413-.67-.973 0-1.838.254-2.594.742-.757.507-1.333 1.194-1.765 2.099-.433.905-.63 1.936-.63 3.13 0 1.176.215 2.207.63 3.093a4.779 4.779 0 0 0 1.765 2.045c.756.47 1.62.723 2.612.723.9 0 1.71-.217 2.413-.65a3.224 3.224 0 0 0 1.153-1.213v1.682h3.314V4.796h-3.332v1.591zm-.667 6.495c-.45.56-1.08.85-1.909.85-.846 0-1.495-.271-1.945-.832-.45-.56-.685-1.375-.685-2.424 0-1.05.235-1.882.703-2.479.468-.597 1.117-.886 1.927-.886s1.46.29 1.91.868c.45.58.684 1.393.684 2.479-.018 1.049-.234 1.863-.685 2.424zm13.095-7.689c.504.326.9.724 1.17 1.212v-1.61h3.35v10.819c0 1.827-.521 3.202-1.548 4.143-1.027.94-2.558 1.41-4.557 1.41-1.783 0-3.35-.343-4.683-1.049l.504-2.514a9.31 9.31 0 0 0 2.035.76 8.83 8.83 0 0 0 2.036.253c.973 0 1.693-.217 2.161-.67.487-.452.72-1.14.72-2.062v-1.99c-.161.235-.341.47-.558.688-.378.38-.828.669-1.35.904a4.194 4.194 0 0 1-1.712.344c-.99 0-1.855-.235-2.611-.706-.757-.47-1.351-1.121-1.784-1.972-.432-.85-.648-1.845-.648-2.985s.216-2.116.648-2.967c.433-.832 1.027-1.501 1.784-1.972.756-.488 1.639-.723 2.611-.723.919 0 1.73.235 2.432.687zm-1.459 8.05c.81 0 1.459-.27 1.927-.813.469-.543.703-1.303.72-2.262 0-.94-.215-1.7-.684-2.243-.468-.56-1.117-.832-1.945-.832-.829 0-1.495.271-1.963.814-.487.543-.72 1.284-.72 2.243 0 .959.233 1.719.72 2.262.486.56 1.135.832 1.945.832zM40.653 5.302c-.469.361-.81.85-1.045 1.447l-.234-1.972h-3.17c.072.543.126 1.085.144 1.628.018.543.036 1.086.036 1.628v8.105h3.368v-5.934c0-.56.108-1.049.324-1.465.216-.416.523-.724.919-.959.396-.217.9-.344 1.495-.344.36 0 .72.055 1.08.163V4.577a3.083 3.083 0 0 0-.612-.054c-.864 0-1.639.253-2.305.778zm62.717 1.845c.414.868.63 1.882.63 3.058l-.036 1.121h-7.367c.108.67.324 1.194.649 1.574.504.56 1.26.85 2.287.85.594 0 1.189-.09 1.765-.29a5.865 5.865 0 0 0 1.603-.831l.883 2.28c-.541.433-1.207.76-1.999 1.012a8.15 8.15 0 0 1-2.378.362c-1.26 0-2.341-.253-3.26-.723-.919-.489-1.621-1.158-2.108-2.045-.486-.868-.738-1.917-.738-3.13 0-1.176.252-2.207.72-3.093a5.204 5.204 0 0 1 1.946-2.099c.828-.488 1.783-.742 2.882-.742 1.044 0 1.963.236 2.737.706a4.56 4.56 0 0 1 1.784 1.99zm-6.233.525c-.252.362-.432.796-.54 1.357h4.503c-.072-.616-.234-1.104-.522-1.466-.378-.488-.919-.724-1.64-.724-.774 0-1.368.272-1.8.833z" fill="#202945"/></g><defs><clipPath id="a"><path fill="#fff" d="M0 0h104v23.284H0z"/></clipPath></defs></svg>