<svg width="104" height="24" viewBox="0 0 104 24" fill="none" xmlns="http://www.w3.org/2000/svg">
<g clip-path="url(#clip0_2293_4344)">
<path fill-rule="evenodd" clip-rule="evenodd" d="M0.469997 21.19C0.719997 20.83 1.14 20.59 1.7 20.5C17.41 17.92 33.43 17.89 49.14 20.43C49.57 20.5 49.84 20.63 49.99 20.77C50.12 20.9 50.17 21.06 50.13 21.29C50.09 21.49 50 21.62 49.86 21.69C49.68 21.78 49.39 21.82 48.96 21.76C33.4 19.86 17.63 20.48 2.27 23.6C2.13 23.62 1.98 23.64 1.86 23.64H1.74C1.45 23.64 1.17 23.54 0.929997 23.39C0.569997 23.15 0.329997 22.78 0.239997 22.34C0.189997 21.91 0.259997 21.49 0.469997 21.18V21.18V21.19Z" fill="#6573FF"/>
<path fill-rule="evenodd" clip-rule="evenodd" d="M11.44 8.88998C10.97 8.52998 10.38 8.19998 9.64001 7.90998C8.92001 7.61998 8.05001 7.38998 7.07001 7.16998C6.22001 6.96998 5.56001 6.78998 5.07001 6.58998C4.58001 6.40998 4.24001 6.18998 4.03001 5.95998C3.81001 5.71998 3.72001 5.43998 3.72001 5.08998C3.72001 4.45998 3.99001 3.96998 4.53001 3.60998C5.07001 3.24998 5.79001 3.06998 6.69001 3.06998C7.50001 3.06998 8.28001 3.19998 9.05001 3.46998C9.82001 3.73998 10.56 4.15998 11.28 4.69998L12.4 2.17998C11.95 1.76998 11.43 1.43998 10.87 1.19998C10.26 0.929976 9.59001 0.729976 8.87001 0.569976C8.13001 0.419976 7.39001 0.349976 6.65001 0.349976C5.39001 0.349976 4.29001 0.569976 3.33001 0.999976C2.39001 1.42998 1.66001 2.02998 1.12001 2.76998C0.60001 3.50998 0.32001 4.39998 0.33001 5.29998C0.33001 5.94998 0.44001 6.52998 0.64001 7.03998C0.86001 7.54998 1.18001 7.97998 1.63001 8.33998C2.08001 8.71998 2.67001 9.04998 3.40001 9.31998C4.12001 9.60998 5.00001 9.83998 6.03001 10.06C6.84001 10.24 7.51001 10.42 7.99001 10.6C8.48001 10.78 8.84001 10.98 9.05001 11.23C9.27001 11.46 9.39001 11.75 9.39001 12.1C9.39001 12.68 9.12001 13.13 8.58001 13.46C8.04001 13.79 7.26001 13.95 6.26001 13.95C5.32001 13.95 4.44001 13.82 3.59001 13.55C2.74001 13.28 1.93001 12.86 1.14001 12.32L0.0100098 14.83C0.50001 15.21 1.07001 15.55 1.74001 15.82C2.43001 16.1 3.15001 16.31 3.88001 16.45C4.64001 16.6 5.43001 16.67 6.22001 16.67C7.61001 16.67 8.78001 16.47 9.77001 16.07C10.74 15.67 11.5 15.11 12.02 14.39C12.54 13.67 12.79 12.8 12.79 11.8C12.79 11.17 12.68 10.62 12.45 10.14C12.25 9.66998 11.91 9.23998 11.44 8.86998V8.88998ZM17.72 1.37998V5.11998H20.6V7.64998H17.72V12.08C17.72 12.51 17.81 12.88 17.97 13.15C18.13 13.42 18.35 13.62 18.62 13.73C18.89 13.84 19.18 13.89 19.48 13.89C19.66 13.89 19.84 13.87 20 13.85C20.18 13.81 20.38 13.78 20.59 13.74V16.33C20.28 16.46 19.96 16.55 19.65 16.58C19.32 16.63 18.98 16.66 18.64 16.65C17.25 16.65 16.19 16.25 15.45 15.46C14.71 14.66 14.35 13.54 14.35 12.13V2.47998L17.7 1.37998H17.72ZM29.25 5.51998C29.73 5.81998 30.13 6.23998 30.4 6.72998H30.42V5.13998H33.73V16.5H30.42V14.82C30.15 15.31 29.77 15.72 29.27 16.03C28.57 16.46 27.76 16.68 26.86 16.68C25.87 16.68 25.01 16.43 24.25 15.96C23.48 15.46 22.86 14.75 22.49 13.91C22.07 13.02 21.86 11.99 21.86 10.82C21.86 9.64998 22.06 8.58998 22.49 7.68998C22.92 6.78998 23.5 6.09998 24.25 5.58998C25.01 5.09998 25.87 4.84998 26.84 4.84998C27.76 4.84998 28.55 5.06998 29.25 5.51998ZM27.81 14.08C28.64 14.08 29.27 13.79 29.72 13.23C30.17 12.67 30.4 11.85 30.4 10.81C30.4 9.76998 30.17 8.90998 29.72 8.32998C29.27 7.74998 28.62 7.45998 27.81 7.45998C27 7.45998 26.35 7.74998 25.88 8.34998C25.41 8.94998 25.18 9.75998 25.18 10.83C25.18 11.9 25.42 12.69 25.86 13.25C26.31 13.81 26.96 14.08 27.8 14.08H27.81ZM48.56 1.37998V5.11998H51.44V7.64998H48.56V12.08C48.56 12.51 48.65 12.88 48.81 13.15C48.97 13.42 49.19 13.62 49.46 13.73C49.73 13.84 50.02 13.89 50.33 13.89C50.51 13.89 50.69 13.87 50.85 13.85C51.03 13.81 51.23 13.78 51.44 13.74V16.33C51.13 16.46 50.81 16.55 50.5 16.58C50.17 16.63 49.83 16.66 49.49 16.65C48.1 16.65 47.04 16.25 46.3 15.46C45.56 14.66 45.2 13.54 45.2 12.13V2.47998L48.55 1.37998H48.56ZM60.07 4.84998C61.04 4.84998 61.91 5.08998 62.66 5.58998C63.42 6.09998 63.99 6.77998 64.43 7.66998C64.86 8.56998 65.08 9.61998 65.08 10.8C65.08 11.98 64.86 13.01 64.43 13.89C64 14.78 63.42 15.46 62.67 15.94C61.91 16.43 61.05 16.66 60.08 16.66C59.16 16.66 58.35 16.44 57.67 16.01C57.2 15.71 56.82 15.3 56.55 14.82V21.51H53.18V8.39998C53.18 7.85998 53.16 7.30998 53.14 6.76998C53.12 6.22998 53.07 5.67998 53 5.13998H56.17L56.39 7.07998C56.64 6.43998 57.09 5.88998 57.67 5.51998C58.35 5.06998 59.16 4.84998 60.08 4.84998H60.07ZM59.11 14.08C59.94 14.08 60.57 13.81 61.02 13.25C61.47 12.69 61.69 11.87 61.7 10.79C61.7 9.73998 61.47 8.90998 61.02 8.30998C60.57 7.72998 59.92 7.41998 59.11 7.41998C58.3 7.41998 57.62 7.70998 57.17 8.28998C56.72 8.86998 56.5 9.69998 56.5 10.77C56.5 11.84 56.72 12.67 57.17 13.23C57.62 13.79 58.27 14.08 59.12 14.08H59.11ZM74.74 6.73998C74.46 6.24998 74.07 5.82998 73.59 5.52998C72.89 5.07998 72.09 4.85998 71.18 4.85998C70.21 4.85998 69.34 5.10998 68.59 5.59998C67.83 6.10998 67.26 6.78998 66.82 7.69998C66.39 8.59998 66.19 9.63998 66.19 10.83C66.19 12.02 66.41 13.04 66.82 13.92C67.2 14.76 67.81 15.47 68.59 15.97C69.35 16.44 70.21 16.69 71.2 16.69C72.1 16.69 72.91 16.47 73.61 16.04C74.09 15.74 74.49 15.33 74.76 14.83V16.51H78.07V5.14998H74.74V6.73998ZM74.07 13.23C73.62 13.79 72.99 14.08 72.16 14.08C71.33 14.08 70.66 13.81 70.22 13.25C69.77 12.69 69.54 11.87 69.54 10.83C69.54 9.78998 69.77 8.94998 70.24 8.34998C70.71 7.74998 71.36 7.45998 72.17 7.45998C72.98 7.45998 73.63 7.74998 74.08 8.32998C74.53 8.90998 74.76 9.71998 74.76 10.81C74.74 11.86 74.53 12.67 74.08 13.23H74.07ZM87.17 5.53998C87.67 5.86998 88.07 6.25998 88.34 6.74998V5.13998H91.69V15.96C91.69 17.79 91.17 19.16 90.14 20.1C89.11 21.04 87.58 21.51 85.58 21.51C83.8 21.51 82.23 21.17 80.9 20.46L81.4 17.95C82.08 18.29 82.75 18.55 83.44 18.71C84.11 18.87 84.79 18.96 85.48 18.96C86.45 18.96 87.17 18.74 87.64 18.29C88.13 17.84 88.36 17.15 88.36 16.23V14.24C88.2 14.49 88.01 14.72 87.8 14.93C87.42 15.31 86.97 15.6 86.45 15.83C85.91 16.06 85.33 16.18 84.74 16.17C83.75 16.17 82.88 15.94 82.13 15.46C81.37 14.99 80.78 14.34 80.35 13.49C79.92 12.64 79.7 11.64 79.7 10.51C79.7 9.37998 79.92 8.38998 80.35 7.53998C80.78 6.70998 81.38 6.03998 82.13 5.56998C82.89 5.07998 83.77 4.84998 84.74 4.84998C85.66 4.84998 86.47 5.08998 87.17 5.53998ZM85.71 13.59C86.52 13.59 87.17 13.32 87.64 12.78C88.11 12.24 88.34 11.48 88.36 10.52C88.36 9.57998 88.15 8.81998 87.68 8.27998C87.21 7.71998 86.56 7.44998 85.74 7.44998C84.92 7.44998 84.24 7.71998 83.78 8.25998C83.29 8.79998 83.06 9.53998 83.06 10.5C83.06 11.46 83.29 12.22 83.78 12.76C84.27 13.32 84.92 13.59 85.72 13.59H85.71ZM40.65 5.64998C40.18 6.00998 39.84 6.49998 39.61 7.09998L39.38 5.12998H36.21C36.28 5.66998 36.34 6.21998 36.35 6.75998C36.37 7.29998 36.39 7.84998 36.39 8.38998V16.5H39.76V10.57C39.76 10.01 39.87 9.51998 40.08 9.09998C40.3 8.67998 40.6 8.37998 41 8.13998C41.4 7.91998 41.9 7.79998 42.49 7.79998C42.85 7.79998 43.21 7.84998 43.57 7.95998V4.93998C43.37 4.89998 43.16 4.87998 42.96 4.88998C42.1 4.88998 41.32 5.13998 40.65 5.66998V5.64998ZM103.37 7.48998C103.78 8.35998 104 9.36998 104 10.55L103.96 11.67H96.59C96.7 12.34 96.91 12.86 97.24 13.24C97.74 13.8 98.5 14.09 99.53 14.09C100.12 14.09 100.72 14 101.29 13.8C101.86 13.61 102.4 13.33 102.89 12.97L103.77 15.25C103.23 15.68 102.56 16.01 101.77 16.26C101 16.5 100.2 16.62 99.39 16.62C98.13 16.62 97.05 16.37 96.13 15.9C95.21 15.41 94.51 14.74 94.02 13.85C93.53 12.98 93.28 11.93 93.28 10.72C93.28 9.50998 93.53 8.50998 94 7.62998C94.44 6.75998 95.11 6.02998 95.95 5.52998C96.78 5.03998 97.73 4.78998 98.83 4.78998C99.93 4.78998 100.79 5.02998 101.57 5.49998C102.35 5.96998 102.97 6.65998 103.35 7.48998H103.37ZM97.14 8.01998C96.89 8.37998 96.71 8.81998 96.6 9.37998H101.1C101.03 8.75998 100.87 8.27998 100.58 7.90998C100.2 7.41998 99.66 7.18998 98.94 7.18998C98.17 7.18998 97.57 7.45998 97.14 8.01998Z" fill="#18181B"/>
</g>
<defs>
<clipPath id="clip0_2293_4344">
<rect width="104" height="23.3" fill="white" transform="translate(0 0.349976)"/>
</clipPath>
</defs>
</svg>
