<svg width="168" height="239" viewBox="0 0 168 239" fill="none" xmlns="http://www.w3.org/2000/svg">
<g clip-path="url(#clip0_362_25)">
<path d="M155.882 22.1548H12.1182C5.42551 22.1548 0 27.2583 0 33.5539V227.534C0 233.83 5.42551 238.933 12.1182 238.933H155.882C162.574 238.933 168 233.83 168 227.534V33.5539C168 27.2583 162.574 22.1548 155.882 22.1548Z" fill="#2470FE"/>
<path d="M153.46 30.8916H15.1836V219.835H153.46V30.8916Z" fill="#F6F5F5"/>
<path d="M153.46 30.8931C153.502 104.571 156.031 193.429 147.233 213.103C108.48 216.656 63.105 217.795 15.1816 218.007L33.3981 31.4621L153.46 30.8931V30.8931Z" fill="#E4E4E4"/>
<path d="M141.04 207.149C80.6384 216.243 40.2694 216.722 7.52637 214.435C11.769 171.949 13.4697 101.367 15.1818 30.9009L87.9677 31.0527L153.842 35.1433C154.802 108.282 154.906 175.84 141.04 207.149Z" fill="white"/>
<path d="M46.6068 50.8603L119.365 50.5337L119.442 60.9589L46.6837 61.2855L46.6068 50.8603Z" fill="#0066FF"/>
<path d="M32.1358 76.1134L97.7642 75.8188L97.7993 80.5905L32.171 80.8851L32.1358 76.1134Z" fill="#0066FF"/>
<path d="M53.2316 86.4249L97.8398 86.2246L97.875 90.9962L53.2668 91.1965L53.2316 86.4249Z" fill="#D3DFFF"/>
<path d="M133.806 76.0087L118.27 75.939L118.162 90.5545L133.699 90.6242L133.806 76.0087Z" fill="white" stroke="#D3DFFF" stroke-width="6" stroke-miterlimit="10"/>
<path d="M120.871 79.7354C121.381 81.4537 122.394 88.6703 126.209 86.581C127.089 86.0991 127.819 84.8528 128.47 84.1311L131.984 80.2416L139.014 72.4641C139.614 71.8 136.883 70.2084 136.13 71.0424L129.882 77.9562C128.841 79.1083 127.8 80.2603 126.759 81.4124C126.036 82.2121 124.377 84.7787 123.288 85.0234C123.887 85.1939 124.483 85.3628 125.082 85.5332C125.508 85.8494 124.686 83.5659 124.667 83.5034C124.352 82.4413 124.038 81.3807 123.722 80.3186C123.462 79.4411 120.486 78.4337 120.873 79.7339L120.871 79.7354Z" fill="#0066FF"/>
<path d="M133.806 103.245L118.269 103.175L118.161 117.79L133.698 117.86L133.806 103.245Z" fill="white" stroke="#D3DFFF" stroke-width="6" stroke-miterlimit="10"/>
<path d="M120.871 106.971C121.38 108.69 122.394 115.906 126.209 113.817C127.089 113.335 127.819 112.089 128.47 111.367L131.984 107.477L139.014 99.6999C139.613 99.0358 136.883 97.4442 136.13 98.2782L129.882 105.192C128.841 106.344 127.799 107.496 126.758 108.648C126.035 109.448 124.376 112.015 123.288 112.259C123.886 112.43 124.483 112.599 125.081 112.769C125.507 113.085 124.686 110.802 124.667 110.739C124.351 109.677 124.037 108.617 123.722 107.554C123.462 106.677 120.486 105.67 120.872 106.97L120.871 106.971Z" fill="#0066FF"/>
<path d="M133.806 130.244L118.269 130.174L118.161 144.79L133.698 144.86L133.806 130.244Z" fill="white" stroke="#D3DFFF" stroke-width="6" stroke-miterlimit="10"/>
<path d="M120.871 133.971C121.38 135.689 122.394 142.906 126.209 140.816C127.089 140.334 127.819 139.088 128.47 138.366L131.984 134.477L139.014 126.699C139.613 126.035 136.883 124.444 136.13 125.278L129.882 132.192C128.841 133.344 127.799 134.496 126.758 135.648C126.035 136.447 124.376 139.014 123.288 139.259C123.886 139.429 124.483 139.598 125.081 139.769C125.507 140.085 124.686 137.801 124.667 137.739C124.351 136.677 124.037 135.616 123.722 134.554C123.462 133.676 120.486 132.669 120.872 133.969L120.871 133.971Z" fill="#0066FF"/>
<path d="M133.806 157.244L118.269 157.174L118.161 171.79L133.698 171.86L133.806 157.244Z" fill="white" stroke="#D3DFFF" stroke-width="6" stroke-miterlimit="10"/>
<path d="M120.871 160.971C121.38 162.689 122.394 169.906 126.209 167.816C127.089 167.334 127.819 166.088 128.47 165.366L131.984 161.477L139.014 153.699C139.613 153.035 136.883 151.444 136.13 152.278L129.882 159.192C128.841 160.344 127.799 161.496 126.758 162.648C126.035 163.447 124.376 166.014 123.288 166.259C123.886 166.429 124.483 166.598 125.081 166.769C125.507 167.085 124.686 164.801 124.667 164.739C124.351 163.677 124.037 162.616 123.722 161.554C123.462 160.676 120.486 159.669 120.872 160.969L120.871 160.971Z" fill="#0066FF"/>
<path d="M133.806 183.244L118.269 183.174L118.161 197.79L133.698 197.86L133.806 183.244Z" fill="white" stroke="#D3DFFF" stroke-width="6" stroke-miterlimit="10"/>
<path d="M120.871 186.971C121.38 188.689 122.394 195.906 126.209 193.816C127.089 193.334 127.819 192.088 128.47 191.366L131.984 187.477L139.014 179.699C139.613 179.035 136.883 177.444 136.13 178.278L129.882 185.192C128.841 186.344 127.799 187.496 126.758 188.648C126.035 189.447 124.376 192.014 123.288 192.259C123.886 192.429 124.483 192.598 125.081 192.769C125.507 193.085 124.686 190.801 124.667 190.739C124.351 189.677 124.037 188.616 123.722 187.554C123.462 186.676 120.486 185.669 120.872 186.969L120.871 186.971Z" fill="#0066FF"/>
<path d="M43.9162 102.632L97.96 102.39L97.9951 107.161L43.9514 107.404L43.9162 102.632Z" fill="#0066FF"/>
<path d="M32.4083 113.089L98.0366 112.794L98.0718 117.566L32.4435 117.86L32.4083 113.089Z" fill="#D3DFFF"/>
<path d="M32.5269 129.256L98.1553 128.961L98.1905 133.733L32.5621 134.028L32.5269 129.256Z" fill="#0066FF"/>
<path d="M68.8832 139.497L98.2334 139.366L98.2686 144.137L68.9184 144.269L68.8832 139.497Z" fill="#D3DFFF"/>
<path d="M32.7223 155.828L98.3506 155.534L98.3858 160.305L32.7574 160.6L32.7223 155.828Z" fill="#0066FF"/>
<path d="M46.5825 166.171L98.4268 165.938L98.4619 170.71L46.6177 170.942L46.5825 166.171Z" fill="#D3DFFF"/>
<path d="M72.5311 182.02L98.5454 181.903L98.5806 186.675L72.5663 186.792L72.5311 182.02Z" fill="#0066FF"/>
<path d="M32.9883 192.599L98.6168 192.306L98.6515 197.078C73.2613 197.189 40.9242 197.737 34.3465 196.668C33.3644 195.58 32.8481 194.256 32.9883 192.599Z" fill="#D3DFFF"/>
<path d="M115.143 23.4679V38.0511H52.856V23.4679C52.856 21.1427 53.8604 19.0384 55.4779 17.5107C55.6801 17.3205 55.8888 17.1426 56.1105 16.977C57.6563 15.7683 59.6455 15.0444 61.8109 15.0444C63.4349 15.0444 64.9937 14.6947 66.3895 14.0628C66.996 13.7867 67.57 13.4615 68.1113 13.0873C69.8919 11.848 71.255 10.0872 71.9333 7.98899C72.6247 5.84783 74.04 4.05637 75.8727 2.81094C77.6337 1.62073 79.7795 0.933594 82.0558 0.933594H85.943C88.2192 0.933594 90.365 1.62073 92.126 2.81094C93.9588 4.05637 95.3741 5.84783 96.0654 7.98899C96.7437 10.0872 98.1069 11.848 99.8874 13.0873C100.429 13.4615 101.003 13.7867 101.609 14.0628C103.005 14.6947 104.564 15.0444 106.188 15.0444C108.353 15.0444 110.342 15.7683 111.888 16.977C113.878 18.5169 115.143 20.8544 115.143 23.4679Z" fill="#0F61FC"/>
<path d="M120.197 30.8916V41.7324H47.8013V30.8916H52.856V38.0513H115.143V30.8916H120.197Z" fill="#E4E4E4"/>
<path d="M84.0008 14.6134C87.0518 14.6134 89.5251 12.4022 89.5251 9.67462C89.5251 6.94701 87.0518 4.73584 84.0008 4.73584C80.9499 4.73584 78.4766 6.94701 78.4766 9.67462C78.4766 12.4022 80.9499 14.6134 84.0008 14.6134Z" fill="white"/>
</g>
<defs>
<clipPath id="clip0_362_25">
<rect width="168" height="238" fill="white" transform="translate(0 0.933594)"/>
</clipPath>
</defs>
</svg>
