<svg width="749" height="800" viewBox="0 0 749 800" fill="none" xmlns="http://www.w3.org/2000/svg">
<g clip-path="url(#clip0_6397_14006)">
<path d="M783 966.075C783 966.075 732.666 964.445 683.067 966.82C631.548 969.343 580.772 976.158 588.025 993.967C589.652 997.973 589.946 1001.82 589.063 1005.68C578.704 1053.29 390.834 1088.88 349.379 1059.66C318.439 1037.86 233.167 1065.89 198.229 1081.02C131.694 634.818 129.834 178.676 188.753 146.942C247.672 115.348 410.964 155.396 410.964 155.396C410.964 155.396 493.717 177.349 527.47 404.12C561.369 630.743 782.991 966.075 782.991 966.075H783Z" fill="#91BDFF"/>
<path d="M588.025 993.958C589.652 997.964 589.946 1001.81 589.063 1005.67C538.14 850.084 418.225 405.594 461.748 526.769C503.497 643.636 634.516 880.343 683.067 966.812C631.548 969.335 580.772 976.15 588.025 993.958Z" fill="#78A9FF"/>
<path d="M182.6 264.919C134.187 324.241 125.307 338.633 80.01 341.746C95.2591 351.387 104.286 364.436 110.508 378.525H110.655C123.983 407.744 125.904 441.853 149.15 460.988L121.318 488.43L114.212 495.548C114.212 495.548 113.174 494.655 111.4 493.025C99.2574 481.753 51.0004 436.217 22.2764 394.392C5.40024 370.072 -4.81197 347.078 2.29331 332.694C13.8383 290.869 43.4537 204.998 118.799 179.334C168.242 125.501 216.655 154.416 233.825 176.811C256.768 206.767 233.678 270.84 182.6 264.91V264.919Z" fill="#0066FF"/>
<path d="M149.15 460.988L121.318 488.429L111.4 493.025C100.002 482.343 56.4786 441.411 27.4604 401.657C25.6862 399.282 23.9034 396.767 22.2764 394.392C36.634 394.244 82.8227 393.057 110.508 378.525H110.655C111.841 381.048 112.879 383.563 113.762 386.086C124.424 413.38 127.826 443.483 149.142 460.988H149.15Z" fill="#0066FF"/>
<path d="M113.762 386.086C83.1168 404.779 48.0318 404.181 27.4516 401.657C25.6774 399.282 23.8946 396.767 22.2676 394.392C36.6253 394.244 82.8139 393.057 110.499 378.525H110.647C111.832 381.048 112.871 383.563 113.753 386.086H113.762Z" fill="#0066FF"/>
<path d="M128.285 435.671C128.285 435.671 159.994 438.619 169.592 446.986C177.615 453.974 172.716 462.696 172.716 462.696C189.783 472.311 172.716 509.602 142.919 518.801C113.122 528.009 93.5977 471.774 93.5977 471.774C93.5977 471.774 98.1412 437.674 128.285 435.671Z" fill="#C9DCFD"/>
<path d="M368.194 486.886C385.598 533.81 459.671 748.78 438.528 903.545C467.616 1006.47 458.485 1093.65 484.708 1243.96L408.359 1247.99C377.324 1064.59 343.174 1099.59 333.291 917.963C270.382 775.554 237.754 640.645 221.008 501.747C204.729 397.036 333.048 342.049 368.194 486.886Z" fill="#0166FF"/>
<path d="M277.893 506.776C272.502 711.143 236.136 884.73 236.136 884.73C251.532 1024.16 216.525 1050.15 200.705 1249.62L131.694 1248.7C131.521 1167.74 126.83 1067.47 121.923 905.14C78.4782 735.48 99.4046 610.524 115.606 509.108C132.889 393.906 288.928 355.783 277.893 506.776Z" fill="#0166FF"/>
<path d="M120.755 497.117C120.755 532.457 371.266 522.226 371.266 486.886C370.427 428.579 378.458 380.597 389.406 340.931C464.509 267.216 460.035 209.992 441.003 178.953C408.186 125.423 242.393 128.457 182.704 151.468C158.999 160.607 127.168 197.828 116.991 257.167C111.755 287.678 134.178 323.2 137.727 347.867C145.922 404.943 122.426 488.924 120.764 497.117H120.755Z" fill="#0166FF"/>
<path d="M276.915 175.745C289.274 165.913 338.578 150.731 351.698 139.98L348.739 54.2312L300.256 49.5059C286.193 50.6763 272.138 54.0491 260.048 58.8351L249.135 115.296L246.729 127.538C241.242 139.59 252.121 154.121 276.915 175.754V175.745Z" fill="#C9DCFD"/>
<path d="M332.425 73.644C324.818 85.3662 292.978 115.391 249.135 115.287L258.577 66.439L332.425 73.644Z" fill="#A6C8FF"/>
<path d="M225.127 -39.3122C221.328 -22.4225 213.496 14.6689 214.777 31.7493C216.724 57.7514 240.974 86.5974 262.116 90.3777C286.591 92.8747 319.582 85.5743 337.496 70.1586C347.466 58.4537 366.766 30.6829 375.645 6.3801C394.165 -44.315 358.405 -88.7761 313.048 -99.0417C267.681 -109.307 236.993 -91.9754 225.136 -39.3036L225.127 -39.3122Z" fill="#C9DCFD"/>
<path d="M360.439 39.8733C369.899 23.1917 357.324 16.4376 343.546 29.3823C345.9 16.793 360.223 -20.0816 347.536 -32.3154C333.204 -46.5086 270.139 -40.3267 236.266 -75.7187C236.266 -75.7187 261.519 -131.182 344.394 -98.4262C438 -48.7022 360.431 39.8733 360.431 39.8733H360.439Z" fill="#C9DCFD"/>
<path d="M373.215 44.22C380.426 35.524 380.803 23.9226 374.057 18.3075C367.311 12.6924 355.996 15.1899 348.785 23.8859C341.573 32.5819 341.196 44.1833 347.942 49.7984C354.689 55.4135 366.003 52.9159 373.215 44.22Z" fill="#C9DCFD"/>
<path d="M249.498 110.345C257.781 125.171 343.009 117.464 350.703 105.004L355.437 152.439L276.128 197.507L234.699 151.85L249.498 110.345Z" fill="#C9DCFD"/>
<path d="M117.631 509.108C182.98 537.347 333.957 531.131 379.081 509.498L390.617 547.786C292.45 570.97 198.532 571.621 109.375 547.058L117.631 509.099V509.108Z" fill="#91BDFF"/>
<path d="M554.93 419.319C511.701 465.739 420.509 518.689 420.509 518.689L392.53 478.346C421.548 462.323 437.533 420.801 465.218 392.32C474.695 382.531 485.504 374.372 498.529 369.031C454.409 357.612 432.202 346.636 395.49 279.45C344.117 275.887 333.013 208.562 360.993 183.487C382.015 164.656 435.014 144.931 473.803 206.923C543.091 245.931 572.697 331.055 576.393 374.372C579.794 386.684 570.473 402.55 554.93 419.31V419.319Z" fill="#0066FF"/>
<path d="M554.93 419.319C552.264 422.137 549.452 425.102 546.492 427.92C500.892 472.121 420.51 518.689 420.51 518.689L392.53 478.346C417.55 464.552 432.799 431.925 454.262 404.926C457.663 400.478 461.367 396.325 465.218 392.32C476.028 398.692 508.3 415.747 554.93 419.31V419.319Z" fill="#0066FF"/>
<path d="M554.93 419.319C552.264 422.137 549.452 425.102 546.492 427.92C507.409 425.995 470.696 411.906 454.262 404.926C457.663 400.478 461.367 396.325 465.218 392.32C476.028 398.692 508.3 415.747 554.93 419.31V419.319Z" fill="#0066FF"/>
<path d="M308.673 253.987L308.699 253.76L308.673 253.987Z" fill="#00288C"/>
<path d="M308.673 253.987L308.699 253.76L308.673 253.987Z" fill="#00288C"/>
<path d="M230.419 242.741C230.419 242.741 230.446 242.541 230.446 242.515L230.419 242.741Z" fill="#00288C"/>
<path d="M230.419 242.741C230.419 242.741 230.446 242.541 230.446 242.515L230.419 242.741Z" fill="#00288C"/>
<path d="M272.281 224.515C280.07 236.792 293.528 247.899 308.621 254.029C308.482 255.191 307.729 261.633 304.242 291.328C299.594 330.943 263.549 345.275 257.958 347.468C253.207 344.104 221.428 319.715 226.075 280.092C229.563 250.396 230.316 243.954 230.454 242.792C246.465 241.136 261.913 234.182 272.272 224.515H272.281Z" fill="#00288C"/>
<path d="M268.17 245.558C268.17 245.558 268.127 245.593 268.101 245.61C260.58 251.566 250.654 255.694 240.069 257.219L237.101 282.554C235.742 294.146 238.676 305.209 245.816 315.44C250.307 321.874 255.284 326.252 258.044 328.428C258.166 328.524 258.295 328.628 258.408 328.715C261.472 327.475 267.564 324.614 273.648 319.437C282.917 311.565 288.3 301.698 289.659 290.106L292.627 264.771C282.727 260.28 274.055 253.465 268.153 245.549L268.17 245.558Z" fill="#91BDFF"/>
<path d="M239.122 139.182C243.371 150.124 257.547 159.774 273.54 169.164C306.02 163.841 330.937 153.766 355.316 139.477C379.297 139.364 396.546 148.607 414.296 155.43L272.692 178.519L189.515 147.064C200.575 143.032 216.413 140.301 239.113 139.182H239.122Z" fill="#91BDFF"/>
</g>
<defs>
<clipPath id="clip0_6397_14006">
<rect width="783" height="1488" fill="white" transform="translate(0 -146)"/>
</clipPath>
</defs>
</svg>
