<svg width="149" height="24" viewBox="0 0 149 24" fill="none" xmlns="http://www.w3.org/2000/svg">
<g clip-path="url(#clip0_736_1086)">
<path d="M12.5 9.3H8.9V17.5C8.9 18.9 9.7 19.2 11 19.2C11.5 19.2 12 19.1 12.5 19.1V23.4C11.4 23.4 10.3 23.6 9.3 23.6C4.3 23.6 3 22.1 3 17.2V9.3H0V5.4H3V0H8.9V5.4H12.5V9.3ZM17.7 15.9C17.8 18.4 19.2 20 21.7 20C23.1 20 24.5 19.3 25.1 18H30.6C29.6 22.2 25.7 24 21.7 24C15.8 24 11.8 20.5 11.8 14.4C11.8 8.9 16.2 4.9 21.5 4.9C28 4.9 31.2 9.8 30.9 15.9H17.7ZM25 12.6C24.9 10.6 23.5 8.9 21.5 8.9C19.4 8.9 18 10.4 17.7 12.6H25ZM43.9 12C43.9 10.5 42.5 9.4 41 9.4C37.7 9.4 37.2 12.2 37.2 14.7C37.2 17 38.2 19.4 40.7 19.4C42.8 19.4 43.8 18.2 44.1 16.3H49.8C49.3 21.2 45.6 24 40.8 24C35.4 24 31.3 20.3 31.3 14.8C31.3 9.3 34.9 5 40.8 5C45.3 5 49.3 7.4 49.7 12.1H43.9V12ZM50 0H55.9V7.9H56C56.9 6.1 59.3 4.9 61.5 4.9C67.5 4.9 68 9.3 68 11.9V23.5H62.1V14.8C62.1 12.3 62.4 9.8 59.1 9.8C56.9 9.8 55.9 11.7 55.9 13.7V23.5H50V0ZM68.5 5.4H74.2V8.6H74.3C75.2 6.3 77.2 5.1 79.7 5.1C80.2 5.1 80.6 5.1 81.1 5.2V10.6C80.3 10.4 79.6 10.3 78.8 10.3C75.9 10.3 74.4 12.3 74.4 14.6V23.5H68.5V5.4ZM81.1 11C81.2 8.6 82.3 7.1 83.9 6.2C85.5 5.3 87.6 4.9 89.6 4.9C93.9 4.9 98 5.8 98 10.9V18.8C98 20.3 98 22 98.7 23.4H92.8C92.6 22.8 92.5 22.3 92.5 21.7C90.9 23.4 88.7 24 86.5 24C83.1 24 80.3 22.3 80.3 18.5C80.3 12.6 86.7 13.1 90.8 12.2C91.8 12 92.4 11.6 92.4 10.5C92.4 9.1 90.8 8.6 89.5 8.6C87.9 8.6 86.8 9.3 86.5 10.9H81.1V11ZM88.7 20.4C91.5 20.4 92.5 18.8 92.3 15.1C91.5 15.6 89.9 15.7 88.7 16.1C87.4 16.4 86.3 17 86.3 18.4C86.3 19.8 87.4 20.4 88.7 20.4ZM117.1 23.5H111.5V21.4H111.4C110.33 23.06 108.47 24.04 106.5 24C100.8 24 98.4 19.1 98.4 14.1C98.4 9.4 100.9 5 106 5C108.2 5 109.9 5.8 111.1 7.5H111.2V0H117.1V23.5ZM104.3 14.3C104.3 16.8 105.2 19.5 107.9 19.5C110.8 19.5 111.4 16.8 111.4 14.5C111.4 11.9 110.5 9.5 107.9 9.5C105.2 9.4 104.3 12 104.3 14.3ZM118 11C118.1 8.6 119.2 7.1 120.8 6.2C122.4 5.3 124.5 4.9 126.5 4.9C130.8 4.9 134.9 5.8 134.9 10.9V18.8C134.9 20.3 134.9 22 135.6 23.4H129.7C129.5 22.8 129.4 22.3 129.4 21.7C127.8 23.4 125.5 24 123.4 24C120 24 117.2 22.3 117.2 18.5C117.2 12.6 123.6 13.1 127.7 12.2C128.7 12 129.3 11.6 129.3 10.5C129.3 9.1 127.7 8.6 126.4 8.6C124.8 8.6 123.7 9.3 123.4 10.9H118V11ZM125.6 20.4C128.4 20.4 129.4 18.8 129.2 15.1C128.4 15.6 126.8 15.7 125.6 16.1C124.3 16.4 123.2 17 123.2 18.4C123.1 19.8 124.3 20.4 125.6 20.4ZM135.8 5.4H141.5V8.6H141.6C142.5 6.3 144.5 5.1 147 5.1C147.5 5.1 148.5 5.1 149 5.2V10.6C148.2 10.4 147 10.3 146.2 10.3C143.3 10.3 141.8 12.3 141.8 14.6V23.5H135.9V5.4H135.8Z" fill="#18181B"/>
<path d="M143.1 17.6H149V23.5H143.1V17.6Z" fill="#18181B"/>
</g>
<defs>
<clipPath id="clip0_736_1086">
<rect width="149" height="24" fill="white"/>
</clipPath>
</defs>
</svg>
