<svg width="70" height="132" viewBox="0 0 70 132" fill="none" xmlns="http://www.w3.org/2000/svg">
<path d="M0.00298714 85.7125C0.00299135 37.5565 44.3711 8.21754 51.2609 4.55502C56.2502 1.82977 60.8732 -7.97891e-07 64.0366 -5.21337e-07C66.7949 -2.80199e-07 68.6209 1.34622 68.6209 3.65955C68.6209 5.97288 66.3094 8.69812 64.0366 10.5279C57.6681 15.1187 39.7868 38.9744 39.7868 61.445C39.7868 67.382 42.9919 72.8683 46.6409 74.7339C50.7753 77.0114 70 81.1545 70 105.419C69.997 119.642 58.5617 132 42.5421 132C21.4945 132.003 1.39974e-06 115.989 4.04632e-06 85.7155L0.00298714 85.7125Z" fill="#E5E5EB"/>
</svg>
