<svg width="40" height="40" viewBox="0 0 40 40" fill="none" xmlns="http://www.w3.org/2000/svg">
<rect x="8.87988" y="8.87988" width="22.2" height="22.2" rx="4.76096" fill="#0051CC"/>
<path d="M13.2351 21.98V21.1808H14.4473C14.7936 21.1808 15.0866 21.112 15.3264 20.9743C15.5706 20.8322 15.7548 20.6391 15.8792 20.3949C16.0079 20.1507 16.0723 19.871 16.0723 19.5557C16.0723 19.2449 16.0101 18.9719 15.8858 18.7366C15.7615 18.5012 15.5772 18.317 15.333 18.1838C15.0933 18.0506 14.798 17.984 14.4473 17.984H13.2551V17.1848H14.4473C14.9845 17.1848 15.4529 17.2825 15.8525 17.4778C16.2521 17.6687 16.5607 17.944 16.7783 18.3037C17.0003 18.6589 17.1113 19.0807 17.1113 19.5691C17.1113 20.0575 17.0003 20.4837 16.7783 20.8478C16.5563 21.2074 16.2455 21.4871 15.8459 21.6869C15.4507 21.8823 14.9867 21.98 14.4539 21.98H13.2351ZM12.6091 21.98V17.1848H13.6347V21.98H12.6091ZM20 22.0466C19.6448 22.0466 19.3162 21.9866 19.0143 21.8668C18.7168 21.7469 18.4571 21.5782 18.2351 21.3606C18.0175 21.1386 17.8466 20.8766 17.7223 20.5747C17.6024 20.2684 17.5424 19.9309 17.5424 19.5624C17.5424 19.074 17.6468 18.6478 17.8555 18.2837C18.0641 17.9152 18.3527 17.6288 18.7213 17.4245C19.0942 17.2203 19.5182 17.1182 19.9933 17.1182C20.4773 17.1182 20.9035 17.2203 21.272 17.4245C21.6406 17.6288 21.9292 17.9152 22.1378 18.2837C22.351 18.6522 22.4575 19.0807 22.4575 19.5691C22.4575 19.9331 22.3954 20.2684 22.271 20.5747C22.1512 20.8766 21.9802 21.1386 21.7582 21.3606C21.5407 21.5782 21.2809 21.7469 20.979 21.8668C20.6815 21.9866 20.3552 22.0466 20 22.0466ZM19.9933 21.2341C20.273 21.2341 20.5195 21.163 20.7326 21.0209C20.9457 20.8789 21.1122 20.6835 21.2321 20.4349C21.3564 20.1818 21.4186 19.8887 21.4186 19.5557C21.4186 19.2272 21.3586 18.9408 21.2387 18.6966C21.1189 18.4524 20.9524 18.2637 20.7392 18.1305C20.5261 17.9973 20.2775 17.9307 19.9933 17.9307C19.7136 17.9307 19.4672 17.9973 19.2541 18.1305C19.0409 18.2637 18.8744 18.4524 18.7546 18.6966C18.6391 18.9364 18.5814 19.2227 18.5814 19.5557C18.5814 19.8932 18.6413 20.1884 18.7612 20.4415C18.8811 20.6902 19.0476 20.8855 19.2607 21.0276C19.4738 21.1652 19.718 21.2341 19.9933 21.2341ZM25.2929 22.0466C24.9466 22.0466 24.6269 21.9866 24.3339 21.8668C24.0408 21.7424 23.7855 21.5693 23.568 21.3473C23.3549 21.1253 23.1884 20.8633 23.0685 20.5614C22.9486 20.255 22.8887 19.922 22.8887 19.5624C22.8887 19.2028 22.9464 18.8742 23.0618 18.5767C23.1817 18.2792 23.3482 18.0217 23.5613 17.8042C23.7789 17.5822 24.0342 17.4134 24.3272 17.298C24.6203 17.1781 24.9422 17.1182 25.2929 17.1182C25.6881 17.1182 26.0433 17.1959 26.3585 17.3513C26.6782 17.5022 26.9379 17.7176 27.1377 17.9973C27.342 18.2726 27.4663 18.5967 27.5107 18.9697H26.5117C26.454 18.6278 26.3141 18.3703 26.0921 18.1971C25.8701 18.0195 25.6059 17.9307 25.2996 17.9307C25.0287 17.9307 24.789 17.9951 24.5803 18.1238C24.3761 18.2526 24.2162 18.4391 24.1008 18.6833C23.9853 18.923 23.9276 19.2139 23.9276 19.5557C23.9276 19.9021 23.9853 20.2018 24.1008 20.4548C24.2207 20.7035 24.3849 20.8966 24.5936 21.0343C24.8023 21.1675 25.0421 21.2341 25.3129 21.2341C25.6015 21.2341 25.8568 21.1475 26.0788 20.9743C26.3008 20.8012 26.4451 20.5436 26.5117 20.2018H27.524C27.4663 20.5747 27.3353 20.9011 27.1311 21.1808C26.9268 21.4561 26.6671 21.6692 26.3519 21.8201C26.0366 21.9711 25.6836 22.0466 25.2929 22.0466Z" fill="white"/>
<path d="M37.4304 3.02022L32.4722 7.97793H36.1443C36.2363 7.97793 36.3246 8.01447 36.3896 8.07952C36.4547 8.14458 36.4912 8.23281 36.4912 8.3248C36.4912 8.4168 36.4547 8.50503 36.3896 8.57008C36.3246 8.63513 36.2363 8.67168 36.1443 8.67168H31.635C31.543 8.67168 31.4547 8.63513 31.3897 8.57008C31.3246 8.50503 31.2881 8.4168 31.2881 8.3248V3.81543C31.2881 3.72343 31.3246 3.6352 31.3897 3.57015C31.4547 3.5051 31.543 3.46855 31.635 3.46855C31.727 3.46855 31.8152 3.5051 31.8802 3.57015C31.9453 3.6352 31.9818 3.72343 31.9818 3.81543V7.48753L36.9395 2.52939C36.9718 2.49716 37.01 2.4716 37.0521 2.45415C37.0943 2.43671 37.1394 2.42773 37.185 2.42773C37.2305 2.42773 37.2757 2.43671 37.3178 2.45415C37.3599 2.4716 37.3981 2.49716 37.4304 2.52939C37.4626 2.56162 37.4882 2.59988 37.5056 2.64199C37.5231 2.68409 37.532 2.72922 37.532 2.7748C37.532 2.82038 37.5231 2.86551 37.5056 2.90762C37.4882 2.94973 37.4626 2.98799 37.4304 3.02022Z" fill="#0051CC"/>
<path d="M36.9397 37.4304L31.982 32.4722V36.1443C31.982 36.2363 31.9455 36.3246 31.8804 36.3896C31.8154 36.4547 31.7272 36.4912 31.6352 36.4912C31.5432 36.4912 31.4549 36.4547 31.3899 36.3896C31.3248 36.3246 31.2883 36.2363 31.2883 36.1443V31.635C31.2883 31.543 31.3248 31.4547 31.3899 31.3897C31.4549 31.3246 31.5432 31.2881 31.6352 31.2881H36.1445C36.2365 31.2881 36.3248 31.3246 36.3898 31.3897C36.4549 31.4547 36.4914 31.543 36.4914 31.635C36.4914 31.727 36.4549 31.8152 36.3898 31.8802C36.3248 31.9453 36.2365 31.9818 36.1445 31.9818H32.4724L37.4306 36.9395C37.4628 36.9718 37.4884 37.01 37.5058 37.0521C37.5232 37.0943 37.5322 37.1394 37.5322 37.185C37.5322 37.2305 37.5232 37.2757 37.5058 37.3178C37.4884 37.3599 37.4628 37.3981 37.4306 37.4304C37.3983 37.4626 37.3601 37.4882 37.318 37.5056C37.2759 37.5231 37.2307 37.532 37.1852 37.532C37.1396 37.532 37.0944 37.5231 37.0523 37.5056C37.0102 37.4882 36.972 37.4626 36.9397 37.4304Z" fill="#0051CC"/>
<path d="M2.52959 36.9397L7.48773 31.982H3.81562C3.72363 31.982 3.6354 31.9455 3.57035 31.8804C3.5053 31.8154 3.46875 31.7272 3.46875 31.6352C3.46875 31.5432 3.5053 31.4549 3.57035 31.3899C3.6354 31.3248 3.72363 31.2883 3.81562 31.2883H8.325C8.417 31.2883 8.50523 31.3248 8.57028 31.3899C8.63533 31.4549 8.67188 31.5432 8.67188 31.6352V36.1445C8.67188 36.2365 8.63533 36.3248 8.57028 36.3898C8.50523 36.4549 8.417 36.4914 8.325 36.4914C8.233 36.4914 8.14477 36.4549 8.07972 36.3898C8.01467 36.3248 7.97812 36.2365 7.97812 36.1445V32.4724L3.02041 37.4306C2.98819 37.4628 2.94993 37.4884 2.90782 37.5058C2.86571 37.5232 2.82058 37.5322 2.775 37.5322C2.72942 37.5322 2.68429 37.5232 2.64218 37.5058C2.60007 37.4884 2.56181 37.4628 2.52959 37.4306C2.49736 37.3983 2.47179 37.3601 2.45435 37.318C2.43691 37.2759 2.42793 37.2307 2.42793 37.1852C2.42793 37.1396 2.43691 37.0944 2.45435 37.0523C2.47179 37.0102 2.49736 36.972 2.52959 36.9397Z" fill="#0051CC"/>
<path d="M3.02022 2.52959L7.97793 7.48773V3.81562C7.97793 3.72363 8.01447 3.6354 8.07952 3.57035C8.14458 3.5053 8.23281 3.46875 8.3248 3.46875C8.4168 3.46875 8.50503 3.5053 8.57008 3.57035C8.63513 3.6354 8.67168 3.72363 8.67168 3.81562V8.325C8.67168 8.417 8.63513 8.50523 8.57008 8.57028C8.50503 8.63533 8.4168 8.67188 8.3248 8.67188H3.81543C3.72343 8.67188 3.6352 8.63533 3.57015 8.57028C3.5051 8.50523 3.46855 8.417 3.46855 8.325C3.46855 8.233 3.5051 8.14477 3.57015 8.07972C3.6352 8.01467 3.72343 7.97812 3.81543 7.97812H7.48753L2.52939 3.02041C2.49716 2.98819 2.4716 2.94993 2.45415 2.90782C2.43671 2.86571 2.42773 2.82058 2.42773 2.775C2.42773 2.72942 2.43671 2.68429 2.45415 2.64218C2.4716 2.60007 2.49716 2.56181 2.52939 2.52959C2.56162 2.49736 2.59988 2.47179 2.64199 2.45435C2.68409 2.43691 2.72922 2.42793 2.7748 2.42793C2.82038 2.42793 2.86551 2.43691 2.90762 2.45435C2.94973 2.47179 2.98799 2.49736 3.02022 2.52959Z" fill="#0051CC"/>
</svg>
