<svg width="40" height="40" viewBox="0 0 40 40" fill="none" xmlns="http://www.w3.org/2000/svg">
<rect x="8.87988" y="8.87988" width="22.2" height="22.2" rx="4.76096" fill="#E5B700"/>
<path d="M14.7327 22.0466C14.564 22.0466 14.402 22.0333 14.2466 22.0066C14.0912 21.9844 13.9779 21.9556 13.9069 21.92V21.1342C13.9868 21.1652 14.0823 21.1919 14.1933 21.2141C14.3043 21.2363 14.4175 21.2474 14.5329 21.2474C14.7816 21.2474 14.9614 21.2074 15.0724 21.1275C15.1878 21.0431 15.2456 20.8922 15.2456 20.6746V17.1848H16.2712V20.7212C16.2712 21.1652 16.1402 21.4982 15.8783 21.7202C15.6163 21.9378 15.2345 22.0466 14.7327 22.0466ZM16.9244 21.98V17.1848H19.2022C19.5574 17.1848 19.8615 17.2469 20.1146 17.3713C20.3721 17.4956 20.5697 17.6687 20.7073 17.8907C20.8494 18.1127 20.9204 18.3725 20.9204 18.67C20.9204 18.9674 20.8494 19.2294 20.7073 19.4558C20.5652 19.6823 20.3654 19.8599 20.1079 19.9886C19.8548 20.113 19.5529 20.1751 19.2022 20.1751H17.737V19.3892H19.1489C19.3842 19.3892 19.5662 19.3249 19.695 19.1961C19.8282 19.0629 19.8948 18.8897 19.8948 18.6766C19.8948 18.4635 19.8282 18.2926 19.695 18.1638C19.5662 18.035 19.3842 17.9707 19.1489 17.9707H17.9501V21.98H16.9244ZM23.7441 22.0466C23.2246 22.0466 22.7784 21.9445 22.4054 21.7402C22.0325 21.536 21.7439 21.2496 21.5396 20.8811C21.3398 20.5126 21.2399 20.0819 21.2399 19.589C21.2399 19.1006 21.342 18.6722 21.5463 18.3037C21.7505 17.9307 22.0325 17.6399 22.3921 17.4312C22.7562 17.2225 23.178 17.1182 23.6575 17.1182C24.0527 17.1182 24.4056 17.1892 24.7164 17.3313C25.0317 17.4734 25.2848 17.6687 25.4757 17.9174C25.671 18.1616 25.7865 18.4457 25.822 18.7699H24.7964C24.752 18.5079 24.6276 18.3037 24.4234 18.1571C24.2236 18.0062 23.9727 17.9307 23.6708 17.9307C23.3911 17.9307 23.1469 17.9973 22.9382 18.1305C22.7295 18.2593 22.5675 18.4457 22.452 18.6899C22.3366 18.9341 22.2789 19.2272 22.2789 19.5691C22.2789 19.9243 22.3366 20.2284 22.452 20.4815C22.5675 20.7301 22.7362 20.921 22.9582 21.0542C23.1846 21.183 23.4621 21.2474 23.7907 21.2474C24.0571 21.2474 24.2835 21.2141 24.47 21.1475C24.6565 21.0809 24.7986 20.9876 24.8963 20.8678L25.8686 21.254C25.6111 21.5116 25.3114 21.7091 24.9695 21.8468C24.6321 21.98 24.2236 22.0466 23.7441 22.0466ZM24.843 21.254V19.9354L25.0494 20.1418H23.784V19.3559H25.8686V21.254H24.843Z" fill="white"/>
<path d="M37.4304 3.02022L32.4722 7.97793H36.1443C36.2363 7.97793 36.3246 8.01447 36.3896 8.07952C36.4547 8.14458 36.4912 8.23281 36.4912 8.3248C36.4912 8.4168 36.4547 8.50503 36.3896 8.57008C36.3246 8.63513 36.2363 8.67168 36.1443 8.67168H31.635C31.543 8.67168 31.4547 8.63513 31.3897 8.57008C31.3246 8.50503 31.2881 8.4168 31.2881 8.3248V3.81543C31.2881 3.72343 31.3246 3.6352 31.3897 3.57015C31.4547 3.5051 31.543 3.46855 31.635 3.46855C31.727 3.46855 31.8152 3.5051 31.8802 3.57015C31.9453 3.6352 31.9818 3.72343 31.9818 3.81543V7.48753L36.9395 2.52939C36.9718 2.49716 37.01 2.4716 37.0521 2.45415C37.0943 2.43671 37.1394 2.42773 37.185 2.42773C37.2305 2.42773 37.2757 2.43671 37.3178 2.45415C37.3599 2.4716 37.3981 2.49716 37.4304 2.52939C37.4626 2.56162 37.4882 2.59988 37.5056 2.64199C37.5231 2.68409 37.532 2.72922 37.532 2.7748C37.532 2.82038 37.5231 2.86551 37.5056 2.90762C37.4882 2.94973 37.4626 2.98799 37.4304 3.02022Z" fill="#E5B700"/>
<path d="M36.9393 37.4304L31.9815 32.4722V36.1443C31.9815 36.2363 31.945 36.3246 31.8799 36.3896C31.8149 36.4547 31.7267 36.4912 31.6347 36.4912C31.5427 36.4912 31.4544 36.4547 31.3894 36.3896C31.3243 36.3246 31.2878 36.2363 31.2878 36.1443V31.635C31.2878 31.543 31.3243 31.4547 31.3894 31.3897C31.4544 31.3246 31.5427 31.2881 31.6347 31.2881H36.144C36.236 31.2881 36.3243 31.3246 36.3893 31.3897C36.4544 31.4547 36.4909 31.543 36.4909 31.635C36.4909 31.727 36.4544 31.8152 36.3893 31.8802C36.3243 31.9453 36.236 31.9818 36.144 31.9818H32.4719L37.4301 36.9395C37.4623 36.9718 37.4879 37.01 37.5053 37.0521C37.5228 37.0943 37.5317 37.1394 37.5317 37.185C37.5317 37.2305 37.5228 37.2757 37.5053 37.3178C37.4879 37.3599 37.4623 37.3981 37.4301 37.4304C37.3979 37.4626 37.3596 37.4882 37.3175 37.5056C37.2754 37.5231 37.2302 37.532 37.1847 37.532C37.1391 37.532 37.094 37.5231 37.0519 37.5056C37.0097 37.4882 36.9715 37.4626 36.9393 37.4304Z" fill="#E5B700"/>
<path d="M2.52959 36.9397L7.48773 31.982H3.81562C3.72363 31.982 3.6354 31.9455 3.57035 31.8804C3.5053 31.8154 3.46875 31.7272 3.46875 31.6352C3.46875 31.5432 3.5053 31.4549 3.57035 31.3899C3.6354 31.3248 3.72363 31.2883 3.81562 31.2883H8.325C8.417 31.2883 8.50523 31.3248 8.57028 31.3899C8.63533 31.4549 8.67188 31.5432 8.67188 31.6352V36.1445C8.67188 36.2365 8.63533 36.3248 8.57028 36.3898C8.50523 36.4549 8.417 36.4914 8.325 36.4914C8.233 36.4914 8.14477 36.4549 8.07972 36.3898C8.01467 36.3248 7.97812 36.2365 7.97812 36.1445V32.4724L3.02041 37.4306C2.98819 37.4628 2.94993 37.4884 2.90782 37.5058C2.86571 37.5232 2.82058 37.5322 2.775 37.5322C2.72942 37.5322 2.68429 37.5232 2.64218 37.5058C2.60007 37.4884 2.56181 37.4628 2.52959 37.4306C2.49736 37.3983 2.47179 37.3601 2.45435 37.318C2.43691 37.2759 2.42793 37.2307 2.42793 37.1852C2.42793 37.1396 2.43691 37.0944 2.45435 37.0523C2.47179 37.0102 2.49736 36.972 2.52959 36.9397Z" fill="#E5B700"/>
<path d="M3.02022 2.52959L7.97793 7.48773V3.81562C7.97793 3.72363 8.01447 3.6354 8.07952 3.57035C8.14458 3.5053 8.23281 3.46875 8.3248 3.46875C8.4168 3.46875 8.50503 3.5053 8.57008 3.57035C8.63513 3.6354 8.67168 3.72363 8.67168 3.81562V8.325C8.67168 8.417 8.63513 8.50523 8.57008 8.57028C8.50503 8.63533 8.4168 8.67188 8.3248 8.67188H3.81543C3.72343 8.67188 3.6352 8.63533 3.57015 8.57028C3.5051 8.50523 3.46855 8.417 3.46855 8.325C3.46855 8.233 3.5051 8.14477 3.57015 8.07972C3.6352 8.01467 3.72343 7.97812 3.81543 7.97812H7.48753L2.52939 3.02041C2.49716 2.98819 2.4716 2.94993 2.45415 2.90782C2.43671 2.86571 2.42773 2.82058 2.42773 2.775C2.42773 2.72942 2.43671 2.68429 2.45415 2.64218C2.4716 2.60007 2.49716 2.56181 2.52939 2.52959C2.56162 2.49736 2.59988 2.47179 2.64199 2.45435C2.68409 2.43691 2.72922 2.42793 2.7748 2.42793C2.82038 2.42793 2.86551 2.43691 2.90762 2.45435C2.94973 2.47179 2.98799 2.49736 3.02022 2.52959Z" fill="#E5B700"/>
</svg>
