<svg width="40" height="40" viewBox="0 0 40 40" fill="none" xmlns="http://www.w3.org/2000/svg">
<rect x="8.88037" y="8.87988" width="22.2" height="22.2" rx="4.76096" fill="#4846BE"/>
<path d="M12.3885 21.98V17.1848H13.9869L15.3189 21.8068H14.7394L16.0714 17.1848H17.6765V21.98H16.6642V17.4712H16.8373L15.5386 21.98H14.4797L13.1943 17.5111H13.3608V21.98H12.3885ZM20.6639 22.0466C20.3087 22.0466 19.9801 21.9866 19.6782 21.8668C19.3807 21.7469 19.121 21.5782 18.899 21.3606C18.6814 21.1386 18.5105 20.8766 18.3862 20.5747C18.2663 20.2684 18.2063 19.9309 18.2063 19.5624C18.2063 19.074 18.3107 18.6478 18.5194 18.2837C18.728 17.9152 19.0166 17.6288 19.3852 17.4245C19.7581 17.2203 20.1821 17.1182 20.6572 17.1182C21.1412 17.1182 21.5674 17.2203 21.9359 17.4245C22.3045 17.6288 22.5931 17.9152 22.8017 18.2837C23.0149 18.6522 23.1214 19.0807 23.1214 19.5691C23.1214 19.9331 23.0593 20.2684 22.9349 20.5747C22.8151 20.8766 22.6441 21.1386 22.4221 21.3606C22.2046 21.5782 21.9448 21.7469 21.6429 21.8668C21.3454 21.9866 21.0191 22.0466 20.6639 22.0466ZM20.6572 21.2341C20.9369 21.2341 21.1834 21.163 21.3965 21.0209C21.6096 20.8789 21.7761 20.6835 21.896 20.4349C22.0203 20.1818 22.0825 19.8887 22.0825 19.5557C22.0825 19.2272 22.0225 18.9408 21.9026 18.6966C21.7828 18.4524 21.6163 18.2637 21.4031 18.1305C21.19 17.9973 20.9414 17.9307 20.6572 17.9307C20.3775 17.9307 20.1311 17.9973 19.918 18.1305C19.7048 18.2637 19.5383 18.4524 19.4185 18.6966C19.303 18.9364 19.2453 19.2227 19.2453 19.5557C19.2453 19.8932 19.3052 20.1884 19.4251 20.4415C19.545 20.6902 19.7115 20.8855 19.9246 21.0276C20.1377 21.1652 20.3819 21.2341 20.6572 21.2341ZM24.8797 21.98L23.1614 17.1848H24.227L25.539 21.1808H25.4125L26.7311 17.1848H27.7435L26.0252 21.98H24.8797Z" fill="white"/>
<path d="M37.4304 3.02022L32.4722 7.97793H36.1443C36.2363 7.97793 36.3246 8.01447 36.3896 8.07952C36.4547 8.14458 36.4912 8.23281 36.4912 8.3248C36.4912 8.4168 36.4547 8.50503 36.3896 8.57008C36.3246 8.63513 36.2363 8.67168 36.1443 8.67168H31.635C31.543 8.67168 31.4547 8.63513 31.3897 8.57008C31.3246 8.50503 31.2881 8.4168 31.2881 8.3248V3.81543C31.2881 3.72343 31.3246 3.6352 31.3897 3.57015C31.4547 3.5051 31.543 3.46855 31.635 3.46855C31.727 3.46855 31.8152 3.5051 31.8802 3.57015C31.9453 3.6352 31.9818 3.72343 31.9818 3.81543V7.48753L36.9395 2.52939C36.9718 2.49716 37.01 2.4716 37.0521 2.45415C37.0943 2.43671 37.1394 2.42773 37.185 2.42773C37.2305 2.42773 37.2757 2.43671 37.3178 2.45415C37.3599 2.4716 37.3981 2.49716 37.4304 2.52939C37.4626 2.56162 37.4882 2.59988 37.5056 2.64199C37.5231 2.68409 37.532 2.72922 37.532 2.7748C37.532 2.82038 37.5231 2.86551 37.5056 2.90762C37.4882 2.94973 37.4626 2.98799 37.4304 3.02022Z" fill="#4846BE"/>
<path d="M36.9397 37.4304L31.982 32.4722V36.1443C31.982 36.2363 31.9455 36.3246 31.8804 36.3896C31.8154 36.4547 31.7272 36.4912 31.6352 36.4912C31.5432 36.4912 31.4549 36.4547 31.3899 36.3896C31.3248 36.3246 31.2883 36.2363 31.2883 36.1443V31.635C31.2883 31.543 31.3248 31.4547 31.3899 31.3897C31.4549 31.3246 31.5432 31.2881 31.6352 31.2881H36.1445C36.2365 31.2881 36.3248 31.3246 36.3898 31.3897C36.4549 31.4547 36.4914 31.543 36.4914 31.635C36.4914 31.727 36.4549 31.8152 36.3898 31.8802C36.3248 31.9453 36.2365 31.9818 36.1445 31.9818H32.4724L37.4306 36.9395C37.4628 36.9718 37.4884 37.01 37.5058 37.0521C37.5232 37.0943 37.5322 37.1394 37.5322 37.185C37.5322 37.2305 37.5232 37.2757 37.5058 37.3178C37.4884 37.3599 37.4628 37.3981 37.4306 37.4304C37.3983 37.4626 37.3601 37.4882 37.318 37.5056C37.2759 37.5231 37.2307 37.532 37.1852 37.532C37.1396 37.532 37.0944 37.5231 37.0523 37.5056C37.0102 37.4882 36.972 37.4626 36.9397 37.4304Z" fill="#4846BE"/>
<path d="M2.52959 36.9397L7.48773 31.982H3.81562C3.72363 31.982 3.6354 31.9455 3.57035 31.8804C3.5053 31.8154 3.46875 31.7272 3.46875 31.6352C3.46875 31.5432 3.5053 31.4549 3.57035 31.3899C3.6354 31.3248 3.72363 31.2883 3.81562 31.2883H8.325C8.417 31.2883 8.50523 31.3248 8.57028 31.3899C8.63533 31.4549 8.67188 31.5432 8.67188 31.6352V36.1445C8.67188 36.2365 8.63533 36.3248 8.57028 36.3898C8.50523 36.4549 8.417 36.4914 8.325 36.4914C8.233 36.4914 8.14477 36.4549 8.07972 36.3898C8.01467 36.3248 7.97812 36.2365 7.97812 36.1445V32.4724L3.02041 37.4306C2.98819 37.4628 2.94993 37.4884 2.90782 37.5058C2.86571 37.5232 2.82058 37.5322 2.775 37.5322C2.72942 37.5322 2.68429 37.5232 2.64218 37.5058C2.60007 37.4884 2.56181 37.4628 2.52959 37.4306C2.49736 37.3983 2.47179 37.3601 2.45435 37.318C2.43691 37.2759 2.42793 37.2307 2.42793 37.1852C2.42793 37.1396 2.43691 37.0944 2.45435 37.0523C2.47179 37.0102 2.49736 36.972 2.52959 36.9397Z" fill="#4846BE"/>
<path d="M3.0207 2.52959L7.97842 7.48773V3.81562C7.97842 3.72363 8.01496 3.6354 8.08001 3.57035C8.14506 3.5053 8.23329 3.46875 8.32529 3.46875C8.41729 3.46875 8.50552 3.5053 8.57057 3.57035C8.63562 3.6354 8.67217 3.72363 8.67217 3.81562V8.325C8.67217 8.417 8.63562 8.50523 8.57057 8.57028C8.50552 8.63533 8.41729 8.67188 8.32529 8.67188H3.81592C3.72392 8.67188 3.63569 8.63533 3.57064 8.57028C3.50559 8.50523 3.46904 8.417 3.46904 8.325C3.46904 8.233 3.50559 8.14477 3.57064 8.07972C3.63569 8.01467 3.72392 7.97812 3.81592 7.97812H7.48802L2.52988 3.02041C2.49765 2.98819 2.47208 2.94993 2.45464 2.90782C2.4372 2.86571 2.42822 2.82058 2.42822 2.775C2.42822 2.72942 2.4372 2.68429 2.45464 2.64218C2.47208 2.60007 2.49765 2.56181 2.52988 2.52959C2.5621 2.49736 2.60037 2.47179 2.64247 2.45435C2.68458 2.43691 2.72971 2.42793 2.77529 2.42793C2.82087 2.42793 2.866 2.43691 2.90811 2.45435C2.95022 2.47179 2.98848 2.49736 3.0207 2.52959Z" fill="#4846BE"/>
</svg>
