<svg width="40" height="40" viewBox="0 0 40 40" fill="none" xmlns="http://www.w3.org/2000/svg">
<rect x="8.87988" y="8.87988" width="22.2" height="22.2" rx="4.76096" fill="#CC0064"/>
<path d="M13.5944 21.98V17.1848H15.8722C16.2274 17.1848 16.5315 17.2469 16.7846 17.3713C17.0421 17.4956 17.2397 17.6687 17.3773 17.8907C17.5194 18.1127 17.5904 18.3725 17.5904 18.67C17.5904 18.9674 17.5194 19.2294 17.3773 19.4558C17.2352 19.6823 17.0354 19.8599 16.7779 19.9886C16.5248 20.113 16.2229 20.1751 15.8722 20.1751H14.407V19.3892H15.8189C16.0542 19.3892 16.2362 19.3249 16.365 19.1961C16.4982 19.0629 16.5648 18.8897 16.5648 18.6766C16.5648 18.4635 16.4982 18.2926 16.365 18.1638C16.2362 18.035 16.0542 17.9707 15.8189 17.9707H14.6201V21.98H13.5944ZM18.6952 21.98V21.1808H19.9073C20.2536 21.1808 20.5467 21.112 20.7864 20.9743C21.0306 20.8322 21.2149 20.6391 21.3392 20.3949C21.468 20.1507 21.5323 19.871 21.5323 19.5557C21.5323 19.2449 21.4702 18.9719 21.3459 18.7366C21.2215 18.5012 21.0373 18.317 20.7931 18.1838C20.5533 18.0506 20.2581 17.984 19.9073 17.984H18.7152V17.1848H19.9073C20.4445 17.1848 20.913 17.2825 21.3126 17.4778C21.7122 17.6687 22.0207 17.944 22.2383 18.3037C22.4603 18.6589 22.5713 19.0807 22.5713 19.5691C22.5713 20.0575 22.4603 20.4837 22.2383 20.8478C22.0163 21.2074 21.7055 21.4871 21.3059 21.6869C20.9107 21.8823 20.4468 21.98 19.914 21.98H18.6952ZM18.0691 21.98V17.1848H19.0948V21.98H18.0691ZM23.1032 21.98V17.1848H24.1288V21.98H23.1032ZM23.5827 20.1218V19.336H26.3333V20.1218H23.5827ZM23.5827 17.9707V17.1848H26.4864V17.9707H23.5827Z" fill="white"/>
<path d="M37.4304 3.02022L32.4722 7.97793H36.1443C36.2363 7.97793 36.3246 8.01447 36.3896 8.07952C36.4547 8.14458 36.4912 8.23281 36.4912 8.3248C36.4912 8.4168 36.4547 8.50503 36.3896 8.57008C36.3246 8.63513 36.2363 8.67168 36.1443 8.67168H31.635C31.543 8.67168 31.4547 8.63513 31.3897 8.57008C31.3246 8.50503 31.2881 8.4168 31.2881 8.3248V3.81543C31.2881 3.72343 31.3246 3.6352 31.3897 3.57015C31.4547 3.5051 31.543 3.46855 31.635 3.46855C31.727 3.46855 31.8152 3.5051 31.8802 3.57015C31.9453 3.6352 31.9818 3.72343 31.9818 3.81543V7.48753L36.9395 2.52939C36.9718 2.49716 37.01 2.4716 37.0521 2.45415C37.0943 2.43671 37.1394 2.42773 37.185 2.42773C37.2305 2.42773 37.2757 2.43671 37.3178 2.45415C37.3599 2.4716 37.3981 2.49716 37.4304 2.52939C37.4626 2.56162 37.4882 2.59988 37.5056 2.64199C37.5231 2.68409 37.532 2.72922 37.532 2.7748C37.532 2.82038 37.5231 2.86551 37.5056 2.90762C37.4882 2.94973 37.4626 2.98799 37.4304 3.02022Z" fill="#CC0064"/>
<path d="M36.9397 37.4304L31.982 32.4722V36.1443C31.982 36.2363 31.9455 36.3246 31.8804 36.3896C31.8154 36.4547 31.7272 36.4912 31.6352 36.4912C31.5432 36.4912 31.4549 36.4547 31.3899 36.3896C31.3248 36.3246 31.2883 36.2363 31.2883 36.1443V31.635C31.2883 31.543 31.3248 31.4547 31.3899 31.3897C31.4549 31.3246 31.5432 31.2881 31.6352 31.2881H36.1445C36.2365 31.2881 36.3248 31.3246 36.3898 31.3897C36.4549 31.4547 36.4914 31.543 36.4914 31.635C36.4914 31.727 36.4549 31.8152 36.3898 31.8802C36.3248 31.9453 36.2365 31.9818 36.1445 31.9818H32.4724L37.4306 36.9395C37.4628 36.9718 37.4884 37.01 37.5058 37.0521C37.5232 37.0943 37.5322 37.1394 37.5322 37.185C37.5322 37.2305 37.5232 37.2757 37.5058 37.3178C37.4884 37.3599 37.4628 37.3981 37.4306 37.4304C37.3983 37.4626 37.3601 37.4882 37.318 37.5056C37.2759 37.5231 37.2307 37.532 37.1852 37.532C37.1396 37.532 37.0944 37.5231 37.0523 37.5056C37.0102 37.4882 36.972 37.4626 36.9397 37.4304Z" fill="#CC0064"/>
<path d="M2.52959 36.9397L7.48773 31.982H3.81562C3.72363 31.982 3.6354 31.9455 3.57035 31.8804C3.5053 31.8154 3.46875 31.7272 3.46875 31.6352C3.46875 31.5432 3.5053 31.4549 3.57035 31.3899C3.6354 31.3248 3.72363 31.2883 3.81562 31.2883H8.325C8.417 31.2883 8.50523 31.3248 8.57028 31.3899C8.63533 31.4549 8.67188 31.5432 8.67188 31.6352V36.1445C8.67188 36.2365 8.63533 36.3248 8.57028 36.3898C8.50523 36.4549 8.417 36.4914 8.325 36.4914C8.233 36.4914 8.14477 36.4549 8.07972 36.3898C8.01467 36.3248 7.97812 36.2365 7.97812 36.1445V32.4724L3.02041 37.4306C2.98819 37.4628 2.94993 37.4884 2.90782 37.5058C2.86571 37.5232 2.82058 37.5322 2.775 37.5322C2.72942 37.5322 2.68429 37.5232 2.64218 37.5058C2.60007 37.4884 2.56181 37.4628 2.52959 37.4306C2.49736 37.3983 2.47179 37.3601 2.45435 37.318C2.43691 37.2759 2.42793 37.2307 2.42793 37.1852C2.42793 37.1396 2.43691 37.0944 2.45435 37.0523C2.47179 37.0102 2.49736 36.972 2.52959 36.9397Z" fill="#CC0064"/>
<path d="M3.02022 2.52959L7.97793 7.48773V3.81562C7.97793 3.72363 8.01447 3.6354 8.07952 3.57035C8.14458 3.5053 8.23281 3.46875 8.3248 3.46875C8.4168 3.46875 8.50503 3.5053 8.57008 3.57035C8.63513 3.6354 8.67168 3.72363 8.67168 3.81562V8.325C8.67168 8.417 8.63513 8.50523 8.57008 8.57028C8.50503 8.63533 8.4168 8.67188 8.3248 8.67188H3.81543C3.72343 8.67188 3.6352 8.63533 3.57015 8.57028C3.5051 8.50523 3.46855 8.417 3.46855 8.325C3.46855 8.233 3.5051 8.14477 3.57015 8.07972C3.6352 8.01467 3.72343 7.97812 3.81543 7.97812H7.48753L2.52939 3.02041C2.49716 2.98819 2.4716 2.94993 2.45415 2.90782C2.43671 2.86571 2.42773 2.82058 2.42773 2.775C2.42773 2.72942 2.43671 2.68429 2.45415 2.64218C2.4716 2.60007 2.49716 2.56181 2.52939 2.52959C2.56162 2.49736 2.59988 2.47179 2.64199 2.45435C2.68409 2.43691 2.72922 2.42793 2.7748 2.42793C2.82038 2.42793 2.86551 2.43691 2.90762 2.45435C2.94973 2.47179 2.98799 2.49736 3.02022 2.52959Z" fill="#CC0064"/>
</svg>
