<svg width="40" height="40" viewBox="0 0 40 40" fill="none" xmlns="http://www.w3.org/2000/svg">
<rect x="8.87988" y="8.87988" width="22.2" height="22.2" rx="4.76096" fill="#E58600"/>
<path d="M13.1392 21.98V17.1848H15.4169C15.7721 17.1848 16.0762 17.2469 16.3293 17.3713C16.5868 17.4956 16.7844 17.6687 16.9221 17.8907C17.0641 18.1127 17.1352 18.3725 17.1352 18.67C17.1352 18.9674 17.0641 19.2294 16.9221 19.4558C16.78 19.6823 16.5802 19.8599 16.3227 19.9886C16.0696 20.113 15.7677 20.1751 15.4169 20.1751H13.9517V19.3892H15.3636C15.5989 19.3892 15.781 19.3249 15.9097 19.1961C16.0429 19.0629 16.1095 18.8897 16.1095 18.6766C16.1095 18.4635 16.0429 18.2926 15.9097 18.1638C15.781 18.035 15.5989 17.9707 15.3636 17.9707H14.1648V21.98H13.1392ZM17.6139 21.98V17.1848H18.9392L21.0704 21.4205L20.7441 21.5005V17.1848H21.7431V21.98H20.4177L18.2865 17.7442L18.6129 17.6643V21.98H17.6139ZM24.7782 22.0466C24.2587 22.0466 23.8125 21.9445 23.4395 21.7402C23.0666 21.536 22.778 21.2496 22.5737 20.8811C22.3739 20.5126 22.274 20.0819 22.274 19.589C22.274 19.1006 22.3762 18.6722 22.5804 18.3037C22.7846 17.9307 23.0666 17.6399 23.4262 17.4312C23.7903 17.2225 24.2121 17.1182 24.6916 17.1182C25.0868 17.1182 25.4398 17.1892 25.7506 17.3313C26.0658 17.4734 26.3189 17.6687 26.5098 17.9174C26.7052 18.1616 26.8206 18.4457 26.8561 18.7699H25.8305C25.7861 18.5079 25.6618 18.3037 25.4575 18.1571C25.2577 18.0062 25.0069 17.9307 24.7049 17.9307C24.4252 17.9307 24.181 17.9973 23.9723 18.1305C23.7637 18.2593 23.6016 18.4457 23.4862 18.6899C23.3707 18.9341 23.313 19.2272 23.313 19.5691C23.313 19.9243 23.3707 20.2284 23.4862 20.4815C23.6016 20.7301 23.7703 20.921 23.9923 21.0542C24.2188 21.183 24.4963 21.2474 24.8248 21.2474C25.0912 21.2474 25.3177 21.2141 25.5041 21.1475C25.6906 21.0809 25.8327 20.9876 25.9304 20.8678L26.9027 21.254C26.6452 21.5116 26.3455 21.7091 26.0036 21.8468C25.6662 21.98 25.2577 22.0466 24.7782 22.0466ZM25.8771 21.254V19.9354L26.0836 20.1418H24.8182V19.3559H26.9027V21.254H25.8771Z" fill="white"/>
<path d="M37.4306 3.02022L32.4725 7.97793H36.1446C36.2366 7.97793 36.3248 8.01447 36.3899 8.07952C36.4549 8.14458 36.4915 8.23281 36.4915 8.3248C36.4915 8.4168 36.4549 8.50503 36.3899 8.57008C36.3248 8.63513 36.2366 8.67168 36.1446 8.67168H31.6352C31.5432 8.67168 31.455 8.63513 31.3899 8.57008C31.3249 8.50503 31.2883 8.4168 31.2883 8.3248V3.81543C31.2883 3.72343 31.3249 3.6352 31.3899 3.57015C31.455 3.5051 31.5432 3.46855 31.6352 3.46855C31.7272 3.46855 31.8154 3.5051 31.8805 3.57015C31.9455 3.6352 31.9821 3.72343 31.9821 3.81543V7.48753L36.9398 2.52939C36.972 2.49716 37.0103 2.4716 37.0524 2.45415C37.0945 2.43671 37.1396 2.42773 37.1852 2.42773C37.2308 2.42773 37.2759 2.43671 37.318 2.45415C37.3601 2.4716 37.3984 2.49716 37.4306 2.52939C37.4628 2.56162 37.4884 2.59988 37.5059 2.64199C37.5233 2.68409 37.5323 2.72922 37.5323 2.7748C37.5323 2.82038 37.5233 2.86551 37.5059 2.90762C37.4884 2.94973 37.4628 2.98799 37.4306 3.02022Z" fill="#E58600"/>
<path d="M36.9397 37.4304L31.982 32.4722V36.1443C31.982 36.2363 31.9455 36.3246 31.8804 36.3896C31.8154 36.4547 31.7272 36.4912 31.6352 36.4912C31.5432 36.4912 31.4549 36.4547 31.3899 36.3896C31.3248 36.3246 31.2883 36.2363 31.2883 36.1443V31.635C31.2883 31.543 31.3248 31.4547 31.3899 31.3897C31.4549 31.3246 31.5432 31.2881 31.6352 31.2881H36.1445C36.2365 31.2881 36.3248 31.3246 36.3898 31.3897C36.4549 31.4547 36.4914 31.543 36.4914 31.635C36.4914 31.727 36.4549 31.8152 36.3898 31.8802C36.3248 31.9453 36.2365 31.9818 36.1445 31.9818H32.4724L37.4306 36.9395C37.4628 36.9718 37.4884 37.01 37.5058 37.0521C37.5232 37.0943 37.5322 37.1394 37.5322 37.185C37.5322 37.2305 37.5232 37.2757 37.5058 37.3178C37.4884 37.3599 37.4628 37.3981 37.4306 37.4304C37.3983 37.4626 37.3601 37.4882 37.318 37.5056C37.2759 37.5231 37.2307 37.532 37.1852 37.532C37.1396 37.532 37.0944 37.5231 37.0523 37.5056C37.0102 37.4882 36.972 37.4626 36.9397 37.4304Z" fill="#E58600"/>
<path d="M2.52959 36.9397L7.48773 31.982H3.81562C3.72363 31.982 3.6354 31.9455 3.57035 31.8804C3.5053 31.8154 3.46875 31.7272 3.46875 31.6352C3.46875 31.5432 3.5053 31.4549 3.57035 31.3899C3.6354 31.3248 3.72363 31.2883 3.81562 31.2883H8.325C8.417 31.2883 8.50523 31.3248 8.57028 31.3899C8.63533 31.4549 8.67188 31.5432 8.67188 31.6352V36.1445C8.67188 36.2365 8.63533 36.3248 8.57028 36.3898C8.50523 36.4549 8.417 36.4914 8.325 36.4914C8.233 36.4914 8.14477 36.4549 8.07972 36.3898C8.01467 36.3248 7.97812 36.2365 7.97812 36.1445V32.4724L3.02041 37.4306C2.98819 37.4628 2.94993 37.4884 2.90782 37.5058C2.86571 37.5232 2.82058 37.5322 2.775 37.5322C2.72942 37.5322 2.68429 37.5232 2.64218 37.5058C2.60007 37.4884 2.56181 37.4628 2.52959 37.4306C2.49736 37.3983 2.47179 37.3601 2.45435 37.318C2.43691 37.2759 2.42793 37.2307 2.42793 37.1852C2.42793 37.1396 2.43691 37.0944 2.45435 37.0523C2.47179 37.0102 2.49736 36.972 2.52959 36.9397Z" fill="#E58600"/>
<path d="M3.02022 2.52959L7.97793 7.48773V3.81562C7.97793 3.72363 8.01447 3.6354 8.07952 3.57035C8.14458 3.5053 8.23281 3.46875 8.3248 3.46875C8.4168 3.46875 8.50503 3.5053 8.57008 3.57035C8.63513 3.6354 8.67168 3.72363 8.67168 3.81562V8.325C8.67168 8.417 8.63513 8.50523 8.57008 8.57028C8.50503 8.63533 8.4168 8.67188 8.3248 8.67188H3.81543C3.72343 8.67188 3.6352 8.63533 3.57015 8.57028C3.5051 8.50523 3.46855 8.417 3.46855 8.325C3.46855 8.233 3.5051 8.14477 3.57015 8.07972C3.6352 8.01467 3.72343 7.97812 3.81543 7.97812H7.48753L2.52939 3.02041C2.49716 2.98819 2.4716 2.94993 2.45415 2.90782C2.43671 2.86571 2.42773 2.82058 2.42773 2.775C2.42773 2.72942 2.43671 2.68429 2.45415 2.64218C2.4716 2.60007 2.49716 2.56181 2.52939 2.52959C2.56162 2.49736 2.59988 2.47179 2.64199 2.45435C2.68409 2.43691 2.72922 2.42793 2.7748 2.42793C2.82038 2.42793 2.86551 2.43691 2.90762 2.45435C2.94973 2.47179 2.98799 2.49736 3.02022 2.52959Z" fill="#E58600"/>
</svg>
