<svg width="40" height="40" viewBox="0 0 40 40" fill="none" xmlns="http://www.w3.org/2000/svg">
<rect x="8.87988" y="8.87988" width="22.2" height="22.2" rx="4.76096" fill="#E50B00"/>
<path d="M13.6205 21.98V17.1848H15.8982C16.2534 17.1848 16.5575 17.2469 16.8106 17.3713C17.0681 17.4956 17.2657 17.6687 17.4033 17.8907C17.5454 18.1127 17.6165 18.3725 17.6165 18.67C17.6165 18.9674 17.5454 19.2294 17.4033 19.4558C17.2613 19.6823 17.0615 19.8599 16.8039 19.9886C16.5509 20.113 16.2489 20.1751 15.8982 20.1751H14.433V19.3892H15.8449C16.0802 19.3892 16.2623 19.3249 16.391 19.1961C16.5242 19.0629 16.5908 18.8897 16.5908 18.6766C16.5908 18.4635 16.5242 18.2926 16.391 18.1638C16.2623 18.035 16.0802 17.9707 15.8449 17.9707H14.6461V21.98H13.6205ZM18.0951 21.98V17.1848H20.3729C20.7281 17.1848 21.0322 17.2469 21.2853 17.3713C21.5428 17.4956 21.7404 17.6687 21.878 17.8907C22.0201 18.1127 22.0911 18.3725 22.0911 18.67C22.0911 18.9674 22.0201 19.2294 21.878 19.4558C21.7359 19.6823 21.5361 19.8599 21.2786 19.9886C21.0255 20.113 20.7236 20.1751 20.3729 20.1751H18.9077V19.3892H20.3196C20.5549 19.3892 20.7369 19.3249 20.8657 19.1961C20.9989 19.0629 21.0655 18.8897 21.0655 18.6766C21.0655 18.4635 20.9989 18.2926 20.8657 18.1638C20.7369 18.035 20.5549 17.9707 20.3196 17.9707H19.1208V21.98H18.0951ZM23.9228 21.98V17.9707H22.3577V17.1848H26.5135V17.9707H24.9484V21.98H23.9228Z" fill="white"/>
<path d="M37.4304 3.02022L32.4722 7.97793H36.1443C36.2363 7.97793 36.3246 8.01447 36.3896 8.07952C36.4547 8.14458 36.4912 8.23281 36.4912 8.3248C36.4912 8.4168 36.4547 8.50503 36.3896 8.57008C36.3246 8.63513 36.2363 8.67168 36.1443 8.67168H31.635C31.543 8.67168 31.4547 8.63513 31.3897 8.57008C31.3246 8.50503 31.2881 8.4168 31.2881 8.3248V3.81543C31.2881 3.72343 31.3246 3.6352 31.3897 3.57015C31.4547 3.5051 31.543 3.46855 31.635 3.46855C31.727 3.46855 31.8152 3.5051 31.8802 3.57015C31.9453 3.6352 31.9818 3.72343 31.9818 3.81543V7.48753L36.9395 2.52939C36.9718 2.49716 37.01 2.4716 37.0521 2.45415C37.0943 2.43671 37.1394 2.42773 37.185 2.42773C37.2305 2.42773 37.2757 2.43671 37.3178 2.45415C37.3599 2.4716 37.3981 2.49716 37.4304 2.52939C37.4626 2.56162 37.4882 2.59988 37.5056 2.64199C37.5231 2.68409 37.532 2.72922 37.532 2.7748C37.532 2.82038 37.5231 2.86551 37.5056 2.90762C37.4882 2.94973 37.4626 2.98799 37.4304 3.02022Z" fill="#E50B00"/>
<path d="M36.9393 37.4304L31.9815 32.4722V36.1443C31.9815 36.2363 31.945 36.3246 31.8799 36.3896C31.8149 36.4547 31.7267 36.4912 31.6347 36.4912C31.5427 36.4912 31.4544 36.4547 31.3894 36.3896C31.3243 36.3246 31.2878 36.2363 31.2878 36.1443V31.635C31.2878 31.543 31.3243 31.4547 31.3894 31.3897C31.4544 31.3246 31.5427 31.2881 31.6347 31.2881H36.144C36.236 31.2881 36.3243 31.3246 36.3893 31.3897C36.4544 31.4547 36.4909 31.543 36.4909 31.635C36.4909 31.727 36.4544 31.8152 36.3893 31.8802C36.3243 31.9453 36.236 31.9818 36.144 31.9818H32.4719L37.4301 36.9395C37.4623 36.9718 37.4879 37.01 37.5053 37.0521C37.5228 37.0943 37.5317 37.1394 37.5317 37.185C37.5317 37.2305 37.5228 37.2757 37.5053 37.3178C37.4879 37.3599 37.4623 37.3981 37.4301 37.4304C37.3979 37.4626 37.3596 37.4882 37.3175 37.5056C37.2754 37.5231 37.2302 37.532 37.1847 37.532C37.1391 37.532 37.094 37.5231 37.0519 37.5056C37.0097 37.4882 36.9715 37.4626 36.9393 37.4304Z" fill="#E50B00"/>
<path d="M2.52959 36.9397L7.48773 31.982H3.81562C3.72363 31.982 3.6354 31.9455 3.57035 31.8804C3.5053 31.8154 3.46875 31.7272 3.46875 31.6352C3.46875 31.5432 3.5053 31.4549 3.57035 31.3899C3.6354 31.3248 3.72363 31.2883 3.81562 31.2883H8.325C8.417 31.2883 8.50523 31.3248 8.57028 31.3899C8.63533 31.4549 8.67188 31.5432 8.67188 31.6352V36.1445C8.67188 36.2365 8.63533 36.3248 8.57028 36.3898C8.50523 36.4549 8.417 36.4914 8.325 36.4914C8.233 36.4914 8.14477 36.4549 8.07972 36.3898C8.01467 36.3248 7.97812 36.2365 7.97812 36.1445V32.4724L3.02041 37.4306C2.98819 37.4628 2.94993 37.4884 2.90782 37.5058C2.86571 37.5232 2.82058 37.5322 2.775 37.5322C2.72942 37.5322 2.68429 37.5232 2.64218 37.5058C2.60007 37.4884 2.56181 37.4628 2.52959 37.4306C2.49736 37.3983 2.47179 37.3601 2.45435 37.318C2.43691 37.2759 2.42793 37.2307 2.42793 37.1852C2.42793 37.1396 2.43691 37.0944 2.45435 37.0523C2.47179 37.0102 2.49736 36.972 2.52959 36.9397Z" fill="#E50B00"/>
<path d="M3.02022 2.52959L7.97793 7.48773V3.81562C7.97793 3.72363 8.01447 3.6354 8.07952 3.57035C8.14458 3.5053 8.23281 3.46875 8.3248 3.46875C8.4168 3.46875 8.50503 3.5053 8.57008 3.57035C8.63513 3.6354 8.67168 3.72363 8.67168 3.81562V8.325C8.67168 8.417 8.63513 8.50523 8.57008 8.57028C8.50503 8.63533 8.4168 8.67188 8.3248 8.67188H3.81543C3.72343 8.67188 3.6352 8.63533 3.57015 8.57028C3.5051 8.50523 3.46855 8.417 3.46855 8.325C3.46855 8.233 3.5051 8.14477 3.57015 8.07972C3.6352 8.01467 3.72343 7.97812 3.81543 7.97812H7.48753L2.52939 3.02041C2.49716 2.98819 2.4716 2.94993 2.45415 2.90782C2.43671 2.86571 2.42773 2.82058 2.42773 2.775C2.42773 2.72942 2.43671 2.68429 2.45415 2.64218C2.4716 2.60007 2.49716 2.56181 2.52939 2.52959C2.56162 2.49736 2.59988 2.47179 2.64199 2.45435C2.68409 2.43691 2.72922 2.42793 2.7748 2.42793C2.82038 2.42793 2.86551 2.43691 2.90762 2.45435C2.94973 2.47179 2.98799 2.49736 3.02022 2.52959Z" fill="#E50B00"/>
</svg>
