<svg width="40" height="40" viewBox="0 0 40 40" fill="none" xmlns="http://www.w3.org/2000/svg">
<rect x="8.87988" y="8.87988" width="22.2" height="22.2" rx="4.76096" fill="#00C2B2"/>
<path d="M15.0498 21.98V21.2873L17.7004 17.591L17.9469 17.9707H15.143V17.1848H18.7461V17.8774L16.1353 21.5271L15.9022 21.1941H18.7727V21.98H15.0498ZM19.3439 21.98V17.1848H20.3695V21.98H19.3439ZM21.0349 21.98V17.1848H23.3126C23.6678 17.1848 23.972 17.2469 24.2251 17.3713C24.4826 17.4956 24.6802 17.6687 24.8178 17.8907C24.9599 18.1127 25.0309 18.3725 25.0309 18.67C25.0309 18.9674 24.9599 19.2294 24.8178 19.4558C24.6757 19.6823 24.4759 19.8599 24.2184 19.9886C23.9653 20.113 23.6634 20.1751 23.3126 20.1751H21.8474V19.3892H23.2594C23.4947 19.3892 23.6767 19.3249 23.8055 19.1961C23.9387 19.0629 24.0053 18.8897 24.0053 18.6766C24.0053 18.4635 23.9387 18.2926 23.8055 18.1638C23.6767 18.035 23.4947 17.9707 23.2594 17.9707H22.0606V21.98H21.0349Z" fill="white"/>
<path d="M37.4309 3.02022L32.4727 7.97793H36.1448C36.2368 7.97793 36.3251 8.01447 36.3901 8.07952C36.4552 8.14458 36.4917 8.23281 36.4917 8.3248C36.4917 8.4168 36.4552 8.50503 36.3901 8.57008C36.3251 8.63513 36.2368 8.67168 36.1448 8.67168H31.6354C31.5435 8.67168 31.4552 8.63513 31.3902 8.57008C31.3251 8.50503 31.2886 8.4168 31.2886 8.3248V3.81543C31.2886 3.72343 31.3251 3.6352 31.3902 3.57015C31.4552 3.5051 31.5435 3.46855 31.6354 3.46855C31.7274 3.46855 31.8157 3.5051 31.8807 3.57015C31.9458 3.6352 31.9823 3.72343 31.9823 3.81543V7.48753L36.94 2.52939C36.9723 2.49716 37.0105 2.4716 37.0526 2.45415C37.0947 2.43671 37.1399 2.42773 37.1854 2.42773C37.231 2.42773 37.2762 2.43671 37.3183 2.45415C37.3604 2.4716 37.3986 2.49716 37.4309 2.52939C37.4631 2.56162 37.4887 2.59988 37.5061 2.64199C37.5235 2.68409 37.5325 2.72922 37.5325 2.7748C37.5325 2.82038 37.5235 2.86551 37.5061 2.90762C37.4887 2.94973 37.4631 2.98799 37.4309 3.02022Z" fill="#00C2B2"/>
<path d="M36.94 37.4304L31.9823 32.4722V36.1443C31.9823 36.2363 31.9457 36.3246 31.8807 36.3896C31.8156 36.4547 31.7274 36.4912 31.6354 36.4912C31.5434 36.4912 31.4552 36.4547 31.3901 36.3896C31.3251 36.3246 31.2885 36.2363 31.2885 36.1443V31.635C31.2885 31.543 31.3251 31.4547 31.3901 31.3897C31.4552 31.3246 31.5434 31.2881 31.6354 31.2881H36.1448C36.2368 31.2881 36.325 31.3246 36.3901 31.3897C36.4551 31.4547 36.4917 31.543 36.4917 31.635C36.4917 31.727 36.4551 31.8152 36.3901 31.8802C36.325 31.9453 36.2368 31.9818 36.1448 31.9818H32.4727L37.4308 36.9395C37.463 36.9718 37.4886 37.01 37.5061 37.0521C37.5235 37.0943 37.5325 37.1394 37.5325 37.185C37.5325 37.2305 37.5235 37.2757 37.5061 37.3178C37.4886 37.3599 37.463 37.3981 37.4308 37.4304C37.3986 37.4626 37.3603 37.4882 37.3182 37.5056C37.2761 37.5231 37.231 37.532 37.1854 37.532C37.1398 37.532 37.0947 37.5231 37.0526 37.5056C37.0105 37.4882 36.9722 37.4626 36.94 37.4304Z" fill="#00C2B2"/>
<path d="M2.52959 36.9397L7.48773 31.982H3.81562C3.72363 31.982 3.6354 31.9455 3.57035 31.8804C3.5053 31.8154 3.46875 31.7272 3.46875 31.6352C3.46875 31.5432 3.5053 31.4549 3.57035 31.3899C3.6354 31.3248 3.72363 31.2883 3.81562 31.2883H8.325C8.417 31.2883 8.50523 31.3248 8.57028 31.3899C8.63533 31.4549 8.67188 31.5432 8.67188 31.6352V36.1445C8.67188 36.2365 8.63533 36.3248 8.57028 36.3898C8.50523 36.4549 8.417 36.4914 8.325 36.4914C8.233 36.4914 8.14477 36.4549 8.07972 36.3898C8.01467 36.3248 7.97812 36.2365 7.97812 36.1445V32.4724L3.02041 37.4306C2.98819 37.4628 2.94993 37.4884 2.90782 37.5058C2.86571 37.5232 2.82058 37.5322 2.775 37.5322C2.72942 37.5322 2.68429 37.5232 2.64218 37.5058C2.60007 37.4884 2.56181 37.4628 2.52959 37.4306C2.49736 37.3983 2.47179 37.3601 2.45435 37.318C2.43691 37.2759 2.42793 37.2307 2.42793 37.1852C2.42793 37.1396 2.43691 37.0944 2.45435 37.0523C2.47179 37.0102 2.49736 36.972 2.52959 36.9397Z" fill="#00C2B2"/>
<path d="M3.02022 2.52959L7.97793 7.48773V3.81562C7.97793 3.72363 8.01447 3.6354 8.07952 3.57035C8.14458 3.5053 8.23281 3.46875 8.3248 3.46875C8.4168 3.46875 8.50503 3.5053 8.57008 3.57035C8.63513 3.6354 8.67168 3.72363 8.67168 3.81562V8.325C8.67168 8.417 8.63513 8.50523 8.57008 8.57028C8.50503 8.63533 8.4168 8.67188 8.3248 8.67188H3.81543C3.72343 8.67188 3.6352 8.63533 3.57015 8.57028C3.5051 8.50523 3.46855 8.417 3.46855 8.325C3.46855 8.233 3.5051 8.14477 3.57015 8.07972C3.6352 8.01467 3.72343 7.97812 3.81543 7.97812H7.48753L2.52939 3.02041C2.49716 2.98819 2.4716 2.94993 2.45415 2.90782C2.43671 2.86571 2.42773 2.82058 2.42773 2.775C2.42773 2.72942 2.43671 2.68429 2.45415 2.64218C2.4716 2.60007 2.49716 2.56181 2.52939 2.52959C2.56162 2.49736 2.59988 2.47179 2.64199 2.45435C2.68409 2.43691 2.72922 2.42793 2.7748 2.42793C2.82038 2.42793 2.86551 2.43691 2.90762 2.45435C2.94973 2.47179 2.98799 2.49736 3.02022 2.52959Z" fill="#00C2B2"/>
</svg>
