<svg width="88" height="12" viewBox="0 0 88 12" fill="none" xmlns="http://www.w3.org/2000/svg">
<path d="M2.50285 12H0V0H2.50285V12Z" fill="#253858"/>
<path d="M13.3653 8.26284V4.0355e-08H15.8511V12H13.2968L7.26257 3.72V12H4.75966V4.0355e-08H7.31391L13.3653 8.26284Z" fill="#253858"/>
<path d="M17.6565 4.0355e-08H26.2451V2.21142H23.1938V12H20.708V2.21142H17.6565V4.0355e-08Z" fill="#253858"/>
<path d="M35.422 4.0355e-08V2.21142H30.5533V4.78285H34.7534V6.99427H30.5533V9.78856H35.422V12H28.0505V4.0355e-08H35.422Z" fill="#253858"/>
<path d="M47.3816 12H44.3473L40.9874 7.06285H40.1817V12H37.6788V4.0355e-08H42.5131C43.7473 4.0355e-08 44.6902 0.331428 45.3417 0.994284C46.0045 1.65714 46.3359 2.52571 46.3359 3.59999C46.3359 5.34856 45.4674 6.41713 43.7302 6.80571L47.3816 12ZM40.1817 5.02285H42.1531C42.7016 5.02285 43.1188 4.91428 43.4045 4.69713C43.7016 4.46856 43.8503 4.10285 43.8503 3.59999C43.8503 3.10856 43.7016 2.75428 43.4045 2.53714C43.1188 2.32 42.7016 2.21142 42.1531 2.21142H40.1817V5.02285Z" fill="#253858"/>
<path d="M57.6799 8.26284V4.0355e-08H60.1656V12H57.6113L51.577 3.72V12H49.0742V4.0355e-08H51.6285L57.6799 8.26284Z" fill="#253858"/>
<path d="M72.681 5.81142L76.8295 12H73.9496L71.3268 7.8857L68.721 12H65.8582L69.9896 5.82856L66.081 4.0355e-08H68.9267L71.3268 3.75428L73.7439 4.0355e-08H76.6067L72.681 5.81142Z" fill="#253858"/>
<path d="M78.635 4.0355e-08H87.2235V2.21142H84.1721V12H81.6864V2.21142H78.635V4.0355e-08Z" fill="#253858"/>
<path d="M68.18 5.81142L64.22 12H61.36L65.49 5.82856L61.58 0H64.43L68.18 5.81142Z" fill="#253858"/>
</svg>
