<svg width="32" height="33" viewBox="0 0 32 33" fill="none" xmlns="http://www.w3.org/2000/svg">
<path d="M26 11.9336H6C5.44772 11.9336 5 12.3813 5 12.9336V26.9336C5 27.4859 5.44772 27.9336 6 27.9336H26C26.5523 27.9336 27 27.4859 27 26.9336V12.9336C27 12.3813 26.5523 11.9336 26 11.9336Z" stroke="#0066FF" stroke-width="2" stroke-linecap="round" stroke-linejoin="round"/>
<path d="M11.5 11.9336V7.43359C11.5 6.24012 11.9741 5.09553 12.818 4.25161C13.6619 3.4077 14.8065 2.93359 16 2.93359C17.1935 2.93359 18.3381 3.4077 19.182 4.25161C20.0259 5.09553 20.5 6.24012 20.5 7.43359V11.9336" stroke="#0066FF" stroke-width="2" stroke-linecap="round" stroke-linejoin="round"/>
<path d="M16 21.4336C16.8284 21.4336 17.5 20.762 17.5 19.9336C17.5 19.1052 16.8284 18.4336 16 18.4336C15.1716 18.4336 14.5 19.1052 14.5 19.9336C14.5 20.762 15.1716 21.4336 16 21.4336Z" fill="#0066FF"/>
</svg>
