<svg width="32" height="33" viewBox="0 0 32 33" fill="none" xmlns="http://www.w3.org/2000/svg">
<path d="M26 5.93359H6C5.44772 5.93359 5 6.38131 5 6.93359V26.9336C5 27.4859 5.44772 27.9336 6 27.9336H26C26.5523 27.9336 27 27.4859 27 26.9336V6.93359C27 6.38131 26.5523 5.93359 26 5.93359Z" stroke="#0066FF" stroke-width="2" stroke-linecap="round" stroke-linejoin="round"/>
<path d="M27 20.9335L21.7125 15.646C21.6195 15.5515 21.5085 15.4765 21.3862 15.4252C21.2639 15.374 21.1326 15.3477 21 15.3477C20.8674 15.3477 20.7361 15.374 20.6138 15.4252C20.4915 15.4765 20.3805 15.5515 20.2875 15.646L14.7125 21.221C14.6195 21.3155 14.5085 21.3905 14.3862 21.4417C14.2639 21.4929 14.1326 21.5193 14 21.5193C13.8674 21.5193 13.7361 21.4929 13.6138 21.4417C13.4915 21.3905 13.3805 21.3155 13.2875 21.221L10.7125 18.646C10.6195 18.5515 10.5085 18.4765 10.3862 18.4252C10.2639 18.374 10.1326 18.3477 10 18.3477C9.86739 18.3477 9.7361 18.374 9.61378 18.4252C9.49146 18.4765 9.38055 18.5515 9.2875 18.646L5 22.9335" stroke="#0066FF" stroke-width="2" stroke-linecap="round" stroke-linejoin="round"/>
<path d="M12.5 13.9336C13.3284 13.9336 14 13.262 14 12.4336C14 11.6052 13.3284 10.9336 12.5 10.9336C11.6716 10.9336 11 11.6052 11 12.4336C11 13.262 11.6716 13.9336 12.5 13.9336Z" fill="#0066FF"/>
</svg>
