<svg width="32" height="33" viewBox="0 0 32 33" fill="none" xmlns="http://www.w3.org/2000/svg">
<path d="M26 18.9336H6C5.44772 18.9336 5 19.3813 5 19.9336V25.9336C5 26.4859 5.44772 26.9336 6 26.9336H26C26.5523 26.9336 27 26.4859 27 25.9336V19.9336C27 19.3813 26.5523 18.9336 26 18.9336Z" stroke="#0066FF" stroke-width="2" stroke-linecap="round" stroke-linejoin="round"/>
<path d="M26 6.93359H6C5.44772 6.93359 5 7.38131 5 7.93359V13.9336C5 14.4859 5.44772 14.9336 6 14.9336H26C26.5523 14.9336 27 14.4859 27 13.9336V7.93359C27 7.38131 26.5523 6.93359 26 6.93359Z" stroke="#0066FF" stroke-width="2" stroke-linecap="round" stroke-linejoin="round"/>
<path d="M22.5 12.4336C23.3284 12.4336 24 11.762 24 10.9336C24 10.1052 23.3284 9.43359 22.5 9.43359C21.6716 9.43359 21 10.1052 21 10.9336C21 11.762 21.6716 12.4336 22.5 12.4336Z" fill="#0066FF"/>
<path d="M22.5 24.4336C23.3284 24.4336 24 23.762 24 22.9336C24 22.1052 23.3284 21.4336 22.5 21.4336C21.6716 21.4336 21 22.1052 21 22.9336C21 23.762 21.6716 24.4336 22.5 24.4336Z" fill="#0066FF"/>
</svg>
