<svg width="32" height="33" viewBox="0 0 32 33" fill="none" xmlns="http://www.w3.org/2000/svg">
<path d="M26.2873 5.42105L2.98725 11.9836C2.78891 12.0378 2.61211 12.1518 2.48092 12.3102C2.34974 12.4685 2.27056 12.6634 2.25416 12.8684C2.23776 13.0734 2.28495 13.2784 2.38929 13.4556C2.49363 13.6328 2.65005 13.7735 2.83725 13.8586L13.5373 18.9211C13.7469 19.0181 13.9152 19.1865 14.0123 19.3961L19.0748 30.0961C19.1598 30.2833 19.3005 30.4397 19.4777 30.544C19.6549 30.6484 19.8599 30.6955 20.0649 30.6791C20.2699 30.6627 20.4648 30.5836 20.6231 30.4524C20.7815 30.3212 20.8955 30.1444 20.9498 29.9461L27.5123 6.64605C27.562 6.47603 27.5651 6.29575 27.5212 6.12413C27.4773 5.9525 27.388 5.79584 27.2627 5.67058C27.1375 5.54531 26.9808 5.45605 26.8092 5.41215C26.6376 5.36825 26.4573 5.37133 26.2873 5.42105V5.42105Z" stroke="#0066FF" stroke-width="2" stroke-linecap="round" stroke-linejoin="round"/>
<path d="M13.8623 19.0709L19.5123 13.4209" stroke="#0066FF" stroke-width="2" stroke-linecap="round" stroke-linejoin="round"/>
</svg>
