<svg fill="none" height="96" viewBox="0 0 128 96" width="128" xmlns="http://www.w3.org/2000/svg"><path d="m6 96.0001c-3.31371 0-6-2.6863-6-6v-83.99998c0-3.31371 2.68629-5.99999793 6-5.99999793h116c3.314 0 6 2.68628793 6 5.99999793v83.99998c0 3.3137-2.686 6-6 6z" fill="#fcfcfd"/><path d="m.8 6.00012c0-2.87188 2.32812-5.199998 5.2-5.199998h116c2.872 0 5.2 2.328118 5.2 5.199998v83.99998c0 2.8719-2.328 5.2-5.2 5.2h-116c-2.87188 0-5.2-2.3281-5.2-5.2z" stroke="#e5e5eb" stroke-width="1.6"/><path d="m6 96h116c3.314 0 6-2.6863 6-6v-4c0 3.3137-2.686 6-6 6h-116c-3.31371 0-6-2.6863-6-6v4c0 3.3137 2.68629 6 6 6z" fill="#e5e5eb"/><g fill="#8e8e94"><path d="m35.8 38h-3.6c-.6627 0-1.2.5373-1.2 1.2v21.6c0 .6628.5373 1.2 1.2 1.2h3.6c.6627 0 1.2-.5372 1.2-1.2v-21.6c0-.6627-.5373-1.2-1.2-1.2z"/><path d="m45.8 30h-3.6c-.6627 0-1.2.5373-1.2 1.2v37.6c0 .6628.5373 1.2 1.2 1.2h3.6c.6627 0 1.2-.5372 1.2-1.2v-37.6c0-.6627-.5373-1.2-1.2-1.2z"/><path d="m65.8 42h-3.6c-.6627 0-1.2.5373-1.2 1.2v13.6001c0 .6628.5373 1.2 1.2 1.2h3.6c.6627 0 1.2-.5372 1.2-1.2v-13.6001c0-.6627-.5373-1.2-1.2-1.2z"/><path d="m55.8 36h-3.6c-.6627 0-1.2.5373-1.2 1.2v25.6c0 .6628.5373 1.2 1.2 1.2h3.6c.6627 0 1.2-.5372 1.2-1.2v-25.6c0-.6627-.5373-1.2-1.2-1.2z"/><path d="m75.8 24h-3.6c-.6627 0-1.2.5373-1.2 1.2v45.6c0 .6627.5373 1.2 1.2 1.2h3.6c.6627 0 1.2-.5373 1.2-1.2v-45.6c0-.6627-.5373-1.2-1.2-1.2z"/><path d="m85.8 34h-3.6c-.6628 0-1.2.5373-1.2 1.2v29.6c0 .6627.5372 1.2 1.2 1.2h3.6c.6627 0 1.2-.5373 1.2-1.2v-29.6c0-.6627-.5373-1.2-1.2-1.2z"/><path d="m95.8 46h-3.6c-.6627 0-1.2.5373-1.2 1.2v5.6c0 .6627.5373 1.2 1.2 1.2h3.6c.6627 0 1.2-.5373 1.2-1.2v-5.6c0-.6627-.5373-1.2-1.2-1.2z"/></g></svg>