<svg fill="none" height="128" viewBox="0 0 96 128" width="96" xmlns="http://www.w3.org/2000/svg"><path d="m0 6.00012c0-3.31371 2.68629-5.99999793 6-5.99999793h84c3.3137 0 6 2.68628793 6 5.99999793v115.99988c0 3.314-2.6863 6-6 6h-84c-3.31371 0-6-2.686-6-6z" fill="#fcfcfd"/><path d="m.8 6.00012c0-2.87188 2.32812-5.199998 5.2-5.199998h84c2.8719 0 5.2 2.328118 5.2 5.199998v115.99988c0 2.872-2.3281 5.2-5.2 5.2h-84c-2.87188 0-5.2-2.328-5.2-5.2z" stroke="#e5e5eb" stroke-width="1.6"/><path d="m6 128h84c3.3137 0 6-2.686 6-6v-4c0 3.314-2.6863 6-6 6h-84c-3.31371 0-6-2.686-6-6v4c0 3.314 2.68629 6 6 6z" fill="#e5e5eb"/><path d="m40.5379 46.5672c-3.866 0-5.6786 1.1583-5.438 3.4748l.9026 8.8452c.0451.376.0677.7371.0677 1.0831 0 1.5644-.3986 2.7603-1.1959 3.5876-.7973.8124-1.9781 1.3614-3.5426 1.6472 1.6096.2708 2.798.7973 3.5652 1.5795.7822.7672 1.1733 1.9405 1.1733 3.52 0 .3761-.0226.7822-.0677 1.2185l-.9026 8.8451c-.015.0903-.0225.2181-.0225.3836 0 1.1132.4889 1.9029 1.4666 2.3692.9778.4814 2.3091.7221 3.9939.7221v3.2943c-6.318 0-9.4769-2.0834-9.4769-6.2502 0-.4363.015-.7672.0451-.9928l.88-8.2359c.0301-.3912.0451-.6619.0451-.8123 0-.8876-.2106-1.6171-.6318-2.1888-.4212-.5716-1.1282-1.0003-2.121-1.2861-.9778-.2858-2.3166-.4287-4.0164-.4287v-3.4749c1.6998 0 3.0386-.1354 4.0164-.4062.9928-.2858 1.6998-.707 2.121-1.2636.4212-.5716.6318-1.3011.6318-2.1887 0-.1654-.015-.4437-.0451-.8348l-.88-8.2585c-.0301-.2256-.0451-.5566-.0451-.9928 0-4.1669 3.1589-6.2503 9.4769-6.2503zm14.9308-3.2944c6.318 0 9.4769 2.0834 9.4769 6.2503 0 .4362-.015.7672-.0451.9928l-.88 8.2585c-.0301.3309-.0451.5641-.0451.6994 0 1.3539.5265 2.3618 1.5795 3.0236 1.068.6469 2.7979.9703 5.1897.9703v3.4749c-2.3767 0-4.0991.3309-5.1672.9928-1.068.6619-1.602 1.6697-1.602 3.0236 0 .1354.015.3685.0451.6995l.88 8.2359c.0301.2256.0451.5565.0451.9928 0 4.1668-3.1589 6.2502-9.4769 6.2502v-3.2943c1.7901 0 3.174-.2633 4.1518-.7898s1.4065-1.4215 1.2862-2.6851l-.9026-8.8451c-.0451-.4363-.0677-.8349-.0677-1.1959 0-1.5946.4137-2.7754 1.241-3.5426.8274-.7672 2.1361-1.2786 3.9262-1.5343-1.745-.2859-3.0462-.8424-3.9036-1.6698-.8424-.8273-1.2636-2.0308-1.2636-3.6102 0-.346.0226-.7071.0677-1.0831l.9026-8.8452c.015-.0902.0225-.2181.0225-.3835 0-2.0609-1.8201-3.0913-5.4605-3.0913z" fill="#8e8e94"/></svg>