<svg fill="none" height="128" viewBox="0 0 96 128" width="96" xmlns="http://www.w3.org/2000/svg"><path d="m0 6c0-3.31371 2.68629-6 6-6h84c3.3137 0 6 2.68629 6 6v116c0 3.314-2.6863 6-6 6h-84c-3.31371 0-6-2.686-6-6z" fill="#fcfcfd"/><path d="m.8 6c0-2.87188 2.32812-5.2 5.2-5.2h84c2.8719 0 5.2 2.32812 5.2 5.2v116c0 2.872-2.3281 5.2-5.2 5.2h-84c-2.87188 0-5.2-2.328-5.2-5.2z" stroke="#e5e5eb" stroke-width="1.6"/><path d="m6 128h84c3.3137 0 6-2.686 6-6v-4c0 3.314-2.6863 6-6 6h-84c-3.31371 0-6-2.686-6-6v4c0 3.314 2.68629 6 6 6z" fill="#e5e5eb"/><g fill="#2dae4d"><path d="m34 50.8v-9.6c0-.6627-.5373-1.2-1.2-1.2h-15.6c-.6627 0-1.2.5373-1.2 1.2v9.6c0 .6627.5373 1.2 1.2 1.2h15.6c.6627 0 1.2-.5373 1.2-1.2z"/><path d="m34 68.8v-9.6c0-.6627-.5373-1.2-1.2-1.2h-15.6c-.6627 0-1.2.5373-1.2 1.2v9.6c0 .6627.5373 1.2 1.2 1.2h15.6c.6627 0 1.2-.5373 1.2-1.2z"/><path d="m57.0001 50.8v-9.6c0-.6627-.5372-1.2-1.2-1.2h-15.5959c-.6627 0-1.2.5373-1.2 1.2v9.6c0 .6627.5373 1.2 1.2 1.2h15.5959c.6628 0 1.2-.5373 1.2-1.2z"/><path d="m56.9961 68.8004.0036-9.6c.0002-.6629-.5371-1.2004-1.2-1.2004h-15.5959c-.6626 0-1.1998.537-1.2 1.1996l-.0036 9.6c-.0003.6629.537 1.2004 1.2 1.2004h15.5959c.6625 0 1.1997-.537 1.2-1.1996z"/><path d="m34 86.8v-9.6c0-.6627-.5373-1.2-1.2-1.2h-15.6c-.6627 0-1.2.5373-1.2 1.2v9.6c0 .6627.5373 1.2 1.2 1.2h15.6c.6627 0 1.2-.5373 1.2-1.2z"/><path d="m56.9961 86.8004.0036-9.5999c.0002-.663-.5371-1.2005-1.2-1.2005h-15.5959c-.6626 0-1.1998.537-1.2 1.1996l-.0036 9.5999c-.0003.663.537 1.2005 1.2 1.2005h15.5959c.6625 0 1.1997-.537 1.2-1.1996z"/><path d="m80 50.8v-9.6c0-.6627-.5373-1.2-1.2-1.2h-15.6c-.6627 0-1.2.5373-1.2 1.2v9.6c0 .6627.5373 1.2 1.2 1.2h15.6c.6627 0 1.2-.5373 1.2-1.2z"/><path d="m80 68.8v-9.6c0-.6627-.5373-1.2-1.2-1.2h-15.6c-.6627 0-1.2.5373-1.2 1.2v9.6c0 .6627.5373 1.2 1.2 1.2h15.6c.6627 0 1.2-.5373 1.2-1.2z"/><path d="m80 86.8v-9.6c0-.6627-.5373-1.2-1.2-1.2h-15.6c-.6627 0-1.2.5373-1.2 1.2v9.6c0 .6627.5373 1.2 1.2 1.2h15.6c.6627 0 1.2-.5373 1.2-1.2z"/></g></svg>