<svg fill="none" height="128" viewBox="0 0 96 128" width="96" xmlns="http://www.w3.org/2000/svg" xmlns:xlink="http://www.w3.org/1999/xlink"><mask id="a" fill="#fff"><path d="m6 128h84c3.3137 0 6-2.686 6-6v-4c0 3.314-2.6863 6-6 6h-84c-3.31371 0-6-2.686-6-6v4c0 3.314 2.68629 6 6 6z" fill="#fff"/></mask><path d="m0 6c0-3.31371 2.68629-6 6-6h42.6485c4.7458 0 9.3369 1.6876 12.9529 4.76121l27.3516 23.24879c4.4705 3.8 7.047 9.3714 7.047 15.2388v78.7512c0 3.314-2.6863 6-6 6h-84c-3.31371 0-6-2.686-6-6z" fill="#fcfcfd"/><path d="m.8 6c0-2.87188 2.32812-5.2 5.2-5.2h42.6485c4.5559 0 8.9634 1.6201 12.4348 4.57076l27.3515 23.24884c4.2918 3.648 6.7652 8.9965 6.7652 14.6292v78.7512c0 2.872-2.3281 5.2-5.2 5.2h-84c-2.87188 0-5.2-2.328-5.2-5.2z" stroke="#e5e5eb" stroke-width="1.6"/><path d="m50.8.89399v-.073374c3.3969.175213 6.6508 1.462414 9.2537 3.674884l29.3327 24.9329c3.4844 2.9616 5.574 7.2276 5.7943 11.7716h-.0747c-.2307-.9892-.8573-1.876-1.5588-2.5336-.8788-.8238-2.0653-1.4664-3.1472-1.4664h-30.4c-2.8719 0-5.2-2.3281-5.2-5.2v-26.4c0-1.08186-.6425-2.2684-1.4663-3.14715-.6577-.70153-1.5445-1.32819-2.5337-1.55886z" fill="#f3f3f8" stroke="#e5e5eb" stroke-width="1.6"/><g fill="#e5e5eb"><path d="m6 128h84c3.3137 0 6-2.686 6-6v-4c0 3.314-2.6863 6-6 6h-84c-3.31371 0-6-2.686-6-6v4c0 3.314 2.68629 6 6 6z"/><path d="m90 124h-84v8h84zm-84 0c-1.10457 0-2-.895-2-2h-8c0 5.523 4.477153 10 10 10zm86-2c0 1.105-.8954 2-2 2v8c5.5228 0 10-4.477 10-10zm-2-2h-84v8h84zm-84 0c-1.10457 0-2-.895-2-2h-8c0 5.523 4.477153 10 10 10zm86-2c0 1.105-.8954 2-2 2v8c5.5228 0 10-4.477 10-10zm-88 4v-4h-8v4zm96 0v-4h-8v4z" mask="url(#a)"/></g></svg>