<svg fill="none" height="128" viewBox="0 0 96 128" width="96" xmlns="http://www.w3.org/2000/svg" xmlns:xlink="http://www.w3.org/1999/xlink"><filter id="a" color-interpolation-filters="sRGB" filterUnits="userSpaceOnUse" height="128" width="96" x="0" y="0"><feFlood flood-opacity="0" result="BackgroundImageFix"/><feBlend in="SourceGraphic" in2="BackgroundImageFix" mode="normal" result="shape"/><feColorMatrix in="SourceAlpha" result="hardAlpha" type="matrix" values="0 0 0 0 0 0 0 0 0 0 0 0 0 0 0 0 0 0 127 0"/><feOffset dy="-4"/><feComposite in2="hardAlpha" k2="-1" k3="1" operator="arithmetic"/><feColorMatrix type="matrix" values="0 0 0 0 0 0 0 0 0 0 0 0 0 0 0 0 0 0 0.16 0"/><feBlend in2="shape" mode="normal" result="effect1_innerShadow_19_3071"/></filter><linearGradient id="b" gradientUnits="userSpaceOnUse" x1="19.6883" x2="41.0559" y1="45.2635" y2="82.2712"><stop offset="0" stop-color="#18884f"/><stop offset=".5" stop-color="#117e43"/><stop offset="1" stop-color="#0b6631"/></linearGradient><clipPath id="c"><path d="m14 34h64v59.5349h-64z"/></clipPath><mask id="d" fill="#fff"><path d="m6 128h84c3.3137 0 6-2.686 6-6v-4c0 3.314-2.6863 6-6 6h-84c-3.31371 0-6-2.686-6-6v4c0 3.314 2.68629 6 6 6z" fill="#fff"/></mask><g filter="url(#a)"><path d="m0 6c0-3.31371 2.68629-6 6-6h84c3.3137 0 6 2.68629 6 6v116c0 3.314-2.6863 6-6 6h-84c-3.31371 0-6-2.686-6-6z" fill="#fcfcfd"/></g><path d="m0 6c0-3.31371 2.68629-6 6-6h84c3.3137 0 6 2.68629 6 6v116c0 3.314-2.6863 6-6 6h-84c-3.31371 0-6-2.686-6-6z" fill="#fcfcfd"/><path d="m.8 6c0-2.87188 2.32812-5.2 5.2-5.2h84c2.8719 0 5.2 2.32812 5.2 5.2v116c0 2.872-2.3281 5.2-5.2 5.2h-84c-2.87188 0-5.2-2.328-5.2-5.2z" stroke="#e5e5eb" stroke-width="1.6"/><path d="m6 128h84c3.3137 0 6-2.686 6-6v-4c0 3.314-2.6863 6-6 6h-84c-3.31371 0-6-2.686-6-6v4c0 3.314 2.68629 6 6 6z" fill="#e5e5eb"/><path d="m90 124h-84v8h84zm-84 0c-1.10457 0-2-.895-2-2h-8c0 5.523 4.477153 10 10 10zm86-2c0 1.105-.8954 2-2 2v8c5.5228 0 10-4.477 10-10zm-2-2h-84v8h84zm-84 0c-1.10457 0-2-.895-2-2h-8c0 5.523 4.477153 10 10 10zm86-2c0 1.105-.8954 2-2 2v8c5.5228 0 10-4.477 10-10zm-88 4v-4h-8v4zm96 0v-4h-8v4z" fill="#e5e5eb" mask="url(#d)"/><g clip-path="url(#c)"><path d="m54.1836 62.2783-25.3024-4.4651v32.9928c0 1.5067 1.2215 2.7282 2.7282 2.7282h43.6599c1.5068 0 2.7282-1.2215 2.7282-2.7282v-12.1556z" fill="#185c37"/><path d="m54.1836 34h-22.5742c-1.5067 0-2.7282 1.2214-2.7282 2.7282v12.1555l25.3024 14.8837 13.3953 4.4652 10.4186-4.4652v-14.8837z" fill="#21a366"/><path d="m28.8812 48.8835h25.3024v14.8838h-25.3024z" fill="#107c41"/><g fill="#000"><path d="m46.9903 45.907h-18.1091v37.2093h18.1091c1.5046-.0049 2.7232-1.2235 2.7281-2.7282v-31.7529c-.0049-1.5047-1.2235-2.7233-2.7281-2.7282z" opacity=".1"/><path d="m45.5019 47.3953h-16.6207v37.2093h16.6207c1.5047-.0049 2.7233-1.2235 2.7282-2.7282v-31.753c-.0049-1.5047-1.2235-2.7232-2.7282-2.7281z" opacity=".2"/><path d="m45.5019 47.3953h-16.6207v34.2325h16.6207c1.5047-.0049 2.7233-1.2235 2.7282-2.7282v-28.7762c-.0049-1.5047-1.2235-2.7232-2.7282-2.7281z" opacity=".2"/><path d="m44.0135 47.3953h-15.1323v34.2325h15.1323c1.5047-.0049 2.7233-1.2235 2.7282-2.7282v-28.7762c-.0049-1.5047-1.2235-2.7232-2.7282-2.7281z" opacity=".2"/></g><path d="m16.7282 47.3953h27.2878c1.5067 0 2.7282 1.2214 2.7282 2.7281v27.2878c0 1.5068-1.2215 2.7282-2.7282 2.7282h-27.2878c-1.5068.0001-2.7282-1.2214-2.7282-2.7281v-27.2879c0-1.5067 1.2214-2.7281 2.7282-2.7281z" fill="url(#b)"/><path d="m22.45 72.6354 5.7391-8.893-5.2584-8.844h4.2299l2.8696 5.6559c.265.5372.4465.9361.5448 1.1996h.0372c.1885-.4287.387-.8449.5953-1.2488l3.0676-5.6037h3.8831l-5.3924 8.7918 5.5294 8.9422h-4.1317l-3.3147-6.208c-.1561-.2642-.2886-.5416-.3959-.829h-.0491c-.0971.2816-.2259.5512-.384.8037l-3.4128 6.2333z" fill="#fff"/><path d="m75.2733 34h-21.0858v14.8837h23.814v-12.1555c0-1.5068-1.2215-2.7282-2.7282-2.7282z" fill="#33c481"/><path d="m54.1875 63.7676h23.814v14.8837h-23.814z" fill="#107c41"/></g></svg>