<svg fill="none" height="128" viewBox="0 0 96 128" width="96" xmlns="http://www.w3.org/2000/svg" xmlns:xlink="http://www.w3.org/1999/xlink"><filter id="a" color-interpolation-filters="sRGB" filterUnits="userSpaceOnUse" height="128" width="96" x="0" y="0"><feFlood flood-opacity="0" result="BackgroundImageFix"/><feBlend in="SourceGraphic" in2="BackgroundImageFix" mode="normal" result="shape"/><feColorMatrix in="SourceAlpha" result="hardAlpha" type="matrix" values="0 0 0 0 0 0 0 0 0 0 0 0 0 0 0 0 0 0 127 0"/><feOffset dy="-4"/><feComposite in2="hardAlpha" k2="-1" k3="1" operator="arithmetic"/><feColorMatrix type="matrix" values="0 0 0 0 0 0 0 0 0 0 0 0 0 0 0 0 0 0 0.16 0"/><feBlend in2="shape" mode="normal" result="effect1_innerShadow_19_3002"/></filter><clipPath id="b"><path d="m28 34h40v60h-40z"/></clipPath><g filter="url(#a)"><path d="m0 6c0-3.31371 2.68629-6 6-6h84c3.3137 0 6 2.68629 6 6v116c0 3.314-2.6863 6-6 6h-84c-3.31371 0-6-2.686-6-6z" fill="#fcfcfd"/></g><path d="m0 6c0-3.31371 2.68629-6 6-6h84c3.3137 0 6 2.68629 6 6v116c0 3.314-2.6863 6-6 6h-84c-3.31371 0-6-2.686-6-6z" fill="#fcfcfd"/><path d="m.8 6c0-2.87188 2.32812-5.2 5.2-5.2h84c2.8719 0 5.2 2.32812 5.2 5.2v116c0 2.872-2.3281 5.2-5.2 5.2h-84c-2.87188 0-5.2-2.328-5.2-5.2z" stroke="#e5e5eb" stroke-width="1.6"/><path d="m6 128h84c3.3137 0 6-2.686 6-6v-4c0 3.314-2.6863 6-6 6h-84c-3.31371 0-6-2.686-6-6v4c0 3.314 2.68629 6 6 6z" fill="#e5e5eb"/><g clip-path="url(#b)"><path d="m48 64c0-2.6522 1.0536-5.1957 2.9289-7.0711 1.8754-1.8753 4.4189-2.9289 7.0711-2.9289s5.1957 1.0536 7.0711 2.9289c1.8753 1.8754 2.9289 4.4189 2.9289 7.0711s-1.0536 5.1957-2.9289 7.0711c-1.8754 1.8753-4.4189 2.9289-7.0711 2.9289s-5.1957-1.0536-7.0711-2.9289c-1.8753-1.8754-2.9289-4.4189-2.9289-7.0711z" fill="#1abcfe"/><path d="m28 84c0-2.6522 1.0536-5.1957 2.9289-7.0711 1.8754-1.8753 4.4189-2.9289 7.0711-2.9289h10v10c0 2.6522-1.0536 5.1957-2.9289 7.0711-1.8754 1.8753-4.4189 2.9289-7.0711 2.9289s-5.1957-1.0536-7.0711-2.9289c-1.8753-1.8754-2.9289-4.4189-2.9289-7.0711z" fill="#0acf83"/><path d="m48 34v20h10c2.6522 0 5.1957-1.0536 7.0711-2.9289 1.8753-1.8754 2.9289-4.4189 2.9289-7.0711s-1.0536-5.1957-2.9289-7.0711c-1.8754-1.8753-4.4189-2.9289-7.0711-2.9289z" fill="#ff7262"/><path d="m28 44c0 2.6522 1.0536 5.1957 2.9289 7.0711 1.8754 1.8753 4.4189 2.9289 7.0711 2.9289h10v-20h-10c-2.6522 0-5.1957 1.0536-7.0711 2.9289-1.8753 1.8754-2.9289 4.4189-2.9289 7.0711z" fill="#f24e1e"/><path d="m28 64c0 2.6522 1.0536 5.1957 2.9289 7.0711 1.8754 1.8753 4.4189 2.9289 7.0711 2.9289h10v-20h-10c-2.6522 0-5.1957 1.0536-7.0711 2.9289-1.8753 1.8754-2.9289 4.4189-2.9289 7.0711z" fill="#a259ff"/></g></svg>