<svg fill="none" height="108" viewBox="0 0 128 108" width="128" xmlns="http://www.w3.org/2000/svg" xmlns:xlink="http://www.w3.org/1999/xlink"><filter id="a" color-interpolation-filters="sRGB" filterUnits="userSpaceOnUse" height="87.9998" width="128" x="0" y="20"><feFlood flood-opacity="0" result="BackgroundImageFix"/><feBlend in="SourceGraphic" in2="BackgroundImageFix" mode="normal" result="shape"/><feColorMatrix in="SourceAlpha" result="hardAlpha" type="matrix" values="0 0 0 0 0 0 0 0 0 0 0 0 0 0 0 0 0 0 127 0"/><feOffset dy="-8"/><feGaussianBlur stdDeviation="4"/><feComposite in2="hardAlpha" k2="-1" k3="1" operator="arithmetic"/><feColorMatrix type="matrix" values="0 0 0 0 0.321569 0 0 0 0 0.686275 0 0 0 0 0.878431 0 0 0 0.32 0"/><feBlend in2="shape" mode="normal" result="effect1_innerShadow_19_2921"/></filter><linearGradient id="b" gradientUnits="userSpaceOnUse" x1="63.999" x2="63.999" y1="20" y2="44"><stop offset="0" stop-color="#52afe0"/><stop offset="1" stop-color="#00529e" stop-opacity=".1"/></linearGradient><radialGradient id="c" cx="0" cy="0" gradientTransform="matrix(0 48 -76.8001 0 64 44)" gradientUnits="userSpaceOnUse" r="1"><stop offset="0" stop-color="#fff"/><stop offset="1" stop-color="#fff" stop-opacity="0"/></radialGradient><path d="m0 12c0-6.62743 5.37258-12 12-12h19.999c13.4737 0 15.1579 12 32 12h52.001c6.627 0 12 5.3726 12 12v71.9999c0 6.6271-5.373 12.0001-12 12.0001h-104c-6.62743 0-12-5.373-12-12.0001z" fill="#52afe0"/><path d="m0 12c0-6.62743 5.37258-12 12-12h19.999c13.4737 0 15.1579 12 32 12h52.001c6.627 0 12 5.3726 12 12v71.9999c0 6.6271-5.373 12.0001-12 12.0001h-104c-6.62743 0-12-5.373-12-12.0001z" fill="url(#b)" fill-opacity=".2"/><g filter="url(#a)"><path d="m0 95.9998v-55.9998c0-6.6274 5.37257-12 12-12h104c6.627 0 12 5.3726 12 12v55.9998c0 6.6272-5.373 12.0002-12 12.0002h-104c-6.62742 0-12-5.373-12-12.0002z" fill="#73d0fa"/><path d="m0 95.9998v-55.9998c0-6.6274 5.37257-12 12-12h104c6.627 0 12 5.3726 12 12v55.9998c0 6.6272-5.373 12.0002-12 12.0002h-104c-6.62742 0-12-5.373-12-12.0002z" fill="url(#c)" fill-opacity=".16"/></g></svg>