<svg fill="none" height="128" viewBox="0 0 96 128" width="96" xmlns="http://www.w3.org/2000/svg" xmlns:xlink="http://www.w3.org/1999/xlink"><filter id="a" color-interpolation-filters="sRGB" filterUnits="userSpaceOnUse" height="128" width="96" x="0" y="0"><feFlood flood-opacity="0" result="BackgroundImageFix"/><feBlend in="SourceGraphic" in2="BackgroundImageFix" mode="normal" result="shape"/><feColorMatrix in="SourceAlpha" result="hardAlpha" type="matrix" values="0 0 0 0 0 0 0 0 0 0 0 0 0 0 0 0 0 0 127 0"/><feOffset dy="-4"/><feComposite in2="hardAlpha" k2="-1" k3="1" operator="arithmetic"/><feColorMatrix type="matrix" values="0 0 0 0 0 0 0 0 0 0 0 0 0 0 0 0 0 0 0.16 0"/><feBlend in2="shape" mode="normal" result="effect1_innerShadow_19_3036"/></filter><g filter="url(#a)"><path d="m0 6c0-3.31371 2.68629-6 6-6h84c3.3137 0 6 2.68629 6 6v116c0 3.314-2.6863 6-6 6h-84c-3.31371 0-6-2.686-6-6z" fill="#fcfcfd"/></g><path d="m0 6c0-3.31371 2.68629-6 6-6h84c3.3137 0 6 2.68629 6 6v116c0 3.314-2.6863 6-6 6h-84c-3.31371 0-6-2.686-6-6z" fill="#fcfcfd"/><path d="m.8 6c0-2.87188 2.32812-5.2 5.2-5.2h84c2.8719 0 5.2 2.32812 5.2 5.2v116c0 2.872-2.3281 5.2-5.2 5.2h-84c-2.87188 0-5.2-2.328-5.2-5.2z" stroke="#e5e5eb" stroke-width="1.6"/><path d="m6 128h84c3.3137 0 6-2.686 6-6v-4c0 3.314-2.6863 6-6 6h-84c-3.31371 0-6-2.686-6-6v4c0 3.314 2.68629 6 6 6z" fill="#e5e5eb"/><path d="m27.3333 32h41.3334c6.2666 0 11.3333 5.1966 11.3333 11.6239v40.7522c0 6.4273-5.0667 11.6239-11.3333 11.6239h-41.3334c-6.2666 0-11.3333-5.1966-11.3333-11.6239v-40.7522c0-6.4273 5.0667-11.6239 11.3333-11.6239z" fill="#300"/><g fill="#ff9a00"><path d="m46.8391 72.0947h-10.1744l-2.0786 6.4274c-.0547.2461-.2735.4102-.5196.3829h-5.1419c-.3009 0-.3829-.1641-.3009-.4923l8.8069-25.3539c.082-.2735.1641-.5743.2735-.9025.1094-.5744.1641-1.1761.1641-1.7778-.0274-.1368.082-.2735.2188-.3009h.082 7.0017c.2188 0 .3282.0821.3556.2188l9.9829 28.171c.082.3008 0 .4376-.2735.4376h-5.7163c-.1914.0273-.3829-.1094-.4376-.3009zm-8.588-5.5521h6.947c-.1641-.5744-.3829-1.2581-.6291-1.9692-.2461-.7385-.4923-1.5317-.7384-2.3522-.2736-.8478-.5197-1.6684-.7932-2.5162-.2735-.8479-.5197-1.641-.7385-2.4342-.2188-.7658-.4102-1.4769-.6017-2.1333h-.0547c-.2461 1.176-.547 2.3521-.9299 3.5282-.4103 1.3128-.8205 2.6803-1.2581 4.0478-.3829 1.3949-.7932 2.6804-1.2034 3.8291z"/><path d="m61.6059 54.865c-.9025.0273-1.7778-.3282-2.4342-.9573-.629-.6838-.9572-1.5863-.9299-2.5162-.0273-.93.3282-1.8052.9846-2.4342.6564-.6291 1.5317-.9573 2.4342-.9573 1.0667 0 1.8872.3282 2.4889.9573.6017.6564.9299 1.5316.9026 2.4342.0273.9299-.3009 1.8324-.9573 2.5162-.6291.6564-1.559 1.012-2.4889.9573zm-3.0632 23.7401v-21.0598c0-.2735.1094-.3829.3555-.3829h5.4154c.2462 0 .3556.1367.3556.3829v21.0598c0 .3009-.1094.4376-.3556.4376h-5.3607c-.2735 0-.4102-.1641-.4102-.4376z"/></g></svg>