<svg fill="none" height="128" viewBox="0 0 128 128" width="128" xmlns="http://www.w3.org/2000/svg"><path d="m0 6c0-3.31371 2.68629-6 6-6h116c3.314 0 6 2.68629 6 6v116c0 3.314-2.686 6-6 6h-116c-3.31371 0-6-2.686-6-6z" fill="#fcfcfd"/><path d="m83.0323 70.2095c.4901-.6125 1.4264-.5979 1.8971.0296l12.6306 16.8409c.5933.7911.0289 1.92-.96 1.92h-64.8873c-1.0418 0-1.5887-1.2364-.888-2.0072l22.3287-24.5616c.4609-.507 1.252-.5258 1.7365-.0413l18.1621 18.162c.5057.5057 1.3387.4596 1.7855-.0989z" fill="#8e8e94"/><path d="m86.5 49c0 5.5228-4.4772 10-10 10-5.5229 0-10-4.4772-10-10s4.4771-10 10-10c5.5228 0 10 4.4772 10 10z" fill="#8e8e94"/><path d="m.8 6c0-2.87188 2.32812-5.2 5.2-5.2h116c2.872 0 5.2 2.32812 5.2 5.2v116c0 2.872-2.328 5.2-5.2 5.2h-116c-2.87188 0-5.2-2.328-5.2-5.2z" stroke="#e5e5eb" stroke-width="1.6"/><path d="m6 128h116c3.314 0 6-2.686 6-6v-4c0 3.314-2.686 6-6 6h-116c-3.31371 0-6-2.686-6-6v4c0 3.314 2.68629 6 6 6z" fill="#e5e5eb"/></svg>