<svg fill="none" height="128" viewBox="0 0 96 128" width="96" xmlns="http://www.w3.org/2000/svg" xmlns:xlink="http://www.w3.org/1999/xlink"><filter id="a" color-interpolation-filters="sRGB" filterUnits="userSpaceOnUse" height="128" width="96" x="0" y="-.000488"><feFlood flood-opacity="0" result="BackgroundImageFix"/><feBlend in="SourceGraphic" in2="BackgroundImageFix" mode="normal" result="shape"/><feColorMatrix in="SourceAlpha" result="hardAlpha" type="matrix" values="0 0 0 0 0 0 0 0 0 0 0 0 0 0 0 0 0 0 127 0"/><feOffset dy="-4"/><feComposite in2="hardAlpha" k2="-1" k3="1" operator="arithmetic"/><feColorMatrix type="matrix" values="0 0 0 0 0 0 0 0 0 0 0 0 0 0 0 0 0 0 0.16 0"/><feBlend in2="shape" mode="normal" result="effect1_innerShadow_19_3046"/></filter><g filter="url(#a)"><path d="m0 5.99951c0-3.31371 2.68629-5.99999828 6-5.99999828h84c3.3137 0 6 2.68628828 6 5.99999828v116.00049c0 3.313-2.6863 6-6 6h-84c-3.31371 0-6-2.687-6-6z" fill="#fcfcfd"/></g><path d="m0 5.99951c0-3.31371 2.68629-5.99999828 6-5.99999828h84c3.3137 0 6 2.68628828 6 5.99999828v116.00049c0 3.313-2.6863 6-6 6h-84c-3.31371 0-6-2.687-6-6z" fill="#fcfcfd"/><path d="m.8 5.99951c0-2.87188 2.32812-5.199998 5.2-5.199998h84c2.8719 0 5.2 2.328118 5.2 5.199998v116.00049c0 2.871-2.3281 5.2-5.2 5.2h-84c-2.87188 0-5.2-2.329-5.2-5.2z" stroke="#e5e5eb" stroke-width="1.6"/><path d="m6 128h84c3.3137 0 6-2.687 6-6v-4c0 3.313-2.6863 6-6 6h-84c-3.31371 0-6-2.687-6-6v4c0 3.313 2.68629 6 6 6z" fill="#e5e5eb"/><path d="m27.3333 31.9995h41.3334c6.2666 0 11.3333 5.1966 11.3333 11.6239v40.7522c0 6.4273-5.0667 11.6239-11.3333 11.6239h-41.3334c-6.2666 0-11.3333-5.1966-11.3333-11.6239v-40.7522c0-6.4273 5.0667-11.6239 11.3333-11.6239z" fill="#49021f"/><g fill="#f36"><path d="m38.0991 50.7118v28.1709c0 .3009-.1367.4376-.3829.4376h-5.3606c-.2462 0-.3556-.1367-.3556-.4376v-28.1709c0-.2462.1368-.3556.3829-.3556h5.3333c.1641-.0273.3282.0821.3556.2735.0273.0274.0273.0547.0273.0821z"/><path d="m53.9062 79.6482c-2.024.0274-4.0479-.3829-5.8804-1.2308-1.723-.7931-3.1453-2.1059-4.1299-3.7196-1.0119-1.6684-1.5042-3.747-1.5042-6.2359-.0274-2.0239.4923-4.0205 1.5042-5.771 1.0393-1.7777 2.5436-3.2547 4.3487-4.2393 1.9146-1.0666 4.212-1.5863 6.9197-1.5863.1368 0 .3282 0 .5744.0274.2461.0273.5196.0273.8478.0547v-8.6428c0-.1914.0821-.3008.2735-.3008h5.5522c.1367-.0274.2461.082.2735.1914v.0547 26.0376c0 .4923.0273 1.0393.0547 1.641.0547.5744.082 1.1214.1094 1.5864 0 .1914-.0821.3555-.2735.4376-1.4223.6017-2.9265 1.0393-4.4582 1.3128-1.3675.2462-2.7897.3829-4.2119.3829zm2.6803-5.4701v-12.0342c-.2461-.0547-.4923-.1094-.7384-.1367-.3009-.0274-.6017-.0547-.9026-.0547-1.0667 0-2.1333.2188-3.0906.7111-.9299.4649-1.7231 1.1487-2.3248 2.0239s-.9026 2.0513-.9026 3.4735c-.0273.9573.1368 1.9146.465 2.8171.2735.7385.6838 1.3949 1.2308 1.9419.5196.4923 1.1487.8752 1.8598 1.094.7385.2462 1.5043.3556 2.2701.3556.4102 0 .7932-.0274 1.1487-.0547.3556.0273.6838-.0274.9846-.1368z"/></g></svg>