<svg fill="none" height="128" viewBox="0 0 96 128" width="96" xmlns="http://www.w3.org/2000/svg" xmlns:xlink="http://www.w3.org/1999/xlink"><filter id="a" color-interpolation-filters="sRGB" filterUnits="userSpaceOnUse" height="128" width="96" x="0" y="0"><feFlood flood-opacity="0" result="BackgroundImageFix"/><feBlend in="SourceGraphic" in2="BackgroundImageFix" mode="normal" result="shape"/><feColorMatrix in="SourceAlpha" result="hardAlpha" type="matrix" values="0 0 0 0 0 0 0 0 0 0 0 0 0 0 0 0 0 0 127 0"/><feOffset dy="-4"/><feComposite in2="hardAlpha" k2="-1" k3="1" operator="arithmetic"/><feColorMatrix type="matrix" values="0 0 0 0 0 0 0 0 0 0 0 0 0 0 0 0 0 0 0.16 0"/><feBlend in2="shape" mode="normal" result="effect1_innerShadow_19_3026"/></filter><g filter="url(#a)"><path d="m0 6c0-3.31371 2.68629-6 6-6h84c3.3137 0 6 2.68629 6 6v116c0 3.314-2.6863 6-6 6h-84c-3.31371 0-6-2.686-6-6z" fill="#fcfcfd"/></g><path d="m0 6c0-3.31371 2.68629-6 6-6h84c3.3137 0 6 2.68629 6 6v116c0 3.314-2.6863 6-6 6h-84c-3.31371 0-6-2.686-6-6z" fill="#fcfcfd"/><path d="m.8 6c0-2.87188 2.32812-5.2 5.2-5.2h84c2.8719 0 5.2 2.32812 5.2 5.2v116c0 2.872-2.3281 5.2-5.2 5.2h-84c-2.87188 0-5.2-2.328-5.2-5.2z" stroke="#e5e5eb" stroke-width="1.6"/><path d="m6 128h84c3.3137 0 6-2.686 6-6v-4c0 3.314-2.6863 6-6 6h-84c-3.31371 0-6-2.686-6-6v4c0 3.314 2.68629 6 6 6z" fill="#e5e5eb"/><path d="m27.3333 32h41.3334c6.2666 0 11.3333 5.1966 11.3333 11.6239v40.7522c0 6.4273-5.0667 11.6239-11.3333 11.6239h-41.3334c-6.2666 0-11.3333-5.1966-11.3333-11.6239v-40.7522c0-6.4273 5.0667-11.6239 11.3333-11.6239z" fill="#001e36"/><g fill="#31a8ff"><path d="m29.6211 76.882v-28.1436c0-.1915.082-.3009.2733-.3009.4647 0 .902 0 1.5307-.0273.656-.0274 1.3393-.0274 2.0773-.0547.738-.0274 1.5307-.0274 2.378-.0547.8474-.0274 1.6674-.0274 2.4874-.0274 2.2413 0 4.1.2735 5.6306.8479 1.3667.465 2.624 1.2308 3.6627 2.2427.8747.8753 1.558 1.9419 1.9953 3.118.41 1.1487.6287 2.3248.6287 3.5555 0 2.3522-.5467 4.2941-1.64 5.8257s-2.624 2.6803-4.4007 3.3367c-1.8586.6838-3.9086.93-6.15.93-.656 0-1.0933-.0001-1.3666-.0274-.2734-.0274-.656-.0274-1.1754-.0274v8.7795c.0274.1915-.1093.3556-.3006.3829-.0274 0-.0547 0-.1094 0h-5.1933c-.2187 0-.328-.1094-.328-.3555zm5.9587-23.1658v9.1897c.3826.0274.738.0547 1.066.0547h1.4486c1.066 0 2.132-.1641 3.1434-.4923.8746-.2461 1.64-.7658 2.2413-1.4496.574-.6837.8473-1.6136.8473-2.8171.0274-.8478-.1913-1.6957-.6286-2.4341-.4647-.7112-1.1207-1.2582-1.9134-1.559-1.0113-.4103-2.1046-.5744-3.2253-.547-.7107 0-1.3393 0-1.8587.0273-.5466-.0273-.9293 0-1.1206.0274z"/><path d="m67.3438 61.2383c-.82-.4376-1.6947-.7384-2.624-.9299-1.0113-.2188-2.0227-.3555-3.0613-.3555-.5467-.0274-1.1207.0547-1.64.1914-.3554.0821-.656.2735-.8474.547-.1366.2188-.2186.4923-.2186.7385 0 .2461.1093.4923.2733.7111.246.3008.574.547.9293.7385.6287.3282 1.2847.629 1.9407.9025 1.476.4923 2.8973 1.1761 4.2093 1.9966.902.5744 1.64 1.3402 2.1594 2.2701.4373.8752.656 1.8325.6286 2.8171.0274 1.2854-.3553 2.5709-1.066 3.6376-.7653 1.094-1.8313 1.9419-3.0613 2.4342-1.3393.5743-2.9793.8752-4.9473.8752-1.2574 0-2.4874-.1094-3.7174-.3556-.9566-.1641-1.9133-.4649-2.788-.8752-.1913-.1094-.328-.3008-.3006-.5196v-4.759c0-.0821.0273-.1915.1093-.2462s.164-.0273.246.0274c1.066.629 2.1867 1.0666 3.3893 1.3401 1.0387.2736 2.132.4103 3.2254.4103 1.0386 0 1.7766-.1367 2.2686-.3829.4374-.1915.738-.6564.738-1.1487 0-.3829-.2186-.7385-.656-1.094-.4373-.3556-1.3393-.7658-2.6786-1.2855-1.394-.4923-2.6787-1.1487-3.8814-1.9692-.8473-.6017-1.558-1.3949-2.0773-2.3248-.4373-.8752-.656-1.8325-.6287-2.7898 0-1.176.328-2.2974.9294-3.3094.6833-1.094 1.6946-1.9692 2.87-2.5162 1.2846-.6564 2.8973-.9573 4.838-.9573 1.1206 0 2.2686.0821 3.3893.2462.82.1094 1.6127.3282 2.3507.629.1093.0274.2186.1368.2733.2462.0273.1094.0547.2188.0547.3282v4.4581c0 .1094-.0547.2188-.1367.2735-.246.0547-.3827.0547-.492 0z"/></g></svg>