<svg fill="none" height="96" viewBox="0 0 128 96" width="128" xmlns="http://www.w3.org/2000/svg" xmlns:xlink="http://www.w3.org/1999/xlink"><linearGradient id="a" gradientUnits="userSpaceOnUse" x1="37.6883" x2="59.0559" y1="29.2635" y2="66.2712"><stop offset="0" stop-color="#ca4c28"/><stop offset=".5" stop-color="#c5401e"/><stop offset="1" stop-color="#b62f14"/></linearGradient><clipPath id="b"><path d="m32 18h64v59.5349h-64z"/></clipPath><mask id="c" fill="#fff"><path d="m6 96h116c3.314 0 6-2.6863 6-6v-4c0 3.3137-2.686 6-6 6h-116c-3.31371 0-6-2.6863-6-6v4c0 3.3137 2.68629 6 6 6z" fill="#fff"/></mask><path d="m6 96c-3.31371 0-6-2.6863-6-6v-84c0-3.31371 2.68629-6 6-6h116c3.314 0 6 2.68629 6 6v84c0 3.3137-2.686 6-6 6z" fill="#fcfcfd"/><path d="m.8 6c0-2.87188 2.32812-5.2 5.2-5.2h116c2.872 0 5.2 2.32812 5.2 5.2v84c0 2.8719-2.328 5.2-5.2 5.2h-116c-2.87188 0-5.2-2.3281-5.2-5.2z" stroke="#e5e5eb" stroke-width="1.6"/><path d="m6 96h116c3.314 0 6-2.6863 6-6v-4c0 3.3137-2.686 6-6 6h-116c-3.31371 0-6-2.6863-6-6v4c0 3.3137 2.68629 6 6 6z" fill="#e5e5eb"/><path d="m122 92h-116v8h116zm-116 0c-1.10457 0-2-.8954-2-2h-8c0 5.5228 4.477153 10 10 10zm118-2c0 1.1046-.895 2-2 2v8c5.523 0 10-4.4772 10-10zm-2-2h-116v8h116zm-116 0c-1.10457 0-2-.8954-2-2h-8c0 5.5228 4.477153 10 10 10zm118-2c0 1.1046-.895 2-2 2v8c5.523 0 10-4.4772 10-10zm-120 4v-4h-8v4zm128 0v-4h-8v4z" fill="#e5e5eb" mask="url(#c)"/><g clip-path="url(#b)"><path d="m70.6981 50.7442-4.4651-32.7442h-.3334c-16.2363.0474-29.3866 13.1977-29.434 29.434v.3334z" fill="#ed6c47"/><path d="m66.5678 18h-.3334v29.7674l14.8837 5.9535 14.8837-5.9535v-.3334c-.0474-16.2363-13.1977-29.3866-29.434-29.434z" fill="#ff8f6b"/><path d="m96.0005 47.7676v.3274c-.0466 16.2399-13.2001 29.3934-29.44 29.44h-.6549c-16.2399-.0466-29.3934-13.2001-29.44-29.44v-.3274z" fill="#d35230"/><g fill="#000"><path d="m67.7214 32.6307v31.7619c-.0074 1.1036-.6762 2.0951-1.6967 2.5153-.325.1374-.6742.2083-1.027.2084h-21.507c-.4167-.4763-.8186-.9823-1.1907-1.4884-3.7919-5.0584-5.8393-11.2111-5.8344-17.533v-.6549c-.0087-5.7022 1.6578-11.2814 4.7926-16.0446.3274-.5061.6697-1.0121 1.0418-1.4884h22.6977c1.4996.0113 2.7124 1.2242 2.7237 2.7237z" opacity=".1"/><path d="m66.2331 34.119v31.7619c-.0001.3528-.071.702-.2084 1.0269-.4202 1.0205-1.4117 1.6894-2.5154 1.6968h-18.6641c-.471-.4781-.9228-.9746-1.3545-1.4884-.4167-.4763-.8186-.9823-1.1907-1.4884-3.7919-5.0584-5.8393-11.2111-5.8344-17.533v-.6549c-.0087-5.7022 1.6578-11.2814 4.7926-16.0446h22.2511c1.4996.0113 2.7125 1.2241 2.7238 2.7237z" opacity=".2"/><path d="m66.2331 34.119v28.7851c-.0114 1.4995-1.2242 2.7124-2.7238 2.7237h-21.2093c-3.7919-5.0584-5.8393-11.2111-5.8344-17.533v-.6549c-.0087-5.7022 1.6578-11.2814 4.7926-16.0446h22.2511c1.4996.0113 2.7124 1.2241 2.7238 2.7237z" opacity=".2"/><path d="m64.7447 34.119v28.7851c-.0114 1.4995-1.2242 2.7124-2.7237 2.7237h-19.721c-3.7919-5.0584-5.8393-11.2111-5.8344-17.533v-.6549c-.0087-5.7022 1.6578-11.2814 4.7926-16.0446h20.7627c1.4996.0113 2.7124 1.2241 2.7238 2.7237z" opacity=".2"/></g><path d="m34.7282 31.3953h27.2878c1.5067 0 2.7282 1.2214 2.7282 2.7281v27.2878c0 1.5068-1.2215 2.7283-2.7282 2.7283h-27.2878c-1.5067 0-2.7282-1.2215-2.7282-2.7282v-27.2879c0-1.5067 1.2215-2.7281 2.7282-2.7281z" fill="url(#a)"/><path d="m48.6708 38.6724c1.7763-.1198 3.5374.3961 4.9682 1.4557 1.1934 1.0654 1.831 2.62 1.7295 4.2165.0195 1.1098-.2763 2.2024-.8528 3.1509-.5838.9321-1.4248 1.6755-2.4216 2.1403-1.1396.53-2.3856.7917-3.6421.765h-3.4515v6.4149h-3.5349v-18.1433zm-3.6733 8.9571h3.0422c.9645.0708 1.9215-.2147 2.6896-.8023.6352-.6094.9682-1.4688.9093-2.3471 0-1.9994-1.1619-2.9991-3.4857-2.9991h-3.1554z" fill="#fff"/></g></svg>