<svg fill="none" height="96" viewBox="0 0 128 96" width="128" xmlns="http://www.w3.org/2000/svg"><path d="m6 95.9999c-3.31371 0-6-2.6863-6-6v-84.00002c0-3.31371 2.68629-6.00000207 6-6.00000207h116c3.314 0 6 2.68629207 6 6.00000207v84.00002c0 3.3137-2.686 6-6 6z" fill="#fcfcfd"/><path d="m86.8239 47.9878c.663 0 1.2037.5379 1.1706 1.2001-.2166 4.328-1.6011 8.5249-4.0168 12.1403-2.6385 3.9488-6.3887 7.0265-10.7764 8.844-4.3876 1.8174-9.2157 2.2929-13.8736 1.3664s-8.9365-3.2135-12.2947-6.5716c-3.3581-3.3582-5.6451-7.6368-6.5716-12.2947s-.451-9.486 1.3664-13.8736c1.8175-4.3877 4.8952-8.1379 8.844-10.7764 3.6154-2.4157 7.8123-3.8002 12.1403-4.0168.6622-.0331 1.2001.5075 1.2001 1.1706v21.611c0 .6631.5376 1.2007 1.2007 1.2007z" fill="#f65f31"/><path d="m94.8279 39.9837c.6631 0 1.2038-.5379 1.1707-1.2001-.1373-2.7434-.7445-5.4459-1.7979-7.989-1.2067-2.9133-2.9754-5.5604-5.2052-7.7901-2.2297-2.2298-4.8768-3.9985-7.7901-5.2052-2.5431-1.0534-5.2456-1.6606-7.989-1.7979-.6622-.0331-1.2001.5076-1.2001 1.1707v21.611c0 .663.5376 1.2006 1.2006 1.2006z" fill="#f65f31"/><path d="m.8 5.99988c0-2.87188 2.32812-5.200002 5.2-5.200002h116c2.872 0 5.2 2.328122 5.2 5.200002v84.00002c0 2.8719-2.328 5.2-5.2 5.2h-116c-2.87188 0-5.2-2.3281-5.2-5.2z" stroke="#e5e5eb" stroke-width="1.6"/><path d="m6 96h116c3.314 0 6-2.6863 6-6v-4c0 3.3137-2.686 6-6 6h-116c-3.31371 0-6-2.6863-6-6v4c0 3.3137 2.68629 6 6 6z" fill="#e5e5eb"/></svg>