<svg fill="none" height="128" viewBox="0 0 96 128" width="96" xmlns="http://www.w3.org/2000/svg" xmlns:xlink="http://www.w3.org/1999/xlink"><filter id="a" color-interpolation-filters="sRGB" filterUnits="userSpaceOnUse" height="128" width="96" x="0" y="0"><feFlood flood-opacity="0" result="BackgroundImageFix"/><feBlend in="SourceGraphic" in2="BackgroundImageFix" mode="normal" result="shape"/><feColorMatrix in="SourceAlpha" result="hardAlpha" type="matrix" values="0 0 0 0 0 0 0 0 0 0 0 0 0 0 0 0 0 0 127 0"/><feOffset dy="-4"/><feComposite in2="hardAlpha" k2="-1" k3="1" operator="arithmetic"/><feColorMatrix type="matrix" values="0 0 0 0 0 0 0 0 0 0 0 0 0 0 0 0 0 0 0.16 0"/><feBlend in2="shape" mode="normal" result="effect1_innerShadow_19_2956"/></filter><mask id="b" fill="#fff"><path d="m6 128h84c3.3137 0 6-2.686 6-6v-4c0 3.314-2.6863 6-6 6h-84c-3.31371 0-6-2.686-6-6v4c0 3.314 2.68629 6 6 6z" fill="#fff"/></mask><g filter="url(#a)"><path d="m0 6c0-3.31371 2.68629-6 6-6h84c3.3137 0 6 2.68629 6 6v116c0 3.314-2.6863 6-6 6h-84c-3.31371 0-6-2.686-6-6z" fill="#fcfcfd"/></g><path d="m0 6c0-3.31371 2.68629-6 6-6h84c3.3137 0 6 2.68629 6 6v116c0 3.314-2.6863 6-6 6h-84c-3.31371 0-6-2.686-6-6z" fill="#fcfcfd"/><path d="m.8 6c0-2.87188 2.32812-5.2 5.2-5.2h84c2.8719 0 5.2 2.32812 5.2 5.2v116c0 2.872-2.3281 5.2-5.2 5.2h-84c-2.87188 0-5.2-2.328-5.2-5.2z" stroke="#e5e5eb" stroke-width="1.6"/><path d="m6 128h84c3.3137 0 6-2.686 6-6v-4c0 3.314-2.6863 6-6 6h-84c-3.31371 0-6-2.686-6-6v4c0 3.314 2.68629 6 6 6z" fill="#e5e5eb"/><path d="m90 124h-84v8h84zm-84 0c-1.10457 0-2-.895-2-2h-8c0 5.523 4.477153 10 10 10zm86-2c0 1.105-.8954 2-2 2v8c5.5228 0 10-4.477 10-10zm-2-2h-84v8h84zm-84 0c-1.10457 0-2-.895-2-2h-8c0 5.523 4.477153 10 10 10zm86-2c0 1.105-.8954 2-2 2v8c5.5228 0 10-4.477 10-10zm-88 4v-4h-8v4zm96 0v-4h-8v4z" fill="#e5e5eb" mask="url(#b)"/><path d="m31.119 52.6c2.304 0 4.064.6187 5.28 1.856 1.2373 1.216 1.856 2.8267 1.856 4.832 0 2.0267-.608 3.6267-1.824 4.8s-2.9867 1.76-5.312 1.76h-4.352v9.152h-4.672v-22.4zm-.672 9.376c1.024 0 1.8027-.2027 2.336-.608.5547-.4053.832-1.0773.832-2.016s-.2773-1.6107-.832-2.016c-.5333-.4053-1.312-.608-2.336-.608h-3.68v5.248zm9.8153 13.024v-22.4h6.88c2.7093 0 4.9386.4907 6.688 1.472 1.7706.9813 3.0613 2.3147 3.872 4 .8106 1.664 1.216 3.5733 1.216 5.728s-.4054 4.0747-1.216 5.76c-.8107 1.664-2.1014 2.9867-3.872 3.968-1.7494.9813-3.9787 1.472-6.688 1.472zm6.656-4.128c2.4533 0 4.2666-.64 5.44-1.92 1.1733-1.3013 1.76-3.0187 1.76-5.152s-.5867-3.84-1.76-5.12c-1.1734-1.3013-2.9867-1.952-5.44-1.952h-1.984v14.144zm28.2817-18.272v4.128h-9.088v4.8h7.84v4.128h-7.84v9.344h-4.672v-22.4z" fill="#ff0d00"/></svg>