<svg fill="none" height="108" viewBox="0 0 128 108" width="128" xmlns="http://www.w3.org/2000/svg" xmlns:xlink="http://www.w3.org/1999/xlink"><filter id="a" color-interpolation-filters="sRGB" filterUnits="userSpaceOnUse" height="87.9998" width="128" x="0" y="20"><feFlood flood-opacity="0" result="BackgroundImageFix"/><feBlend in="SourceGraphic" in2="BackgroundImageFix" mode="normal" result="shape"/><feColorMatrix in="SourceAlpha" result="hardAlpha" type="matrix" values="0 0 0 0 0 0 0 0 0 0 0 0 0 0 0 0 0 0 127 0"/><feOffset dy="-8"/><feGaussianBlur stdDeviation="4"/><feComposite in2="hardAlpha" k2="-1" k3="1" operator="arithmetic"/><feColorMatrix type="matrix" values="0 0 0 0 0.321569 0 0 0 0 0.686275 0 0 0 0 0.878431 0 0 0 0.32 0"/><feBlend in2="shape" mode="normal" result="effect1_innerShadow_736_1942"/></filter><linearGradient id="b" gradientUnits="userSpaceOnUse" x1="63.999" x2="63.999" y1="20" y2="44"><stop offset="0" stop-color="#52afe0"/><stop offset="1" stop-color="#00529e" stop-opacity=".1"/></linearGradient><radialGradient id="c" cx="0" cy="0" gradientTransform="matrix(0 48 -76.8001 0 64 44)" gradientUnits="userSpaceOnUse" r="1"><stop offset="0" stop-color="#fff"/><stop offset="1" stop-color="#fff" stop-opacity="0"/></radialGradient><path d="m0 12c0-6.62743 5.37258-12 12-12h19.999c13.4737 0 15.1579 12 32 12h52.001c6.627 0 12 5.3726 12 12v71.9999c0 6.6271-5.373 12.0001-12 12.0001h-104c-6.62743 0-12-5.373-12-12.0001z" fill="#52afe0"/><path d="m0 12c0-6.62743 5.37258-12 12-12h19.999c13.4737 0 15.1579 12 32 12h52.001c6.627 0 12 5.3726 12 12v71.9999c0 6.6271-5.373 12.0001-12 12.0001h-104c-6.62743 0-12-5.373-12-12.0001z" fill="url(#b)" fill-opacity=".2"/><g filter="url(#a)"><path d="m0 95.9998v-55.9998c0-6.6274 5.37257-12 12-12h104c6.627 0 12 5.3726 12 12v55.9998c0 6.6272-5.373 12.0002-12 12.0002h-104c-6.62742 0-12-5.373-12-12.0002z" fill="#73d0fa"/><path d="m0 95.9998v-55.9998c0-6.6274 5.37257-12 12-12h104c6.627 0 12 5.3726 12 12v55.9998c0 6.6272-5.373 12.0002-12 12.0002h-104c-6.62742 0-12-5.373-12-12.0002z" fill="url(#c)" fill-opacity=".16"/></g><path d="m61.8019 86.9362h25.8019c1.6161 0 2.7528-.2329 3.4101-.6985.6574-.4519.9861-1.1299.9861-2.0337 0-1.3148-.404-2.7049-1.212-4.1703-.7944-1.4653-1.9448-2.8349-3.4512-4.1085-1.4928-1.2874-3.3075-2.3282-5.4439-3.1226-2.1228-.808-4.5195-1.212-7.19-1.212-2.6569 0-5.0536.404-7.1901 1.212-2.1227.7944-3.9374 1.8352-5.4438 3.1226-1.5065 1.2736-2.6569 2.6432-3.4512 4.1085-.7944 1.4654-1.1915 2.8555-1.1915 4.1703 0 .9038.3218 1.5818.9655 2.0337.6574.4656 1.7941.6985 3.4101.6985zm12.9215-19.0228c1.4654 0 2.8212-.3971 4.0675-1.1915 1.2463-.808 2.246-1.8968 2.9993-3.2663.7532-1.3695 1.1298-2.9102 1.1298-4.6221 0-1.6846-.3766-3.191-1.1298-4.5195-.7533-1.3421-1.753-2.3967-2.9993-3.1636s-2.6021-1.1504-4.0675-1.1504-2.8212.3903-4.0675 1.1709c-1.2463.7807-2.2529 1.8421-3.0198 3.1842-.7532 1.3421-1.1299 2.8486-1.1299 4.5194 0 1.6983.3767 3.2321 1.1299 4.6017.7532 1.3558 1.753 2.4377 2.9993 3.2457 1.2462.7944 2.6089 1.1915 4.088 1.1915zm-35.1078 19.0228h15.592c-.5341-.7807-.7874-1.7188-.7601-2.8144.0274-1.0956.2808-2.246.7601-3.4512.4794-1.2052 1.1367-2.3693 1.9722-3.4923.8491-1.1367 1.8283-2.1365 2.9376-2.9993-1.1504-.7669-2.472-1.3969-3.9648-1.8899-1.4791-.5068-3.1773-.7601-5.0946-.7601-2.3145 0-4.4031.3834-6.2656 1.1504-1.8489.7532-3.4307 1.753-4.7454 2.9992-1.3011 1.2326-2.3009 2.5816-2.9993 4.047-.6985 1.4654-1.0477 2.9102-1.0477 4.3346 0 .9175.2739 1.6228.8217 2.1159.5615.5067 1.4928.7601 2.7939.7601zm11.4424-18.5503c1.2873 0 2.472-.3492 3.5539-1.0477 1.0819-.6984 1.9516-1.6434 2.6089-2.8349.6574-1.2052.9861-2.5473.9861-4.0264s-.3287-2.7938-.9861-3.9443c-.6573-1.1641-1.5338-2.0748-2.6295-2.7322-1.0819-.671-2.2597-1.0066-3.5333-1.0066-1.26 0-2.4378.3424-3.5334 1.0272-1.0819.6711-1.9584 1.5886-2.6295 2.7527s-.9998 2.4789-.9861 3.9443c0 1.4654.3287 2.7938.9861 3.9853s1.527 2.1365 2.6089 2.8349c1.0957.6985 2.2803 1.0477 3.554 1.0477z" fill="#52afe0"/></svg>