<svg fill="none" height="128" viewBox="0 0 96 128" width="96" xmlns="http://www.w3.org/2000/svg" xmlns:xlink="http://www.w3.org/1999/xlink"><filter id="a" color-interpolation-filters="sRGB" filterUnits="userSpaceOnUse" height="128" width="96" x="0" y=".000488"><feFlood flood-opacity="0" result="BackgroundImageFix"/><feBlend in="SourceGraphic" in2="BackgroundImageFix" mode="normal" result="shape"/><feColorMatrix in="SourceAlpha" result="hardAlpha" type="matrix" values="0 0 0 0 0 0 0 0 0 0 0 0 0 0 0 0 0 0 127 0"/><feOffset dy="-4"/><feComposite in2="hardAlpha" k2="-1" k3="1" operator="arithmetic"/><feColorMatrix type="matrix" values="0 0 0 0 0 0 0 0 0 0 0 0 0 0 0 0 0 0 0.16 0"/><feBlend in2="shape" mode="normal" result="effect1_innerShadow_19_3014"/></filter><g filter="url(#a)"><path d="m0 6.00049c0-3.31371 2.68629-6.00000172 6-6.00000172h84c3.3137 0 6 2.68629172 6 6.00000172v115.99951c0 3.314-2.6863 6-6 6h-84c-3.31371 0-6-2.686-6-6z" fill="#fcfcfd"/></g><path d="m0 6.00049c0-3.31371 2.68629-6.00000172 6-6.00000172h84c3.3137 0 6 2.68629172 6 6.00000172v115.99951c0 3.314-2.6863 6-6 6h-84c-3.31371 0-6-2.686-6-6z" fill="#fcfcfd"/><path d="m.8 6.00049c0-2.87188 2.32812-5.200002 5.2-5.200002h84c2.8719 0 5.2 2.328122 5.2 5.200002v115.99951c0 2.872-2.3281 5.2-5.2 5.2h-84c-2.87188 0-5.2-2.328-5.2-5.2z" stroke="#e5e5eb" stroke-width="1.6"/><path d="m6 128h84c3.3137 0 6-2.686 6-6v-4c0 3.314-2.6863 6-6 6h-84c-3.31371 0-6-2.686-6-6v4c0 3.314 2.68629 6 6 6z" fill="#e5e5eb"/><path d="m28.9355 55.5767 19 37.7283-31.9355-37.7283z" fill="#ea6c00"/><path d="m66.9355 55.5767-19 37.7283 31.9355-37.7283z" fill="#ea6c00"/><path d="m28.9375 55.5767h38.0001l-19.0001 37.7282z" fill="#fdad00"/><path d="m47.9375 34.6675-18 1.9305-1 18.9787z" fill="#fdd231"/><path d="m47.9375 34.6675 18.0002 1.9305.9999 18.9787z" fill="#fdd231"/><path d="m79.8711 55.5763-13.9356-18.9786 1.0001 18.9786z" fill="#fdad00"/><path d="m16 55.5763 13.9354-18.9786-.9999 18.9786z" fill="#fdad00"/><path d="m47.9375 34.6675-19 20.9092h38.0001z" fill="#feeeb7"/></svg>