<svg fill="none" height="128" viewBox="0 0 96 128" width="96" xmlns="http://www.w3.org/2000/svg" xmlns:xlink="http://www.w3.org/1999/xlink"><mask id="a" fill="#fff"><path d="m6 128h84c3.3137 0 6-2.686 6-6v-4c0 3.314-2.6863 6-6 6h-84c-3.31371 0-6-2.686-6-6v4c0 3.314 2.68629 6 6 6z" fill="#fff"/></mask><path d="m0 6c0-3.31371 2.68629-6 6-6h84c3.3137 0 6 2.68629 6 6v116c0 3.314-2.6863 6-6 6h-84c-3.31371 0-6-2.686-6-6z" fill="#fcfcfd"/><g fill="#8e8e94"><path d="m76 46v-4c0-1.1046-.8954-2-2-2h-52c-1.1046 0-2 .8954-2 2v4c0 1.1046.8954 2 2 2h52c1.1046 0 2-.8954 2-2z"/><path d="m76 64v-4c0-1.1046-.8954-2-2-2h-52c-1.1046 0-2 .8954-2 2v4c0 1.1046.8954 2 2 2h52c1.1046 0 2-.8954 2-2z"/><path d="m60 82v-4c0-1.1046-.8954-2-2-2h-36c-1.1046 0-2 .8954-2 2v4c0 1.1046.8954 2 2 2h36c1.1046 0 2-.8954 2-2z"/></g><path d="m.8 6c0-2.87188 2.32812-5.2 5.2-5.2h84c2.8719 0 5.2 2.32812 5.2 5.2v116c0 2.872-2.3281 5.2-5.2 5.2h-84c-2.87188 0-5.2-2.328-5.2-5.2z" stroke="#e5e5eb" stroke-width="1.6"/><path d="m6 128h84c3.3137 0 6-2.686 6-6v-4c0 3.314-2.6863 6-6 6h-84c-3.31371 0-6-2.686-6-6v4c0 3.314 2.68629 6 6 6z" fill="#e5e5eb"/><path d="m90 124h-84v8h84zm-84 0c-1.10457 0-2-.895-2-2h-8c0 5.523 4.477153 10 10 10zm86-2c0 1.105-.8954 2-2 2v8c5.5228 0 10-4.477 10-10zm-2-2h-84v8h84zm-84 0c-1.10457 0-2-.895-2-2h-8c0 5.523 4.477153 10 10 10zm86-2c0 1.105-.8954 2-2 2v8c5.5228 0 10-4.477 10-10zm-88 4v-4h-8v4zm96 0v-4h-8v4z" fill="#e5e5eb" mask="url(#a)"/></svg>