<svg fill="none" height="96" viewBox="0 0 128 96" width="128" xmlns="http://www.w3.org/2000/svg"><path d="m6 95.9999c-3.31371 0-6-2.6863-6-6v-84.00002c0-3.31371 2.68629-6.00000207 6-6.00000207h116c3.314 0 6 2.68629207 6 6.00000207v84.00002c0 3.3137-2.686 6-6 6z" fill="#fcfcfd"/><path d="m.8 5.99988c0-2.87188 2.32812-5.200002 5.2-5.200002h116c2.872 0 5.2 2.328122 5.2 5.200002v84.00002c0 2.8719-2.328 5.2-5.2 5.2h-116c-2.87188 0-5.2-2.3281-5.2-5.2z" stroke="#e5e5eb" stroke-width="1.6"/><path d="m6 96h116c3.314 0 6-2.6863 6-6v-4c0 3.3137-2.686 6-6 6h-116c-3.31371 0-6-2.6863-6-6v4c0 3.3137 2.68629 6 6 6z" fill="#e5e5eb"/><path d="m49.7367 28.8683 36.1167 18.0584c.8844.4422.8844 1.7044 0 2.1466l-36.1167 18.0584c-.7979.3989-1.7367-.1813-1.7367-1.0733v-36.1168c0-.892.9388-1.4722 1.7367-1.0733z" fill="#8e8e94"/></svg>