<svg fill="none" height="128" viewBox="0 0 96 128" width="96" xmlns="http://www.w3.org/2000/svg" xmlns:xlink="http://www.w3.org/1999/xlink"><filter id="a" color-interpolation-filters="sRGB" filterUnits="userSpaceOnUse" height="128" width="96" x="0" y="0"><feFlood flood-opacity="0" result="BackgroundImageFix"/><feBlend in="SourceGraphic" in2="BackgroundImageFix" mode="normal" result="shape"/><feColorMatrix in="SourceAlpha" result="hardAlpha" type="matrix" values="0 0 0 0 0 0 0 0 0 0 0 0 0 0 0 0 0 0 127 0"/><feOffset dy="-4"/><feComposite in2="hardAlpha" k2="-1" k3="1" operator="arithmetic"/><feColorMatrix type="matrix" values="0 0 0 0 0 0 0 0 0 0 0 0 0 0 0 0 0 0 0.16 0"/><feBlend in2="shape" mode="normal" result="effect1_innerShadow_19_3056"/></filter><linearGradient id="b" gradientUnits="userSpaceOnUse" x1="19.6883" x2="41.0559" y1="45.2636" y2="82.2713"><stop offset="0" stop-color="#2368c4"/><stop offset=".5" stop-color="#1a5dbe"/><stop offset="1" stop-color="#1146ac"/></linearGradient><clipPath id="c"><path d="m14 34h64v59.5349h-64z"/></clipPath><mask id="d" fill="#fff"><path d="m6 128h84c3.3137 0 6-2.686 6-6v-4c0 3.314-2.6863 6-6 6h-84c-3.31371 0-6-2.686-6-6v4c0 3.314 2.68629 6 6 6z" fill="#fff"/></mask><g filter="url(#a)"><path d="m0 6c0-3.31371 2.68629-6 6-6h84c3.3137 0 6 2.68629 6 6v116c0 3.314-2.6863 6-6 6h-84c-3.31371 0-6-2.686-6-6z" fill="#fcfcfd"/></g><path d="m0 6c0-3.31371 2.68629-6 6-6h84c3.3137 0 6 2.68629 6 6v116c0 3.314-2.6863 6-6 6h-84c-3.31371 0-6-2.686-6-6z" fill="#fcfcfd"/><path d="m.8 6c0-2.87188 2.32812-5.2 5.2-5.2h84c2.8719 0 5.2 2.32812 5.2 5.2v116c0 2.872-2.3281 5.2-5.2 5.2h-84c-2.87188 0-5.2-2.328-5.2-5.2z" stroke="#e5e5eb" stroke-width="1.6"/><path d="m6 128h84c3.3137 0 6-2.686 6-6v-4c0 3.314-2.6863 6-6 6h-84c-3.31371 0-6-2.686-6-6v4c0 3.314 2.68629 6 6 6z" fill="#e5e5eb"/><path d="m90 124h-84v8h84zm-84 0c-1.10457 0-2-.895-2-2h-8c0 5.523 4.477153 10 10 10zm86-2c0 1.105-.8954 2-2 2v8c5.5228 0 10-4.477 10-10zm-2-2h-84v8h84zm-84 0c-1.10457 0-2-.895-2-2h-8c0 5.523 4.477153 10 10 10zm86-2c0 1.105-.8954 2-2 2v8c5.5228 0 10-4.477 10-10zm-88 4v-4h-8v4zm96 0v-4h-8v4z" fill="#e5e5eb" mask="url(#d)"/><g clip-path="url(#c)"><path d="m75.2693 34h-43.6599c-1.5067 0-2.7282 1.2215-2.7282 2.7282v12.1555l25.3024 7.4419 23.8139-7.4419v-12.1555c0-1.5067-1.2214-2.7282-2.7282-2.7282z" fill="#41a5ee"/><path d="m77.9975 48.8837h-49.1163v14.8837l25.3024 4.4651 23.8139-4.4651z" fill="#2b7cd3"/><path d="m28.8812 63.7676v14.8837l23.814 2.9767 25.3023-2.9767v-14.8837z" fill="#185abd"/><path d="m31.6094 93.5353h43.6599c1.5068 0 2.7282-1.2214 2.7282-2.7282v-12.1555h-49.1163v12.1555c0 1.5068 1.2215 2.7282 2.7282 2.7282z" fill="#103f91"/><path d="m46.9902 45.9071h-18.109v37.2093h18.109c1.5047-.0049 2.7233-1.2235 2.7282-2.7282v-31.7529c-.0049-1.5047-1.2235-2.7233-2.7282-2.7282z" fill="#000" fill-opacity=".5" opacity=".1"/><path d="m44.0135 47.3954h-15.1323v34.2325h15.1323c1.5047-.0049 2.7233-1.2234 2.7282-2.7281v-28.7762c-.0049-1.5047-1.2235-2.7233-2.7282-2.7282z" fill="#000" fill-opacity=".6" opacity=".2"/><path d="m16.7282 47.3954h27.2878c1.5067 0 2.7282 1.2214 2.7282 2.7282v27.2878c0 1.5068-1.2215 2.7282-2.7282 2.7282h-27.2878c-1.5067 0-2.7282-1.2214-2.7282-2.7282v-27.2878c0-1.5068 1.2215-2.7282 2.7282-2.7282z" fill="url(#b)"/><path d="m25.1933 68.3189c.0536.4212.0893.7874.1057 1.1014h.0625c.0238-.2977.0734-.6564.1488-1.0761.0755-.4197.1434-.7744.204-1.0642l2.8695-12.3802h3.7106l2.9767 12.1942c.173.7582.2968 1.5268.3706 2.301h.0491c.0555-.75.1589-1.4957.3096-2.2326l2.374-12.2686h3.3771l-4.1704 17.7414h-3.9457l-2.8279-11.7492c-.0819-.3379-.1756-.7799-.2783-1.3232s-.1667-.9407-.192-1.1907h-.0492c-.0327.2887-.0967.7174-.192 1.286-.0952.5685-.1716.9892-.2292 1.2621l-2.6583 11.712h-4.0126l-4.1927-17.7325h3.4381l2.5853 12.4056c.0581.2545.1132.5939.1667 1.0136z" fill="#fff"/></g></svg>