<svg width="128" height="128" viewBox="0 0 128 128" fill="none" xmlns="http://www.w3.org/2000/svg">
<g clip-path="url(#clip0_3157_6354)">
<path d="M6 112C2.68629 112 0 109.314 0 106V22C0 18.6862 2.68629 16 6 16H122C125.314 16 128 18.6862 128 22V106C128 109.314 125.314 112 122 112H6Z" fill="#FCFCFD"/>
<path d="M6 16.8H122C124.872 16.8 127.2 19.1281 127.2 22V106C127.2 108.872 124.872 111.2 122 111.2H6C3.12812 111.2 0.8 108.872 0.8 106V22C0.8 19.1281 3.12812 16.8 6 16.8Z" stroke="#E5E5EB" stroke-width="1.6"/>
<mask id="path-3-inside-1_3157_6354" fill="white">
<path d="M6 112H122C125.314 112 128 109.314 128 106V102C128 105.314 125.314 108 122 108H6C2.68629 108 0 105.314 0 102V106C0 109.314 2.68629 112 6 112Z"/>
</mask>
<path d="M6 112H122C125.314 112 128 109.314 128 106V102C128 105.314 125.314 108 122 108H6C2.68629 108 0 105.314 0 102V106C0 109.314 2.68629 112 6 112Z" fill="#E5E5EB"/>
<path d="M122 108H6V116H122V108ZM6 108C4.89543 108 4 107.104 4 106H-4C-4 111.523 0.477153 116 6 116V108ZM124 106C124 107.104 123.105 108 122 108V116C127.523 116 132 111.523 132 106H124ZM122 104H6V112H122V104ZM6 104C4.89543 104 4 103.104 4 102H-4C-4 107.523 0.477153 112 6 112V104ZM124 102C124 103.104 123.105 104 122 104V112C127.523 112 132 107.523 132 102H124ZM4 106V102H-4V106H4ZM132 106V102H124V106H132Z" fill="#E5E5EB" mask="url(#path-3-inside-1_3157_6354)"/>
<g clip-path="url(#clip1_3157_6354)">
<path d="M70.6984 66.744L66.2333 33.9999H65.8999C49.6636 34.0473 36.5132 47.1976 36.4658 63.4339V63.7673L70.6984 66.744Z" fill="#ED6C47"/>
<path d="M66.5678 33.9999H66.2344V63.7673L81.1181 69.7208L96.0018 63.7673V63.4339C95.9544 47.1976 82.8041 34.0473 66.5678 33.9999Z" fill="#FF8F6B"/>
<path d="M96.0007 63.7674V64.0949C95.9541 80.3348 82.8006 93.4883 66.5607 93.5349H65.9058C49.6659 93.4883 36.5124 80.3348 36.4658 64.0949V63.7674H96.0007Z" fill="#D35230"/>
<path opacity="0.1" d="M67.7217 48.6306V80.3925C67.7143 81.4961 67.0455 82.4876 66.0249 82.9078C65.7 83.0453 65.3508 83.1161 64.9979 83.1162H43.491C43.0742 82.6399 42.6724 82.1339 42.3003 81.6278C38.5083 76.5694 36.4609 70.4167 36.4659 64.0948V63.4399C36.4572 57.7377 38.1237 52.1585 41.2584 47.3953C41.5859 46.8892 41.9282 46.3832 42.3003 45.9069H64.9979C66.4975 45.9183 67.7103 47.1311 67.7217 48.6306Z" fill="black"/>
<path opacity="0.2" d="M66.2333 50.1189V81.8808C66.2333 82.2336 66.1624 82.5828 66.025 82.9077C65.6047 83.9283 64.6133 84.5971 63.5096 84.6045H44.8454C44.3745 84.1264 43.9226 83.6299 43.491 83.1161C43.0742 82.6398 42.6724 82.1338 42.3003 81.6277C38.5083 76.5693 36.4609 70.4166 36.4659 64.0947V63.4398C36.4572 57.7376 38.1237 52.1584 41.2584 47.3952H63.5096C65.0092 47.4065 66.222 48.6193 66.2333 50.1189Z" fill="black"/>
<path opacity="0.2" d="M66.2333 50.1189V78.904C66.222 80.4035 65.0091 81.6164 63.5096 81.6277H42.3003C38.5083 76.5693 36.4609 70.4166 36.4659 64.0947V63.4398C36.4572 57.7376 38.1237 52.1584 41.2584 47.3952H63.5096C65.0091 47.4065 66.222 48.6193 66.2333 50.1189Z" fill="black"/>
<path opacity="0.2" d="M64.7449 50.1189V78.904C64.7336 80.4035 63.5208 81.6164 62.0212 81.6277H42.3003C38.5083 76.5693 36.4609 70.4166 36.4659 64.0947V63.4398C36.4572 57.7376 38.1237 52.1584 41.2584 47.3952H62.0212C63.5208 47.4065 64.7336 48.6193 64.7449 50.1189Z" fill="black"/>
<path d="M34.7282 47.3952H62.016C63.5227 47.3952 64.7442 48.6166 64.7442 50.1233V77.4112C64.7442 78.9179 63.5227 80.1394 62.016 80.1394H34.7282C33.2215 80.1394 32 78.9179 32 77.4112V50.1233C32 48.6166 33.2215 47.3952 34.7282 47.3952Z" fill="url(#paint0_linear_3157_6354)"/>
<path d="M48.671 54.6724C50.4474 54.5525 52.2084 55.0685 53.6392 56.128C54.8326 57.1934 55.4703 58.748 55.3687 60.3445C55.3882 61.4544 55.0925 62.547 54.5159 63.4954C53.9321 64.4276 53.0911 65.1709 52.0943 65.6357C50.9547 66.1657 49.7088 66.4274 48.4522 66.4007H45.0007V72.8156H41.4658V54.6724H48.671ZM44.9977 63.6294H48.04C49.0045 63.7002 49.9614 63.4148 50.7295 62.8272C51.3648 62.2177 51.6978 61.3584 51.6389 60.48C51.6389 58.4806 50.477 57.4809 48.1531 57.4809H44.9978V63.6294H44.9977Z" fill="white"/>
</g>
</g>
<defs>
<linearGradient id="paint0_linear_3157_6354" x1="37.6883" y1="45.2634" x2="59.0559" y2="82.2711" gradientUnits="userSpaceOnUse">
<stop stop-color="#CA4C28"/>
<stop offset="0.5" stop-color="#C5401E"/>
<stop offset="1" stop-color="#B62F14"/>
</linearGradient>
<clipPath id="clip0_3157_6354">
<rect width="128" height="128" fill="white"/>
</clipPath>
<clipPath id="clip1_3157_6354">
<rect width="64" height="59.5349" fill="white" transform="translate(32 33.9999)"/>
</clipPath>
</defs>
</svg>
