<?xml version="1.0" encoding="UTF-8"?>
<svg width="10px" height="8px" viewBox="0 0 10 8" version="1.1" xmlns="http://www.w3.org/2000/svg" xmlns:xlink="http://www.w3.org/1999/xlink">
    <!-- Generator: Sketch 64 (93537) - https://sketch.com -->
    <title>Path</title>
    <desc>Created with Sketch.</desc>
    <g id="Page-1" stroke="none" stroke-width="1" fill="none" fill-rule="evenodd">
        <g id="About-us---1440" transform="translate(-398.000000, -6276.000000)" fill="#FFFFFF" fill-rule="nonzero" stroke="#FFFFFF" stroke-width="0.87209995">
            <path d="M404.060495,6277.09024 C403.937885,6276.96992 403.73382,6276.96992 403.606923,6277.09024 C403.484312,6277.20649 403.484312,6277.39996 403.606923,6277.51594 L405.906796,6279.6965 L398.317529,6279.6965 C398.140616,6279.69678 398,6279.8301 398,6279.99783 C398,6280.16557 398.140616,6280.30322 398.317529,6280.30322 L405.906796,6280.30322 L403.606923,6282.47972 C403.484312,6282.60004 403.484312,6282.79379 403.606923,6282.90976 C403.73382,6283.03008 403.938171,6283.03008 404.060495,6282.90976 L406.904827,6280.21299 C407.031724,6280.09674 407.031724,6279.90326 406.904827,6279.78728 L404.060495,6277.09024 Z" id="Path"></path>
        </g>
    </g>
</svg>