<?xml version="1.0" encoding="UTF-8"?>
<svg width="387px" height="100px" viewBox="0 0 387 100" version="1.1" xmlns="http://www.w3.org/2000/svg" xmlns:xlink="http://www.w3.org/1999/xlink">
    <!-- Generator: Sketch 64 (93537) - https://sketch.com -->
    <title>storage</title>
    <desc>Created with Sketch.</desc>
    <defs>
        <linearGradient x1="81.9568009%" y1="47.9186591%" x2="0%" y2="57.5182185%" id="linearGradient-1">
            <stop stop-color="#9D73FF" offset="0%"></stop>
            <stop stop-color="#46ABFF" offset="100%"></stop>
        </linearGradient>
        <path d="M370.867016,402.113281 C374.577954,402.113281 377.87141,401.658691 380.747387,400.749512 C383.623364,399.840332 385.970531,398.578613 387.788891,396.964355 C389.60725,395.350098 390.980297,393.45752 391.908031,391.286621 C392.835766,389.115723 393.299633,386.71289 393.299633,384.078125 C393.299633,382.964844 393.234691,381.935059 393.104809,380.98877 C392.974926,380.04248 392.761547,379.151855 392.464672,378.316895 C392.167797,377.481934 391.852367,376.730469 391.518383,376.0625 C391.184399,375.394531 390.720532,374.73584 390.126781,374.086426 C389.533031,373.437011 388.957836,372.871094 388.401195,372.388672 C387.844555,371.90625 387.1302,371.405273 386.258129,370.885742 C385.386058,370.366211 384.569653,369.911621 383.80891,369.521973 C383.048168,369.132324 382.092602,368.696289 380.942211,368.213867 C379.79182,367.731445 378.743481,367.313965 377.797192,366.961426 C376.850902,366.608887 375.67268,366.172851 374.262524,365.65332 C371.664867,364.725586 369.800121,363.890625 368.668285,363.148438 C367.53645,362.40625 366.970531,361.682617 366.970531,360.977539 C366.970531,359.975586 367.378734,359.251953 368.195141,358.806641 C369.011547,358.361328 369.920727,358.138672 370.92268,358.138672 C372.889476,358.138672 375.004711,358.639648 377.268383,359.641602 C379.532055,360.643555 381.61018,362.09082 383.502758,363.983398 L391.963695,351.236328 C389.774243,349.603516 387.603344,348.276855 385.451,347.256348 C383.298656,346.23584 381.034985,345.46582 378.659985,344.946289 C376.284984,344.426758 373.724437,344.166992 370.978344,344.166992 C367.04475,344.166992 363.500805,344.872071 360.346508,346.282227 C357.192211,347.692383 354.687328,349.742676 352.83186,352.433105 C350.976391,355.123535 350.048656,358.231446 350.048656,361.756836 C350.048656,363.31543 350.206371,364.771973 350.521801,366.126465 C350.837231,367.480957 351.282543,368.696289 351.857738,369.772461 C352.432933,370.848633 353.147289,371.859863 354.000805,372.806152 C354.85432,373.752441 355.754223,374.578125 356.700512,375.283203 C357.646801,375.988282 358.73225,376.665527 359.95686,377.314941 C361.181469,377.964356 362.387524,378.520996 363.575024,378.984863 C364.762523,379.44873 366.061352,379.90332 367.471508,380.348633 C370.774242,381.387696 373.028637,382.250489 374.234692,382.937012 C375.440747,383.623535 376.043774,384.337891 376.043774,385.080078 C376.043774,385.748047 375.848949,386.313965 375.459301,386.777832 C375.069652,387.241699 374.503734,387.594239 373.761547,387.835449 C373.01936,388.07666 372.11018,388.197266 371.034008,388.197266 C365.764476,388.197266 360.884594,386.082031 356.39436,381.851562 L347.933422,393.819336 C354.242015,399.348633 361.886547,402.113281 370.867016,402.113281 Z M419.540056,402.057617 C423.102556,402.057617 426.024919,401.73291 428.307146,401.083496 C430.589372,400.434082 432.862321,399.478516 435.125993,398.216797 L430.728532,385.080078 C428.910173,386.007813 427.073259,386.47168 425.21779,386.47168 C423.622087,386.47168 422.518083,385.915039 421.905779,384.801758 C421.293474,383.688477 420.987322,382.129883 420.987322,380.125977 L420.987322,359.75293 L434.513689,359.75293 L434.513689,345.224609 L420.987322,345.224609 L420.987322,325.519531 L403.174822,327.412109 L403.174822,345.224609 L396.884782,345.224609 L396.884782,359.75293 L403.174822,359.75293 L403.174822,383.46582 C403.174822,389.551758 404.659197,394.171875 407.627947,397.326172 C410.596696,400.480469 414.5674,402.057617 419.540056,402.057617 Z M467.322471,402.113281 C473.148643,402.113281 478.343955,400.89795 482.908409,398.467285 C487.472862,396.036621 491.026084,392.622559 493.568077,388.225098 C496.110069,383.827637 497.381065,378.808593 497.381065,373.167969 C497.381065,367.527344 496.110069,362.499023 493.568077,358.083008 C491.026084,353.666992 487.472862,350.243653 482.908409,347.812988 C478.343955,345.382324 473.148643,344.166992 467.322471,344.166992 C462.906456,344.166992 458.824424,344.890625 455.076377,346.337891 C451.328331,347.785156 448.146202,349.779785 445.529991,352.321777 C442.91378,354.86377 440.872764,357.925293 439.406944,361.506348 C437.941124,365.087402 437.208213,368.97461 437.208213,373.167969 C437.208213,377.361328 437.941124,381.248535 439.406944,384.82959 C440.872764,388.410644 442.91378,391.472168 445.529991,394.01416 C448.146202,396.556153 451.328331,398.541504 455.076377,399.970215 C458.824424,401.398926 462.906456,402.113281 467.322471,402.113281 Z M467.322471,386.249023 C463.83419,386.249023 460.939658,385.00586 458.638877,382.519531 C456.338096,380.033203 455.187705,376.916015 455.187705,373.167969 C455.187705,369.345703 456.319541,366.209961 458.583213,363.760742 C460.846885,361.311523 463.759971,360.086914 467.322471,360.086914 C470.810753,360.086914 473.696006,361.302246 475.978233,363.73291 C478.260459,366.163575 479.401573,369.308594 479.401573,373.167969 C479.401573,376.953125 478.241905,380.07959 475.922569,382.547363 C473.603232,385.015136 470.736533,386.249023 467.322471,386.249023 Z M523.621488,401 L523.621488,375.951172 C523.621488,373.501953 524.094632,371.331055 525.040921,369.438477 C525.98721,367.545898 527.434476,366.052246 529.382718,364.95752 C531.33096,363.862793 533.678129,363.31543 536.424222,363.31543 C538.131254,363.31543 539.522855,363.352539 540.599027,363.426758 L540.599027,344.222656 C540.487699,344.185547 540.283597,344.166992 539.986722,344.166992 C537.945706,344.166992 535.960355,344.491699 534.030667,345.141113 C532.10098,345.790528 530.273343,346.746093 528.547757,348.007812 C526.822171,349.269532 525.2543,350.828125 523.844144,352.683594 L523.621488,352.683594 L523.621488,345.224609 L505.808988,345.224609 L505.808988,401 L523.621488,401 Z M569.678317,402.057617 C576.395114,402.057617 581.553317,399.701172 585.152926,394.988281 L585.375583,394.988281 L585.375583,401 L602.297458,401 L602.297458,345.224609 L584.429294,345.224609 L584.429294,351.125 L584.206637,351.125 C580.235934,346.486328 575.114841,344.166992 568.843356,344.166992 C565.280856,344.166992 561.931735,344.881347 558.795993,346.310059 C555.660251,347.73877 552.960544,349.714844 550.696872,352.238281 C548.433199,354.761718 546.651949,357.83252 545.353122,361.450684 C544.054294,365.068848 543.404879,368.97461 543.404879,373.167969 C543.404879,377.435547 544.054294,381.36914 545.353122,384.96875 C546.651949,388.56836 548.451755,391.611328 550.752536,394.097656 C553.053317,396.583985 555.83652,398.532227 559.102145,399.942383 C562.36777,401.352539 565.893161,402.057617 569.678317,402.057617 Z M573.352145,386.360352 C569.863864,386.360352 567.006442,385.14502 564.779879,382.714355 C562.553317,380.283691 561.440036,377.120117 561.440036,373.223633 C561.440036,369.290039 562.571871,366.098633 564.835544,363.649414 C567.099216,361.200195 569.956637,359.975586 573.407809,359.975586 C575.597262,359.975586 577.591891,360.541504 579.391696,361.67334 C581.1915,362.805175 582.601657,364.382325 583.622165,366.404785 C584.642672,368.427246 585.152926,370.700196 585.152926,373.223633 C585.152926,377.120117 584.021091,380.283691 581.757419,382.714355 C579.493746,385.14502 576.691989,386.360352 573.352145,386.360352 Z M638.94706,424.601562 C642.138466,424.601562 645.060829,424.341797 647.71415,423.822266 C650.367471,423.302735 652.714638,422.569824 654.755654,421.623535 C656.79667,420.677246 658.624306,419.508301 660.238564,418.116699 C661.852822,416.725098 663.207314,415.175782 664.302041,413.46875 C665.396768,411.761718 666.296669,409.850586 667.001748,407.735352 C667.706826,405.620117 668.217079,403.412109 668.532509,401.111328 C668.847939,398.810547 669.005654,396.324219 669.005654,393.652344 L669.005654,345.224609 L651.13749,345.224609 L651.13749,350.735352 L650.85917,350.735352 C646.702919,346.356445 641.414833,344.166992 634.994912,344.166992 C630.319131,344.166992 626.097939,345.382324 622.331338,347.812988 C618.564736,350.243653 615.605264,353.620605 613.45292,357.943848 C611.300576,362.26709 610.224404,367.137696 610.224404,372.555664 C610.224404,377.750976 611.319131,382.436035 613.508584,386.61084 C615.698036,390.785645 618.750283,394.041992 622.665322,396.379883 C626.580361,398.717773 631.005654,399.886719 635.941201,399.886719 C642.361122,399.886719 647.482216,397.864258 651.304482,393.819336 L651.582802,393.819336 L651.582802,399.107422 C651.582802,402.150391 650.311807,404.673828 647.769814,406.677734 C645.227822,408.681641 641.63749,409.683594 636.998818,409.683594 C631.172646,409.683594 625.494911,408.069336 619.965615,404.84082 L615.957802,419.257812 C619.334756,421.150391 622.860146,422.51416 626.533974,423.349121 C630.207802,424.184082 634.345497,424.601562 638.94706,424.601562 Z M640.116006,384.022461 C636.701943,384.022461 633.863076,382.918457 631.599404,380.710449 C629.335732,378.502441 628.203896,375.617188 628.203896,372.054688 C628.203896,368.529297 629.326455,365.65332 631.571572,363.426758 C633.816689,361.200195 636.664834,360.086914 640.116006,360.086914 C643.455849,360.086914 646.257607,361.200195 648.521279,363.426758 C650.784951,365.65332 651.916787,368.510742 651.916787,371.999023 C651.916787,375.524414 650.803506,378.409668 648.576943,380.654785 C646.350381,382.899902 643.530068,384.022461 640.116006,384.022461 Z M706.100569,402.057617 C711.629866,402.057617 716.528303,401.083496 720.795882,399.135254 C725.06346,397.187012 728.458968,394.617187 730.982405,391.425781 L721.519514,380.793945 C717.66014,385.28418 713.151351,387.529297 707.993147,387.529297 C704.690413,387.529297 701.823714,386.685058 699.39305,384.996582 C696.962385,383.308106 695.431624,380.942383 694.800764,377.899414 L732.763655,377.899414 C733.06053,375.709961 733.208968,373.947266 733.208968,372.611328 C733.208968,367.15625 732.030745,362.257812 729.6743,357.916016 C727.317855,353.574219 724.024397,350.197265 719.793928,347.785156 C715.56346,345.373047 710.77635,344.166992 705.4326,344.166992 C701.387678,344.166992 697.6118,344.890625 694.104964,346.337891 C690.598128,347.785156 687.601546,349.770508 685.115218,352.293945 C682.628889,354.817383 680.67137,357.878906 679.242659,361.478516 C677.813948,365.078125 677.099593,368.956054 677.099593,373.112305 C677.099593,377.342773 677.84178,381.26709 679.326155,384.885254 C680.81053,388.503418 682.832991,391.564941 685.393538,394.069824 C687.954085,396.574707 691.024886,398.532227 694.60594,399.942383 C698.186995,401.352539 702.018538,402.057617 706.100569,402.057617 Z M694.856428,367.267578 C695.413069,364.447265 696.656233,362.26709 698.585921,360.727051 C700.515608,359.187011 702.853499,358.416992 705.599593,358.416992 C707.343733,358.416992 708.920882,358.769531 710.331038,359.474609 C711.741194,360.179688 712.891585,361.181641 713.78221,362.480469 C714.672835,363.779297 715.322249,365.33789 715.730452,367.15625 L694.856428,367.267578 Z" id="path-2"></path>
    </defs>
    <g id="Page-1" stroke="none" stroke-width="1" fill="none" fill-rule="evenodd">
        <g id="Core---1440" transform="translate(-347.000000, -325.000000)" fill-rule="nonzero">
            <g id="storage">
                <use fill="#0084FF" xlink:href="#path-2"></use>
                <use fill="url(#linearGradient-1)" xlink:href="#path-2"></use>
            </g>
        </g>
    </g>
</svg>