<?xml version="1.0" encoding="UTF-8"?>
<svg width="13px" height="17px" viewBox="0 0 13 17" version="1.1" xmlns="http://www.w3.org/2000/svg" xmlns:xlink="http://www.w3.org/1999/xlink">
    <!-- Generator: Sketch 64 (93537) - https://sketch.com -->
    <title>5ed27d733b7997195f52a711_Apple_logo_grey%202</title>
    <desc>Created with Sketch.</desc>
    <g id="Page-1" stroke="none" stroke-width="1" fill="none" fill-rule="evenodd">
        <g id="Token---1440" transform="translate(-187.000000, -4638.000000)" fill="#FFFFFF" fill-rule="nonzero">
            <g id="5ed27d733b7997195f52a711_Apple_logo_grey%202" transform="translate(187.000000, 4638.000000)">
                <path d="M10.8348649,9.16933958 C10.8174002,7.09053246 12.4299326,6.09254136 12.5028372,6.04388413 C11.5953879,4.63076318 10.1832925,4.43716994 9.67949929,4.41439486 C8.4784008,4.28498409 7.33467154,5.16701827 6.72584692,5.16701827 C6.11703244,5.16701827 5.17559827,4.43302717 4.17969886,4.45373087 C2.86869514,4.47444471 1.66174804,5.26434288 0.986797498,6.51285983 C-0.373808777,9.02542912 0.63959586,12.749271 1.96422097,14.7886711 C2.6129096,15.7856773 3.38511977,16.9088958 4.40046379,16.8674681 C5.37885796,16.8261419 5.74842751,16.1945727 6.92911677,16.1945727 C8.10979587,16.1945727 8.44241557,16.8674681 9.47623959,16.8478711 C10.5276095,16.8261419 11.1947172,15.8291357 11.8385726,14.8290834 C12.581631,13.6716465 12.888988,12.5514741 12.9064526,12.4924803 C12.8830987,12.4821233 10.8562895,11.654991 10.8348649,9.16933958 Z" id="Path"></path>
                <path d="M8.89274881,3.06516191 C9.4315322,2.37050682 9.79526329,1.40460188 9.69508544,0.441844625 C8.91892542,0.475009118 7.97949156,0.992613622 7.4221977,1.68727481 C6.92328846,2.30120682 6.48564753,3.28467792 6.60424445,4.22782809 C7.4698497,4.2992604 8.35386387,3.75880162 8.89274881,3.06516191 Z" id="Path"></path>
            </g>
        </g>
    </g>
</svg>