<?xml version="1.0" encoding="UTF-8"?>
<svg width="14px" height="15px" viewBox="0 0 14 15" version="1.1" xmlns="http://www.w3.org/2000/svg" xmlns:xlink="http://www.w3.org/1999/xlink">
    <!-- Generator: Sketch 64 (93537) - https://sketch.com -->
    <title>Play</title>
    <desc>Created with Sketch.</desc>
    <g id="Page-1" stroke="none" stroke-width="1" fill="none" fill-rule="evenodd">
        <g id="Token---1440" transform="translate(-330.000000, -4640.000000)" fill="#FFFFFF">
            <g id="Play" transform="translate(330.000000, 4640.000000)">
                <path d="M1.00354888,14.0600746 L7.3055873,7.64095217 L9.4261202,9.80090593 L2.1370329,13.8171946 C1.72137432,14.0463089 1.33268146,14.119946 1.00354888,14.0600746 Z M0.286744549,0.491744325 L6.69900015,7.02288101 L0.272031263,13.5687517 C0.0991433164,13.3059774 0,12.9485403 0,12.5107717 L0,1.57100746 C0,1.12162288 0.104748602,0.756854074 0.286744549,0.491744325 Z M9.41247706,4.25909324 L7.30559673,6.404725 L1.03258888,0.0151471889 C1.35542317,-0.0357601208 1.73413118,0.0404216066 2.13823033,0.262333977 L9.41247706,4.25909324 Z M10.2139716,9.3669842 L7.91252331,7.02293758 L10.2010545,4.69215696 L12.3173917,5.85495441 C13.493606,6.50114157 13.4943603,7.55961188 12.318806,8.20706246 L10.2139716,9.3669842 Z" id="Shape"></path>
            </g>
        </g>
    </g>
</svg>