<?xml version="1.0" encoding="UTF-8"?>
<svg width="481px" height="60px" viewBox="0 0 481 60" version="1.1" xmlns="http://www.w3.org/2000/svg" xmlns:xlink="http://www.w3.org/1999/xlink">
    <!-- Generator: Sketch 64 (93537) - https://sketch.com -->
    <title>You’reallset!</title>
    <desc>Created with Sketch.</desc>
    <defs>
        <linearGradient x1="81.8468178%" y1="48.8072436%" x2="2.75624703%" y2="52.092695%" id="linearGradient-1">
            <stop stop-color="#A86FFF" offset="0%"></stop>
            <stop stop-color="#44ACFF" offset="100%"></stop>
            <stop stop-color="#44ACFF" offset="100%"></stop>
        </linearGradient>
        <path d="M510.320312,6166 L510.320312,6141.27344 L528.992187,6109.16406 L513.523437,6109.16406 L503.71875,6127.99219 L503.484375,6127.99219 L493.523437,6109.16406 L478.210937,6109.16406 L496.765625,6141.27344 L496.765625,6166 L510.320312,6166 Z M543.596875,6166.78125 C547.685417,6166.78125 551.33125,6165.92839 554.534375,6164.22266 C557.7375,6162.51693 560.230989,6160.12109 562.014844,6157.03516 C563.798698,6153.94922 564.690625,6150.42708 564.690625,6146.46875 C564.690625,6142.51042 563.798698,6138.98177 562.014844,6135.88281 C560.230989,6132.78385 557.7375,6130.38151 554.534375,6128.67578 C551.33125,6126.97005 547.685417,6126.11719 543.596875,6126.11719 C540.497917,6126.11719 537.633333,6126.625 535.003125,6127.64062 C532.372917,6128.65625 530.139844,6130.05599 528.303906,6131.83984 C526.467969,6133.6237 525.035677,6135.77214 524.007031,6138.28516 C522.978386,6140.79818 522.464062,6143.52604 522.464062,6146.46875 C522.464062,6149.41146 522.978386,6152.13932 524.007031,6154.65234 C525.035677,6157.16536 526.467969,6159.3138 528.303906,6161.09766 C530.139844,6162.88151 532.372917,6164.27474 535.003125,6165.27734 C537.633333,6166.27995 540.497917,6166.78125 543.596875,6166.78125 Z M543.596875,6155.64844 C541.148958,6155.64844 539.117708,6154.77604 537.503125,6153.03125 C535.888542,6151.28646 535.08125,6149.09896 535.08125,6146.46875 C535.08125,6143.78646 535.875521,6141.58594 537.464062,6139.86719 C539.052604,6138.14844 541.096875,6137.28906 543.596875,6137.28906 C546.044792,6137.28906 548.069531,6138.14193 549.671094,6139.84766 C551.272656,6141.55339 552.073437,6143.76042 552.073437,6146.46875 C552.073437,6149.125 551.259636,6151.31901 549.632031,6153.05078 C548.004427,6154.78255 545.992708,6155.64844 543.596875,6155.64844 Z M584.334375,6166.74219 C588.839583,6166.74219 592.524479,6165.02344 595.389062,6161.58594 L595.584375,6161.58594 L595.584375,6166 L608.123437,6166 L608.123437,6126.85938 L595.584375,6126.85938 L595.584375,6146.23438 C595.584375,6149.28125 594.933333,6151.60547 593.63125,6153.20703 C592.329167,6154.80859 590.688542,6155.60938 588.709375,6155.60938 C586.573958,6155.60938 585.044011,6154.95182 584.119531,6153.63672 C583.195052,6152.32161 582.732812,6150.10156 582.732812,6146.97656 L582.732812,6126.85938 L570.232812,6126.85938 L570.232812,6150.0625 C570.232812,6161.18229 574.933333,6166.74219 584.334375,6166.74219 Z M623.275,6130.80469 L628.782812,6109.16406 L616.24375,6109.16406 L613.860937,6130.80469 L623.275,6130.80469 Z M646.746875,6166 L646.746875,6148.42188 C646.746875,6146.70312 647.078906,6145.17969 647.742969,6143.85156 C648.407031,6142.52344 649.422656,6141.47526 650.789844,6140.70703 C652.157031,6139.9388 653.804167,6139.55469 655.73125,6139.55469 C656.929167,6139.55469 657.905729,6139.58073 658.660937,6139.63281 L658.660937,6126.15625 C658.582812,6126.13021 658.439583,6126.11719 658.23125,6126.11719 C656.798958,6126.11719 655.405729,6126.34505 654.051562,6126.80078 C652.697396,6127.25651 651.414844,6127.92708 650.203906,6128.8125 C648.992969,6129.69792 647.892708,6130.79167 646.903125,6132.09375 L646.746875,6132.09375 L646.746875,6126.85938 L634.246875,6126.85938 L634.246875,6166 L646.746875,6166 Z M681.078125,6166.74219 C684.958333,6166.74219 688.395833,6166.05859 691.390625,6164.69141 C694.385417,6163.32422 696.768229,6161.52083 698.539062,6159.28125 L691.898438,6151.82031 C689.190104,6154.97135 686.026042,6156.54688 682.40625,6156.54688 C680.088542,6156.54688 678.076823,6155.95443 676.371094,6154.76953 C674.665364,6153.58464 673.591146,6151.92448 673.148438,6149.78906 L699.789062,6149.78906 C699.997396,6148.2526 700.101562,6147.01562 700.101562,6146.07812 C700.101562,6142.25 699.274739,6138.8125 697.621094,6135.76562 C695.967448,6132.71875 693.65625,6130.34896 690.6875,6128.65625 C687.71875,6126.96354 684.359375,6126.11719 680.609375,6126.11719 C677.770833,6126.11719 675.121094,6126.625 672.660156,6127.64062 C670.199219,6128.65625 668.096354,6130.04948 666.351562,6131.82031 C664.606771,6133.59115 663.233073,6135.73958 662.230469,6138.26562 C661.227864,6140.79167 660.726562,6143.51302 660.726562,6146.42969 C660.726562,6149.39844 661.247396,6152.15234 662.289062,6154.69141 C663.330729,6157.23047 664.75,6159.37891 666.546875,6161.13672 C668.34375,6162.89453 670.498698,6164.26823 673.011719,6165.25781 C675.524739,6166.2474 678.213542,6166.74219 681.078125,6166.74219 Z M673.1875,6142.32812 C673.578125,6140.34896 674.450521,6138.81901 675.804688,6137.73828 C677.158854,6136.65755 678.799479,6136.11719 680.726562,6136.11719 C681.950521,6136.11719 683.057292,6136.36458 684.046875,6136.85938 C685.036458,6137.35417 685.84375,6138.05729 686.46875,6138.96875 C687.09375,6139.88021 687.549479,6140.97396 687.835938,6142.25 L673.1875,6142.32812 Z M741.889062,6166.74219 C746.602604,6166.74219 750.222396,6165.08854 752.748437,6161.78125 L752.904687,6161.78125 L752.904687,6166 L764.779687,6166 L764.779687,6126.85938 L752.240625,6126.85938 L752.240625,6131 L752.084375,6131 C749.297917,6127.74479 745.704167,6126.11719 741.303125,6126.11719 C738.803125,6126.11719 736.452864,6126.61849 734.252344,6127.62109 C732.051823,6128.6237 730.157292,6130.01042 728.56875,6131.78125 C726.980208,6133.55208 725.730208,6135.70703 724.81875,6138.24609 C723.907292,6140.78516 723.451562,6143.52604 723.451562,6146.46875 C723.451562,6149.46354 723.907292,6152.22396 724.81875,6154.75 C725.730208,6157.27604 726.993229,6159.41146 728.607812,6161.15625 C730.222396,6162.90104 732.175521,6164.26823 734.467187,6165.25781 C736.758854,6166.2474 739.232812,6166.74219 741.889062,6166.74219 Z M744.467187,6155.72656 C742.019271,6155.72656 740.014062,6154.8737 738.451562,6153.16797 C736.889062,6151.46224 736.107812,6149.24219 736.107812,6146.50781 C736.107812,6143.7474 736.902083,6141.50781 738.490625,6139.78906 C740.079167,6138.07031 742.084375,6137.21094 744.50625,6137.21094 C746.042708,6137.21094 747.442448,6137.60807 748.705469,6138.40234 C749.968489,6139.19661 750.958073,6140.30339 751.674219,6141.72266 C752.390364,6143.14193 752.748437,6144.73698 752.748437,6146.50781 C752.748437,6149.24219 751.954167,6151.46224 750.365625,6153.16797 C748.777083,6154.8737 746.810937,6155.72656 744.467187,6155.72656 Z M785.439062,6166 L785.439062,6107.09375 L772.978125,6107.09375 L772.978125,6166 L785.439062,6166 Z M806.801563,6166 L806.801563,6107.09375 L794.340625,6107.09375 L794.340625,6166 L806.801563,6166 Z M847.690625,6166.78125 C850.294792,6166.78125 852.605989,6166.46224 854.624219,6165.82422 C856.642448,6165.1862 858.289583,6164.30078 859.565625,6163.16797 C860.841667,6162.03516 861.805208,6160.70703 862.45625,6159.18359 C863.107292,6157.66016 863.432812,6155.97396 863.432812,6154.125 C863.432812,6153.34375 863.387239,6152.62109 863.296094,6151.95703 C863.204948,6151.29297 863.055208,6150.66797 862.846875,6150.08203 C862.638542,6149.49609 862.417187,6148.96875 862.182812,6148.5 C861.948437,6148.03125 861.622917,6147.56901 861.20625,6147.11328 C860.789583,6146.65755 860.385937,6146.26042 859.995312,6145.92188 C859.604687,6145.58333 859.103386,6145.23177 858.491406,6144.86719 C857.879427,6144.5026 857.306511,6144.18359 856.772656,6143.91016 C856.238802,6143.63672 855.568229,6143.33073 854.760937,6142.99219 C853.953646,6142.65365 853.217969,6142.36068 852.553906,6142.11328 C851.889844,6141.86589 851.063021,6141.5599 850.073437,6141.19531 C848.250521,6140.54427 846.941927,6139.95833 846.147656,6139.4375 C845.353386,6138.91667 844.95625,6138.40885 844.95625,6137.91406 C844.95625,6137.21094 845.242708,6136.70312 845.815625,6136.39062 C846.388542,6136.07812 847.026562,6135.92188 847.729687,6135.92188 C849.109896,6135.92188 850.594271,6136.27344 852.182812,6136.97656 C853.771354,6137.67969 855.229687,6138.69531 856.557812,6140.02344 L862.495312,6131.07812 C860.958854,6129.93229 859.435417,6129.0013 857.925,6128.28516 C856.414583,6127.56901 854.826042,6127.02865 853.159375,6126.66406 C851.492708,6126.29948 849.695833,6126.11719 847.76875,6126.11719 C845.008333,6126.11719 842.521354,6126.61198 840.307812,6127.60156 C838.094271,6128.59115 836.336458,6130.02995 835.034375,6131.91797 C833.732292,6133.80599 833.08125,6135.98698 833.08125,6138.46094 C833.08125,6139.55469 833.191927,6140.57682 833.413281,6141.52734 C833.634636,6142.47786 833.947136,6143.33073 834.350781,6144.08594 C834.754427,6144.84115 835.255729,6145.55078 835.854687,6146.21484 C836.453646,6146.87891 837.085156,6147.45833 837.749219,6147.95312 C838.413281,6148.44792 839.175,6148.92318 840.034375,6149.37891 C840.89375,6149.83464 841.740104,6150.22526 842.573437,6150.55078 C843.406771,6150.8763 844.318229,6151.19531 845.307812,6151.50781 C847.625521,6152.23698 849.207552,6152.84245 850.053906,6153.32422 C850.900261,6153.80599 851.323437,6154.30729 851.323437,6154.82812 C851.323437,6155.29688 851.186719,6155.69401 850.913281,6156.01953 C850.639844,6156.34505 850.242708,6156.59245 849.721875,6156.76172 C849.201042,6156.93099 848.563021,6157.01562 847.807812,6157.01562 C844.109896,6157.01562 840.685417,6155.53125 837.534375,6152.5625 L831.596875,6160.96094 C836.023958,6164.84115 841.388542,6166.78125 847.690625,6166.78125 Z M887.4125,6166.74219 C891.292708,6166.74219 894.730208,6166.05859 897.725,6164.69141 C900.719792,6163.32422 903.102604,6161.52083 904.873438,6159.28125 L898.232813,6151.82031 C895.524479,6154.97135 892.360417,6156.54688 888.740625,6156.54688 C886.422917,6156.54688 884.411198,6155.95443 882.705469,6154.76953 C880.999739,6153.58464 879.925521,6151.92448 879.482813,6149.78906 L906.123438,6149.78906 C906.331771,6148.2526 906.435938,6147.01562 906.435938,6146.07812 C906.435938,6142.25 905.609114,6138.8125 903.955469,6135.76562 C902.301823,6132.71875 899.990625,6130.34896 897.021875,6128.65625 C894.053125,6126.96354 890.69375,6126.11719 886.94375,6126.11719 C884.105208,6126.11719 881.455469,6126.625 878.994531,6127.64062 C876.533594,6128.65625 874.430729,6130.04948 872.685938,6131.82031 C870.941146,6133.59115 869.567448,6135.73958 868.564844,6138.26562 C867.562239,6140.79167 867.060938,6143.51302 867.060938,6146.42969 C867.060938,6149.39844 867.581771,6152.15234 868.623438,6154.69141 C869.665104,6157.23047 871.084375,6159.37891 872.88125,6161.13672 C874.678125,6162.89453 876.833073,6164.26823 879.346094,6165.25781 C881.859114,6166.2474 884.547917,6166.74219 887.4125,6166.74219 Z M879.521875,6142.32812 C879.9125,6140.34896 880.784896,6138.81901 882.139063,6137.73828 C883.493229,6136.65755 885.133854,6136.11719 887.060938,6136.11719 C888.284896,6136.11719 889.391667,6136.36458 890.38125,6136.85938 C891.370833,6137.35417 892.178125,6138.05729 892.803125,6138.96875 C893.428125,6139.88021 893.883854,6140.97396 894.170313,6142.25 L879.521875,6142.32812 Z M925.220313,6166.74219 C927.720313,6166.74219 929.771094,6166.51432 931.372656,6166.05859 C932.974219,6165.60286 934.569271,6164.93229 936.157813,6164.04688 L933.071875,6154.82812 C931.795833,6155.47917 930.506771,6155.80469 929.204688,6155.80469 C928.084896,6155.80469 927.310156,6155.41406 926.880469,6154.63281 C926.450781,6153.85156 926.235938,6152.75781 926.235938,6151.35156 L926.235938,6137.05469 L935.728125,6137.05469 L935.728125,6126.85938 L926.235938,6126.85938 L926.235938,6113.03125 L913.735938,6114.35938 L913.735938,6126.85938 L909.321875,6126.85938 L909.321875,6137.05469 L913.735938,6137.05469 L913.735938,6153.69531 C913.735938,6157.96615 914.777604,6161.20833 916.860938,6163.42188 C918.944271,6165.63542 921.730729,6166.74219 925.220313,6166.74219 Z M955.879688,6146.39062 L958.028125,6107.09375 L944.590625,6107.09375 L946.739063,6146.39062 L955.879688,6146.39062 Z M951.114063,6166.78125 C953.145313,6166.78125 954.883594,6166.0651 956.328906,6164.63281 C957.774219,6163.20052 958.496875,6161.46875 958.496875,6159.4375 C958.496875,6157.45833 957.767708,6155.7526 956.309375,6154.32031 C954.851042,6152.88802 953.119271,6152.17188 951.114063,6152.17188 C949.056771,6152.17188 947.298958,6152.88802 945.840625,6154.32031 C944.382292,6155.7526 943.653125,6157.45833 943.653125,6159.4375 C943.653125,6161.46875 944.382292,6163.20052 945.840625,6164.63281 C947.298958,6166.0651 949.056771,6166.78125 951.114063,6166.78125 Z" id="path-2"></path>
    </defs>
    <g id="Page-1" stroke="none" stroke-width="1" fill="none" fill-rule="evenodd">
        <g id="Core---1440" transform="translate(-478.000000, -6107.000000)" fill-rule="nonzero">
            <g id="You’reallset!">
                <use fill="#FFFFFF" xlink:href="#path-2"></use>
                <use fill="url(#linearGradient-1)" xlink:href="#path-2"></use>
            </g>
        </g>
    </g>
</svg>