<svg width="217" height="95" viewBox="0 0 217 95" fill="none" xmlns="http://www.w3.org/2000/svg">
<path d="M35.328 94.72C28.3307 94.72 22.1867 93.568 16.896 91.264C11.6053 88.96 7.46667 85.76 4.48 81.664C1.49333 77.568 0 72.7893 0 67.328C0 62.72 0.981333 58.624 2.944 55.04C4.992 51.456 7.808 48.64 11.392 46.592C15.0613 44.544 19.2853 43.52 24.064 43.52L26.112 46.208C21.0773 46.208 16.8107 45.3973 13.312 43.776C9.81333 42.0693 7.12533 39.6373 5.248 36.48C3.456 33.3227 2.56 29.6107 2.56 25.344C2.56 20.224 3.88267 15.7867 6.528 12.032C9.25867 8.192 13.056 5.248 17.92 3.2C22.784 1.06667 28.544 0 35.2 0C41.856 0 47.616 1.06667 52.48 3.2C57.344 5.248 61.0987 8.192 63.744 12.032C66.4747 15.7867 67.84 20.224 67.84 25.344C67.84 29.6107 66.9013 33.3227 65.024 36.48C63.232 39.6373 60.5867 42.0693 57.088 43.776C53.5893 45.3973 49.28 46.208 44.16 46.208L46.336 43.52C51.1147 43.52 55.296 44.544 58.88 46.592C62.5493 48.64 65.3653 51.456 67.328 55.04C69.376 58.624 70.4 62.7627 70.4 67.456C70.4 72.9173 68.9067 77.696 65.92 81.792C63.0187 85.888 58.9227 89.088 53.632 91.392C48.4267 93.6107 42.3253 94.72 35.328 94.72ZM35.2 79.616C39.7227 79.616 43.2213 78.4213 45.696 76.032C48.256 73.6427 49.536 70.272 49.536 65.92C49.536 61.6533 48.2133 58.3253 45.568 55.936C42.9227 53.5467 39.4667 52.352 35.2 52.352C30.848 52.352 27.3493 53.5467 24.704 55.936C22.144 58.3253 20.864 61.6533 20.864 65.92C20.864 70.3573 22.144 73.7707 24.704 76.16C27.264 78.464 30.7627 79.616 35.2 79.616ZM35.2 38.528C38.6987 38.528 41.5573 37.504 43.776 35.456C45.9947 33.3227 47.104 30.4213 47.104 26.752C47.104 23.0827 45.9947 20.224 43.776 18.176C41.5573 16.128 38.656 15.104 35.072 15.104C31.5733 15.104 28.7147 16.1707 26.496 18.304C24.3627 20.352 23.296 23.168 23.296 26.752C23.296 30.4213 24.4053 33.3227 26.624 35.456C28.928 37.504 31.7867 38.528 35.2 38.528Z" fill="white"/>
<path d="M117.439 94.72C109.759 94.72 102.89 92.7147 96.831 88.704C90.8577 84.608 86.1643 78.976 82.751 71.808C79.3377 64.5547 77.631 56.2773 77.631 46.976C77.631 37.6747 79.3377 29.5253 82.751 22.528C86.1643 15.4453 90.8577 9.94133 96.831 6.016C102.89 2.00533 109.759 0 117.439 0C125.204 0 132.074 2.00533 138.047 6.016C144.02 9.94133 148.714 15.4453 152.127 22.528C155.54 29.5253 157.247 37.6747 157.247 46.976C157.247 56.3627 155.54 64.64 152.127 71.808C148.714 78.976 143.978 84.608 137.919 88.704C131.946 92.7147 125.119 94.72 117.439 94.72ZM117.439 78.336C121.791 78.336 125.375 76.8853 128.191 73.984C131.007 71.0827 133.098 67.2427 134.463 62.464C135.828 57.6853 136.511 52.48 136.511 46.848C136.511 41.216 135.828 36.096 134.463 31.488C133.098 26.88 131.007 23.2107 128.191 20.48C125.375 17.7493 121.791 16.384 117.439 16.384C113.087 16.384 109.503 17.792 106.687 20.608C103.871 23.3387 101.78 27.008 100.415 31.616C99.0497 36.224 98.367 41.3013 98.367 46.848C98.367 52.5653 99.0497 57.8133 100.415 62.592C101.78 67.3707 103.871 71.2107 106.687 74.112C109.588 76.928 113.172 78.336 117.439 78.336Z" fill="white"/>
<path d="M170.737 57.2973L206.735 6.7027H214.605L178.676 57.2973H170.737ZM205.777 58C203.86 58 202.058 57.5315 200.37 56.5946C198.682 55.6577 197.313 54.2288 196.264 52.3081C195.215 50.3874 194.69 47.9513 194.69 45C194.69 42.0486 195.192 39.636 196.196 37.7622C197.245 35.8414 198.614 34.4126 200.302 33.4757C201.99 32.5387 203.815 32.0703 205.777 32.0703C207.83 32.0703 209.7 32.5387 211.388 33.4757C213.122 34.4126 214.491 35.8414 215.494 37.7622C216.498 39.636 217 42.0486 217 45C217 47.9513 216.475 50.3874 215.426 52.3081C214.377 54.2288 212.985 55.6577 211.251 56.5946C209.563 57.5315 207.738 58 205.777 58ZM205.777 51.9568C207.191 51.9568 208.377 51.3712 209.335 50.2C210.293 48.982 210.772 47.2252 210.772 44.9297C210.772 42.7279 210.293 41.0414 209.335 39.8703C208.423 38.6991 207.236 38.1135 205.777 38.1135C204.317 38.1135 203.13 38.6991 202.218 39.8703C201.351 41.0414 200.918 42.7279 200.918 44.9297C200.918 47.2252 201.351 48.982 202.218 50.2C203.13 51.3712 204.317 51.9568 205.777 51.9568ZM179.087 31.9297C177.125 31.9297 175.3 31.4613 173.612 30.5243C171.924 29.5874 170.555 28.1586 169.506 26.2378C168.502 24.3171 168 21.8811 168 18.9297C168 15.9784 168.502 13.5658 169.506 11.6919C170.555 9.77117 171.924 8.34234 173.612 7.4054C175.3 6.46847 177.125 6 179.087 6C181.14 6 183.01 6.46847 184.698 7.4054C186.386 8.34234 187.732 9.77117 188.736 11.6919C189.74 13.5658 190.242 15.9784 190.242 18.9297C190.242 21.8811 189.717 24.3171 188.668 26.2378C187.618 28.1586 186.25 29.5874 184.561 30.5243C182.873 31.4613 181.048 31.9297 179.087 31.9297ZM179.087 25.8865C180.501 25.8865 181.687 25.3009 182.645 24.1297C183.603 22.9117 184.082 21.155 184.082 18.8595C184.082 16.6577 183.603 14.9712 182.645 13.8C181.733 12.6288 180.547 12.0432 179.087 12.0432C177.627 12.0432 176.44 12.6288 175.528 13.8C174.661 14.9243 174.228 16.6108 174.228 18.8595C174.228 21.155 174.661 22.9117 175.528 24.1297C176.44 25.3009 177.627 25.8865 179.087 25.8865Z" fill="white"/>
<path d="M175.824 93C174.404 93 173.09 92.7689 171.884 92.3068C170.694 91.8446 169.656 91.1941 168.769 90.3554C167.899 89.4995 167.216 88.4896 166.719 87.3257C166.24 86.1446 166 84.8437 166 83.423C166 81.5401 166.417 79.8968 167.251 78.4932C168.085 77.0725 169.239 75.9685 170.712 75.1811C172.203 74.3937 173.898 74 175.797 74C177.732 74 179.435 74.3937 180.908 75.1811C182.382 75.9685 183.535 77.0725 184.369 78.4932C185.221 79.914 185.647 81.5658 185.647 83.4486C185.647 84.8523 185.399 86.1446 184.902 87.3257C184.423 88.4896 183.739 89.4995 182.852 90.3554C181.982 91.1941 180.944 91.8446 179.737 92.3068C178.548 92.7689 177.243 93 175.824 93ZM175.797 89.8676C176.915 89.8676 177.9 89.5937 178.752 89.0459C179.604 88.4982 180.269 87.745 180.749 86.7865C181.246 85.8108 181.494 84.6811 181.494 83.3973C181.494 82.1306 181.255 81.0266 180.775 80.0851C180.296 79.1437 179.631 78.4162 178.779 77.9027C177.927 77.3892 176.933 77.1324 175.797 77.1324C174.679 77.1324 173.694 77.3892 172.842 77.9027C171.99 78.4162 171.324 79.1437 170.845 80.0851C170.384 81.0095 170.153 82.1135 170.153 83.3973C170.153 84.6982 170.393 85.8365 170.872 86.8122C171.351 87.7707 172.017 88.5239 172.869 89.0716C173.72 89.6023 174.697 89.8676 175.797 89.8676Z" fill="white"/>
<path d="M187.773 92.7432V74.2568H191.873V92.7432H187.773ZM189.69 85.5797V82.55H200.685V85.5797H189.69ZM189.69 77.2865V74.2568H201.297V77.2865H189.69Z" fill="white"/>
<path d="M203.476 92.7432V74.2568H207.576V92.7432H203.476ZM205.393 85.5797V82.55H216.388V85.5797H205.393ZM205.393 77.2865V74.2568H217V77.2865H205.393Z" fill="white"/>
</svg>
