<svg fill="none" height="100" viewBox="0 0 148 100" width="148" xmlns="http://www.w3.org/2000/svg" xmlns:xlink="http://www.w3.org/1999/xlink"><linearGradient id="a" gradientUnits="userSpaceOnUse" x1="-42.177" x2="3.25492" y1="93.501" y2="33.21"><stop offset="0" stop-color="#97bfff"/><stop offset="1" stop-color="#116fff"/></linearGradient><linearGradient id="b" gradientUnits="userSpaceOnUse" x1="94.7948" x2="94.7948" y1="-4.68555" y2="104.172"><stop offset="0" stop-color="#1270ff"/><stop offset="1" stop-color="#a3c6ff"/></linearGradient><linearGradient id="c" gradientUnits="userSpaceOnUse" x1="41.5762" x2="41.5762" y1="-5" y2="104.156"><stop offset="0" stop-color="#a6c8ff"/><stop offset="1" stop-color="#0166ff"/></linearGradient><clipPath id="d"><path d="m0 0h148v100h-148z"/></clipPath><clipPath id="e"><path d="m-65-5h213.141v109.156h-213.141z"/></clipPath><g clip-path="url(#d)"><g clip-path="url(#e)"><path d="m41.934 24.9186c-15.7708-18.7626-29.8178-29.60415-52.3984-29.60415-30.06 0-54.4357 24.36145-54.4357 54.42145s24.3614 54.4211 54.4214 54.4211c12.90733 0 24.7604-4.4873 34.0918-11.9952 5.6273-4.5161 12.4229-11.3972 18.0075-17.7653 0 0 1.3677-48.2385.3134-49.4922zm-37.49662 41.4001c-.82629.7551-1.63835 1.3819-3.533123 2.6071-2.464637 1.5814-7.208697 3.1343-11.368657 3.1343-12.3232 0-22.3242-9.9868-22.3242-22.3242s9.9868-22.3242 22.3242-22.3242c6.15446 0 11.56811 2.6071 15.41465 6.183 4.11722 3.8323 15.18675 16.3834 15.18675 16.3834s-8.4339 10.2289-15.69962 16.3264z" fill="url(#a)"/><path d="m59.2713 7.46667c-6.2257 5.05753-12.2662 11.34013-17.3949 17.50893l-.2565 49.4351c14.2037 17.5802 30.4447 29.7613 51.9283 29.7613 30.0598 0 54.4218-24.3619 54.4218-54.4219s-24.362-54.43565-54.4218-54.43565c-12.9927 0-24.9312 4.558866-34.2912 12.15222zm3.6756 42.51143s11.0695-12.5654 15.2009-16.3834c3.8466-3.5759 9.246-6.183 15.4147-6.183 12.3235 0 22.3245 9.9868 22.3245 22.3242s-9.987 22.3242-22.3245 22.3242c-4.16 0-8.904-1.5529-11.3687-3.1343-1.8948-1.2251-2.7068-1.852-3.5331-2.607-7.2657-6.0975-15.6996-16.3265-15.6996-16.3265z" fill="url(#b)"/><path d="m-54.0438 17.1247c-12.95 17.6514-10.8273 35.4452-10.8273 35.4452s-.6696-33.7641 36.3142-33.7641c22.63761 0 37.92404 19.1187 48.6944 31.1712 5.0717 5.6701 11.9527 13.1923 21.9537 25.0311 12.2377 14.4886 24.7319 29.1479 51.4725 29.1479 17.7513 0 33.7353-8.4906 42.4113-19.8023 14.688-19.1614 11.982-36.6418 11.982-36.6418s-1.667 33.0517-34.277 33.0517c-27.5672 0-38.7792-18.8195-59.8497-42.9958-20.5861-23.6063-33.8353-42.7678-65.035-42.7678-19.2042 0-34.7471 11.08374-42.8391 22.1247z" fill="url(#c)"/></g></g></svg>