<svg fill="none" height="100" viewBox="0 0 149 100" width="149" xmlns="http://www.w3.org/2000/svg" xmlns:xlink="http://www.w3.org/1999/xlink"><linearGradient id="a" gradientUnits="userSpaceOnUse" x1="22.8231" x2="68.255" y1="93.501" y2="33.21"><stop offset="0" stop-color="#97bfff"/><stop offset="1" stop-color="#116fff"/></linearGradient><linearGradient id="b" gradientUnits="userSpaceOnUse" x1="159.795" x2="159.795" y1="-4.68555" y2="104.172"><stop offset="0" stop-color="#1270ff"/><stop offset="1" stop-color="#a3c6ff"/></linearGradient><linearGradient id="c" gradientUnits="userSpaceOnUse" x1="106.576" x2="106.576" y1="-5" y2="104.156"><stop offset="0" stop-color="#a6c8ff"/><stop offset="1" stop-color="#0166ff"/></linearGradient><clipPath id="d"><path d="m0 0h149v100h-149z"/></clipPath><clipPath id="e"><path d="m0-5h213.141v109.156h-213.141z"/></clipPath><g clip-path="url(#d)"><g clip-path="url(#e)"><path d="m106.934 24.9186c-15.7707-18.7626-29.8177-29.60415-52.3983-29.60415-30.0601 0-54.4357244 24.36145-54.4357244 54.42145s24.3614244 54.4211 54.4214244 54.4211c12.9073 0 24.7603-4.4873 34.0918-11.9952 5.6273-4.5161 12.4228-11.3972 18.0078-17.7653 0 0 1.367-48.2385.313-49.4922zm-37.4966 41.4001c-.8263.7551-1.6383 1.3819-3.5331 2.6071-2.4646 1.5814-7.2087 3.1343-11.3686 3.1343-12.3232 0-22.3242-9.9868-22.3242-22.3242s9.9867-22.3242 22.3242-22.3242c6.1544 0 11.5681 2.6071 15.4146 6.183 4.1172 3.8323 15.1867 16.3834 15.1867 16.3834s-8.4339 10.2289-15.6996 16.3264z" fill="url(#a)"/><path d="m124.271 7.46667c-6.225 5.05753-12.266 11.34013-17.395 17.50893l-.256 49.4351c14.204 17.5802 30.445 29.7613 51.928 29.7613 30.06 0 54.422-24.3619 54.422-54.4219s-24.362-54.43565-54.422-54.43565c-12.993 0-24.931 4.558866-34.291 12.15222zm3.676 42.51143s11.069-12.5654 15.201-16.3834c3.846-3.5759 9.246-6.183 15.414-6.183 12.324 0 22.325 9.9868 22.325 22.3242s-9.987 22.3242-22.325 22.3242c-4.16 0-8.904-1.5529-11.368-3.1343-1.895-1.2251-2.707-1.852-3.533-2.607-7.266-6.0975-15.7-16.3265-15.7-16.3265z" fill="url(#b)"/><path d="m10.9562 17.1247c-12.95002 17.6514-10.827295 35.4452-10.827295 35.4452s-.669583-33.7641 36.314195-33.7641c22.6376 0 37.924 19.1187 48.6944 31.1712 5.0717 5.6701 11.9527 13.1923 21.9535 25.0311 12.238 14.4886 24.732 29.1479 51.473 29.1479 17.751 0 33.735-8.4906 42.411-19.8023 14.688-19.1614 11.982-36.6418 11.982-36.6418s-1.667 33.0517-34.277 33.0517c-27.567 0-38.779-18.8195-59.85-42.9958-20.5858-23.6063-33.835-42.7678-65.0347-42.7678-19.2042 0-34.7471 11.08374-42.8391 22.1247z" fill="url(#c)"/></g></g></svg>