<svg width="70" height="74" viewBox="0 0 70 74" fill="none" xmlns="http://www.w3.org/2000/svg">
<g filter="url(#filter0_d_8962_7269)">
<path d="M35 74L69.8813 63.6658H70V0H0V63.6658H0.110223L35 74Z" fill="#EB003F"/>
</g>
<path d="M17.98 30C18.18 27.72 18.74 25.5267 19.66 23.42C20.5933 21.3 21.7733 19.3533 23.2 17.58V17.96H15.48V15.6H26.1V17.8C25.1933 19.0933 24.4 20.3933 23.72 21.7C23.04 23.0067 22.4933 24.3467 22.08 25.72C21.6667 27.08 21.4 28.5067 21.28 30H17.98ZM32.8161 30.2C31.6161 30.2 30.5428 29.8867 29.5961 29.26C28.6628 28.62 27.9294 27.74 27.3961 26.62C26.8628 25.4867 26.5961 24.1933 26.5961 22.74C26.5961 21.2867 26.8628 20.0133 27.3961 18.92C27.9294 17.8133 28.6628 16.9533 29.5961 16.34C30.5428 15.7133 31.6161 15.4 32.8161 15.4C34.0294 15.4 35.1028 15.7133 36.0361 16.34C36.9694 16.9533 37.7028 17.8133 38.2361 18.92C38.7694 20.0133 39.0361 21.2867 39.0361 22.74C39.0361 24.2067 38.7694 25.5 38.2361 26.62C37.7028 27.74 36.9628 28.62 36.0161 29.26C35.0828 29.8867 34.0161 30.2 32.8161 30.2ZM32.8161 27.64C33.4961 27.64 34.0561 27.4133 34.4961 26.96C34.9361 26.5067 35.2628 25.9067 35.4761 25.16C35.6894 24.4133 35.7961 23.6 35.7961 22.72C35.7961 21.84 35.6894 21.04 35.4761 20.32C35.2628 19.6 34.9361 19.0267 34.4961 18.6C34.0561 18.1733 33.4961 17.96 32.8161 17.96C32.1361 17.96 31.5761 18.18 31.1361 18.62C30.6961 19.0467 30.3694 19.62 30.1561 20.34C29.9428 21.06 29.8361 21.8533 29.8361 22.72C29.8361 23.6133 29.9428 24.4333 30.1561 25.18C30.3694 25.9267 30.6961 26.5267 31.1361 26.98C31.5894 27.42 32.1494 27.64 32.8161 27.64ZM40.7773 30L51.2973 15.6H53.5973L43.0973 30H40.7773ZM51.0173 30.2C50.4573 30.2 49.9307 30.0667 49.4373 29.8C48.944 29.5333 48.544 29.1267 48.2373 28.58C47.9307 28.0333 47.7773 27.34 47.7773 26.5C47.7773 25.66 47.924 24.9733 48.2173 24.44C48.524 23.8933 48.924 23.4867 49.4173 23.22C49.9107 22.9533 50.444 22.82 51.0173 22.82C51.6173 22.82 52.164 22.9533 52.6573 23.22C53.164 23.4867 53.564 23.8933 53.8573 24.44C54.1507 24.9733 54.2973 25.66 54.2973 26.5C54.2973 27.34 54.144 28.0333 53.8373 28.58C53.5307 29.1267 53.124 29.5333 52.6173 29.8C52.124 30.0667 51.5907 30.2 51.0173 30.2ZM51.0173 28.48C51.4307 28.48 51.7773 28.3133 52.0573 27.98C52.3373 27.6333 52.4773 27.1333 52.4773 26.48C52.4773 25.8533 52.3373 25.3733 52.0573 25.04C51.7907 24.7067 51.444 24.54 51.0173 24.54C50.5907 24.54 50.244 24.7067 49.9773 25.04C49.724 25.3733 49.5973 25.8533 49.5973 26.48C49.5973 27.1333 49.724 27.6333 49.9773 27.98C50.244 28.3133 50.5907 28.48 51.0173 28.48ZM43.2173 22.78C42.644 22.78 42.1107 22.6467 41.6173 22.38C41.124 22.1133 40.724 21.7067 40.4173 21.16C40.124 20.6133 39.9773 19.92 39.9773 19.08C39.9773 18.24 40.124 17.5533 40.4173 17.02C40.724 16.4733 41.124 16.0667 41.6173 15.8C42.1107 15.5333 42.644 15.4 43.2173 15.4C43.8173 15.4 44.364 15.5333 44.8573 15.8C45.3507 16.0667 45.744 16.4733 46.0373 17.02C46.3307 17.5533 46.4773 18.24 46.4773 19.08C46.4773 19.92 46.324 20.6133 46.0173 21.16C45.7107 21.7067 45.3107 22.1133 44.8173 22.38C44.324 22.6467 43.7907 22.78 43.2173 22.78ZM43.2173 21.06C43.6307 21.06 43.9773 20.8933 44.2573 20.56C44.5373 20.2133 44.6773 19.7133 44.6773 19.06C44.6773 18.4333 44.5373 17.9533 44.2573 17.62C43.9907 17.2867 43.644 17.12 43.2173 17.12C42.7907 17.12 42.444 17.2867 42.1773 17.62C41.924 17.94 41.7973 18.42 41.7973 19.06C41.7973 19.7133 41.924 20.2133 42.1773 20.56C42.444 20.8933 42.7907 21.06 43.2173 21.06Z" fill="white"/>
<path d="M24.3841 53.18C23.4241 53.18 22.5361 53.018 21.7201 52.694C20.9161 52.37 20.2141 51.914 19.6141 51.326C19.0261 50.726 18.5641 50.018 18.2281 49.202C17.9041 48.374 17.7421 47.462 17.7421 46.466C17.7421 45.146 18.0241 43.994 18.5881 43.01C19.1521 42.014 19.9321 41.24 20.9281 40.688C21.9361 40.136 23.0821 39.86 24.3661 39.86C25.6741 39.86 26.8261 40.136 27.8221 40.688C28.8181 41.24 29.5981 42.014 30.1621 43.01C30.7381 44.006 31.0261 45.164 31.0261 46.484C31.0261 47.468 30.8581 48.374 30.5221 49.202C30.1981 50.018 29.7361 50.726 29.1361 51.326C28.5481 51.914 27.8461 52.37 27.0301 52.694C26.2261 53.018 25.3441 53.18 24.3841 53.18ZM24.3661 50.984C25.1221 50.984 25.7881 50.792 26.3641 50.408C26.9401 50.024 27.3901 49.496 27.7141 48.824C28.0501 48.14 28.2181 47.348 28.2181 46.448C28.2181 45.56 28.0561 44.786 27.7321 44.126C27.4081 43.466 26.9581 42.956 26.3821 42.596C25.8061 42.236 25.1341 42.056 24.3661 42.056C23.6101 42.056 22.9441 42.236 22.3681 42.596C21.7921 42.956 21.3421 43.466 21.0181 44.126C20.7061 44.774 20.5501 45.548 20.5501 46.448C20.5501 47.36 20.7121 48.158 21.0361 48.842C21.3601 49.514 21.8101 50.042 22.3861 50.426C22.9621 50.798 23.6221 50.984 24.3661 50.984ZM32.4635 53V40.04H35.2355V53H32.4635ZM33.7595 47.978V45.854H41.1935V47.978H33.7595ZM33.7595 42.164V40.04H41.6075V42.164H33.7595ZM43.0807 53V40.04H45.8527V53H43.0807ZM44.3767 47.978V45.854H51.8107V47.978H44.3767ZM44.3767 42.164V40.04H52.2247V42.164H44.3767Z" fill="white"/>
<defs>
<filter id="filter0_d_8962_7269" x="-8" y="-10" width="90" height="94" filterUnits="userSpaceOnUse" color-interpolation-filters="sRGB">
<feFlood flood-opacity="0" result="BackgroundImageFix"/>
<feColorMatrix in="SourceAlpha" type="matrix" values="0 0 0 0 0 0 0 0 0 0 0 0 0 0 0 0 0 0 127 0" result="hardAlpha"/>
<feOffset dx="2"/>
<feGaussianBlur stdDeviation="5"/>
<feColorMatrix type="matrix" values="0 0 0 0 0.458824 0 0 0 0 0.290196 0 0 0 0 0.290196 0 0 0 0.45 0"/>
<feBlend mode="normal" in2="BackgroundImageFix" result="effect1_dropShadow_8962_7269"/>
<feBlend mode="normal" in="SourceGraphic" in2="effect1_dropShadow_8962_7269" result="shape"/>
</filter>
</defs>
</svg>
