<svg width="90" height="94" viewBox="0 0 90 94" fill="none" xmlns="http://www.w3.org/2000/svg">
<g filter="url(#filter0_d_8962_7269)">
<path d="M43 84L77.8813 73.6658H78V10H8V73.6658H8.11022L43 84Z" fill="#EB003F"/>
</g>
<path d="M25.98 40C26.18 37.72 26.74 35.5267 27.66 33.42C28.5933 31.3 29.7733 29.3533 31.2 27.58V27.96H23.48V25.6H34.1V27.8C33.1933 29.0933 32.4 30.3933 31.72 31.7C31.04 33.0067 30.4933 34.3467 30.08 35.72C29.6667 37.08 29.4 38.5067 29.28 40H25.98ZM40.8161 40.2C39.6161 40.2 38.5428 39.8867 37.5961 39.26C36.6628 38.62 35.9294 37.74 35.3961 36.62C34.8628 35.4867 34.5961 34.1933 34.5961 32.74C34.5961 31.2867 34.8628 30.0133 35.3961 28.92C35.9294 27.8133 36.6628 26.9533 37.5961 26.34C38.5428 25.7133 39.6161 25.4 40.8161 25.4C42.0294 25.4 43.1028 25.7133 44.0361 26.34C44.9694 26.9533 45.7028 27.8133 46.2361 28.92C46.7694 30.0133 47.0361 31.2867 47.0361 32.74C47.0361 34.2067 46.7694 35.5 46.2361 36.62C45.7028 37.74 44.9628 38.62 44.0161 39.26C43.0828 39.8867 42.0161 40.2 40.8161 40.2ZM40.8161 37.64C41.4961 37.64 42.0561 37.4133 42.4961 36.96C42.9361 36.5067 43.2628 35.9067 43.4761 35.16C43.6894 34.4133 43.7961 33.6 43.7961 32.72C43.7961 31.84 43.6894 31.04 43.4761 30.32C43.2628 29.6 42.9361 29.0267 42.4961 28.6C42.0561 28.1733 41.4961 27.96 40.8161 27.96C40.1361 27.96 39.5761 28.18 39.1361 28.62C38.6961 29.0467 38.3694 29.62 38.1561 30.34C37.9428 31.06 37.8361 31.8533 37.8361 32.72C37.8361 33.6133 37.9428 34.4333 38.1561 35.18C38.3694 35.9267 38.6961 36.5267 39.1361 36.98C39.5894 37.42 40.1494 37.64 40.8161 37.64ZM48.7773 40L59.2973 25.6H61.5973L51.0973 40H48.7773ZM59.0173 40.2C58.4573 40.2 57.9307 40.0667 57.4373 39.8C56.944 39.5333 56.544 39.1267 56.2373 38.58C55.9307 38.0333 55.7773 37.34 55.7773 36.5C55.7773 35.66 55.924 34.9733 56.2173 34.44C56.524 33.8933 56.924 33.4867 57.4173 33.22C57.9107 32.9533 58.444 32.82 59.0173 32.82C59.6173 32.82 60.164 32.9533 60.6573 33.22C61.164 33.4867 61.564 33.8933 61.8573 34.44C62.1507 34.9733 62.2973 35.66 62.2973 36.5C62.2973 37.34 62.144 38.0333 61.8373 38.58C61.5307 39.1267 61.124 39.5333 60.6173 39.8C60.124 40.0667 59.5907 40.2 59.0173 40.2ZM59.0173 38.48C59.4307 38.48 59.7773 38.3133 60.0573 37.98C60.3373 37.6333 60.4773 37.1333 60.4773 36.48C60.4773 35.8533 60.3373 35.3733 60.0573 35.04C59.7907 34.7067 59.444 34.54 59.0173 34.54C58.5907 34.54 58.244 34.7067 57.9773 35.04C57.724 35.3733 57.5973 35.8533 57.5973 36.48C57.5973 37.1333 57.724 37.6333 57.9773 37.98C58.244 38.3133 58.5907 38.48 59.0173 38.48ZM51.2173 32.78C50.644 32.78 50.1107 32.6467 49.6173 32.38C49.124 32.1133 48.724 31.7067 48.4173 31.16C48.124 30.6133 47.9773 29.92 47.9773 29.08C47.9773 28.24 48.124 27.5533 48.4173 27.02C48.724 26.4733 49.124 26.0667 49.6173 25.8C50.1107 25.5333 50.644 25.4 51.2173 25.4C51.8173 25.4 52.364 25.5333 52.8573 25.8C53.3507 26.0667 53.744 26.4733 54.0373 27.02C54.3307 27.5533 54.4773 28.24 54.4773 29.08C54.4773 29.92 54.324 30.6133 54.0173 31.16C53.7107 31.7067 53.3107 32.1133 52.8173 32.38C52.324 32.6467 51.7907 32.78 51.2173 32.78ZM51.2173 31.06C51.6307 31.06 51.9773 30.8933 52.2573 30.56C52.5373 30.2133 52.6773 29.7133 52.6773 29.06C52.6773 28.4333 52.5373 27.9533 52.2573 27.62C51.9907 27.2867 51.644 27.12 51.2173 27.12C50.7907 27.12 50.444 27.2867 50.1773 27.62C49.924 27.94 49.7973 28.42 49.7973 29.06C49.7973 29.7133 49.924 30.2133 50.1773 30.56C50.444 30.8933 50.7907 31.06 51.2173 31.06Z" fill="white"/>
<path d="M32.3841 63.18C31.4241 63.18 30.5361 63.018 29.7201 62.694C28.9161 62.37 28.2141 61.914 27.6141 61.326C27.0261 60.726 26.5641 60.018 26.2281 59.202C25.9041 58.374 25.7421 57.462 25.7421 56.466C25.7421 55.146 26.0241 53.994 26.5881 53.01C27.1521 52.014 27.9321 51.24 28.9281 50.688C29.9361 50.136 31.0821 49.86 32.3661 49.86C33.6741 49.86 34.8261 50.136 35.8221 50.688C36.8181 51.24 37.5981 52.014 38.1621 53.01C38.7381 54.006 39.0261 55.164 39.0261 56.484C39.0261 57.468 38.8581 58.374 38.5221 59.202C38.1981 60.018 37.7361 60.726 37.1361 61.326C36.5481 61.914 35.8461 62.37 35.0301 62.694C34.2261 63.018 33.3441 63.18 32.3841 63.18ZM32.3661 60.984C33.1221 60.984 33.7881 60.792 34.3641 60.408C34.9401 60.024 35.3901 59.496 35.7141 58.824C36.0501 58.14 36.2181 57.348 36.2181 56.448C36.2181 55.56 36.0561 54.786 35.7321 54.126C35.4081 53.466 34.9581 52.956 34.3821 52.596C33.8061 52.236 33.1341 52.056 32.3661 52.056C31.6101 52.056 30.9441 52.236 30.3681 52.596C29.7921 52.956 29.3421 53.466 29.0181 54.126C28.7061 54.774 28.5501 55.548 28.5501 56.448C28.5501 57.36 28.7121 58.158 29.0361 58.842C29.3601 59.514 29.8101 60.042 30.3861 60.426C30.9621 60.798 31.6221 60.984 32.3661 60.984ZM40.4635 63V50.04H43.2355V63H40.4635ZM41.7595 57.978V55.854H49.1935V57.978H41.7595ZM41.7595 52.164V50.04H49.6075V52.164H41.7595ZM51.0807 63V50.04H53.8527V63H51.0807ZM52.3767 57.978V55.854H59.8107V57.978H52.3767ZM52.3767 52.164V50.04H60.2247V52.164H52.3767Z" fill="white"/>
<defs>
<filter id="filter0_d_8962_7269" x="0" y="0" width="90" height="94" filterUnits="userSpaceOnUse" color-interpolation-filters="sRGB">
<feFlood flood-opacity="0" result="BackgroundImageFix"/>
<feColorMatrix in="SourceAlpha" type="matrix" values="0 0 0 0 0 0 0 0 0 0 0 0 0 0 0 0 0 0 127 0" result="hardAlpha"/>
<feOffset dx="2"/>
<feGaussianBlur stdDeviation="5"/>
<feColorMatrix type="matrix" values="0 0 0 0 0.458824 0 0 0 0 0.290196 0 0 0 0 0.290196 0 0 0 0.45 0"/>
<feBlend mode="normal" in2="BackgroundImageFix" result="effect1_dropShadow_8962_7269"/>
<feBlend mode="normal" in="SourceGraphic" in2="effect1_dropShadow_8962_7269" result="shape"/>
</filter>
</defs>
</svg>
